<?xml version="1.0" encoding="utf-8"?>
<!-- Generator: Adobe Illustrator 27.0.0, SVG Export Plug-In . SVG Version: 6.00 Build 0)  -->
<svg version="1.1" id="Layer_1" xmlns="http://www.w3.org/2000/svg" xmlns:xlink="http://www.w3.org/1999/xlink" x="0px" y="0px"
	 viewBox="0 0 100 100" style="enable-background:new 0 0 100 100;" xml:space="preserve">
<style type="text/css">
	.st0{fill:#303030;}
</style>
<path class="st0" d="M86.2,17.9L86.2,17.9c-12.2-7.2-28-2.9-35.1,9.5c-0.4,0.7-0.7,1.4-1.1,2.2c-2.2-4.9-5.9-8.9-10.5-11.6
	C27.2,10.7,11.4,15,4.3,27.3c-7.1,12.4-2.9,28.3,9.4,35.4c3.5,2,7.2,3.1,11,3.4L13.5,85.6h16.8l18.5-32.4c0.4-0.7,0.7-1.4,1.1-2.2
	c2.2,4.9,5.9,8.9,10.5,11.6c3.5,2,7.2,3.1,11,3.4L60.3,85.6h16.8l18.6-32.4C102.7,40.9,98.5,25,86.2,17.9z M36.7,46.2
	c-3.2,5.7-10.4,7.6-16.1,4.3C15,47.3,13.1,40,16.3,34.4c3.2-5.7,10.4-7.6,16.1-4.3C38.1,33.3,40,40.6,36.7,46.2z M83.5,46.2
	c-3.2,5.7-10.4,7.6-16.1,4.3c-5.6-3.2-7.6-10.5-4.3-16.2c3.2-5.7,10.4-7.6,16.1-4.3C84.9,33.3,86.8,40.6,83.5,46.2z"/>
</svg>
