<?xml version="1.0" encoding="utf-8"?>
<!-- Generator: Adobe Illustrator 28.0.0, SVG Export Plug-In . SVG Version: 6.00 Build 0)  -->
<svg version="1.1" id="Layer_1" xmlns="http://www.w3.org/2000/svg" xmlns:xlink="http://www.w3.org/1999/xlink" x="0px" y="0px"
	 viewBox="0 0 100 100" style="enable-background:new 0 0 100 100;" xml:space="preserve">
<style type="text/css">
	.st0{fill:#92CAEF;}
	.st1{fill:#9DDF7B;}
	.st2{fill:#F4EFEB;}
	.st3{fill:#DE1C25;}
</style>
<g>
	<g id="BULINE">
		<circle class="st0" cx="50" cy="50" r="49.8"/>
	</g>
	<path class="st1" d="M98.8,60c-1.1,5.4-3.1,10.6-6,15.4C88.5,82.7,82.4,88.7,75.1,93c-17.2,10-38.6,8.8-54.6-2.9
		C13.2,84.7,7.5,77.5,4.1,69.2c-1.2-2.9-2.2-6-2.8-9.1L98.8,60z"/>
	<path class="st2" d="M92.8,60v15.4c-2.5,4.2-5.6,8-9.1,11.2v-2h-8.6V93c-2.9,1.7-6,3.1-9.1,4.2V84.7H20.5v5.4
		c-3.4-2.5-6.5-5.4-9.1-8.7V60h9.1v15.5h24.8V60h9.1v15.5h29.3V60H92.8z"/>
</g>
<path class="st3" d="M66.3,26.7l-4.9,5.9L66.3,26.7c-2.3-4.5-6.1-7.7-10.7-9.1c-0.1,0-0.1,0.1-0.1,0.1l0.1-0.1c0,0-2.4-0.8-5.6-0.8
	c-6.6,0-11.3,3.4-14.1,6.6c0,0,0,0,0,0.1c-2.4,2.8-4.2,7-4.2,11.8c0,5.1,1.8,8.7,1.8,8.7c2,4.5,5.8,8.5,8.3,12
	c1.6,2,3.3,4.6,4.1,6.1c1.1,2,1.5,3.4,2.3,5.8c0.4,1.3,0.9,1.7,1.8,1.7c1,0,1.5-0.7,1.8-1.7c0.7-2.3,1.3-4,2.2-5.7
	c3.5-6.5,9.1-11.2,12.3-17.5c0,0,2.1-3.9,2.1-9.3C68.4,30.2,66.3,26.7,66.3,26.7z M50,42.2c-3.9,0-7-3.1-7-7c0-1.7,0.7-3.1,1.1-3.9
	l0.6-0.6l-0.1-0.1l0,0l0,0l0,0c0,0,0,0,0.1,0l0.1-0.1c0.4-0.5,2.3-2.4,5.3-2.4c3.7,0,7,3,7,7c0,1.9-0.8,3.4-1.3,4.1l-0.8,1
	C54.1,41,52.5,42.2,50,42.2z"/>
</svg>
