<?xml version="1.0" encoding="utf-8"?>
<!-- Generator: Adobe Illustrator 27.0.0, SVG Export Plug-In . SVG Version: 6.00 Build 0)  -->
<svg version="1.1" id="Layer_1" xmlns="http://www.w3.org/2000/svg" xmlns:xlink="http://www.w3.org/1999/xlink" x="0px" y="0px"
	 viewBox="0 0 100 100" style="enable-background:new 0 0 100 100;" xml:space="preserve">
<style type="text/css">
	.st0{fill:#F7F7F7;}
	.st1{fill:#FF9900;}
	.st2{fill:#221F1F;}
</style>
<path class="st0" d="M92.4,70.3H7.6c-2.9,0-5.3-2.4-5.3-5.3V34.9c0-2.9,2.4-5.3,5.3-5.3h84.8c2.9,0,5.3,2.4,5.3,5.3v30.2
	C97.7,68,95.3,70.3,92.4,70.3z"/>
<g>
	<path id="path8" class="st1" d="M60.7,57.6c-5.2,3.8-12.7,5.8-19.1,5.8c-9.1,0-17.2-3.3-23.4-8.9c-0.5-0.4-0.1-1,0.5-0.7
		c6.7,3.9,14.9,6.2,23.4,6.2c5.7,0,12-1.2,17.8-3.6C60.8,56,61.6,56.9,60.7,57.6"/>
	<path id="path10" class="st1" d="M62.9,55.1c-0.7-0.8-4.4-0.4-6-0.2c-0.5,0.1-0.6-0.4-0.1-0.7c3-2.1,7.8-1.5,8.4-0.8
		s-0.1,5.6-2.9,7.9c-0.4,0.4-0.8,0.2-0.6-0.3C62.1,59.4,63.5,56,62.9,55.1"/>
	<path id="path12" class="st2" d="M56.9,39.5v-2c0-0.3,0.2-0.5,0.5-0.5h9.1c0.3,0,0.5,0.2,0.5,0.5v1.7c0,0.3-0.2,0.7-0.7,1.3
		l-4.7,6.7c1.7,0,3.6,0.2,5.2,1.1c0.4,0.2,0.5,0.5,0.5,0.8v2.2c0,0.3-0.3,0.6-0.7,0.5c-2.8-1.5-6.5-1.6-9.6,0
		c-0.3,0.2-0.6-0.2-0.6-0.5v-2c0-0.3,0-0.9,0.3-1.4l5.4-7.8h-4.7C57.2,40,56.9,39.8,56.9,39.5"/>
	<path id="path14" class="st2" d="M23.9,52.1h-2.8c-0.3,0-0.5-0.2-0.5-0.5V37.5c0-0.3,0.2-0.5,0.5-0.5h2.6c0.3,0,0.5,0.2,0.5,0.5
		v1.8h0.1c0.7-1.8,1.9-2.6,3.6-2.6s2.8,0.8,3.6,2.6c0.7-1.8,2.2-2.6,3.8-2.6c1.2,0,2.4,0.5,3.2,1.5c0.9,1.2,0.7,2.9,0.7,4.4v8.9
		c0,0.3-0.2,0.5-0.5,0.5h-2.8c-0.3,0-0.5-0.2-0.5-0.5V44c0-0.6,0.1-2.1-0.1-2.7c-0.2-0.9-0.8-1.2-1.6-1.2c-0.7,0-1.4,0.4-1.6,1.2
		c-0.3,0.7-0.3,1.9-0.3,2.7v7.5c0,0.3-0.2,0.5-0.5,0.5h-2.8c-0.3,0-0.5-0.2-0.5-0.5V44c0-1.6,0.3-3.9-1.7-3.9s-1.9,2.3-1.9,3.9v7.5
		C24.4,51.9,24.2,52.1,23.9,52.1"/>
	<path id="path16" class="st2" d="M74.8,36.7c4.1,0,6.3,3.5,6.3,8c0,4.3-2.4,7.7-6.3,7.7c-4,0-6.2-3.5-6.2-7.9
		C68.6,40.1,70.8,36.7,74.8,36.7 M74.9,39.6c-2,0-2.2,2.8-2.2,4.5s0,5.4,2.1,5.4s2.2-3,2.2-4.8c0-1.2-0.1-2.6-0.4-3.8
		C76.3,40,75.7,39.6,74.9,39.6"/>
	<path id="path18" class="st2" d="M86.4,52.1h-2.7c-0.3,0-0.5-0.2-0.5-0.5V37.5c0-0.3,0.3-0.5,0.5-0.5h2.6c0.2,0,0.4,0.2,0.5,0.4
		v2.2h0.1c0.8-1.9,1.9-2.9,3.8-2.9c1.2,0,2.4,0.4,3.2,1.7c0.7,1.1,0.7,3,0.7,4.4v8.9c0,0.2-0.3,0.4-0.5,0.4h-2.8
		c-0.3,0-0.5-0.2-0.5-0.4V44c0-1.5,0.2-3.8-1.7-3.8c-0.7,0-1.3,0.4-1.6,1.1C87,42.2,87,43.1,87,44v7.6C87,51.9,86.7,52.1,86.4,52.1"
		/>
	<g id="use28" transform="translate(244.36719)">
		<path id="path30" class="st2" d="M-194.8,45.4v-0.6c-2,0-4.1,0.4-4.1,2.8c0,1.2,0.6,2,1.7,2c0.8,0,1.5-0.5,1.9-1.3
			C-194.7,47.4-194.8,46.5-194.8,45.4 M-192,52.1c-0.2,0.2-0.4,0.2-0.7,0.1c-0.9-0.8-1.1-1.1-1.6-1.8c-1.5,1.5-2.6,2-4.5,2
			c-2.3,0-4.1-1.4-4.1-4.3c0-2.2,1.2-3.8,2.9-4.5c1.5-0.7,3.6-0.8,5.2-1v-0.4c0-0.7,0.1-1.4-0.3-2c-0.3-0.5-1-0.7-1.5-0.7
			c-1,0-2,0.5-2.2,1.7c0,0.2-0.2,0.5-0.5,0.5l-2.7-0.3c-0.2-0.1-0.5-0.2-0.4-0.6c0.6-3.2,3.5-4.2,6.2-4.2c1.3,0,3.1,0.4,4.1,1.4
			c1.3,1.3,1.2,2.9,1.2,4.7V47c0,1.3,0.5,1.9,1,2.6c0.2,0.2,0.2,0.5,0,0.7C-190.4,50.7-191.4,51.6-192,52.1L-192,52.1"/>
	</g>
	<path id="path30_00000161598808716863378360000016977072606345566647_" class="st2" d="M13.6,45.4v-0.6c-2,0-4.1,0.4-4.1,2.8
		c0,1.2,0.6,2,1.7,2c0.8,0,1.5-0.5,1.9-1.3C13.6,47.4,13.6,46.5,13.6,45.4 M16.4,52.1c-0.2,0.2-0.4,0.2-0.7,0.1
		c-0.9-0.8-1.1-1.1-1.6-1.8c-1.5,1.5-2.6,2-4.5,2c-2.3,0-4.1-1.4-4.1-4.3c0-2.2,1.2-3.8,2.9-4.5c1.5-0.7,3.6-0.8,5.2-1v-0.4
		c0-0.7,0.1-1.4-0.3-2c-0.3-0.5-1-0.7-1.5-0.7c-1,0-2,0.5-2.2,1.7c0,0.2-0.2,0.5-0.5,0.5l-2.7-0.3c-0.2-0.1-0.5-0.2-0.4-0.6
		c0.6-3.2,3.5-4.2,6.2-4.2c1.3,0,3.1,0.4,4.1,1.4c1.3,1.3,1.2,2.9,1.2,4.7V47c0,1.3,0.5,1.9,1,2.6c0.2,0.2,0.2,0.5,0,0.7
		C17.9,50.7,16.9,51.6,16.4,52.1L16.4,52.1"/>
</g>
</svg>
