<?xml version="1.0" encoding="utf-8"?>
<!-- Generator: Adobe Illustrator 27.0.0, SVG Export Plug-In . SVG Version: 6.00 Build 0)  -->
<svg version="1.1" id="Layer_1" xmlns="http://www.w3.org/2000/svg" xmlns:xlink="http://www.w3.org/1999/xlink" x="0px" y="0px"
	 viewBox="0 0 100 100" style="enable-background:new 0 0 100 100;" xml:space="preserve">
<style type="text/css">
	.st0{fill:url(#path844_00000162331188191161733260000003564439340351005119_);}
	.st1{fill:url(#path855_00000176750946214519491800000011187022297941649553_);}
	.st2{fill:url(#path866_00000074408184780586767960000018271131357554587557_);}
	.st3{fill:url(#path877_00000181079703009768046280000015454779713789061762_);}
	.st4{fill:url(#path888_00000172401398367784596180000005227840658563506057_);}
	.st5{fill:url(#path899_00000108296407566423567960000008938964149527150723_);}
	.st6{fill:url(#path910_00000087402444595765781600000016719264662865005964_);}
	.st7{fill:url(#path921_00000053538566879159973900000000312750219231501225_);}
</style>
<g id="g923" transform="translate(-0.53422889,-18)">
	
		<linearGradient id="path844_00000133489847786567163350000011955435175105933734_" gradientUnits="userSpaceOnUse" x1="-840.7568" y1="683.4881" x2="-840.0837" y2="683.4881" gradientTransform="matrix(90.9945 -90.9945 90.9945 90.9945 14333.8975 -138599.5469)">
		<stop  offset="0" style="stop-color:#0C6CB3"/>
		<stop  offset="0.2911" style="stop-color:#1E84C4"/>
		<stop  offset="0.8873" style="stop-color:#4CC0EF"/>
		<stop  offset="1" style="stop-color:#4CC0EF"/>
	</linearGradient>
	<path id="path844" style="fill:url(#path844_00000133489847786567163350000011955435175105933734_);" d="M66.3,64.2
		c-0.6,0.4-1.6,0.8-2.8,0.8c-1.8,0-3.6-0.2-5.3-0.8c-0.4-0.1-0.8-0.2-1-0.2c-0.3,0-0.4,0.2-0.4,0.6v1.1c0,0.3,0.1,0.5,0.2,0.8
		c0.1,0.1,0.3,0.3,0.6,0.4c1.7,0.8,3.7,1.1,5.8,1.1c2.3,0,4-0.5,5.4-1.6s2-2.5,2-4.3c0-1.3-0.3-2.3-1-3.1c-0.6-0.8-1.7-1.5-3.2-2
		l-3-1.2c-1.2-0.4-2-0.9-2.4-1.3c-0.4-0.4-0.6-0.9-0.6-1.6c0-1.6,1.2-2.5,3.7-2.5c1.4,0,2.8,0.2,4.1,0.6c0.4,0.1,0.8,0.2,0.9,0.2
		c0.3,0,0.5-0.2,0.5-0.6v-1.1c0-0.3-0.1-0.5-0.2-0.8c-0.1-0.2-0.3-0.3-0.6-0.4c-1.6-0.5-3.2-0.9-4.9-0.9c-2,0-3.8,0.5-5.1,1.5
		s-1.9,2.4-1.9,4c0,2.5,1.4,4.3,4.2,5.4l3.2,1.2c1.1,0.4,1.7,0.8,2.2,1.2c0.4,0.4,0.5,0.9,0.5,1.5C67.3,63,67,63.8,66.3,64.2z"/>
	
		<linearGradient id="path855_00000112592180267732165150000013922935143516282802_" gradientUnits="userSpaceOnUse" x1="-840.7568" y1="683.3835" x2="-840.0837" y2="683.3835" gradientTransform="matrix(90.9945 -90.9945 90.9945 90.9945 14333.8975 -138599.5469)">
		<stop  offset="0" style="stop-color:#0C6CB3"/>
		<stop  offset="0.2911" style="stop-color:#1E84C4"/>
		<stop  offset="0.8873" style="stop-color:#4CC0EF"/>
		<stop  offset="1" style="stop-color:#4CC0EF"/>
	</linearGradient>
	<path id="path855" style="fill:url(#path855_00000112592180267732165150000013922935143516282802_);" d="M49.4,48.7V63
		c-1.8,1.2-3.7,1.8-5.5,1.8c-1.2,0-2-0.3-2.6-1s-0.8-1.6-0.8-3V48.7c0-0.5-0.2-0.8-0.8-0.8h-2.3c-0.5,0-0.8,0.2-0.8,0.8v13.4
		c0,1.8,0.4,3.3,1.4,4.3c1,1,2.4,1.5,4.2,1.5c2.5,0,5-0.9,7.3-2.6l0.2,1.3c0,0.3,0.1,0.4,0.3,0.5c0.1,0.1,0.3,0.1,0.6,0.1h1.6
		c0.5,0,0.8-0.2,0.8-0.8V48.7c0-0.5-0.2-0.8-0.8-0.8h-2.3C49.6,47.9,49.4,48.3,49.4,48.7z"/>
	
		<linearGradient id="path866_00000039098617450101583410000003576984822097749143_" gradientUnits="userSpaceOnUse" x1="-840.7568" y1="683.2335" x2="-840.0837" y2="683.2335" gradientTransform="matrix(90.9945 -90.9945 90.9945 90.9945 14333.8975 -138599.5469)">
		<stop  offset="0" style="stop-color:#0C6CB3"/>
		<stop  offset="0.2911" style="stop-color:#1E84C4"/>
		<stop  offset="0.8873" style="stop-color:#4CC0EF"/>
		<stop  offset="1" style="stop-color:#4CC0EF"/>
	</linearGradient>
	<path id="path866" style="fill:url(#path866_00000039098617450101583410000003576984822097749143_);" d="M28.9,67.4h2.3
		c0.5,0,0.8-0.2,0.8-0.8V53.1c0-1.8-0.4-3.2-1.4-4.2c-1-1-2.3-1.5-4.1-1.5c-2.5,0-5.1,0.9-7.6,2.7c-0.9-1.8-2.5-2.7-4.9-2.7
		s-4.7,0.9-7.1,2.5l-0.2-1.2c0-0.3-0.1-0.4-0.3-0.5C6.3,48,6,48,5.8,48H4.1c-0.5,0-0.8,0.2-0.8,0.8v17.9c0,0.5,0.2,0.8,0.8,0.8h2.3
		c0.5,0,0.8-0.2,0.8-0.8V52.1c1.8-1.1,3.7-1.7,5.6-1.7c1.1,0,1.8,0.3,2.3,1c0.4,0.6,0.8,1.5,0.8,2.8v12.4c0,0.5,0.2,0.8,0.8,0.8h2.3
		c0.5,0,0.8-0.2,0.8-0.8V53.3v-0.6c0-0.2,0-0.4,0-0.5c1.9-1.2,3.8-1.7,5.6-1.7c1.1,0,1.8,0.3,2.3,1c0.4,0.6,0.8,1.5,0.8,2.8v12.4
		C28.2,67.1,28.4,67.4,28.9,67.4z"/>
	
		<linearGradient id="path877_00000158020270700875486370000007151548605161799812_" gradientUnits="userSpaceOnUse" x1="-840.7565" y1="683.5139" x2="-840.0834" y2="683.5139" gradientTransform="matrix(90.9945 -90.9945 90.9945 90.9945 14333.8975 -138599.5469)">
		<stop  offset="0" style="stop-color:#0C6CB3"/>
		<stop  offset="0.2911" style="stop-color:#1E84C4"/>
		<stop  offset="0.8873" style="stop-color:#4CC0EF"/>
		<stop  offset="1" style="stop-color:#4CC0EF"/>
	</linearGradient>
	<path id="path877" style="fill:url(#path877_00000158020270700875486370000007151548605161799812_);" d="M87.7,81.7
		c-11.8,5-24.6,7.4-36.2,7.4c-17.3,0-34-4.7-47.5-12.6c-0.2-0.1-0.4-0.2-0.6-0.2c-0.8,0-1.2,0.9-0.4,1.6C15.4,89.2,32,96,50.4,96
		c13.2,0,28.4-4.1,38.8-11.9C91,82.9,89.5,80.9,87.7,81.7z"/>
	
		<linearGradient id="path888_00000106835094334574921900000003299577938880151963_" gradientUnits="userSpaceOnUse" x1="-840.7568" y1="683.637" x2="-840.0837" y2="683.637" gradientTransform="matrix(90.9945 -90.9945 90.9945 90.9945 14333.8975 -138599.5469)">
		<stop  offset="0" style="stop-color:#0C6CB3"/>
		<stop  offset="0.2911" style="stop-color:#1E84C4"/>
		<stop  offset="0.8873" style="stop-color:#4CC0EF"/>
		<stop  offset="1" style="stop-color:#4CC0EF"/>
	</linearGradient>
	<path id="path888" style="fill:url(#path888_00000106835094334574921900000003299577938880151963_);" d="M87.4,52.3
		c1-1.1,2.5-1.6,4.6-1.6c1.1,0,2.2,0.1,3.1,0.4c0.3,0.1,0.4,0.1,0.6,0.1c0.3,0,0.5-0.2,0.5-0.8v-1.1c0-0.3-0.1-0.6-0.2-0.8
		c-0.1-0.1-0.3-0.3-0.5-0.4c-1.4-0.3-2.8-0.6-4.1-0.6c-3,0-5.3,0.9-7,2.7c-1.6,1.7-2.5,4.3-2.5,7.6c0,3.2,0.8,5.7,2.4,7.4
		c1.6,1.7,3.9,2.6,6.9,2.6c1.6,0,3.1-0.2,4.3-0.8c0.3-0.1,0.5-0.2,0.6-0.4c0.1-0.1,0.1-0.4,0.1-0.8v-1.1c0-0.5-0.2-0.8-0.5-0.8
		c-0.1,0-0.3,0-0.5,0.1c-1.2,0.3-2.4,0.5-3.5,0.5c-2,0-3.6-0.5-4.5-1.6c-1-1.1-1.4-2.8-1.4-5.1v-0.5C86,55.1,86.4,53.3,87.4,52.3z"
		/>
	
		<linearGradient id="path899_00000012435533202772106820000015713894594966069432_" gradientUnits="userSpaceOnUse" x1="-840.7568" y1="683.7607" x2="-840.0837" y2="683.7607" gradientTransform="matrix(90.9945 -90.9945 90.9945 90.9945 14333.8975 -138599.5469)">
		<stop  offset="0" style="stop-color:#0C6CB3"/>
		<stop  offset="0.2911" style="stop-color:#1E84C4"/>
		<stop  offset="0.8873" style="stop-color:#4CC0EF"/>
		<stop  offset="1" style="stop-color:#4CC0EF"/>
	</linearGradient>
	<path id="path899" style="fill:url(#path899_00000012435533202772106820000015713894594966069432_);" d="M92.2,91.8
		c5.6-4.7,7.1-14.6,5.9-16.1c-0.5-0.6-3.1-1.3-6.4-1.3c-3.5,0-7.6,0.8-10.7,2.9c-1,0.6-0.8,1.5,0.2,1.4c3.3-0.4,10.9-1.3,12.3,0.4
		c1.3,1.7-1.5,8.8-2.8,12C90.5,92.2,91.3,92.5,92.2,91.8z"/>
	
		<linearGradient id="path910_00000149342880033922339800000010073242090228384168_" gradientUnits="userSpaceOnUse" x1="-840.7568" y1="683.5544" x2="-840.0837" y2="683.5544" gradientTransform="matrix(90.9945 -90.9945 90.9945 90.9945 14333.8975 -138599.5469)">
		<stop  offset="0" style="stop-color:#0C6CB3"/>
		<stop  offset="0.2911" style="stop-color:#1E84C4"/>
		<stop  offset="0.8873" style="stop-color:#4CC0EF"/>
		<stop  offset="1" style="stop-color:#4CC0EF"/>
	</linearGradient>
	<path id="path910" style="fill:url(#path910_00000149342880033922339800000010073242090228384168_);" d="M77.2,47.9H75
		c-0.5,0-0.8,0.2-0.8,0.8v17.9c0,0.5,0.2,0.8,0.8,0.8h2.3c0.5,0,0.8-0.2,0.8-0.8V48.7C78,48.3,77.8,47.9,77.2,47.9z"/>
	
		<linearGradient id="path921_00000080922216837592702380000004665406096274523069_" gradientUnits="userSpaceOnUse" x1="-840.7568" y1="683.4694" x2="-840.0837" y2="683.4694" gradientTransform="matrix(90.9945 -90.9945 90.9945 90.9945 14333.8975 -138599.5469)">
		<stop  offset="0" style="stop-color:#0C6CB3"/>
		<stop  offset="0.2911" style="stop-color:#1E84C4"/>
		<stop  offset="0.8873" style="stop-color:#4CC0EF"/>
		<stop  offset="1" style="stop-color:#4CC0EF"/>
	</linearGradient>
	<path id="path921" style="fill:url(#path921_00000080922216837592702380000004665406096274523069_);" d="M77.9,40.6
		c-0.4-0.4-1.1-0.6-1.8-0.6c-0.8,0-1.3,0.2-1.7,0.6c-0.4,0.4-0.6,1-0.6,1.6c0,0.6,0.2,1.3,0.6,1.6c0.4,0.4,1,0.6,1.7,0.6
		s1.3-0.2,1.7-0.6c0.4-0.4,0.6-1,0.6-1.6C78.4,41.6,78.3,40.9,77.9,40.6z"/>
</g>
</svg>
