<?xml version="1.0" encoding="utf-8"?>
<!-- Generator: Adobe Illustrator 27.0.0, SVG Export Plug-In . SVG Version: 6.00 Build 0)  -->
<svg version="1.1" id="Layer_1" xmlns="http://www.w3.org/2000/svg" xmlns:xlink="http://www.w3.org/1999/xlink" x="0px" y="0px"
	 viewBox="0 0 100 100" style="enable-background:new 0 0 100 100;" xml:space="preserve">
<style type="text/css">
	.st0{fill:#1E2630;}
	.st1{fill:#02A9FF;}
	.st2{fill:#FEFEFE;}
</style>
<g>
	<path class="st0" d="M0,0h100v100H0"/>
	<path class="st1" d="M62.9,63.1V26.7c0-2.1-1.1-3.2-3.2-3.2h-7.1c-2.1,0-3.2,1.2-3.2,3.2V44c0,0.5,4.7,2.8,4.8,3.2
		c3.6,14,0.8,25.2-2.6,25.7c5.5,0.3,6.1,2.9,2,1.1c0.6-7.5,3.1-7.4,10.2-0.3c0.1,0.1,1.5,3,1.5,3h16.7c2.1,0,3.2-1.2,3.2-3.2v-7.1
		c0-2.1-1.1-3.2-3.2-3.2L62.9,63.1z"/>
	<path class="st2" d="M33.3,23.4L14.6,76.8h14.5l3.2-9.2h15.8l3.1,9.2h14.4L47.1,23.4H33.3z M35.6,55.7l4.5-14.8l5,14.8H35.6z"/>
</g>
</svg>
