<?xml version="1.0" encoding="utf-8"?>
<!-- Generator: Adobe Illustrator 27.0.0, SVG Export Plug-In . SVG Version: 6.00 Build 0)  -->
<svg version="1.1" id="Layer_1" xmlns="http://www.w3.org/2000/svg" xmlns:xlink="http://www.w3.org/1999/xlink" x="0px" y="0px"
	 viewBox="0 0 100 100" style="enable-background:new 0 0 100 100;" xml:space="preserve">
<style type="text/css">
	.st0{fill:#A40000;}
	.st1{fill:#FEFEFE;}
</style>
<g>
	<path class="st0" d="M1.8,98.2c0-3.1,0-6.2,0-9.2c0-28.4,0-56.7,0-85.1c0-0.7,0-1.4,0-2.2c31.9,0,63.8,0,95.7,0
		c0.8,1,0.6,2.2,0.6,3.3c0,23.2,0,46.4,0,69.6c0,6.9,0,13.8,0,20.6c0,1,0.2,2.1-0.6,2.9C65.7,98.2,33.8,98.2,1.8,98.2z"/>
	<path class="st1" d="M13.2,21.8c24.5,0,48.7,0,73,0c-1,1.3-1.8,2.7-2.8,3.8c-1,1.1-1.5,2.2-1.2,3.6c0.2,1.3-0.4,1.6-1.7,1.6
		c-2.7-0.1-5.5,0-8.2-0.1c-1.3,0-1.7,0.4-1.6,1.7c0.1,1.5,0.1,3,0,4.5c-0.1,1.1,0.3,1.3,1.4,1.3c3-0.1,5.9,0,8.9,0
		c1.2,0,1.5,0.4,1.5,1.5c0,4.2,0.1,4.2-4.1,4.2c-2,0-4,0.1-6,0c-1.6-0.1-1.7,0.5-1.7,1.9c0,9.7,0,19.3,0.1,29c0,1.5-0.3,2-1.9,1.9
		c-3.4-0.1-3.4,0-3.4-3.4c0-9.2,0-18.5,0-27.7c0-1.2-0.3-1.6-1.6-1.6c-9.8,0.1-19.5,0.1-29.3,0c-1.3,0-1.6,0.4-1.6,1.6
		c0.1,9.7,0,19.5,0.1,29.2c0,1.4-0.2,2-1.8,2c-3.5-0.1-3.5,0-3.5-3.5c0-9.2,0-18.4,0-27.5c0-1.4-0.4-1.7-1.7-1.7
		c-2.5,0.1-5.1,0-7.6,0c-0.9,0-1.3-0.2-1.3-1.2c-0.2-4.5-0.3-4.5,4.3-4.5c1.7,0,3.4,0,5.1,0c1,0,1.3-0.3,1.2-1.3
		c-0.1-1.6-0.1-3.3,0-4.9c0-1-0.3-1.4-1.4-1.3c-2.5,0.1-5.1,0-7.6,0c-1.2,0-1.9-0.3-1.6-1.6c0.5-2.2-1.2-3.5-2.3-5.1
		C14.4,23.3,13.9,22.7,13.2,21.8z"/>
	<path class="st0" d="M40.4,38.1c-2,0-4,0-6,0c-1,0-1.4-0.2-1.4-1.3c0.1-1.6,0.1-3.3,0-4.9c0-0.9,0.2-1.3,1.2-1.3
		c4.1,0,8.2,0,12.4,0c0.9,0,1.1,0.4,1.1,1.2c0,1.7-0.1,3.4,0,5.1c0,1-0.4,1.2-1.3,1.2C44.4,38.1,42.4,38.1,40.4,38.1z"/>
	<path class="st0" d="M59.6,38.1c-2.2,0-3.9,0-5.6,0c-0.9,0-1.3-0.2-1.3-1.2c0.1-1.7,0-3.5,0-5.2c0-0.8,0.3-1.1,1.1-1.1
		c3.6,0,7.1,0,10.7,0c0.7,0,1.1,0.2,1,0.9c0,0.1,0,0.2,0,0.4c0,2,0.7,4.7-0.3,5.7C63.9,39,61.1,37.9,59.6,38.1z"/>
</g>
</svg>
