<?xml version="1.0" encoding="utf-8"?>
<!-- Generator: Adobe Illustrator 27.0.0, SVG Export Plug-In . SVG Version: 6.00 Build 0)  -->
<svg version="1.1" id="Layer_1" xmlns="http://www.w3.org/2000/svg" xmlns:xlink="http://www.w3.org/1999/xlink" x="0px" y="0px"
	 viewBox="0 0 100 100" style="enable-background:new 0 0 100 100;" xml:space="preserve">
<style type="text/css">
	.st0{fill:#FFFFFF;}
</style>
<path class="st0" d="M87.1,100H12.9C5.8,100,0,94.2,0,87.1V12.9C0,5.8,5.8,0,12.9,0h74.1C94.2,0,100,5.8,100,12.9v74.1
	C100,94.2,94.2,100,87.1,100z"/>
<path d="M43.2,59.8V46.2h-0.1l-5.4,13.5h-2.1l-5.4-13.5h-0.1v13.5h-2.5V41.5h3.2L36.6,56h0.1l5.8-14.6h3.3v18.3L43.2,59.8L43.2,59.8
	z M59.9,59.8h-2.6v-2.3h-0.1C56.5,59,55.1,60,53.1,60c-2.9,0-4.6-1.9-4.6-5v-8.6h2.7v8.1c0,2,1,3.1,2.8,3.1c2,0,3.1-1.4,3.1-3.5
	v-7.7h2.7L59.9,59.8L59.9,59.8z M67.3,46.1c3.1,0,5,1.7,5.1,4.2h-2.5c-0.2-1.3-1.1-2.1-2.6-2.1S64.8,49,64.8,50c0,0.8,0.6,1.4,2,1.7
	l2.1,0.5c2.7,0.6,3.7,1.7,3.7,3.6c0,2.4-2.2,4.1-5.3,4.1c-3.3,0-5.3-1.6-5.5-4.2h2.7c0.2,1.4,1.2,2.1,2.8,2.1s2.6-0.7,2.6-1.8
	c0-0.9-0.5-1.4-1.9-1.7l-2.1-0.5c-2.5-0.6-3.7-1.8-3.7-3.8C62.2,47.8,64.2,46.1,67.3,46.1z M74.6,42.8c0-0.9,0.7-1.6,1.6-1.6
	s1.6,0.7,1.6,1.6c0,0.9-0.7,1.6-1.6,1.6S74.6,43.8,74.6,42.8L74.6,42.8z M74.8,46.3h2.7v13.4h-2.7V46.3z M88.9,51
	c-0.3-1.4-1.3-2.6-3.1-2.6c-2.1,0-3.5,1.8-3.5,4.6c0,2.9,1.4,4.6,3.5,4.6c1.7,0,2.7-0.9,3.1-2.5h2.6c-0.3,2.8-2.5,4.8-5.7,4.8
	c-3.8,0-6.2-2.6-6.2-6.9c0-4.2,2.4-6.9,6.2-6.9c3.4,0,5.4,2.2,5.7,4.8L88.9,51L88.9,51z M19.3,43.2c-0.7,0.8-1.8,1.5-2.9,1.4
	c-0.2-1.2,0.4-2.4,1-3.1c0.7-0.9,1.9-1.5,2.9-1.5C20.4,41.1,20,42.3,19.3,43.2L19.3,43.2z M20.3,44.8c0.6,0,2.4,0.2,3.6,2
	c-0.1,0.1-2.1,1.3-2.1,3.8c0,3,2.6,4,2.6,4c0,0.1-0.4,1.4-1.3,2.8c-0.8,1.2-1.7,2.4-3,2.4c-1.3,0-1.7-0.8-3.2-0.8s-2,0.8-3.2,0.8
	c-1.3,0-2.3-1.3-3.1-2.5c-1.7-2.5-3-7-1.2-10c0.8-1.5,2.4-2.5,4-2.5c1.3,0,2.5,0.9,3.2,0.9C17.3,45.8,18.7,44.8,20.3,44.8L20.3,44.8
	z"/>
</svg>
