<?xml version="1.0" encoding="utf-8"?>
<!-- Generator: Adobe Illustrator 28.0.0, SVG Export Plug-In . SVG Version: 6.00 Build 0)  -->
<svg version="1.1" id="Layer_1" xmlns="http://www.w3.org/2000/svg" xmlns:xlink="http://www.w3.org/1999/xlink" x="0px" y="0px"
	 viewBox="0 0 100 100" style="enable-background:new 0 0 100 100;" xml:space="preserve">
<style type="text/css">
	.st0{fill:#E4E1DA;}
	.st1{fill:#FFCCD5;}
	.st2{fill:#9DDF7B;}
	.st3{fill:#FCAB1A;}
	.st4{fill:#FFD634;}
	.st5{opacity:0.125;enable-background:new    ;}
	.st6{fill:#FFFFFF;}
	.st7{fill:#90C36C;}
	.st8{fill:#F4EFEB;}
	.st9{fill:#3394E3;}
	.st10{fill:#0078D9;}
	.st11{fill:#DE1C25;}
	.st12{fill:#0179DA;}
	.st13{opacity:0.24;enable-background:new    ;}
</style>
<g id="layer1" transform="translate(-284.1986,-143.22636)">
	<g id="g7423">
		<path id="path1466" class="st0" d="M319.8,207.7v35.1H362c2.2,0,4.3-0.3,6.3-0.9L319.8,207.7z"/>
		<path id="path1468" class="st1" d="M284.6,182.8V221c0,9.5,6,17.6,14.5,20.6v-48.5L284.6,182.8z"/>
		<path id="path1486" class="st0" d="M299.1,144.9c-6.2,2.2-11,7.1-13.2,13.2l13.2,9.4V144.9z"/>
		<path id="path1506" class="st2" d="M319.8,143.6v38.5l63.2,44.7c0.5-1.9,0.8-3.8,0.8-5.8v-21.9c-11.9,0-20.9-3.3-27.3-7
			c-3.2-1.8-5.7-3.7-7.7-5.3c-1.9-1.6-3.4-2.9-4-3.3c-3.9-2.9-7.8-8.6-10.9-15.6c-3.1-7.1-5.2-15.5-5.2-23.8c0-0.1,0-0.3,0-0.4
			L319.8,143.6z"/>
		<path id="path1294" class="st3" d="M286.4,156.7c-1.2,2.7-1.8,5.6-1.8,8.8v19.2l81.8,57.8c8.6-1.7,15.4-8.5,17.1-17.1L286.4,156.7
			z"/>
		<path id="path1292" class="st4" d="M285.8,158.1c-0.8,2.3-1.3,4.8-1.3,7.3v17.3l83.7,59.1c7.2-2.1,12.8-7.9,14.8-15.1L285.8,158.1
			z"/>
		<path id="path1288" class="st5" d="M306.4,143.6c-3.2,0-6.2,0.7-9,1.9v95.4c2.7,1.2,5.8,1.9,9,1.9h15v-99.3L306.4,143.6z"/>
		<path id="path1290" class="st6" d="M306.4,143.6c-2.6,0-5.1,0.4-7.4,1.3v96.7c2.3,0.8,4.8,1.3,7.4,1.3h13.4v-99.3H306.4z"/>
		<path id="path1300" class="st7" d="M328.7,143.6c0,0.1,0,0.3,0,0.4c0,8.3,2.2,16.8,5.2,23.8c3.1,7.1,7,12.7,10.9,15.6
			c0.6,0.5,2,1.8,4,3.3c1.9,1.6,4.5,3.5,7.7,5.3c6.4,3.6,15.4,7,27.3,7v-3c-11.4,0-19.8-3.2-25.8-6.6c-3-1.7-5.4-3.5-7.3-5
			s-3.1-2.7-4.1-3.4c-3.1-2.3-7-7.6-9.9-14.4c-2.9-6.7-5-14.8-5-22.6c0-0.1,0-0.3,0-0.4L328.7,143.6z"/>
		<path id="path1302" class="st8" d="M330.3,143.6c0,0.1,0,0.3,0,0.4c0,16.2,8.5,33,15.5,38.2c3.2,2.4,14.7,15.3,38,15.3v-32.1
			c0-12.1-9.7-21.9-21.9-21.9L330.3,143.6z"/>
		<path id="path1304" class="st7" d="M351.2,143.6c0.3,10.3,2.9,17.5,9.2,23.5c3,2.9,6,5.3,10.3,7c3.3,1.3,7.4,2.1,13,2.4V173
			c-5.2-0.3-8.9-1.1-11.8-2.2c-3.8-1.5-6.3-3.5-9.2-6.3c-5.7-5.4-7.9-11.2-8.1-20.9L351.2,143.6z"/>
		<path id="path1306" class="st2" d="M353,143.6c0.3,10,2.6,16.5,8.7,22.2c5.3,5,9.7,8.2,22.2,8.9v-9.3c0-12.1-9.7-21.9-21.9-21.9
			L353,143.6z"/>
		<path id="path1308" class="st9" d="M306.4,143.6c-1,0-2,0.1-3,0.2v42.5c2-0.7,4-1.1,6.1-1.1c2,0,4,0.4,5.9,1v-42.6H306.4z"/>
		<path id="path7363" class="st10" d="M359.3,206.5c-0.3,0-0.6,0.1-0.8,0.2c-2.5,1.6-5.4,2.4-8.3,2.5c-2.1,0-4.3-0.5-6.2-1.3
			c-0.8-0.3-1.7,0-2,0.8c-1.3,2.6-1.9,5.5-2,8.4v0c0,10.7,8.7,19.4,19.4,19.4c10.7,0,19.4-8.7,19.4-19.4c0,0,0,0,0,0
			c0-2.9-0.7-5.8-2-8.4c-0.4-0.8-1.3-1.1-2-0.7c-2,0.9-4.1,1.3-6.2,1.3c-2.9,0-5.8-0.9-8.3-2.4c-0.1-0.1-0.3-0.1-0.4-0.1
			C359.6,206.6,359.4,206.5,359.3,206.5L359.3,206.5z"/>
		<path id="path7370" class="st6" d="M359.3,207.3c-0.1,0-0.3,0-0.4,0.1c-2.6,1.7-5.7,2.6-8.8,2.6c-2.2,0-4.5-0.5-6.5-1.4
			c-0.4-0.2-0.8,0-1,0.4c-1.2,2.5-1.9,5.3-1.9,8.1c0,0,0,0,0,0c0,10.3,8.3,18.6,18.6,18.6s18.6-8.3,18.6-18.6c0,0,0,0,0,0
			c0-2.8-0.6-5.6-1.9-8.1c-0.2-0.4-0.6-0.5-1-0.4c-2.1,0.9-4.3,1.4-6.5,1.4c-3.1,0-6.1-0.9-8.7-2.6
			C359.6,207.4,359.5,207.3,359.3,207.3L359.3,207.3z"/>
		<path id="path1312" class="st11" d="M359.3,208.1c-2.8,1.8-5.9,2.7-9.2,2.7c-2.4,0-4.7-0.5-6.9-1.5c-0.8,1.6-1.3,3.2-1.6,4.9h35.1
			c-0.3-1.7-0.8-3.4-1.5-4.9c-2.2,1-4.5,1.5-6.9,1.5C365.2,210.8,362.1,209.9,359.3,208.1L359.3,208.1z"/>
		<path id="path1314" class="st10" d="M341.6,215.5c-0.1,0.5-0.1,1.1-0.1,1.6c0,9.8,8,17.8,17.8,17.8l0,0c9.8,0,17.8-8,17.8-17.8
			l0,0c0-0.5,0-1.1-0.1-1.6H341.6z"/>
		<g id="flowRoot1324" transform="matrix(0.25421626,0,0,0.22728026,283.49854,147.75783)">
			<path id="path5687" class="st6" d="M278,343.5v7.6h-28.9c0.3-2.9,1.3-5.6,2.8-8.2c1.6-2.6,4.7-6,9.3-10.3c3.7-3.5,6-5.8,6.8-7
				c1.1-1.7,1.7-3.4,1.7-5c0-1.8-0.5-3.2-1.5-4.2c-1-1-2.3-1.5-4.1-1.5c-1.7,0-3.1,0.5-4.1,1.6c-1,1-1.6,2.8-1.8,5.2l-8.2-0.8
				c0.5-4.5,2-7.8,4.6-9.8c2.6-2,5.8-3,9.7-3c4.2,0,7.6,1.1,10,3.4c2.4,2.3,3.6,5.1,3.6,8.5c0,1.9-0.4,3.8-1.1,5.5
				c-0.7,1.7-1.8,3.6-3.3,5.5c-1,1.3-2.8,3.1-5.4,5.5c-2.6,2.4-4.2,4-5,4.7c-0.7,0.8-1.2,1.5-1.7,2.3H278z"/>
			<path id="path5689" class="st6" d="M290.7,328c-2.1-0.9-3.7-2.1-4.7-3.7c-1-1.6-1.4-3.3-1.4-5.2c0-3.2,1.1-5.9,3.3-7.9
				c2.2-2.1,5.4-3.1,9.6-3.1c4.1,0,7.2,1,9.5,3.1c2.3,2.1,3.4,4.7,3.4,7.9c0,2-0.5,3.8-1.6,5.3c-1,1.5-2.5,2.7-4.4,3.5
				c2.4,1,4.2,2.4,5.4,4.2c1.3,1.8,1.9,4,1.9,6.4c0,4-1.3,7.2-3.8,9.7c-2.5,2.5-5.9,3.7-10.1,3.7c-3.9,0-7.2-1-9.8-3.1
				c-3.1-2.4-4.6-5.7-4.6-10c0-2.3,0.6-4.5,1.7-6.4C286.4,330.5,288.2,329,290.7,328z M292.4,319.7c0,1.6,0.5,2.9,1.4,3.8
				c0.9,0.9,2.2,1.4,3.7,1.4c1.6,0,2.8-0.5,3.8-1.4c0.9-0.9,1.4-2.2,1.4-3.9c0-1.5-0.5-2.8-1.4-3.7c-0.9-0.9-2.1-1.4-3.7-1.4
				c-1.6,0-2.8,0.5-3.8,1.4C292.9,316.9,292.4,318.1,292.4,319.7L292.4,319.7z M291.6,338.1c0,2.3,0.6,4,1.7,5.3
				c1.2,1.3,2.6,1.9,4.4,1.9c1.7,0,3.1-0.6,4.2-1.8c1.1-1.2,1.7-3,1.7-5.3c0-2-0.6-3.6-1.7-4.8c-1.1-1.2-2.6-1.8-4.3-1.8
				c-2,0-3.5,0.7-4.5,2.1C292.1,335,291.6,336.5,291.6,338.1L291.6,338.1z"/>
			<path id="path5691" class="st6" d="M331,308c4.2,0,7.4,1.5,9.8,4.5c2.8,3.5,4.2,9.3,4.2,17.5c0,8.1-1.4,14-4.2,17.5
				c-2.3,2.9-5.6,4.4-9.7,4.4c-4.2,0-7.6-1.6-10.1-4.8c-2.6-3.2-3.8-9-3.8-17.2c0-8.1,1.4-13.9,4.2-17.5
				C323.6,309.5,326.8,308,331,308z M331,314.8c-1,0-1.9,0.3-2.7,1c-0.8,0.6-1.4,1.8-1.8,3.4c-0.6,2.1-0.8,5.7-0.8,10.8
				c0,5,0.3,8.5,0.8,10.4c0.5,1.9,1.1,3.1,1.9,3.8c0.8,0.6,1.7,0.9,2.7,0.9s1.9-0.3,2.7-0.9c0.8-0.6,1.4-1.8,1.8-3.4
				c0.6-2.1,0.8-5.7,0.8-10.7c0-5-0.3-8.5-0.8-10.4c-0.5-1.9-1.2-3.2-1.9-3.8C332.8,315.2,332,314.8,331,314.8z"/>
		</g>
		<ellipse id="circle1296" class="st12" cx="309.6" cy="202.8" rx="17.7" ry="17.7"/>
		<path id="path1298" class="st6" d="M309.5,191.9C309.5,191.9,309.5,191.9,309.5,191.9c-0.1,0-0.1,0-0.1,0c0,0-0.1,0-0.1,0
			c0,0,0,0,0,0c0,0,0,0,0,0c0,0-0.1,0-0.1,0.1c0,0-0.1,0-0.1,0c0,0-0.1,0-0.1,0.1c0,0-0.1,0.1-0.1,0.1c0,0,0,0-0.1,0.1
			c0,0-0.1,0.1-0.1,0.1c0,0,0,0,0,0.1c0,0,0,0.1-0.1,0.1c0,0,0,0,0,0l-1.6,4.7c0,0,0,0,0,0l-1.2,3.5l-0.8,2.4v0l-3.1,9
			c-0.2,0.4-0.1,0.9,0.2,1.3c0.2,0.2,0.4,0.3,0.7,0.3c0,0,0,0,0,0c0.1,0,0.1,0,0.2,0c0,0,0,0,0.1,0c0,0,0.1,0,0.1,0c0,0,0.1,0,0.1,0
			c0,0,0.1,0,0.1,0c0,0,0.1,0,0.1-0.1c0,0,0,0,0.1,0c0.1,0,0.1-0.1,0.1-0.1c0,0,0,0,0,0l0.1-0.1v0l6-5.7l6,5.7c0,0,0,0,0,0l0,0
			c0,0,0,0,0,0c0,0,0.1,0.1,0.1,0.1c0,0,0,0,0.1,0c0,0,0.1,0,0.1,0.1c0,0,0.1,0,0.1,0c0,0,0.1,0,0.1,0c0,0,0.1,0,0.1,0
			c0,0,0,0,0.1,0c0.1,0,0.1,0,0.2,0c0,0,0,0,0,0c0.2,0,0.5-0.1,0.7-0.3c0.3-0.3,0.4-0.8,0.2-1.3l-5.1-14.9c0,0,0,0,0,0l-1.6-4.7
			c0,0,0,0,0-0.1c0,0,0-0.1-0.1-0.1c0,0,0-0.1,0-0.1c0,0,0-0.1-0.1-0.1c0,0,0-0.1-0.1-0.1c0,0-0.1-0.1-0.1-0.1c0,0-0.1,0-0.1-0.1
			c0,0-0.1,0-0.1,0c0,0-0.1,0-0.1-0.1c0,0,0,0,0,0c0,0,0,0,0,0c0,0-0.1,0-0.1,0c0,0-0.1,0-0.1,0
			C309.6,191.9,309.6,191.9,309.5,191.9C309.5,191.9,309.5,191.9,309.5,191.9L309.5,191.9z"/>
		<path id="path1504" class="st13" d="M383,226.8c0,0.1-0.1,0.2-0.1,0.3C383,227,383,226.9,383,226.8L383,226.8z"/>
		<path id="path1502" class="st13" d="M383,227.1c0,0.1-0.1,0.2-0.1,0.3C382.9,227.3,382.9,227.2,383,227.1z"/>
		<path id="path1500" class="st13" d="M382.9,227.4c-0.1,0.3-0.2,0.5-0.2,0.8C382.7,227.9,382.8,227.7,382.9,227.4z"/>
		<path id="path1496" class="st13" d="M305.4,143.6c-0.1,0-0.2,0-0.3,0C305.1,143.6,305.3,143.6,305.4,143.6z"/>
		<path id="path1494" class="st13" d="M304.4,143.7c-0.2,0-0.3,0-0.5,0.1C304,143.7,304.2,143.7,304.4,143.7z"/>
		<path id="path1492" class="st13" d="M303.3,143.8c-0.2,0-0.3,0-0.5,0.1C303,143.9,303.2,143.8,303.3,143.8z"/>
		<path id="path1490" class="st13" d="M302.3,144c-0.2,0-0.3,0.1-0.5,0.1C302,144,302.2,144,302.3,144z"/>
		<path id="path1488" class="st13" d="M301.4,144.2c-0.2,0-0.4,0.1-0.5,0.1C301,144.3,301.2,144.2,301.4,144.2z"/>
		<path id="path1484" class="st13" d="M285.8,158.1c-0.1,0.3-0.2,0.5-0.3,0.8C285.6,158.7,285.7,158.4,285.8,158.1z"/>
		<path id="path1482" class="st13" d="M285.5,159c-0.1,0.3-0.2,0.5-0.2,0.8C285.4,159.5,285.5,159.3,285.5,159z"/>
		<path id="path1480" class="st13" d="M285.3,159.9c-0.1,0.2-0.1,0.5-0.2,0.8C285.2,160.4,285.2,160.2,285.3,159.9z"/>
		<path id="path1478" class="st13" d="M285.1,160.8c0,0.2-0.1,0.5-0.1,0.7C285,161.3,285,161.1,285.1,160.8z"/>
		<path id="path1476" class="st13" d="M284.9,161.7c0,0.2-0.1,0.5-0.1,0.7C284.8,162.2,284.8,162,284.9,161.7z"/>
		<path id="path1474" class="st13" d="M284.8,162.7c0,0.2-0.1,0.5-0.1,0.7C284.7,163.1,284.7,162.9,284.8,162.7z"/>
		<path id="path1472" class="st13" d="M284.7,163.6c0,0.2,0,0.5,0,0.7C284.6,164,284.6,163.8,284.7,163.6z"/>
		<path id="path1470" class="st13" d="M284.6,164.5c0,0.3,0,0.6,0,0.9C284.6,165.1,284.6,164.8,284.6,164.5z"/>
		<path id="path1464" class="st13" d="M368.2,241.9L368.2,241.9c0.2-0.1,0.4-0.1,0.6-0.2C368.6,241.8,368.4,241.9,368.2,241.9
			L368.2,241.9z"/>
		<path id="path1462" class="st13" d="M375.5,238.2c-0.3,0.3-0.7,0.5-1,0.8C374.8,238.7,375.2,238.4,375.5,238.2z"/>
		<path id="path1460" class="st13" d="M374.4,239c-0.2,0.1-0.4,0.2-0.5,0.4C374.1,239.2,374.3,239.1,374.4,239z"/>
		<path id="path1458" class="st13" d="M373.8,239.4c-0.3,0.2-0.7,0.4-1.1,0.6C373.1,239.8,373.5,239.6,373.8,239.4z"/>
		<path id="path1456" class="st13" d="M372.7,240.1c-0.2,0.1-0.4,0.2-0.6,0.3C372.3,240.3,372.5,240.2,372.7,240.1z"/>
		<path id="path1454" class="st13" d="M372.1,240.4c-0.4,0.2-0.8,0.4-1.1,0.5C371.3,240.8,371.7,240.6,372.1,240.4z"/>
		<path id="path1452" class="st13" d="M300.8,242.1c0.2,0,0.4,0.1,0.5,0.1C301.2,242.2,301,242.2,300.8,242.1z"/>
		<path id="path1450" class="st13" d="M301.8,242.4c0.2,0,0.3,0.1,0.5,0.1C302.2,242.4,302,242.4,301.8,242.4z"/>
		<path id="path1448" class="st13" d="M302.9,242.6c0.2,0,0.3,0.1,0.5,0.1C303.2,242.6,303,242.6,302.9,242.6z"/>
		<path id="path1446" class="st13" d="M303.9,242.7c0.2,0,0.3,0,0.5,0.1C304.2,242.7,304,242.7,303.9,242.7z"/>
		<path id="rect1328" class="st13" d="M305,242.8c0.1,0,0.2,0,0.3,0C305.3,242.8,305.1,242.8,305,242.8z"/>
	</g>
</g>
</svg>
