<?xml version="1.0" encoding="utf-8"?>
<!-- Generator: Adobe Illustrator 27.0.0, SVG Export Plug-In . SVG Version: 6.00 Build 0)  -->
<svg version="1.1" id="Layer_1" xmlns="http://www.w3.org/2000/svg" xmlns:xlink="http://www.w3.org/1999/xlink" x="0px" y="0px"
	 viewBox="0 0 100 100" style="enable-background:new 0 0 100 100;" xml:space="preserve">
<path d="M76.7,41.2c-2.9,4.7-7.6,7.2-12.5,7.7c-17.6,2-25.2-17.3-14.5-28C59.5,11.3,79.3,17.1,79,33C79,35.5,78.3,38.6,76.7,41.2
	L76.7,41.2z M49.8,32.7c0.6,15,19.9,15.3,23.7,4.4c3.4-9.7-4.7-17.5-13.3-16.2C53.9,21.8,49.6,26.8,49.8,32.7z M96.3,25
	c1.2-0.6,2.9-1.7,3.5-1c0.9,1-1.9,2-3.1,2.8c-3.8,2.5-7.2,5.1-10.3,8.5c-4,4.4-8.1,9.9-10.6,15.9c2.6,0.1,12.6,0.6,15,6.2
	c1.9,4.4-1.6,9-5.5,10.9c2.8,1.7,7.5,3.9,7.3,7.9C91.9,86,77.1,85.6,71,79.1c-1-1.2-1.5-2-1-2.4c0.6-0.6,1.4,0.8,2.8,2
	c0.9,0.8,1.6,1,2.4,1.5c5.4,2.8,13.9,1.7,14.5-3.3c0.3-2.3-2.8-4-5.1-5c-2.1-0.9-6.3-1.6-6.2-4c0.1-2.3,2.2-1.9,4.3-2.7
	c2.3-0.9,4.2-3.8,4.2-4.7c0-3.8-8.6-3.7-13.4-3.8c-1.1,2.5-2,5.1-2.9,9c-0.6,2.4-0.6,7.9-3.1,8.4c-3.1,0.7-4.2-2-6.1-4.1
	c-2.5-2.9-6-6.8-8.1-9.3c-12.6,4.2-22.5,8.7-34.4,15.5c-5.5,3.1-8.6,6.6-10.6,5.6c-1.7-0.8-1.4-2.6-0.6-3.7c1.6-2.2,3.9-5.1,5.8-7.9
	c2.5-3.5,4.4-6.9,5.7-10.2c2.9-7,5.1-19.7,6.1-24.4c0.4-1.7,1.3-1.4,1.4-0.6c0.1,1.8-1,8.5-1.2,9.9c-1.8,11.6-3.2,18.4-8.4,26.5
	c9.1-5.7,20-12.6,31.6-16.5C36.9,41.4,24.4,28.6,7,20.4c-2.7-1.5-7-1.8-7-2.9c0-1.1,3.3-0.2,4.3,0c9.9,2.5,20.1,8.9,27.5,14.4
	c8.9,6.5,19.6,16.5,23.7,21.2c2.7-0.9,9.5-1.9,15.4-2.1c3.1-6.6,10.6-16.7,20-22.7C92.6,27.3,94.4,25.9,96.3,25L96.3,25z M60.5,58.6
	c1.8,1.8,3.1,3.9,4.6,5.8c0.7-2.5,1.7-5.1,2.7-7.3C65.3,57.5,62.5,58,60.5,58.6L60.5,58.6z"/>
</svg>
