<?xml version="1.0" encoding="utf-8"?>
<!-- Generator: Adobe Illustrator 27.0.0, SVG Export Plug-In . SVG Version: 6.00 Build 0)  -->
<svg version="1.1" id="Layer_1" xmlns="http://www.w3.org/2000/svg" xmlns:xlink="http://www.w3.org/1999/xlink" x="0px" y="0px"
	 viewBox="0 0 100 100" style="enable-background:new 0 0 100 100;" xml:space="preserve">
<style type="text/css">
	.st0{fill:#4154A0;}
	.st1{fill:#5165AF;}
	.st2{fill:#6276B9;}
	.st3{fill:#31417B;}
	.st4{fill:#FFFFFF;}
</style>
<g id="_25-_Baidu_Tieba">
	<path class="st0" d="M10.6,1.1h78.8c5.2,0,9.4,4.2,9.4,9.4v78.8c0,5.2-4.2,9.4-9.4,9.4H10.6c-5.2,0-9.4-4.2-9.4-9.4V10.6
		C1.1,5.4,5.3,1.1,10.6,1.1z"/>
	<path class="st1" d="M89.4,1.1H10.6c-5.2,0-9.4,4.2-9.4,9.4l0,0v15.8C1.1,45.5,16.6,61,35.8,61h28.4c19.1,0,34.7-15.5,34.7-34.7
		V10.6C98.8,5.4,94.6,1.1,89.4,1.1L89.4,1.1z"/>
	<path class="st2" d="M89.4,1.1H10.6c-5.2,0-9.4,4.2-9.4,9.4l0,0v6.3c0-5.2,4.2-9.4,9.4-9.4h78.8c5.2,0,9.4,4.2,9.4,9.4v-6.3
		C98.8,5.4,94.6,1.1,89.4,1.1L89.4,1.1z"/>
	<path class="st3" d="M89.4,92.5H10.6c-5.2,0-9.4-4.2-9.4-9.4v6.3c0,5.2,4.2,9.4,9.4,9.4l0,0h78.8c5.2,0,9.4-4.2,9.4-9.4v-6.3
		C98.8,88.3,94.6,92.5,89.4,92.5z"/>
	<path class="st4" d="M66.4,41.8L66.4,41.8c2.3,0,4.1,1.8,4.1,4.1V50c0,2.3-1.8,4.1-4.1,4.1l0,0c-2.3,0-4.1-1.8-4.1-4.1v-4.1
		C62.3,43.6,64.1,41.8,66.4,41.8z"/>
	<path class="st4" d="M33.5,41.8L33.5,41.8c2.3,0,4.1,1.8,4.1,4.1V50c0,2.3-1.8,4.1-4.1,4.1l0,0c-2.3,0-4.1-1.8-4.1-4.1v-4.1
		C29.4,43.6,31.3,41.8,33.5,41.8z"/>
	<ellipse class="st4" cx="43.8" cy="34.6" rx="5.1" ry="7.2"/>
	<ellipse class="st4" cx="58.2" cy="34.6" rx="5.1" ry="7.2"/>
	<path class="st4" d="M60.6,55.5l-1.8-1.8c-1.1-1.1-2-2.3-2.7-3.7L56,49.8c-0.9-1.8-2.6-3.2-4.6-3.7c-3-0.7-6.1,0.8-7.4,3.5L43.8,50
		c-0.7,1.4-1.6,2.6-2.7,3.7l-1.8,1.8c-0.4,0.4-0.9,0.7-1.3,0.9c-2.8,1-4.8,3.5-5.3,6.4c-0.9,4.5,2,8.8,6.4,9.7
		c0.6,0.1,1.1,0.2,1.6,0.2H41c1.2,0,2.3-0.2,3.4-0.5l1-0.3c2.9-0.9,6.1-0.9,9,0l1,0.3c1.1,0.3,2.3,0.5,3.4,0.5h0.1
		c4.1,0.1,7.7-2.8,8.4-6.9c0.6-4-1.6-7.9-5.4-9.3C61.4,56.2,60.9,55.9,60.6,55.5z"/>
	<path class="st0" d="M46.4,57.7h-2.5c-3.1,0-5.6,2.5-5.6,5.6s2.5,5.6,5.6,5.6h4.1c0.9,0,1.5-0.7,1.5-1.5V53.1h-3.1L46.4,57.7z
		 M46.4,65.9h-2.5c-1.4,0.1-2.6-1-2.7-2.5c-0.1-1.4,1-2.6,2.5-2.7c0.1,0,0.2,0,0.2,0h2.6L46.4,65.9z"/>
	<path class="st0" d="M57.7,58.2v7.7h-3.6c-0.3,0-0.5-0.2-0.5-0.5v-7.2h-3.1v7.2c0,2,1.6,3.6,3.6,3.6l0,0h5.1c0.9,0,1.5-0.7,1.5-1.5
		v-9.3L57.7,58.2L57.7,58.2z"/>
	<rect x="46.4" y="53.1" class="st3" width="3.1" height="1"/>
	<path class="st3" d="M41.3,63.9c-0.3,1.4,0.6,2.8,2,3l0,0c0.2,0.1,0.4,0.1,0.5,0.1h2.6v-1h-2.5C42.6,65.9,41.5,65.1,41.3,63.9z"/>
	<path class="st3" d="M43.8,58.7h2.6v-1h-2.6c-3.1,0-5.6,2.5-5.6,5.6l0,0c0,0.2,0,0.4,0,0.5C38.4,60.9,40.9,58.7,43.8,58.7z"/>
	<path class="st3" d="M54.1,66.9h3.6v-1h-3.6c-0.3,0-0.5-0.2-0.5-0.5v1C53.6,66.7,53.8,66.9,54.1,66.9z"/>
	<rect x="57.7" y="58.2" class="st3" width="3.1" height="1"/>
	<rect x="50.5" y="58.2" class="st3" width="3.1" height="1"/>
	<path class="st3" d="M66.4,54.1c-2.3,0-4.1-1.8-4.1-4.1v3.1c-0.1,2.3,1.7,4.2,3.9,4.3c2.3,0.1,4.2-1.7,4.3-3.9c0-0.1,0-0.2,0-0.3
		v-3.1C70.5,52.3,68.7,54.1,66.4,54.1z"/>
	<path class="st3" d="M37.6,53.1V50c0.1,2.3-1.7,4.2-3.9,4.3c-2.3,0.1-4.2-1.7-4.3-3.9c0-0.1,0-0.2,0-0.3v3.1
		c-0.1,2.3,1.7,4.2,3.9,4.3c2.3,0.1,4.2-1.7,4.3-3.9C37.6,53.2,37.6,53.2,37.6,53.1z"/>
	<path class="st3" d="M43.8,44.9c2.8,0,5.1-3.2,5.1-7.2c0-0.5-0.1-1-0.1-1.5c-0.5,3.2-2.6,5.6-5,5.6c-2.5,0-4.5-2.5-5-5.6
		c-0.1,0.5-0.1,1-0.1,1.5C38.7,41.7,41,44.9,43.8,44.9z"/>
	<path class="st3" d="M58.2,44.9c2.8,0,5.1-3.2,5.1-7.2c0-0.5-0.1-1-0.1-1.5c-0.5,3.2-2.6,5.6-5,5.6s-4.5-2.5-5-5.6
		c-0.1,0.5-0.1,1-0.1,1.5C53,41.7,55.4,44.9,58.2,44.9z"/>
	<path class="st3" d="M58.9,72.6L58.9,72.6c-1.2,0-2.3-0.2-3.4-0.5l-1-0.3c-2.9-0.9-6.1-0.9-9,0l-1,0.3c-1.1,0.3-2.3,0.5-3.4,0.5
		h-0.3c-3.9,0-7.4-2.8-8.1-6.7c-0.9,4.5,2,8.8,6.5,9.6c0.5,0.1,1,0.1,1.6,0.1H41c1.2,0,2.3-0.2,3.4-0.5l1-0.3c2.9-0.9,6.1-0.9,9,0
		l1,0.3c1.1,0.3,2.3,0.5,3.4,0.5h0.1c4.5,0.1,8.3-3.4,8.5-7.9c0-0.6,0-1.2-0.1-1.8C66.5,69.9,63,72.6,58.9,72.6z"/>
</g>
</svg>
