<?xml version="1.0" encoding="utf-8"?>
<!-- Generator: Adobe Illustrator 27.0.0, SVG Export Plug-In . SVG Version: 6.00 Build 0)  -->
<svg version="1.1" id="Layer_1" xmlns="http://www.w3.org/2000/svg" xmlns:xlink="http://www.w3.org/1999/xlink" x="0px" y="0px"
	 viewBox="0 0 100 100" style="enable-background:new 0 0 100 100;" xml:space="preserve">
<style type="text/css">
	.st0{fill:#2319DC;}
	.st1{fill:#FFFFFF;}
</style>
<g>
	<path class="st0" d="M17.9,52.8c10.9-2.4,9.3-15.5,9.1-18.2c-0.5-4.5-5.6-12-12.8-11.5C5.4,24,4.3,36.5,4.3,36.5
		C3,42.4,7,55.2,17.9,52.8 M38.2,30.9c5.9,0,10.7-6.9,10.7-15.5S44.1,0,38.2,0c-6.1,0-10.9,6.9-10.9,15.5S32.1,30.9,38.2,30.9
		 M63.8,32c8.3,1.1,13.3-7.5,14.4-14.1C79.3,11.4,74,4,68.4,2.6C62.8,1.3,55.6,10.4,55,16.5C54.2,23.7,55.8,30.9,63.8,32 M95.9,42.9
		c0-3.2-2.7-12.5-12.3-12.5s-10.9,8.8-10.9,15.2c0,5.9,0.5,14.1,12.5,13.9S95.9,45.9,95.9,42.9 M83.6,70.2c0,0-12.3-9.6-19.8-20
		c-9.6-15.2-23.8-9.1-28.3-1.3c-4.8,7.7-12,12.8-13.1,14.1C21.4,64,7.5,71.8,10.7,85.4C13.7,99.2,24.6,99,24.6,99s8,0.8,17.3-1.3
		s17.3,0.5,17.3,0.5s21.6,7.2,27.8-6.7C92.9,77.4,83.6,70.2,83.6,70.2"/>
	<path class="st1" d="M40.1,56.8v9.1h-7.5c0,0-7.7,0.8-10.4,9.3c-0.8,5.6,1.1,9.1,1.3,9.6c0.3,0.8,2.7,5.1,8.8,6.1h14.1V56.8H40.1z
		 M39.8,85.4h-5.6c0,0-4-0.3-5.1-4.8c-0.8-1.9,0-4.3,0.3-5.3c0.3-0.8,1.6-2.9,4.5-3.7h5.9V85.4z M50,66.7v18.2c0,0,0.3,4.5,6.4,6.1
		h16.3V66.7h-6.9v18.2H59c0,0-2.1-0.3-2.7-1.9V66.7H50z"/>
</g>
</svg>
