<?xml version="1.0" encoding="utf-8"?>
<!-- Generator: Adobe Illustrator 27.0.0, SVG Export Plug-In . SVG Version: 6.00 Build 0)  -->
<svg version="1.1" id="Layer_1" xmlns="http://www.w3.org/2000/svg" xmlns:xlink="http://www.w3.org/1999/xlink" x="0px" y="0px"
	 viewBox="0 0 100 100" style="enable-background:new 0 0 100 100;" xml:space="preserve">
<style type="text/css">
	.st0{fill:#1769FF;}
	.st1{fill:#FFFFFF;}
</style>
<g>
	<circle id="background" class="st0" cx="50" cy="50" r="50"/>
	<path id="behance" class="st1" d="M35.3,27.3c2.2,0,4.1,0.2,5.9,0.6c1.8,0.4,3.3,1,4.6,1.9s2.3,2,3,3.5c0.7,1.4,1,3.2,1,5.3
		c0,2.3-0.5,4.2-1.6,5.7c-1,1.5-2.6,2.8-4.6,3.7c2.8,0.8,4.9,2.2,6.3,4.2c1.4,2,2.1,4.4,2.1,7.3c0,2.3-0.4,4.3-1.3,5.9
		c-0.9,1.7-2.1,3-3.6,4.1c-1.5,1.1-3.2,1.8-5.1,2.3C40,72.4,38,72.7,36,72.7H14V27.3H35.3z M34.1,45.7c1.8,0,3.2-0.4,4.4-1.3
		c1.1-0.8,1.7-2.2,1.7-4.1c0-1.1-0.2-1.9-0.6-2.6c-0.4-0.7-0.9-1.2-1.5-1.6c-0.6-0.4-1.4-0.6-2.2-0.8c-0.8-0.1-1.7-0.2-2.6-0.2H24
		v10.6L34.1,45.7L34.1,45.7z M34.6,64.9c0.9,0,1.9-0.1,2.8-0.3c0.9-0.2,1.7-0.5,2.3-1s1.2-1,1.6-1.8c0.4-0.8,0.6-1.7,0.6-2.9
		c0-2.3-0.7-4-2-5c-1.3-1-3-1.5-5.2-1.5H24v12.4L34.6,64.9L34.6,64.9z M64.5,64c1.4,1.3,3.3,2,5.8,2c1.8,0,3.4-0.5,4.7-1.4
		c1.3-0.9,2.1-1.9,2.4-2.9h7.9c-1.3,3.9-3.2,6.7-5.8,8.4c-2.6,1.7-5.8,2.5-9.5,2.5c-2.6,0-4.9-0.4-7-1.2s-3.8-2-5.3-3.5
		c-1.4-1.5-2.6-3.3-3.3-5.5c-0.8-2.1-1.2-4.4-1.2-7c0-2.5,0.4-4.7,1.2-6.9c0.8-2.1,1.9-3.9,3.4-5.5s3.2-2.8,5.3-3.6
		c2.1-0.9,4.3-1.3,6.8-1.3c2.8,0,5.2,0.5,7.3,1.6c2.1,1.1,3.8,2.5,5.1,4.3s2.3,3.9,2.9,6.2c0.6,2.3,0.8,4.8,0.6,7.3H62.3
		C62.4,60.5,63.1,62.7,64.5,64L64.5,64z M74.7,46.7c-1.1-1.2-2.7-1.8-4.9-1.8c-1.4,0-2.6,0.2-3.6,0.7c-1,0.5-1.7,1.1-2.3,1.8
		c-0.6,0.7-1,1.5-1.2,2.3c-0.2,0.8-0.4,1.5-0.4,2.2h14.7C76.5,49.6,75.8,47.9,74.7,46.7L74.7,46.7z M60.7,29.6H79v5.1H60.7V29.6z"/>
</g>
</svg>
