<?xml version="1.0" encoding="utf-8"?>
<!-- Generator: Adobe Illustrator 27.0.0, SVG Export Plug-In . SVG Version: 6.00 Build 0)  -->
<svg version="1.1" id="Layer_1" xmlns="http://www.w3.org/2000/svg" xmlns:xlink="http://www.w3.org/1999/xlink" x="0px" y="0px"
	 viewBox="0 0 100 100" style="enable-background:new 0 0 100 100;" xml:space="preserve">
<style type="text/css">
	.st0{clip-path:url(#SVGID_00000115514341604596092580000006204221429176627878_);}
	.st1{clip-path:url(#SVGID_00000055683736130269094460000003263665382330736557_);fill:#181818;}
	.st2{clip-path:url(#SVGID_00000055683736130269094460000003263665382330736557_);fill:#00FFEF;}
	.st3{clip-path:url(#SVGID_00000055683736130269094460000003263665382330736557_);fill:#FDFDFD;}
	.st4{clip-path:url(#SVGID_00000055683736130269094460000003263665382330736557_);fill:#FEFEFE;}
	.st5{clip-path:url(#SVGID_00000055683736130269094460000003263665382330736557_);fill:#FAFAFA;}
</style>
<g>
	<g>
		<defs>
			<rect id="SVGID_1_" x="0" width="100" height="100"/>
		</defs>
		<clipPath id="SVGID_00000018937335759422359790000006049242507250450611_">
			<use xlink:href="#SVGID_1_"  style="overflow:visible;"/>
		</clipPath>
		<g style="clip-path:url(#SVGID_00000018937335759422359790000006049242507250450611_);">
			<defs>
				<rect id="SVGID_00000086665633464525000490000008565807821966086795_" x="0" width="100" height="100"/>
			</defs>
			<clipPath id="SVGID_00000105399114967914651150000016117586259358285477_">
				<use xlink:href="#SVGID_00000086665633464525000490000008565807821966086795_"  style="overflow:visible;"/>
			</clipPath>
			<path style="clip-path:url(#SVGID_00000105399114967914651150000016117586259358285477_);fill:#181818;" d="M45.9,0.9
				c0.8,0.2,1.5,0.3,2.3,0.5c2.5,0.8,4.5,2.2,6,4.4c0.2,0.2,0.3,0.4,0.6,0.4c3.8,0.6,7.5,1.7,10.8,3.7c6.8,4.1,11.2,9.9,12.8,17.7
				c0.1,0.4,0.2,0.9,0.2,1.3c0,0.8,0.3,1.4,0.8,2.1c2.2,2.9,2.8,6.2,2.1,9.7c-0.8,4.4-3.2,7.8-6.6,10.5c-1,0.8-2.1,1.5-3.3,2.2
				c-0.4,0.2-0.3,0.3-0.1,0.6c0.9,1,1.7,2.1,2.4,3.3c0.1,0.2,0.3,0.4,0.6,0.4c1.7,0.4,3,1.3,3.9,2.8c0.2,0.4,0.4,0.5,0.8,0.1
				c1.3-1.1,2.7-1.8,4.5-1.8c3,0,5.7,2.3,6.3,5.3c0.4,2.1,0.1,4.2-0.5,6.2c-1.5,4.7-4,8.9-7.5,12.5c-1.1,1.1-2.3,2-3.7,2.5
				c-2.3,0.9-4.5,0.2-5.8-1.9c-0.3-0.4-0.4-0.4-0.7-0.1c-2.6,2.8-5.8,4.5-9.4,5.7c-0.6,0.2-1.3,0.4-1.9,0.6
				c-0.3,0.1-0.5,0.2-0.6,0.5c-1.1,2.2-2.3,4.2-4.1,5.9c-1.5,1.4-3.1,2.5-5.2,2.8c-3.1,0.5-5.6-0.7-7.3-3.3
				c-0.5-0.7-0.9-0.9-1.7-0.9c-5,0.1-9.6-1.2-13.7-4.1c-1.5-1-2.8-2.3-3.8-3.8c-0.2-0.3-0.5-0.6-0.9-0.7c-3.7-1.5-7-3.7-9.5-6.8
				c-1.6-2-2.9-4.3-3.4-6.9c-0.2-1.1-0.2-2.1,0.1-3.1c0.7-2.6,2.9-3.8,5.4-2.9c0.9,0.3,1.6,0.5,2.5,0c0.4-0.3,1-0.3,1.5-0.3
				c0.2,0,0.3-0.1,0.2-0.3c-0.8-2.3-0.4-4.4,1.4-6.2c0,0,0-0.1,0.1-0.1c-0.8-0.4-1.5-0.8-2.2-1.4c-3.1-2.8-3.6-7.7-1.1-11.1
				c0.3-0.4,0.2-0.5-0.2-0.7c-2.9-1.6-4.6-4.2-5-7.5c-0.5-3.1,0.3-6,2.3-8.4c0.9-1.2,2.1-2,3.5-2.6c0.4-0.1,0.4-0.3,0.2-0.6
				c-4.5-7.3,0-16.9,8.5-18c2-0.3,3.9,0,5.7,0.7c0.3,0.1,0.4,0.1,0.5-0.3c1.3-4.8,5-8.1,10-8.7c0.1,0,0.2,0,0.2-0.1H45.9z"/>
			<path style="clip-path:url(#SVGID_00000105399114967914651150000016117586259358285477_);fill:#00FFEF;" d="M85.5,36.1
				c-0.4-1.6-0.9-3.1-1.3-4.6c-0.1-0.3-0.3-0.5-0.6-0.7c-0.7-0.3-1.5-0.6-2.2-0.9c-0.1,0-0.3-0.1-0.3-0.2c0-0.2,0.2-0.2,0.3-0.2
				c0.7-0.3,1.4-0.6,2.1-0.9c0.4-0.1,0.6-0.4,0.7-0.8c0.4-1.4,0.7-2.7,1.1-4.1c0-0.1,0-0.3,0.2-0.5c0.2,0.7,0.4,1.3,0.6,2
				c0.3,0.9,0.5,1.8,0.8,2.8c0.1,0.3,0.2,0.4,0.4,0.5c0.8,0.3,1.6,0.6,2.3,0.9c0.1,0,0.3,0.1,0.3,0.2c0,0.1-0.2,0.1-0.3,0.2
				c-0.7,0.3-1.4,0.6-2.1,0.8c-0.5,0.2-0.7,0.5-0.9,1c-0.4,1.4-0.7,2.7-1.1,4.1C85.6,35.8,85.7,36,85.5,36.1"/>
			<path style="clip-path:url(#SVGID_00000105399114967914651150000016117586259358285477_);fill:#FDFDFD;" d="M51.9,96.8
				c-2.9,1.5-6.1,0.5-7.8-2.4c-0.6-1.1-1-2.2-1.4-3.4c-0.2-0.8-0.6-1.1-1.1-1c-0.5,0.1-0.7,0.6-0.5,1.4c0.1,0.5,0.3,1,0.5,1.5
				c0.1,0.3,0.1,0.4-0.2,0.4c-5.3,0.1-10.1-1.4-14.1-4.9c-0.8-0.6-1.5-1.3-2-2.2c-0.5-0.8-1.3-1.2-2.1-1.6c-2.7-1.1-5.1-2.6-7.2-4.7
				c-2.1-2.2-3.8-4.6-4.5-7.6c-0.2-0.9-0.2-1.9,0.1-2.8c0.5-1.4,1.6-2,3-1.5c0.3,0.1,0.6,0.2,0.9,0.4c0.2,0.1,0.2,0.2,0.2,0.4
				c-0.1,0.9,0.3,1.5,1,2c1.3,0.9,2.8,1.6,4.4,1.9c0.3,0.1,0.3,0.1,0.2,0.4c-0.3,0.7-0.6,1.5-0.8,2.2c-0.2,0.6,0,1,0.5,1.1
				c0.5,0.1,0.9-0.1,1-0.7c0.6-1.9,1.5-3.7,2.6-5.4c0.2-0.2,0.2-0.5,0.2-0.8c-0.5-2.7-0.5-5.3-0.3-8c0.2-2.6-0.3-5.2-1-7.7
				c-0.6-2-1.5-3.9-2.2-5.9c-1.3-3.6-1.8-7.3-1.6-11.2c0.2-3.9,0.9-7.7,2.4-11.3c2-4.8,5.1-8.8,9.3-11.9c4.2-3.1,8.8-5,14-5.7
				c6.9-1,13.5,0,19.5,3.6c6.5,3.9,10.6,9.5,11.9,17c0.1,0.7,0.2,1.3,0.2,2c0,0.3,0.1,0.5,0.3,0.7c3.1,3.4,3.4,7.4,1.9,11.6
				c-1.4,3.9-4.1,6.7-7.6,8.8c-2.9,1.7-6,2.8-9.4,3.2c-0.1,0-0.1,0-0.2,0c-0.6,0.1-0.9,0.4-0.8,0.9c0,0.5,0.5,0.8,1,0.7
				c1.1-0.1,2.3-0.3,3.4-0.6c1.2-0.3,2.4-0.7,3.6-1.2c0.3-0.1,0.4-0.1,0.6,0.1c4,4.2,6,9.2,5.6,15.1c-0.2,3.7-1.2,7.2-3.2,10.3
				c-2.2,3.3-5.2,5.5-8.8,7c-0.9,0.4-1.8,0.7-2.8,1c0-0.2,0.1-0.4,0.1-0.6c1.3-3.6,2.1-7.2,2-11c0-1.6-0.2-3.1-0.7-4.6
				c-1.3-3.7-4.4-5.8-8.5-5.6c-2.8,0.2-5.1,1.3-7,3.2c-0.3,0.3-0.5,0.3-0.9,0.1c-2.1-1.2-4.3-1.4-6.6-0.6c-0.3,0.1-0.5,0.2-0.7,0.4
				c-0.4,0.3-0.5,0.7-0.3,1.1c0.2,0.4,0.7,0.5,1.1,0.2c1.8-1,3.6-0.8,5.4,0c0.6,0.3,0.6,0.3,0.2,0.8c-0.8,1-1.4,2.1-1.9,3.3
				c-0.2,0.5-0.1,1,0.3,1.2c0.5,0.2,0.9,0,1.1-0.5c1-2.1,2.2-4,4-5.4c1.8-1.5,3.8-2.4,6.2-2.3c3.3,0.1,5.5,1.9,6.3,5.1
				c0.5,1.9,0.6,3.9,0.4,5.8c-0.4,0-0.3-0.3-0.3-0.5c0-0.6-0.1-1.1-0.3-1.7c-0.5-1.7-2-2.3-3.4-2.1c-1.6,0.2-2.8,1.2-3.8,2.4
				c-1.8,2.1-2.9,4.6-3.5,7.3c-0.5,2.3-0.8,4.5-0.8,6.9c0,1.2,0.2,2.4,0.7,3.5c0.4,0.8,0.9,1.5,1.7,1.9C51.8,96.4,52,96.5,51.9,96.8
				"/>
			<path style="clip-path:url(#SVGID_00000105399114967914651150000016117586259358285477_);fill:#00FFEF;" d="M51.9,96.8
				c-0.1-0.1-0.1-0.1-0.2-0.2c-1.4-0.4-2-1.5-2.4-2.8c-0.5-1.6-0.5-3.3-0.4-5c0.2-2.1,0.4-4.1,1-6.1c0.8-2.5,1.9-4.9,3.8-6.8
				c0.9-0.9,2-1.7,3.3-1.9c1.5-0.2,3.3,0.4,3.8,2.4c0.1,0.5,0.2,1,0.2,1.5c0,0.2,0,0.4,0.1,0.6c-0.1,1.7-0.4,3.3-0.8,4.9
				c-0.8,3.1-1.9,6.1-3.7,8.7c-1.2,1.8-2.6,3.3-4.5,4.4C52.1,96.7,52,96.8,51.9,96.8"/>
			<path style="clip-path:url(#SVGID_00000105399114967914651150000016117586259358285477_);fill:#FEFEFE;" d="M77.7,83.9
				c-2.4,1-3.7-0.4-4.4-2c-0.1-0.2,0-0.4,0.1-0.5c2.8-4.1,4-8.7,3.8-13.7c0-0.9-0.1-1.9-0.3-2.8c0-0.2-0.1-0.4,0.3-0.3
				c0.4,0.1,0.7-0.2,0.9-0.5C79,63,80,62,81.2,61.2c3.4-2,7.2,0.6,7.2,4.1c0.1,0.6,0,1.1-0.5,1.6c-0.8,0.8-1.3,1.9-1.8,2.9
				c-0.9,1.7-1.7,3.5-2.6,5.3c-1.1,2-2.3,4.1-3.7,5.9C79.1,82,78.5,83,77.7,83.9"/>
			<path style="clip-path:url(#SVGID_00000105399114967914651150000016117586259358285477_);fill:#00FFEF;" d="M31.8,11.3
				c-5.5,3.8-9.5,8.8-11.7,15c-2.2-2.2-2-8.1,0.4-11.4C23.5,10.8,28.6,10.1,31.8,11.3"/>
			<path style="clip-path:url(#SVGID_00000105399114967914651150000016117586259358285477_);fill:#00FFEF;" d="M35.1,9.4
				c0.6-2.5,3.2-5.7,7.3-6.6c3.9-0.9,7.9,0.8,9.7,3.2C46.2,5.6,40.5,6.7,35.1,9.4"/>
			<path style="clip-path:url(#SVGID_00000105399114967914651150000016117586259358285477_);fill:#00FFEF;" d="M14.1,37.3
				c0.2-3.3,1.4-5.9,4.3-7.6c0.1,0,0.1-0.1,0.2-0.1c0.1-0.1,0.3-0.2,0.4-0.1c0.1,0.1,0,0.3,0,0.4c-1,4.2-1.1,8.5-0.6,12.8
				c0.1,0.7,0.3,1.4,0.4,2.1c0,0.1,0.1,0.3,0,0.4c-0.1,0.1-0.2,0-0.3-0.1c-2.1-1.2-3.4-3-4-5.2C14.2,39,14.1,38.1,14.1,37.3"/>
			<path style="clip-path:url(#SVGID_00000105399114967914651150000016117586259358285477_);fill:#00FFEF;" d="M77.7,83.9
				c0-0.5,0.3-0.8,0.6-1.1c2.5-3.2,4.6-6.7,6.4-10.4c0.6-1.4,1.3-2.7,2-4c0.4-0.7,0.8-1.4,1.5-1.9c0.4-0.3,0.1-0.7,0.2-1.1
				c0.2,0.9,0,1.9-0.2,2.8c-0.7,3.4-2.2,6.4-4,9.3c-1.3,2-2.8,4-4.8,5.5C78.9,83.3,78.4,83.7,77.7,83.9"/>
			<path style="clip-path:url(#SVGID_00000105399114967914651150000016117586259358285477_);fill:#00FFEF;" d="M17.8,51.8
				c0-1.2,0.4-2.5,1.1-3.6c0.3-0.4,0.3-0.4,0.6,0c1.3,2.7,2.6,5.5,3.2,8.5c0.1,0.4,0.1,0.7,0.2,1.1c0.1,0.5,0,0.5-0.5,0.4
				c-1.2-0.4-2.3-1-3.1-2.1C18.3,55,17.8,53.5,17.8,51.8"/>
			<path style="clip-path:url(#SVGID_00000105399114967914651150000016117586259358285477_);fill:#00FFEF;" d="M22.9,63.5
				c0,1,0,2,0,3c0,0.1,0.1,0.3-0.1,0.4c-0.1,0.1-0.3,0-0.4-0.1c-1.6-0.9-2.1-3.5-1.1-5.1c0.3-0.5,0.7-0.9,1.2-1.2
				c0.3-0.2,0.4-0.1,0.4,0.3c0,0.9,0,1.8,0,2.7C23,63.5,22.9,63.5,22.9,63.5"/>
			<path style="clip-path:url(#SVGID_00000105399114967914651150000016117586259358285477_);fill:#00FFEF;" d="M19.5,67.7
				c1.3,0,2.3,0.8,2.5,2c0.2,1-0.3,1.4-1.2,1.1c-1-0.4-2-0.8-2.9-1.4c-0.6-0.4-0.6-0.8,0.1-1.2C18.4,67.9,19,67.7,19.5,67.7"/>
			<path style="clip-path:url(#SVGID_00000105399114967914651150000016117586259358285477_);fill:#FAFAFA;" d="M76.6,63.4
				c-0.3-1.2-0.7-2.4-1.3-3.6c0.7,0.3,1.1,0.8,1.5,1.3C77.6,62.1,77.6,62.3,76.6,63.4"/>
			<path style="clip-path:url(#SVGID_00000105399114967914651150000016117586259358285477_);fill:#181818;" d="M46.8,65.2
				c-1,0-1.9-0.2-2.8-0.5c-0.3-0.1-0.6-0.1-0.9,0.1c-0.8,0.5-1.7,0.9-2.7,1.1c-0.6,0.1-1-0.1-1.1-0.6c-0.1-0.5,0.2-0.8,0.8-1
				c0.9-0.2,1.8-0.6,2.6-1.2c0.5-0.4,0.9-0.4,1.4-0.2c1,0.4,2,0.6,3.1,0.6c2-0.1,3.4-1.9,3.2-3.8c-0.1-0.9,0.1-1.2,1.1-1.2
				c0.8,0,1.5-0.1,2.2-0.4c0.4-0.2,0.8-0.4,0.7-1c0-0.5-0.5-0.6-0.9-0.8c-0.5-0.1-1-0.1-1.5-0.2c-1.2,0-2.5-0.1-3.7-0.1
				c-0.8,0-1.1-0.4-0.9-1.1c0.1-0.5,0.1-0.9,0-1.4c-0.1-0.3-0.2-0.6-0.6-0.7c-0.4-0.1-0.6,0.1-0.8,0.3c-0.4,0.5-0.7,1.1-0.9,1.7
				c-0.1,0.4-0.3,0.7-0.7,0.8c-0.6,0.3-1,0.8-1.2,1.4c-0.2,0.5-0.5,0.7-1,0.8c-1.3,0.2-2.6,0.2-4,0.1c-0.2,0-0.3-0.1-0.5-0.2
				c-0.7-0.5-1.4-1.1-1.9-1.8c-0.4-0.5-0.3-0.9,0-1.2c0.4-0.3,0.9-0.2,1.2,0.2c0.8,1.1,1.8,1.7,3.2,1.5c0.1,0,0.2,0,0.3,0
				c0.7,0.1,1.3-0.1,1.6-0.9c0.1-0.4,0.4-0.7,0.8-0.9c0.5-0.3,0.8-0.7,1-1.3c0.3-0.7,0.7-1.2,1.3-1.7c1.3-1,3.1-0.5,3.6,1.1
				c0.1,0.4,0.2,0.8,0.2,1.3c0,0.4,0.1,0.5,0.5,0.5c1,0,2,0,3,0.1c0.7,0,1.5,0.1,2.2,0.5c1.5,0.8,1.7,2.9,0.3,4
				c-0.8,0.6-1.7,0.8-2.6,0.9c-0.4,0-0.5,0.1-0.5,0.5C51.7,63.4,49.6,65.3,46.8,65.2"/>
			<path style="clip-path:url(#SVGID_00000105399114967914651150000016117586259358285477_);fill:#181818;" d="M58.5,47
				c-2.9,0-5.2-0.2-7.6-1c-1.2-0.4-2.2-0.9-3.2-1.6c-0.5-0.4-0.6-0.8-0.3-1.2c0.3-0.4,0.8-0.4,1.3-0.1c2,1.4,4.2,2,6.6,2.2
				c5.3,0.4,10.4-0.5,15.2-2.8c1.6-0.8,3.1-1.8,4.3-3.2c0.6-0.7,1.1-1.6,1.3-2.5c0-0.1,0-0.1,0.1-0.2c0.2-0.5,0.6-0.7,1-0.6
				c0.4,0.1,0.6,0.5,0.5,1c-0.4,1.8-1.5,3.3-2.8,4.5c-1.9,1.7-4.2,2.8-6.6,3.7C64.8,46.3,61.4,46.9,58.5,47"/>
			<path style="clip-path:url(#SVGID_00000105399114967914651150000016117586259358285477_);fill:#181818;" d="M49.7,36.2
				c0-1.9,1.4-3.4,3.3-3.4c1.8,0,3.3,1.5,3.4,3.4c0,1.9-1.4,3.4-3.3,3.4C51.2,39.7,49.7,38.1,49.7,36.2"/>
			<path style="clip-path:url(#SVGID_00000105399114967914651150000016117586259358285477_);fill:#181818;" d="M74.1,32.6
				c0,0.8-0.2,1.5-0.6,2c-0.8,1.1-2.1,1.3-3.2,0.5c-1.4-1.1-1.8-3.4-0.8-4.9C70.4,29,72,28.9,73,30C73.8,30.7,74.1,31.6,74.1,32.6"
				/>
		</g>
	</g>
</g>
</svg>
