<?xml version="1.0" encoding="utf-8"?>
<!-- Generator: Adobe Illustrator 27.0.0, SVG Export Plug-In . SVG Version: 6.00 Build 0)  -->
<svg version="1.1" id="Layer_1" xmlns="http://www.w3.org/2000/svg" xmlns:xlink="http://www.w3.org/1999/xlink" x="0px" y="0px"
	 viewBox="0 0 100 100" style="enable-background:new 0 0 100 100;" xml:space="preserve">
<style type="text/css">
	.st0{fill:#F06A35;}
	.st1{fill:#FFFFFF;}
</style>
<g>
	<path class="st0" d="M12.8,97.8C11,97.3,9.4,96.6,8,95.6c-1.2-0.8-3-2.5-3.7-3.5c-0.8-1.2-1.8-3.3-2.2-4.7
		c-0.4-1.5-0.4-2.1-0.4-37.3c0-35.1,0-35.8,0.4-37.3c1.4-5.3,5.6-9.4,11-10.6c1.6-0.3,71.5-0.4,73.2-0.1C91,3,94.6,5.8,96.6,9.9
		c1.7,3.3,1.5-0.3,1.6,38.8c0,24.9,0,35.4-0.2,36.7c-0.7,6.1-4.9,10.8-11,12.4c-1.5,0.4-2.1,0.4-37.2,0.4
		C15.9,98.1,14.1,98.1,12.8,97.8z"/>
	<path class="st1" d="M63.7,79.7c4.3-0.6,7.7-2.3,10.9-5.6c2.3-2.4,3.7-4.9,4.7-8.3c0.4-1.4,0.4-2.1,0.5-10.3c0.1-6.2,0-9.1-0.2-9.9
		c-0.2-1.1-0.9-2.1-1.7-2.5c-0.2-0.1-1.7-0.3-3.3-0.4c-2.7-0.1-3-0.2-3.8-0.7c-1.3-0.8-1.7-1.6-1.7-3.9c0-4.4-1.8-8.5-5.5-12.2
		c-2.6-2.6-5.5-4.4-8.7-5.4c-0.8-0.2-2.5-0.3-8.4-0.4c-9.2-0.1-11.3,0.1-14.4,1.3c-5.8,2.3-10,7.2-11.5,13.4
		c-0.3,1.2-0.3,3.1-0.4,13.9c-0.1,13.5,0,15.5,0.9,18.2c0.7,2.2,1.4,3.6,2.9,5.5c2.8,3.7,6.9,6.3,11.1,7.1
		C36.8,79.9,61.2,80,63.7,79.7L63.7,79.7z"/>
	<path class="st0" d="M38.1,42.5c-2.2-0.6-3-3.8-1.4-5.4c1-1.1,1.3-1.1,7.8-1.1c5.8,0,6,0,6.9,0.4c1.2,0.6,1.8,1.5,1.8,2.9
		c0,1.3-0.5,2.2-1.6,2.9c-0.6,0.4-1,0.4-6.7,0.4C41.3,42.7,38.5,42.7,38.1,42.5z M37.8,63.9c-1-0.4-1.8-1.6-2-2.6
		c-0.1-1,0.3-2.3,1.1-3c0.9-0.9,1.4-0.9,13-0.9c11.9,0,11.9,0,13,1c1.6,1.5,1.3,4.2-0.7,5.2l-2,0.3l-10.3,0.1
		C40.8,64.3,38.3,64.1,37.8,63.9z"/>
</g>
</svg>
