<?xml version="1.0" encoding="utf-8"?>
<!-- Generator: Adobe Illustrator 27.5.0, SVG Export Plug-In . SVG Version: 6.00 Build 0)  -->
<svg version="1.1" id="Layer_1" xmlns="http://www.w3.org/2000/svg" xmlns:xlink="http://www.w3.org/1999/xlink" x="0px" y="0px"
	 viewBox="0 0 100 100" style="enable-background:new 0 0 100 100;" xml:space="preserve">
<style type="text/css">
	.st0{fill:#F7F7F7;}
	.st1{fill:#1185FE;}
</style>
<circle class="st0" cx="50" cy="50" r="48.1"/>
<path class="st1" d="M50,46.5c-3.2-6.1-11.8-17.6-19.8-23.2c-7.7-5.4-10.6-4.5-12.5-3.6c-2.2,1-2.6,4.4-2.6,6.4s1.1,16.4,1.8,18.8
	c2.4,8,10.8,10.6,18.5,9.8c0.4-0.1,0.8-0.1,1.2-0.2c-0.4,0.1-0.8,0.1-1.2,0.2c-11.4,1.7-21.5,5.8-8.2,20.6
	C41.8,90.3,47.2,72,50,62.7c2.8,9.3,6,26.9,22.5,12.5c12.4-12.5,3.4-18.9-8-20.6c-0.4,0-0.8-0.1-1.2-0.2c0.4,0.1,0.8,0.1,1.2,0.2
	c7.8,0.9,16.2-1.8,18.5-9.8c0.7-2.4,1.8-16.8,1.8-18.8s-0.4-5.4-2.6-6.4c-1.9-0.9-4.8-1.8-12.5,3.6C61.7,28.9,53.1,40.4,50,46.5
	L50,46.5z"/>
</svg>
