<?xml version="1.0" encoding="utf-8"?>
<!-- Generator: Adobe Illustrator 27.0.0, SVG Export Plug-In . SVG Version: 6.00 Build 0)  -->
<svg version="1.1" id="Layer_1" xmlns="http://www.w3.org/2000/svg" xmlns:xlink="http://www.w3.org/1999/xlink" x="0px" y="0px"
	 viewBox="0 0 100 100" style="enable-background:new 0 0 100 100;" xml:space="preserve">
<style type="text/css">
	.st0{fill:#74B816;}
	.st1{fill:#82C91E;}
</style>
<g>
	<path class="st0" d="M28.5,1c-4,0-7.2,3.3-7.2,7.4v9.4h17.9V8.4c0-4-3.2-7.4-7.2-7.4H28.5z M68.2,1c-4,0-7.2,3.3-7.2,7.4v49.8h17.9
		V8.4c0-4-3.2-7.4-7.2-7.4H68.2z M21.2,41.8v49.8c0,4,3.2,7.4,7.2,7.4h3.4c4,0,7.2-3.3,7.2-7.4V41.8H21.2z M60.9,82.2v9.4
		c0,4,3.3,7.4,7.2,7.4h3.4c4,0,7.2-3.3,7.2-7.4v-9.4C78.8,82.2,60.9,82.2,60.9,82.2z"/>
	<path class="st1" d="M9.1,20.7c-4,0-7.2,3.3-7.2,7.4v3.5c0,4,3.2,7.4,7.2,7.4h48.9V20.7H9.1z M81.7,20.7v18.2h9.2
		c4,0,7.2-3.3,7.2-7.4v-3.5c0-4.1-3.3-7.4-7.2-7.4L81.7,20.7L81.7,20.7z M9.1,61.1c-4,0-7.2,3.3-7.2,7.4V72c0,4,3.2,7.4,7.2,7.4h9.2
		V61.1H9.1z M41.9,61.1v18.2h48.9c4,0,7.2-3.3,7.2-7.4v-3.5c0-4.1-3.3-7.4-7.2-7.4L41.9,61.1z"/>
</g>
</svg>
