<?xml version="1.0" encoding="utf-8"?>
<!-- Generator: Adobe Illustrator 27.0.0, SVG Export Plug-In . SVG Version: 6.00 Build 0)  -->
<svg version="1.1" id="Layer_1" xmlns="http://www.w3.org/2000/svg" xmlns:xlink="http://www.w3.org/1999/xlink" x="0px" y="0px"
	 viewBox="0 0 100 100" style="enable-background:new 0 0 100 100;" xml:space="preserve">
<style type="text/css">
	.st0{fill:#F7F7F7;}
	.st1{fill:#FFDD06;}
	.st2{fill:#010202;}
</style>
<circle class="st0" cx="50" cy="50" r="48.1"/>
<g>
	<path class="st1" d="M51.9,47c-2.9,1.2-6,2.6-10.2,2.6c-1.7,0-3.5-0.2-5.2-0.7l2.9,29.6c0.1,1.3,0.6,2.4,1.6,3.2
		c0.9,0.9,2.1,1.3,3.3,1.3c0,0,4.1,0.2,5.5,0.2c1.4,0,5.9-0.2,5.9-0.2c1.3,0,2.5-0.5,3.3-1.3c0.9-0.9,1.5-2,1.6-3.2l3.1-32.6
		c-1.4-0.5-2.8-0.8-4.4-0.8C56.6,45,54.4,46,51.9,47z"/>
	<path class="st2" d="M77,31.7l-0.4-2.1c-0.4-2-1.3-3.8-3.2-4.5c-0.6-0.2-1.4-0.3-1.9-0.8c-0.5-0.5-0.6-1.2-0.8-1.9
		c-0.2-1.3-0.4-2.5-0.6-3.7c-0.2-1.1-0.3-2.3-0.8-3.2c-0.6-1.3-2-2.1-3.3-2.6c-0.6-0.2-1.3-0.5-2.1-0.6c-3.2-0.9-6.7-1.2-10.1-1.3
		c-4-0.2-8.1-0.2-12.1,0.2c-3,0.3-6.2,0.6-9,1.7c-1,0.4-2.1,0.9-2.9,1.7c-1,1-1.3,2.5-0.6,3.7c0.5,0.9,1.3,1.5,2.3,1.9
		c1.2,0.6,2.4,1,3.6,1.2c3.6,0.8,7.2,1.1,10.8,1.2c4,0.2,8,0,12-0.4c1-0.2,2-0.2,2.9-0.4c1.1-0.2,1.9-1.7,1.6-2.7
		c-0.4-1.3-1.5-1.7-2.7-1.6c-0.2,0-0.4,0.1-0.6,0.1h-0.2c-0.4,0.2-0.8,0.2-1.3,0.2c-0.9,0.1-1.7,0.2-2.6,0.2
		c-1.9,0.2-3.9,0.2-5.9,0.2c-1.9,0-3.8-0.1-5.7-0.2c-0.9-0.1-1.7-0.2-2.6-0.2c-0.4-0.1-0.8-0.1-1.2-0.2l-0.4-0.1h-0.1l-0.4-0.1
		C38,17,37.2,17,36.4,16.8c-0.1,0-0.2-0.1-0.2-0.2c-0.1-0.1-0.1-0.2-0.1-0.2s0-0.2,0.1-0.2c0.1-0.1,0.2-0.1,0.2-0.2l0,0
		c0.6-0.2,1.3-0.2,2.1-0.4c0.2-0.1,0.5-0.1,0.7-0.1l0,0c0.4,0,0.9-0.1,1.3-0.2c3.7-0.4,7.4-0.6,11.3-0.4c1.8,0.1,3.6,0.2,5.5,0.3
		c0.4,0.1,0.8,0.1,1.2,0.2c0.2,0,0.3,0.1,0.5,0.1l0.3,0.1c0.9,0.2,1.7,0.3,2.6,0.5c1.3,0.3,2.9,0.4,3.5,1.7c0.2,0.5,0.2,1,0.4,1.4
		l0.2,0.6l0,0c0.3,1.4,0.6,2.9,0.9,4.2c0,0.1,0,0.2,0,0.3s-0.1,0.2-0.2,0.3s-0.2,0.2-0.2,0.2c-0.1,0.1-0.2,0.1-0.3,0.1l0,0h-0.2
		h-0.2c-0.6,0.1-1.2,0.2-1.7,0.2c-1.1,0.2-2.3,0.2-3.4,0.3c-2.3,0.2-4.6,0.3-6.9,0.4c-1.2,0-2.4,0.1-3.5,0.1
		c-4.7,0-9.3-0.2-13.9-0.8c-0.5-0.1-1-0.2-1.5-0.2c0.4,0.1-0.3-0.1-0.4-0.1c-0.3-0.1-0.6-0.1-1-0.2c-1.1-0.2-2.1-0.4-3.2-0.6
		c-1.3-0.2-2.5-0.1-3.6,0.6c-1,0.6-1.7,1.3-2.2,2.3c-0.5,1-0.6,2.1-0.9,3.2c-0.2,1.1-0.6,2.3-0.4,3.5c0.3,2.5,2,4.4,4.5,4.9
		c2.4,0.4,4.7,0.8,7.1,1c9.1,1.3,18.5,1.4,27.7,0.6c0.8-0.1,1.5-0.2,2.3-0.2c0.2,0,0.5,0,0.7,0.1c0.2,0.1,0.4,0.2,0.6,0.4
		c0.2,0.2,0.3,0.4,0.4,0.6c0.1,0.2,0.2,0.5,0.1,0.7l-0.2,2.3c-0.5,4.6-1,9.2-1.4,13.9c-0.5,4.8-1,9.7-1.5,14.6
		c-0.2,1.3-0.3,2.7-0.4,4.1c-0.2,1.3-0.2,2.7-0.4,4c-0.4,2.1-1.8,3.4-3.9,3.9c-1.9,0.4-3.8,0.6-5.8,0.6c-2.1,0-4.3-0.1-6.4-0.1
		c-2.3,0-5.2-0.2-6.9-1.9c-1.6-1.5-1.7-3.9-2-5.9c-0.3-2.7-0.6-5.4-0.9-8.1l-1.6-15l-1-9.7c0-0.2,0-0.3-0.1-0.5
		c-0.2-1.1-1-2.3-2.2-2.2c-1.1,0.1-2.4,1-2.2,2.2l0.7,7.2l1.6,14.8c0.4,4.2,0.9,8.4,1.3,12.7c0.1,0.8,0.2,1.7,0.2,2.4
		c0.5,4.4,3.9,6.8,8,7.4c2.5,0.4,4.9,0.5,7.4,0.5c3.2,0.1,6.4,0.2,9.5-0.4c4.6-0.9,8.1-3.9,8.6-8.7c0.2-1.4,0.3-2.8,0.4-4.1
		c0.5-4.6,1-9.1,1.4-13.7l1.5-15l0.7-6.8c0-0.3,0.2-0.6,0.4-0.9s0.6-0.4,0.9-0.5c1.3-0.2,2.6-0.7,3.5-1.7
		C77.2,35.9,77.4,33.8,77,31.7z M27.3,33.1c0,0,0,0.2,0,0.2C27.2,33.3,27.2,33.1,27.3,33.1z M27.4,34.2
		C27.4,34.2,27.4,34.2,27.4,34.2C27.4,34.2,27.4,34.2,27.4,34.2L27.4,34.2z M27.5,34.3C27.5,34.4,27.6,34.5,27.5,34.3L27.5,34.3z
		 M27.7,34.6L27.7,34.6L27.7,34.6L27.7,34.6L27.7,34.6z M72.1,34.2c-0.5,0.5-1.2,0.6-1.9,0.8c-7.9,1.2-16,1.7-24,1.5
		c-5.7-0.2-11.4-0.9-17.1-1.7c-0.6-0.1-1.1-0.2-1.5-0.6c-0.7-0.8-0.4-2.3-0.2-3.2c0.2-0.9,0.5-2,1.5-2.1c1.6-0.2,3.4,0.5,5,0.7
		c1.9,0.3,3.8,0.6,5.7,0.7c8.2,0.7,16.4,0.6,24.5-0.5c1.5-0.2,2.9-0.4,4.4-0.7c1.3-0.2,2.8-0.6,3.6,0.6c0.6,1,0.6,2.1,0.6,3.2
		C72.6,33.5,72.4,33.9,72.1,34.2L72.1,34.2z"/>
</g>
</svg>
