<?xml version="1.0" encoding="utf-8"?>
<!-- Generator: Adobe Illustrator 27.5.0, SVG Export Plug-In . SVG Version: 6.00 Build 0)  -->
<svg version="1.1" id="Layer_1" xmlns="http://www.w3.org/2000/svg" xmlns:xlink="http://www.w3.org/1999/xlink" x="0px" y="0px"
	 viewBox="0 0 100 100" style="enable-background:new 0 0 100 100;" xml:space="preserve">
<style type="text/css">
	.st0{fill:#F9F9F9;}
	.st1{fill:#EFB600;}
	.st2{fill:#F4DC00;}
</style>
<path class="st0" d="M86.9,100H13.1C5.9,100,0,94.1,0,86.9V13.1C0,5.9,5.9,0,13.1,0h73.9C94.1,0,100,5.9,100,13.1v73.9
	C100,94.1,94.1,100,86.9,100z"/>
<path class="st1" d="M47.7,40.5c0-0.7,0-1.5-0.1-2.2c-0.6-4-1.2-8-1.7-11.9c-0.5-3.8-2.9-6.3-6.7-7c-0.1,0-0.2-0.1-0.3-0.1H20
	c-0.7,0.2-1.4,0.3-2,0.6c-1.3,0.6-2.3,1.3-3.1,2.2c0.3-3.2,1.9-5.5,4.8-6.8c0.6-0.3,1.3-0.4,2-0.6h19c0.1,0,0.2,0.1,0.3,0.1
	c3.8,0.7,6.1,3.2,6.7,7c0.6,4,1.1,8,1.7,11.9C49.8,36.4,49.2,38.7,47.7,40.5z"/>
<path class="st1" d="M54.4,63.6c-0.4,1.4-0.7,2.7-1.1,4.1c-0.1,0.2-0.1,0.4-0.2,0.7c-7.8-3.9-13.8-9.5-17.9-17.1
	c-0.4-0.8,0-1.8,0.9-2.1c0.7-0.2,1.4-0.4,2-0.5C42.1,55.1,47.5,60.1,54.4,63.6z"/>
<path class="st1" d="M85.3,77.1c0,2-0.7,3.8-1.8,5.2c0-0.2,0-0.4,0-0.6c0-5.6,0-11.3,0-16.9c0-4.2-2.9-7.3-7-7.9
	c-4.2-0.6-8.4-1.2-12.6-1.8c-3.1-0.4-5.8,0.8-7.5,3.2c0.2-0.6,0.3-1.2,0.5-1.8c1.1-4.1,4.7-6.5,8.8-5.9c4.2,0.6,8.4,1.2,12.6,1.8
	c4.1,0.6,7,3.7,7,7.9C85.3,65.9,85.3,71.5,85.3,77.1z"/>
<path class="st2" d="M83.5,81.7c-0.1,0.3-0.3,0.7-0.4,1c-1.3,1.4-3.2,2.3-5.3,2.5c-5.5,0.4-11,0.1-16.5-1
	c-10.1-2-19.2-6.3-26.9-13.1c-11.3-9.9-17.6-22.5-19.4-37.3c-0.2-1.4-0.3-2.8-0.4-4.2v-5.5c0.1-0.6,0.1-1.2,0.2-1.8c0,0,0,0,0,0
	c0.8-0.9,1.8-1.7,3.1-2.3c0.6-0.3,1.3-0.4,2-0.6h19c0.1,0,0.2,0.1,0.3,0.1c3.8,0.7,6.1,3.2,6.7,7c0.6,4,1.1,8,1.7,11.9
	c0.1,0.8,0.1,1.5,0.1,2.2c-1,1.2-2.6,2.2-4.5,2.7c-2.3,0.6-4.7,1.3-7.1,1.9c0.6,1.2,1.2,2.4,2,3.5c-0.5,0.1-1.1,0.3-1.6,0.4
	c-1.1,0.3-1.6,1.6-1.1,2.6c4.1,7.4,10,13,17.7,16.8c0.1-0.3,0.1-0.5,0.2-0.7c0.4-1.4,0.7-2.7,1.1-4.1c0.2,0.1,0.3,0.2,0.5,0.2
	c0.1-0.3,0.2-0.5,0.2-0.7c0.4-1.6,0.9-3.2,1.3-4.8c1.7-2.3,4.4-3.6,7.5-3.2c4.2,0.6,8.4,1.2,12.6,1.8c4.1,0.6,7,3.7,7,7.9
	C83.6,70.4,83.5,76,83.5,81.7z"/>
<path class="st1" d="M83.7,14.7c0.4,0.2,0.8,0.4,1.1,0.7c0.8,0.8,0.8,2,0.1,2.9c-0.2,0.2-0.4,0.4-0.6,0.6c-7,7-13.9,13.9-20.9,20.9
	c-0.2,0.2-0.3,0.3-0.6,0.6c0.4,0,0.6,0,0.9,0c4.9,0,9.9,0,14.8,0c1.6,0,2.6,1.1,2.4,2.5c-0.1,1-0.9,1.8-1.9,1.8c-0.2,0-0.5,0-0.7,0
	c-6.8,0-13.6,0-20.4,0c-1.9,0-2.7-0.8-2.7-2.7c0-6.9,0-13.8,0-20.7c0-1.6,1.2-2.7,2.7-2.3c1,0.2,1.7,1.2,1.7,2.4c0,3.2,0,6.3,0,9.5
	c0,1.8,0,3.6,0,5.4c0,0.2,0,0.4,0,0.8c0.3-0.3,0.5-0.4,0.6-0.6C67.2,29.7,74,22.8,81,15.9c0.5-0.5,1.1-0.8,1.6-1.3
	C82.9,14.7,83.3,14.7,83.7,14.7z"/>
</svg>
