<?xml version="1.0" encoding="utf-8"?>
<!-- Generator: Adobe Illustrator 27.0.0, SVG Export Plug-In . SVG Version: 6.00 Build 0)  -->
<svg version="1.1" id="Layer_1" xmlns="http://www.w3.org/2000/svg" xmlns:xlink="http://www.w3.org/1999/xlink" x="0px" y="0px"
	 viewBox="0 0 100 100" style="enable-background:new 0 0 100 100;" xml:space="preserve">
<style type="text/css">
	.st0{fill:#08121C;}
	.st1{fill:#FEFEFE;}
	.st2{fill:#FECB00;}
	.st3{fill:#00F1E2;}
	.st4{fill:#FE1980;}
	.st5{fill:#EB62A2;}
	.st6{fill:#31F4ED;}
	.st7{fill:#E85A9D;}
	.st8{fill:#EE69A8;}
	.st9{fill:#E864A2;}
	.st10{fill:#EC62A3;}
	.st11{fill:#4EF4EA;}
	.st12{fill:#ECCF43;}
	.st13{fill:#E966A4;}
	.st14{fill:#E56AA4;}
	.st15{fill:#EE65A5;}
	.st16{fill:#EFD342;}
	.st17{fill:#F067A8;}
	.st18{fill:#EBD04D;}
	.st19{fill:#ED71AC;}
	.st20{fill:#EE72AD;}
	.st21{fill:#E866A3;}
	.st22{fill:#EA72AB;}
	.st23{fill:#E2629E;}
	.st24{fill:#E973AB;}
	.st25{fill:#E567A3;}
	.st26{fill:#EA6BA7;}
	.st27{fill:#E76CA7;}
	.st28{fill:#EDD24E;}
	.st29{fill:#E867A3;}
	.st30{fill:#EE67A6;}
	.st31{fill:#F26AAA;}
	.st32{fill:#F3D660;}
	.st33{fill:#EC6FAB;}
	.st34{fill:#E86EA8;}
	.st35{fill:#F070AC;}
	.st36{fill:#EF76AF;}
	.st37{fill:#EB73AC;}
</style>
<g>
	<path class="st0" d="M98.8,98.9c-32.4,0-64.8,0-97.1,0c-0.5,0-0.6-0.1-0.6-0.6c0-32.4,0-64.8,0-97.2c0.2-0.1,0.4-0.1,0.7-0.1
		c32.1,0,64.2,0,96.3,0c0.8,0,0.7-0.1,0.7,0.7c0,32.1,0,64.2,0,96.4C98.8,98.5,98.9,98.7,98.8,98.9z"/>
	<path class="st1" d="M98.8,98.9c0-32.3,0-64.7,0-97c0-0.6-0.1-0.8-0.7-0.7c-32.3,0-64.6,0-97,0c0,0-0.1-0.1,0.1-0.1
		c0.2,0,0.3,0,0.5,0c32.2,0,64.5,0,96.7,0c0.5,0,0.6,0.1,0.6,0.6c0,32.2,0,64.5,0,96.7C98.9,98.5,99,98.8,98.8,98.9z"/>
	<path class="st2" d="M42.2,32.6c-0.6-0.6-1.2-1.2-1.8-1.8c-0.3-0.4-0.7-0.8-1.1-1.1c-1.7-1.9-3.4-3.7-4.6-6c-0.3-0.6-0.5-1.3-0.6-2
		c0.1-0.5,0.1-1,0-1.5c0.6-3.8,3.5-6.5,7.3-6.3c2.5,0.1,4.6,1.2,5.7,3.5c2.7,5.3,6.4,9.8,10.8,13.7c5.4,4.9,11.5,8.4,18.4,10.5
		c1.3,0.4,2.3,1.2,2.7,2.5c0.1,0.8,0.1,1.6,0,2.5c-0.6,1.6-1.8,2.5-3.5,2.6c-0.8,0.1-1.6-0.2-2.5-0.3c-3-0.6-5.9-1.3-8.8-2.4
		c-0.8-0.5-1.8-0.7-2.6-1.1c-0.3-0.1-0.5-0.3-0.8-0.3c-1.8-0.6-3.4-1.5-5-2.4c-4.4-2.4-8.5-5.4-12.3-8.8c0,0-0.1-0.1-0.1-0.1
		C43.1,33.4,42.7,32.9,42.2,32.6z"/>
	<path class="st3" d="M35.1,56c-0.1,2.1-0.2,4.1-0.6,6.2c-0.3,1.5-0.5,3-0.8,4.6c-0.1,0.6-0.4,1.2-0.3,1.9c-0.4,1.7-0.9,3.4-1.5,5.1
		c-1,3-4,4.7-6.9,4.5c-4.1-0.3-7-3.6-6.7-7.6c0-0.8,0.3-1.5,0.7-2.3c2.3-4.3,3.7-9,4.6-13.8c0.7-3.7,1-7.5,0.8-11.3
		c-0.2-4.4-1-8.8-2.3-13c-0.6-1.7,0.1-3.6,1.6-4.6c1.5-0.9,3.5-0.7,4.8,0.5c0.6,0.6,0.9,1.3,1.2,2.1c2,4.2,3.4,8.6,4.3,13.1
		c0.5,2.7,0.9,5.4,1.1,8.2c0,0.5,0.2,1,0.1,1.5C35.1,52.8,35.1,54.4,35.1,56z"/>
	<path class="st4" d="M34.3,81c0.3-0.9,0.9-1.6,1.4-2.3c0.9-1.3,1.9-2.7,3-3.9c0.2-0.2,0.5-0.5,0.7-0.8c0.1-0.1,0.1-0.1,0.2-0.2
		c0.4-0.4,0.9-0.8,1.2-1.3c0.6-0.7,1.3-1.4,2-2c0.5-0.3,0.8-0.7,1.2-1.1c3.1-2.8,6.5-5.2,10.1-7.3c0.2-0.1,0.3-0.2,0.5-0.2
		c0.3-0.2,0.7-0.3,0.9-0.5c0.1-0.1,0.2-0.2,0.4-0.2c1.2-0.6,2.5-1.2,3.7-1.9c0.1,0,0.1,0,0.2-0.1c0.5-0.1,1-0.4,1.4-0.6
		c0.3-0.3,0.9-0.1,1.2-0.5c0.4-0.1,0.8-0.3,1.3-0.5l0,0c0.4-0.2,1-0.2,1.4-0.6c0.8-0.3,1.6-0.6,2.5-0.8c0.6-0.2,1.2-0.3,1.8-0.5
		c0.5,0,0.9-0.2,1.4-0.3c1.9-0.5,3.8-1.1,5.9-0.6c0,0,0.1,0,0.1,0l0,0c0.5,0.2,1,0.4,1.5,0.6c0.3,0.1,0.5,0.2,0.7,0.4
		c0.4,0.4,0.9,0.9,1.3,1.3c0.6,0.7,1,1.5,1.2,2.3c0,0.5,0.2,1.1,0.2,1.6c0,0.9-0.1,1.7-0.3,2.6l0,0c-0.2,0.3-0.2,0.7-0.4,1l0,0
		c-0.2,0.3-0.3,0.6-0.5,0.9c0,0.2-0.2,0.3-0.3,0.4c-0.4,0.4-0.8,0.8-1.3,1.2c-0.2,0.2-0.5,0.2-0.7,0.5c-0.4,0.2-0.8,0.3-1.1,0.5l0,0
		c-1.2,0.4-2.4,0.3-3.6,0.4c-1.6,0.2-3.2,0.4-4.8,0.7c-0.2,0-0.5,0-0.7,0.1c-0.7,0.2-1.4,0.3-2.1,0.5l0,0c-0.6,0.3-1.2,0.2-1.7,0.6
		c-0.4,0.1-0.7,0.3-1.2,0.3c-0.5,0.2-1.1,0.2-1.5,0.5c-0.1,0.1-0.3,0.1-0.4,0.1c-0.9,0.4-1.9,0.6-2.8,1.2c-0.4,0.2-0.9,0.4-1.3,0.5
		c-0.9,0.3-1.7,0.8-2.5,1.2c-1.7,1-3.4,2-5.1,3c-0.3,0.2-0.7,0.4-0.9,0.7c-1.2,1-2.5,2-3.7,3c-0.4,0.2-0.6,0.5-0.8,0.8
		c-0.9,0.9-1.8,1.8-2.6,2.6c-0.4,0.3-0.7,0.8-1.2,1c-1.1,0.7-2.2,0.8-3.4,0.4c-0.2-0.1-0.3-0.1-0.5-0.2c-0.7-0.4-1.4-0.9-1.7-1.8
		C34,83,34,82,34.3,81z"/>
	<path class="st1" d="M43.1,51.7c0-1.9,0-3.7,0-5.6c0-0.4,0-0.8,0.4-1c0.4-0.2,0.8-0.1,1.2,0.1c3,1.8,6.1,3.6,9.1,5.4
		c1.1,0.7,1.1,1.4,0,2c-3,1.8-6.1,3.6-9.1,5.5c-0.9,0.5-1.6,0.1-1.6-0.9C43.1,55.4,43.1,53.5,43.1,51.7z"/>
	<path class="st5" d="M67.7,69.5c1.2-0.4,2.4-0.5,3.6-0.7c1.8-0.3,3.7-0.2,5.6-0.5c-0.4,0.3-0.8,0.3-1.2,0.3c-2.5,0.1-5,0.4-7.5,0.9
		c-0.1,0-0.2,0-0.4,0C67.9,69.5,67.8,69.5,67.7,69.5z"/>
	<path class="st6" d="M33.4,68.6c-0.2-0.2-0.1-0.4,0-0.6c0.5-1.9,0.8-3.9,1-5.8c0,0,0-0.1,0.1-0.1c0,0,0,0,0,0c0,0,0,0.1,0,0.1
		C34.4,64.4,33.9,66.5,33.4,68.6z"/>
	<path class="st7" d="M76.6,54.9c-2.1-0.4-4,0.1-6,0.6c-0.1,0-0.1-0.1,0-0.1c1.8-0.4,3.5-1,5.4-0.7C76.1,54.7,76.4,54.7,76.6,54.9z"
		/>
	<path class="st8" d="M59.6,59.3c0,0.2-0.2,0.2-0.3,0.3c-1,0.5-2,1-3,1.5c-0.1,0.1-0.3,0.1-0.4,0.1C57,60.4,58.3,59.8,59.6,59.3z"/>
	<path class="st9" d="M36.1,85.7c0.3-0.1,0.6,0.1,0.9,0.2c1.1,0.3,2.1,0,3.1-0.6c0.1,0,0.1,0.1,0,0.1C38.9,86.4,37.3,86.5,36.1,85.7
		z"/>
	<path class="st10" d="M81.2,63.8c0-0.4,0.1-0.8,0.2-1.3c0.2-0.8,0-1.6-0.1-2.4c0-0.2-0.1-0.3,0-0.5C81.7,61,81.8,62.4,81.2,63.8z"
		/>
	<path class="st11" d="M35.1,56C35,55.8,35,55.6,35,55.4c0-1.2,0-2.4,0-3.6c0-0.2-0.1-0.4,0.1-0.6C35.1,52.8,35.1,54.4,35.1,56z"/>
	<path class="st12" d="M61,45.2c0.9,0.1,1.6,0.6,2.4,0.9c0.4,0.1,0.8,0.1,1,0.5C63.3,46.2,62.1,45.8,61,45.2z"/>
	<path class="st13" d="M58.1,72.6c0.1-0.4,0.5-0.3,0.8-0.5c0.7-0.3,1.3-0.6,2-0.7C60,71.9,59.1,72.2,58.1,72.6z"/>
	<path class="st14" d="M54.3,74.4c-0.1-0.2,0.2-0.2,0.3-0.3c0.7-0.3,1.4-0.9,2.2-1C56,73.6,55.2,74,54.3,74.4z"/>
	<path class="st15" d="M34.3,81c-0.2,1-0.1,2,0.1,2.9C33.9,83,33.9,82,34.3,81z"/>
	<path class="st16" d="M79.2,46.6c-0.2-0.5,0.1-0.9,0.1-1.4c0-0.3-0.3-0.7-0.1-1C79.5,45,79.5,45.8,79.2,46.6z"/>
	<path class="st17" d="M67.7,69.5c0.1,0,0.1,0,0.2,0c-0.7,0.2-1.5,0.4-2.2,0.5C66.3,69.7,67,69.6,67.7,69.5z"/>
	<path class="st18" d="M42.2,32.6c0.6,0.3,1,0.7,1.4,1.3C43.1,33.5,42.6,33.1,42.2,32.6z"/>
	<path class="st19" d="M80,57.3c-0.5-0.3-1-0.8-1.3-1.3C79.3,56.3,79.7,56.7,80,57.3z"/>
	<path class="st20" d="M78.8,67.3c0.3-0.5,0.8-0.9,1.3-1.2C79.7,66.6,79.3,67,78.8,67.3z"/>
	<path class="st21" d="M69.2,55.8c-0.6,0.3-1.2,0.4-1.8,0.5c0.6-0.3,1.2-0.4,1.8-0.6C69.3,55.7,69.3,55.7,69.2,55.8
		C69.3,55.8,69.2,55.8,69.2,55.8z"/>
	<path class="st22" d="M44,69.5c-0.2,0.5-0.6,0.9-1.2,1.1C43.2,70.2,43.6,69.8,44,69.5z"/>
	<path class="st23" d="M64,70.5c0.5-0.5,1.1-0.4,1.7-0.6C65.2,70.3,64.5,70.3,64,70.5z"/>
	<path class="st24" d="M40.8,72.6c-0.2,0.6-0.7,1-1.2,1.3C39.9,73.4,40.4,73,40.8,72.6z"/>
	<path class="st25" d="M78.1,55.6c-0.6-0.1-1.1-0.3-1.5-0.6C77.1,55,77.6,55.2,78.1,55.6z"/>
	<path class="st26" d="M61.2,58.6c-0.4,0.4-0.9,0.6-1.4,0.6C60.2,59,60.7,58.7,61.2,58.6z"/>
	<path class="st27" d="M40,85.5c0,0,0-0.1,0-0.1c0.4-0.2,0.6-0.8,1.1-0.9C40.8,84.9,40.5,85.3,40,85.5z"/>
	<path class="st28" d="M39.4,29.7c0.5,0.3,0.9,0.6,1.1,1.1C40,30.5,39.6,30.1,39.4,29.7z"/>
	<path class="st29" d="M61.3,71.4c0.4-0.5,1-0.5,1.5-0.5C62.4,71.1,61.8,71.2,61.3,71.4z"/>
	<path class="st30" d="M65,57.1c-0.3,0.4-0.9,0.4-1.4,0.6C64,57.3,64.5,57.3,65,57.1z"/>
	<path class="st30" d="M63.6,57.6c-0.4,0.3-0.8,0.5-1.3,0.5C62.7,57.9,63.2,57.7,63.6,57.6z"/>
	<path class="st31" d="M69.2,55.8c0,0,0-0.1,0-0.1c0.4-0.1,0.9-0.2,1.3-0.3c0,0,0,0.1,0,0.1C70.1,55.6,69.7,55.7,69.2,55.8z"/>
	<path class="st5" d="M76.9,68.3c0.3-0.3,0.7-0.4,1.1-0.5C77.7,68.1,77.3,68.2,76.9,68.3z"/>
	<path class="st32" d="M34.2,20.3c0.2,0.5,0.2,1,0,1.5C34.2,21.2,34.2,20.8,34.2,20.3z"/>
	<path class="st33" d="M43.8,81.8c0.1-0.4,0.4-0.6,0.8-0.8C44.3,81.3,44.1,81.6,43.8,81.8z"/>
	<path class="st22" d="M48.3,78.1c0.2-0.4,0.5-0.6,0.9-0.7C49,77.6,48.6,77.9,48.3,78.1z"/>
	<path class="st34" d="M55.4,61.4c-0.2,0.4-0.5,0.5-0.9,0.5C54.8,61.7,55.1,61.5,55.4,61.4z"/>
	<path class="st35" d="M80.8,64.7c0-0.4,0.1-0.7,0.4-1C81.2,64.1,81.1,64.4,80.8,64.7z"/>
	<path class="st36" d="M80.3,65.6c0.1-0.4,0.2-0.7,0.5-0.9C80.7,65.1,80.6,65.4,80.3,65.6z"/>
	<path class="st37" d="M39.4,74.1c-0.1,0.4-0.3,0.6-0.7,0.8C38.9,74.6,39.2,74.3,39.4,74.1z"/>
</g>
</svg>
