<?xml version="1.0" encoding="utf-8"?>
<!-- Generator: Adobe Illustrator 27.0.0, SVG Export Plug-In . SVG Version: 6.00 Build 0)  -->
<svg version="1.1" id="Layer_1" xmlns="http://www.w3.org/2000/svg" xmlns:xlink="http://www.w3.org/1999/xlink" x="0px" y="0px"
	 viewBox="0 0 100 100" style="enable-background:new 0 0 100 100;" xml:space="preserve">
<style type="text/css">
	.st0{fill:#1F1F1A;}
	.st1{fill:#FFE450;}
</style>
<g>
	<path class="st0" d="M25.3,41.9c1.3,4.4,2.9,8.5,4.7,12.5c3,7.1,5,10.9,7.8,15.6c3.4,5.6,7.2,12,13.4,16.1c4.5,3,10.1,4.5,15.4,4.5
		c7.5,0,13.9-3.3,18-7.1c4.1-3.8,9.3-11,9.3-25.2c0-4.9,2.2-9.1,3.8-12.4c0-0.1,0.1-0.2,0.2-0.5c0.6-1.4,1.4-3.2,1.4-5
		c0-1.3-0.3-2.9-1.3-4.2c-1.4-2.4-3.9-3.2-6.2-3.2c-5.4,0-9.1,3.8-11,7.6l-0.6,1.3c-0.8-1.1-1.5-2.3-2.2-3.4c-2-3.4-3.1-5.7-4.1-8.7
		c-0.8-2.3-1.4-5-1.8-7.1c-1.2-6.9-3.1-9.1-6.4-9.9c-2.4-0.6-5.2-0.1-7.2,1.2c-1.4-3.1-3.8-4.5-6.9-4.5c-4.5,0-8.5,2.9-8.5,7.9
		c0,0.6,0.1,1.3,0.1,2c-0.6-0.1-1.2-0.2-1.8-0.2c-4.8,0-8.4,3.4-8.4,7.9c0,1,0.1,2.2,0.5,3.6c-0.4-0.1-0.8-0.1-1.3-0.1
		c-2.4,0.1-4.5,1-6.1,2.9C24.8,35.3,24.1,38.1,25.3,41.9z"/>
	<path class="st1" d="M29.3,40.7c-0.6-2-0.6-3.6,0.2-4.5c0.8-0.9,1.8-1.3,3.1-1.4c2.2-0.1,3,1.5,4.3,5.5c0.8,2.5,2.3,6.2,3.2,8.2
		c1.2,2.4,2.9,5.7,3.6,6.9c0.6,1,1.2,1.3,1.8,1.3c1.1,0,2-0.6,2-1.7c0-0.6-0.6-1.7-1-2.3c-0.6-1.2-2-3.6-2.9-5.6c-1-2.2-2.1-5-3-7.6
		c-0.6-1.5-1.2-3.6-1.8-5.7c-1-3.2-1.5-5.2-1.5-6.6c0-2.2,1.7-3.7,4.2-3.7c1.8,0,3,0.9,3.8,4.2c0.6,3,1.7,7.9,3.4,11.7
		c1,2.5,2.6,5.9,3.5,7.6c0.6,1,1.2,1.8,1.2,2.2c0,0.5-0.9,1.3-1.7,2.3c-0.5,0.6-0.7,1-0.7,1.5c0,0.4,0.3,0.8,0.7,1.4
		c0.4,0.6,0.8,1.1,1.3,1.1c0.3,0,0.6-0.1,0.8-0.4c2.2-2.7,4.5-4.6,7.3-6.2c3.2-1.8,6.5-2.7,9.1-3.3c1.3-0.3,1.6-0.6,1.6-1.3
		c0-0.8-0.6-1.3-1.5-1.4c-0.6-0.1-1.2,0-2.2,0.1c-0.7,0.1-1-0.3-1.5-1.2c-1.3-2.7-3.7-7.1-5.2-12.9c-0.6-2.4-1.2-5-1.5-8.4
		c-0.2-1.5,0.1-2.1,0.8-2.8c1-0.8,2.7-1.2,4.1-0.8c1.6,0.4,2.4,1.7,3.3,6.6c0.4,2.3,1.1,5.2,2,7.8c1,3.2,2.4,5.9,4.4,9.4
		c1.1,2,2.5,4,4,5.9c-0.3,0.8-0.8,1.4-2.4,2.7c-1.6,1.3-3.2,2.7-4.7,5.3c-1,1.9-1.5,4-1.5,5.4c0,1.3,0.3,1.6,1.1,1.6
		c1.5,0,2.7-0.3,2.7-0.9c0.3-2.5,0.8-4.1,2.2-6c0.8-1,2.3-2.4,3.5-3.4c2.2-1.8,3-2.9,3.8-5.5c0.3-1.2,0.8-2.3,1.3-3.4
		c1.3-2.4,3.7-5.2,7.4-5.2c1.2,0,2.2,0.3,2.8,1.3c0.3,0.6,0.5,1.3,0.5,1.9c0,1.3-0.9,3-1.3,3.8c-1.5,3.3-4.1,8.3-4.1,14.1
		c0,12.7-4.5,18.9-8,22.2c-3.4,3.2-8.8,6-15.2,6c-4.5,0-9.2-1.3-13.1-3.8c-5.4-3.6-8.7-9.2-12.2-14.8c-2.7-4.5-4.6-8.1-7.6-15
		C32.2,48.8,30.6,44.9,29.3,40.7z"/>
	<path class="st1" d="M47.3,17.2c0-2.7,2.4-3.7,4.5-3.7c2.2,0,2.9,1,3.5,3.3c0.5,1.8,0.7,3.5,0.9,5.5c0.3,2,1.3,6.4,1.5,7.6
		c1,3.8,3.1,8.4,5.7,13.8c-1.5,0.5-3.4,1.3-4.8,2c-1.7,0.9-2,0.9-2.7-0.4c-1.5-2.7-2.5-4.8-3.4-7.1c-0.8-2-1.5-4.2-2.2-6.8
		c-1-4.4-1.2-5.7-2-7.7C47.8,21.6,47.3,19,47.3,17.2z"/>
	<path class="st0" d="M22.3,64.1c-1.5,0.9-9.3,5-11.1,5.7c-1.3,0.5-2.6,0.4-3.4-2c-1-3,0.4-3.7,2.4-4.4c1.8-0.7,9-3.3,10.7-3.8
		c1.2-0.3,2,0.1,2.6,1.5C24,62.6,23.6,63.2,22.3,64.1"/>
	<path class="st0" d="M15.8,47.4c-2.1,0.1-10.9-0.3-12.9-0.5c-1.7-0.2-2.4-0.9-2.3-3.5c0.2-2.7,1.3-2.9,3-2.7
		c2,0.2,11.2,1.7,12.6,2.1c1.5,0.5,1.7,1.2,1.5,2.5C17.6,47,16.8,47.4,15.8,47.4"/>
	<path class="st0" d="M16.9,29.7c-2.4-0.8-9.6-5.1-11.4-6.2c-1.7-1-1.9-1.9-0.7-4.2c1-2,2.2-2.3,3.9-1.4c2,1,9,6.5,10.3,7.6
		c1.3,1,1.1,1.6,0.4,2.9C18.7,29.7,18.1,30,16.9,29.7"/>
</g>
</svg>
