<?xml version="1.0" encoding="utf-8"?>
<!-- Generator: Adobe Illustrator 27.5.0, SVG Export Plug-In . SVG Version: 6.00 Build 0)  -->
<svg version="1.1" id="Layer_1" xmlns="http://www.w3.org/2000/svg" xmlns:xlink="http://www.w3.org/1999/xlink" x="0px" y="0px"
	 viewBox="0 0 100 100" style="enable-background:new 0 0 100 100;" xml:space="preserve">
<style type="text/css">
	.st0{fill:#F7F7F7;}
	.st1{fill:#F44336;}
	.st2{fill:#2196F3;}
	.st3{fill:#FFC107;}
</style>
<circle class="st0" cx="50" cy="50" r="48.1"/>
<g>
	<path class="st1" d="M86.6,72.9V50c0-2.5-2-4.6-4.6-4.6h-9.2c-2.5,0-4.6,2-4.6,4.6v22.9c0,2.5,2,4.6,4.6,4.6H82
		C84.6,77.5,86.6,75.4,86.6,72.9z"/>
	<path class="st2" d="M54.6,77.5c2.5,0,4.6-2,4.6-4.6V27.1c0-2.5-2-4.6-4.6-4.6h-9.2c-2.5,0-4.6,2.1-4.6,4.6v45.8
		c0,2.5,2.1,4.6,4.6,4.6H54.6z"/>
	<path class="st3" d="M13.4,72.9c0,2.5,2.1,4.6,4.6,4.6h9.2c2.5,0,4.6-2,4.6-4.6v-32c0-2.5-2-4.6-4.6-4.6H18c-2.5,0-4.6,2.1-4.6,4.6
		V72.9z"/>
</g>
</svg>
