<?xml version="1.0" encoding="utf-8"?>
<!-- Generator: Adobe Illustrator 27.0.0, SVG Export Plug-In . SVG Version: 6.00 Build 0)  -->
<svg version="1.1" id="Layer_1" xmlns="http://www.w3.org/2000/svg" xmlns:xlink="http://www.w3.org/1999/xlink" x="0px" y="0px"
	 viewBox="0 0 100 100" style="enable-background:new 0 0 100 100;" xml:space="preserve">
<style type="text/css">
	.st0{clip-path:url(#SVGID_00000118356654508093865510000008152912136155952828_);}
	.st1{fill:url(#SVGID_00000138568183108142443250000012321924504562159248_);}
	.st2{fill:url(#White_Radial_gradient_00000066502927179262989820000003358652991511705247_);}
	.st3{clip-path:url(#SVGID_00000016048829539774232720000010992232133040680850_);}
	.st4{clip-path:url(#SVGID_00000164477368996279608010000004510521909999271836_);}
	.st5{opacity:0.26;fill:#FFFFFF;enable-background:new    ;}
	.st6{opacity:0.26;}
	.st7{fill:#A1CEE6;}
	.st8{opacity:0.1;}
	.st9{opacity:0.6;}
	.st10{fill:#FFFFFF;}
</style>
<g>
	<g>
		<defs>
			<circle id="SVGID_1_" cx="50" cy="50" r="50"/>
		</defs>
		<clipPath id="SVGID_00000124861450268422409800000017436967898527593367_">
			<use xlink:href="#SVGID_1_"  style="overflow:visible;"/>
		</clipPath>
		<g style="clip-path:url(#SVGID_00000124861450268422409800000017436967898527593367_);">
			<g>
				
					<linearGradient id="SVGID_00000067216811380259126950000017209630861069414574_" gradientUnits="userSpaceOnUse" x1="50.25" y1="-1.8843" x2="50.25" y2="105.4932" gradientTransform="matrix(1 0 0 -1 0 100)">
					<stop  offset="0" style="stop-color:#29B386"/>
					<stop  offset="0.2716" style="stop-color:#2BAE8C"/>
					<stop  offset="0.6316" style="stop-color:#30A09D"/>
					<stop  offset="1" style="stop-color:#378BB5"/>
				</linearGradient>
				
					<rect x="-3.5" y="-5.5" style="fill:url(#SVGID_00000067216811380259126950000017209630861069414574_);" width="107.5" height="107.5"/>
				
					<radialGradient id="White_Radial_gradient_00000053545859624235174860000002733603604642541224_" cx="49.882" cy="51.6657" r="53.7263" gradientTransform="matrix(1 0 0 -1 0 100)" gradientUnits="userSpaceOnUse">
					<stop  offset="0" style="stop-color:#FFFFFF;stop-opacity:0.38"/>
					<stop  offset="1" style="stop-color:#FFFFFF;stop-opacity:0"/>
				</radialGradient>
				
					<rect id="White_Radial_gradient_1_" x="-3.7" y="-5.2" style="fill:url(#White_Radial_gradient_00000053545859624235174860000002733603604642541224_);" width="107.5" height="107.5"/>
			</g>
		</g>
	</g>
	<g>
		<defs>
			<circle id="SVGID_00000061455578966973486980000013154112581032246448_" cx="50" cy="50" r="50"/>
		</defs>
		<clipPath id="SVGID_00000115502533750328191560000002033113444219072437_">
			<use xlink:href="#SVGID_00000061455578966973486980000013154112581032246448_"  style="overflow:visible;"/>
		</clipPath>
		<g style="clip-path:url(#SVGID_00000115502533750328191560000002033113444219072437_);">
			<g>
				<defs>
					<rect id="SVGID_00000062897478678487414820000005844226652386987447_" x="-3.5" y="-5.5" width="107.5" height="107.5"/>
				</defs>
				<clipPath id="SVGID_00000009555107710639558360000014619655542000508062_">
					<use xlink:href="#SVGID_00000062897478678487414820000005844226652386987447_"  style="overflow:visible;"/>
				</clipPath>
				<g style="clip-path:url(#SVGID_00000009555107710639558360000014619655542000508062_);">
					<path class="st5" d="M73.5,5.5C72.8,6.5,56,28,56,28l-0.5-4c-0.2-2.2-1.5-12.2-2-16.2c-2.8,0.2-22.8,2.5-25.8,3
						c0.7,3.2,8,34.2,8,34.2L35,45.8c0,0-45,45.2-51.8,52c8-1.5,35.5-6.2,36.5-6.5C20.8,90,42,65,42,65s3.5,18.5,4,21.2
						c2.8-0.5,21.8-4,24.5-4.5c-0.5-3-7-35.5-7-35.5s39-39,45-45C101,2.2,74.8,5.2,73.5,5.5z"/>
					<g class="st6">
						<path class="st7" d="M57.3,19.2l0.5,4c0,0,1.2-1.5,2.8-3.8c-0.5-3.8-0.5-4.8-0.8-8c-0.5,0-1.8,0.2-3.2,0.5
							C57,16.5,57,17.2,57.3,19.2z"/>
						<path class="st7" d="M41.2,70.2c0,0-18,21.5-18.8,22.2C21.8,92.8,4.2,95.8-7,97.8c-1.5,1.5-2.7,2.7-3.5,3.5
							c8-1.5,35.5-6.2,36.5-6.5c0.5-0.7,10.2-12.5,16-19.2C41.8,72.5,41.2,70.2,41.2,70.2z"/>
						<path class="st7" d="M114.8,5.2c-1.8,0-4,0.2-6.8,0.8C97,17,66,48,66,48s6.5,32.5,7,35.5c-2.2,0.5-15,2.8-21.5,3.8
							c0.2,1.2,0.5,2.3,0.5,2.8c2.8-0.5,21.7-4,24.5-4.5C76,82.8,69.8,50,69.8,50S108.8,11,114.8,5.2z"/>
					</g>
					<g class="st8">
						<path d="M55.5,24l0.5,4c0,0,0,0,0.2-0.3L55.5,24c0-2-1.2-12-1.8-16h-0.2C54.2,12.2,55.2,21.8,55.5,24z"/>
						<path d="M108.8,1.8c-0.2,0-0.2,0-0.5,0c-7,7-44.8,44.5-44.8,44.5s6.5,32.5,7,35.5c-2.8,0.5-21,3.8-24.2,4.2v0.2
							c2.8-0.5,21.8-4,24.5-4.5c-0.5-3-7-35.5-7-35.5S102.8,7.5,108.8,1.8z"/>
						<path d="M42,65c0,0-21.2,25-22,26c-1,0.2-27.2,5-36,6.5c-0.2,0.2-0.2,0.2-0.2,0.2c8-1.5,35.5-6.2,36.5-6.5
							C21,90.5,40,67.8,42,65.5C42,65.2,42,65,42,65z"/>
					</g>
					<g class="st8">
						<path d="M60,11.8L60,11.8c0.2,3.2,0,4.2,0.5,7.8c-1.2,1.8-2.2,3-2.5,3.5v0.5c0,0,1.2-1.5,2.8-3.8C60.5,16,60.5,15,60,11.8z"/>
						<path d="M41.5,70.2C41.5,70.2,41.5,70.5,41.5,70.2c0,1,0.2,2.8,0.8,5.2c-5.8,6.8-15.5,18.5-16,19.2c-1,0.2-27.5,5-36,6.5
							l-0.2,0.2C-2,100,25.5,95,26.5,95c0.5-0.8,10.2-12.5,16-19.2C42,72.5,41.5,70.2,41.5,70.2z"/>
						<path d="M115,5.2c-0.2,0-0.2,0-0.5,0C108,12,69.8,50,69.8,50s6.5,32.5,7,35.5c-2.8,0.5-21,3.8-24.2,4.2V90
							c2.8-0.5,21.8-4,24.5-4.5c-0.5-3-7-35.5-7-35.5S109,11.2,115,5.2z"/>
					</g>
					<g class="st9">
						<g>
							<path class="st10" d="M73.8,5.8c-0.8,1-17.5,22.5-17.5,22.5l-0.5-4C55.5,22,54.2,12,53.8,8C51,8.2,31,10.5,28,11
								c0.8,3.3,8,34.2,8,34.2L35.2,46c0,0-45,45.3-51.8,52c8-1.5,35.5-6.2,36.5-6.5c0.8-1,22-26,22-26s3.5,18.5,4,21.2
								c2.8-0.5,21.8-4,24.5-4.5c-0.5-3-7-35.5-7-35.5s39-39,45-45C101.2,2.5,74.8,5.5,73.8,5.8z"/>
						</g>
					</g>
				</g>
			</g>
		</g>
	</g>
</g>
</svg>
