<?xml version="1.0" encoding="utf-8"?>
<!-- Generator: Adobe Illustrator 27.0.0, SVG Export Plug-In . SVG Version: 6.00 Build 0)  -->
<svg version="1.1" id="Layer_1" xmlns="http://www.w3.org/2000/svg" xmlns:xlink="http://www.w3.org/1999/xlink" x="0px" y="0px"
	 viewBox="0 0 100 100" style="enable-background:new 0 0 100 100;" xml:space="preserve">
<style type="text/css">
	.st0{fill:url(#a_00000047747298540335554330000012551184335487302281_);}
	.st1{fill:#FFFFFF;}
</style>
<g>
	<g>
		
			<linearGradient id="a_00000034808956985819043060000011566711163023220159_" gradientUnits="userSpaceOnUse" x1="380.52" y1="-372.6" x2="380.52" y2="-500.6002" gradientTransform="matrix(0.7812 0 0 -0.7812 -247.2812 -291.0938)">
			<stop  offset="0" style="stop-color:#61FD7D"/>
			<stop  offset="1" style="stop-color:#2BB826"/>
		</linearGradient>
		<path id="a" style="fill:url(#a_00000034808956985819043060000011566711163023220159_);" d="M100,74.6c0,0.5,0,1.7,0,2.7
			c-0.1,2.2-0.3,5.1-0.5,6.5c-0.4,2-1,3.9-1.8,5.4c-0.9,1.8-2.1,3.5-3.6,4.9c-1.4,1.4-3.1,2.6-4.9,3.6c-1.6,0.8-3.4,1.4-5.4,1.8
			c-1.3,0.3-4.2,0.4-6.4,0.5c-0.9,0-2.1,0-2.7,0l-49.2,0c-0.5,0-1.7,0-2.7,0c-2.2-0.1-5.1-0.3-6.5-0.5c-2-0.4-3.9-1-5.4-1.8
			C9,96.7,7.4,95.5,5.9,94c-1.4-1.4-2.6-3.1-3.6-4.9c-0.8-1.6-1.4-3.4-1.8-5.4c-0.3-1.3-0.4-4.2-0.5-6.4c0-0.9,0-2.1,0-2.7l0-49.2
			c0-0.5,0-1.7,0-2.7c0.1-2.2,0.3-5.1,0.5-6.5c0.4-2,1-3.9,1.8-5.4C3.3,9,4.5,7.4,6,5.9C7.4,4.5,9,3.3,10.9,2.4
			c1.6-0.8,3.4-1.4,5.4-1.8c1.3-0.3,4.2-0.4,6.4-0.5c0.9,0,2.1,0,2.7,0l49.2,0c0.5,0,1.7,0,2.7,0c2.2,0.1,5.1,0.3,6.5,0.5
			c2,0.4,3.9,1,5.4,1.8C91,3.3,92.6,4.5,94.1,6c1.4,1.4,2.6,3.1,3.6,4.9c0.8,1.6,1.4,3.4,1.8,5.4c0.3,1.3,0.4,4.2,0.5,6.4
			c0,0.9,0,2.1,0,2.7L100,74.6L100,74.6z"/>
	</g>
	<g>
		<path class="st1" d="M76.5,23.7c-6.8-6.8-15.8-10.5-25.4-10.5c-19.8,0-35.9,16.1-35.9,35.8c0,6.3,1.6,12.5,4.8,17.9L15,85.5l19-5
			c5.2,2.9,11.1,4.4,17.1,4.4h0C70.9,84.9,87,68.8,87,49C87,39.4,83.3,30.4,76.5,23.7L76.5,23.7z M51.1,78.8L51.1,78.8
			c-5.4,0-10.6-1.4-15.2-4.2L34.9,74l-11.3,3l3-11l-0.7-1.1c-3-4.7-4.6-10.2-4.6-15.9c0-16.4,13.4-29.8,29.8-29.8
			c8,0,15.4,3.1,21.1,8.7s8.7,13.1,8.7,21.1C80.9,65.4,67.6,78.8,51.1,78.8L51.1,78.8z M67.5,56.5c-0.9-0.4-5.3-2.6-6.1-2.9
			c-0.8-0.3-1.4-0.4-2,0.4c-0.6,0.9-2.3,2.9-2.8,3.5c-0.5,0.6-1,0.7-1.9,0.2c-0.9-0.4-3.8-1.4-7.2-4.4c-2.7-2.4-4.5-5.3-5-6.2
			c-0.5-0.9-0.1-1.4,0.4-1.8c0.4-0.4,0.9-1,1.3-1.6c0.4-0.5,0.6-0.9,0.9-1.5c0.3-0.6,0.1-1.1-0.1-1.6c-0.2-0.4-2-4.9-2.8-6.7
			c-0.7-1.7-1.5-1.5-2-1.5c-0.5,0-1.1,0-1.7,0s-1.6,0.2-2.4,1.1c-0.8,0.9-3.1,3.1-3.1,7.5s3.2,8.7,3.7,9.3
			c0.4,0.6,6.3,9.6,15.3,13.5c2.1,0.9,3.8,1.5,5.1,1.9c2.1,0.7,4.1,0.6,5.6,0.4c1.7-0.3,5.3-2.2,6-4.3c0.7-2.1,0.7-3.9,0.5-4.3
			C69,57.2,68.4,56.9,67.5,56.5L67.5,56.5z"/>
	</g>
</g>
</svg>
