<?xml version="1.0" encoding="utf-8"?>
<!-- Generator: Adobe Illustrator 27.0.0, SVG Export Plug-In . SVG Version: 6.00 Build 0)  -->
<svg version="1.1" id="Layer_1" xmlns="http://www.w3.org/2000/svg" xmlns:xlink="http://www.w3.org/1999/xlink" x="0px" y="0px"
	 viewBox="0 0 100 100" style="enable-background:new 0 0 100 100;" xml:space="preserve">
<style type="text/css">
	.st0{fill:#3C3A39;}
	.st1{fill:#F78B24;}
</style>
<g id="layer1" transform="translate(-289.50849,319.17136)">
	<g id="g4406" transform="matrix(0.4419355,0,0,0.4419355,-115.1012,-96.127872)">
		<path id="path4403" class="st0" d="M1055.4-279c0-0.1,0.8-2.1,1.8-4.4c1-2.4,1.8-4.5,1.8-4.8c0-0.3-1.6-4.8-3.6-10
			s-3.6-9.6-3.6-9.9c0-0.3,1-0.4,2.8-0.4h2.8l2.3,7.2c1.3,3.9,2.3,7,2.4,6.8c0.1-0.2,1.1-3.4,2.2-7.1l2.1-6.7l3-0.1c1.6-0.1,3,0,3,0
			c0,0.2-9.2,24.6-10.3,27.2l-0.9,2.2l-2.9,0.1C1056.7-278.9,1055.4-278.9,1055.4-279z"/>
		<path id="path4401" class="st0" d="M934.5-286.9c-2.9-0.6-5-2.2-6.4-4.9c-0.7-1.3-0.8-2-0.8-6c0-5,0.4-6.3,2.6-8.5
			c2.4-2.4,7.3-3.3,12-2.1l1.9,0.5v2.4v2.4l-1-0.3c-2-0.5-4.6-0.7-6.1-0.5c-2.8,0.4-4.1,2.4-4.1,6.1c0,3.7,1.2,5.6,3.9,6.2
			c1.3,0.3,3.1,0.1,6.3-0.6l1-0.2l-0.1,2.3c-0.1,2.3-0.1,2.3-1.5,2.7C940.5-286.7,936.4-286.5,934.5-286.9z"/>
		<path id="path4399" class="st0" d="M970.2-286.8c-3.1-0.6-4.8-1.9-6-4.5c-0.5-1.2-0.7-2.8-0.8-9.3l-0.1-7.9h2.7h2.7l0.1,7.4
			c0.1,7.2,0.1,7.4,1,8.3c1.7,1.8,5.8,1.5,6.8-0.5c0.3-0.6,0.5-3,0.5-8.1l0-7.2h2.7h2.7v7.4c0,8.4-0.4,10.4-2.3,12.3
			C978.4-287.1,974-286.2,970.2-286.8L970.2-286.8z"/>
		<path id="path4397" class="st0" d="M1017.5-286.7c-0.2-0.1-1-0.2-1.7-0.4c-2.1-0.3-4.4-2.1-5.6-4.3c-0.9-1.7-1.1-2.3-1.2-5.7
			c-0.1-3.2,0-4.1,0.6-5.8c1.5-4,4.5-5.9,9.3-5.9c1.6,0,3.8,0.2,4.8,0.5l1.9,0.5v2.4v2.4l-1-0.3c-2-0.5-4.6-0.7-6.1-0.5
			c-2.8,0.4-4.1,2.4-4.1,6.1c0,5.8,3,7.4,10.2,5.6l1-0.2v2.4v2.4l-1.7,0.4C1022.2-286.8,1018.1-286.4,1017.5-286.7z"/>
		<path id="path4395" class="st0" d="M1099-308.7c-2.5,0-3.2,0.1-5,1c-3.7,1.8-5.1,4.6-5.1,10c0,6.3,2.4,9.8,7.4,10.9
			c2,0.4,5.9,0.1,7.6-0.6c3.5-1.5,5.4-5,5.4-10.3c0-4.2-0.9-6.6-3-8.6C1104.3-308.2,1102.7-308.7,1099-308.7z M1099-304.2
			c0.2,0,0.4,0,0.7,0c3,0.3,4.3,2.2,4.3,6.4c0,2.6-0.5,4.4-1.6,5.4c-1.3,1.2-4.3,1.4-5.8,0.4c-1.5-0.9-1.9-2.4-1.9-5.9
			C1094.5-302.4,1095.8-304.3,1099-304.2z"/>
		<path id="path4391" class="st0" d="M948.6-297.3l0.1-10.1l1.9-0.6c1-0.3,3.5-0.7,5.5-0.9l3.6-0.2v2.4v2.4l-2.1,0.2
			c-1.1,0.1-2.4,0.3-2.9,0.4l-0.8,0.2v8.1v8.1h-2.7h-2.7L948.6-297.3z"/>
		<path id="path4389" class="st0" d="M986.9-296.3c0-9.9,0.1-10.7,2-11.5c3-1.4,10.6-1.4,13.1-0.1c3.4,1.7,3.7,2.9,3.7,12.7v8h-2.5
			h-2.5v-6.8c0-3.8-0.2-7.3-0.4-7.9c-0.5-1.4-1.7-1.9-4.4-1.9c-3.8,0-3.6-0.5-3.6,8.7v8h-2.7h-2.7V-296.3z"/>
		<path id="path4387" class="st0" d="M1029.7-301.9v-14.7h2.9h2.9v4.1v4.1l1.4-0.3c1.9-0.4,3.6-0.4,5.8,0.2c2.6,0.7,4.2,1.9,5.4,4
			c1,1.8,1,1.9,1.1,9.5l0.1,7.7h-2.8h-2.8l0-6.4c0-3.5-0.2-7-0.4-7.8c-0.5-1.8-1.8-2.4-4.6-2.4c-3.6,0-3.3-0.7-3.3,8.6v8.1h-2.9
			h-2.9L1029.7-301.9L1029.7-301.9z"/>
		<path id="path4385" class="st0" d="M1075.8-297.3l0.1-10.1l1.9-0.6c1-0.3,3.5-0.7,5.5-0.9l3.6-0.2v2.4v2.4l-2.1,0.2
			c-1.1,0.1-2.4,0.3-2.9,0.4l-0.8,0.2v8.1v8.1h-2.7h-2.7L1075.8-297.3z"/>
		<path id="path4383" class="st0" d="M1113.4-301.9v-14.7h2.9h2.9v14.7v14.7h-2.9h-2.9C1113.4-287.2,1113.4-301.9,1113.4-301.9z"/>
		<path id="path4381" class="st0" d="M1124.6-301.9v-14.7h2.7h2.7v14.7v14.7h-2.7h-2.7C1124.6-287.2,1124.6-301.9,1124.6-301.9z"/>
		<path id="path4379" class="st1" d="M1020.4-333.9c-2.9-0.3-10.5-1.6-13.4-2.3c-24.5-6.2-45.2-23-56.2-45.4
			c-6-12.3-8.5-23.3-8.5-37.3c0-14.1,2.6-25.3,8.5-37.3c4.4-9,9.5-16.1,16.8-23.3c13.5-13.4,30.7-21.7,50.1-24.2
			c6.3-0.8,19.8-0.6,25.7,0.5c12.3,2.2,23.4,6.6,33.3,13.3c20.6,13.7,34,34.7,37.5,58.9c0.7,5.2,1.2,15.9,0.7,16.8
			c-0.3,0.5-0.4,0-0.6-2.1c-0.9-10.5-5.4-23.3-11.7-32.8c-19.1-28.9-54.7-41.2-87.7-30.2c-25.5,8.5-44.6,30-49.9,56.1
			c-2.6,12.9-1.8,25.5,2.3,38c7.3,22,24.9,39.6,47.2,47.2c5.3,1.8,12,3.3,16.4,3.7c5.3,0.4,4,0.8-2.6,0.8
			C1024.8-333.7,1021.2-333.8,1020.4-333.9L1020.4-333.9z"/>
		<path id="path4375" class="st1" d="M1038.7-344.5c-27.5-2-50.3-22.5-55.1-49.6c-0.9-4.9-1-14.1-0.3-18.7
			c4.1-26.9,24.8-47.3,51.8-51.1c5.5-0.8,15.2-0.5,20.5,0.6c4.6,0.9,9.6,2.6,13.6,4.4l3.1,1.4l-2.9,1.4
			c-10.5,4.9-16.9,16.5-15.4,27.6c1.5,11.1,9.2,19.8,20.2,22.9c4,1.1,10,1.1,14,0c5.1-1.5,9.1-3.8,12.8-7.6c1.2-1.3,2.3-2.2,2.4-2
			c0.1,0.2,0.4,1.9,0.6,3.9c0.6,4.9,0.3,14.1-0.7,18.8c-3.1,14.7-11,27.1-23,36.2C1068.8-347.7,1053.7-343.4,1038.7-344.5
			L1038.7-344.5z"/>
	</g>
</g>
</svg>
