<?xml version="1.0" encoding="utf-8"?>
<!-- Generator: Adobe Illustrator 27.5.0, SVG Export Plug-In . SVG Version: 6.00 Build 0)  -->
<svg version="1.1" id="Layer_1" xmlns="http://www.w3.org/2000/svg" xmlns:xlink="http://www.w3.org/1999/xlink" x="0px" y="0px"
	 viewBox="0 0 100 100" style="enable-background:new 0 0 100 100;" xml:space="preserve">
<style type="text/css">
	.st0{fill:#F9F9F9;}
	.st1{clip-path:url(#SVGID_00000174598490359698093880000017876347424814700694_);fill:#0A0A0A;}
</style>
<path class="st0" d="M86.9,100H13.1C5.9,100,0,94.1,0,86.9V13.1C0,5.9,5.9,0,13.1,0H87c7.1,0,13,5.9,13,13.1V87
	C100,94.1,94.1,100,86.9,100z"/>
<g>
	<defs>
		<rect id="SVGID_1_" x="7.2" y="18.4" width="85.7" height="64.3"/>
	</defs>
	<clipPath id="SVGID_00000098939489268310077240000016551124535670364828_">
		<use xlink:href="#SVGID_1_"  style="overflow:visible;"/>
	</clipPath>
	<path style="clip-path:url(#SVGID_00000098939489268310077240000016551124535670364828_);fill:#0A0A0A;" d="M24.7,20.9
		c0.6-0.1,1.2-0.1,1.7-0.1c6.8,0,13.7,0,20.5,0c6.8,0,13.5,2.4,18.7,6.8c4.4,3.6,7.6,8.6,9.3,14c2.1,6.7,1.7,14.1-1,20.5
		c-3.4,8.3-10.8,14.7-19.4,17c-4.9,1.4-10.1,0.9-15.2,1c-0.6,0.1-1.1-0.2-1.4-0.6c-3.1-3.1-6.2-6.1-9.2-9.3c-0.5-0.4-0.4-1-0.4-1.5
		c0-3,0-5.9,0-8.9c0-0.9,0.8-1.6,1.7-1.5c5.6,0,11.3,0,17,0c2.6,0,5.2-1.5,6.6-3.8c1.1-1.8,1.4-4.1,0.8-6.1c-0.8-3.3-4-5.7-7.4-5.7
		c-4.1,0-8.3,0-12.4,0c-0.6,0.1-1-0.3-1.4-0.7c-2.9-2.9-5.7-5.8-8.6-8.7c-0.4-0.4-1-0.9-1-1.6c0-3.1,0-6.3,0-9.4
		C23.6,21.7,24.1,21.1,24.7,20.9 M28.9,23.9c2,2,4,4,6,6c0.2,0.3,0.6,0.3,1,0.3c3.6,0,7.3,0,10.9,0c6.4-0.1,12.7,3.1,16.4,8.3
		c3.2,4.3,4.5,9.9,3.7,15.1c-0.7,4.4-2.9,8.5-6.1,11.6c-3.4,3.3-8,5.3-12.7,5.5c-2.4,0.1-4.9,0-7.3,0c0,2.1,0,4.1,0,6.2
		c2.3,0,4.5,0,6.8,0c5-0.1,10-1.7,14.1-4.6c3.9-2.7,7.1-6.4,9.1-10.6C73.5,56,74,49.2,72.2,43c-1.6-5.5-5.1-10.5-9.8-13.9
		c-4.3-3.2-9.7-5-15.1-5.1C41.1,23.9,35,24,28.9,23.9 M26.7,26.1c0.1,1.7-0.1,3.4,0.1,5c2,2.1,4.1,4.1,6.1,6.2c0.1-1.6,0-3.3,0-4.9
		C30.8,30.3,28.8,28.2,26.7,26.1 M36,33.3c0.1,2.1,0,4.2,0,6.3c3.8,0,7.6,0,11.4,0c4.8,0.2,9.1,3.9,10.1,8.6c0.7,3,0,6.2-1.8,8.7
		c-1.9,2.7-5.1,4.4-8.5,4.5c-4.5,0-9.1,0-13.6,0c1.6,1.6,3.2,3.2,4.8,4.8c0.4,0.4,0.9,0.9,1.3,1.4c1.3,0.1,2.5,0,3.8,0
		c2.5,0,5.1,0.2,7.6-0.5c4.9-1.2,9.2-4.8,11.3-9.4c3-6.3,1.7-14.4-3.4-19.3c-3.1-3.3-7.6-5.1-12-5.1C43.3,33.3,39.7,33.3,36,33.3
		 M31.4,63.7c0,1.6,0,3.2,0,4.8c2,2.2,4.2,4.2,6.2,6.3c0-1.6,0-3.3,0-4.9c-0.4-0.6-1-1-1.4-1.5C34.5,66.9,33.1,65.2,31.4,63.7"/>
</g>
</svg>
