<?xml version="1.0" encoding="utf-8"?>
<!-- Generator: Adobe Illustrator 27.0.0, SVG Export Plug-In . SVG Version: 6.00 Build 0)  -->
<svg version="1.1" id="Layer_1" xmlns="http://www.w3.org/2000/svg" xmlns:xlink="http://www.w3.org/1999/xlink" x="0px" y="0px"
	 viewBox="0 0 100 100" style="enable-background:new 0 0 100 100;" xml:space="preserve">
<style type="text/css">
	.st0{fill-rule:evenodd;clip-rule:evenodd;fill:#A238FF;}
</style>
<path class="st0" d="M83.9,15.3c0.9-5.4,2.3-8.7,3.8-8.7h0c2.8,0,5.1,11.7,5.1,26.1c0,14.4-2.3,26.1-5.1,26.1c-1.2,0-2.2-2-3.1-5.3
	c-1.4,12.2-4.2,20.6-7.4,20.6c-2.5,0-4.8-5-6.3-13c-1,15.1-3.6,25.8-6.7,25.8c-1.9,0-3.6-4.2-4.9-11.2C57.7,90,54.2,100,50,100
	c-4.2,0-7.8-10-9.3-24.3c-1.3,6.9-3,11.2-4.9,11.2c-3,0-5.6-10.7-6.7-25.8c-1.5,7.9-3.8,13-6.3,13c-3.2,0-6.1-8.4-7.4-20.6
	c-0.8,3.3-1.9,5.3-3.1,5.3c-2.8,0-5.1-11.7-5.1-26.1c0-14.4,2.3-26.1,5.1-26.1c1.5,0,2.9,3.4,3.8,8.7C17.6,6,20.1,0,22.8,0
	c3.3,0,6.1,8.5,7.4,20.8c1.3-9,3.3-14.7,5.5-14.7c3.1,0,5.8,11.3,6.8,27C44.4,25.1,47,20,50,20s5.6,5.1,7.5,13.1
	c1-15.7,3.6-27,6.8-27c2.2,0,4.2,5.7,5.5,14.7C71.1,8.5,73.9,0,77.2,0C79.9,0,82.4,6,83.9,15.3z M0,30.1c0-6.5,1.3-11.7,2.9-11.7
	s2.9,5.2,2.9,11.7c0,6.5-1.3,11.7-2.9,11.7S0,36.5,0,30.1z M94.2,30.1c0-6.5,1.3-11.7,2.9-11.7c1.6,0,2.9,5.2,2.9,11.7
	c0,6.5-1.3,11.7-2.9,11.7C95.5,41.8,94.2,36.5,94.2,30.1z"/>
</svg>
