<?xml version="1.0" encoding="utf-8"?>
<!-- Generator: Adobe Illustrator 27.0.0, SVG Export Plug-In . SVG Version: 6.00 Build 0)  -->
<svg version="1.1" id="Layer_1" xmlns="http://www.w3.org/2000/svg" xmlns:xlink="http://www.w3.org/1999/xlink" x="0px" y="0px"
	 viewBox="0 0 100 100" style="enable-background:new 0 0 100 100;" xml:space="preserve">
<style type="text/css">
	.st0{fill:#F7F7F7;}
</style>
<path class="st0" d="M89.5,97.7H10.5c-4.5,0-8.2-3.7-8.2-8.2V10.5c0-4.5,3.7-8.2,8.2-8.2h79.1c4.5,0,8.2,3.7,8.2,8.2v79.1
	C97.7,94.1,94.1,97.7,89.5,97.7z"/>
<g>
	<path d="M45.6,43.4c2.5-1,9.2-2.4,14-1.7l6,12.5l16.5-3.9c0.8-0.2,1.3-1.3,0-2.4c-10.3-8.3-20.5-10-40.7-5.5l12,24.9L11.6,79.1v7.6
		c0,0.3,0.1,0.5,0.3,0.7c0.2,0.2,0.5,0.3,0.7,0.3h74.8c0.3,0,0.5-0.1,0.7-0.3c0.2-0.2,0.3-0.5,0.3-0.7v-29l-31.8,8.4
		C56.6,66.2,47.7,48.2,45.6,43.4z"/>
	<path d="M87.4,11.5H12.6c-0.2,0-0.4,0.1-0.5,0.2c-0.3,0.2-0.5,0.5-0.5,0.8v32.6c1.6-1.3,7.5-5.6,13.3-7.4L20,26.4h13.9
		c0,0,3.6,7.9,3.6,8.1c5.1-1.5,29.2-5.4,50.7,3.9l0.3,0.2v-26c0-0.4-0.2-0.6-0.5-0.8C87.9,11.6,87.7,11.5,87.4,11.5z"/>
	<path d="M21.4,65c3.1-0.6,14.9-3.9,14.9-3.9l-7.7-15.7c-2.1,0.5-10.9,4.6-10.2,18.1C18.4,63.6,18.3,65.7,21.4,65z"/>
	<path d="M88.1,4.7H12.2c-4.2,0-7.5,3.4-7.5,7.5v75.5c0,4.2,3.4,7.5,7.5,7.5h75.8c4.2,0,7.5-3.4,7.5-7.5V12.2
		C95.7,8.1,92.2,4.7,88.1,4.7z M91,86.7c0,1.9-1.5,3.5-3.5,3.5H12.6c-1.9,0-3.5-1.5-3.5-3.5V12.5c0-1.9,1.5-3.5,3.5-3.5h74.8
		c1.9,0,3.5,1.5,3.5,3.5V86.7z"/>
</g>
</svg>
