<?xml version="1.0" encoding="utf-8"?>
<!-- Generator: Adobe Illustrator 27.0.0, SVG Export Plug-In . SVG Version: 6.00 Build 0)  -->
<svg version="1.1" id="Layer_1" xmlns="http://www.w3.org/2000/svg" xmlns:xlink="http://www.w3.org/1999/xlink" x="0px" y="0px"
	 viewBox="0 0 100 100" style="enable-background:new 0 0 100 100;" xml:space="preserve">
<style type="text/css">
	.st0{fill:#5865F2;}
</style>
<path class="st0" d="M84.2,0c5.9,0,10.6,4.7,10.9,10.3V100l-11.1-9.5l-6.1-5.6l-6.7-5.8l2.8,9.2H15.5C9.6,88.3,4.9,83.9,4.9,78V10.4
	C4.9,4.8,9.7,0,15.5,0L84.2,0L84.2,0z M58.8,23.7h-0.1l-0.8,0.8c8.6,2.5,12.8,6.4,12.8,6.4C65,28.1,60,26.8,55,26.2
	c-3.6-0.6-7.2-0.3-10.3,0h-0.8c-2,0-6.1,0.8-11.7,3.1c-1.9,0.8-3.1,1.4-3.1,1.4s4.2-4.2,13.4-6.4l-0.6-0.6c0,0-7-0.3-14.5,5.3
	c0,0-7.5,13.1-7.5,29.2c0,0,4.2,7.2,15.6,7.5c0,0,1.7-2.2,3.4-4.2c-6.4-1.9-8.9-5.8-8.9-5.8s0.6,0.3,1.4,0.8h0.2
	c0.1,0,0.2,0.1,0.2,0.1v0c0.1,0.1,0.1,0.1,0.2,0.1c1.4,0.6,2.7,1.1,3.9,1.7c1.9,0.8,4.4,1.7,7.5,2.2c3.9,0.6,8.3,0.8,13.4,0
	c2.5-0.6,5-1.1,7.5-2.2c1.6-0.8,3.6-1.7,5.8-3.1c0,0-2.5,3.9-9.2,5.8c1.4,1.9,3.3,4.2,3.3,4.2c11.4-0.2,15.9-7.5,16.1-7.2
	c0-16.1-7.6-29.2-7.6-29.2C66,24,59.7,23.8,58.5,23.8L58.8,23.7L58.8,23.7z M59.5,42.1c2.9,0,5.3,2.5,5.3,5.6c0,3.1-2.4,5.6-5.3,5.6
	c-2.9,0-5.3-2.5-5.3-5.6C54.2,44.6,56.6,42.1,59.5,42.1L59.5,42.1z M40.5,42.1c2.9,0,5.3,2.5,5.3,5.6c0,3.1-2.4,5.6-5.3,5.6
	s-5.3-2.5-5.3-5.6C35.2,44.6,37.6,42.1,40.5,42.1L40.5,42.1z"/>
</svg>
