<?xml version="1.0" encoding="utf-8"?>
<!-- Generator: Adobe Illustrator 27.5.0, SVG Export Plug-In . SVG Version: 6.00 Build 0)  -->
<svg version="1.1" id="Layer_1" xmlns="http://www.w3.org/2000/svg" xmlns:xlink="http://www.w3.org/1999/xlink" x="0px" y="0px"
	 viewBox="0 0 100 100" style="enable-background:new 0 0 100 100;" xml:space="preserve">
<style type="text/css">
	.st0{fill:#F9F9F9;}
	.st1{fill:#3399FF;}
</style>
<path class="st0" d="M86.9,100H13.1C5.9,100,0,94.1,0,86.9V13.1C0,5.9,5.9,0,13.1,0H87c7.1,0,13,5.9,13,13.1V87
	C100,94.1,94.1,100,86.9,100z"/>
<path class="st1" d="M14.8,84.5c0-0.4,0-0.5,0-0.8c0-5.6,0-11.3,0-16.9c0-14.1,0-28.1,0-42.2c0-4.3,2.8-7.8,6.9-8.7
	c0.8-0.1,1.4-0.3,2.2-0.3c17.4,0,34.9,0,52.3,0c5.4,0,9.1,3.7,9.1,9.1c0,11.3,0,22.7,0,34.1c0,5.4-3.8,9.1-9.1,9.1
	c-12.3,0-24.5,0-36.8,0c-3.7,0-6.9,1.1-9.8,3.6c-4.6,4.2-9.5,8.2-14.2,12.4C15.4,84,15.2,84.2,14.8,84.5z M50.2,49.9
	c6.3,0,12.7,0,18.8,0c0.4,0,0.8,0,1.1,0c0.8-0.1,1.2-0.5,1.3-1.3c0.1-0.8-0.3-1.3-0.9-1.6c-0.4-0.1-0.8-0.1-1.2-0.1
	c-12.7,0-25.4,0-38.1,0c-1.4,0-2.2,0.5-2.2,1.6s0.8,1.6,2.2,1.6C37.5,49.9,43.8,49.9,50.2,49.9z M52.8,41.9c5.5,0,11.1,0,16.4,0
	c0.3,0,0.7,0,1,0c0.7-0.1,1-0.5,1.1-1.3c0.1-0.8-0.3-1.3-0.8-1.6c-0.3-0.1-0.7-0.1-1-0.1c-11.1,0-22.2,0-33.3,0
	c-1.2,0-1.9,0.5-1.9,1.6s0.7,1.6,1.9,1.6C41.7,41.9,47.2,41.9,52.8,41.9z M57.4,32.2c-4.2,0-8.4,0-12.5,0c-0.2,0-0.5,0-0.6,0
	c-0.5,0.1-0.9,0.7-0.9,1.4c0,0.8,0.3,1.3,0.8,1.6c0.2,0.1,0.5,0.1,0.6,0.1c8.4,0,16.9,0,25.3,0c0.3,0,0.5,0,0.7-0.1
	c0.5-0.3,0.7-0.9,0.6-1.7c-0.1-0.8-0.3-1.2-0.9-1.3c-0.2,0-0.5,0-0.6,0C65.7,32.2,61.6,32.2,57.4,32.2z"/>
</svg>
