<?xml version="1.0" encoding="utf-8"?>
<!-- Generator: Adobe Illustrator 27.0.0, SVG Export Plug-In . SVG Version: 6.00 Build 0)  -->
<svg version="1.1" id="Layer_1" xmlns="http://www.w3.org/2000/svg" xmlns:xlink="http://www.w3.org/1999/xlink" x="0px" y="0px"
	 viewBox="0 0 100 100" style="enable-background:new 0 0 100 100;" xml:space="preserve">
<style type="text/css">
	.st0{fill-rule:evenodd;clip-rule:evenodd;fill:#22890A;}
</style>
<g>
	<path class="st0" d="M18.7,17.7h62.7v7.7H18.7V17.7z M50,60.9H36.9h-0.4h-0.1l7.1,13.6l0.1,0.1H50h6.4l0.1-0.1l7.1-13.5L50,60.9
		L50,60.9z M68.2,38.2H31.8v15.2h36.3L68.2,38.2L68.2,38.2z M65,74.5h18v7.8H50H17v-7.8h18l-7.1-13.6h-5.3V30.8H50h27.5v30.1h-5.2
		h-0.1L65,74.5z M5,100h90c2.7,0,5-2.2,5-5V5c0-2.8-2.2-5-5-5H5C2.2,0,0,2.2,0,5v90C0,97.8,2.2,100,5,100L5,100z"/>
</g>
</svg>
