<?xml version="1.0" encoding="utf-8"?>
<!-- Generator: Adobe Illustrator 27.0.0, SVG Export Plug-In . SVG Version: 6.00 Build 0)  -->
<svg version="1.1" id="Layer_1" xmlns="http://www.w3.org/2000/svg" xmlns:xlink="http://www.w3.org/1999/xlink" x="0px" y="0px"
	 viewBox="0 0 100 100" style="enable-background:new 0 0 100 100;" xml:space="preserve">
<style type="text/css">
	.st0{fill:#F7F7F7;}
</style>
<path class="st0" d="M87.4,77.1H12.6c-4.8,0-8.6-3.9-8.6-8.6v-37c0-4.8,3.9-8.6,8.6-8.6h74.8c4.8,0,8.6,3.9,8.6,8.6v37
	C96,73.3,92.2,77.1,87.4,77.1z"/>
<g>
	<path id="path16" d="M19.1,31.8h-4.2V38h-5v4.2h5v8.6l-5,0.8V56l5-0.8v7.4c0,0.6-0.5,1.1-1.1,1.1h-3.5v4.2h5.3
		c1.9,0,3.5-1.6,3.5-3.5v-9.8l4.3-0.7v-4.4l-4.3,0.7v-8h4.3V38h-4.3C19.1,38,19.1,31.8,19.1,31.8z"/>
	<path id="path18" d="M43.1,31.8h-4.2v22.1L25,55v4.4l13.9-1.2v9.9h4.2V58l4.3-0.4v-4.4l-4.3,0.4C43.1,53.5,43.1,31.8,43.1,31.8z"/>
	<path id="path20" d="M36.7,36.7l-10-1.8v4.4l10,1.8C36.7,41.1,36.7,36.7,36.7,36.7z"/>
	<path id="path22" d="M36.7,46l-10-1.8v4.4l10,1.8C36.7,50.3,36.7,46,36.7,46z"/>
	<path id="path24" d="M81.7,44l0.7-3.4h-4.4L77.3,44H65.6l-0.5-3.4h-4.5l0.6,3.4h-8.5v4.1H90V44C90,44,81.7,44,81.7,44z"/>
	<path id="path26" d="M88.8,34.6H74.7l-0.8-2.9h-5.5l0.8,2.9H53.9v4.1h35V34.6z"/>
	<path id="path28" d="M83.1,51.3H59.6c-1.9,0-3.5,1.6-3.5,3.5v9.6c0,1.9,1.6,3.5,3.5,3.5h23.5c1.9,0,3.5-1.6,3.5-3.5v-9.6
		C86.6,52.8,85.1,51.3,83.1,51.3z M61.1,55.1h20.5c0.6,0,1.1,0.5,1.1,1.1V58H60.1v-1.8C60,55.5,60.5,55.1,61.1,55.1z M81.6,64.2
		H61.1c-0.6,0-1.1-0.5-1.1-1.1v-1.8h22.7v1.8C82.6,63.7,82.2,64.2,81.6,64.2z"/>
</g>
</svg>
