<?xml version="1.0" encoding="utf-8"?>
<!-- Generator: Adobe Illustrator 27.0.0, SVG Export Plug-In . SVG Version: 6.00 Build 0)  -->
<svg version="1.1" id="Layer_1" xmlns="http://www.w3.org/2000/svg" xmlns:xlink="http://www.w3.org/1999/xlink" x="0px" y="0px"
	 viewBox="0 0 100 100" style="enable-background:new 0 0 100 100;" xml:space="preserve">
<style type="text/css">
	.st0{fill:#C0272D;}
	.st1{fill:#F3717A;}
	.st2{fill:#DF5F66;}
	.st3{fill:#F3727B;}
	.st4{fill:#F3727A;}
</style>
<g>
	<path class="st0" d="M60.3,1.7c4.9,2.7,9.8,5.5,14.7,8.2c3.4,1.9,6.8,3.8,10.1,5.6c0.6,0.4,1,0.7,1.1,1.6c1,19-1.2,37.7-7.5,55.7
		C75.6,82,70.3,90,63.6,97.1c-0.3,0.3-0.6,0.6-1.1,0.7c-4.6,0.5-9.2,1-13.7,1.5c-0.4,0.2-0.8,0.1-1.2,0c0.1-0.6,0.6-0.8,1-1
		c3.1-1.7,6.2-3.7,8.8-6.2c4.2-4,7.2-8.7,7.7-14.7c0.2-2.2,0.2-4.5-0.2-6.7c-1-4.5-3-8.6-5.6-12.4c-2.8-4.2-7-6-11.8-6.1
		c-10.2-0.1-18.9,3.5-25,11.9c-5.2,7.2-3.8,18,2.8,24c0.7,0.6,1.4,1.3,2.2,1.7c4.6,2.4,9.2,3,14.1,0.9c4.8-2,8.1-6.9,8-11.8
		c-0.1-3.9-2-6.9-4.9-9.4c-5.3-3.8-12.5-0.7-14,4.4c-0.5,1.5-0.2,3,0.3,4.5c0.2,0.5,0.6,1,0.3,1.7c-1.3-1.5-2.1-3.2-2.1-5.2
		c-0.4-2.7,0.5-5.1,2.2-7.2c3.3-3.9,7.5-5.3,12.5-4.3c0.8,0.2,1.5,0.5,2.1,0.9c8,4,10.7,15.6,5.4,23.1c-6.3,8.9-18.2,10.6-26.9,3.8
		c-0.7-0.5-1.3-1.1-2-1.7c-3.9-3.9-6.2-8.7-6.9-14.2c-1.1-9.3,1.8-17.1,9-23.3c6.1-5.2,13.1-7.7,21.1-7.5c3.9,0.1,7.6,1.1,11.2,2.8
		c4.8,2.4,8.7,5.8,11.3,10.6c1,0.7,1,2,1.9,3.1c0-3.1,0.1-6,0-9c-0.3-6-1-11.9-2-17.8C66.1,24,63.5,13.9,60.5,4
		C60.3,3.3,59.8,2.5,60.3,1.7z"/>
	<path class="st1" d="M56.8,47.3c-0.4,0.1-0.8-0.1-1.2-0.3c-11.3-4.2-21.5-2.4-30.8,5.2c-4.5,3.7-7.5,8.4-8.6,14.1
		c-1.6,8.1,0.1,15.6,5.5,22c0.3,0.3,0.7,0.6,0.6,1.1c-1.4-0.8-2.3-1.9-3.3-3.1c-8.7-11-7-26.8,3.8-35.8c5.5-4.6,11.8-7,19-7.3
		c5-0.2,9.9,0.9,14.3,3.5C56.4,47,56.6,47.2,56.8,47.3z"/>
	<path class="st2" d="M60.3,1.7c0.8,3.8,2.1,7.5,3.2,11.3c2.2,8,3.9,16.1,5.2,24.3c1.3,8,1.8,16,1.6,24c0,0.3,0,0.5-0.1,1.2
		c-1.1-1.6-1.7-3-2.2-4.5c0.6-0.6,0.4-1.3,0.3-2c-0.1-9.3-1.3-18.5-3.2-27.6c-1.9-9.2-4.4-18.3-7.2-27.3C58,0.8,57.9,0.5,57.8,0
		C58.9,0.4,59.6,1,60.3,1.7z"/>
	<path class="st1" d="M44.6,69.5c2.9,1.6,4.2,4.2,5,7.2c1.6,7-3.7,13.3-9.9,15c-3.9,1-7.6,0.7-11.2-1.1c-0.4-0.2-0.9-0.3-1.1-0.8
		c1.6,0.2,3.1,0.8,4.7,1c6.4,0.8,13.3-3.5,15.1-9.6c1-3.4,0.6-6.7-1.3-9.7C45.5,70.8,45,70.2,44.6,69.5z"/>
	<path class="st3" d="M64.8,70.6c0.8,2.1,0.7,4.3,0.6,6.6c-0.3,4.1-1.8,7.7-4.2,11c-3.2,4.4-7.5,7.5-12.2,10.1
		c-0.3,0.2-0.6,0.3-0.8,0.5c-0.1,0-0.1,0.1-0.3,0.2c0.3,0,0.6,0.1,0.9,0.1c-2.1,0.3-4.2,0.5-6.3,0.8c3.9-1.6,7.6-3.4,10.9-5.9
		C61,88.4,65,80.9,64.7,71.3C64.7,71.1,64.7,70.8,64.8,70.6z"/>
	<path class="st4" d="M45.9,64.3c-1.5-0.3-3-0.8-4.5-0.9c-5.7-0.4-12,4-12.3,11.4c-1.6-5.1,1.2-10.4,6.6-12.2
		C39.3,61.4,42.8,61.7,45.9,64.3z"/>
</g>
</svg>
