<?xml version="1.0" encoding="utf-8"?>
<!-- Generator: Adobe Illustrator 27.0.0, SVG Export Plug-In . SVG Version: 6.00 Build 0)  -->
<svg version="1.1" id="Layer_1" xmlns="http://www.w3.org/2000/svg" xmlns:xlink="http://www.w3.org/1999/xlink" x="0px" y="0px"
	 viewBox="0 0 100 100" style="enable-background:new 0 0 100 100;" xml:space="preserve">
<style type="text/css">
	.st0{fill:#E74D89;}
	.st1{fill:#B2215A;}
</style>
<g>
	<path class="st0" d="M50,3.3c25.8,0,46.6,20.9,46.6,46.6S75.8,96.6,50,96.6S3.4,75.7,3.4,50S24.2,3.3,50,3.3z"/>
	<path class="st1" d="M50,99.9C22.4,99.9,0,77.5,0,50C0,22.4,22.4,0,50,0s50,22.4,50,49.9S77.6,99.9,50,99.9L50,99.9z M92.1,56.8
		c-1.4-0.5-13.2-3.9-26.6-1.8c5.6,15.3,7.9,27.8,8.3,30.4C83.4,78.9,90.3,68.6,92.1,56.8z M66.7,89.3c-0.6-3.8-3.1-16.8-9.1-32.3
		c-0.1,0-0.2,0.1-0.3,0.1c-24.1,8.4-32.7,25.1-33.5,26.6c7.2,5.6,16.3,9,26.2,9C55.9,92.7,61.6,91.4,66.7,89.3L66.7,89.3z
		 M18.3,78.5c1-1.6,12.7-21,34.7-28.2c0.5-0.2,1.1-0.4,1.7-0.5c-1.1-2.4-2.2-4.8-3.5-7.2c-21.3,6.4-42,6.1-43.9,6.1
		c0,0.4,0,0.9,0,1.3C7.3,60.9,11.4,70.9,18.3,78.5L18.3,78.5z M8.2,41.2c1.9,0,19.5,0.1,39.5-5.2C40.6,23.5,33,12.9,31.9,11.4
		C19.9,17,11,28,8.2,41.2z M40,8.5c1.2,1.6,8.9,12.1,15.9,25c15.2-5.7,21.6-14.3,22.4-15.4C70.8,11.4,60.9,7.3,50,7.3
		C46.6,7.3,43.2,7.8,40,8.5z M83,23c-0.9,1.2-8,10.4-23.8,16.8c1,2,2,4.1,2.9,6.2c0.3,0.7,0.6,1.5,0.9,2.2
		c14.2-1.8,28.3,1.1,29.7,1.4C92.6,39.5,89,30.3,83,23L83,23z"/>
</g>
</svg>
