<?xml version="1.0" encoding="utf-8"?>
<!-- Generator: Adobe Illustrator 27.0.0, SVG Export Plug-In . SVG Version: 6.00 Build 0)  -->
<svg version="1.1" id="Layer_1" xmlns="http://www.w3.org/2000/svg" xmlns:xlink="http://www.w3.org/1999/xlink" x="0px" y="0px"
	 viewBox="0 0 100 100" style="enable-background:new 0 0 100 100;" xml:space="preserve">
<style type="text/css">
	.st0{fill:#F7F7F7;}
	.st1{fill:#E53238;}
	.st2{fill:#0064D2;}
	.st3{fill:#F5AF02;}
	.st4{fill:#86B817;}
</style>
<path class="st0" d="M92.4,70.3H7.6c-2.9,0-5.3-2.4-5.3-5.3V34.9c0-2.9,2.4-5.3,5.3-5.3h84.8c2.9,0,5.3,2.4,5.3,5.3v30.2
	C97.7,68,95.3,70.3,92.4,70.3z"/>
<g>
	<path id="e" class="st1" d="M16.3,39.7c-6.4,0-11.8,2.7-11.8,10.9c0,6.5,3.6,10.6,11.9,10.6c9.8,0,10.4-6.5,10.4-6.5h-4.8
		c0,0-1,3.5-6,3.5c-4,0-6.9-2.7-6.9-6.5h18.2v-2.4C27.4,45.6,25,39.7,16.3,39.7L16.3,39.7z M16.1,42.8c3.8,0,6.5,2.4,6.5,5.9H9.3
		C9.3,44.9,12.7,42.8,16.1,42.8z"/>
	<path id="b" class="st2" d="M27.4,31.8v25.4c0,1.4-0.1,3.5-0.1,3.5h4.5c0,0,0.2-1.5,0.2-2.8c0,0,2.2,3.5,8.3,3.5
		c6.4,0,10.8-4.5,10.8-10.8c0-5.9-4-10.7-10.8-10.7c-6.3,0-8.3,3.4-8.3,3.4V31.8H27.4z M39.1,42.9c4.4,0,7.1,3.2,7.1,7.6
		c0,4.7-3.2,7.7-7.1,7.7c-4.6,0-7.2-3.6-7.2-7.7C32,46.8,34.3,42.9,39.1,42.9z"/>
	<path id="a" class="st3" d="M62.3,39.7c-9.7,0-10.3,5.3-10.3,6.1h4.8c0,0,0.3-3.1,5.1-3.1c3.2,0,5.6,1.5,5.6,4.2v1H62
		c-7.5,0-11.4,2.2-11.4,6.6c0,4.4,3.7,6.7,8.6,6.7c6.7,0,8.9-3.7,8.9-3.7c0,1.5,0.1,2.9,0.1,2.9h4.3c0,0-0.2-1.8-0.2-3v-10
		C72.3,41.1,67,39.7,62.3,39.7L62.3,39.7z M67.6,51v1.3c0,1.7-1.1,6-7.3,6c-3.4,0-4.9-1.7-4.9-3.7C55.4,51,60.3,51,67.6,51L67.6,51z
		"/>
	<path id="y" class="st4" d="M69.7,40.6h5.4l7.8,15.5l7.7-15.5h4.9L81.4,68.2h-5.1l4.1-7.7L69.7,40.6z"/>
</g>
</svg>
