<?xml version="1.0" encoding="utf-8"?>
<!-- Generator: Adobe Illustrator 27.5.0, SVG Export Plug-In . SVG Version: 6.00 Build 0)  -->
<svg version="1.1" id="Layer_1" xmlns="http://www.w3.org/2000/svg" xmlns:xlink="http://www.w3.org/1999/xlink" x="0px" y="0px"
	 viewBox="0 0 100 100" style="enable-background:new 0 0 100 100;" xml:space="preserve">
<style type="text/css">
	.st0{fill:#F9F9F9;}
	.st1{fill:#FF5722;}
	.st2{fill:#FF9801;}
	.st3{fill:#FFDC00;}
	.st4{fill:#F5F5F5;}
</style>
<path class="st0" d="M86.9,100H13.1C5.9,100,0,94.1,0,86.9V13.1C0,5.9,5.9,0,13.1,0h73.9C94.1,0,100,5.9,100,13.1v73.9
	C100,94.1,94.1,100,86.9,100z"/>
<path d="M84.3,36.9c-3-2.1-6-4.3-9.1-6.4c-0.4-0.3-0.5-0.6-0.5-1c0-2.1,0-4.2,0-6.3c0-1.6-1-2.6-2.6-2.6c-3.4,0-6.8,0-10.2,0
	c-0.4,0-0.9-0.2-1.2-0.4c-1.8-1.2-3.5-2.5-5.2-3.7c-3.3-2.4-7.8-2.4-11.1,0c-1.7,1.3-3.5,2.5-5.3,3.8c-0.3,0.2-0.7,0.3-1.1,0.3
	c-3.4,0-6.7,0-10.1,0c-1.8,0-2.7,0.9-2.7,2.7c0,2.1,0,4.2,0,6.3c0,0.3-0.2,0.7-0.4,0.8c-3.2,2.3-6.3,4.5-9.5,6.7
	c-0.5,0.3-0.7,0.7-0.7,1.3c0,14.4,0,28.8,0,43.2c0,1.8,0.8,2.9,2.9,3.7h64.8c1.5-0.4,2.5-1.4,2.9-2.9V37.7
	C85,37.4,84.6,37.1,84.3,36.9z M74.8,33c2.5,1.8,5,3.5,7.5,5.3c-2.5,2.1-4.9,4.1-7.5,6.2V33z M49.1,17.1c1.3-0.1,2.6-0.1,3.7,0.6
	c1.5,0.8,2.8,1.8,4.2,2.7c0,0.1,0,0.1-0.1,0.2H43.1C45,19.2,46.6,17.4,49.1,17.1z M27.7,23h44.7v0.7c0,7.4,0,14.8,0,22.1
	c0,0.5-0.2,0.8-0.5,1.1c-5.1,4.2-10.1,8.4-15.2,12.6c-0.7,0.6-1.5,1.2-2.2,1.8c-2.7,2.1-6.3,2.2-8.9,0c-5.9-4.8-11.7-9.7-17.6-14.6
	c-0.2-0.2-0.3-0.5-0.3-0.7c0-7.6,0-15.2,0-22.8C27.6,23.2,27.7,23.1,27.7,23z M25.2,33v11.5c-2.5-2.1-4.9-4.1-7.5-6.2
	C20.3,36.5,22.7,34.8,25.2,33z M17.1,81.6V40.8c8.2,6.8,16.3,13.6,24.6,20.4C33.4,68,25.3,74.8,17.1,81.6z M19.2,82.9
	c8.1-6.8,16.2-13.4,24.2-20.1c4.3,3.4,8.7,3.4,13.1,0c8.1,6.7,16.1,13.4,24.3,20.2H19.2z M82.9,81.6C74.7,74.8,66.6,68,58.4,61.2
	c8.2-6.8,16.3-13.6,24.6-20.4V81.6z"/>
<path class="st1" d="M80.8,82.9H19.2c8.1-6.8,16.2-13.4,24.2-20.1c4.3,3.4,8.7,3.4,13.1,0C64.6,69.5,72.7,76.1,80.8,82.9z"/>
<path class="st2" d="M82.9,40.8v40.8C74.7,74.8,66.6,68,58.4,61.2C66.6,54.4,74.7,47.6,82.9,40.8z"/>
<path class="st3" d="M82.2,38.3c-2.5,2.1-4.9,4.1-7.5,6.2V33C77.3,34.8,79.7,36.5,82.2,38.3z"/>
<path class="st3" d="M57,20.4c0,0.1,0,0.1-0.1,0.2H43.1c1.9-1.4,3.5-3.2,6-3.4c1.3-0.1,2.6-0.1,3.7,0.6C54.3,18.5,55.6,19.5,57,20.4
	z"/>
<path class="st4" d="M72.4,23.7V23H27.7c0,0.1,0,0.2,0,0.3c0,7.6,0,15.2,0,22.8c0,0.2,0.1,0.5,0.3,0.7c5.8,4.9,11.7,9.8,17.6,14.6
	c2.6,2.2,6.2,2.1,8.9,0c0.8-0.6,1.5-1.2,2.2-1.8c5-4.2,10.1-8.4,15.2-12.6c0.4-0.3,0.5-0.6,0.5-1.1C72.4,38.5,72.4,31.1,72.4,23.7z
	 M64.1,49c-0.1,0.2-0.2,0.5-0.4,0.7c-2.2,2.6-5,4-8.2,4.6c-4.2,0.8-8.3,0.4-12.3-1.1c-6.6-2.5-9.4-10.2-6-16.7c2.5-4.8,6.5-8,12-8.8
	c5.9-0.8,10.7,1.5,13,6.4c2,4.3,1.5,8.4-1.5,12.2c-1.1,1.3-2.5,2.1-4.2,2.2c-1.7,0.1-3.1-0.3-4-2c-1.2,1.1-2.6,1.8-4.2,2
	c-3.2,0.4-6-1.7-6.2-5c-0.3-3.8,1.9-7.8,5.3-9.5c2.1-1.1,4.7-0.6,6.4,1c0.2,0.2,0.3,0.3,0.5,0.6c0.1-0.4,0.1-0.7,0.2-1
	c0.2-0.7,0.8-1.1,1.4-1c0.7,0.2,1,0.7,0.9,1.5c-0.7,3.2-1.4,6.5-2,9.7c-0.2,0.9,0,1.3,0.9,1.3c1.3,0.1,2.4-0.4,3.3-1.4
	c2.2-2.8,2.5-5.8,1.3-9c-1.3-3.3-3.8-5.2-7.3-5.7c-6.2-0.9-13,3.7-14.6,9.8c-1.3,5,1.6,10,6.5,11.5c3.7,1.1,7.3,1.4,11.1,0.5
	c2.4-0.6,4.4-1.8,6-3.7c0.4-0.5,0.9-0.7,1.5-0.4C64,48,64.2,48.4,64.1,49z"/>
<path class="st3" d="M25.2,33v11.5c-2.5-2.1-4.9-4.1-7.5-6.2C20.3,36.5,22.7,34.8,25.2,33z"/>
<path class="st2" d="M41.7,61.2C33.4,68,25.3,74.8,17.1,81.6V40.8C25.3,47.6,33.4,54.3,41.7,61.2z"/>
<path d="M63.4,47.7c-0.6-0.3-1.1-0.1-1.5,0.4c-1.6,1.9-3.6,3.1-6,3.7c-3.7,1-7.4,0.6-11.1-0.5c-4.9-1.5-7.8-6.5-6.5-11.5
	c1.5-6.1,8.3-10.7,14.6-9.8c3.5,0.5,6,2.4,7.3,5.7c1.2,3.2,0.9,6.3-1.3,9c-0.8,1.1-1.9,1.5-3.3,1.4c-0.9-0.1-1.1-0.4-0.9-1.3
	c0.7-3.2,1.4-6.5,2-9.7c0.2-0.7-0.2-1.3-0.9-1.5c-0.7-0.2-1.2,0.2-1.4,1c-0.1,0.3-0.1,0.6-0.2,1c-0.2-0.2-0.4-0.4-0.5-0.6
	c-1.7-1.7-4.3-2.1-6.4-1c-3.4,1.7-5.6,5.8-5.3,9.5c0.3,3.2,3,5.4,6.2,5c1.6-0.2,3-0.9,4.2-2c0.9,1.6,2.3,2.1,4,2
	c1.7-0.1,3.2-0.9,4.2-2.2c3-3.8,3.4-7.9,1.5-12.2c-2.2-4.9-7.1-7.3-13-6.4c-5.5,0.8-9.5,4-12,8.8c-3.4,6.4-0.6,14.2,6,16.7
	c4,1.5,8.1,1.9,12.3,1.1c3.3-0.6,6.1-2,8.2-4.6c0.2-0.2,0.3-0.4,0.4-0.7C64.2,48.4,64,48,63.4,47.7z M53.3,40.2
	c-0.2,2-1.3,3.5-2.8,4.8c-0.9,0.8-2,1.2-3.1,1.2c-2,0-3.1-1.3-3.1-4.1c0.3-2.3,1.5-4.5,3.9-5.9c1.3-0.8,3-0.4,4,0.8
	c0.3,0.4,0.6,0.9,0.9,1.4C53.4,39,53.4,39.5,53.3,40.2z"/>
<path class="st4" d="M53.3,40.2c-0.2,2-1.3,3.5-2.8,4.8c-0.9,0.8-2,1.2-3.1,1.2c-2,0-3.1-1.3-3.1-4.1c0.3-2.3,1.5-4.5,3.9-5.9
	c1.3-0.8,3-0.4,4,0.8c0.3,0.4,0.6,0.9,0.9,1.4C53.4,39,53.4,39.5,53.3,40.2z"/>
</svg>
