<?xml version="1.0" encoding="utf-8"?>
<!-- Generator: Adobe Illustrator 27.0.0, SVG Export Plug-In . SVG Version: 6.00 Build 0)  -->
<svg version="1.1" id="Layer_1" xmlns="http://www.w3.org/2000/svg" xmlns:xlink="http://www.w3.org/1999/xlink" x="0px" y="0px"
	 viewBox="0 0 100 100" style="enable-background:new 0 0 100 100;" xml:space="preserve">
<style type="text/css">
	.st0{fill:url(#SVGID_1_);}
	.st1{fill:#FFFFFF;}
</style>
<g>
	
		<radialGradient id="SVGID_1_" cx="-386.6342" cy="202.2595" r="0.1337" gradientTransform="matrix(800 0 0 800 309325 -161709)" gradientUnits="userSpaceOnUse">
		<stop  offset="0" style="stop-color:#0099FF"/>
		<stop  offset="0.6" style="stop-color:#A033FF"/>
		<stop  offset="0.9" style="stop-color:#FF5280"/>
		<stop  offset="1" style="stop-color:#FF7061"/>
	</radialGradient>
	<path class="st0" d="M50,1.4C22.6,1.4,1.4,21.4,1.4,48.5c0,14.2,5.8,26.4,15.3,34.9c0.8,0.7,1.3,1.7,1.3,2.8l0.3,8.7
		c0.1,2.1,1.9,3.8,4,3.8c0.5,0,1-0.1,1.5-0.3l9.7-4.3c0.8-0.4,1.7-0.4,2.6-0.2c4.4,1.2,9.2,1.9,14.1,1.9c27.4,0,48.6-20.1,48.6-47.2
		S77.4,1.4,50,1.4z"/>
	<path class="st1" d="M20.8,62.3l14.3-22.7c2.1-3.4,6.6-4.4,10.1-2.3c0.2,0.1,0.3,0.2,0.5,0.3L57,46.3c1,0.8,2.5,0.8,3.5,0
		l15.3-11.6c2-1.6,4.7,0.9,3.4,3.1L64.9,60.3c-2.1,3.4-6.6,4.4-10.1,2.3c-0.2-0.1-0.3-0.2-0.5-0.3L43,53.7c-1-0.8-2.5-0.8-3.5,0
		L24.1,65.4C22.1,67,19.4,64.5,20.8,62.3L20.8,62.3z"/>
</g>
</svg>
