<?xml version="1.0" encoding="utf-8"?>
<!-- Generator: Adobe Illustrator 27.0.0, SVG Export Plug-In . SVG Version: 6.00 Build 0)  -->
<svg version="1.1" id="Layer_1" xmlns="http://www.w3.org/2000/svg" xmlns:xlink="http://www.w3.org/1999/xlink" x="0px" y="0px"
	 viewBox="0 0 100 100" style="enable-background:new 0 0 100 100;" xml:space="preserve">
<style type="text/css">
	.st0{fill-rule:evenodd;clip-rule:evenodd;fill:#4460A0;}
	.st1{fill-rule:evenodd;clip-rule:evenodd;fill:#FFFFFF;}
</style>
<g>
	<path class="st0" d="M11.1,0h77.8C95,0,100,5,100,11.1v77.8c0,6.1-5,11.1-11.1,11.1H11.1C5,100,0,95,0,88.9V11.1C0,5,5,0,11.1,0z"
		/>
	<path class="st1" d="M84,18.6v12.9l-7.7,0c-6,0-7.2,2.9-7.2,7v9.3h14.3l-1.9,14.5H69.1V100H54.2V62.3H41.7V47.9h12.5V37.2
		c0-12.4,7.6-19.1,18.6-19.1C78.1,18.1,82.6,18.5,84,18.6z"/>
</g>
</svg>
