<?xml version="1.0" encoding="utf-8"?>
<!-- Generator: Adobe Illustrator 27.0.0, SVG Export Plug-In . SVG Version: 6.00 Build 0)  -->
<svg version="1.1" id="Layer_1" xmlns="http://www.w3.org/2000/svg" xmlns:xlink="http://www.w3.org/1999/xlink" x="0px" y="0px"
	 viewBox="0 0 100 100" style="enable-background:new 0 0 100 100;" xml:space="preserve">
<style type="text/css">
	.st0{fill:#FA005A;}
	.st1{fill:#FFC500;}
</style>
<g>
	<path class="st0" d="M83,48.8L34.8,0.5c-0.2-0.2-0.6-0.4-0.9-0.5c-0.3-0.1-0.7,0-1,0.1c-0.3,0.1-0.6,0.4-0.8,0.7s-0.3,0.6-0.3,1
		v40.6L17.1,27.8c-0.2-0.2-0.6-0.4-0.9-0.5c-0.3-0.1-0.7,0-1,0.1c-0.3,0.1-0.6,0.4-0.8,0.7s-0.3,0.6-0.3,1V71c0,1.3,0.3,2.6,0.8,3.8
		C15.3,76,16,77.1,17,78l19,19c1.9,1.9,4.4,2.9,7.1,2.9H57c2.6,0,5.2-1.1,7.1-2.9l19-19c0.9-0.9,1.7-2,2.2-3.2
		c0.5-1.2,0.8-2.5,0.8-3.8V55.9c0-1.3-0.3-2.6-0.8-3.8C84.7,50.8,84,49.7,83,48.8L83,48.8z"/>
	<path class="st1" d="M68.3,66.5c0,0.8-0.3,1.6-0.9,2.1L52.1,84c-0.3,0.3-0.6,0.5-1,0.7c-0.4,0.2-0.8,0.2-1.1,0.2s-0.8-0.1-1.1-0.2
		c-0.4-0.2-0.7-0.4-1-0.7L32.6,68.6c-0.6-0.6-0.9-1.3-0.9-2.1v-5.9c0-0.4,0.1-0.8,0.2-1.1c0.2-0.4,0.4-0.7,0.7-1l5.5-5.5
		c0.3-0.3,0.6-0.5,1-0.7c0.4-0.2,0.8-0.2,1.1-0.2s0.8,0.1,1.1,0.2c0.4,0.2,0.7,0.4,1,0.7l7.7,7.7l7.7-7.7c0.3-0.3,0.6-0.5,1-0.7
		c0.4-0.2,0.8-0.2,1.1-0.2c0.4,0,0.8,0.1,1.1,0.2c0.4,0.2,0.7,0.4,1,0.7l5.5,5.5c0.3,0.3,0.5,0.6,0.6,1c0.2,0.4,0.2,0.8,0.2,1.1
		V66.5L68.3,66.5z"/>
</g>
</svg>
