<?xml version="1.0" encoding="utf-8"?>
<!-- Generator: Adobe Illustrator 27.0.0, SVG Export Plug-In . SVG Version: 6.00 Build 0)  -->
<svg version="1.1" id="Layer_1" xmlns="http://www.w3.org/2000/svg" xmlns:xlink="http://www.w3.org/1999/xlink" x="0px" y="0px"
	 viewBox="0 0 100 100" style="enable-background:new 0 0 100 100;" xml:space="preserve">
<style type="text/css">
	.st0{fill:#00B22D;}
	.st1{fill:#FFFFFF;}
</style>
<g>
	<circle class="st0" cx="50" cy="50" r="50"/>
	<g>
		<path class="st1" d="M91.1,40.7c0-1.7-1.3-3-2.9-3c-1.6,0-2.9,1.3-2.9,3c0,1.7,1.3,3,2.9,3C89.8,43.7,91.1,42.3,91.1,40.7z
			 M88.2,42.8c-1.1,0-2-1-2-2.2c0-1.2,0.9-2.2,2-2.2c1.2,0,2.1,1,2.1,2.2C90.2,41.9,89.3,42.8,88.2,42.8z"/>
		<path class="st1" d="M88.9,40.9c0.2,0,0.5-0.3,0.5-0.8c0-0.6-0.4-0.9-1-0.9h-1.3v2.8H88v-1h0.2l0.4,1h0.9l-0.5-1
			C89,41,88.9,40.9,88.9,40.9L88.9,40.9z M88.2,40.5H88v-0.7h0.2c0.2,0,0.3,0.1,0.3,0.3C88.5,40.4,88.4,40.5,88.2,40.5z"/>
		<circle class="st1" cx="26.1" cy="40.8" r="2.2"/>
		<path class="st1" d="M28.5,44.5H18.2v-0.7c0-1.3,1.3-1.3,2-1.3c0.8,0,1.1,0.1,1.1,0.1v-3.7c0,0-0.7-0.1-1.6-0.1
			c-2.1,0-6.1,0.6-6.1,5.2v0.6h-1.9v3.4h1.9V55h-1.8v3.4h8.4V55h-2v-7.1h5.6V55h-1.8v3.4h8.2V55h-1.8V44.5z M46,44.5h-7.4v3.4h1.2
			l-1.6,5c-0.3,0.8-0.4,1.8-0.4,1.8h-0.1c0,0-0.1-1-0.4-1.8l-1.6-5h1.2v-3.4h-7.4v3.4h1.5l3.8,10.5h5.5l3.8-10.5H46V44.5z
			 M59.7,50.8c0-3.8-2.3-6.7-6.5-6.7c-4.5,0-7.2,3.2-7.2,7.2c0,3.7,2.7,7.3,7.6,7.3c3.8,0,6-2,6-2l-1.7-3.2c0,0-1.8,1.3-3.9,1.3
			c-1.5,0-2.9-0.8-3.2-2.5h8.8C59.5,52.2,59.6,51.3,59.7,50.8L59.7,50.8z M50.9,49.7c0.2-1.1,0.9-2,2.2-2c1,0,1.8,1,1.8,2H50.9z
			 M79.4,47.7L79.4,47.7c-0.1,0,0-0.3,0-0.7v-0.7c0-1.3-0.7-1.8-2-1.8H73v3.4h1.3c0.4,0,0.6,0.2,0.6,0.6V55h-1.9v3.4h8.4V55h-1.9v-2
			c0-2.5,1.2-4.2,3.8-4.2c0.6,0,0.9,0.1,0.9,0.1v-4.6c0,0-0.3,0-0.6,0C81.7,44.2,80,45.8,79.4,47.7L79.4,47.7z M67.1,47.7L67.1,47.7
			c-0.1,0,0-0.3,0-0.7v-0.7c0-1.3-0.7-1.8-2-1.8h-4.4v3.4H62c0.4,0,0.6,0.2,0.6,0.6V55h-1.9v3.4h8.4V55h-1.9v-2
			c0-2.5,1.2-4.2,3.8-4.2c0.6,0,0.9,0.1,0.9,0.1v-4.6c0,0-0.3,0-0.6,0C69.4,44.2,67.6,45.8,67.1,47.7L67.1,47.7z"/>
	</g>
</g>
</svg>
