<?xml version="1.0" encoding="utf-8"?>
<!-- Generator: Adobe Illustrator 27.0.0, SVG Export Plug-In . SVG Version: 6.00 Build 0)  -->
<svg version="1.1" id="Layer_1" xmlns="http://www.w3.org/2000/svg" xmlns:xlink="http://www.w3.org/1999/xlink" x="0px" y="0px"
	 viewBox="0 0 100 100" style="enable-background:new 0 0 100 100;" xml:space="preserve">
<style type="text/css">
	.st0{fill:none;}
	.st1{fill-rule:evenodd;clip-rule:evenodd;fill:#FA4778;}
</style>
<g id="_x35__stroke">
	<g id="Foursquare_1_">
		<rect class="st0" width="100" height="100"/>
		<path id="Foursquare" class="st1" d="M76.7,0H24c-7.2,0-9.4,5.5-9.4,9v84.7c0,4.2,2.1,5.4,3.2,5.9c1.2,0.5,4.2,0.8,6.4-1.4
			c0,0,25-29.5,25.4-30c0.4-0.5,0.6-0.5,0.9-0.5h15.8c6.8,0,8.1-4.7,8.8-7.6c0.6-2.4,7.6-36.6,9.7-47.4C86.5,4.4,84.4,0,76.7,0
			 M73.6,14.4L71.2,26c-0.3,1.2-1.4,2.3-2.8,2.3H47.8c-2.3,0-4.2,1.9-4.2,4.2v2.5c0,2.3,1.9,4.2,4.2,4.2h17.4c1.6,0,3,1.6,2.6,3.3
			c-0.3,1.8-2.2,10.8-2.4,11.8c-0.1,1-1.2,2.3-2.8,2.3H48.4c-3,0.1-3.6,0.1-5.3,2.3C41.3,61.2,25.8,81,25.8,81
			c-0.1,0.2-0.3,0.1-0.3-0.1v-67c0-1.6,1.3-2.9,2.8-2.9H71C72.5,11,74,12.5,73.6,14.4"/>
	</g>
</g>
</svg>
