<?xml version="1.0" encoding="utf-8"?>
<!-- Generator: Adobe Illustrator 27.0.0, SVG Export Plug-In . SVG Version: 6.00 Build 0)  -->
<svg version="1.1" id="Layer_1" xmlns="http://www.w3.org/2000/svg" xmlns:xlink="http://www.w3.org/1999/xlink" x="0px" y="0px"
	 viewBox="0 0 100 100" style="enable-background:new 0 0 100 100;" xml:space="preserve">
<style type="text/css">
	.st0{fill:#96CA00;}
</style>
<path class="st0" d="M39,25.6c-3.2-0.7-6.6-2-17.9-7.9C6.2,10,2.9,9.5,1,12.6c-2.6,4.1-0.2,14.6,10,33.9c6.7,12.6,17.2,28.8,19.1,31
	c0.4,0.5,0.9,0.5,1.3,0.3c0.5-0.2,0.6-0.6,0.3-1.3c-1.5-2.9-7.1-14.3-9.5-20.1c-5.9-14.1-7.2-18.9-5.2-20c0.5-0.3,1.3-0.1,2.9,0.8
	c5.7,3,18.1,12.6,20.3,19.3c0.9,2.9,1.4,6.3,1.6,18.3c0.3,15.8,1.5,18.8,5.3,18.8c5.1,0,13.7-7.1,26.5-25
	C82.1,56.8,91.9,40.2,93,37.6c0.2-0.6,0-1-0.4-1.2c-0.5-0.3-0.9-0.2-1.3,0.4c-1.9,2.7-9.7,12.8-14,17.7c-10.2,11.8-14,15.3-16,14.2
	c-0.5-0.3-0.7-1-0.7-2.7c0-6.1,2.7-20.9,7.8-26c2.2-2.2,5.2-4.3,16.2-10.5c11.6-6.4,15.3-9.3,15.4-11.8v-0.2c0-0.6-0.2-1.1-0.6-1.7
	C96.8,11.8,85.9,8.4,62.8,7C47.7,6.1,27.4,6.5,24.4,6.9c-0.7,0.1-1,0.5-1,0.9c0,0.5,0.3,0.8,1,0.8C28,8.9,41.3,10.1,48,11.1
	c16.1,2.3,21.2,3.7,21.2,5.8c0,0.6-0.6,1.1-2.2,2C61.4,21.9,46.2,27.1,39,25.6L39,25.6z"/>
</svg>
