<?xml version="1.0" encoding="utf-8"?>
<!-- Generator: Adobe Illustrator 27.0.0, SVG Export Plug-In . SVG Version: 6.00 Build 0)  -->
<svg version="1.1" id="Layer_1" xmlns="http://www.w3.org/2000/svg" xmlns:xlink="http://www.w3.org/1999/xlink" x="0px" y="0px"
	 viewBox="0 0 100 100" style="enable-background:new 0 0 100 100;" xml:space="preserve">
<style type="text/css">
	.st0{fill:#472D8E;}
</style>
<path class="st0" d="M61.1,1.2C38.2-3.9,14.7,7.5,4.8,28.5c-11.7,24.8-1.5,54.2,23,66.4c4.9,2.4,9.9,4,15.6,4.8h0
	c3.4,0.5,11.8,0.3,15-0.3c10.5-1.9,18.8-6.1,26.1-13.2c4.9-4.7,7.6-8.4,10.4-13.9c2.6-5.1,4.2-10.6,4.9-16.2
	c0.5-4.1,0.2-12.4-0.6-16.1C95,20.5,80.3,5.5,61.1,1.2z M68.9,69.1c-0.8,2.3-2.5,4.9-4.3,6.7c-1.9,1.8-5.9,3.8-8.9,4.4h0
	c-2.7,0.5-8.6,0.5-11,0c-4.1-0.9-7.3-2.7-9.8-5.4c-1.6-1.8-3.4-5.1-3.7-6.8L31,66.9h19.2c10.6,0,19.2,0.1,19.2,0.2
	C69.5,67.3,69.2,68.2,68.9,69.1z"/>
</svg>
