<?xml version="1.0" encoding="utf-8"?>
<!-- Generator: Adobe Illustrator 27.0.0, SVG Export Plug-In . SVG Version: 6.00 Build 0)  -->
<svg version="1.1" id="Layer_1" xmlns="http://www.w3.org/2000/svg" xmlns:xlink="http://www.w3.org/1999/xlink" x="0px" y="0px"
	 viewBox="0 0 100 100" style="enable-background:new 0 0 100 100;" xml:space="preserve">
<style type="text/css">
	.st0{fill:#F7F7F7;}
	.st1{fill-rule:evenodd;clip-rule:evenodd;fill:#24292F;}
</style>
<circle class="st0" cx="50" cy="50" r="48.1"/>
<path class="st1" d="M50,5.7C25.7,5.7,6,25.6,6,50.1c0,19.6,12.6,36.2,30.1,42.1c2.2,0.4,3-1,3-2.1c0-1-0.1-4.6-0.1-8.2
	c-12.2,2.6-14.8-5.3-14.8-5.3c-2-5.1-4.9-6.5-4.9-6.5c-4-2.7,0.3-2.7,0.3-2.7c4.4,0.3,6.8,4.6,6.8,4.6c3.9,6.8,10.3,4.8,12.8,3.7
	c0.4-2.9,1.5-4.8,2.8-5.9c-9.8-1-20-4.8-20-21.9c0-4.8,1.7-8.8,4.5-11.9c-0.4-1.1-2-5.7,0.4-11.8c0,0,3.7-1.2,12.1,4.6
	c3.6-1,7.3-1.5,11-1.5c3.7,0,7.5,0.5,11,1.5c8.4-5.7,12.1-4.6,12.1-4.6c2.4,6.1,0.9,10.6,0.4,11.8c2.8,3.1,4.5,7,4.5,11.9
	c0,17-10.3,20.8-20.1,21.9c1.6,1.4,3,4,3,8.2c0,5.9-0.1,10.7-0.1,12.2c0,1.2,0.8,2.6,3,2.1C81.4,86.3,94,69.7,94,50.1
	C94.1,25.6,74.3,5.7,50,5.7z"/>
</svg>
