<?xml version="1.0" encoding="utf-8"?>
<!-- Generator: Adobe Illustrator 27.0.0, SVG Export Plug-In . SVG Version: 6.00 Build 0)  -->
<svg version="1.1" id="Layer_1" xmlns="http://www.w3.org/2000/svg" xmlns:xlink="http://www.w3.org/1999/xlink" x="0px" y="0px"
	 viewBox="0 0 100 100" style="enable-background:new 0 0 100 100;" xml:space="preserve">
<style type="text/css">
	.st0{fill:#F7F7F7;}
	.st1{fill:#E24329;}
	.st2{fill:#FC6D26;}
	.st3{fill:#FCA326;}
</style>
<circle class="st0" cx="50" cy="50" r="48.1"/>
<g id="LOGO">
	<path class="st1" d="M85.2,46.4l-0.1-0.3l-9.9-25.8c-0.2-0.5-0.6-0.9-1-1.2c-0.9-0.6-2.2-0.5-3,0.2c-0.4,0.3-0.7,0.8-0.9,1.3
		L63.5,41H36.5l-6.7-20.5c-0.1-0.5-0.5-1-0.9-1.3c-0.9-0.7-2.1-0.7-3-0.2c-0.5,0.3-0.8,0.7-1,1.2l-9.9,25.8l-0.1,0.3
		c-2.9,7.6-0.4,16.3,6.1,21.2l0,0l0.1,0.1L36.1,79l7.5,5.6l4.5,3.4c1.1,0.8,2.6,0.8,3.7,0l4.5-3.4l7.5-5.6L79,67.6l0,0
		C85.6,62.7,88.1,54,85.2,46.4z"/>
	<path class="st2" d="M85.2,46.4l-0.1-0.3c-4.8,1-9.4,3-13.3,6L50,68.5C57.4,74.1,63.9,79,63.9,79L79,67.7l0,0
		C85.6,62.7,88.1,54,85.2,46.4z"/>
	<path class="st3" d="M36.1,79l7.5,5.6l4.5,3.4c1.1,0.8,2.6,0.8,3.7,0l4.5-3.4l7.5-5.6c0,0-6.5-4.9-13.9-10.5
		C42.6,74.1,36.1,79,36.1,79z"/>
	<path class="st2" d="M28.3,52.1c-3.9-3-8.5-5-13.3-6l-0.1,0.3c-2.9,7.6-0.4,16.3,6.1,21.2l0,0l0.1,0.1L36.1,79
		c0,0,6.4-4.9,13.9-10.5L28.3,52.1z"/>
</g>
</svg>
