<?xml version="1.0" encoding="utf-8"?>
<!-- Generator: Adobe Illustrator 27.0.0, SVG Export Plug-In . SVG Version: 6.00 Build 0)  -->
<svg version="1.1" id="Layer_1" xmlns="http://www.w3.org/2000/svg" xmlns:xlink="http://www.w3.org/1999/xlink" x="0px" y="0px"
	 viewBox="0 0 100 100" style="enable-background:new 0 0 100 100;" xml:space="preserve">
<style type="text/css">
	.st0{fill:#F7F7F7;}
	.st1{fill:#00B964;}
</style>
<path class="st0" d="M88.3,71.7H11.7c-4.3,0-7.7-3.5-7.7-7.7V36.1c0-4.3,3.5-7.7,7.7-7.7h76.6c4.3,0,7.7,3.5,7.7,7.7v27.9
	C96,68.2,92.6,71.7,88.3,71.7z"/>
<g id="layer1" transform="translate(13.263143,-150.74099)">
	<g id="g4349" transform="translate(0.13229235,-0.13228852)">
		<path id="path3843" class="st1" d="M76,199.7c0.1-0.2,0.2-0.5,0.3-0.7c0-0.1,0.2-0.1,0.3-0.1c0.1,0,0,0.1,0,0.1c0,0.4,0,0.8,0,1.2
			c0,0.1,0,0.1-0.1,0.1c-0.1,0-0.1,0-0.1-0.1c0-0.3,0-0.6,0-0.9c0,0,0-0.1,0-0.2c-0.1,0.2-0.2,0.4-0.3,0.6c0,0.1,0,0.1-0.1,0.1
			c-0.1,0-0.1,0-0.1-0.1c-0.1-0.2-0.2-0.3-0.2-0.5c0,0,0-0.1-0.1-0.1c0,0.1,0,0.1,0,0.2c0,0.3,0,0.5,0,0.8c0,0.1,0,0.1-0.1,0.1
			c-0.1,0-0.1,0-0.1-0.1c0-0.4,0-0.8,0-1.2c0-0.1,0-0.1,0.1-0.1c0.1,0,0.2-0.1,0.2,0.1C75.7,199.2,75.8,199.4,76,199.7
			C76,199.7,76,199.7,76,199.7L76,199.7z"/>
		<path id="path3845" class="st1" d="M74.5,199.8c0-0.2,0-0.3,0-0.5c0-0.1,0-0.2-0.2-0.2c-0.1,0-0.1,0-0.2,0c-0.1,0-0.1,0-0.1-0.1
			c0-0.1,0-0.1,0.1-0.1c0.3,0,0.6,0,0.9,0c0.1,0,0.1,0,0.1,0.1c0,0.1,0,0.1-0.1,0.1c-0.1,0-0.2,0-0.2,0c-0.1,0-0.1,0-0.1,0.1
			c0,0.3,0,0.7,0,1c0,0.1,0,0.1-0.1,0.1c-0.1,0-0.1-0.1-0.1-0.1C74.5,200.1,74.5,199.9,74.5,199.8L74.5,199.8z"/>
		<path id="path3847" class="st1" d="M56,202.9c0.2-0.2,0.4-0.4,0.7-0.5c0.7-0.4,1.4-0.5,2.1-0.5c0.4,0,0.7,0.1,1,0.3
			c0.5,0.2,0.8,0.5,1.1,1c0,0.1,0.1,0.1,0.1,0c0.5-0.7,1.2-1.1,2-1.2c0.8-0.1,1.6,0.1,2.3,0.6c0.3,0.3,0.5,0.7,0.6,1.1
			c0,0.3,0.1,0.6,0.1,0.9c0,1.5,0,3,0,4.5c0,0.1,0,0.2-0.2,0.2c-0.8,0-1.6,0-2.4,0c-0.1,0-0.1,0-0.1-0.1c0-1.2,0-2.3,0-3.5
			c0-0.3,0-0.6-0.1-0.8c-0.2-1-1.3-1-1.8-0.5c-0.3,0.3-0.4,0.6-0.4,1c0,0.3,0,0.7,0,1c0,1,0,1.9,0,2.9c0,0.1,0,0.1-0.1,0.1
			c-0.8,0-1.6,0-2.4,0c-0.1,0-0.1,0-0.1-0.1c0-1.2,0-2.4,0-3.6c0-0.2,0-0.5-0.1-0.7c-0.1-0.4-0.4-0.7-0.8-0.8
			c-0.5-0.1-1,0.1-1.3,0.5c-0.2,0.3-0.2,0.5-0.2,0.8c0,1.3,0,2.5,0,3.8c0,0.1,0,0.2-0.2,0.2c-0.8,0-1.6,0-2.4,0
			c-0.1,0-0.1,0-0.1-0.1c0-2.3,0-4.6,0-6.9c0-0.1,0-0.1,0.1-0.1c0.8,0,1.6,0,2.4,0c0.1,0,0.1,0,0.1,0.1C56,202.4,56,202.7,56,202.9
			L56,202.9z"/>
		<path id="path3849" class="st1" d="M48,208.5c-0.2,0.2-0.3,0.3-0.5,0.4c-0.4,0.3-0.9,0.4-1.4,0.5c-0.8,0.1-1.5,0-2.2-0.4
			c-1.1-0.6-1.8-1.5-2-2.7c-0.2-1,0-2,0.5-2.8c0.6-0.9,1.5-1.5,2.6-1.6c0.8-0.1,1.6,0,2.3,0.4c0.2,0.1,0.3,0.3,0.5,0.4
			c0-0.1,0-0.1,0-0.2c0-1.6,0-3.2,0-4.8c0-0.1,0-0.2,0.2-0.2c0.8,0,1.6,0,2.4,0c0.1,0,0.1,0,0.1,0.1c0,3.8,0,7.6,0,11.4
			c0,0.1,0,0.1-0.1,0.1c-0.8,0-1.6,0-2.4,0c-0.1,0-0.1,0-0.1-0.1C48,208.9,48,208.7,48,208.5L48,208.5z M46.4,207.2
			c0.1,0,0.2,0,0.3,0c1-0.1,1.6-1.1,1.3-2.1c-0.3-1.1-1.6-1.5-2.5-0.9c-0.7,0.4-0.8,1-0.7,1.6C44.9,206.7,45.6,207.3,46.4,207.2
			L46.4,207.2z"/>
		<path id="path3851" class="st1" d="M10.3,201.8c1,0,1.7,0.1,2.5,0.5c1,0.5,1.7,1.4,2,2.5c0.4,1.8-0.5,3.4-2.1,4.2
			c-0.6,0.3-1.2,0.4-1.8,0.4c-0.7,0-1.3,0-2-0.2c-1.2-0.3-2.1-1-2.6-2.2c-0.6-1.3-0.4-2.8,0.6-4c0.7-0.7,1.5-1.1,2.4-1.3
			C9.6,201.8,10,201.8,10.3,201.8L10.3,201.8z M10.3,204c-0.1,0-0.3,0-0.4,0c-1,0.2-1.7,1.3-1.2,2.4c0.4,0.7,1.1,1.1,1.9,0.9
			c0.9-0.2,1.5-1.1,1.3-2C11.9,204.6,11.2,203.9,10.3,204L10.3,204L10.3,204z"/>
		<path id="path3853" class="st1" d="M35.3,202.9c0.2-0.2,0.4-0.4,0.6-0.6c0.4-0.3,0.8-0.4,1.3-0.4c0.6-0.1,1.2,0,1.7,0.2
			c0.9,0.3,1.3,1,1.5,1.9c0,0.2,0.1,0.5,0.1,0.7c0,1.5,0,2.9,0,4.4c0,0.1,0,0.1-0.1,0.1c-0.8,0-1.6,0-2.4,0c-0.1,0-0.2,0-0.2-0.2
			c0-1.2,0-2.4,0-3.6c0-0.3,0-0.5-0.1-0.7c-0.1-0.4-0.4-0.7-0.8-0.8c-0.5-0.1-1,0-1.4,0.4c-0.2,0.2-0.2,0.5-0.3,0.7
			c0,0.3,0,0.6,0,0.9c0,1,0,2.1,0,3.1c0,0.1,0,0.1-0.1,0.1c-0.8,0-1.6,0-2.4,0c-0.1,0-0.1,0-0.1-0.1c0-2.3,0-4.6,0-6.9
			c0-0.1,0-0.1,0.1-0.1c0.8,0,1.6,0,2.4,0c0.1,0,0.1,0,0.1,0.1C35.3,202.4,35.3,202.7,35.3,202.9L35.3,202.9z"/>
		<path id="path3855" class="st1" d="M30.9,204.5c0,0.8,0,1.5,0,2.3c0,1-0.5,1.7-1.3,2.2c-0.5,0.3-1.1,0.4-1.7,0.5
			c-0.5,0.1-0.9,0.1-1.4,0c-0.8,0-1.7-0.2-2.4-0.6c-0.7-0.4-1.1-1.1-1.2-1.9c0-0.2,0-0.4,0-0.6c0-1.4,0-2.8,0-4.2
			c0-0.1,0-0.2,0.1-0.2c0.8,0,1.6,0,2.4,0c0.1,0,0.2,0,0.2,0.1c0,1.3,0,2.6,0,4c0,0.2,0,0.4,0.1,0.6c0.2,0.4,0.4,0.5,0.8,0.6
			c0.3,0.1,0.7,0.1,1,0c0.4-0.2,0.7-0.5,0.7-0.9c0-0.2,0-0.4,0-0.6c0-1.2,0-2.4,0-3.6c0-0.1,0-0.1,0.1-0.1c0.8,0,1.6,0,2.4,0
			c0.1,0,0.1,0,0.1,0.1C30.9,203,30.9,203.7,30.9,204.5L30.9,204.5L30.9,204.5z"/>
		<path id="path3857" class="st1" d="M73,206.1h-2.6c-0.2,0-0.2,0-0.1,0.2c0,0.1,0,0.3,0.1,0.4c0.1,0.5,0.4,0.8,0.8,0.9
			c0.4,0.1,0.8,0.1,1.2,0c0.3-0.1,0.5-0.3,0.7-0.5c0.1-0.1,0.1-0.1,0.2-0.1c0.8,0,1.5,0,2.3,0c0.1,0,0.1,0,0.1,0.1
			c-0.4,1.2-1.3,1.9-2.4,2.2c-0.4,0.1-0.8,0.1-1.2,0.1c-0.7,0-1.4,0-2-0.3c-1.3-0.5-2.1-1.4-2.3-2.7c-0.2-1-0.1-2,0.5-2.9
			c0.4-0.7,1.1-1.2,1.8-1.4c1.1-0.3,2.1-0.4,3.2-0.1c1.3,0.4,2.1,1.3,2.4,2.6c0.1,0.5,0.1,0.9,0.1,1.4c0,0.1-0.1,0.1-0.1,0.1
			L73,206.1L73,206.1z M71.8,204.7c0.5,0,0.9,0,1.4,0c0.1,0,0.1,0,0.1-0.1c-0.1-0.4-0.3-0.7-0.6-0.9c-0.3-0.2-0.7-0.3-1-0.2
			c-0.7,0-1.2,0.5-1.3,1.1c0,0.1,0,0.1,0.1,0.1C70.9,204.7,71.3,204.7,71.8,204.7z"/>
		<path id="path3859" class="st1" d="M17.4,206.7c0-0.8,0-1.6,0-2.4c0-0.1,0-0.1-0.1-0.1c-0.2,0-0.5,0-0.7,0c-0.1,0-0.1,0-0.1-0.1
			c0-0.6,0-1.3,0-1.9c0-0.1,0-0.1,0.1-0.1c0.2,0,0.5,0,0.7,0c0.1,0,0.1,0,0.1-0.1c0-0.3,0-0.6,0-0.9c0-0.7,0.1-1.3,0.5-1.9
			c0.5-0.7,1.2-1.2,2.1-1.4c0.6-0.1,1.2-0.1,1.8,0.1c0.1,0,0.1,0.1,0.1,0.2c0,0.6,0,1.3,0,1.9c0,0.2,0,0.2-0.2,0.1
			c-0.3-0.1-0.6-0.2-0.9-0.2c-0.4,0-0.7,0.3-0.8,0.8c0,0.5,0,0.9,0,1.4c0,0.1,0,0.1,0.1,0.1c0.5,0,1.1,0,1.6,0c0.1,0,0.1,0,0.1,0.1
			c0,0.6,0,1.2,0,1.8c0,0.1,0,0.2-0.1,0.1c-0.5,0-1,0-1.5,0c-0.2,0-0.2,0-0.2,0.2c0,1.6,0,3.1,0,4.7c0,0.2,0,0.2-0.2,0.2
			c-0.8,0-1.6,0-2.4,0c-0.1,0-0.1,0-0.1-0.1C17.4,208.3,17.4,207.5,17.4,206.7L17.4,206.7z"/>
		<path id="path3861" class="st1" d="M77.2,191c-0.5-0.6-1.7-0.8-2.4-0.4c-0.2,0.1-0.3,0.1-0.5,0.2l-4.4,3.2c-0.3,0.3-0.6,0.6-0.6,1
			c0,0.4,0,0.7,0.3,1c0.7,0.7,2,0.8,2.7,0.4c0.6-0.3,4.3-3.1,4.9-3.6l0.2-0.2C77.4,192.4,77.8,191.7,77.2,191L77.2,191z"/>
		<path id="path3863" class="st1" d="M58.5,195.9c0.3-0.3,0.4-0.6,0.3-1c0-0.4-0.3-0.7-0.6-1l-4.4-3.2c-0.1-0.1-0.3-0.2-0.5-0.2
			c-0.7-0.3-1.9-0.2-2.4,0.4c-0.6,0.7-0.3,1.4-0.1,1.7l0.2,0.2c0.6,0.5,4.4,3.2,4.9,3.6C56.5,196.7,57.8,196.7,58.5,195.9
			L58.5,195.9z"/>
		<path id="path3865" class="st1" d="M64,195.1c0.9,0,1.7-0.4,2-1.2c0-0.1,0-0.2,0-0.3l0-2.9c0,0,0,0,0-0.1c0-1.1-0.9-1.6-2-1.6
			c-1.1,0-2,0.6-2,1.7l0,2.9c0,0.1,0,0.2,0,0.3C62.2,194.7,63.1,195.1,64,195.1L64,195.1z"/>
		<path id="path3867" class="st1" d="M69.9,197.3c-1.5-0.7-3.5-1.2-6.1-1.2c-4.4,0-7.3,1.4-8.8,3.4h0l0,0l17.5,0
			C72,198.6,71.1,197.8,69.9,197.3L69.9,197.3z"/>
		<path id="path3869" class="st1" d="M1.7,208.4c-0.1,0.1-0.2,0.2-0.3,0.3c-0.5,0.4-1,0.6-1.6,0.6c-0.9,0.1-1.7-0.1-2.4-0.5
			c-0.9-0.6-1.4-1.4-1.5-2.4c-0.1-0.9,0-1.7,0.4-2.5c0.6-1.1,1.5-1.8,2.8-2c0.7-0.1,1.3,0,1.9,0.2c0.3,0.1,0.5,0.3,0.7,0.5
			c0,0,0.1,0.1,0.1,0.1l0,0c0-0.2,0-0.4,0-0.6c0-0.1,0-0.1,0.1-0.1c0.8,0,1.6,0,2.4,0c0.1,0,0.1,0,0.1,0.1c0,2.3,0,4.7,0,7
			c0,0.5-0.1,1.1-0.3,1.6c-0.4,0.7-1,1.2-1.7,1.6c-0.6,0.3-1.2,0.4-1.8,0.4c-0.8,0-1.6,0-2.3-0.3c-0.9-0.3-1.7-0.9-2.2-1.8
			c-0.1-0.2-0.1-0.3-0.2-0.5c0-0.1,0-0.1,0.1-0.1c0.7,0,1.3,0,2,0c0.3,0,0.5,0,0.8,0c0.1,0,0.1,0,0.1,0.1c0.2,0.4,0.5,0.6,0.9,0.7
			c0.4,0.1,0.8,0,1.2-0.2c0.5-0.3,0.7-0.7,0.8-1.2C1.7,209.1,1.7,208.7,1.7,208.4L1.7,208.4z M0.1,207.3c0.9,0,1.7-0.7,1.7-1.7
			c0-0.9-0.7-1.7-1.7-1.7c-1,0-1.7,0.9-1.7,1.7C-1.6,206.5-0.8,207.3,0.1,207.3z"/>
	</g>
</g>
</svg>
