<?xml version="1.0" encoding="utf-8"?>
<!-- Generator: Adobe Illustrator 27.5.0, SVG Export Plug-In . SVG Version: 6.00 Build 0)  -->
<svg version="1.1" id="Layer_1" xmlns="http://www.w3.org/2000/svg" xmlns:xlink="http://www.w3.org/1999/xlink" x="0px" y="0px"
	 viewBox="0 0 100 100" style="enable-background:new 0 0 100 100;" xml:space="preserve">
<style type="text/css">
	.st0{fill:#F9F9F9;}
	.st1{fill:#CC3333;}
</style>
<path class="st0" d="M86.9,100H13.1C5.9,100,0,94.1,0,86.9V13.1C0,5.9,5.9,0,13.1,0H87c7.1,0,13,5.9,13,13.1V87
	C100,94.1,94.1,100,86.9,100z"/>
<g>
	<path class="st1" d="M32.1,27.5c-0.3,0.1-0.5,0-0.8,0.1c0,0,0,0.1,0,0.1c0.3,0.1,0.5,0.3,0.8,0.4c1.1,0.5,2.3,0.8,3.1,1.7
		c0.9,1,1.4,2.1,1.4,3.5c0,0.5-0.1,0.9-0.3,1.3c-0.5,1.1-1.4,1.7-2.6,2c-0.4,0.1-0.9,0-1.3-0.2c-0.6-0.3-1-0.7-1.3-1.2
		c-0.4-0.6-0.4-1.3,0-1.9c0.1-0.2,0.3-0.4,0.4-0.6c0.2-0.2,0.1-0.5-0.2-0.6c-0.6-0.2-1.2-0.3-1.8-0.1c-0.8,0.2-1.3,0.6-1.6,1.4
		c-0.1,0.3-0.2,0.7-0.3,1c-0.1,0.2,0,0.4,0.2,0.6c0.3,0.3,0.7,0.6,1,0.8c1.6,1.4,2.5,3.2,2.9,5.3c0.2,1.3,0.1,2.6-0.2,3.9
		c-0.3,1.4-1,2.6-1.9,3.6c-0.7,0.8-1.7,1.4-2.6,1.9c-1.3,0.7-2.6,1.1-4,1.3c-0.5,0.1-1,0.2-1.5,0.2c-1.1,0-2.3-0.1-3.4-0.4
		c-1-0.2-1.9-0.6-2.8-0.9c-0.4-0.1-0.9-0.3-1.3-0.4c-0.5-0.1-0.9,0.1-1.2,0.5c-0.3,0.4-0.5,0.7-0.5,1.2c0,0.6,0.3,1.1,0.7,1.4
		c0.5,0.4,1,0.5,1.6,0.6c0.7,0.1,1.4,0.2,2.1,0.2c1.4,0,2.7,0,4.1,0c1.4,0.1,2.7,0.1,4.1,0.4c0.7,0.1,1.4,0.2,2.1,0.4
		c2,0.5,3.8,1.3,5.4,2.6c1.5,1.3,2.4,2.9,2.6,4.9c0.1,0.6,0,1.2-0.1,1.8c-0.1,0.6-0.2,1.2-0.5,1.8c-0.7,1.4-1.6,2.5-2.9,3.3
		c-1.2,0.7-2.4,1.3-3.8,1.7c-1.2,0.3-2.3,0.6-3.5,0.8c-0.3,0-0.7,0.1-1,0c0,0,0,0,0,0c-0.5,0.2-1.1,0.1-1.7,0.2
		c-0.1,0-0.2,0-0.2,0.1c0.1,0.1,0.2,0.1,0.3,0.1c1.1,0,2.2,0.1,3.3,0.2c0,0,0.1,0,0.1,0c-2.6,0-5.3,0-7.9,0c0,0,0.1,0,0.1,0
		c0.8-0.1,1.6-0.1,2.5-0.2c0.2,0,0.4,0,0.6,0c0,0,0,0,0-0.1c-0.3,0-0.5-0.1-0.8-0.1C18.6,72,18,72,17.4,72c-1.2-0.2-2.3-0.4-3.5-0.6
		c-0.7-0.1-1.3-0.4-2-0.7C10.5,70,9.2,69.2,8.2,68c-0.3-0.4-0.6-0.8-0.8-1.2c-0.3-0.7-0.6-1.4-0.9-2.2c0-0.2-0.1-0.3-0.2-0.4
		c0-0.7,0-1.3,0-2c0.1,0.3,0,0.5,0.1,0.8c0.1,0,0.1-0.1,0.1-0.1c0.1-0.7,0.4-1.3,0.7-1.9c0.4-1.1,1.2-2,2.1-2.7
		c0.4-0.3,0.8-0.6,1.3-0.8c0.2-0.1,0.4-0.3,0.5-0.5c0-0.1-0.1-0.1-0.1-0.1c-0.5-0.1-0.9-0.4-1.3-0.6c-0.8-0.5-1.5-1.1-1.9-2
		C7.1,53,7,51.6,7.4,50.2c0.4-1.3,1.3-2.2,2.4-3c0.4-0.3,0.9-0.5,1.3-0.7c0.3-0.1,0.3-0.3,0.2-0.6c-1-1.6-1.3-3.3-1.1-5.2
		c0.3-1.9,1.1-3.6,2.6-4.9c0.8-0.8,1.7-1.4,2.8-1.9c0.8-0.4,1.7-0.6,2.6-0.9c1.3-0.3,2.6-0.4,4-0.2c0.5,0.1,1,0.1,1.5,0.1
		c0,0,0,0,0,0c0-1.2,0.5-2.2,1.3-3c1-1.1,2.3-1.6,3.7-2c0.2-0.1,0.3-0.2,0.4-0.3c-0.1,0-0.2-0.1-0.3,0c-0.2,0-0.4,0-0.6-0.1
		C29.4,27.5,30.8,27.5,32.1,27.5z M20.8,67.8c0.7,0,1.6,0,2.4-0.1c1.3-0.2,2.5-0.4,3.6-1c0.5-0.3,1.1-0.5,1.5-0.9
		c0.7-0.6,1.1-1.4,1.1-2.4c0-0.8-0.3-1.5-0.7-2.1c-0.6-0.7-1.3-1.2-2.2-1.5c-1.6-0.6-3.3-0.8-5-0.9c-1.2,0-2.4,0-3.5,0.2
		c-1,0.1-2,0.3-2.9,0.6c-1.2,0.5-2.2,1.1-2.8,2.3c-0.3,0.7-0.5,1.4-0.2,2.1c0.3,1,1,1.7,1.9,2.2c1.1,0.7,2.4,1.1,3.7,1.3
		C18.6,67.8,19.6,67.8,20.8,67.8z M20.8,47.4c0.1,0,0.3,0,0.4,0c0.2,0,0.4,0,0.6-0.1c1.6-0.2,2.9-0.9,3.9-2.1
		c0.9-1.1,1.2-2.4,0.9-3.8c-0.3-1.4-1.2-2.5-2.4-3.2c-1.4-0.8-2.9-1.1-4.4-0.8c-0.8,0.2-1.6,0.5-2.2,0.9c-1,0.8-1.6,1.7-2,2.9
		c-0.3,1.1-0.1,2.1,0.2,3C16,45,16.4,45.6,17,46C18.1,46.9,19.4,47.3,20.8,47.4z"/>
	<path class="st1" d="M93.7,49.8c-0.1-0.3,0-0.7,0-1c0-0.1,0-0.2,0-0.2c-0.1,0-0.1,0.1-0.1,0.1c0,1-0.3,2-0.6,3
		c-0.2,0.7-0.3,1.4-0.5,2c-0.2,0.8-0.6,1.6-0.9,2.3c-0.8,1.4-1.7,2.7-2.9,3.8c-0.6,0.6-1.4,1-2.1,1.4c-1.3,0.8-2.8,1.3-4.3,1.5
		C81.2,63,80.1,63,79,63c-0.8-0.1-1.6-0.1-2.4-0.3c-1-0.2-1.9-0.6-2.7-1c-1.9-0.9-3.4-2.2-4.5-3.9c-1-1.4-1.7-3-2.1-4.7
		c-0.4-1.6-0.6-3.3-0.6-4.9c0-1.2,0.1-2.4,0.3-3.6c0.3-1.8,0.9-3.5,1.7-5.1c0.8-1.4,1.8-2.6,3-3.7c1-0.8,2.1-1.4,3.2-1.9
		c1.9-0.7,3.8-1.1,5.9-0.9c1.9,0.1,3.7,0.5,5.5,1.3c1.3,0.6,2.4,1.4,3.3,2.5c1.4,1.6,2.4,3.5,3,5.6c0.2,0.7,0.3,1.4,0.5,2.1
		c0.1,0.4,0.2,0.8,0.2,1.2c0,0,0,0,0,0c0.2,0.2,0.3,0.5,0.3,0.9c0.1-0.1,0.1-0.2,0.1-0.3c0-0.5,0-0.9,0-1.4c0-0.1,0-0.2,0-0.3
		C93.7,46.3,93.7,48.1,93.7,49.8z M88.1,47.8c0-0.8,0-1.7-0.1-2.5c-0.1-0.9-0.3-1.8-0.6-2.6c-0.2-0.8-0.6-1.4-1-2.1
		c-0.5-0.9-1.2-1.5-2-2c-0.8-0.5-1.7-0.8-2.6-1c-1.2-0.3-2.4-0.2-3.6,0c-1,0.2-1.9,0.6-2.6,1.2c-1,0.8-1.7,1.8-2.2,2.9
		c-0.6,1.3-1.1,2.7-1.2,4.1c-0.1,0.5-0.1,1-0.2,1.5c0,1.1,0.1,2.3,0.2,3.4c0.2,1.6,0.7,3.1,1.6,4.4c0.5,0.7,1.1,1.4,1.8,2
		c1.1,0.7,2.2,1.3,3.5,1.3c1.4,0.1,2.8-0.1,4.1-0.7c1.1-0.5,2.1-1.2,2.8-2.1c1-1.2,1.5-2.6,1.8-4.1C88.1,50.4,88.2,49.1,88.1,47.8z"
		/>
	<path class="st1" d="M63.4,48.2c0,0.9-0.1,1.8-0.2,2.6c-0.2,1.3-0.5,2.7-1,3.9c-0.6,1.5-1.5,3-2.6,4.2c-1,1.1-2.2,1.9-3.6,2.6
		c-1.3,0.6-2.7,1-4.1,1.3c-1,0.2-2,0.2-3,0.1c-1-0.1-2.1-0.2-3.1-0.5c-0.7-0.2-1.3-0.4-2-0.8c-1.5-0.8-2.8-1.8-3.9-3.1
		c-0.7-0.8-1.2-1.7-1.7-2.7c-0.3-0.6-0.6-1.3-0.8-1.9c-0.3-0.9-0.5-1.8-0.6-2.7c-0.2-1.3-0.3-2.6-0.3-4c0.1-2.6,0.6-5.2,1.8-7.5
		c1.1-2.2,2.7-3.9,4.8-5.1c1.2-0.7,2.5-1.1,3.8-1.4c1.2-0.3,2.5-0.3,3.7-0.2c1.2,0.1,2.3,0.2,3.4,0.6c1.8,0.5,3.5,1.4,4.9,2.8
		c1.5,1.6,2.6,3.4,3.3,5.5c0.3,0.8,0.5,1.7,0.7,2.5c0.2,0.8,0.2,1.7,0.3,2.6C63.4,47.3,63.4,47.8,63.4,48.2z M58.1,48.1
		c0-0.8-0.1-1.7-0.2-2.5c-0.1-0.6-0.1-1.1-0.2-1.7c-0.2-0.9-0.6-1.8-1-2.7c-0.4-0.9-1-1.6-1.7-2.2c-0.8-0.7-1.8-1.1-2.9-1.3
		c-0.6-0.1-1.1-0.3-1.7-0.3c-0.8,0-1.6,0.1-2.4,0.3c-1.4,0.3-2.5,1-3.4,2.1c-1,1.1-1.5,2.4-2,3.8c-0.5,1.3-0.6,2.6-0.6,4
		c0,0.7,0,1.5,0.1,2.2c0.1,1.1,0.2,2.2,0.6,3.3c0.4,1.2,0.9,2.3,1.8,3.3c1.1,1.2,2.5,1.9,4.1,2.2c0.8,0.2,1.7,0.1,2.5,0
		c1-0.1,2-0.5,2.8-1c0.9-0.5,1.6-1.3,2.2-2.1c0.7-0.9,1.2-1.9,1.5-3C57.9,51,58.1,49.6,58.1,48.1z"/>
	<path class="st1" d="M81.6,53.6c0,0.9-0.5,1.7-1.3,2.3c-0.8,0.6-1.7,0.8-2.6,0.7c-0.7-0.1-1.3-0.5-1.8-1c-0.7-0.7-1.1-1.5-1-2.5
		c0-0.6,0.2-1.1,0.5-1.6c0.6-0.8,1.2-1.4,2.2-1.6c1.2-0.3,2.3,0.1,3.1,1C81.2,51.6,81.6,52.5,81.6,53.6z"/>
	<path class="st1" d="M52,53.3c0.1,1.7-1.6,3.4-3.6,3.4c-1.7,0-3.2-1.7-3.2-3.5c0-1.9,1.8-3.3,3.3-3.3C50.4,49.8,52.1,51.5,52,53.3z
		"/>
</g>
</svg>
