<?xml version="1.0" encoding="utf-8"?>
<!-- Generator: Adobe Illustrator 27.0.0, SVG Export Plug-In . SVG Version: 6.00 Build 0)  -->
<svg version="1.1" id="Layer_1" xmlns="http://www.w3.org/2000/svg" xmlns:xlink="http://www.w3.org/1999/xlink" x="0px" y="0px"
	 viewBox="0 0 100 100" style="enable-background:new 0 0 100 100;" xml:space="preserve">
<style type="text/css">
	.st0{fill:#5A471C;}
</style>
<g>
	<path class="st0" d="M61.7,27.8c-1.2-1.8-2.7-3.3-4.6-4.5c-1.9-1.1-4.2-1.7-6.9-1.7s-5,0.6-6.9,1.7s-3.5,2.6-4.8,4.3
		c-1.3,1.8-2.2,3.8-2.7,6.1c-0.6,2.3-0.9,4.7-0.9,7s0.3,4.6,0.9,6.8s1.5,4.2,2.8,5.9s2.8,3.1,4.8,4.1c1.9,1,4.2,1.6,6.8,1.6
		c2.4,0,4.6-0.5,6.5-1.6c1.9-1,3.4-2.4,4.7-4.1s2.2-3.7,2.8-5.9c0.6-2.2,0.9-4.5,0.9-6.8s-0.3-4.5-0.8-6.8
		C63.7,31.7,62.8,29.6,61.7,27.8z"/>
	<path class="st0" d="M89.2,0H10.8C4.8,0,0,4.8,0,10.8v78.4c0,6,4.8,10.8,10.8,10.8h78.4c6,0,10.8-4.8,10.8-10.8V10.8
		C100,4.8,95.2,0,89.2,0z M70.7,60.7c0,3.4-0.4,6.5-1.1,9.2c-0.8,2.7-1.9,5.1-3.5,7s-3.7,3.4-6.3,4.4s-5.8,1.5-9.5,1.5
		c-2.3,0-4.6-0.3-6.8-0.8s-4.2-1.4-6-2.5s-3.2-2.6-4.4-4.3c-1.2-1.8-1.8-3.9-2-6.3h5.7c0.3,1.7,0.9,3.2,1.7,4.4
		c0.9,1.2,1.9,2.1,3.1,2.8s2.6,1.2,4.1,1.6c1.5,0.3,3,0.5,4.6,0.5c5.3,0,9.1-1.5,11.4-4.5c2.3-3,3.5-7.3,3.5-12.9v-6.3H65
		c-1.3,2.9-3.2,5.2-5.8,6.9S53.7,64,50.3,64c-3.7,0-6.9-0.6-9.5-1.8s-4.8-2.9-6.5-5.1c-1.7-2.1-2.9-4.7-3.7-7.6
		c-0.8-2.9-1.2-6-1.2-9.3c0-3.2,0.5-6.2,1.4-9c0.9-2.8,2.3-5.3,4-7.4c1.8-2.1,3.9-3.8,6.5-5s5.6-1.8,8.9-1.8c1.7,0,3.4,0.2,4.9,0.7
		s2.9,1.2,4.2,2c1.3,0.9,2.4,1.9,3.4,3s1.7,2.3,2.3,3.6h0.2v-8h5.7v42.4L70.7,60.7z"/>
</g>
</svg>
