<?xml version="1.0" encoding="utf-8"?>
<!-- Generator: Adobe Illustrator 27.0.0, SVG Export Plug-In . SVG Version: 6.00 Build 0)  -->
<svg version="1.1" id="Layer_1" xmlns="http://www.w3.org/2000/svg" xmlns:xlink="http://www.w3.org/1999/xlink" x="0px" y="0px"
	 viewBox="0 0 100 100" style="enable-background:new 0 0 100 100;" xml:space="preserve">
<style type="text/css">
	.st0{fill:#00832D;}
	.st1{fill:#0066DA;}
	.st2{fill:#E94235;}
	.st3{fill:#2684FC;}
	.st4{fill:#00AC47;}
	.st5{fill:#FFBA00;}
</style>
<g>
	<path class="st0" d="M56.4,50l9.5,10.8L78.6,69l2.2-18.9l-2.2-18.5l-13,7.2L56.4,50z"/>
	<path class="st1" d="M1.3,67.2v16.1c0,3.7,3,6.7,6.7,6.7h16.1l3.3-12.2l-3.3-10.6l-11.1-3.3L1.3,67.2z"/>
	<path class="st2" d="M24.1,10L1.3,32.8l11.7,3.3l11.1-3.3l3.3-10.5L24.1,10z"/>
	<path class="st3" d="M24.1,32.8H1.3v34.5h22.8V32.8z"/>
	<path class="st4" d="M93.2,19.6L78.6,31.6V69l14.6,12c2.2,1.7,5.4,0.2,5.4-2.6V22.2C98.7,19.4,95.4,17.8,93.2,19.6z M56.4,50v17.2
		H24.1V90H72c3.7,0,6.7-3,6.7-6.7V69L56.4,50z"/>
	<path class="st5" d="M72,10H24.1v22.8h32.3V50l22.2-18.4V16.6C78.6,12.9,75.6,10,72,10z"/>
</g>
</svg>
