<?xml version="1.0" encoding="utf-8"?>
<!-- Generator: Adobe Illustrator 27.0.0, SVG Export Plug-In . SVG Version: 6.00 Build 0)  -->
<svg version="1.1" id="Layer_1" xmlns="http://www.w3.org/2000/svg" xmlns:xlink="http://www.w3.org/1999/xlink" x="0px" y="0px"
	 viewBox="0 0 100 100" style="enable-background:new 0 0 100 100;" xml:space="preserve">
<style type="text/css">
	.st0{fill:#34A853;}
	.st1{fill:#FBBC04;}
	.st2{fill:#4285F4;}
	.st3{fill:#1A73E8;}
	.st4{fill:#EA4335;}
</style>
<g>
	<path class="st0" d="M35.2,72.8c2.9,3.6,5.9,8.2,7.4,11c1.9,3.6,2.7,6,4.1,10.4c0.8,2.4,1.6,3.1,3.3,3.1c1.8,0,2.6-1.2,3.3-3.1
		c1.3-4.1,2.3-7.2,3.9-10.2c6.2-11.7,16.3-20,22-31.4c0,0,3.7-7,3.7-16.7c0-9.1-3.7-15.4-3.7-15.4L35.2,72.8L35.2,72.8z"/>
	<path class="st1" d="M20.3,51.4c3.5,8.1,10.3,15.2,14.9,21.4l24.5-29c0,0-3.5,4.5-9.7,4.5c-7,0-12.6-5.5-12.6-12.6
		c0-4.8,2.9-8.2,2.9-8.2C22.2,30.2,23.2,34.6,20.3,51.4L20.3,51.4z"/>
	<path class="st2" d="M60,4.2c8.2,2.6,15.1,8.2,19.2,16.2L59.7,43.8c0,0,2.9-3.4,2.9-8.2c0-7.2-6-12.6-12.6-12.6
		c-6.2,0-9.7,4.5-9.7,4.5C41.8,24.1,57.3,5.4,60,4.2L60,4.2z"/>
	<path class="st3" d="M24.7,14.5C29.6,8.7,38.1,2.7,49.9,2.7c5.7,0,10,1.5,10,1.5L40.3,27.5C39,26.8,26,16.8,24.7,14.5L24.7,14.5z"
		/>
	<path class="st4" d="M20.3,51.4c0,0-3.2-6.4-3.2-15.6c0-8.7,3.4-16.3,7.7-21.3l15.6,13.1L20.3,51.4L20.3,51.4z"/>
</g>
</svg>
