<?xml version="1.0" encoding="utf-8"?>
<!-- Generator: Adobe Illustrator 27.0.0, SVG Export Plug-In . SVG Version: 6.00 Build 0)  -->
<svg version="1.1" id="Layer_1" xmlns="http://www.w3.org/2000/svg" xmlns:xlink="http://www.w3.org/1999/xlink" x="0px" y="0px"
	 viewBox="0 0 100 100" style="enable-background:new 0 0 100 100;" xml:space="preserve">
<style type="text/css">
	.st0{fill-rule:evenodd;clip-rule:evenodd;fill:#F04D24;}
	.st1{fill-rule:evenodd;clip-rule:evenodd;fill:#034DA2;}
</style>
<g>
	<path class="st0" d="M99.5,44.8c0.3,1.7,0.5,3.4,0.5,5.2c0,22.8-22.5,41.4-50,41.4c-4.1,0-8-0.4-11.8-1.2
		c1.6-3.3,5.1-10.6,10.8-23.7c8.3-19.2-6.7-20-6.7-20l0.3-1.7L99.5,44.8z"/>
	<path class="st1" d="M50,8.6c22.2,0,41.1,12.1,47.6,28.7h-54L21.5,84C8.5,76.5,0,64.1,0,50C0,27.2,22.4,8.6,50,8.6"/>
</g>
</svg>
