<?xml version="1.0" encoding="utf-8"?>
<!-- Generator: Adobe Illustrator 27.0.0, SVG Export Plug-In . SVG Version: 6.00 Build 0)  -->
<svg version="1.1" id="Layer_1" xmlns="http://www.w3.org/2000/svg" xmlns:xlink="http://www.w3.org/1999/xlink" x="0px" y="0px"
	 viewBox="0 0 100 100" style="enable-background:new 0 0 100 100;" xml:space="preserve">
<style type="text/css">
	.st0{fill:#2777C6;}
</style>
<g>
	<path id="path3422" d="M63.5,59.6c3.8,1,7.5,2.2,11,4c3.5,1.6,6.7,3.7,9.7,6c3,2.3,5.7,4.9,8.3,7.8c2.6,2.9,4.8,5.9,6.7,9.3H84.9
		c-2.2-2.6-4.5-4.9-7.1-7s-5.5-3.8-8.5-5.3s-6.1-2.6-9.4-3.4c-3.3-0.8-6.7-1.2-10.4-1.2c-3.7,0-7.1,0.4-10.5,1.2
		c-3.4,0.8-6.5,1.9-9.4,3.4c-3,1.5-5.7,3.3-8.3,5.3c-2.6,2-5,4.4-7.1,7H-0.1c1.9-3.4,4.1-6.4,6.7-9.4c2.6-2.9,5.3-5.5,8.5-7.8
		c3.1-2.3,6.4-4.2,9.8-5.9c3.5-1.6,7.2-3,11-4c-3.4-0.8-6.5-1.9-9.4-3.3c-3-1.4-5.7-3-8.5-4.9c-2.7-1.9-5.2-4-7.5-6.3
		s-4.4-4.9-6.3-7.5c1-1.5,1.9-2.9,3.1-4.2c1.1-1.4,2.3-2.6,3.5-3.8c1.2-1.2,2.5-2.6,4-3.7c1.4-1.1,2.7-2.2,4.1-3.1
		c0.1-1.2,0.4-2.3,1-3.3c0.5-1,1.2-1.9,2-2.7c0.8-0.8,1.8-1.5,2.9-1.9c1.1-0.4,2.2-0.7,3.4-0.7c1.4,0,2.6,0.3,3.7,0.8
		c1.1,0.5,2.2,1.2,3,2c0.8,0.8,1.6,1.9,2,3c0.8,1.2,1.1,2.5,1.1,3.8c0,1.4-0.3,2.6-0.8,3.7c-0.5,1.1-1.2,2.2-2,3
		c-0.8,0.8-1.9,1.5-3,2c-1.1,0.4-2.3,0.7-3.7,0.7c-0.3,0-0.5,0-1,0c-0.3,0-0.7,0-1-0.1c-0.3,0-0.5-0.1-1-0.3c-0.3-0.1-0.7-0.3-1-0.4
		c-0.5,0.4-1.1,0.8-1.5,1.2c-0.4,0.4-1,0.8-1.5,1.2c-0.5,0.4-1.1,0.8-1.5,1.2c-0.4,0.4-1,0.8-1.4,1.4c2,1.9,4.1,3.7,6.4,5.2
		c2.3,1.6,4.8,3,7.4,4c2.6,1.1,5.3,1.9,8.2,2.5c2.9,0.5,5.9,1,8.7,1c3,0,5.9-0.3,8.7-1c2.9-0.5,5.6-1.5,8.2-2.5c2.6-1.1,5-2.5,7.4-4
		c2.3-1.6,4.4-3.4,6.4-5.2h0.1c0-0.1,0-0.3,0-0.4c0-0.1,0-0.3,0-0.4c0-0.1,0-0.3,0-0.4c0-0.1,0-0.3,0-0.4c0-1.4,0.3-2.6,0.7-3.8
		c0.4-1.2,1.2-2.3,2-3.3c1-1,2-1.6,3.3-2c1.2-0.4,2.5-0.7,3.8-0.7c1.4,0,2.6,0.3,3.8,0.7c1.2,0.4,2.2,1.2,3.1,2c0.8,1,1.6,2,2,3.3
		c0.5,1.2,0.8,2.5,0.8,3.8c0,1.4-0.3,2.6-0.8,3.8c-0.5,1.2-1.2,2.2-2,3.1c-0.8,0.8-1.9,1.6-3.1,2c-1.2,0.5-2.5,0.8-3.8,0.8
		c-0.3,0-0.4,0-0.5,0c-0.1,0-0.3,0-0.5,0c-0.1,0-0.4,0-0.5-0.1c-0.1,0-0.3-0.1-0.5-0.1c-1.6,1.6-3.4,3.1-5.3,4.6c-1.9,1.5-4,2.9-6,4
		c-2,1.2-4.2,2.3-6.5,3.3C68.3,58.4,65.8,59.1,63.5,59.6L63.5,59.6z"/>
	<path id="arch" class="st0" d="M43.6,25.2c0-0.1,0-0.3,0-0.4c0-0.1,0-0.3,0-0.4c0-0.1,0-0.3,0-0.4c0-0.1,0-0.3,0-0.4
		c0-0.8-0.1-1.6-0.1-2.5c-0.1-0.8-0.3-1.8-0.5-2.5c-0.3-0.8-0.7-1.6-1.1-2.3c-0.4-0.7-1-1.5-1.4-2c0.7-0.1,1.4-0.3,2.2-0.3
		c0.8,0,1.6-0.1,2.5-0.1c0.8,0,1.6-0.1,2.5-0.1c0.7-0.4,1.5-0.4,2.2-0.4c3,0,5.9,0.3,8.7,0.7c2.9,0.4,5.6,1.1,8.3,2
		c2.7,0.8,5.3,1.9,7.8,3.3c2.5,1.2,4.9,2.7,7.1,4.4c-0.8,0.5-1.5,1.2-2.2,1.9c-0.7,0.7-1.2,1.5-1.8,2.3c-0.4,0.8-1,1.6-1.4,2.6
		c-0.4,1-0.7,1.9-0.8,2.9c-1.8-1.4-3.7-2.6-5.7-3.7s-4.2-1.9-6.3-2.7c-2.2-0.7-4.4-1.2-6.7-1.6c-2.3-0.3-4.8-0.5-7.1-0.5
		c-0.5,0-1.1,0-1.6,0c-0.5,0-1.1,0-1.6,0c-0.5,0-1.1,0-1.5,0.1C44.5,25,44.1,25.1,43.6,25.2L43.6,25.2z"/>
	<path id="path3425" d="M40.7,38.3c0-1.4,0.3-2.6,0.8-3.7s1.2-2.2,2-3c0.8-0.8,1.9-1.6,3-2c1.1-0.5,2.3-0.8,3.7-0.8s2.6,0.3,3.8,0.8
		c1.2,0.5,2.2,1.2,3.1,2c0.8,0.8,1.5,1.9,2,3c0.4,1.1,0.7,2.3,0.7,3.7c0,1.4-0.3,2.6-0.7,3.7c-0.4,1.1-1.1,2.2-2,3
		c-0.8,0.8-1.9,1.6-3.1,2c-1.2,0.5-2.5,0.8-3.8,0.8s-2.6-0.3-3.7-0.8c-1.1-0.5-2.2-1.2-3-2c-0.8-0.8-1.6-1.9-2-3
		C41,40.9,40.7,39.7,40.7,38.3z"/>
</g>
</svg>
