<?xml version="1.0" encoding="utf-8"?>
<!-- Generator: Adobe Illustrator 27.0.0, SVG Export Plug-In . SVG Version: 6.00 Build 0)  -->
<svg version="1.1" id="Layer_1" xmlns="http://www.w3.org/2000/svg" xmlns:xlink="http://www.w3.org/1999/xlink" x="0px" y="0px"
	 viewBox="0 0 100 100" style="enable-background:new 0 0 100 100;" xml:space="preserve">
<style type="text/css">
	.st0{fill:#EB3352;}
	.st1{fill:#F9D265;}
	.st2{fill:#F5B955;}
</style>
<g id="Layer_2_00000135652747075486880740000009630637011299738015_">
	<g>
		<path class="st0" d="M88.4,70.5C82.9,83.6,70.3,92,56.1,92c-9.8,0-19.3-5.1-28.1-15.2C22,69.2,16.7,60.9,12.6,52
			c-2.3-6.3-1.8-11,1.6-14.4c0.6-0.5,1.4-1.2,1.1-2.1c-1.1-5.1,1.5-10.9,6.5-12.8c0.6-0.2,1-0.8,1-1.5c-0.3-9.1,10.6-14.4,17.7-9
			c0.5,0.4,1.3,0.4,1.8,0c6.7-4.8,14.2,1.9,17,5c3.3,3.8,6.3,8,8.9,12.3c0.3,0.5,0.8,0.7,1.3,0.8c0.5,0,1-0.3,1.3-0.7
			c2.2-3.2,5.9-5.1,9.9-4.9c6.6,0.2,9.5,5.2,10.7,13.5C93.4,49.1,92.3,60.3,88.4,70.5z"/>
		<path class="st1" d="M82,67.1c-4.1,10.2-14.7,17.4-26,17.4c-19-0.8-30-21.3-37.3-35.9c-1.3-3.8-1.4-6.2,0-7.4
			c1.4-1.2,4.4-0.3,5.9,1.6c1.5,1.9,11.5,15,11.8,15.6c0.3,0.7,1.1,1,1.8,0.8c0.6-0.5,0.7-1.5,0.2-2.1l-16.1-23
			c-3.4-5.1,4-10,7.6-5.2l13.7,18.7c0.3,0.7,1.1,0.8,1.8,0.6c0.6-0.4,0.4-1.4,0-2L29.8,22.7c-3.4-5.1,4-10,7.6-5.2L54,41.8
			c1.4,1.7,3.1,0.5,1.9-1.4c-2.1-3.5-9.4-16-10.6-18.2c-3.5-7,2.9-8.1,8.9-1.6c5.1,6.2,9.6,12.9,13.5,19.9c1,1.9,3.5,3.9,4.6,1.3
			c0.7-1.5,1.6-12.1,7.6-11.8c2.2,0,3.8,2.2,4.6,7.6C86.5,47.5,85.6,57.7,82,67.1z"/>
		<path class="st2" d="M70,51c0-2.6-3.9-2.7-4,0c0.2,6,1.7,11.9,4.3,17.3c1.3,2.3,4.7,0.5,3.5-1.8C71.6,61.6,70.2,56.4,70,51z"/>
		<path class="st2" d="M58.9,49.5c-5.1,4-9.4,9.1-12.6,14.8c-0.7,1-0.3,2.4,0.7,2.9c1,0.5,2.2,0.1,2.7-0.9
			c2.9-5.3,6.8-9.9,11.5-13.6C63.3,51.1,61.1,48,58.9,49.5z"/>
		<path d="M61.2,4.1c5.4,2.3,9.9,6.2,13.1,11.2c1.2,2.4,4.7,0.6,3.7-1.8c-3.6-6-9-10.7-15.5-13.3C60-0.6,58.7,3.2,61.2,4.1z"/>
		<path d="M30.9,96.1c-8.4-4.7-15.4-12.3-19.3-21.3c-0.6-2.6-4.6-1.7-3.9,1C11.8,85.9,19.4,94.3,29,99.6
			C31.3,100.9,33.2,97.4,30.9,96.1z"/>
	</g>
</g>
</svg>
