<?xml version="1.0" encoding="utf-8"?>
<!-- Generator: Adobe Illustrator 27.0.0, SVG Export Plug-In . SVG Version: 6.00 Build 0)  -->
<svg version="1.1" id="Layer_1" xmlns="http://www.w3.org/2000/svg" xmlns:xlink="http://www.w3.org/1999/xlink" x="0px" y="0px"
	 viewBox="0 0 100 100" style="enable-background:new 0 0 100 100;" xml:space="preserve">
<style type="text/css">
	.st0{fill:#6EA6AF;}
</style>
<g>
	<path class="st0" d="M98,41.4c0,0-0.1-0.1-0.2-0.1c0.2,0,0.3-0.1,0.5-0.2c0.1-0.1,0.2-0.3,0.2-0.4c0-0.1,0-0.2-0.1-0.3
		c-0.1-0.1-0.2-0.2-0.3-0.2S97.7,40,97.5,40h-0.8v2.3H97v-1h0.2c0.1,0,0.2,0,0.3,0.1c0.1,0.1,0.2,0.2,0.4,0.5l0.2,0.3h0.5l-0.3-0.5
		C98.2,41.6,98.1,41.5,98,41.4z M97.5,41h-0.4v-0.7h0.4c0.2,0,0.3,0,0.4,0c0.1,0,0.1,0.1,0.2,0.1c0,0,0,0.1,0,0.2
		c0,0.1,0,0.2-0.1,0.2C97.8,41,97.7,41,97.5,41z"/>
	<path class="st0" d="M99.4,40c-0.2-0.3-0.5-0.6-0.8-0.8C98.3,39.1,98,39,97.6,39s-0.7,0.1-1.1,0.3c-0.3,0.2-0.6,0.4-0.8,0.8
		c-0.2,0.3-0.3,0.7-0.3,1.1s0.1,0.7,0.3,1.1c0.2,0.3,0.5,0.6,0.8,0.8c0.3,0.2,0.7,0.3,1.1,0.3s0.7-0.1,1.1-0.3
		c0.3-0.2,0.6-0.5,0.8-0.8c0.2-0.3,0.3-0.7,0.3-1.1C99.8,40.7,99.6,40.4,99.4,40z M99.2,42c-0.2,0.3-0.4,0.5-0.7,0.7
		c-0.3,0.2-0.6,0.2-0.9,0.2s-0.6-0.1-0.9-0.2c-0.3-0.2-0.5-0.4-0.7-0.7c-0.2-0.3-0.2-0.6-0.2-0.9s0.1-0.6,0.2-0.9s0.4-0.5,0.7-0.7
		c0.3-0.2,0.6-0.2,0.9-0.2c0.3,0,0.6,0.1,0.9,0.2c0.3,0.2,0.5,0.4,0.7,0.7c0.2,0.3,0.2,0.6,0.2,0.9C99.4,41.4,99.3,41.7,99.2,42
		L99.2,42z M35.7,45c-1.5,0-3.2,1.2-4.2,2.3v-0.2c0-4.6,0.4-7.7,0.4-9.5c0-0.4-2.7,0.2-2.7,0.7c0,0.5-0.3,3.6-0.3,6.5
		c0,3.2,0.1,5.7,0.4,7.7c0,1.2-1.3,3.1-2.8,3.1c0,0-0.6-4.1-0.4-10.4c0-0.4-2.7,0.3-2.7,0.7c0,0.2,0,1.9,0.1,3.4
		c0,3.8-1.5,6.6-2.9,6.6c-0.9,0-1.8-1.1-1.8-3.8c0-3.4,1-5.4,1-6.3c0-0.3-0.6-0.6-2.3-0.6c-0.1,0-0.3,0.1-0.4,0.4v0
		c-1,1.8-2.3,3-3.7,3.8v-10c0-0.4-2.5,0.3-2.7,0.7v10.3c-1.7,0.4-3.4,0.5-5.2,0.5v-9.2c0-0.4-2.5,0.3-2.7,0.7v8.3
		c-0.7-0.1-1.4-0.2-2.2-0.4c-0.5-0.1-0.7,1.6,0,1.8c0.7,0.2,1.4,0.3,2.2,0.5v5.4c0,0.4,2.7-0.3,2.7-0.7v-4.3c1.8,0.1,3.6,0,5.2-0.4
		v5.9c0,0.4,2.7-0.3,2.7-0.7v-6.1c1.1-0.6,2.1-1.4,2.9-2.4c-0.1,0.9-0.2,1.9-0.2,3c0,3,1.8,6,3.9,6c1.5,0,2.9-1.4,3.8-3.4
		c0.6,2.7,1.8,3.1,2.8,3.1c1.5,0,2.6-1.4,3.2-2.9c0.7,2,1.9,2.9,3.9,2.9c4.2,0,5.8-3.8,5.8-7.2C39.7,47.1,37.9,45,35.7,45z
		 M33.9,55.5c-0.5,0-1.9-0.2-2.3-5.9c0.3-0.3,2.1-2.3,3.9-2.3c0.4,0,1.6,0.6,1.7,3.3C37.2,54.2,36,55.5,33.9,55.5z M91.3,44.6
		c-1.7,7-4.4,10.8-7.4,10.8c-1,0-2.1-0.5-2.8-1.4c3-1.4,6.1-3.2,6.1-5.6c0-1.2-1.6-3.4-4.1-3.4c-1.4,0-5.2,1.9-5.2,6.7
		c0,0.5,0.1,1,0.2,1.4c-0.9,0.5-1.8,1-2.5,1.6c0,0,0,0,0,0c-0.2-2.7-0.1-3.2,0.3-7.3v-0.2c0-0.1,0-0.2,0-0.3c0-0.3,0-0.6,0.1-1
		c0-0.4-2.5-0.3-2.5,0.4v0.5c-0.8-1.1-2-1.8-3.2-1.8c-1.6,0-4.8,2-4.8,6.8c0,1.8-1.6,3.9-2.5,3.9c0,0-0.2-2.4,0.2-9.8
		c0-0.4-2.5-0.3-2.5,0.4v0.2c-0.8-0.9-1.9-1.6-3-1.6c-1.6,0-4.8,2-4.8,6.8c0,3,1.8,6,3.9,6c1.4,0,2.9-1.3,3.9-3.1
		c0,2.3,1.1,3.2,2.2,3.2c1.1,0,2.3-1.4,3.1-2.9c0.7,1.7,2,2.9,3.3,2.9c1.4,0,2.9-1.2,3.9-3c0,0.7,0,1.4,0.1,2.2
		c-0.8,1.1-1.5,2.3-1.5,3.2c0,1.6,0.5,2.4,1.8,2.4c1.2,0,2.2-1.3,2.1-5.1c0.2-0.8,1.5-1.5,3.1-2.3c1.1,1.7,3,2.7,4.9,2.7
		c1.6,0,3-0.6,4.3-1.8c0.8,0.9,2.1,1.8,3.8,1.8c2.2,0,5-1.2,5-4.6s-3.7-6.4-3.7-8.1L91.3,44.6L91.3,44.6z M57.4,55.6
		c-0.9,0-1.8-1.1-1.8-3.8c0-3.4,1.4-4.6,2.9-4.6c0.8,0,2,1.2,2.3,1.4v0.8C60.5,52.9,58.7,55.6,57.4,55.6z M69.9,55.6
		c-0.9,0-1.8-1.1-1.8-3.8c0-3.4,1.4-4.6,2.9-4.6c0.9,0,2.3,1.4,2.3,1.4C73.3,52.5,71.3,55.6,69.9,55.6z M80.4,51.6
		c0-2.8,1.4-4.5,2.7-4.5c1.1,0,1.7,0.7,1.7,1.5c0,0.9-2.1,2-4.4,3.1C80.4,51.7,80.4,51.7,80.4,51.6L80.4,51.6z M91.9,55.7
		c-1.1,0-2.1-0.4-2.7-0.9c1.2-1.6,2.2-3.7,3-6.6c1,1.6,2.3,3,2.3,4.8C94.5,54.7,92.9,55.7,91.9,55.7L91.9,55.7z M46.2,39.3
		c-5,0-7.5,4.8-7.6,5.3c0,0,0.7,1,1.2,0.9c0.3,0,0.8-1,1.8-1.9l0,14.1c0,0.4,2.6-0.3,2.6-0.7v-4.2c0.7,0.5,1.6,0.9,2.7,0.9
		c3.7,0,5.8-3.6,5.8-7C52.7,41.4,49.5,39.3,46.2,39.3L46.2,39.3z M46.9,51.4c-0.9,0-1.9-0.3-2.7-0.6v-9c0.5-0.2,1.1-0.3,1.8-0.3
		c2.2,0,4.2,1.6,4.2,5.7C50.2,49.6,49,51.4,46.9,51.4L46.9,51.4z"/>
</g>
</svg>
