<?xml version="1.0" encoding="utf-8"?>
<!-- Generator: Adobe Illustrator 27.0.0, SVG Export Plug-In . SVG Version: 6.00 Build 0)  -->
<svg version="1.1" id="Layer_1" xmlns="http://www.w3.org/2000/svg" xmlns:xlink="http://www.w3.org/1999/xlink" x="0px" y="0px"
	 viewBox="0 0 100 100" style="enable-background:new 0 0 100 100;" xml:space="preserve">
<style type="text/css">
	.st0{stroke:#EDFFD8;stroke-width:4.2001;stroke-linecap:square;}
	.st1{stroke:#000000;stroke-width:2;stroke-linecap:square;}
	.st2{stroke:#000000;stroke-width:2;}
	.st3{fill:#FF0000;}
	.st4{fill:#EBED02;}
	.st5{opacity:0.8588;fill:#16FF0E;}
	.st6{opacity:0.855;fill:#16FF0E;}
	.st7{fill:#16FF0E;}
</style>
<g>
	<g>
		<g id="g4024" transform="matrix(1.7814702,0,0,1.6523316,-168.89205,-371.28852)">
			<path id="path4030" class="st0" d="M130.5,259.3v-24.1h7.8c3,0,4.9,0.1,5.8,0.4c1.4,0.4,2.5,1.1,3.5,2.4c0.9,1.2,1.4,2.8,1.4,4.7
				c0,1.5-0.3,2.7-0.8,3.7c-0.5,1-1.2,1.8-2.1,2.4c-0.8,0.6-1.7,0.9-2.5,1.1c-1.2,0.2-2.9,0.3-5.1,0.3h-2v9.1H130.5 M136.6,238.9
				v7.6h1.5c1.9,0,3.2-0.1,3.9-0.4c0.6-0.3,1-0.6,1.4-1.2c0.4-0.5,0.6-1.5,0.6-2.2c0-0.9-0.3-2-0.8-2.6c-0.5-0.6-1-0.9-1.8-1.1
				c-0.5-0.1-1.3-0.1-2.5-0.2c-0.3,0-0.7,0-1,0L136.6,238.9"/>
			<path id="path4026" class="st0" d="M96.7,259.3v-23.9h6.3v23.9H96.7"/>
			<path id="path4028" class="st0" d="M125.4,254.9v4.4h-17.2c0.2-1.6,0.7-3.2,1.7-4.7c0.9-1.5,2.8-3.4,5.5-5.9c2.2-2,3.6-3.3,4.1-4
				c0.7-1,1-1.9,1-2.9c0-1-0.3-1.8-0.9-2.4c-0.6-0.6-1.4-0.9-2.4-0.9c-1,0-1.8,0.3-2.4,0.9s-1,1-1,2.4l-4.9-0.4
				c0.3-2.6,1.2-4,2.7-5.1c1.5-1.1,3.5-1.7,5.8-1.7c2.5,0,4.5,0.7,6,2c1.4,1.3,2.2,2.9,2.2,4.9c0,1.1-0.2,2.2-0.6,3.2
				c-0.4,1-1.1,2-2,3.1c-0.6,0.7-1.7,1.8-3.2,3.1c-1.6,1.4-2.5,2.3-3,2.7c-0.4,0.4-0.7,0.9-1,1.3L125.4,254.9"/>
		</g>
		<g id="g4032" transform="matrix(1.7814702,0,0,1.6523316,-168.89205,-371.28852)">
			<path id="path4034" class="st1" d="M130.5,259.3v-24.1h7.8c3,0,4.9,0.1,5.8,0.4c1.4,0.4,2.5,1.1,3.5,2.4c0.9,1.2,1.4,2.8,1.4,4.7
				c0,1.5-0.3,2.7-0.8,3.7c-0.5,1-1.2,1.8-2.1,2.4c-0.8,0.6-1.7,0.9-2.5,1.1c-1.2,0.2-2.9,0.3-5.1,0.3h-2v9.1H130.5 M136.6,239v7.5
				h1.5c1.9,0,3.2-0.1,3.9-0.4c0.6-0.3,1-0.6,1.3-1.2c0.4-0.5,0.6-1.5,0.6-2.2c0-0.9-0.3-1.9-0.8-2.5c-0.5-0.6-1-0.9-1.8-1.1
				c-0.6-0.1-1.8-0.2-3.5-0.2H136.6"/>
			<path id="path4036" class="st1" d="M96.7,259.3v-23.9h6.3v23.9H96.7"/>
			<path id="path4038" class="st2" d="M125.4,254.9v4.4h-17.2c0.2-1.6,0.7-3.2,1.7-4.7c0.9-1.5,2.8-3.4,5.5-5.9c2.2-2,3.6-3.3,4.1-4
				c0.7-1,1-1.9,1-2.9c0-1-0.3-1.8-0.9-2.4c-0.6-0.6-1.4-0.9-2.4-0.9c-1,0-1.8,0.3-2.4,0.9s-1,1-1,2.4l-4.9-0.4
				c0.3-2.6,1.2-4,2.7-5.1c1.5-1.1,3.5-1.7,5.8-1.7c2.5,0,4.5,0.7,6,2c1.4,1.3,2.2,2.9,2.2,4.9c0,1.1-0.2,2.2-0.6,3.2
				c-0.4,1-1.1,2-2,3.1c-0.6,0.7-1.7,1.8-3.2,3.1c-1.6,1.4-2.5,2.3-3,2.7c-0.4,0.4-0.7,0.9-1,1.3h10.5"/>
		</g>
	</g>
	<g>
		<path id="path3798" class="st3" d="M4.8,64.4c0,1.1-0.9,1.9-1.9,1.9c-1.1,0-1.9-0.9-1.9-1.9c0,0,0,0,0,0c0-1.1,0.9-1.9,1.9-1.9
			S4.7,63.3,4.8,64.4C4.8,64.4,4.8,64.4,4.8,64.4z"/>
		<path id="path3800" class="st3" d="M4.8,70.8c0,1.1-0.9,1.9-1.9,1.9c-1.1,0-1.9-0.9-1.9-1.9c0,0,0,0,0,0c0-1.1,0.9-1.9,1.9-1.9
			C3.9,68.9,4.7,69.7,4.8,70.8C4.8,70.8,4.8,70.8,4.8,70.8z"/>
		<path id="path3802" class="st3" d="M4.8,77.2c0,1.1-0.9,1.9-1.9,1.9c-1.1,0-1.9-0.9-1.9-1.9c0,0,0,0,0,0c0-1.1,0.9-1.9,1.9-1.9
			C3.9,75.3,4.7,76.1,4.8,77.2C4.8,77.2,4.8,77.2,4.8,77.2z"/>
		<path id="path3804" class="st3" d="M4.8,83.6c0,1.1-0.9,1.9-1.9,1.9c-1.1,0-1.9-0.9-1.9-1.9c0,0,0,0,0,0c0-1.1,0.9-1.9,1.9-1.9
			C3.9,81.7,4.7,82.5,4.8,83.6C4.8,83.6,4.8,83.6,4.8,83.6z"/>
		<path id="path3806" class="st3" d="M11,64.4c0,1.1-0.9,1.9-1.9,1.9c-1.1,0-1.9-0.9-1.9-1.9c0,0,0,0,0,0c0-1.1,0.9-1.9,1.9-1.9
			S11,63.3,11,64.4C11,64.4,11,64.4,11,64.4z"/>
		<path id="path3808" class="st3" d="M11,70.8c0,1.1-0.9,1.9-1.9,1.9c-1.1,0-1.9-0.9-1.9-1.9c0,0,0,0,0,0c0-1.1,0.9-1.9,1.9-1.9
			C10.2,68.9,11,69.7,11,70.8C11,70.8,11,70.8,11,70.8z"/>
		<path id="path3810" class="st3" d="M11,77.2c0,1.1-0.9,1.9-1.9,1.9c-1.1,0-1.9-0.9-1.9-1.9c0,0,0,0,0,0c0-1.1,0.9-1.9,1.9-1.9
			C10.2,75.3,11,76.1,11,77.2C11,77.2,11,77.2,11,77.2z"/>
		<path id="path3812" class="st3" d="M11,83.6c0,1.1-0.9,1.9-1.9,1.9c-1.1,0-1.9-0.9-1.9-1.9c0,0,0,0,0,0c0-1.1,0.9-1.9,1.9-1.9
			C10.2,81.7,11,82.5,11,83.6C11,83.6,11,83.6,11,83.6z"/>
		<path id="path3814" class="st3" d="M17.3,64.4c0,1.1-0.9,1.9-1.9,1.9c-1.1,0-1.9-0.9-1.9-1.9c0,0,0,0,0,0c0-1.1,0.9-1.9,1.9-1.9
			S17.3,63.3,17.3,64.4C17.3,64.4,17.3,64.4,17.3,64.4z"/>
		<path id="path3816" class="st3" d="M17.3,70.8c0,1.1-0.9,1.9-1.9,1.9c-1.1,0-1.9-0.9-1.9-1.9c0,0,0,0,0,0c0-1.1,0.9-1.9,1.9-1.9
			C16.5,68.9,17.3,69.7,17.3,70.8C17.3,70.8,17.3,70.8,17.3,70.8z"/>
		<path id="path3818" class="st3" d="M17.3,77.2c0,1.1-0.9,1.9-1.9,1.9c-1.1,0-1.9-0.9-1.9-1.9c0,0,0,0,0,0c0-1.1,0.9-1.9,1.9-1.9
			C16.5,75.3,17.3,76.1,17.3,77.2C17.3,77.2,17.3,77.2,17.3,77.2z"/>
		<path id="path3820" class="st3" d="M17.3,83.6c0,1.1-0.9,1.9-1.9,1.9c-1.1,0-1.9-0.9-1.9-1.9c0,0,0,0,0,0c0-1.1,0.9-1.9,1.9-1.9
			C16.5,81.7,17.3,82.5,17.3,83.6C17.3,83.6,17.3,83.6,17.3,83.6z"/>
		<path id="path3822" class="st3" d="M23.6,64.4c0,1.1-0.9,1.9-1.9,1.9c-1.1,0-1.9-0.9-1.9-1.9c0,0,0,0,0,0c0-1.1,0.9-1.9,1.9-1.9
			S23.6,63.3,23.6,64.4C23.6,64.4,23.6,64.4,23.6,64.4z"/>
		<path id="path3824" class="st4" d="M23.6,70.8c0,1.1-0.9,1.9-1.9,1.9c-1.1,0-1.9-0.9-1.9-1.9c0,0,0,0,0,0c0-1.1,0.9-1.9,1.9-1.9
			C22.8,68.9,23.6,69.7,23.6,70.8C23.6,70.8,23.6,70.8,23.6,70.8z"/>
		<path id="path3826" class="st4" d="M23.6,77.2c0,1.1-0.9,1.9-1.9,1.9c-1.1,0-1.9-0.9-1.9-1.9c0,0,0,0,0,0c0-1.1,0.9-1.9,1.9-1.9
			C22.8,75.3,23.6,76.1,23.6,77.2C23.6,77.2,23.6,77.2,23.6,77.2z"/>
		<path id="path3828" class="st3" d="M23.6,83.6c0,1.1-0.9,1.9-1.9,1.9c-1.1,0-1.9-0.9-1.9-1.9c0,0,0,0,0,0c0-1.1,0.9-1.9,1.9-1.9
			C22.8,81.7,23.6,82.5,23.6,83.6C23.6,83.6,23.6,83.6,23.6,83.6z"/>
		<path id="path3865" class="st4" d="M29.9,64.4c0,1.1-0.9,1.9-1.9,1.9c-1.1,0-1.9-0.9-1.9-1.9c0,0,0,0,0,0c0-1.1,0.9-1.9,1.9-1.9
			S29.9,63.3,29.9,64.4C29.9,64.4,29.9,64.4,29.9,64.4z"/>
		<path id="path3867" class="st3" d="M29.9,70.8c0,1.1-0.9,1.9-1.9,1.9c-1.1,0-1.9-0.9-1.9-1.9c0,0,0,0,0,0c0-1.1,0.9-1.9,1.9-1.9
			C29,68.9,29.9,69.7,29.9,70.8C29.9,70.8,29.9,70.8,29.9,70.8z"/>
		<path id="path3869" class="st4" d="M29.9,77.2c0,1.1-0.9,1.9-1.9,1.9c-1.1,0-1.9-0.9-1.9-1.9c0,0,0,0,0,0c0-1.1,0.9-1.9,1.9-1.9
			C29,75.3,29.9,76.1,29.9,77.2C29.9,77.2,29.9,77.2,29.9,77.2z"/>
		<path id="path3871" class="st3" d="M29.9,83.6c0,1.1-0.9,1.9-1.9,1.9c-1.1,0-1.9-0.9-1.9-1.9c0,0,0,0,0,0c0-1.1,0.9-1.9,1.9-1.9
			C29,81.7,29.9,82.5,29.9,83.6C29.9,83.6,29.9,83.6,29.9,83.6z"/>
		<path id="path3873" class="st4" d="M36.2,64.4c0,1.1-0.9,1.9-1.9,1.9c-1.1,0-1.9-0.9-1.9-1.9c0,0,0,0,0,0c0-1.1,0.9-1.9,1.9-1.9
			C35.3,62.5,36.2,63.3,36.2,64.4C36.2,64.4,36.2,64.4,36.2,64.4z"/>
		<path id="path3875" class="st3" d="M36.2,70.8c0,1.1-0.9,1.9-1.9,1.9c-1.1,0-1.9-0.9-1.9-1.9c0,0,0,0,0,0c0-1.1,0.9-1.9,1.9-1.9
			C35.3,68.9,36.2,69.7,36.2,70.8C36.2,70.8,36.2,70.8,36.2,70.8z"/>
		<path id="path3877" class="st4" d="M36.2,77.2c0,1.1-0.9,1.9-1.9,1.9c-1.1,0-1.9-0.9-1.9-1.9c0,0,0,0,0,0c0-1.1,0.9-1.9,1.9-1.9
			C35.3,75.3,36.2,76.1,36.2,77.2C36.2,77.2,36.2,77.2,36.2,77.2z"/>
		<path id="path3879" class="st3" d="M36.2,83.6c0,1.1-0.9,1.9-1.9,1.9c-1.1,0-1.9-0.9-1.9-1.9c0,0,0,0,0,0c0-1.1,0.9-1.9,1.9-1.9
			C35.3,81.7,36.2,82.5,36.2,83.6C36.2,83.6,36.2,83.6,36.2,83.6z"/>
		<path id="path3881" class="st4" d="M42.5,64.4c0,1.1-0.9,1.9-1.9,1.9c-1.1,0-1.9-0.9-1.9-1.9c0,0,0,0,0,0c0-1.1,0.9-1.9,1.9-1.9
			C41.6,62.5,42.5,63.3,42.5,64.4C42.5,64.4,42.5,64.4,42.5,64.4z"/>
		<path id="path3883" class="st4" d="M42.5,70.8c0,1.1-0.9,1.9-1.9,1.9c-1.1,0-1.9-0.9-1.9-1.9c0,0,0,0,0,0c0-1.1,0.9-1.9,1.9-1.9
			C41.6,68.9,42.5,69.7,42.5,70.8C42.5,70.8,42.5,70.8,42.5,70.8z"/>
		<path id="path3885" class="st4" d="M42.5,77.2c0,1.1-0.9,1.9-1.9,1.9c-1.1,0-1.9-0.9-1.9-1.9c0,0,0,0,0,0c0-1.1,0.9-1.9,1.9-1.9
			C41.6,75.3,42.5,76.1,42.5,77.2C42.5,77.2,42.5,77.2,42.5,77.2z"/>
		<path id="path3887" class="st4" d="M42.5,83.6c0,1.1-0.9,1.9-1.9,1.9c-1.1,0-1.9-0.9-1.9-1.9c0,0,0,0,0,0c0-1.1,0.9-1.9,1.9-1.9
			C41.6,81.7,42.5,82.5,42.5,83.6C42.5,83.6,42.5,83.6,42.5,83.6z"/>
		<path id="path3889" class="st4" d="M48.8,64.4c0,1.1-0.9,1.9-1.9,1.9c-1.1,0-1.9-0.9-1.9-1.9c0,0,0,0,0,0c0-1.1,0.9-1.9,1.9-1.9
			C47.9,62.5,48.8,63.3,48.8,64.4C48.8,64.4,48.8,64.4,48.8,64.4z"/>
		<path id="path3891" class="st4" d="M48.8,70.8c0,1.1-0.9,1.9-1.9,1.9c-1.1,0-1.9-0.9-1.9-1.9c0,0,0,0,0,0c0-1.1,0.9-1.9,1.9-1.9
			C47.9,68.9,48.8,69.7,48.8,70.8C48.8,70.8,48.8,70.8,48.8,70.8z"/>
		<path id="path3893" class="st4" d="M48.8,77.2c0,1.1-0.9,1.9-1.9,1.9c-1.1,0-1.9-0.9-1.9-1.9c0,0,0,0,0,0c0-1.1,0.9-1.9,1.9-1.9
			C47.9,75.3,48.8,76.1,48.8,77.2C48.8,77.2,48.8,77.2,48.8,77.2z"/>
		<path id="path3895" class="st4" d="M48.8,83.6c0,1.1-0.9,1.9-1.9,1.9c-1.1,0-1.9-0.9-1.9-1.9c0,0,0,0,0,0c0-1.1,0.9-1.9,1.9-1.9
			C47.9,81.7,48.8,82.5,48.8,83.6C48.8,83.6,48.8,83.6,48.8,83.6z"/>
		<path id="path3897" class="st5" d="M55.1,64.4c0,1.1-0.9,1.9-1.9,1.9c-1.1,0-1.9-0.9-1.9-1.9c0,0,0,0,0,0c0-1.1,0.9-1.9,1.9-1.9
			C54.2,62.5,55.1,63.3,55.1,64.4C55.1,64.4,55.1,64.4,55.1,64.4z"/>
		<path id="path3899" class="st5" d="M55.1,70.8c0,1.1-0.9,1.9-1.9,1.9c-1.1,0-1.9-0.9-1.9-1.9c0,0,0,0,0,0c0-1.1,0.9-1.9,1.9-1.9
			C54.2,68.9,55.1,69.7,55.1,70.8C55.1,70.8,55.1,70.8,55.1,70.8z"/>
		<path id="path3901" class="st4" d="M55.1,77.2c0,1.1-0.9,1.9-1.9,1.9c-1.1,0-1.9-0.9-1.9-1.9c0,0,0,0,0,0c0-1.1,0.9-1.9,1.9-1.9
			C54.2,75.3,55.1,76.1,55.1,77.2C55.1,77.2,55.1,77.2,55.1,77.2z"/>
		<path id="path3903" class="st4" d="M55.1,83.6c0,1.1-0.9,1.9-1.9,1.9c-1.1,0-1.9-0.9-1.9-1.9c0,0,0,0,0,0c0-1.1,0.9-1.9,1.9-1.9
			C54.2,81.7,55.1,82.5,55.1,83.6C55.1,83.6,55.1,83.6,55.1,83.6z"/>
		<path id="path3905" class="st4" d="M61.4,64.4c0,1.1-0.9,1.9-1.9,1.9c-1.1,0-1.9-0.9-1.9-1.9c0,0,0,0,0,0c0-1.1,0.9-1.9,1.9-1.9
			C60.5,62.5,61.4,63.3,61.4,64.4C61.4,64.4,61.4,64.4,61.4,64.4z"/>
		<path id="path3907" class="st4" d="M61.4,70.8c0,1.1-0.9,1.9-1.9,1.9c-1.1,0-1.9-0.9-1.9-1.9c0,0,0,0,0,0c0-1.1,0.9-1.9,1.9-1.9
			C60.5,68.9,61.4,69.7,61.4,70.8C61.4,70.8,61.4,70.8,61.4,70.8z"/>
		<path id="path3909" class="st6" d="M61.4,77.2c0,1.1-0.9,1.9-1.9,1.9c-1.1,0-1.9-0.9-1.9-1.9c0,0,0,0,0,0c0-1.1,0.9-1.9,1.9-1.9
			C60.5,75.3,61.4,76.1,61.4,77.2C61.4,77.2,61.4,77.2,61.4,77.2z"/>
		<path id="path3911" class="st4" d="M61.4,83.6c0,1.1-0.9,1.9-1.9,1.9c-1.1,0-1.9-0.9-1.9-1.9c0,0,0,0,0,0c0-1.1,0.9-1.9,1.9-1.9
			C60.5,81.7,61.4,82.5,61.4,83.6C61.4,83.6,61.4,83.6,61.4,83.6z"/>
		<path id="path3913" class="st5" d="M67.7,64.4c0,1.1-0.9,1.9-1.9,1.9c-1.1,0-1.9-0.9-1.9-1.9c0,0,0,0,0,0c0-1.1,0.9-1.9,1.9-1.9
			C66.8,62.5,67.7,63.3,67.7,64.4C67.7,64.4,67.7,64.4,67.7,64.4z"/>
		<path id="path3915" class="st7" d="M67.7,70.8c0,1.1-0.9,1.9-1.9,1.9c-1.1,0-1.9-0.9-1.9-1.9c0,0,0,0,0,0c0-1.1,0.9-1.9,1.9-1.9
			C66.8,68.9,67.7,69.7,67.7,70.8C67.7,70.8,67.7,70.8,67.7,70.8z"/>
		<path id="path3917" class="st4" d="M67.7,77.2c0,1.1-0.9,1.9-1.9,1.9c-1.1,0-1.9-0.9-1.9-1.9c0,0,0,0,0,0c0-1.1,0.9-1.9,1.9-1.9
			C66.8,75.3,67.7,76.1,67.7,77.2C67.7,77.2,67.7,77.2,67.7,77.2z"/>
		<path id="path3919" class="st5" d="M67.7,83.6c0,1.1-0.9,1.9-1.9,1.9c-1.1,0-1.9-0.9-1.9-1.9c0,0,0,0,0,0c0-1.1,0.9-1.9,1.9-1.9
			C66.8,81.7,67.7,82.5,67.7,83.6C67.7,83.6,67.7,83.6,67.7,83.6z"/>
		<path id="path3921" class="st5" d="M74,64.4c0,1.1-0.9,1.9-1.9,1.9c-1.1,0-1.9-0.9-1.9-1.9c0,0,0,0,0,0c0-1.1,0.9-1.9,1.9-1.9
			C73.1,62.5,74,63.3,74,64.4C74,64.4,74,64.4,74,64.4z"/>
		<path id="path3923" class="st4" d="M74,70.8c0,1.1-0.9,1.9-1.9,1.9c-1.1,0-1.9-0.9-1.9-1.9c0,0,0,0,0,0c0-1.1,0.9-1.9,1.9-1.9
			C73.1,68.9,74,69.7,74,70.8C74,70.8,74,70.8,74,70.8z"/>
		<path id="path3925" class="st7" d="M74,77.2c0,1.1-0.9,1.9-1.9,1.9c-1.1,0-1.9-0.9-1.9-1.9c0,0,0,0,0,0c0-1.1,0.9-1.9,1.9-1.9
			C73.1,75.3,74,76.1,74,77.2C74,77.2,74,77.2,74,77.2z"/>
		<path id="path3927" class="st4" d="M74,83.6c0,1.1-0.9,1.9-1.9,1.9c-1.1,0-1.9-0.9-1.9-1.9c0,0,0,0,0,0c0-1.1,0.9-1.9,1.9-1.9
			C73.1,81.7,74,82.5,74,83.6C74,83.6,74,83.6,74,83.6z"/>
		<path id="path3929" class="st5" d="M80.2,64.4c0,1.1-0.9,1.9-1.9,1.9c-1.1,0-1.9-0.9-1.9-1.9c0,0,0,0,0,0c0-1.1,0.9-1.9,1.9-1.9
			C79.4,62.5,80.2,63.3,80.2,64.4C80.2,64.4,80.2,64.4,80.2,64.4z"/>
		<path id="path3931" class="st4" d="M80.2,70.8c0,1.1-0.9,1.9-1.9,1.9c-1.1,0-1.9-0.9-1.9-1.9c0,0,0,0,0,0c0-1.1,0.9-1.9,1.9-1.9
			C79.4,68.9,80.2,69.7,80.2,70.8C80.2,70.8,80.2,70.8,80.2,70.8z"/>
		<path id="path3933" class="st7" d="M80.2,77.2c0,1.1-0.9,1.9-1.9,1.9c-1.1,0-1.9-0.9-1.9-1.9c0,0,0,0,0,0c0-1.1,0.9-1.9,1.9-1.9
			C79.4,75.3,80.2,76.1,80.2,77.2C80.2,77.2,80.2,77.2,80.2,77.2z"/>
		<path id="path3935" class="st7" d="M80.2,83.6c0,1.1-0.9,1.9-1.9,1.9c-1.1,0-1.9-0.9-1.9-1.9c0,0,0,0,0,0c0-1.1,0.9-1.9,1.9-1.9
			C79.4,81.7,80.2,82.5,80.2,83.6C80.2,83.6,80.2,83.6,80.2,83.6z"/>
		<path id="path3937" class="st4" d="M86.5,64.4c0,1.1-0.9,1.9-1.9,1.9c-1.1,0-1.9-0.9-1.9-1.9c0,0,0,0,0,0c0-1.1,0.9-1.9,1.9-1.9
			C85.7,62.5,86.5,63.3,86.5,64.4C86.5,64.4,86.5,64.4,86.5,64.4z"/>
		<path id="path3939" class="st7" d="M86.5,70.8c0,1.1-0.9,1.9-1.9,1.9c-1.1,0-1.9-0.9-1.9-1.9c0,0,0,0,0,0c0-1.1,0.9-1.9,1.9-1.9
			C85.7,68.9,86.5,69.7,86.5,70.8C86.5,70.8,86.5,70.8,86.5,70.8z"/>
		<path id="path3941" class="st7" d="M86.5,77.2c0,1.1-0.9,1.9-1.9,1.9c-1.1,0-1.9-0.9-1.9-1.9c0,0,0,0,0,0c0-1.1,0.9-1.9,1.9-1.9
			C85.7,75.3,86.5,76.1,86.5,77.2C86.5,77.2,86.5,77.2,86.5,77.2z"/>
		<path id="path3943" class="st7" d="M86.5,83.6c0,1.1-0.9,1.9-1.9,1.9c-1.1,0-1.9-0.9-1.9-1.9c0,0,0,0,0,0c0-1.1,0.9-1.9,1.9-1.9
			C85.7,81.7,86.5,82.5,86.5,83.6C86.5,83.6,86.5,83.6,86.5,83.6z"/>
		<path id="path3945" class="st5" d="M92.8,64.4c0,1.1-0.9,1.9-1.9,1.9c-1.1,0-1.9-0.9-1.9-1.9c0,0,0,0,0,0c0-1.1,0.9-1.9,1.9-1.9
			C92,62.5,92.8,63.3,92.8,64.4C92.8,64.4,92.8,64.4,92.8,64.4z"/>
		<path id="path3947" class="st7" d="M92.8,70.8c0,1.1-0.9,1.9-1.9,1.9c-1.1,0-1.9-0.9-1.9-1.9c0,0,0,0,0,0c0-1.1,0.9-1.9,1.9-1.9
			C92,68.9,92.8,69.7,92.8,70.8C92.8,70.8,92.8,70.8,92.8,70.8z"/>
		<path id="path3949" class="st7" d="M92.8,77.2c0,1.1-0.9,1.9-1.9,1.9c-1.1,0-1.9-0.9-1.9-1.9c0,0,0,0,0,0c0-1.1,0.9-1.9,1.9-1.9
			C92,75.3,92.8,76.1,92.8,77.2C92.8,77.2,92.8,77.2,92.8,77.2z"/>
		<path id="path3951" class="st7" d="M92.8,83.6c0,1.1-0.9,1.9-1.9,1.9c-1.1,0-1.9-0.9-1.9-1.9c0,0,0,0,0,0c0-1.1,0.9-1.9,1.9-1.9
			C92,81.7,92.8,82.5,92.8,83.6C92.8,83.6,92.8,83.6,92.8,83.6z"/>
		<path id="path3953" class="st7" d="M99.1,64.4c0,1.1-0.9,1.9-1.9,1.9c-1.1,0-1.9-0.9-1.9-1.9c0,0,0,0,0,0c0-1.1,0.9-1.9,1.9-1.9
			C98.2,62.5,99.1,63.3,99.1,64.4C99.1,64.4,99.1,64.4,99.1,64.4z"/>
		<path id="path3955" class="st7" d="M99.1,70.8c0,1.1-0.9,1.9-1.9,1.9c-1.1,0-1.9-0.9-1.9-1.9c0,0,0,0,0,0c0-1.1,0.9-1.9,1.9-1.9
			C98.2,68.9,99.1,69.7,99.1,70.8C99.1,70.8,99.1,70.8,99.1,70.8z"/>
		<path id="path3957" class="st7" d="M99.1,77.2c0,1.1-0.9,1.9-1.9,1.9c-1.1,0-1.9-0.9-1.9-1.9c0,0,0,0,0,0c0-1.1,0.9-1.9,1.9-1.9
			C98.2,75.3,99.1,76.1,99.1,77.2C99.1,77.2,99.1,77.2,99.1,77.2z"/>
		<path id="path3959" class="st7" d="M99.1,83.6c0,1.1-0.9,1.9-1.9,1.9c-1.1,0-1.9-0.9-1.9-1.9c0,0,0,0,0,0c0-1.1,0.9-1.9,1.9-1.9
			C98.2,81.7,99.1,82.5,99.1,83.6C99.1,83.6,99.1,83.6,99.1,83.6z"/>
	</g>
</g>
</svg>
