<?xml version="1.0" encoding="utf-8"?>
<!-- Generator: Adobe Illustrator 27.0.0, SVG Export Plug-In . SVG Version: 6.00 Build 0)  -->
<svg version="1.1" id="Layer_1" xmlns="http://www.w3.org/2000/svg" xmlns:xlink="http://www.w3.org/1999/xlink" x="0px" y="0px"
	 viewBox="0 0 100 100" style="enable-background:new 0 0 100 100;" xml:space="preserve">
<style type="text/css">
	.st0{fill:#F6C700;}
	.st1{fill-opacity:0;stroke:#000000;stroke-opacity:0;}
</style>
<g>
	<g>
		<g>
			<g>
				<path id="d1pwhf9wy2" class="st0" d="M99.4,29.4c-0.3-2.2-1.9-3.9-4-4.3c-9.1,0-81.8,0-90.9,0c-2.3,0.4-4,2.4-4,4.9
					c0,4,0,35.9,0,39.9c0,2.8,2.1,5,4.8,5c8.9,0,80.5,0,89.4,0c2.4,0,4.4-1.9,4.7-4.3C99.4,62.3,99.4,33.5,99.4,29.4z"/>
			</g>
			<g>
				<g>
					<path id="d1pwhf9wy2_00000143590681259834603170000010266842509219684249_" class="st1" d="M99.4,29.4c-0.3-2.2-1.9-3.9-4-4.3
						c-9.1,0-81.8,0-90.9,0c-2.3,0.4-4,2.4-4,4.9c0,4,0,35.9,0,39.9c0,2.8,2.1,5,4.8,5c8.9,0,80.5,0,89.4,0c2.4,0,4.4-1.9,4.7-4.3
						C99.4,62.3,99.4,33.5,99.4,29.4z"/>
				</g>
			</g>
		</g>
		<g>
			<g>
				<path id="g5jjnq26yS" d="M12.5,35.1h7.8v30.2h-7.8V35.1z"/>
			</g>
			<g>
				<g>
					<path id="g5jjnq26yS_00000001651532471685280220000014291811491401996212_" class="st1" d="M12.5,35.1h7.8v30.2h-7.8V35.1z"/>
				</g>
			</g>
		</g>
		<g>
			<g>
				<path id="i3Prh1JpXt" d="M35.2,49c-0.7-4.6-1-7.2-1.1-7.7c-0.3-2.5-0.6-4.6-0.9-6.4c-0.7,0-4.1,0-10.2,0v30.2h6.9l0-19.9
					l2.9,19.9h4.9l2.7-20.4l0,20.4h6.8V34.9H37L35.2,49z"/>
			</g>
			<g>
				<g>
					<path id="i3Prh1JpXt_00000088848346411040646890000002796413155492592284_" class="st1" d="M35.2,49c-0.7-4.6-1-7.2-1.1-7.7
						c-0.3-2.5-0.6-4.6-0.9-6.4c-0.7,0-4.1,0-10.2,0v30.2h6.9l0-19.9l2.9,19.9h4.9l2.7-20.4l0,20.4h6.8V34.9H37L35.2,49z"/>
				</g>
			</g>
		</g>
		<g>
			<g>
				<path id="a4ov9rRGQm" d="M60.2,41.2c0.1,0.4,0.1,1.3,0.1,2.6c0,1.2,0,10.5,0,11.7c0,2-0.1,3.2-0.4,3.7c-0.3,0.5-1,0.7-2.1,0.7
					c0-2,0-17.8,0-19.8c0.9,0,1.4,0.1,1.7,0.3C59.9,40.5,60.1,40.8,60.2,41.2z M63.7,64.8c0.9-0.2,1.7-0.6,2.4-1.1
					c0.6-0.5,1.1-1.2,1.3-2.1c0.3-0.9,0.4-2.7,0.4-5.4c0-1.1,0-9.5,0-10.6c0-2.9-0.1-4.8-0.3-5.7c-0.2-1-0.6-1.9-1.3-2.7
					c-0.7-0.8-1.7-1.4-3.1-1.7c-1.3-0.3-3.5-0.5-7.3-0.5c-0.4,0-2.3,0-5.9,0v30.2h9.5C61.7,65,63.1,64.9,63.7,64.8z"/>
			</g>
			<g>
				<g>
					<path id="a4ov9rRGQm_00000093179167294747549320000000651584371888473229_" class="st1" d="M60.2,41.2c0.1,0.4,0.1,1.3,0.1,2.6
						c0,1.2,0,10.5,0,11.7c0,2-0.1,3.2-0.4,3.7c-0.3,0.5-1,0.7-2.1,0.7c0-2,0-17.8,0-19.8c0.9,0,1.4,0.1,1.7,0.3
						C59.9,40.5,60.1,40.8,60.2,41.2z M63.7,64.8c0.9-0.2,1.7-0.6,2.4-1.1c0.6-0.5,1.1-1.2,1.3-2.1c0.3-0.9,0.4-2.7,0.4-5.4
						c0-1.1,0-9.5,0-10.6c0-2.9-0.1-4.8-0.3-5.7c-0.2-1-0.6-1.9-1.3-2.7c-0.7-0.8-1.7-1.4-3.1-1.7c-1.3-0.3-3.5-0.5-7.3-0.5
						c-0.4,0-2.3,0-5.9,0v30.2h9.5C61.7,65,63.1,64.9,63.7,64.8z"/>
				</g>
			</g>
		</g>
		<g>
			<g>
				<path id="fk968BpsX" d="M80.5,60.3c-0.1,0.4-0.8,0.6-1.3,0.6c-0.5,0-0.8-0.2-0.9-0.6c-0.2-0.4-0.2-1.2-0.2-2.5c0-0.8,0-7.2,0-8
					c0-1.4,0.1-2.2,0.2-2.6c0.1-0.3,0.4-0.5,0.9-0.5c0.5,0,1.1,0.2,1.3,0.6c0.2,0.4,0.2,1.2,0.2,2.5c0,0.5,0,3.1,0,7.7
					C80.6,59.1,80.6,60,80.5,60.3z M70.5,64.8h7.1c0.3-1.2,0.5-1.8,0.5-1.9c0.6,0.8,1.3,1.4,2.1,1.7c0.8,0.4,1.9,0.6,2.8,0.6
					c1.2,0,2.3-0.3,3.2-1c0.9-0.6,1.5-1.4,1.7-2.3c0.2-0.9,0.4-2.2,0.4-4c0-0.8,0-7.6,0-8.5c0-1.8,0-3-0.1-3.6
					c-0.1-0.6-0.3-1.1-0.7-1.7c-0.4-0.6-1-1-1.7-1.4S84,42.3,83,42.3c-0.9,0-2.1,0.2-2.8,0.5c-0.8,0.4-1.5,0.9-2.1,1.6
					c0-0.7,0-3.9,0-9.8h-7.6V64.8z"/>
			</g>
			<g>
				<g>
					<path id="fk968BpsX_00000171681610362347356630000018096148799075790763_" class="st1" d="M80.5,60.3c-0.1,0.4-0.8,0.6-1.3,0.6
						c-0.5,0-0.8-0.2-0.9-0.6c-0.2-0.4-0.2-1.2-0.2-2.5c0-0.8,0-7.2,0-8c0-1.4,0.1-2.2,0.2-2.6c0.1-0.3,0.4-0.5,0.9-0.5
						c0.5,0,1.1,0.2,1.3,0.6c0.2,0.4,0.2,1.2,0.2,2.5c0,0.5,0,3.1,0,7.7C80.6,59.1,80.6,60,80.5,60.3z M70.5,64.8h7.1
						c0.3-1.2,0.5-1.8,0.5-1.9c0.6,0.8,1.3,1.4,2.1,1.7c0.8,0.4,1.9,0.6,2.8,0.6c1.2,0,2.3-0.3,3.2-1c0.9-0.6,1.5-1.4,1.7-2.3
						c0.2-0.9,0.4-2.2,0.4-4c0-0.8,0-7.6,0-8.5c0-1.8,0-3-0.1-3.6c-0.1-0.6-0.3-1.1-0.7-1.7c-0.4-0.6-1-1-1.7-1.4S84,42.3,83,42.3
						c-0.9,0-2.1,0.2-2.8,0.5c-0.8,0.4-1.5,0.9-2.1,1.6c0-0.7,0-3.9,0-9.8h-7.6V64.8z"/>
				</g>
			</g>
		</g>
	</g>
</g>
</svg>
