<?xml version="1.0" encoding="utf-8"?>
<!-- Generator: Adobe Illustrator 27.0.0, SVG Export Plug-In . SVG Version: 6.00 Build 0)  -->
<svg version="1.1" id="Layer_1" xmlns="http://www.w3.org/2000/svg" xmlns:xlink="http://www.w3.org/1999/xlink" x="0px" y="0px"
	 viewBox="0 0 100 100" style="enable-background:new 0 0 100 100;" xml:space="preserve">
<style type="text/css">
	.st0{fill:url(#Background_00000132056585650639200110000018257100212639274889_);}
	.st1{fill:#FFFFFF;}
</style>
<g id="Symbols_6_">
	<g id="Graphics-_x2F_-App-Icons-_x2F_-Messages">
		<g id="Messages-Icon">
			
				<linearGradient id="Background_00000162346432441794134820000003491949588382279326_" gradientUnits="userSpaceOnUse" x1="-421.0167" y1="-648.35" x2="-421.0167" y2="-646.6833" gradientTransform="matrix(60 0 0 60 25311 38901)">
				<stop  offset="0" style="stop-color:#67FF81"/>
				<stop  offset="1" style="stop-color:#01B41F"/>
			</linearGradient>
			<path id="Background_5_" style="fill:url(#Background_00000162346432441794134820000003491949588382279326_);" d="M65.1,0
				c10,0,15,0,20.4,1.7c5.9,2.1,10.6,6.8,12.7,12.7c1.8,5.4,1.8,10.6,1.8,20.6v30.2c0,10,0,15-1.7,20.4c-2.1,5.9-6.8,10.6-12.7,12.7
				c-5.6,1.8-10.6,1.8-20.6,1.8H34.9c-10,0-15,0-20.4-1.7c-6-2.2-10.6-6.8-12.8-12.8C0,80.2,0,75.2,0,65.1V34.9c0-10,0-15,1.7-20.4
				C3.9,8.6,8.4,3.9,14.4,1.8C19.8,0,24.8,0,34.9,0H65.1z"/>
			<path class="st1" d="M42.8,78.6c2.3,0.3,4.7,0.6,7.1,0.6c20.2,0,36.7-13.7,36.7-30.4S70.2,18.3,50,18.3S13.3,32,13.3,48.8
				c0,11,7,20.6,17.4,25.9c0,0.3,0,0.7,0,1.1c0,3.2-5.3,7.4-5,7.4c5.3,0,9.1-3.3,11.7-4.1C39.6,78.6,40.8,78.4,42.8,78.6z"/>
		</g>
	</g>
</g>
</svg>
