<?xml version="1.0" encoding="utf-8"?>
<!-- Generator: Adobe Illustrator 27.0.0, SVG Export Plug-In . SVG Version: 6.00 Build 0)  -->
<svg version="1.1" id="Layer_1" xmlns="http://www.w3.org/2000/svg" xmlns:xlink="http://www.w3.org/1999/xlink" x="0px" y="0px"
	 viewBox="0 0 100 100" style="enable-background:new 0 0 100 100;" xml:space="preserve">
<style type="text/css">
	.st0{fill:#F7F7F7;}
	.st1{fill:#E81678;}
	.st2{clip-path:url(#SVGID_00000060713729264321024780000009907326488975917968_);fill:#E81678;}
	.st3{clip-path:url(#SVGID_00000152265498556658497180000012941508883641758609_);fill:#E81678;}
</style>
<path class="st0" d="M93.8,60.7H6.2c-2.1,0-3.8-1.7-3.8-3.8V43.1c0-2.1,1.7-3.8,3.8-3.8h87.7c2.1,0,3.8,1.7,3.8,3.8v13.7
	C97.7,59,95.9,60.7,93.8,60.7z"/>
<g>
	<polygon class="st1" points="7.9,56.3 7.9,43.7 4.5,43.7 4.5,56.3 7.9,56.3 	"/>
	<polygon class="st1" points="16.5,49.5 13.1,43.7 9.6,43.7 9.6,56.3 12.8,56.3 12.8,49.8 12.8,49.8 16.7,56.3 19.8,56.3 19.8,43.7 
		16.6,43.7 16.6,49.5 16.5,49.5 	"/>
	<path class="st1" d="M28.3,50c0,3.2-0.9,3.4-2.2,3.4h-1.2v-6.7h1C27.4,46.7,28.3,46.8,28.3,50L28.3,50z M21.5,43.7v12.7h4.3
		c4,0,5.9-1,5.9-6.4c0-5.2-1.9-6.3-6-6.3H21.5L21.5,43.7z"/>
	<g>
		<defs>
			<rect id="SVGID_1_" x="4.5" y="43.5" width="91" height="13"/>
		</defs>
		<clipPath id="SVGID_00000085966577958469691410000016930409743003152529_">
			<use xlink:href="#SVGID_1_"  style="overflow:visible;"/>
		</clipPath>
		<polygon style="clip-path:url(#SVGID_00000085966577958469691410000016930409743003152529_);fill:#E81678;" points="36.3,56.3 
			36.3,43.7 32.9,43.7 32.9,56.3 36.3,56.3 		"/>
		<path style="clip-path:url(#SVGID_00000085966577958469691410000016930409743003152529_);fill:#E81678;" d="M64.3,53.5
			c-1.9,0-2.1-1.3-2.1-3.4c0-2.1,0.3-3.4,2.1-3.4c1.8,0,2.1,1.3,2.1,3.4C66.4,52.2,66.2,53.5,64.3,53.5L64.3,53.5z M64.3,43.5
			c-4.7,0-5.6,3.1-5.6,6.5c0,3.4,0.8,6.5,5.6,6.5c4.7,0,5.5-3.1,5.5-6.5C69.9,46.6,69.1,43.5,64.3,43.5L64.3,43.5z"/>
		<path style="clip-path:url(#SVGID_00000085966577958469691410000016930409743003152529_);fill:#E81678;" d="M88.1,53.5
			c-1.9,0-2.1-1.3-2.1-3.4c0-2.1,0.3-3.4,2.1-3.4c1.8,0,2.1,1.3,2.1,3.4C90.2,52.2,89.9,53.5,88.1,53.5L88.1,53.5z M88.1,43.5
			c-4.7,0-5.6,3.1-5.6,6.5c0,3.4,0.8,6.5,5.6,6.5c4.7,0,5.5-3.1,5.5-6.5C93.6,46.6,92.8,43.5,88.1,43.5L88.1,43.5z"/>
	</g>
	<path class="st1" d="M94.7,56.1c-0.5,0-0.6-0.4-0.6-0.8c0-0.5,0.1-0.8,0.6-0.8c0.5,0,0.6,0.4,0.6,0.8
		C95.4,55.8,95.2,56.1,94.7,56.1L94.7,56.1z M94.7,54.3c-0.6,0-0.8,0.4-0.8,1c0,0.5,0.2,1,0.8,1c0.6,0,0.8-0.4,0.8-1
		C95.5,54.8,95.4,54.3,94.7,54.3L94.7,54.3z"/>
	<g>
		<defs>
			<rect id="SVGID_00000134965243180719398660000018293541153725212330_" x="4.5" y="43.5" width="91" height="13"/>
		</defs>
		<clipPath id="SVGID_00000044890031260756767510000006929566143844917899_">
			<use xlink:href="#SVGID_00000134965243180719398660000018293541153725212330_"  style="overflow:visible;"/>
		</clipPath>
		<path style="clip-path:url(#SVGID_00000044890031260756767510000006929566143844917899_);fill:#E81678;" d="M94.8,55.3h-0.2v-0.3
			h0.2c0.1,0,0.2,0,0.2,0.2C94.9,55.2,94.9,55.3,94.8,55.3L94.8,55.3z M95.2,55.1c0-0.2-0.1-0.4-0.4-0.4h-0.4v1.1h0.2v-0.4h0.1
			l0.2,0.4h0.2L95,55.4C95.1,55.4,95.2,55.3,95.2,55.1L95.2,55.1z"/>
		<path style="clip-path:url(#SVGID_00000044890031260756767510000006929566143844917899_);fill:#E81678;" d="M52.3,51.4h2.2v0.2
			c0,1.4,0,2-1.6,2c-1.6,0-2.1-0.7-2.1-3.6c0-3,0.9-3.3,2.2-3.3c1,0,1.7,0.3,2.3,0.6l1.8-2.8c-1-0.6-2.4-1-3.9-1
			c-4.4,0-5.8,2.1-5.8,6.5c0,3.8,1,6.5,5.2,6.5c0.7,0,1.4-0.1,1.9-0.2h3.1V51v-2.3h-4.9L52.3,51.4L52.3,51.4z"/>
		<path style="clip-path:url(#SVGID_00000044890031260756767510000006929566143844917899_);fill:#E81678;" d="M76,51.4h2.2v0.2
			c0,1.4,0,2-1.6,2c-1.6,0-2.1-0.7-2.1-3.6c0-3,0.9-3.3,2.2-3.3c1,0,1.7,0.3,2.3,0.6l1.8-2.8c-1-0.6-2.4-1-3.9-1
			c-4.4,0-5.8,2.1-5.8,6.5c0,3.8,1,6.5,5.2,6.5c0.7,0,1.4-0.1,1.9-0.2h3.1V51v-2.3h-4.9L76,51.4L76,51.4z"/>
	</g>
	<polygon class="st1" points="46.4,46.8 46.4,43.7 38,43.7 38,56.3 46.4,56.3 46.4,53.3 41.3,53.3 41.3,51.4 44.7,51.4 45.1,48.4 
		41.3,48.4 41.3,46.8 46.4,46.8 	"/>
</g>
</svg>
