<?xml version="1.0" encoding="utf-8"?>
<!-- Generator: Adobe Illustrator 27.0.0, SVG Export Plug-In . SVG Version: 6.00 Build 0)  -->
<svg version="1.1" id="Layer_1" xmlns="http://www.w3.org/2000/svg" xmlns:xlink="http://www.w3.org/1999/xlink" x="0px" y="0px"
	 viewBox="0 0 100 100" style="enable-background:new 0 0 100 100;" xml:space="preserve">
<style type="text/css">
	.st0{fill:#010202;}
</style>
<g>
	<path class="st0" d="M16.5,38.2c0.2-0.6,0.7-2-0.8-3.8c-1.4,2-3.4,1.9-5.4,1.9H5.1c-1.9,0-3.6,0.7-4.4,2.6c-0.8,2,0.8,3.8,0.8,3.8
		C3,40.7,5,40.7,7,40.8c0.1,0,1.2,0,3.3,0c0,0-0.9,0,1.8,0C14.1,40.7,15.7,40.1,16.5,38.2z"/>
	<path class="st0" d="M18.6,62c0.5-0.5,1.1-4.6-0.1-4.7c-0.5,3.1-3.6,3.8-4.3,3.8c-0.7,0-3.6,0-4,0c-2.1,0-2.4-0.1-5.1,0
		c-1.9,0-3.5,0.7-4.4,2.6c-0.3,0.6-0.3,1.3-0.1,1.9h9.7C10.3,65.7,14.8,65.9,18.6,62z"/>
	<path class="st0" d="M22.3,44.9c-2.4-0.4-4,0.8-5.6,2.4c1.5,1.1,1.8,2.5,1.8,4.2c0,0.3,0,7.3,0,7.5c0,0.7-0.1,3.2-0.1,3.2
		c1.7,4.3,5.3,4.6,8,1.4c-0.9-1-1.4-2.2-1.4-3.5c0-0.6,0-1.1,0-1.2c0-0.9,0-6.2,0-6.3c0-0.2,0-0.4,0.1-0.6c0.5-1.1,2.6-2.1,2.6-2.1
		c0.6-0.4,1.3-0.5,2-0.4c1.1,0.1,1.4,0.8,1.4,1.7l0,0c0,3,0,4.9,0,7.9c0,0.4,0,0.8,0,1.3c0,4.3,2.2,6.1,6.3,5
		c1.8-0.5,3.5-1.6,5.3-2.4c1.9,3.5,5.6,3.6,8,0.1c-1.9-1.8-1.8-2.8-1.8-7.2c1.4-0.2,2.8,0.3,3.5,1.4c0.7,1.2,1.3,2.4,1.6,3.8
		c1,3.8,3.4,5.4,7,4.2c1.7-0.5,4.9-2.2,4.9-2.2c0.7,2.1,2.4,2.7,4.5,2.6c2.5-0.2,6.7-3,7.6-3.7v-5.8c0,2.5-1.3,4.2-3.7,4.9
		c-1.3,0.4-2.2-0.2-2.3-1.6c0-0.4,0-11.3,0-11.8c0-3-2.2-4.3-4.7-3.6c-1.4,0.4-2.7,1.1-3.6,2.5c1.5,0.6,1.9,2.1,1.9,3.6
		c0,2.9,0,5.2,0,8c0,1.8-1.4,3.2-3.1,3.2c-0.1,0-0.2,0-0.3,0c-1.2-0.1-1.3-1.1-1.3-1.6c-0.4-4.4-2.1-5.4-5.3-5.7
		c-0.1,0,2-1.4,3.2-3.6c1.2-2.1,0.7-5-0.8-6.4c-1.3-1.1-3.6-1-5.6,0.4c-1.1,0.7-2.2,1.7-3.5,2.7c0,0,0-3.8,0-5.9c0-2-0.1-4,1.9-5.4
		c-1.8-1.6-3.6-1.7-5.6-0.8c-1.9,0.8-2.6,2.4-2.6,4.4c0,6.5,0,12.3,0,18.8c0,1.5-1.7,3.1-3.4,3.1c-1.3,0-1.7-0.6-1.7-2.8
		c0-3.6,0-5.8,0-9.4h0c0-1.5-0.5-2.9-1.4-3.7c-1.3-1.1-3.6-1-5.6,0.4c-1.1,0.7-2.2,1.7-3.5,2.7l-1.9,1.5
		C24.9,46.2,23.9,45.2,22.3,44.9z M48.9,48.8c0-0.8,1.5-1.6,2.8-1.4c1.1,0.2,1.5,0.9,1.4,1.9c-0.2,1.8-1.8,4-4.2,5.2
		C48.9,52.5,48.8,50.6,48.9,48.8z"/>
	<circle class="st0" cx="68.9" cy="37.7" r="3.4"/>
	<path class="st0" d="M81.4,34.9c-2-0.8-3.8-0.7-5.6,0.8c2,1.4,1.9,3.4,1.9,5.4c0,1,0,19.9,0,20.5c0,0.5,0.2,1.1,0.4,1.6
		c0.7,2.1,2.4,2.6,4.5,2.5c2.5-0.2,4.6-1.3,6.5-2.8c0.4-0.3,0.7-0.5,1.1-0.8v-5.8c0,2.5-1.3,4.2-3.7,4.9c-1.3,0.4-2.2-0.2-2.3-1.6
		c0-0.4,0-20.2,0-20.2C84,37.3,83.4,35.7,81.4,34.9z"/>
	<path class="st0" d="M95.4,39.2c0-1.9-0.7-3.5-2.6-4.4c-2-0.8-3.8-0.7-5.6,0.8c2,1.4,1.9,3.4,1.9,5.4c0,1,0,19.9,0,20.5
		c0,0.5,0.2,1.1,0.4,1.6c0.7,2.1,2.4,2.6,4.5,2.5c1.4-0.1,2.8-0.5,4-1.2c1.5-0.8,1.8-2.9,1.4-4.1c-0.5,0.3-1.1,0.5-1.6,0.7
		c-1.3,0.4-2.2-0.2-2.3-1.6C95.3,59.1,95.4,42.3,95.4,39.2z"/>
	<path class="st0" d="M12.5,38.5c0-1.9-6.3-0.1-6.3,1.9c0,1,0,20.6,0,21.2c0,0.5,0.2,1.1,0.4,1.6c0.7,2.1,2.4,2.6,4.5,2.5
		c2.5-0.2,4.6-1.3,6.5-2.8c0.4-0.3,0.7-0.5,1.1-0.8v-5.8c0,2.5-1.3,4.2-3.7,4.9c-1.3,0.4-2.2-0.2-2.3-1.6
		C12.5,59.1,12.5,41.6,12.5,38.5z"/>
	<path class="st0" d="M99.2,45.7c0.2-0.6,0.7-2-0.8-3.8c-1.4,2-3.4,1.9-5.4,1.9H78.2c-1.9,0-3.5,0.7-4.4,2.6c-0.8,2,0.8,3.8,0.8,3.8
		c1.4-1.9,3.4-1.9,5.4-1.9h13c0,0-0.9,0,1.8,0C96.8,48.3,98.4,47.6,99.2,45.7z"/>
</g>
</svg>
