<?xml version="1.0" encoding="utf-8"?>
<!-- Generator: Adobe Illustrator 27.0.0, SVG Export Plug-In . SVG Version: 6.00 Build 0)  -->
<svg version="1.1" id="Layer_1" xmlns="http://www.w3.org/2000/svg" xmlns:xlink="http://www.w3.org/1999/xlink" x="0px" y="0px"
	 viewBox="0 0 100 100" style="enable-background:new 0 0 100 100;" xml:space="preserve">
<style type="text/css">
	.st0{fill:url(#SVGID_1_);}
	.st1{fill:url(#SVGID_00000116205140972585085840000000967587624681806747_);}
	.st2{fill:#FFFFFF;}
</style>
<radialGradient id="SVGID_1_" cx="24.0141" cy="-306.1679" r="533.99" gradientTransform="matrix(0.2378 0 0 -0.2378 0.7622 25.014)" gradientUnits="userSpaceOnUse">
	<stop  offset="9.000000e-02" style="stop-color:#FA8F21"/>
	<stop  offset="0.78" style="stop-color:#D82D7E"/>
</radialGradient>
<path class="st0" d="M25.4,99.6c-5.9-0.3-9.2-1.3-11.3-2.1c-2.8-1.1-4.9-2.4-7-4.6c-2.1-2.1-3.5-4.2-4.6-7
	c-0.8-2.1-1.8-5.4-2.1-11.3C0.1,68.2,0,66.3,0,50s0.1-18.2,0.4-24.6c0.3-5.9,1.3-9.2,2.1-11.3C3.6,11.2,4.9,9.2,7,7
	c2.1-2.1,4.2-3.5,7-4.6c2.1-0.8,5.4-1.8,11.3-2.1C31.8,0.1,33.7,0,50,0c16.3,0,18.2,0.1,24.6,0.4c5.9,0.3,9.2,1.3,11.3,2.1
	c2.8,1.1,4.9,2.4,7,4.6s3.5,4.2,4.6,7c0.8,2.1,1.8,5.4,2.1,11.3c0.3,6.4,0.4,8.4,0.4,24.6c0,16.3-0.1,18.2-0.4,24.6
	c-0.3,5.9-1.3,9.2-2.1,11.3c-1.1,2.8-2.4,4.9-4.6,7c-2.1,2.1-4.2,3.5-7,4.6c-2.1,0.8-5.4,1.8-11.3,2.1c-6.4,0.3-8.4,0.4-24.6,0.4
	C33.7,100,31.8,99.9,25.4,99.6"/>
<radialGradient id="SVGID_00000026875596067049342390000001567616648217203606_" cx="288.1204" cy="-292.6629" r="469.9163" gradientTransform="matrix(0.2378 0 0 -0.2378 0.7622 25.014)" gradientUnits="userSpaceOnUse">
	<stop  offset="0.64" style="stop-color:#8C3AAA;stop-opacity:0"/>
	<stop  offset="1" style="stop-color:#8C3AAA"/>
</radialGradient>
<path style="fill:url(#SVGID_00000026875596067049342390000001567616648217203606_);" d="M25.4,99.6c-5.9-0.3-9.2-1.3-11.3-2.1
	c-2.8-1.1-4.9-2.4-7-4.6c-2.1-2.1-3.5-4.2-4.6-7c-0.8-2.1-1.8-5.4-2.1-11.3C0.1,68.2,0,66.3,0,50s0.1-18.2,0.4-24.6
	c0.3-5.9,1.3-9.2,2.1-11.3C3.6,11.2,4.9,9.2,7,7c2.1-2.1,4.2-3.5,7-4.6c2.1-0.8,5.4-1.8,11.3-2.1C31.8,0.1,33.7,0,50,0
	c16.3,0,18.2,0.1,24.6,0.4c5.9,0.3,9.2,1.3,11.3,2.1c2.8,1.1,4.9,2.4,7,4.6s3.5,4.2,4.6,7c0.8,2.1,1.8,5.4,2.1,11.3
	c0.3,6.4,0.4,8.4,0.4,24.6c0,16.3-0.1,18.2-0.4,24.6c-0.3,5.9-1.3,9.2-2.1,11.3c-1.1,2.8-2.4,4.9-4.6,7c-2.1,2.1-4.2,3.5-7,4.6
	c-2.1,0.8-5.4,1.8-11.3,2.1c-6.4,0.3-8.4,0.4-24.6,0.4C33.7,100,31.8,99.9,25.4,99.6"/>
<path class="st2" d="M37.7,50.2c0-6.8,5.5-12.4,12.4-12.4s12.4,5.5,12.4,12.4s-5.5,12.4-12.4,12.4S37.7,57.1,37.7,50.2 M31,50.2
	c0,10.5,8.5,19.1,19.1,19.1s19.1-8.5,19.1-19.1s-8.5-19.1-19.1-19.1S31,39.7,31,50.2 M65.5,30.4c0,2.5,2,4.5,4.5,4.5
	c2.5,0,4.5-2,4.5-4.5s-2-4.5-4.5-4.5h0C67.5,25.9,65.5,27.9,65.5,30.4 M35.1,80.5c-3.6-0.2-5.6-0.8-6.9-1.3c-1.7-0.7-3-1.5-4.3-2.8
	c-1.3-1.3-2.1-2.5-2.8-4.3c-0.5-1.3-1.1-3.3-1.3-6.9c-0.2-3.9-0.2-5.1-0.2-15s0-11.1,0.2-15c0.2-3.6,0.8-5.6,1.3-6.9
	c0.7-1.7,1.5-3,2.8-4.3s2.5-2.1,4.3-2.8c1.3-0.5,3.3-1.1,6.9-1.3c3.9-0.2,5.1-0.2,15-0.2s11.1,0,15,0.2c3.6,0.2,5.6,0.8,6.9,1.3
	c1.7,0.7,3,1.5,4.3,2.8s2.1,2.5,2.8,4.3c0.5,1.3,1.1,3.3,1.3,6.9c0.2,3.9,0.2,5.1,0.2,15s0,11.1-0.2,15c-0.2,3.6-0.8,5.6-1.3,6.9
	c-0.7,1.7-1.5,3-2.8,4.3c-1.3,1.3-2.5,2.1-4.3,2.8c-1.3,0.5-3.3,1.1-6.9,1.3c-3.9,0.2-5.1,0.2-15,0.2S39,80.6,35.1,80.5 M34.8,13.3
	c-4,0.2-6.7,0.8-9,1.7c-2.4,0.9-4.5,2.2-6.6,4.3s-3.3,4.1-4.3,6.6c-0.9,2.4-1.5,5.1-1.7,9c-0.2,4-0.2,5.2-0.2,15.3s0,11.4,0.2,15.3
	c0.2,4,0.8,6.7,1.7,9c0.9,2.4,2.2,4.5,4.3,6.6c2.1,2.1,4.1,3.3,6.6,4.3c2.4,0.9,5.1,1.5,9,1.7c4,0.2,5.2,0.2,15.3,0.2
	s11.4,0,15.3-0.2c4-0.2,6.7-0.8,9-1.7c2.4-1,4.5-2.2,6.6-4.3c2.1-2.1,3.3-4.1,4.3-6.6c0.9-2.4,1.5-5.1,1.7-9c0.2-4,0.2-5.2,0.2-15.3
	s0-11.4-0.2-15.3c-0.2-4-0.8-6.7-1.7-9c-1-2.4-2.2-4.5-4.3-6.6C79,17.2,76.9,16,74.4,15c-2.4-0.9-5.1-1.5-9-1.7
	c-4-0.2-5.2-0.2-15.3-0.2S38.8,13.1,34.8,13.3"/>
</svg>
