<?xml version="1.0" encoding="utf-8"?>
<!-- Generator: Adobe Illustrator 27.0.0, SVG Export Plug-In . SVG Version: 6.00 Build 0)  -->
<svg version="1.1" id="Layer_1" xmlns="http://www.w3.org/2000/svg" xmlns:xlink="http://www.w3.org/1999/xlink" x="0px" y="0px"
	 viewBox="0 0 100 100" style="enable-background:new 0 0 100 100;" xml:space="preserve">
<style type="text/css">
	.st0{fill:#449294;}
	.st1{fill:#336D6F;}
</style>
<g>
	<polygon class="st0" points="50,3.4 9.7,25 6.7,75 50,97.2 93.3,75 93.3,25 	"/>
	<path class="st1" d="M50,0L6.7,25v50L50,100l43.3-25V25L50,0z M45.5,6L45.5,6c2.7,2,6.3,2,8.9,0l31.4,18.1c-0.1,0.6-0.1,1.1,0,1.7
		L54.4,44c-2.6-2-6.3-2-8.9,0L14.1,25.8c0.1-0.6,0.1-1.1,0-1.7L45.5,6z M88.8,30.8c0.5,0.3,0.9,0.6,1.5,0.8v36.2
		c-3,1.3-4.8,4.4-4.5,7.7L54.5,93.8c-0.5-0.3-0.9-0.6-1.5-0.8l0-36.1c3-1.3,4.8-4.4,4.5-7.7L88.8,30.8z M11.1,31l31.4,18.1
		c-0.4,3.3,1.4,6.4,4.5,7.7v36.2c-0.5,0.2-1,0.5-1.5,0.8L14.1,75.8c0.4-3.3-1.4-6.4-4.5-7.7V31.9C10.2,31.6,10.7,31.4,11.1,31
		L11.1,31z"/>
</g>
</svg>
