<?xml version="1.0" encoding="utf-8"?>
<!-- Generator: Adobe Illustrator 27.0.0, SVG Export Plug-In . SVG Version: 6.00 Build 0)  -->
<svg version="1.1" id="Layer_1" xmlns="http://www.w3.org/2000/svg" xmlns:xlink="http://www.w3.org/1999/xlink" x="0px" y="0px"
	 viewBox="0 0 100 100" style="enable-background:new 0 0 100 100;" xml:space="preserve">
<style type="text/css">
	.st0{fill-rule:evenodd;clip-rule:evenodd;fill:#00CC36;}
</style>
<g id="切图">
	<g id="Logo">
		<path id="形状结合" class="st0" d="M98.9,74.3c0.5,0,0.6,0.5,0.5,0.8c-0.1,2.1-0.7,4.9-2.1,6.9c-1.3,2-2.6,2.9-4.5,3.8
			c-5.5,2.5-22.6,4.8-42.8,4.8l0,0c-20.2,0-37.4-2.2-42.8-4.8C5.3,84.9,4,83.9,2.6,82c-1.3-2-1.9-4.8-2-6.9c0-0.3,0.1-0.8,0.6-0.8
			l0,0l8.1,0c0.5,0,0.5,0.4,0.7,0.7c0.3,1,1.1,2.4,1.9,3.2c1.5,1.3,2.5,1.7,4.6,2c8.4,1.2,21.9,1.9,33.6,1.9
			c11.6,0,25.1-0.7,33.6-1.9c2.1-0.3,3.1-0.7,4.6-2c0.9-0.8,1.6-2.3,2-3.2c0.1-0.3,0.2-0.7,0.7-0.7l0,0L98.9,74.3z M27.5,27.7
			c6.5,0,11.7,3.2,11.7,7l0,0v30.4c0,2.3-1.8,4.3-4.5,5.5c0.1,0.2,0.6,0.3,1.4,0.3l3.6,0c0.1,0,0.8,0,0.8,0.8l0,0v3
			c0,0.4-0.3,0.8-0.8,0.8l0,0h-4.2c-2.1,0-3.3-0.4-4.3-1.2c-0.6-0.7-0.9-1.2-1-2.2c-0.9,0.1-1.8,0.2-2.7,0.2c-6.5,0-11.7-3.1-11.7-7
			l0,0V34.8C15.8,30.9,21.1,27.7,27.5,27.7z M53.8,29c0.4,0,0.8,0.3,0.8,0.8l0,0v40.4c0,0.4-0.3,0.8-0.8,0.8l0,0h-7.7
			c-0.4,0-0.8-0.3-0.8-0.8l0,0V29.8c0-0.4,0.3-0.8,0.8-0.8l0,0H53.8z M9,42.6c0.4,0,0.8,0.3,0.8,0.8l0,0v26.7c0,0.4-0.3,0.8-0.8,0.8
			l0,0H1.3c-0.4,0-0.8-0.4-0.8-0.8l0,0V43.4c0-0.4,0.3-0.8,0.8-0.8l0,0H9z M78.2,28.9l7.7,0c0.4,0,0.9,0.3,0.9,0.8
			c0,0.1,0,0.2-0.1,0.3l0,0l-9.6,25.1v15c0,0.4-0.3,0.8-0.8,0.8l0,0h-7.9c-0.4,0-0.8-0.4-0.8-0.8l0,0v-15L58.1,30
			c0,0-0.1-0.2-0.1-0.3c0-0.4,0.2-0.7,0.6-0.8l0,0l8.1,0c0.3,0,0.6,0.2,0.7,0.5l0,0l5.1,13.2l5-13.1C77.5,29.4,77.7,28.9,78.2,28.9
			L78.2,28.9z M98.7,28.9c0.4,0,0.8,0.4,0.8,0.8l0,0v40.4c0,0.4-0.3,0.8-0.8,0.8l0,0H91c-0.4,0-0.8-0.3-0.8-0.8l0,0V29.7
			c0-0.4,0.3-0.8,0.8-0.8l0,0H98.7z M27.5,32.8c-1.4,0-2.6,0.9-2.6,1.9l0,0v30.7c0,1.1,1.1,1.9,2.6,1.9c1.4,0,2.6-0.9,2.6-1.9l0,0
			V34.8C30.1,33.7,29,32.8,27.5,32.8z M9,28.9c0.4,0,0.8,0.4,0.8,0.8l0,0v7.8c0,0.4-0.3,0.8-0.8,0.8l0,0H1.3c-0.4,0-0.8-0.4-0.8-0.8
			l0,0v-7.8c0-0.4,0.3-0.8,0.8-0.8l0,0H9z M51.1,9.5c19.7,0.1,36.3,2.3,41.7,4.8c1.9,0.9,3.2,1.8,4.5,3.8c1.4,1.9,1.9,4.8,2.1,6.9
			c0.1,0.3-0.1,0.7-0.5,0.7l0,0l-8.1,0c-0.5,0-0.6-0.4-0.7-0.7c-0.3-0.9-1.1-2.4-1.9-3.2c-1.5-1.3-2.5-1.8-4.6-2
			c-8.4-1.3-21.9-1.9-33.6-1.9c-11.6,0-25.1,0.6-33.6,1.9c-2.1,0.3-3.1,0.7-4.6,2c-0.9,0.8-1.6,2.3-1.9,3.2
			c-0.1,0.3-0.2,0.7-0.7,0.7l0,0l-8.1,0c-0.5,0-0.6-0.5-0.6-0.7c0.1-2.1,0.7-5,2-6.9c1.4-2,2.7-2.9,4.6-3.8
			c5.5-2.6,22.6-4.8,42.8-4.8L51.1,9.5z"/>
	</g>
</g>
</svg>
