<?xml version="1.0" encoding="utf-8"?>
<!-- Generator: Adobe Illustrator 27.0.0, SVG Export Plug-In . SVG Version: 6.00 Build 0)  -->
<svg version="1.1" id="Layer_1" xmlns="http://www.w3.org/2000/svg" xmlns:xlink="http://www.w3.org/1999/xlink" x="0px" y="0px"
	 viewBox="0 0 100 100" style="enable-background:new 0 0 100 100;" xml:space="preserve">
<style type="text/css">
	.st0{fill:#FBC32F;}
	.st1{fill:#010101;}
	.st2{fill:#EBF5FA;}
</style>
<g>
	<path class="st0" d="M28.9,18.7c6.2-7.3,13.3-13.5,21.8-17.3C61-3.1,64.6,4,65.5,9.1c1.3,7.9,2.4,15.8,3.9,23.6
		c0.1,0.3,0.2,0.5,0.5,0.6c8.3,2,15.8,2.9,23.7,4.4c7.4,1.4,9.6,7.6-0.2,19.1c-5,5.9-12.1,9-19,11c-0.5,0.2-0.7,0.3-0.6,0.9
		c0.3,6.8,1.4,14.3,2.1,21.2c0.9,9.7-7.2,11.7-19.4,5.2c-6.6-3.5-12.6-7.9-18.3-12.7c-0.6-0.5-0.9-0.5-1.6,0
		c-4.2,3.4-8.4,6.4-14.1,10.3c-6.3,4.2-11.2,0.2-13.6-7.6c-3.7-12.2-0.9-22.7,1.7-32.2c0.2-0.9,0.3-1.5-0.3-2.2
		C2.7,39.8,0.6,32.7,0,23.1c-0.5-9.3,5.2-13,9.1-10.9c7.9,4.4,12.7,6.1,18.3,7C28.2,19.4,28.4,19.3,28.9,18.7L28.9,18.7z"/>
	<path class="st1" d="M19.2,46.5c1.9,0,3.7-0.5,5.6-2.1c0.7-0.6-1.4,2-2.5,2.6c1.1,8,4.1,16.9,11.1,19.2c8.3,2.7,19.3-2.9,25.2-7.4
		c-0.2-1.7,0.8-4.2,0.8-3.4c-0.1,2.3,0.4,4.4,1.8,5.8c0.7,0.8-1.6-0.8-2.2-1.6c-7.4,5.9-17.8,12.2-27,9.1
		c-7.3-2.5-9.2-11.9-10.6-21.4C20.6,47.3,18.6,46.6,19.2,46.5L19.2,46.5z"/>
	<path class="st2" d="M47.1,32.2C46.6,27.8,45,24,41,23.3c-5.2-0.9-11.7,7.5-12.4,16.8c-0.5,6,0.8,10.6,4.8,11.3
		c4.3,0.8,6.7-2,8.9-4.8c-0.2,4.1,0.8,9.3,5.4,10.3c5,1,9.2-3.8,11.2-10.3c2.2-7.6,1.5-15.8-4-17.6C52.5,28.1,49.2,29.7,47.1,32.2
		L47.1,32.2z"/>
	<path class="st1" d="M37.9,33.2c-0.5,2.1-0.8,5.5,1.1,5.7c1.7,0.2,3.3-2.2,3.9-3.9c1.3-3.9,0.9-6.6-0.5-6.9
		C40.9,27.7,38.8,29.5,37.9,33.2z M52.3,38.9c-0.3,2.2-0.4,5.5,1.5,5.7c1.7,0.1,3.1-2.4,3.5-4.3c1-3.9,0.3-6.6-1.1-6.9
		C54.9,33.2,52.9,35.1,52.3,38.9L52.3,38.9z"/>
	<path class="st2" d="M41.7,29.5c0.7,0,1.3,0.6,1.3,1.3c0,0,0,0,0,0c0,0.7-0.6,1.3-1.3,1.3c0,0,0,0,0,0c-0.7,0-1.3-0.6-1.3-1.3
		C40.4,30.1,41,29.5,41.7,29.5z M55.9,35c0.7,0,1.3,0.6,1.3,1.3c0,0,0,0,0,0c0,0.7-0.6,1.3-1.3,1.3c-0.7,0-1.3-0.6-1.3-1.3
		C54.6,35.6,55.2,35,55.9,35C55.9,35,55.9,35,55.9,35z"/>
</g>
</svg>
