<?xml version="1.0" encoding="utf-8"?>
<!-- Generator: Adobe Illustrator 27.0.0, SVG Export Plug-In . SVG Version: 6.00 Build 0)  -->
<svg version="1.1" id="Layer_1" xmlns="http://www.w3.org/2000/svg" xmlns:xlink="http://www.w3.org/1999/xlink" x="0px" y="0px"
	 viewBox="0 0 100 100" style="enable-background:new 0 0 100 100;" xml:space="preserve">
<style type="text/css">
	.st0{fill:#FFE812;}
</style>
<g>
	<path class="st0" d="M100,92.2c0,4.3-3.5,7.8-7.8,7.8H7.8C3.5,100,0,96.5,0,92.2V7.8C0,3.5,3.5,0,7.8,0h84.4c4.3,0,7.8,3.5,7.8,7.8
		V92.2z"/>
	<path d="M50,14.1c-22.4,0-40.6,14.3-40.6,32c0,11.4,7.6,21.5,19,27.1c-0.6,2.1-4,13.8-4.1,14.7c0,0-0.1,0.7,0.4,1
		c0.4,0.3,1,0.1,1,0.1c1.3-0.2,14.8-9.7,17.2-11.3c2.3,0.3,4.8,0.5,7.2,0.5c22.4,0,40.6-14.3,40.6-32C90.6,28.4,72.4,14.1,50,14.1
		L50,14.1z"/>
	<path class="st0" d="M27.5,57.3c-1.3,0-2.3-1-2.3-2.2V41.1h-3.7c-1.3,0-2.3-1-2.3-2.3s1-2.3,2.3-2.3h12c1.3,0,2.3,1,2.3,2.3
		s-1,2.3-2.3,2.3h-3.7V55C29.9,56.3,28.8,57.3,27.5,57.3z M48.1,57.2c-1,0-1.7-0.4-2-1l-1.2-3l-7.1,0l-1.2,3c-0.2,0.6-1,1-1.9,1
		c-0.5,0-1-0.1-1.5-0.3c-0.6-0.3-1.3-1.1-0.6-3.3l5.6-14.8c0.4-1.1,1.6-2.3,3.1-2.3c1.5,0,2.7,1.2,3.1,2.3l5.6,14.7
		c0.7,2.2,0.1,3-0.6,3.3C49.1,57.1,48.6,57.2,48.1,57.2C48.1,57.2,48.1,57.2,48.1,57.2L48.1,57.2z M43.7,49l-2.3-6.7L39.1,49
		L43.7,49L43.7,49z M53.9,56.9c-1.2,0-2.2-1-2.2-2.1V38.9c0-1.3,1.1-2.3,2.4-2.3s2.4,1.1,2.4,2.3v13.8h5c1.2,0,2.2,1,2.2,2.1
		s-1,2.1-2.2,2.1H53.9z M66.9,57.2c-1.3,0-2.3-1.1-2.3-2.3v-16c0-1.3,1.1-2.3,2.3-2.3s2.3,1.1,2.3,2.3v5l6.5-6.5
		c0.3-0.3,0.8-0.5,1.3-0.5c0.6,0,1.2,0.3,1.6,0.7c0.4,0.4,0.7,0.9,0.7,1.5c0,0.6-0.2,1.1-0.5,1.4l-5.3,5.3l5.8,7.6
		c0.4,0.5,0.5,1.1,0.4,1.7c-0.1,0.6-0.4,1.2-0.9,1.5c-0.4,0.3-0.9,0.5-1.4,0.5c-0.7,0-1.4-0.3-1.9-0.9L70.1,49l-0.8,0.8v5.1
		C69.3,56.2,68.2,57.2,66.9,57.2L66.9,57.2z"/>
</g>
</svg>
