<?xml version="1.0" encoding="utf-8"?>
<!-- Generator: Adobe Illustrator 27.0.0, SVG Export Plug-In . SVG Version: 6.00 Build 0)  -->
<svg version="1.1" id="Layer_1" xmlns="http://www.w3.org/2000/svg" xmlns:xlink="http://www.w3.org/1999/xlink" x="0px" y="0px"
	 viewBox="0 0 100 100" style="enable-background:new 0 0 100 100;" xml:space="preserve">
<style type="text/css">
	.st0{fill:#F7F7F7;}
	.st1{fill:#05CE78;}
</style>
<path class="st0" d="M84.8,96H15.2C9,96,4,91,4,84.8V15.2C4,9,9,4,15.2,4h69.6C91,4,96,9,96,15.2v69.6C96,91,91,96,84.8,96z"/>
<g>
	<g>
		<path class="st1" d="M72.7,50l7.3-7.3c7.6-7.6,7.6-19.9,0-27.4c-7.6-7.6-20-7.6-27.6,0l-2.7,2.7c-3.5-5.1-9.4-8.3-16.1-8.3
			C23,9.6,14.2,18.3,14.2,29v42c0,10.7,8.7,19.4,19.5,19.4c6.7,0,12.5-3.3,16.1-8.3l2.7,2.7c7.6,7.6,20,7.6,27.6,0
			c7.6-7.6,7.6-19.9,0-27.4L72.7,50L72.7,50L72.7,50z"/>
	</g>
</g>
</svg>
