<?xml version="1.0" encoding="utf-8"?>
<!-- Generator: Adobe Illustrator 27.0.0, SVG Export Plug-In . SVG Version: 6.00 Build 0)  -->
<svg version="1.1" id="Layer_1" xmlns="http://www.w3.org/2000/svg" xmlns:xlink="http://www.w3.org/1999/xlink" x="0px" y="0px"
	 viewBox="0 0 100 100" style="enable-background:new 0 0 100 100;" xml:space="preserve">
<style type="text/css">
	.st0{fill:#FF5B00;}
</style>
<g>
	<path class="st0" d="M6.5,23c2.3,3.1,5,6,7.9,8.5c0,0,0.1,0,0.1,0.1c1.9,1.6,5.4,3.9,8,4.8c0,0,16,6.2,16.9,6.5
		c0.3,0.1,0.6,0.2,1,0.3c1.5,0.3,3-0.7,3.3-2.3c0-0.3,0.1-0.7,0.1-1V21.8c0-2.7-0.8-6.9-1.6-9.2c0,0,0-0.1,0-0.1
		C40.7,8.8,39,5.3,36.9,2l-0.2-0.3c-0.9-1.3-2.7-1.5-3.9-0.7c-0.2,0.1-0.4,0.3-0.5,0.5L31.9,2c-2.8,4.1-4,9.1-3.2,14.1
		c-1.1,0.6-2.2,1.2-3.2,1.9c-0.2,0.1-1.7,1.2-2.9,2.3c-4.3-2.5-9.4-3.2-14.3-2c-0.2,0-0.4,0.1-0.6,0.1c-0.2,0.1-0.4,0.2-0.6,0.3
		c-1.3,0.9-1.6,2.6-0.8,3.9L6.5,23L6.5,23z M34.4,5c1.5,2.5,2.8,5.1,3.8,7.9c-2,0.4-4,0.9-6,1.6C32,11.2,32.8,7.8,34.4,5z
		 M19.8,23.1c-1.4,1.5-2.6,3.2-3.7,5c-2.2-1.9-4.2-4.1-6-6.4C13.4,21.1,16.8,21.6,19.8,23.1z M73.5,21.8c-3.1-1.2-6.4-1.8-9.7-2
		c-5.4-0.3-10.8,0.9-15.7,3.4l-0.9,0.4v16.1c0,0.2,0,1.1-0.1,1.8c-0.3,1.6-1.3,3.1-2.7,4c-1.4,1-3.1,1.3-4.7,1
		c-0.6-0.1-1.1-0.3-1.7-0.5c-4.7-1.8-9.3-3.6-14-5.4c-0.4-0.2-0.9-0.4-1.3-0.5C17,45,11.7,50.3,6.9,56l-0.3,0.4
		c-0.9,1.3-0.6,3.1,0.7,4c0.4,0.3,1,0.5,1.5,0.5c0.6,0,1.2-0.1,1.7-0.5c0,0,0.1-0.1,0.2-0.1c5.4-3.9,11.4-7.1,17.6-9.6
		c1.1-0.6,2.5-0.4,3.4,0.5c1,1,1.1,2.6,0.2,3.8l-1,1.6c-3.4,5.6-6.1,11.5-8.1,17.7l-0.1,0.5c-0.2,0.8,0,1.6,0.4,2.2
		c0.5,0.7,1.4,1.2,2.3,1.2c0.6,0,1.2-0.1,1.7-0.5c0.2-0.2,0.4-0.4,0.6-0.6L28,77c2.2-3.1,4.6-6.1,7.3-8.9
		c11.9-12.7,27.4-21.4,44.5-24.8c0.1,0,0.3,0,0.4,0c1,0,1.7,0.9,1.7,1.9c0,0.8-0.6,1.5-1.4,1.6c-16.1,3.4-45.1,22.5-34.9,50.3
		c0.2,0.4,0.3,0.7,0.5,1.1c0.5,0.7,1.3,1.2,2.2,1.2c1.1,0,2.2-0.6,2.7-1.6c1.6-3.1,4.7-6.6,13.7-10.3c25-10.3,29.1-25.1,29.5-34.5
		v-0.5C94.6,38.9,86.3,26.6,73.5,21.8L73.5,21.8z M48.4,95c-2.3-6.9-2.1-13.5,0.6-19.9c5.2,8.4,14.2,9.1,14.2,9.1
		C54,88.1,50.4,91.9,48.4,95z"/>
</g>
</svg>
