<?xml version="1.0" encoding="utf-8"?>
<!-- Generator: Adobe Illustrator 27.0.0, SVG Export Plug-In . SVG Version: 6.00 Build 0)  -->
<svg version="1.1" id="Layer_1" xmlns="http://www.w3.org/2000/svg" xmlns:xlink="http://www.w3.org/1999/xlink" x="0px" y="0px"
	 viewBox="0 0 100 100" style="enable-background:new 0 0 100 100;" xml:space="preserve">
<style type="text/css">
	.st0{fill:#29ABE0;}
	.st1{fill:#FFFFFF;}
	.st2{fill:#FF5E5B;}
</style>
<g id="g856" transform="matrix(1.9656019,0,0,1.9656019,-2.8167172e-7,-51.10565)">
	<g id="Group-4" transform="translate(0,26)">
		<circle id="Oval" class="st0" cx="25.4" cy="25.4" r="25.4"/>
		<path id="Rectangle-2" class="st1" d="M34.8,13.7h2.5c4.8,0,8.8,3.9,8.8,8.8V23c0,4.8-3.9,8.8-8.8,8.8h-2.5v2.6c0,2.2-1.8,4-4,4
			H11.6c-2.2,0-4-1.8-4-4V15.8c0-1.1,0.9-2,2-2H34.8z M34.8,18.4v8.7h2.3c2.4,0,4.3-1.9,4.3-4.3s-1.9-4.3-4.3-4.3H34.8z"/>
	</g>
	<g id="Group" transform="translate(4.84,34.8)">
		<path id="Path-2" class="st2" d="M15.8,13.2c0.6-1.8,2.1-2.7,4.4-2.7c3.5,0,4.8,4.4,3,7.2c-1.2,1.9-3.7,4.3-7.4,7.2
			c-3.7-2.9-6.2-5.3-7.4-7.2c-1.8-2.9-0.5-7.2,3-7.2C13.7,10.4,15.2,11.4,15.8,13.2z"/>
	</g>
</g>
</svg>
