<?xml version="1.0" encoding="utf-8"?>
<!-- Generator: Adobe Illustrator 27.0.0, SVG Export Plug-In . SVG Version: 6.00 Build 0)  -->
<svg version="1.1" id="Layer_1" xmlns="http://www.w3.org/2000/svg" xmlns:xlink="http://www.w3.org/1999/xlink" x="0px" y="0px"
	 viewBox="0 0 100 100" style="enable-background:new 0 0 100 100;" xml:space="preserve">
<style type="text/css">
	.st0{fill:#FF4906;}
</style>
<g>
	<path class="st0" d="M76.3,51.3c9.7,0,17.5,7.8,17.5,17.4c0,0,0,0,0,0v13.9c0,9.7-7.9,17.5-17.5,17.4H50.5c-7.6,0-14.3-4.8-16.7-12
		l-15.4,7.7C14.3,97.7,9.2,96,7,91.8c-0.6-1.2-0.9-2.5-0.9-3.8V63.3c0-4.7,3.9-8.5,8.6-8.5c1.3,0,2.6,0.3,3.8,0.9l15.3,7.7
		c2.3-7.2,9.1-12.1,16.7-12.1H76.3L76.3,51.3z M76.2,60.2H50.8c-4.8,0-8.7,3.8-8.8,8.6v13.5c0,4.8,3.8,8.7,8.6,8.7h25.4
		c4.8,0,8.7-3.8,8.7-8.6V69C84.8,64.2,81,60.3,76.2,60.2L76.2,60.2z M17.5,65.7c-1.3,0-2.3,1-2.3,2.3v15.6c0,1.3,1.1,2.3,2.4,2.3
		c0.3,0,0.7-0.1,1-0.2h0L33,78.3v-5.2l-14.4-7.2C18.2,65.8,17.9,65.7,17.5,65.7L17.5,65.7z M38.9,0c8.6,0,16.5,4.6,20.7,12
		c8.2-7.6,21-7.1,28.6,1.1s7.1,21-1.1,28.6s-21,7.1-28.6-1.1c-0.5-0.6-1-1.2-1.5-1.8c-8.4,10.1-23.3,11.4-33.3,3.1
		c-10.1-8.4-11.4-23.3-3.1-33.3C25.1,3.1,31.8,0,38.9,0z M38.9,9.5c-7.8,0-14.1,6.4-14,14.2c0,7.8,6.4,14.1,14.2,14
		c7.8,0,14-6.3,14-14.1C53.1,15.8,46.7,9.5,38.9,9.5C38.9,9.5,38.9,9.5,38.9,9.5z M73.5,16.1c-6,0-10.8,4.8-10.8,10.8l0,0
		c0,6,4.9,10.8,10.8,10.8l0,0c6,0,10.8-4.8,10.8-10.8l0,0C84.3,20.9,79.4,16.1,73.5,16.1z"/>
</g>
</svg>
