<?xml version="1.0" encoding="utf-8"?>
<!-- Generator: Adobe Illustrator 27.0.0, SVG Export Plug-In . SVG Version: 6.00 Build 0)  -->
<svg version="1.1" id="Layer_1" xmlns="http://www.w3.org/2000/svg" xmlns:xlink="http://www.w3.org/1999/xlink" x="0px" y="0px"
	 viewBox="0 0 100 100" style="enable-background:new 0 0 100 100;" xml:space="preserve">
<style type="text/css">
	.st0{fill-rule:evenodd;clip-rule:evenodd;fill:#202830;}
	.st1{fill-rule:evenodd;clip-rule:evenodd;fill:#00E054;}
	.st2{filter:url(#Adobe_OpacityMaskFilter);}
	.st3{fill-rule:evenodd;clip-rule:evenodd;fill:#FFFFFF;}
	.st4{mask:url(#mask-2_00000027572665530893337130000014387218421842269581_);fill-rule:evenodd;clip-rule:evenodd;fill:#40BCF4;}
	.st5{filter:url(#Adobe_OpacityMaskFilter_00000013898532613005140470000017007179035100190346_);}
	.st6{mask:url(#mask-4_00000059996130403317048200000015750757146816885930_);fill-rule:evenodd;clip-rule:evenodd;fill:#FF8000;}
</style>
<g id="letterboxd-decal-dots-pos-rgb">
	<circle id="Circle" class="st0" cx="50" cy="50" r="50"/>
	<g id="dots-neg" transform="translate(61.000000, 180.000000)">
		<g id="Dots">
			<ellipse id="Green" class="st1" cx="-11" cy="-130" rx="14" ry="14"/>
			<g id="Blue" transform="translate(248.152672, 0.000000)">
				<g id="Mask">
				</g>
				<defs>
					<filter id="Adobe_OpacityMaskFilter" filterUnits="userSpaceOnUse" x="-249.4" y="-144" width="28" height="28">
						<feColorMatrix  type="matrix" values="1 0 0 0 0  0 1 0 0 0  0 0 1 0 0  0 0 0 1 0"/>
					</filter>
				</defs>
				
					<mask maskUnits="userSpaceOnUse" x="-249.4" y="-144" width="28" height="28" id="mask-2_00000027572665530893337130000014387218421842269581_">
					<g class="st2">
						
							<rect id="path-1_00000046321927312647131010000003916245815409063356_" x="-247.3" y="-144" class="st3" width="26" height="28.3"/>
					</g>
				</mask>
				<ellipse class="st4" cx="-235.4" cy="-130" rx="14" ry="14"/>
			</g>
			<g id="Orange">
				<g id="Mask_00000139980559294380645880000007496763279151895466_">
				</g>
				<defs>
					
						<filter id="Adobe_OpacityMaskFilter_00000161591715078689934030000017028366965129899440_" filterUnits="userSpaceOnUse" x="-48.8" y="-144" width="28" height="28">
						<feColorMatrix  type="matrix" values="1 0 0 0 0  0 1 0 0 0  0 0 1 0 0  0 0 0 1 0"/>
					</filter>
				</defs>
				
					<mask maskUnits="userSpaceOnUse" x="-48.8" y="-144" width="28" height="28" id="mask-4_00000059996130403317048200000015750757146816885930_">
					<g style="filter:url(#Adobe_OpacityMaskFilter_00000161591715078689934030000017028366965129899440_);">
						
							<rect id="path-3_00000024710605079860256410000014425752018657431994_" x="-48.8" y="-144" class="st3" width="26" height="28.3"/>
					</g>
				</mask>
				<ellipse class="st6" cx="-34.8" cy="-130" rx="14" ry="14"/>
			</g>
			<path id="Overlap" class="st3" d="M-22.9-122.6c-1.3-2.1-2.1-4.7-2.1-7.4c0-2.7,0.8-5.3,2.1-7.4c1.3,2.1,2.1,4.7,2.1,7.4
				C-20.8-127.3-21.5-124.7-22.9-122.6z"/>
			<path id="Overlap_00000051383333258956099440000015974487105358890405_" class="st3" d="M0.9-137.4c1.3,2.1,2.1,4.7,2.1,7.4
				c0,2.7-0.8,5.3-2.1,7.4c-1.3-2.1-2.1-4.7-2.1-7.4C-1.2-132.7-0.5-135.3,0.9-137.4z"/>
		</g>
	</g>
</g>
</svg>
