<?xml version="1.0" encoding="utf-8"?>
<!-- Generator: Adobe Illustrator 27.0.0, SVG Export Plug-In . SVG Version: 6.00 Build 0)  -->
<svg version="1.1" id="Layer_1" xmlns="http://www.w3.org/2000/svg" xmlns:xlink="http://www.w3.org/1999/xlink" x="0px" y="0px"
	 viewBox="0 0 100 100" style="enable-background:new 0 0 100 100;" xml:space="preserve">
<style type="text/css">
	.st0{fill:#ED1C24;}
	.st1{fill:#FFFFFF;}
</style>
<g>
	<g>
		<path class="st0" d="M6.6,0h86.7C97,0,100,3,100,6.6v86.7c0,3.7-3,6.6-6.6,6.6H6.6C3,100,0,97,0,93.4V6.6C0,3,3,0,6.6,0z"/>
	</g>
	<g>
		<polygon class="st1" points="26,22.1 44.4,31.9 63.1,22.1 63.1,54 77.7,54 77.7,77.7 26,77.7 		"/>
		<rect x="34.4" y="47.9" width="6.2" height="6.2"/>
		<rect x="49" y="47.9" width="6.2" height="6.2"/>
		<rect x="71.5" y="54" width="6.2" height="6.2"/>
		<rect x="66.2" y="68.8" width="11.7" height="2.7"/>
	</g>
</g>
</svg>
