<?xml version="1.0" encoding="utf-8"?>
<!-- Generator: Adobe Illustrator 27.0.0, SVG Export Plug-In . SVG Version: 6.00 Build 0)  -->
<svg version="1.1" id="Layer_1" xmlns="http://www.w3.org/2000/svg" xmlns:xlink="http://www.w3.org/1999/xlink" x="0px" y="0px"
	 viewBox="0 0 100 100" style="enable-background:new 0 0 100 100;" xml:space="preserve">
<style type="text/css">
	.st0{fill:#FFBE0A;}
	.st1{fill:#FF2373;}
	.st2{fill:#FF784B;}
	.st3{fill:#964BFF;}
	.st4{fill:#BE3CFA;}
	.st5{fill:#DC46E1;}
</style>
<g id="Group_5_" transform="translate(1050.000000, 735.000000)">
	<g>
		<g>
			<g id="Mask_5_">
				<path id="path-3_5_" class="st0" d="M-953.5-713.1c4.9,10.4,3.1,23.2-5.5,31.8l-39.5,39.5c-0.9,0.9-2.4,0.9-3.3,0l-11.5-11.5
					L-953.5-713.1z"/>
			</g>
			<path class="st1" d="M-998.5-720.7l-32.2,32.2l-8.9,8.9l13.2,13.2l59.8-59.8l-0.1-0.1C-977.1-731.1-989.9-729.3-998.5-720.7z"/>
			<path class="st2" d="M-1026.5-666.4l13.2,13.2l59.8-59.8c-1.3-2.8-3.1-5.4-5.4-7.7c-2.3-2.3-4.9-4.1-7.7-5.4L-1026.5-666.4z"/>
			<path class="st3" d="M-1026.4-692.8l-20.1-20.1c-5,10.4-3.2,23.2,5.4,31.8l1.5,1.5L-1026.4-692.8z"/>
			<path class="st4" d="M-1013.2-706l-20.1-20.1c-2.8,1.3-5.4,3.2-7.7,5.5c-2.3,2.3-4.1,4.9-5.5,7.7l20.1,20.1L-1013.2-706z"/>
			<path class="st5" d="M-1000-719.2l-1.5-1.5c-8.6-8.6-21.4-10.4-31.8-5.4l20.1,20.1L-1000-719.2z"/>
		</g>
	</g>
</g>
</svg>
