<?xml version="1.0" encoding="utf-8"?>
<!-- Generator: Adobe Illustrator 27.0.0, SVG Export Plug-In . SVG Version: 6.00 Build 0)  -->
<svg version="1.1" id="Layer_1" xmlns="http://www.w3.org/2000/svg" xmlns:xlink="http://www.w3.org/1999/xlink" x="0px" y="0px"
	 viewBox="0 0 100 100" style="enable-background:new 0 0 100 100;" xml:space="preserve">
<style type="text/css">
	.st0{fill:#06C755;}
	.st1{fill:#FFFFFF;}
</style>
<g id="Layer_2_00000129887783602918083140000005680804670197093019_">
	<g id="LINE_LOGO">
		<path class="st0" d="M22.5,0h54.9C89.9,0,100,10.1,100,22.5v54.9c0,12.5-10.1,22.5-22.5,22.5H22.5C10.1,100,0,89.9,0,77.5V22.5
			C0,10.1,10.1,0,22.5,0z"/>
		<path class="st1" d="M83.3,45.3c0-14.9-15-27.1-33.3-27.1S16.6,30.4,16.6,45.3c0,13.4,11.9,24.6,27.9,26.7
			c1.1,0.2,2.6,0.7,2.9,1.6c0.3,0.8,0.2,2.2,0.1,3c0,0-0.4,2.4-0.5,2.9c-0.1,0.8-0.7,3.3,2.9,1.8c3.6-1.5,19.2-11.3,26.2-19.4l0,0
			C81,56.6,83.3,51.2,83.3,45.3z"/>
		<path class="st0" d="M72.2,53.9h-9.4c-0.3,0-0.6-0.3-0.6-0.6l0,0l0,0V38.7l0,0l0,0c0-0.3,0.3-0.6,0.6-0.6h9.4
			c0.3,0,0.6,0.3,0.6,0.6v2.4c0,0.3-0.3,0.6-0.6,0.6h-6.4v2.5h6.4c0.3,0,0.6,0.3,0.6,0.6v2.4c0,0.3-0.3,0.6-0.6,0.6h-6.4v2.5h6.4
			c0.3,0,0.6,0.3,0.6,0.6v2.4C72.9,53.6,72.6,53.9,72.2,53.9C72.3,53.9,72.2,53.9,72.2,53.9z"/>
		<path class="st0" d="M37.6,53.9c0.3,0,0.6-0.3,0.6-0.6v-2.4c0-0.3-0.3-0.6-0.6-0.6h-6.4V38.7c0-0.3-0.3-0.6-0.6-0.6h-2.4
			c-0.3,0-0.6,0.3-0.6,0.6v14.5l0,0l0,0c0,0.3,0.3,0.6,0.6,0.6L37.6,53.9L37.6,53.9z"/>
		<path class="st0" d="M40.9,38.1h2.4c0.4,0,0.6,0.3,0.6,0.6v14.5c0,0.4-0.3,0.6-0.6,0.6h-2.4c-0.4,0-0.6-0.3-0.6-0.6V38.7
			C40.2,38.4,40.5,38.1,40.9,38.1z"/>
		<path class="st0" d="M59.3,38.1H57c-0.3,0-0.6,0.3-0.6,0.6v8.6l-6.7-9c0,0,0,0-0.1-0.1l0,0l0,0l0,0l0,0h0l0,0h0l0,0h0h0h0h0h0h0h0
			h0h-2.4c-0.3,0-0.6,0.3-0.6,0.6v14.5c0,0.3,0.3,0.6,0.6,0.6h2.4c0.3,0,0.6-0.3,0.6-0.6v-8.7l6.7,9c0,0.1,0.1,0.1,0.2,0.2l0,0l0,0
			h0l0,0h0h0h0l0,0c0.1,0,0.1,0,0.2,0h2.4c0.3,0,0.6-0.3,0.6-0.6V38.7C60,38.4,59.7,38.1,59.3,38.1C59.3,38.1,59.3,38.1,59.3,38.1z"
			/>
	</g>
</g>
</svg>
