<?xml version="1.0" encoding="utf-8"?>
<!-- Generator: Adobe Illustrator 27.0.0, SVG Export Plug-In . SVG Version: 6.00 Build 0)  -->
<svg version="1.1" id="Layer_1" xmlns="http://www.w3.org/2000/svg" xmlns:xlink="http://www.w3.org/1999/xlink" x="0px" y="0px"
	 viewBox="0 0 100 100" style="enable-background:new 0 0 100 100;" xml:space="preserve">
<style type="text/css">
	.st0{fill:#0097D3;}
	.st1{fill:#FFFFFF;}
</style>
<path class="st0" d="M71.9,0H28.1C12.5,0,0,12.5,0,28.1v43.8C0,87.5,12.5,100,28.1,100h43.8c15.6,0,28.1-12.5,28.1-28.1V28.1
	C100,12.5,87.5,0,71.9,0z"/>
<path class="st1" d="M37.5,78.1c0,1.9-1.2,3.1-3.1,3.1H21.9c-1.9,0-3.1-1.2-3.1-3.1V40.6c0-1.9,1.2-3.1,3.1-3.1h12.5
	c1.9,0,3.1,1.2,3.1,3.1V78.1z M28.1,34.4c-5.3,0-9.4-4.1-9.4-9.4s4.1-9.4,9.4-9.4s9.4,4.1,9.4,9.4S33.4,34.4,28.1,34.4z M81.2,78.1
	c0,1.9-1.2,3.1-3.1,3.1h-9.4c-1.9,0-3.1-1.2-3.1-3.1V67.2v-3.1v-6.2c0-2.5-2.2-4.7-4.7-4.7s-4.7,2.2-4.7,4.7v6.2v3.1v10.9
	c0,1.9-1.2,3.1-3.1,3.1h-9.4c-1.9,0-3.1-1.2-3.1-3.1V40.6c0-1.9,1.2-3.1,3.1-3.1h12.5c0.9,0,1.6,0.3,2.2,0.9
	c1.9-0.6,3.8-0.9,5.6-0.9c9.4,0,17.2,7.8,17.2,17.2V78.1z"/>
</svg>
