<?xml version="1.0" encoding="utf-8"?>
<!-- Generator: Adobe Illustrator 27.0.0, SVG Export Plug-In . SVG Version: 6.00 Build 0)  -->
<svg version="1.1" id="Layer_1" xmlns="http://www.w3.org/2000/svg" xmlns:xlink="http://www.w3.org/1999/xlink" x="0px" y="0px"
	 viewBox="0 0 100 100" style="enable-background:new 0 0 100 100;" xml:space="preserve">
<style type="text/css">
	.st0{fill:#00B0EA;}
	.st1{fill:#15374C;}
	.st2{fill:#FFFFFF;}
</style>
<g>
	<path id="path132" class="st0" d="M53.1,7c-6.5,0-12.7,1.4-18.4,3.8L24.6,0.6C13.9,5.4,5.3,14,0.6,24.7l10.2,10.1
		c-2.5,5.8-3.9,12-3.9,18.3c0,25.5,20.7,46.2,46.2,46.1s46.2-20.7,46.2-46.2S78.6,7,53.1,7C53.1,7,53.1,7,53.1,7"/>
	<path id="path134" class="st1" d="M48.4,72.4c4.7-10.8,13.2-19.4,24-24.1L34.8,10.8c-10.8,4.7-19.3,13.3-24,24.1L48.4,72.4z"/>
	<path id="path136" class="st1" d="M75,61.1c-6.2,2.7-11.2,7.7-13.9,14l17.5,3.6L75,61.1z"/>
	<g id="g162" transform="scale(17.15818 17.14669)">
		<path id="path138" class="st2" d="M4.4,3.6L4.2,2.8C3.6,3.1,3.1,3.6,2.8,4.2l0.7,0.2C3.7,4,4,3.7,4.4,3.6"/>
	</g>
</g>
</svg>
