<?xml version="1.0" encoding="utf-8"?>
<!-- Generator: Adobe Illustrator 28.0.0, SVG Export Plug-In . SVG Version: 6.00 Build 0)  -->
<svg version="1.1" id="Layer_1" xmlns="http://www.w3.org/2000/svg" xmlns:xlink="http://www.w3.org/1999/xlink" x="0px" y="0px"
	 viewBox="0 0 100 100" style="enable-background:new 0 0 100 100;" xml:space="preserve">
<style type="text/css">
	.st0{fill:#EA4335;}
</style>
<path class="st0" d="M79.2,20.5L70.4,31L79.2,20.5C75.1,12.4,68.2,6.8,60,4.2c-0.1,0-0.1,0.1-0.2,0.1l0.1-0.1c0,0-4.3-1.5-10-1.5
	c-11.8,0-20.3,6-25.2,11.8c0,0,0,0,0,0.1c-4.3,5-7.6,12.6-7.6,21.2c0,9.2,3.2,15.6,3.2,15.6c3.5,8.1,10.3,15.2,14.9,21.4
	c2.9,3.6,5.9,8.2,7.4,11c1.9,3.6,2.7,6,4.1,10.4c0.8,2.4,1.6,3.1,3.3,3.1c1.8,0,2.6-1.2,3.3-3.1c1.3-4.1,2.3-7.2,3.9-10.2
	c6.2-11.7,16.3-20,22-31.4c0,0,3.7-7,3.7-16.7C82.9,26.8,79.2,20.5,79.2,20.5z M50,48.3c-7,0-12.6-5.5-12.6-12.6c0-3.1,1.2-5.6,2-7
	l1-1.1l-0.1-0.1c0,0,0,0,0,0c0,0,0,0,0,0l0,0c0,0,0,0,0.1,0l0.2-0.2c0.8-0.9,4.1-4.3,9.5-4.3c6.6,0,12.6,5.4,12.6,12.6
	c0,3.4-1.4,6-2.3,7.3l-1.5,1.8C57.4,46.1,54.4,48.3,50,48.3z"/>
</svg>
