<?xml version="1.0" encoding="utf-8"?>
<!-- Generator: Adobe Illustrator 27.0.0, SVG Export Plug-In . SVG Version: 6.00 Build 0)  -->
<svg version="1.1" id="Layer_1" xmlns="http://www.w3.org/2000/svg" xmlns:xlink="http://www.w3.org/1999/xlink" x="0px" y="0px"
	 viewBox="0 0 100 100" style="enable-background:new 0 0 100 100;" xml:space="preserve">
<style type="text/css">
	.st0{fill:#F02831;}
	.st1{fill:#D5000A;}
	.st2{fill:#EF141E;}
	.st3{fill:#010101;}
	.st4{fill:#020202;}
	.st5{fill:#F21721;}
	.st6{fill:#FEFEFE;}
	.st7{fill:#F0F0F0;}
	.st8{fill:#E2696F;}
	.st9{fill:#D10000;}
	.st10{fill:#F2FEFE;}
	.st11{fill:#F2F2F2;}
	.st12{fill:#F1F2F2;}
	.st13{fill:#F1F1F1;}
	.st14{fill:#F2F5F5;}
	.st15{fill:#EF0A15;}
	.st16{fill:#ED0007;}
	.st17{fill:#EF151C;}
	.st18{fill:#EF131A;}
	.st19{fill:#EE1118;}
	.st20{fill:#EF1017;}
	.st21{fill:#EF1117;}
	.st22{fill:#EF1016;}
	.st23{fill:#FEFDFD;}
	.st24{fill:#EF161F;}
	.st25{fill:#EF0A14;}
	.st26{fill:#EE070D;}
	.st27{fill:#EE1216;}
	.st28{fill:#EE0711;}
	.st29{fill:#EE030D;}
	.st30{fill:#ED0000;}
	.st31{fill:#ED0606;}
	.st32{fill:#EE1013;}
	.st33{fill:#ED0509;}
	.st34{fill:#EE1214;}
	.st35{fill:#ED080C;}
	.st36{fill:#F78F94;}
	.st37{fill:#EC0304;}
	.st38{fill:#ED0001;}
	.st39{fill:#EE1113;}
	.st40{fill:#ED0004;}
	.st41{fill:#F02226;}
	.st42{fill:#ED0203;}
	.st43{fill:#EE1114;}
	.st44{fill:#EE1315;}
	.st45{fill:#EE0C0F;}
	.st46{fill:#ED0002;}
	.st47{fill:#EF171A;}
	.st48{fill:#ED0003;}
	.st49{fill:#EE1316;}
	.st50{fill:#EE1317;}
	.st51{fill:#EE0E11;}
	.st52{fill:#EE1416;}
	.st53{fill:#EC0001;}
	.st54{fill:#EC0000;}
	.st55{fill:#EE1415;}
	.st56{fill:#ED0101;}
	.st57{fill:#F5FEFE;}
	.st58{fill:#EE1014;}
	.st59{fill:#FABBBF;}
	.st60{fill:#F9AEB2;}
	.st61{fill:#EE1215;}
	.st62{fill:#EE1518;}
	.st63{fill:#EF131D;}
</style>
<g>
	<path class="st0" d="M70.7,1.2c0,0.3,0,0.6,0,0.9c0,5,0,10,0,15c0,0.6-0.2,0.7-0.7,0.7c-13.2,0-26.5,0-39.7,0
		c-0.6,0-0.7-0.1-0.7-0.7c0-5.3,0-10.6,0-15.9C43.3,1.2,57,1.2,70.7,1.2z"/>
	<path class="st1" d="M49.5,82c-2.7-0.9-5.4-1.8-8.1-2.7c-5.9-2-11.8-4-17.6-6c-0.5-0.2-0.7-0.4-0.7-1c0-16.9,0-33.9,0-50.8
		c0-0.6,0.1-0.7,0.7-0.5c8.7,3,17.4,6,26.1,9c0.2,0.2,0.2,0.5,0.2,0.8c0,10.7,0,21.3,0,32c0,0.1,0,0.2,0,0.3c0,0.1-0.1,0.2-0.2,0.3
		c-0.6,0.1-1.1-0.3-1.7-0.4c-1.6-0.4-3.2-1.1-4.8-1.6c-0.5-0.1-0.9-0.3-1.4-0.4c-1.2-0.3-1.2-0.4-1.2-1.6c0-7.9,0-15.9,0-23.8
		c0-0.3,0-0.7,0-1c0-0.1-0.1-0.1-0.1-0.2c-0.6-0.4-1.3-0.5-1.9-0.7c-2.3-0.8-4.6-1.6-7-2.3c-0.5-0.2-1-0.3-1.5-0.5
		c-0.2-0.1-0.3-0.1-0.4,0.2c0,0.2,0,0.5,0,0.7c0,11.8,0,23.6,0,35.4c0,0.2,0,0.5,0,0.7c0,0.1,0.1,0.1,0.1,0.2
		c0.2,0.1,0.4,0.2,0.6,0.2c2.4,0.8,4.8,1.6,7.3,2.5c1.3,0.5,2.7,0.9,4,1.3c1.8,0.6,3.5,1.2,5.3,1.8c0.8,0.3,1.6,0.6,2.4,0.8
		c0.2,0.1,0.4,0.1,0.5,0.3c-0.2,2.2,0,4.3-0.1,6.5C50,81.6,50.2,82.1,49.5,82z"/>
	<path class="st2" d="M49.5,82c0.4-0.1,0.3-0.4,0.3-0.6c0-1.7,0-3.3,0-5c0-0.6,0-1.1,0.1-1.7c0.1-0.3,0.4-0.3,0.6-0.4
		c0.8-0.3,1.6-0.7,2.5-0.8c0.5,0.1,0.8-0.1,1.2-0.3c0.5-0.5,1.2-0.5,1.9-0.6c1.1-0.1,2-0.7,3.1-0.9c0.1,0-0.1-0.1,0-0.2
		c0,0,0,0,0-0.1c0.6-0.4,1.4-0.6,2.1-0.7c0.7-0.2,1.3-0.7,2-0.6c0.8,0,1.5-0.4,2.2-0.7c0.1-0.1,0.2-0.2,0.4-0.2
		c0.5,0,0.9-0.1,1.3-0.5c0.4-0.3,0.9-0.5,1.4-0.6c0.6-0.2,0.8-0.5,0.7-1.1c0-0.1,0-0.3,0-0.4c0-11.6,0-23.1,0-34.7
		c0-0.1,0-0.2,0-0.3c0-0.9,0-0.9-0.9-0.6c-0.1,0-0.2,0-0.3,0.1c-0.5,0-1,0-1.4,0.4c-0.1,0.1-0.3,0.2-0.4,0.2c-0.5-0.1-1,0.2-1.4,0.2
		c0,0,0.1,0.1,0,0.2c-0.2,0.3-0.6,0.3-0.8,0.4c-1.8,0.6-3.7,1.2-5.5,1.9c-0.2,0.3-0.1,0.7-0.1,1c0,8,0,16,0,24
		c0,0.4,0.1,0.9-0.3,1.2c-0.4,0.2-0.7,0.3-1.1,0.3c-0.2,0,0,0.2-0.1,0.2c0,0.1-0.1,0.1-0.1,0.1c-1.8,0.6-3.6,1.4-5.6,1.8
		c-0.3-0.1-0.5,0.1-0.7,0.1c-0.2,0-0.5,0.1-0.6-0.2c0-10.7,0-21.4,0-32c0-0.3-0.1-0.6,0.2-0.8c2.9-1,5.9-2,8.8-3
		c5.7-1.9,11.3-3.9,17-5.8c0.5-0.2,0.7-0.2,0.7,0.5c0,17,0,34,0,51c0,0.4-0.1,0.6-0.5,0.8c-8.7,2.9-17.3,5.9-25.9,8.8
		C50,82.1,49.8,82.3,49.5,82z"/>
	<path d="M26.5,79.5c0.1,0,0.1,0,0.2,0c1.6,0.5,1.6,0.5,1.6,2.3c0,2.9,0,5.8,0,8.8c0,1.1-0.4,1.4-1.4,1c-0.9-0.3-1.8-0.6-2.7-0.9
		c-0.8-0.3-1.2-0.8-1.2-1.7c0-3.4,0-6.8,0-10.2c0-0.4,0-0.5,0.5-0.4c1.3,0.5,1.3,0.4,1.3,1.8c0,2.7,0,5.5,0,8.2c0,0.6,0.1,0.8,0.7,1
		c1.1,0.3,1,0.3,1-0.8C26.5,85.6,26.5,82.5,26.5,79.5z"/>
	<path d="M65.4,94.1c0-2.7,0-5.2,0-7.8c0-1.2,0-2.4,0-3.6c0-0.4,0.1-0.6,0.5-0.7c1.1-0.4,2.3-0.8,3.4-1.2c0.3-0.1,0.5-0.1,0.5,0.3
		c0,1.2,0,1.2-1.1,1.6c-1.4,0.5-1.4,0.5-1.4,2.1c0,0.5,0,0.9,0,1.4c0,0.3,0.1,0.4,0.4,0.3c0.5-0.2,1.1-0.4,1.6-0.6
		c0.1,0,0.3-0.2,0.4,0c0.1,0.4,0.1,0.9,0,1.4c-0.1,0.3-0.5,0.3-0.7,0.4c-1.6,0.6-1.7,0.6-1.6,2.3c0,0.6-0.3,1.4,0.1,1.7
		c0.2,0.2,1.1-0.3,1.6-0.5c0.1,0,0.2-0.1,0.3-0.1c0.4-0.2,0.5-0.1,0.5,0.3c0,1.2,0,1.2-1.1,1.5C67.7,93.3,66.6,93.7,65.4,94.1z"/>
	<path d="M64.4,82.5c0,0.1,0,0.1,0,0.1c0.1,1.5,0.1,1.6-1.3,2c-0.6,0.2-0.8,0.5-0.8,1.1c0,3,0,5.9,0,8.9c0,0.5-0.1,0.7-0.6,0.8
		c-0.4,0.1-0.8,0.3-1.2,0.4c0-0.2,0-0.4,0-0.6c0-3,0-6,0-9c0-0.5-0.1-0.7-0.6-0.4c-0.5,0.2-1.1,0.4-1.6,0.6c0-0.1-0.1-0.1-0.1-0.2
		c0-1.5,0-1.5,1.3-1.9C61.2,83.6,62.8,83,64.4,82.5z"/>
	<path class="st3" d="M37.3,83.2c0.6,0.2,1.1,0.4,1.6,0.5c0.3,0.1,0.2,0.4,0.2,0.6c0,3,0,6.1,0,9.1c0,0.5,0.2,0.8,0.7,0.9
		c0.1,0,0.2,0.1,0.3,0.1c1.4,0.5,1.4,0.5,1.2,2.1c-1.2-0.4-2.5-0.9-3.7-1.3c-0.2-0.1-0.3-0.2-0.3-0.5C37.3,90.9,37.3,87.1,37.3,83.2
		z"/>
	<path class="st4" d="M55.4,97.6c0-3.9,0-7.7,0-11.5c0-0.5,0.3-0.5,0.6-0.6c1.2-0.4,1.2-0.4,1.2,0.9c0,3.3,0,6.6,0,10
		c0,0.6-0.2,0.9-0.7,1C56.2,97.3,55.9,97.4,55.4,97.6z"/>
	<path d="M44.2,97.5c-0.1,0-0.2,0-0.2,0c-1.6-0.5-1.6-0.5-1.6-2.2c0-3.4,0-6.8,0-10.3c0.6,0.2,1.1,0.4,1.6,0.5
		c0.2,0.1,0.2,0.2,0.2,0.4C44.2,89.8,44.2,93.6,44.2,97.5z"/>
	<path class="st5" d="M50.2,29.8c-0.2,0.3-0.1,0.6-0.1,0.9c0,10.7,0,21.4,0,32.1c0.1,0.1,0.1,0.2,0,0.3c0,0-0.1,0.1-0.2,0
		c0-9.1,0-18.2,0-27.4c0-1.9,0-3.9,0-5.8C50,29.9,50.1,29.8,50.2,29.8z"/>
	<path d="M53.3,92c0-1.9,0-3.7,0-5.6c-1,0.1-1.6,0.5-1.8,1.5c-0.4,1.7-1.1,3.3-1.7,5.1c-0.6-1.8-1.2-3.4-1.6-5.1
		c-0.3-1.1-0.9-1.4-1.9-1.5c0,0.2,0,0.5,0,0.7c0,3.3,0,6.6,0,9.9c0,1.3,0,1.3,1.2,1.8c0.6,0.2,0.6,0,0.6-0.5c0-1.5,0-3,0-4.6
		c0.2,0.2,0.2,0.3,0.2,0.5c0.3,1,0.6,2,0.9,3c0.1,0.2,0.1,0.5,0.5,0.5c0.4,0,0.5-0.2,0.5-0.5c0.3-1.2,0.7-2.3,1-3.5
		c0.2,0.2,0.1,0.5,0.1,0.7c0,1.4,0,2.9,0,4.3c0,0,0,0,0,0c0.5,0.2,0.9-0.2,1.4-0.3c0.4-0.1,0.5-0.3,0.5-0.7
		C53.3,95.9,53.3,94,53.3,92z"/>
	<path d="M35.5,93.7c0-3.5,0-7,0-10.5c0-0.7-1-1.3-1.7-1c0,0,0,0,0,0c0,0,0,0,0,0c0,1.2,0,2.4,0,3.6c0,0.6,0.1,1.2-0.1,1.7
		c-0.2-0.5-0.4-1.1-0.6-1.6c-0.5-1.4-1.1-2.8-1.6-4.3c-0.2-0.6-0.6-0.8-1.1-0.7c-0.4,0-0.2,0.6-0.2,0.8c0,3.4,0,6.7,0,10.1
		c0,0.8,0.2,1.2,1,1.3c0.3,0,0.5,0.4,0.8,0c0-1.2,0-2.4,0-3.6c0-0.5-0.1-1,0.1-1.4c0.4,1.2,0.9,2.4,1.3,3.5c0.3,0.8,0.6,1.5,0.9,2.3
		c0.2,0.5,0.7,0.5,1.1,0.6C35.6,94.4,35.5,94,35.5,93.7z"/>
	<path class="st2" d="M50.1,17.6c-6.5,0-13.1,0-19.6,0c-0.6,0-0.9-0.1-0.8-0.8c0-4.9,0-9.8,0-14.7c0-0.6,0.2-0.8,0.8-0.8
		c13.1,0,26.2,0,39.3,0c0.6,0,0.8,0.1,0.8,0.8c0,4.9,0,9.9,0,14.8c0,0.6-0.2,0.8-0.8,0.8C63.3,17.6,56.7,17.6,50.1,17.6z"/>
	<path class="st6" d="M49.9,63.2c0,0,0.1,0,0.1,0c0.4-0.3,0.8-0.4,1.2-0.4c1.9-0.6,3.9-1.2,5.8-1.9c0.4-0.3,0.8-0.3,1.2-0.5
		c0.3-0.2,0.2-0.6,0.2-0.9c0-8.2,0-16.3,0-24.5c0-0.3-0.1-0.6,0.1-0.9c1.9-0.6,3.8-1.3,5.7-1.9c0.2-0.1,0.5-0.2,0.7-0.3
		c0.4-0.4,0.9-0.4,1.3-0.4c0.2,0,0.3,0,0.4-0.1c0.4-0.3,0.8-0.4,1.2-0.4c0.5,0,0.8-0.3,1.2-0.4c0.3-0.1,0.4,0,0.4,0.3
		c0,0.1,0,0.3,0,0.4c0,12,0,24.1,0,36.1c0,0.6-0.2,0.8-0.7,0.9c-0.6,0.2-1.3,0.3-1.8,0.8c-0.4,0.1-0.8,0.3-1.2,0.3
		c-0.1,0-0.3,0-0.3,0.2c-0.8,0.2-1.5,0.5-2.3,0.7c-0.9,0.1-1.7,0.6-2.6,0.8c-0.5,0.1-1.1,0.4-1.6,0.6c-1,0.5-2.1,0.8-3.1,1.1
		c-0.6,0.3-1.3,0.1-1.7,0.7c-0.4,0.1-0.8,0.3-1.2,0.3c-1.1,0.3-2.1,0.7-3.1,1.1c-0.1,0-0.3-0.1-0.4-0.1c0-0.1,0-0.2,0-0.4
		c0-3.5,0.1-7,0-10.5c0-0.2-0.1-0.5,0.3-0.4C49.9,63.2,49.9,63.2,49.9,63.2z"/>
	<path class="st7" d="M49.8,63.3c-0.1,0-0.2,0.1-0.2,0.1c0.2,0.2,0.1,0.4,0.1,0.6c0,3.3,0,6.5,0,9.8c0,0.2,0.1,0.5-0.1,0.6
		c-0.8-0.1-1.6-0.6-2.4-0.8c-1.5-0.5-3.1-1-4.7-1.6c-0.2-0.1-0.4-0.2-0.7-0.1c-1.3-0.4-2.7-0.8-4-1.3c-0.5-0.4-1.2-0.5-1.8-0.7
		c-1.7-0.6-3.3-1.1-5-1.7c-0.2-0.1-0.3-0.1-0.5-0.1c-0.2,0-0.3-0.1-0.5-0.1c-0.1-0.1-0.1-0.2-0.1-0.2c0-12,0-24,0-36
		c0-0.4-0.1-0.9,0.2-1.2c0,0,0.1,0,0.1-0.1c0.5,0.2,1,0.4,1.5,0.5c0.7,0.5,1.4,0.5,2.2,0.8c1.5,0.5,3.1,1,4.6,1.6c0.1,0,0.2,0,0.2,0
		c0.7,0.2,1.3,0.3,1.9,0.7c0,0.2,0.1,0.5,0.1,0.7c0,8.2,0,16.4,0,24.6c0,0.2,0.1,0.4-0.1,0.5c0.1-0.2,0.1-0.4,0.1-0.6
		c0-8.2,0-16.3,0-24.5c0-0.2-0.1-0.5,0.1-0.7c0.3,0.2,0.1,0.5,0.1,0.7c0,8.2,0,16.4,0,24.6c0,0.8,0.2,1.2,0.9,1.3
		c0.1,0,0.2,0.1,0.4,0.1c0.4,0.3,0.9,0.4,1.4,0.5c1.3,0.5,2.7,0.9,4,1.4c0.2,0.1,0.3,0.1,0.5,0C48.8,62.9,49.3,63,49.8,63.3z"/>
	<path class="st8" d="M30.1,67.9c0,0,0,0.1,0,0.1c0,0-0.1,0-0.1,0c-0.2-0.2-0.1-0.4-0.1-0.6c0-12.1,0-24.2,0-36.4
		c0-0.2-0.1-0.5,0.1-0.7c0.1,0,0.3,0,0.4,0.1l0,0l0,0c-0.4,0.2-0.2,0.5-0.2,0.8c0,11.9,0,23.8,0,35.7C30.2,67.3,30.2,67.6,30.1,67.9
		z"/>
	<path class="st9" d="M30,30.4c0,0.2,0,0.4,0,0.6c0,12.1,0,24.2,0,36.4c0,0.2,0,0.5,0,0.7c-0.3-0.1-0.2-0.4-0.2-0.6
		c0-12.1,0-24.3,0-36.4C29.8,30.8,29.7,30.5,30,30.4z"/>
	<path class="st10" d="M41,34.1c0,8.7,0,17.5,0,26.3c-0.2-0.4-0.1-0.6-0.1-0.9c0-8.2,0-16.4,0-24.6c0-0.3-0.2-0.6,0-0.9
		C40.9,34,40.9,34.1,41,34.1z"/>
	<path class="st11" d="M30.6,68.2c0.1-0.2,0.3-0.1,0.5-0.1c2.3,0.8,4.5,1.5,6.8,2.3c0.1,0,0.1,0.1,0.2,0.1c0,0,0,0,0,0
		c0,0-0.1,0-0.1,0c-0.8-0.1-1.5-0.5-2.3-0.7C34,69.3,32.3,68.7,30.6,68.2z"/>
	<path class="st12" d="M38.9,33.4c-0.6,0.2-1.1-0.2-1.6-0.3c-1.6-0.5-3.2-1.1-4.9-1.6c-0.2-0.1-0.5-0.2-0.7-0.3
		c-0.1-0.1,0.1-0.1,0.1-0.1C34.3,31.8,36.6,32.5,38.9,33.4z"/>
	<path class="st12" d="M41.9,72c0.1-0.1,0.3-0.2,0.4-0.1c1.6,0.6,3.3,1,4.9,1.7c0,0,0.1,0.1,0,0.1c0,0,0,0,0,0
		C45.4,73.2,43.7,72.6,41.9,72z"/>
	<path class="st13" d="M48.3,62.7c-0.2,0.2-0.4,0.1-0.6,0c-1.8-0.6-3.5-1.1-5.3-1.7c0,0-0.5-0.1-0.1-0.2c1.9,0.5,3.7,1.3,5.6,1.9
		C48,62.7,48.2,62.7,48.3,62.7z"/>
	<path class="st14" d="M47.2,73.7c0,0,0-0.1,0-0.1c0.8,0.2,1.7,0.5,2.4,0.8c0,0-0.1,0.1-0.1,0.1C48.7,74.3,48,74,47.2,73.7z"/>
	<path class="st15" d="M58.6,34.1c0,8.6,0,17.2,0,25.8c0,0.4,0,0.6-0.5,0.6c-0.1,0-0.1,0-0.2,0c0.4-0.1,0.4-0.5,0.4-0.9
		c0-8.3,0-16.5,0-24.8C58.4,34.5,58.1,34.1,58.6,34.1z"/>
	<path class="st16" d="M69.9,30.6c0,12.4,0,24.9,0,37.3c0,0,0,0-0.1,0C69.8,55.4,69.8,43,69.9,30.6C69.8,30.5,69.9,30.5,69.9,30.6z"
		/>
	<path class="st17" d="M56,72.6c1-0.5,2.1-0.8,3.1-1.1c0.1,0,0.2,0.1,0.2,0.1C58.2,72,57.2,72.6,56,72.6z"/>
	<path class="st18" d="M63.4,70.2c0.7-0.4,1.5-0.7,2.3-0.7C65,69.8,64.2,70.2,63.4,70.2z"/>
	<path class="st19" d="M66.4,31.5c-0.4,0.1-0.9,0.3-1.3,0.4c-0.1,0-0.2-0.1-0.2-0.1C65.4,31.6,65.8,31.3,66.4,31.5z"/>
	<path class="st20" d="M58,60.4c0.1,0,0.1,0,0.2,0c-0.3,0.3-0.7,0.3-1.1,0.4c0-0.1-0.3,0-0.1-0.1C57.2,60.6,57.6,60.4,58,60.4z"/>
	<path class="st21" d="M51.3,62.7c-0.4,0.1-0.8,0.3-1.2,0.4c0-0.1,0-0.2,0-0.3C50.5,63,50.8,62.4,51.3,62.7z"/>
	<path class="st22" d="M68,30.9c-0.4,0.1-0.8,0.3-1.2,0.4C67.1,30.9,67.5,30.8,68,30.9z"/>
	<path class="st22" d="M66,69.3c0.4-0.2,0.8-0.4,1.2-0.3C66.8,69.1,66.5,69.5,66,69.3z"/>
	<path class="st21" d="M53.1,73.6c0.4-0.2,0.8-0.4,1.2-0.3C53.9,73.5,53.5,73.9,53.1,73.6z"/>
	<path d="M77,80.5c0-1.4-0.8-2-2.2-1.6c-1,0.3-2,0.7-2.9,1c-0.2,0.1-0.4,0.2-0.4,0.5c0,3.8,0,7.7,0,11.6c1-0.4,2-0.7,2.9-1
		c0.2-0.1,0.3-0.1,0.5-0.2c1.4-0.6,2.1-1.6,2.1-3.1C77,85.3,77,82.9,77,80.5z M75.2,87.9c0,1-0.3,1.3-1.9,1.8c0-2.8,0-5.5,0-8.3
		c0-0.3,0.8-0.8,1.4-0.8c0.5,0,0.5,0.4,0.5,0.8C75.2,83.5,75.2,85.7,75.2,87.9z"/>
	<path class="st6" d="M30.8,2.5c0.9,0,1.9,0,2.8,0c0.5,0,0.3,0.4,0.5,0.6c0.1,0.1,0.1,0.2,0.1,0.3C34.5,4.9,34.7,6.5,35,8
		c0.1,0.2,0.1,0.5,0.1,0.7c0,0,0,0.1,0,0.1c0,0,0,0,0,0c0-0.2,0-0.3,0-0.5c0.1-0.4,0.3-0.9,0.3-1.3c0-0.1,0-0.2,0.1-0.3
		c0.2-0.8,0.3-1.6,0.4-2.3c-0.1-0.7,0-1.3,0.3-1.9c1-0.1,1.9,0,2.9-0.1c0.5,0,0.3,0.3,0.3,0.6c0,3.1,0,6.2,0,9.2c0,0.3,0,0.5,0,0.8
		c0.1,0.2,0,0.5,0,0.7c0-0.3,0.1-0.6,0.2-0.9c0.1-0.2,0-0.5,0.1-0.7c0.1-0.7,0.2-1.4,0.4-2.1c0.2-1.1,0.4-2.2,0.5-3.3
		c-0.1-0.3-0.1-0.7,0.1-1c0-0.3,0-0.5,0-0.8c0.2-0.5,0.2-1,0.2-1.5c0-0.3,0.1-0.5,0.2-0.7c0.1-0.3,0.2-0.5,0.6-0.5
		c0.8,0,1.6,0,2.4,0c0.3,0,0.5,0,0.6,0.3c0.5,3.7,1.1,7.3,1.7,11c0,0.1,0,0.1,0,0.1c0,0,0,0,0-0.1c-0.1-0.4-0.1-0.8-0.1-1.2
		c0-3.3,0-6.5,0-9.8c0-0.1,0-0.2,0.1-0.2c1,0,2,0,3,0c0.7,0,1.3,0.3,1.9,0.7c0.5,0.1,0.6,0.6,1,0.8c0.1-0.4-0.1-0.7-0.1-1.1
		c0-0.3,0.1-0.4,0.4-0.4c0.6,0,1.3,0,1.9,0c0.2,0,0.4,0.1,0.4,0.4c0.3,1.6,0.4,3.1,0.6,4.7c0,0.2,0.1,0.4,0.1,0.7c0,0.2,0,0.5,0,0.7
		c0.2,0.3,0.1,0.7,0.2,1c0-0.1,0-0.3,0-0.4c0-0.1,0-0.2,0.1-0.3c0.1-0.2,0.1-0.5,0.1-0.7c0.1-0.4,0-0.9,0.2-1.3
		c0.1-0.2,0-0.5,0.1-0.8c0.2-0.8,0.3-1.6,0.3-2.5c0-0.3,0-0.5,0.2-0.7c0.1-0.2,0.1-0.5,0.1-0.7c0.2-0.2,0.5-0.1,0.7-0.1
		c1.9,0,3.8,0,5.6,0c0.8,0,0.9,0.1,0.9,0.9c0,0,0,0.1,0,0.1c0,1.5,0.2,1.8-1.6,1.8c-0.4,0-0.7,0.2-0.7,0.6c0,0.5,0,1,0,1.6
		c0,0.4,0.2,0.6,0.6,0.6c0,0,0.1,0,0.1,0c0.5,0.1,1.1-0.2,1.4,0.3c0.3,0.7,0.2,1.5,0.1,2.2c-0.1,0.4-0.4,0.3-0.7,0.4
		c-0.4,0.1-0.9-0.1-1.3,0.2c-0.3,0.7-0.1,1.5-0.1,2.3c0,0.2,0.1,0.3,0.3,0.4c0.1,0,0.2,0,0.3,0c0.5,0.1,1.2-0.2,1.4,0.3
		c0.3,0.6,0.2,1.4,0.1,2.1c0,0.2-0.2,0.4-0.4,0.4c-1.4,0-2.9,0.1-4.3-0.1c-0.2-0.2-0.2-0.5-0.2-0.8c0-3.3,0-6.6,0-9.8
		c0-0.3,0-0.7,0.1-1c0,0,0-0.1,0-0.1c-0.1,0-0.1,0,0,0c-0.2,0.9-0.2,1.9-0.5,2.8c-0.1,0.1,0,0.2-0.1,0.3c-0.2,1-0.4,2.1-0.5,3.2
		c0.1,0.2-0.1,0.5,0,0.7c-0.1,0.3-0.1,0.7-0.2,1c0,0.3-0.1,0.6-0.1,0.8c0,0.2-0.1,0.4-0.1,0.6c-0.1,0.4-0.1,0.9-0.3,1.4
		c0,0.9-0.5,1-1.2,0.9c-0.5,0-0.9,0-1.4,0c-0.4,0-0.5-0.2-0.6-0.5c-0.3-0.6-0.3-1.2-0.4-1.9c-0.3-1.9-0.6-3.7-0.9-5.6
		c0.1,0.4-0.1,0.7-0.4,1c-0.3,0.5-0.6,1-1.1,1.4c0.1,0.6,0.4,1.1,0.4,1.8c0.2,0.9,0.5,1.8,0.8,2.6c0.2,0.3,0.4,0.6,0.3,1
		c-0.7,0-1.4,0-2.1,0c-0.2,0-0.4,0-0.5-0.2c-0.3-0.4-0.4-0.9-0.4-1.3c0.1-0.3,0-0.6-0.1-0.8c-0.3-0.3-0.2-0.7-0.3-1.1
		c0-0.3-0.1-0.6-0.2-0.9c-0.4-0.3-0.5-0.2-0.5,0.3c0,1.1,0,2.2,0,3.4c0,0.2,0.1,0.4-0.1,0.6c-1.4,0-2.9,0-4.3,0
		c-0.3,0-0.5-0.1-0.5-0.4c0-0.2,0-0.4-0.1-0.5c-0.2-1.2-0.2-1.1-1.4-1.2c-0.6,0-0.8,0.2-0.9,0.8c-0.2,1.4-0.2,1.4-1.6,1.4
		c-1.1,0-2.2,0-3.3,0c-0.1-0.1-0.1-0.2-0.1-0.3c0.1-1.7-0.1-3.5,0-5.2c0-0.1,0-0.1,0-0.1c0,0.1,0-0.1,0,0c-0.2,0.6,0,1.3-0.4,1.9
		c-0.2,0.7-0.3,1.5-0.4,2.2c0.1,0.2-0.1,0.5,0,0.7c0,0.1,0,0.3-0.1,0.4c-0.1,0.7-0.7,0.4-1.1,0.5c-0.5,0.1-0.4-0.4-0.5-0.6
		c-0.1-0.1-0.1-0.1,0-0.2c0-0.5-0.1-0.9-0.2-1.4c-0.1-0.1-0.1-0.2-0.1-0.3l0,0c-0.2-0.2,0-0.6-0.2-0.8l0,0c-0.2-0.5-0.3-1.1-0.3-1.4
		c0,1.2,0,2.6,0,4c0,0.2,0.1,0.5-0.2,0.7c-0.8,0-1.7,0-2.5,0c-0.2-0.1-0.1-0.3-0.1-0.4c0-4.3,0-8.6,0-13C30.7,2.8,30.7,2.7,30.8,2.5
		z"/>
	<path class="st23" d="M64.8,2.5c0.8,0,1.7,0,2.5,0c0.2,0.1,0.1,0.3,0.1,0.4c0,3.5,0,7,0,10.5c0,0.1,0,0.2-0.1,0.3
		c0.5,0.3,1.1,0.1,1.6,0.1c0.4,0,0.5,0.1,0.5,0.5c0,0.5,0,1,0,1.5c0,0.4-0.1,0.5-0.5,0.5c-1.4,0-2.8,0-4.1,0
		c-0.3-0.2-0.2-0.5-0.2-0.8c0-4.1,0-8.1,0-12.2C64.6,3.1,64.5,2.8,64.8,2.5z"/>
	<path class="st24" d="M62.1,10.8c0.6-0.2,1.1-0.1,1.7-0.1c0.4,0,0.5-0.1,0.5-0.5c0,0,0-0.1,0-0.1c0-0.6,0.2-1.4-0.1-1.8
		c-0.3-0.4-1.1-0.1-1.7-0.1c-0.3,0-0.5-0.1-0.5-0.4c0-0.8,0-1.5,0-2.3c0-0.3,0.1-0.5,0.4-0.4c0.1,0,0.1,0,0.2,0
		c0.5-0.1,1.4,0.2,1.5-0.1c0.3-0.6,0.1-1.5,0.1-2.2c0-0.2-0.2-0.2-0.3-0.2c-2.2,0-4.5,0-6.7,0c0-0.1,0-0.1,0-0.2
		c1.7-0.1,3.4,0,5.1,0c0.6,0,1.3-0.1,1.9,0c0.1,0,0.1,0.1,0.2,0.1c0.3,0.8,0.1,1.6,0.1,2.4c0.1,1.1,0.1,2.2,0,3.4c0,0.8,0,1.6,0,2.4
		c0,0.1-0.1,0.2-0.1,0.2C63.7,11.1,62.9,11.2,62.1,10.8z"/>
	<path class="st24" d="M62.1,10.8c0.8,0,1.6,0,2.3,0c0.1,0,0.2,0.1,0.2,0.2c0,1,0.1,2-0.1,3c-0.1,0.8,0.2,1.6-0.1,2.4
		c-0.1,0-0.1,0.1-0.2,0.1c-1.6,0.1-3.2,0.1-4.7,0c0,0,0-0.1,0-0.1c0,0,0.1,0,0.1-0.1c0,0,0.1,0,0.1,0c1.4,0,2.8,0,4.2,0
		c0.3,0,0.4-0.1,0.4-0.4c0-0.5,0-1.1,0-1.6c0-0.4-0.1-0.5-0.5-0.4c-0.1,0-0.1,0-0.2,0c-1.6,0-1.6,0-1.6-1.6
		C62.1,11.8,62,11.3,62.1,10.8z"/>
	<path class="st25" d="M46.5,13.8c-0.3-0.2-0.2-0.5-0.2-0.7c-0.4-2.6-0.9-5.3-1.2-7.9c-0.1-0.8-0.4-1.5-0.2-2.3
		c0.3,0.7,0.3,1.4,0.4,2.1c0.3,1.9,0.6,3.9,1,5.8c0-2.3,0-4.5,0-6.8c0-0.3,0-0.6,0-0.9c0-0.2,0-0.4,0.3-0.4c0,0,0,0.1,0,0.1
		c0.1,0.7,0,1.4,0,2.2c0,2.7,0,5.5,0,8.2C46.6,13.3,46.7,13.5,46.5,13.8z"/>
	<path class="st26" d="M59.1,7.5c0.1-1,0.2-1.9,0.5-2.8c0.1,0.1,0.1,0.3,0.1,0.5c0,3.6,0,7.2,0,10.8c0,0.2,0,0.3-0.1,0.5
		c0,0,0,0,0,0c-0.4-0.1-0.2-0.4-0.2-0.7c0-2.5,0-5,0-7.5c0-0.2,0.1-0.5-0.1-0.7C59.1,7.6,59.1,7.6,59.1,7.5z"/>
	<path class="st27" d="M56.3,9.2c0,0.1,0,0.2,0,0.2c-0.1,0.2,0,0.5-0.1,0.7c-0.5-0.3-0.2-0.8-0.3-1.3c-0.1-0.2,0-0.5-0.1-0.7
		c-0.3-1.8-0.6-3.6-0.7-5.4c0-0.2-0.1-0.3,0-0.5c0.4,0.9,0.3,1.8,0.5,2.8c0.2,1.2,0.3,2.5,0.6,3.7c0.3-2.1,0.6-4.2,0.9-6.3
		c0.2,0.2,0.1,0.4,0.1,0.6C57,4.3,57,5.4,56.7,6.5c-0.1,0.2,0,0.5-0.1,0.7c-0.1,0.4-0.1,0.9-0.2,1.3C56.3,8.7,56.5,9,56.3,9.2z"/>
	<path class="st28" d="M39.8,13c0,0.4-0.3,0.6,0,1c-0.1,0-0.1,0-0.2,0c0-0.3,0-0.6,0-0.9c0.2-0.2,0.1-0.5,0.1-0.7c0-3,0-6.1,0-9.1
		c0-0.2-0.1-0.4,0.1-0.8c0,3,0,5.8,0,8.7c0,0,0.1,0,0.1,0c0.1-0.5,0.1-1,0.2-1.5c0,0,0,0,0.1,0c0,0.2,0,0.3,0.1,0.5
		c-0.1,0.7-0.2,1.4-0.3,2.1C39.7,12.5,39.9,12.8,39.8,13z"/>
	<path class="st29" d="M64.5,13.9c0.2-1,0.2-2.1,0-3.1c0,0,0-0.1,0-0.1c0.1-0.8,0.1-1.6,0-2.4c0.2-1.1,0.2-2.2,0-3.3
		c0.2-0.8-0.1-1.6,0.1-2.4c0.1,0,0.1,0,0.2,0c0,4.6,0,9.2,0,13.9c-0.1,0-0.1,0-0.2,0C64.4,15.6,64.7,14.7,64.5,13.9z"/>
	<path class="st30" d="M30.8,2.5c0,4.6,0,9.2,0,13.9c-0.3-0.1-0.2-0.4-0.2-0.6c0-4.2,0-8.4,0-12.6C30.6,2.9,30.6,2.7,30.8,2.5z"/>
	<path class="st31" d="M67.3,13.8c-0.1-0.4,0-0.9,0-1.3c0-3.3,0-6.6,0-9.9c0.3,0.2,0.2,0.5,0.2,0.7c0,3.2,0,6.4,0,9.6
		c0,0.6,0.2,0.9,0.8,0.8c0.3,0,0.6,0,0.9,0.1C68.6,13.8,68,13.8,67.3,13.8z"/>
	<path class="st32" d="M52.9,9.5c0.1-0.4,0.3-0.9,0.4-1.5c0.3,2.1,0.6,4,1,6c0,0.1-0.1,0.1-0.1,0.1c-0.4-1.2-0.4-2.4-0.7-3.6
		c-0.1-0.4-0.3-0.7-0.1-1.1C53.1,9.3,53.1,9.8,52.9,9.5z"/>
	<path class="st33" d="M33.3,16.4c0-1.9,0-3.8,0-5.7c0.3,0.8,0.5,1.6,0.5,2.4c-0.2-0.1-0.1-0.3-0.3-0.6c0.2,1.2,0.2,2.2,0.2,3.2
		C33.6,16,33.7,16.3,33.3,16.4z"/>
	<path class="st34" d="M35.3,8.4c0,0.2,0,0.3,0,0.5C35.2,9,35.1,9,35,8.9c-0.3-1.9-0.7-3.7-0.8-5.6c0-0.1,0.1-0.1,0.1,0
		c0.3,1,0.4,2,0.5,3.1c0.1,0.4,0.1,0.9,0.3,1.3C35.4,7.9,35.3,8.2,35.3,8.4z"/>
	<path class="st35" d="M36.5,12.7c0.1-0.7,0.1-1.4,0.4-2c0.2,1.5,0,2.9,0.1,4.4c0,0.4,0.1,0.9-0.1,1.3c-0.3-0.5-0.1-1.1-0.1-1.7
		c0-0.6,0-1.2,0-1.8c-0.2-0.1,0,0.3-0.2,0.2C36.5,13,36.5,12.8,36.5,12.7z"/>
	<path class="st30" d="M64.3,2.4c-2.3,0-4.7,0-7,0c0.1-0.1,0.3-0.1,0.4-0.1c2.1,0,4.1,0,6.2,0C64,2.2,64.2,2.2,64.3,2.4z"/>
	<path class="st36" d="M36.9,16.4c0-1.9,0-3.8,0-5.7c-0.1-0.2-0.3-0.4,0.1-0.7c0,2.2,0,4.3,0,6.4C37,16.4,36.9,16.4,36.9,16.4z"/>
	<path class="st37" d="M49.1,16.4c0-1.3,0-2.7,0-4c0-0.2-0.1-0.4,0.2-0.5c0.3-0.1,0.4,0,0.4,0.3c-0.7,0.1-0.4,0.7-0.4,1.1
		c0,0.9,0,1.7,0,2.6C49.2,16,49.3,16.2,49.1,16.4z"/>
	<path class="st38" d="M44.4,16.5c1.5,0,3,0,4.5,0c0,0,0,0,0,0.1C47.4,16.6,45.9,16.6,44.4,16.5C44.4,16.6,44.4,16.6,44.4,16.5z"/>
	<path class="st38" d="M41.6,16.6c-1.5,0-3,0-4.6,0c0,0,0,0,0,0C38.6,16.6,40.1,16.6,41.6,16.6C41.6,16.6,41.6,16.6,41.6,16.6z"/>
	<path class="st38" d="M59.6,16.5c1.6,0,3.2,0,4.7,0c-0.2,0.2-0.4,0.1-0.6,0.1c-1.2,0-2.4,0-3.6,0C60,16.6,59.7,16.7,59.6,16.5z"/>
	<path class="st39" d="M52.5,3.1c0.1,0.4,0.1,0.9,0.2,1.3c-0.4-0.4-0.8-0.8-1.2-1.2c0.5-0.2,0.5,0.5,0.9,0.5c0-0.4-0.3-0.8,0-1.2
		C52.5,2.6,52.4,2.9,52.5,3.1z"/>
	<path class="st40" d="M69.2,16.6c-1.4,0-2.8,0-4.3,0c0,0,0,0,0-0.1C66.4,16.6,67.8,16.6,69.2,16.6C69.2,16.6,69.2,16.6,69.2,16.6z"
		/>
	<path class="st41" d="M52.5,3.1c-0.2-0.2-0.1-0.4-0.1-0.7c0,0,0,0,0,0c0.9-0.1,1.7-0.1,2.6,0c0.1,0,0.1,0,0.2,0c0,0.2,0,0.3,0,0.5
		c-0.1-0.1-0.1-0.3-0.2-0.3c-0.7,0-1.5-0.1-2.2,0C52.3,2.5,52.6,2.9,52.5,3.1z"/>
	<path class="st30" d="M41.5,2.3c1,0,2.1,0,3.1,0c0,0,0,0,0,0.1C43.6,2.3,42.6,2.3,41.5,2.3C41.5,2.3,41.5,2.3,41.5,2.3z"/>
	<path class="st30" d="M31,2.3c1,0,2,0,2.9,0c0,0,0,0,0,0.1C32.9,2.3,31.9,2.3,31,2.3C30.9,2.3,30.9,2.3,31,2.3z"/>
	<path class="st42" d="M46.7,2.3c1,0,2,0,3,0c0,0,0,0,0,0.1C48.7,2.3,47.7,2.3,46.7,2.3C46.7,2.3,46.7,2.3,46.7,2.3z"/>
	<path class="st30" d="M36.2,2.4c1-0.3,2.1-0.1,3.1,0C38.3,2.4,37.2,2.4,36.2,2.4L36.2,2.4z"/>
	<path class="st43" d="M52.3,12.7c-0.1-0.6-0.6-1.1-0.4-1.8C52.1,11.5,52.4,12,52.3,12.7z"/>
	<path class="st44" d="M41.3,3c-0.2,0.7-0.1,1.5-0.4,2.1c-0.1,0.1-0.1,0.1-0.2,0c0.1-0.8,0.3-1.6,0.4-2.4c0,0,0,0,0.1,0
		C41.2,2.8,41.2,2.9,41.3,3z"/>
	<path class="st45" d="M54.1,14.2c0,0,0.1-0.1,0.1-0.1c0.1,0.6,0.2,1.2,0.3,1.9c0,0.1,0,0.2-0.1,0.4C54.3,15.6,54.1,14.9,54.1,14.2z
		"/>
	<path class="st38" d="M54.9,16.6c0.9,0,1.8,0,2.7,0c0,0,0,0,0,0.1C56.6,16.6,55.7,16.6,54.9,16.6C54.9,16.6,54.9,16.6,54.9,16.6z"
		/>
	<path class="st46" d="M33.2,16.6c-0.8,0-1.5,0-2.3,0c0,0,0,0,0-0.1C31.7,16.6,32.5,16.6,33.2,16.6C33.2,16.6,33.2,16.6,33.2,16.6z"
		/>
	<path class="st38" d="M67.2,2.3c-0.8,0-1.5,0-2.3,0c0,0,0,0,0-0.1C65.6,2.3,66.4,2.3,67.2,2.3C67.2,2.3,67.2,2.3,67.2,2.3z"/>
	<path class="st38" d="M54.9,2.4c-0.9,0-1.7,0-2.6,0C53.2,2.2,54.1,2.2,54.9,2.4z"/>
	<path class="st47" d="M57.8,15.5c0.1-0.5,0.1-1,0.2-1.4c0.2,0,0.2,0.1,0.1,0.3c0.1,0.5-0.1,1-0.3,1.5
		C57.8,15.7,57.8,15.6,57.8,15.5z"/>
	<path class="st48" d="M64.5,13.9c0.3,0.8,0.1,1.6,0.1,2.4c0,0-0.1,0-0.1,0s-0.1,0-0.1,0C64.5,15.6,64.5,14.8,64.5,13.9z"/>
	<path class="st38" d="M51,16.6c0.7,0,1.4,0,2.1,0c0,0,0,0,0,0C52.4,16.6,51.7,16.6,51,16.6C51,16.6,51,16.6,51,16.6z"/>
	<path class="st30" d="M69.6,14.1c0,0.7,0,1.4,0,2.1c0,0,0,0-0.1,0C69.6,15.5,69.6,14.8,69.6,14.1C69.6,14.1,69.6,14.1,69.6,14.1z"
		/>
	<path class="st48" d="M64.6,2.5c-0.1,0.8,0.2,1.6-0.1,2.4c0-0.8,0-1.6,0-2.4C64.5,2.5,64.6,2.5,64.6,2.5z"/>
	<path class="st27" d="M36.2,2.6c-0.2,0.6-0.2,1.2-0.3,1.9c-0.3-0.7-0.1-1.4,0.3-2c0,0,0,0,0,0C36.2,2.4,36.2,2.5,36.2,2.6z"/>
	<path class="st49" d="M53.3,16.4c-0.1-0.3-0.2-0.7-0.3-1c0-0.1,0-0.1,0.1-0.2C53.3,15.5,53.7,15.9,53.3,16.4z"/>
	<path class="st50" d="M35.3,8.4c0-0.3,0-0.5-0.2-0.7c0.3-0.2,0-0.6,0.3-0.8c0.1,0,0.1,0.1,0.1,0.1C35.5,7.5,35.4,8,35.3,8.4z"/>
	<path class="st51" d="M50.3,14.9c0.2,0.4,0.4,0.9,0.4,1.3C50.3,15.9,50.3,15.4,50.3,14.9z"/>
	<path class="st44" d="M58.2,12.7c-0.1-0.4,0.1-0.7,0.1-1.1c0.1-0.1,0.2,0.1,0.3,0.1c-0.2,0.3,0,0.7-0.3,1
		C58.3,12.8,58.3,12.8,58.2,12.7z"/>
	<path class="st52" d="M49.9,13c0.2,0.3,0.1,0.7,0.3,1.1C49.8,13.8,49.7,13.4,49.9,13z"/>
	<path class="st38" d="M35.7,16.6c-0.4,0-0.7,0-1.1,0c0,0,0,0,0-0.1C34.9,16.6,35.3,16.6,35.7,16.6C35.7,16.6,35.7,16.6,35.7,16.6z"
		/>
	<path class="st46" d="M58.2,12.7c0,0,0.1,0,0.1,0c0,0.3,0.1,0.6-0.1,0.8c0,0.1-0.1,0.1-0.1,0C58,13.2,58.1,13,58.2,12.7z"/>
	<path class="st53" d="M36,15.6c-0.1-0.3,0.1-0.5,0.1-0.7c0.2,0.2,0.1,0.5,0.1,0.8C36.1,15.8,36,15.7,36,15.6z"/>
	<path class="st54" d="M58.6,11.8c-0.1,0-0.2-0.1-0.3-0.1c-0.1-0.2,0.1-0.5,0.1-0.7C58.7,11.2,58.6,11.5,58.6,11.8z"/>
	<path class="st46" d="M58.1,13.5c0,0,0.1,0,0.1,0c0,0.3,0.1,0.6-0.1,0.8c0-0.1-0.1-0.2-0.1-0.3C57.9,13.9,58.1,13.7,58.1,13.5z"/>
	<path class="st27" d="M40.8,5.9c-0.2,0.3,0,0.6-0.1,1c-0.2-0.3-0.2-0.6,0-0.9C40.7,5.9,40.8,5.9,40.8,5.9z"/>
	<path class="st55" d="M36,15.6c0.1,0,0.2,0.1,0.3,0.1c-0.1,0.2-0.1,0.4-0.2,0.6c0-0.2-0.1-0.3-0.1-0.4C35.9,15.8,35.9,15.7,36,15.6
		z"/>
	<path class="st48" d="M34.3,15.6c0,0.1,0,0.2,0,0.2c0,0.1,0,0.3-0.1,0.6C34.1,16,34.1,15.8,34.3,15.6z"/>
	<path class="st56" d="M33.9,13.9c0.1,0,0.2,0.1,0.1,0.3c0,0.1,0,0.3-0.1,0.4c0,0-0.1,0-0.1,0C33.9,14.4,33.9,14.1,33.9,13.9z"/>
	<path class="st54" d="M33.8,13.1c0.3,0.2,0,0.6,0.2,0.8C33.6,13.7,33.8,13.4,33.8,13.1z"/>
	<path class="st38" d="M59.1,7.5c0,0,0.1,0,0.1,0c0,0.2,0,0.4,0,0.7C59,8.1,59.1,7.9,59,7.8C59,7.7,59,7.6,59.1,7.5z"/>
	<path class="st38" d="M35.5,7c0,0-0.1-0.1-0.1-0.1c0-0.2,0-0.3,0-0.5c0.2,0.1,0.1,0.3,0.2,0.4C35.5,6.8,35.5,6.9,35.5,7z"/>
	<path class="st38" d="M40.8,5.9c0,0-0.1,0-0.1,0c0-0.3,0-0.5,0-0.8c0.1,0,0.1,0,0.2,0C40.8,5.4,41,5.7,40.8,5.9z"/>
	<path class="st46" d="M34.3,3.3c0,0-0.1,0-0.1,0c0-0.1,0-0.2,0-0.2c0-0.1,0-0.3,0.1-0.5C34.4,2.9,34.3,3.1,34.3,3.3z"/>
	<path class="st57" d="M30.1,67.9c0-0.2,0-0.4,0-0.6c0-12,0-24,0-36.1c0-0.2-0.3-0.6,0.3-0.6c-0.2,0.3-0.1,0.6-0.1,0.9
		c0,11.9,0,23.7,0,35.6C30.2,67.4,30.3,67.6,30.1,67.9z"/>
	<path class="st2" d="M49.7,5.1c1.4,0.4,1.4,3.5,0.1,4.1c-0.4,0.1-0.6,0-0.6-0.5c0-1,0-2,0-3C49.2,5.3,49.3,5.1,49.7,5.1z"/>
	<path class="st58" d="M42.9,8.2c0-0.1,0-0.2,0-0.3c0.1-0.3,0-0.6,0.1-0.9c0-0.1,0-0.3,0.1-0.1c0.1,0.1,0,0.4,0,0.6
		c0.1,0.2,0,0.5,0.1,0.7c0.1,0.9,0.3,1.8,0.3,2.7c0.1,0.2,0,0.5,0.1,0.7c0.1,0.4,0,0.6-0.5,0.6c-0.9,0-0.9,0-0.7-0.8
		c0.1-0.2,0-0.5,0.1-0.7c0-0.1,0-0.2,0-0.3c0.1-0.2,0-0.5,0.1-0.8c-0.1-0.2,0-0.3,0-0.5C42.9,8.7,42.7,8.4,42.9,8.2z"/>
	<path class="st59" d="M59.6,16.4c0-3.9,0-7.8,0-11.7c0-0.2-0.3-0.5,0.1-0.8c0,4.2,0,8.4,0,12.5C59.7,16.4,59.6,16.4,59.6,16.4z"/>
	<path class="st60" d="M46.5,13.8c0-3.7,0-7.4,0-11.1c0.1,0.2,0.1,0.4,0.1,0.6c0,3.6,0,7.3,0,10.9c0,0.1,0.1,0.3-0.1,0.4
		C46.2,14.3,46.6,14,46.5,13.8z"/>
	<path class="st31" d="M49.7,5.1c-0.3,0.1-0.4,0.3-0.4,0.7c0,0.9,0.1,1.8,0,2.7c0,0.5,0.1,0.6,0.6,0.7c-0.7,0.4-0.7,0.4-0.7-0.4
		c0-1.1,0-2.2,0-3.3C49,5,49.2,4.8,49.7,5.1z"/>
	<path class="st50" d="M35,8.9c0.1,0,0.1,0,0.2,0c0,0.1,0,0.3-0.1,0.4c0,0-0.1,0-0.1,0C35.1,9.2,35,9.1,35,8.9z"/>
	<path class="st61" d="M43,6.9c0,0.3,0.1,0.6-0.1,0.9C42.9,7.5,42.8,7.2,43,6.9z"/>
	<path class="st62" d="M39.8,13c0-0.2-0.1-0.5,0.1-0.7C39.9,12.6,39.9,12.8,39.8,13z"/>
	<path class="st63" d="M43.7,11.5c-0.2-0.2-0.1-0.5-0.1-0.7C43.7,11,43.7,11.2,43.7,11.5z"/>
	<path class="st63" d="M42.6,10.5c0,0.3,0.1,0.5-0.1,0.7C42.5,11,42.5,10.7,42.6,10.5z"/>
	<path class="st2" d="M56.2,10.2c0-0.3-0.1-0.5,0.1-0.7C56.3,9.7,56.3,10,56.2,10.2z"/>
	<path class="st61" d="M42.7,9.4c0,0.3,0.1,0.5-0.1,0.8C42.6,9.9,42.6,9.6,42.7,9.4z"/>
	<path class="st2" d="M56.3,9.2c0-0.2-0.1-0.5,0.1-0.7C56.5,8.7,56.4,9,56.3,9.2z"/>
	<path class="st2" d="M55.8,8.2c0.2,0.2,0.1,0.5,0.1,0.7C55.8,8.7,55.8,8.5,55.8,8.2z"/>
	<path class="st61" d="M42.9,8.2c0,0.2,0.1,0.5-0.1,0.7C42.7,8.6,42.7,8.4,42.9,8.2z"/>
	<path class="st63" d="M43.3,8.1c-0.2-0.2-0.1-0.5-0.1-0.7C43.3,7.6,43.3,7.8,43.3,8.1z"/>
	<path class="st2" d="M56.6,7.2c0-0.2-0.1-0.5,0.1-0.7C56.7,6.7,56.7,7,56.6,7.2z"/>
	<path class="st48" d="M64.5,8.2c0.2,0.8,0.2,1.6,0,2.4C64.5,9.9,64.5,9,64.5,8.2z"/>
	<path class="st63" d="M43.1,8.5c0.1,0.9,0.2,1.8,0.3,2.7c0,0.3,0,0.6-0.4,0.6c-0.5,0-0.2-0.4-0.2-0.6C42.7,10.3,42.9,9.4,43.1,8.5z
		"/>
</g>
</svg>
