<?xml version="1.0" encoding="utf-8"?>
<!-- Generator: Adobe Illustrator 27.0.0, SVG Export Plug-In . SVG Version: 6.00 Build 0)  -->
<svg version="1.1" id="Layer_1" xmlns="http://www.w3.org/2000/svg" xmlns:xlink="http://www.w3.org/1999/xlink" x="0px" y="0px"
	 viewBox="0 0 100 100" style="enable-background:new 0 0 100 100;" xml:space="preserve">
<style type="text/css">
	.st0{fill:#2B90D9;}
	.st1{fill:#FFFFFF;}
</style>
<g>
	<path class="st0" d="M94.3,59.9c-1.4,7-12.2,14.6-24.6,16.1c-6.5,0.8-12.9,1.5-19.6,1.2c-11.1-0.5-19.9-2.7-19.9-2.7
		c0,1.1,0.1,2.1,0.2,3.1c1.4,11,10.9,11.6,19.8,11.9c9,0.3,17.1-2.2,17.1-2.2l0.4,8.2c0,0-6.3,3.4-17.5,4
		c-6.2,0.3-13.9-0.2-22.9-2.5C7.7,91.8,4.4,71.1,3.9,50C3.7,43.8,3.8,37.9,3.8,33c0-21.5,14.1-27.8,14.1-27.8
		c7.1-3.3,19.3-4.6,32-4.7h0.3c12.7,0.1,24.9,1.5,32,4.7c0,0,14.1,6.3,14.1,27.8C96.2,33,96.4,48.8,94.3,59.9"/>
	<path class="st1" d="M79.6,34.7v26H69.3V35.4c0-5.3-2.2-8-6.7-8c-5,0-7.4,3.2-7.4,9.5v13.8H44.9V36.9c0-6.3-2.5-9.5-7.4-9.5
		c-4.5,0-6.7,2.7-6.7,8v25.3H20.4v-26c0-5.3,1.4-9.5,4.1-12.7c2.8-3.1,6.5-4.7,11-4.7c5.3,0,9.3,2,11.9,6.1l2.6,4.3l2.6-4.3
		c2.6-4.1,6.6-6.1,11.9-6.1c4.6,0,8.2,1.6,11,4.7C78.2,25.1,79.6,29.3,79.6,34.7"/>
</g>
</svg>
