<?xml version="1.0" encoding="utf-8"?>
<!-- Generator: Adobe Illustrator 27.0.0, SVG Export Plug-In . SVG Version: 6.00 Build 0)  -->
<svg version="1.1" id="Layer_1" xmlns="http://www.w3.org/2000/svg" xmlns:xlink="http://www.w3.org/1999/xlink" x="0px" y="0px"
	 viewBox="0 0 100 100" style="enable-background:new 0 0 100 100;" xml:space="preserve">
<style type="text/css">
	.st0{fill:#F7F7F7;}
	.st1{fill:#0F0F0F;}
</style>
<path class="st0" d="M84.8,96H15.2C9,96,4,91,4,84.8V15.2C4,9,9,4,15.2,4h69.6C91,4,96,9,96,15.2v69.6C96,91,91,96,84.8,96z"/>
<g>
	<path class="st1" d="M53.5,49.4c0,11.4-9.2,20.5-20.5,20.5C21.6,70,12.3,60.8,12.3,49.4s9.2-20.5,20.5-20.5
		C44.2,28.9,53.5,38.1,53.5,49.4z"/>
	<path class="st1" d="M87.7,49.4c0,9.5-1.5,17.1-3.5,17.1s-3.5-7.7-3.5-17.1s1.5-17.1,3.5-17.1S87.7,40,87.7,49.4z"/>
	<path class="st1" d="M67.1,70c5.7,0,10.3-9.2,10.3-20.5c0-11.4-4.6-20.5-10.3-20.5c-5.7,0-10.3,9.2-10.3,20.5S61.5,70,67.1,70z"/>
</g>
</svg>
