<?xml version="1.0" encoding="utf-8"?>
<!-- Generator: Adobe Illustrator 27.0.0, SVG Export Plug-In . SVG Version: 6.00 Build 0)  -->
<svg version="1.1" id="Layer_1" xmlns="http://www.w3.org/2000/svg" xmlns:xlink="http://www.w3.org/1999/xlink" x="0px" y="0px"
	 viewBox="0 0 100 100" style="enable-background:new 0 0 100 100;" xml:space="preserve">
<style type="text/css">
	.st0{fill:#ED1C40;}
	.st1{fill:#FFFFFF;}
</style>
<g>
	<path class="st0" d="M15,0h70c8.3,0,15,6.7,15,15v70c0,8.3-6.7,15-15,15H15c-8.3,0-15-6.7-15-15V15C0,6.7,6.7,0,15,0z"/>
	<path class="st1" d="M65.4,27c1.2,0.2,4.1-3.1,10.5-1.4c11.1,3.3,2.1,19.1,0.8,22.1c-2,3.7-10.4,19.7-2.5,21.3c3.5,0.8,9,0,8.2,5.1
		c-0.6,5.3-12.7,2.5-15,1.4c-10.2-4.3-7.6-15-2.7-23c2-4.1,8.8-13.7,4.5-15.2c-2.7-1-5.7,6.6-6.6,8.8c-1.2,2.3-8.6,16.8-10.2,19.1
		c-3.9,6.2-11.1,3.1-9.6-2.1c2.1-6.8,10.9-22.7,5.7-23.4c-2.7-0.4-4.1,2.7-4.9,4.5c-1.6,3.1-7.4,19.9-10.4,26.2
		c-3.7,7.8-19.3,4.5-16.6-7.2c1-4.5,6.6-22.1,7.8-25.2c2.3-5.9,4.7-13.5,13.7-13.7c2.5,0,6.4,2.9,9.2,3.9c2.7,0.8,4.7-4.7,9.8-5.1
		C63.3,22.5,63.1,26.8,65.4,27z"/>
</g>
</svg>
