<?xml version="1.0" encoding="utf-8"?>
<!-- Generator: Adobe Illustrator 27.0.0, SVG Export Plug-In . SVG Version: 6.00 Build 0)  -->
<svg version="1.1" id="Layer_1" xmlns="http://www.w3.org/2000/svg" xmlns:xlink="http://www.w3.org/1999/xlink" x="0px" y="0px"
	 viewBox="0 0 100 100" style="enable-background:new 0 0 100 100;" xml:space="preserve">
<style type="text/css">
	.st0{fill:#8459A8;}
	.st1{fill:#FFFFFF;}
	.st2{fill:#70498F;}
</style>
<g id="_24-meetme">
	<path class="st0" d="M17.5,0h65C92.2,0,100,7.8,100,17.5v65c0,9.7-7.8,17.5-17.5,17.5h-65C7.8,100,0,92.2,0,82.5v-65
		C0,7.8,7.8,0,17.5,0z"/>
	<path class="st1" d="M49.4,14.5c-19.9,0-36.1,16.2-36.1,36.1c0,6.1,1.6,12.1,4.5,17.4l-4,18.2l17.5-4.4c17.3,10,39.3,4.1,49.3-13.1
		s4.1-39.3-13.1-49.3C61.9,16.2,55.7,14.5,49.4,14.5z M56.9,33.9c2.3,0,4.2,1.9,4.2,4.2c0,2.3-1.9,4.2-4.2,4.2
		c-2.3,0-4.2-1.9-4.2-4.2C52.7,35.8,54.5,33.9,56.9,33.9L56.9,33.9z M38.1,37.7c2.3,0,4.2,1.9,4.2,4.2c0,2.3-1.9,4.2-4.2,4.2
		c-2.3,0-4.2-1.9-4.2-4.2C33.9,39.5,35.8,37.7,38.1,37.7z M74.1,51c-2.1,6.9-10.6,12.9-21.2,15c-2.6,0.5-5.2,0.8-7.8,0.8
		c-8,0-14.8-2.6-18.1-7.2c-1-1.4-0.8-3.3,0.6-4.4c1.4-1,3.3-0.8,4.4,0.6c0,0,0.1,0.1,0.1,0.1c2.5,3.4,10,5.9,19.6,3.9
		c9.2-1.8,15.2-6.7,16.5-10.7c0.6-1.6,2.3-2.5,4-1.9C73.7,47.7,74.5,49.4,74.1,51L74.1,51z"/>
	<path class="st2" d="M78,28.7L78,28.7c12.1,15.8,9,38.5-6.8,50.6c-11.6,8.8-27.3,9.8-39.9,2.6L14,86.2L27.3,100h55.2
		c9.7,0,17.5-7.8,17.5-17.5c0,0,0,0,0,0V50.7L78,28.7z"/>
</g>
</svg>
