<?xml version="1.0" encoding="utf-8"?>
<!-- Generator: Adobe Illustrator 27.0.0, SVG Export Plug-In . SVG Version: 6.00 Build 0)  -->
<svg version="1.1" id="Layer_1" xmlns="http://www.w3.org/2000/svg" xmlns:xlink="http://www.w3.org/1999/xlink" x="0px" y="0px"
	 viewBox="0 0 100 100" style="enable-background:new 0 0 100 100;" xml:space="preserve">
<style type="text/css">
	.st0{fill-rule:evenodd;clip-rule:evenodd;fill:#FFFFFF;fill-opacity:0;}
	.st1{fill-rule:evenodd;clip-rule:evenodd;fill:url(#Path_00000164511199413749414160000011521089807788407473_);}
	.st2{fill-rule:evenodd;clip-rule:evenodd;fill:#FFFFFF;}
</style>
<g id="logo_00000144300199840484140980000017275872463793609123_">
	<rect id="bounding-box" class="st0" width="100" height="100"/>
	<g id="logo">
		
			<radialGradient id="Path_00000151509716403416648460000009230594261373861788_" cx="-0.1075" cy="100.0405" r="0.1064" gradientTransform="matrix(800 0 0 -799.9985 112 80121.8516)" gradientUnits="userSpaceOnUse">
			<stop  offset="0" style="stop-color:#0099FF"/>
			<stop  offset="0.6098" style="stop-color:#A033FF"/>
			<stop  offset="0.9348" style="stop-color:#FF5280"/>
			<stop  offset="1" style="stop-color:#FF7061"/>
		</radialGradient>
		
			<path id="Path" style="fill-rule:evenodd;clip-rule:evenodd;fill:url(#Path_00000151509716403416648460000009230594261373861788_);" d="
			M50,11.9c-22,0-39.1,16.1-39.1,37.9c0,11.4,4.7,21.2,12.3,28c0.6,0.6,1,1.4,1,2.2l0.2,6.9c0.1,2.2,2.4,3.7,4.4,2.8l7.8-3.4
			c0.7-0.3,1.4-0.3,2.1-0.2c3.6,1,7.4,1.5,11.3,1.5c22,0,39.1-16.1,39.1-37.9S72,11.9,50,11.9z"/>
		<path id="Path_00000054229073565135824980000008458658553267745677_" class="st2" d="M26.5,60.9L38,42.7c1.8-2.9,5.7-3.6,8.5-1.6
			l9.1,6.8c0.8,0.6,2,0.6,2.8,0l12.3-9.4c1.6-1.2,3.8,0.7,2.7,2.5L62,59.3c-1.8,2.9-5.7,3.6-8.5,1.6L44.4,54c-0.8-0.6-2-0.6-2.8,0
			l-12.3,9.4C27.6,64.6,25.4,62.6,26.5,60.9z"/>
	</g>
</g>
</svg>
