<?xml version="1.0" encoding="utf-8"?>
<!-- Generator: Adobe Illustrator 27.0.0, SVG Export Plug-In . SVG Version: 6.00 Build 0)  -->
<svg version="1.1" id="Layer_1" xmlns="http://www.w3.org/2000/svg" xmlns:xlink="http://www.w3.org/1999/xlink" x="0px" y="0px"
	 viewBox="0 0 100 100" style="enable-background:new 0 0 100 100;" xml:space="preserve">
<style type="text/css">
	.st0{fill:#001B36;stroke:#FFCC00;stroke-width:4.6;}
	.st1{fill:#FFFFFF;}
</style>
<g>
	<circle class="st0" cx="50" cy="50" r="47.4"/>
	<path class="st1" d="M12,57.4l7.3-7.8l4.4,4.1C23,47.7,24.4,42.9,28,39c1.9-2,4-3.4,6.3-4.1c2.3-0.7,4.7-0.8,7.4-0.1
		c-0.4-3-0.3-5.7,0.4-8.1c0.7-2.4,1.9-4.5,3.6-6.4c2.2-2.3,4.6-3.9,7.1-4.6c2.5-0.7,5.1-0.6,7.7,0.3c1.9,0.7,4.4,2.5,7.5,5.3
		l20.7,19.1l-8,8.4L62.2,31.7c-3.2-3-5.6-4.6-7-4.9c-2-0.3-3.7,0.3-5.2,1.9c-1.1,1.2-1.8,2.6-2.1,4.3c-0.3,1.7,0.1,3.5,1.1,5.2
		c1,1.8,3,4,6,6.9l15.5,14.3l-8,8.4L44.8,51.6c-3.1-2.9-5.3-4.6-6.5-5.2C37.1,45.9,36,45.7,35,46c-1,0.2-2.1,0.9-3.1,1.9
		c-1.2,1.3-2,2.8-2.3,4.5c-0.3,1.7,0,3.4,1,5.1c0.9,1.7,2.9,4,6,6.8l15.7,14.5l-8,8.4L12,57.4z"/>
</g>
</svg>
