<?xml version="1.0" encoding="utf-8"?>
<!-- Generator: Adobe Illustrator 27.0.0, SVG Export Plug-In . SVG Version: 6.00 Build 0)  -->
<svg version="1.1" id="Layer_1" xmlns="http://www.w3.org/2000/svg" xmlns:xlink="http://www.w3.org/1999/xlink" x="0px" y="0px"
	 viewBox="0 0 100 100" style="enable-background:new 0 0 100 100;" xml:space="preserve">
<g>
	<g>
		<path d="M42.8,67.2C42.8,67.2,42.7,67.2,42.8,67.2c-3.8,0-7-3.1-7-6.9v-3.7c0-3.8,3.1-6.9,6.9-6.9s6.9,3.1,6.9,6.9v2
			c0,0.7-0.6,1.3-1.3,1.3h-9.9v0.4c0,2.4,1.9,4.3,4.3,4.3c0,0,0,0,0,0c1.5,0,2.9-0.8,3.6-2.1c0.4-0.6,1.2-0.9,1.8-0.5
			c0.6,0.4,0.9,1.2,0.5,1.8C47.5,65.9,45.2,67.2,42.8,67.2z M38.4,57.3h8.6v-0.7c0-2.4-1.9-4.3-4.3-4.3c-2.4,0-4.3,1.9-4.3,4.3V57.3
			z"/>
	</g>
	<g>
		<path d="M85.2,67.2C85.2,67.2,85.2,67.2,85.2,67.2c-3.8,0-6.9-3.1-7-6.9v-3.7c0-3.8,3.1-6.9,6.9-7c0,0,0,0,0,0
			c3.8,0,6.9,3.1,6.9,6.9v2c0,0.7-0.6,1.3-1.3,1.3h-9.9v0.4c0,2.4,1.9,4.3,4.3,4.3c0,0,0,0,0,0c1.5,0,2.9-0.8,3.6-2.1
			c0.4-0.6,1.2-0.9,1.8-0.5c0.6,0.4,0.9,1.2,0.5,1.8C89.9,65.9,87.6,67.2,85.2,67.2z M80.8,57.3h8.6v-0.7c0-2.4-1.9-4.3-4.3-4.3
			c0,0,0,0,0,0c-1.2,0-2.2,0.5-3,1.3c-0.8,0.8-1.3,1.9-1.3,3.1V57.3z"/>
	</g>
	<g>
		<path d="M71.3,67.2c-0.6,0-1.1-0.4-1.3-1l-4.4-17.4l-4.4,17.4c-0.1,0.6-0.7,1-1.3,1l0,0c-0.6,0-1.1-0.4-1.3-1l-5.6-22.5
			c-0.2-0.7,0.3-1.4,1-1.6c0.7-0.2,1.4,0.3,1.6,1L60,60.5l4.4-17.4c0.1-0.6,0.7-1,1.3-1l0,0c0.6,0,1.1,0.4,1.3,1l4.4,17.4l4.4-17.4
			c0.2-0.7,0.9-1.1,1.6-1c0.7,0.2,1.1,0.9,1,1.6l-5.6,22.5C72.4,66.8,71.9,67.2,71.3,67.2z"/>
	</g>
	<g>
		<circle cx="65.6" cy="36.3" r="2"/>
	</g>
	<g>
		<circle cx="54" cy="36.3" r="2"/>
	</g>
	<g>
		<circle cx="77.3" cy="36.3" r="2"/>
	</g>
	<g>
		<path d="M31.7,67.2c-0.7,0-1.3-0.6-1.3-1.3V49l-8.8,17.5c-0.2,0.4-0.7,0.7-1.2,0.7c-0.5,0-1-0.3-1.2-0.7L10.5,49v16.9
			c0,0.7-0.6,1.3-1.3,1.3s-1.3-0.6-1.3-1.3V43.4c0-0.6,0.4-1.1,1-1.3c0.6-0.1,1.2,0.1,1.5,0.7L20.5,63l10.1-20.2
			c0.3-0.5,0.9-0.8,1.5-0.7c0.6,0.1,1,0.7,1,1.3v22.5C33,66.6,32.5,67.2,31.7,67.2z"/>
	</g>
	<g>
		<circle cx="20.5" cy="36.3" r="2"/>
	</g>
	<g>
		<path d="M93.4,100C93.4,100,93.4,100,93.4,100H6.6C3,100,0,97,0,93.4V6.6C0,3,3,0,6.6,0h86.8C97,0,100,3,100,6.6v86.8
			C100,97,97,100,93.4,100z M6.6,2.6c-2.2,0-3.9,1.8-3.9,4v86.8c0,2.2,1.8,3.9,4,3.9h86.8c2.2,0,3.9-1.8,3.9-4V6.6
			c0-2.2-1.8-3.9-4-3.9H6.6z"/>
	</g>
</g>
</svg>
