<?xml version="1.0" encoding="utf-8"?>
<!-- Generator: Adobe Illustrator 27.0.0, SVG Export Plug-In . SVG Version: 6.00 Build 0)  -->
<svg version="1.1" id="Layer_1" xmlns="http://www.w3.org/2000/svg" xmlns:xlink="http://www.w3.org/1999/xlink" x="0px" y="0px"
	 viewBox="0 0 100 100" style="enable-background:new 0 0 100 100;" xml:space="preserve">
<style type="text/css">
	.st0{fill:#5059C9;}
	.st1{fill:#7B83EB;}
	.st2{opacity:0.1;enable-background:new    ;}
	.st3{opacity:0.2;enable-background:new    ;}
	.st4{fill:url(#SVGID_1_);}
	.st5{fill:#FFFFFF;}
</style>
<g>
	<path class="st0" d="M69.4,38.6h25.3c2.4,0,4.3,1.9,4.3,4.3l0,0V66c0,8.8-7.1,15.9-15.9,15.9l0,0H83c-8.8,0-15.9-7.1-15.9-15.9
		c0,0,0,0,0,0V40.9C67.1,39.6,68.1,38.6,69.4,38.6L69.4,38.6z"/>
	<circle class="st0" cx="86.5" cy="23.8" r="10.3"/>
	<circle class="st1" cx="54.6" cy="19.2" r="14.8"/>
	<path class="st1" d="M74.3,38.6H32.5c-2.4,0.1-4.2,2-4.2,4.4v26.3C28,83.5,39.2,95.2,53.4,95.6c14.2-0.3,25.4-12.1,25.1-26.3V43
		C78.5,40.6,76.7,38.7,74.3,38.6z"/>
	<path class="st2" d="M55.7,38.6v36.8c0,1.7-1,3.2-2.6,3.9c-0.5,0.2-1,0.3-1.6,0.3H30.4c-0.3-0.8-0.6-1.5-0.8-2.3
		c-0.8-2.6-1.2-5.3-1.2-8.1V43c-0.1-2.4,1.8-4.3,4.2-4.4H55.7z"/>
	<path class="st3" d="M53.4,38.6v39.1c0,0.5-0.1,1.1-0.3,1.6c-0.6,1.6-2.2,2.6-3.9,2.6H31.4c-0.4-0.8-0.8-1.5-1.1-2.3
		c-0.3-0.8-0.6-1.5-0.8-2.3c-0.8-2.6-1.2-5.3-1.2-8.1V43c-0.1-2.4,1.8-4.3,4.2-4.4H53.4z"/>
	<path class="st3" d="M53.4,38.6v34.6c0,2.3-1.9,4.2-4.2,4.2H29.6c-0.8-2.6-1.2-5.3-1.2-8.1V43c-0.1-2.4,1.8-4.3,4.2-4.4H53.4z"/>
	<path class="st3" d="M51.1,38.6v34.6c0,2.3-1.9,4.2-4.2,4.2H29.6c-0.8-2.6-1.2-5.3-1.2-8.1V43c-0.1-2.4,1.8-4.3,4.2-4.4H51.1z"/>
	<path class="st2" d="M55.7,26.8V34c-0.4,0-0.8,0-1.1,0s-0.8,0-1.1,0c-0.8-0.1-1.5-0.2-2.3-0.4c-4.6-1.1-8.4-4.3-10.3-8.7
		c-0.3-0.7-0.6-1.5-0.7-2.3h11.4C53.8,22.7,55.7,24.5,55.7,26.8z"/>
	<path class="st3" d="M53.4,29.1V34c-0.8-0.1-1.5-0.2-2.3-0.4c-4.6-1.1-8.4-4.3-10.3-8.7h8.4C51.5,24.9,53.4,26.8,53.4,29.1z"/>
	<path class="st3" d="M53.4,29.1V34c-0.8-0.1-1.5-0.2-2.3-0.4c-4.6-1.1-8.4-4.3-10.3-8.7h8.4C51.5,24.9,53.4,26.8,53.4,29.1z"/>
	<path class="st3" d="M51.1,29.1v4.5c-4.6-1.1-8.4-4.3-10.3-8.7H47C49.3,24.9,51.1,26.8,51.1,29.1z"/>
	
		<linearGradient id="SVGID_1_" gradientUnits="userSpaceOnUse" x1="9.7168" y1="-133.6627" x2="42.4305" y2="-77.0039" gradientTransform="matrix(1 0 0 1 0 155.3333)">
		<stop  offset="0" style="stop-color:#5A62C3"/>
		<stop  offset="0.5" style="stop-color:#4D55BD"/>
		<stop  offset="1" style="stop-color:#3940AB"/>
	</linearGradient>
	<path class="st4" d="M5.2,24.9H47c2.3,0,4.2,1.9,4.2,4.2v41.8c0,2.3-1.9,4.2-4.2,4.2H5.2c-2.3,0-4.2-1.9-4.2-4.2V29.1
		C1,26.8,2.9,24.9,5.2,24.9z"/>
	<path class="st5" d="M37.1,40.8h-8.4v22.7h-5.3V40.8h-8.3v-4.4h22V40.8z"/>
</g>
</svg>
