<?xml version="1.0" encoding="utf-8"?>
<!-- Generator: Adobe Illustrator 27.0.0, SVG Export Plug-In . SVG Version: 6.00 Build 0)  -->
<svg version="1.1" id="Layer_1" xmlns="http://www.w3.org/2000/svg" xmlns:xlink="http://www.w3.org/1999/xlink" x="0px" y="0px"
	 viewBox="0 0 100 100" style="enable-background:new 0 0 100 100;" xml:space="preserve">
<g>
	<path d="M87.4,38.7c6.2,0,11.2-5,11.2-11.2s-5-11.2-11.2-11.2s-11.2,5-11.2,11.2S81.3,38.7,87.4,38.7z M87.4,18.8
		c4.8,0,8.8,3.9,8.8,8.8c0,4.8-3.9,8.8-8.8,8.8c-4.8,0-8.8-3.9-8.8-8.8C78.7,22.7,82.6,18.8,87.4,18.8z"/>
	<path d="M60.2,16.3c-6,0-8,2.6-9.4,4.6c-0.2,0.3-0.4,0.6-0.7,0.8l-8.6,11.2c-1.6,1.9-3,2.9-4.4,2.9c-1.3,0-2.8-1-4.3-3
		c-0.1-0.1-0.2-0.2-0.2-0.2l-8-10.3c-0.2-0.2-0.4-0.5-0.6-0.7c-1.8-2.3-3.9-5.2-10.1-5.2c0,0,0,0,0,0c-6.9,0-12.5,5.6-12.5,12.5h0
		v42.4h0c0,0,0,0,0,0c0,3.3,1.3,6.4,3.7,8.8c2.3,2.3,5.5,3.6,8.8,3.7c0,0,0,0,0.1,0c6.9,0,12.5-5.6,12.5-12.4v-7.5l0.8,1
		c0.3,0.5,4.1,5.5,9.6,5.7c0.1,0,0.2,0,0.3,0c3.4,0,6.7-1.9,9.8-5.7c0,0,0,0,0,0l0.8-1v7.5c0,0,0,0,0,0c0,6.9,5.6,12.5,12.5,12.5
		c6.9,0,12.5-5.6,12.5-12.5c0,0,0,0,0,0V28.8C72.6,21.9,67,16.3,60.2,16.3z M20.9,78.3c-1.9,1.9-4.4,2.9-7.1,2.9c0,0,0,0,0,0
		c-5.5,0-10-4.5-10-10V45.7c0,0,0,0,0,0c0.3-1.9,1.5-3.5,3-3.9c1.3-0.3,2.6,0.2,3.8,1.7c0,0,0,0.1,0.1,0.1l13.2,17v10.7
		C23.9,73.9,22.8,76.4,20.9,78.3z M45,63.2L45,63.2c-2.7,3.3-5.4,4.9-8.2,4.8c-4.4-0.2-7.7-4.7-7.7-4.7l0,0c0,0,0,0,0,0l-3-3.8
		c0,0,0,0,0,0L12.8,42.3c0-0.1-0.1-0.1-0.1-0.2c-1.8-2.3-4.2-3.3-6.5-2.7c-0.9,0.2-1.7,0.7-2.4,1.4v-12c0-5.5,4.5-10.1,10.1-10.1
		c5,0,6.5,2.1,8.2,4.2c0.2,0.3,0.4,0.5,0.6,0.8l22.1,28.4c0,0,0.1,0.1,0.1,0.1c2,2.3,4.2,2.9,5.7,2.9c0.1,0,0.2,0,0.3,0
		c0.1,0,0.2,0,0.3,0l-3.3,4.2c0,0,0,0,0,0L45,63.2z M60.2,81.2c-5.5,0-10-4.5-10.1-10c0,0,0,0,0,0V60.5l6.5-8.4
		c0.2-0.3,0.5-0.6,0.7-0.9c0,0,0,0,0-0.1l6.1-7.9c0,0,0.1-0.1,0.1-0.1c0.5-0.9,1.3-1.4,2.3-1.7c1-0.2,2-0.1,2.8,0.4
		c0.7,0.4,1.2,1,1.5,1.7v27.5c0,0,0,0,0,0C70.2,76.7,65.7,81.2,60.2,81.2z M70.2,40c-0.1,0-0.1-0.1-0.2-0.1c-2.9-1.8-6.7-0.9-8.5,2
		l-6.8,8.7c-1.2,1.3-2.6,2.1-4,2.2c-1.5,0.1-2.9-0.7-4.1-2.1c0,0,0,0,0,0L37,38.2c0,0,0,0,0,0c2.2,0,4.2-1.2,6.3-3.8l8.6-11.1
		c0.2-0.3,0.5-0.6,0.7-0.9c1.3-1.8,2.7-3.6,7.5-3.6c5.5,0,10.1,4.5,10.1,10.1V40z"/>
	<path d="M87.4,40.6C87.4,40.6,87.4,40.6,87.4,40.6L87.4,40.6c-6.2,0-11.2,5-11.2,11.2v20.6c0,6.2,5,11.2,11.2,11.2
		s11.2-5,11.2-11.2V51.8C98.7,45.6,93.6,40.6,87.4,40.6z M96.2,72.5c0,4.8-3.9,8.8-8.8,8.8c-4.8,0-8.8-3.9-8.8-8.8V51.8
		c0-4.8,3.9-8.8,8.8-8.8h0c4.8,0,8.8,3.9,8.8,8.8V72.5z"/>
</g>
</svg>
