<?xml version="1.0" encoding="utf-8"?>
<!-- Generator: Adobe Illustrator 27.0.0, SVG Export Plug-In . SVG Version: 6.00 Build 0)  -->
<svg version="1.1" id="Layer_1" xmlns="http://www.w3.org/2000/svg" xmlns:xlink="http://www.w3.org/1999/xlink" x="0px" y="0px"
	 viewBox="0 0 100 100" style="enable-background:new 0 0 100 100;" xml:space="preserve">
<style type="text/css">
	.st0{fill:none;}
	.st1{fill:#DE1C1C;}
	.st2{fill:#FF8226;}
	.st3{fill:#FFD41F;}
</style>
<g>
	<path class="st0" d="M0,0h100v100H0V0z"/>
	<path class="st1" d="M7.5,51.4v29.9c0,4.5,4,8.5,8.5,8.3c4.5,0.1,8.5-3.8,8.5-8.4V35.6C24.2,44.3,16.3,51.7,7.5,51.4"/>
	<path class="st2" d="M7.5,13.1v46c8.7,0.2,16.6-7.1,17-15.8c0-0.2,0-8.7,0-8.6c1.3-10.5,16.5-9.9,17,0.6v32.7
		c0.7,10.7,16.3,10.7,17,0v-22c0-4.4,29.2-33,33.6-32.9L7.5,13.1L7.5,13.1z"/>
	<path class="st3" d="M92.2,13.1c-17.8-0.5-33.8,15.1-33.6,32.9v10.2c0.3-11.2,16.8-11.2,17,0v4.3c0.7,10.7,16.3,10.7,17,0V13.1
		H92.2L92.2,13.1z"/>
</g>
</svg>
