<?xml version="1.0" encoding="utf-8"?>
<!-- Generator: Adobe Illustrator 27.0.0, SVG Export Plug-In . SVG Version: 6.00 Build 0)  -->
<svg version="1.1" id="Layer_1" xmlns="http://www.w3.org/2000/svg" xmlns:xlink="http://www.w3.org/1999/xlink" x="0px" y="0px"
	 viewBox="0 0 100 100" style="enable-background:new 0 0 100 100;" xml:space="preserve">
<g>
	<path d="M49.2,3.1c27.9-1.8,52.5,16.6,50.7,44.5C98.2,74.5,75.2,88.5,53.1,97v-9.9c-29.2,2.1-55.7-12-52.9-42
		C2.3,21.9,25.5,4.8,49.2,3.1L49.2,3.1z M71.8,65.8h7.1v-22c0-5.7-0.4-9.9-2.8-12.7c-2.5-2.8-4.3-4.3-10.5-4.3
		c-4.6,0-9.3,2.4-13.4,7.4c-2.7-4.9-5.4-7.4-11.6-7.4c-3.9,0-9.6,2.2-12.7,7.1v-6.4h-7.3v38.4H28V45.9c0-6,2.8-9.3,5-11
		c1.5-1.1,3.8-1.8,5.4-1.8c2.8,0,5,0.8,6.1,2.7c1.1,1.7,1.8,3.2,1.8,9.3v20.7h7.1V44.3c0-6,5.2-11.2,9.9-11.2c4.6,0,5.9,1.5,7.3,3.2
		c1,1.1,1.1,4,1.1,7.4V65.8L71.8,65.8z"/>
</g>
</svg>
