<?xml version="1.0" encoding="utf-8"?>
<!-- Generator: Adobe Illustrator 27.0.0, SVG Export Plug-In . SVG Version: 6.00 Build 0)  -->
<svg version="1.1" id="Layer_1" xmlns="http://www.w3.org/2000/svg" xmlns:xlink="http://www.w3.org/1999/xlink" x="0px" y="0px"
	 viewBox="0 0 100 100" style="enable-background:new 0 0 100 100;" xml:space="preserve">
<style type="text/css">
	.st0{fill:#86BDD4;}
	.st1{fill:#FFFFFF;}
</style>
<g id="g5644">
	<rect id="rect2987" class="st0" width="100" height="100"/>
	<g id="g9-6" transform="matrix(1.5325298,0,0,1.5325298,-135.60855,-116.80547)">
		<path id="path11-1" class="st1" d="M126.5,90c1.4,4.9-1.4,10.1-6.3,11.5c-4.9,1.4-10.1-1.4-11.5-6.3c-1.4-4.9,1.4-10.1,6.3-11.5
			C120,82.3,125.1,85.1,126.5,90z"/>
		<path id="path13-1" class="st1" d="M105.9,99.4c5.1,0.2,9.1,4.4,9,9.6c-0.2,5.1-4.4,9.1-9.6,9c-5.1-0.2-9.1-4.4-9-9.6
			C96.5,103.3,100.8,99.2,105.9,99.4L105.9,99.4z"/>
		<path id="path15" class="st1" d="M108.4,121.9c1.7-4.8,7.1-7.3,11.9-5.6c4.8,1.7,7.3,7.1,5.6,11.9c-1.7,4.8-7.1,7.3-11.9,5.6
			C109.2,132,106.7,126.7,108.4,121.9L108.4,121.9z"/>
		<path id="path17-1" class="st1" d="M130.6,126.5c-4.1-3.1-4.8-9-1.6-13c3.1-4.1,9-4.8,13-1.6c4.1,3.1,4.8,9,1.6,13
			C140.5,128.9,134.7,129.6,130.6,126.5L130.6,126.5z"/>
		<path id="path19-7" class="st1" d="M141.8,106.8c-4.2,2.9-10,1.8-12.9-2.5c-2.9-4.2-1.8-10,2.5-12.9c4.2-2.9,10-1.8,12.9,2.5
			C147.2,98.1,146,103.9,141.8,106.8z"/>
	</g>
</g>
</svg>
