<?xml version="1.0" encoding="utf-8"?>
<!-- Generator: Adobe Illustrator 27.0.0, SVG Export Plug-In . SVG Version: 6.00 Build 0)  -->
<svg version="1.1" id="Layer_1" xmlns="http://www.w3.org/2000/svg" xmlns:xlink="http://www.w3.org/1999/xlink" x="0px" y="0px"
	 viewBox="0 0 100 100" style="enable-background:new 0 0 100 100;" xml:space="preserve">
<style type="text/css">
	.st0{fill:#2E51A2;}
	.st1{fill:#FFFFFF;}
</style>
<g>
	<circle class="st0" cx="50" cy="50" r="50"/>
	<path class="st1" d="M42.2,40.1v17.5l-4.4,0V46.8l-4.2,5l-4.1-5.1l0,11H25V40.1h4.6l3.9,5.3l4.2-5.3L42.2,40.1z M60.2,44.4
		l0.1,13.2h-4.9l0-6h-5.8c0.1,1,0.4,2.6,0.9,3.7c0.3,0.8,0.6,1.6,1.2,2.3L48,60c-0.7-1.3-1.3-2.8-1.8-4.3c-0.5-1.5-0.9-3-1.1-4.5
		c-0.2-1.6-0.2-3.1,0.2-4.6c0.4-1.5,1.3-2.8,2.4-3.9c0.7-0.6,1.6-1,2.3-1.4s1.5-0.5,2.3-0.7c0.8-0.2,1.6-0.3,2.5-0.4
		c0.8-0.1,2.3-0.1,5-0.1l1.1,3.6h-5.7c-1.2,0-1.8,0-2.8,0.4c-1.6,0.7-2.6,2.3-2.7,4l5.5,0.1l0.1-3.8L60.2,44.4L60.2,44.4z M68.5,40
		v13.8l6.5,0.1l-0.9,3.7h-10V40L68.5,40z"/>
</g>
</svg>
