<?xml version="1.0" encoding="utf-8"?>
<!-- Generator: Adobe Illustrator 27.0.0, SVG Export Plug-In . SVG Version: 6.00 Build 0)  -->
<svg version="1.1" id="Layer_1" xmlns="http://www.w3.org/2000/svg" xmlns:xlink="http://www.w3.org/1999/xlink" x="0px" y="0px"
	 viewBox="0 0 100 100" style="enable-background:new 0 0 100 100;" xml:space="preserve">
<g>
	<path d="M89.3,0H10.7C4.8,0,0,4.8,0,10.7v78.7C0,95.2,4.8,100,10.7,100h78.7c5.9,0,10.7-4.8,10.7-10.7V10.7C100,4.8,95.2,0,89.3,0z
		 M64.9,17.9C70.5,17.9,75,22.4,75,28c0,5.6-4.5,10.1-10.1,10.1c-5.6,0-10.1-4.5-10.1-10.1C54.9,22.4,59.4,17.9,64.9,17.9z
		 M44.6,21.2c4.3,0,7.8,3.5,7.8,7.8c0,4.3-3.5,7.8-7.8,7.8c-4.3,0-7.8-3.5-7.8-7.8C36.8,24.7,40.3,21.2,44.6,21.2z M29.7,23.8
		c2.9,0,5.2,2.3,5.2,5.2c0,2.9-2.3,5.2-5.2,5.2s-5.2-2.3-5.2-5.2C24.5,26.1,26.8,23.8,29.7,23.8z M78.6,79.7c0,1.3-1.1,2.4-2.4,2.4
		H52.4c-1.3,0-2.4-1.1-2.4-2.4V67.9H34.6c-1.3,0-2.4-1.1-2.4-2.4v-8.3h-8.3c-1.3,0-2.4-1.1-2.4-2.4V44.6c0-4.9,4-8.9,8.9-8.9
		c3.6,0,6.7,2.2,8.1,5.3c1.8-1,3.9-1.7,6.2-1.7c4.8,0,8.8,2.7,11,6.6c2.4-1.9,5.4-3,8.7-3c7.9,0,14.3,6.4,14.3,14.3L78.6,79.7
		L78.6,79.7z"/>
</g>
</svg>
