<?xml version="1.0" encoding="utf-8"?>
<!-- Generator: Adobe Illustrator 27.0.0, SVG Export Plug-In . SVG Version: 6.00 Build 0)  -->
<svg version="1.1" id="Layer_1" xmlns="http://www.w3.org/2000/svg" xmlns:xlink="http://www.w3.org/1999/xlink" x="0px" y="0px"
	 viewBox="0 0 100 100" style="enable-background:new 0 0 100 100;" xml:space="preserve">
<style type="text/css">
	.st0{fill:#8ED500;}
	.st1{fill:#FCFCFC;}
</style>
<g>
	<circle id="XMLID_1_" class="st0" cx="50" cy="50" r="50"/>
	<g id="LG_GRN_LOGO_3_">
		<path class="st1" d="M53.3,31c-6.9,0-12.7,3.2-16,8c-0.3,0.4-0.7,1.3-1.4,1.3c-3,0-3.2-3.7-3.3-7c0-0.5-0.4-0.9-0.9-0.9l-8.7,0
			c-0.5,0-0.9,0.4-0.9,0.9c0.2,8.1,1.7,13.6,11.5,15.8c0.5,0.1,0.9,0.6,0.9,1.2c0,3.4,0,14.8,0,18.1c0,0.5,0.4,0.9,0.9,0.9h8.5
			c0.5,0,0.9-0.4,0.9-0.9V49.6c0-4.2,2.9-8.9,8.6-8.9c5.3,0,8.6,4.7,8.6,8.9v18.7c0,0.5,0.4,0.9,0.9,0.9h8.5c0.5,0,0.9-0.4,0.9-0.9
			V48.2C72.2,38.6,63.9,31,53.3,31z"/>
	</g>
</g>
</svg>
