<?xml version="1.0" encoding="utf-8"?>
<!-- Generator: Adobe Illustrator 27.5.0, SVG Export Plug-In . SVG Version: 6.00 Build 0)  -->
<svg version="1.1" id="Layer_1" xmlns="http://www.w3.org/2000/svg" xmlns:xlink="http://www.w3.org/1999/xlink" x="0px" y="0px"
	 viewBox="0 0 100 100" style="enable-background:new 0 0 100 100;" xml:space="preserve">
<style type="text/css">
	.st0{fill:#FAAB62;}
	.st1{fill:#F7931E;}
	.st2{fill:#FFFFFF;}
</style>
<g>
	<path class="st0" d="M100,85.2c0,8-6.5,14.6-14.6,14.6H14.6C6.5,99.7,0,93.2,0,85.2V14.8c0-8,6.5-14.6,14.6-14.6h70.9
		c8,0,14.6,6.5,14.6,14.6V85.2z"/>
	<path class="st1" d="M99.5,84.8c0,8-6.5,14.4-14.4,14.4H14.9c-8,0-14.4-6.5-14.4-14.4V15.2c0-8,6.5-14.4,14.4-14.4h70.2
		c8,0,14.4,6.5,14.4,14.4L99.5,84.8L99.5,84.8z"/>
	<path class="st2" d="M49.9,15.1c-9.9,0-17.9,8-17.9,17.9C32,43,40,51,49.9,51s17.9-8,17.9-17.9C67.9,23.2,59.9,15.1,49.9,15.1z
		 M49.9,40.5c-4.1,0-7.4-3.3-7.4-7.4s3.3-7.4,7.4-7.4s7.4,3.3,7.4,7.4S54,40.5,49.9,40.5z"/>
	<g>
		<path class="st2" d="M56.3,65.3c7.2-1.5,11.5-4.9,11.7-5c2.1-1.7,2.4-4.8,0.8-6.9c-1.7-2.1-4.8-2.4-6.9-0.8c0,0-4.6,3.6-12.2,3.6
			c-7.6,0-12.2-3.5-12.3-3.6c-2.1-1.7-5.2-1.3-6.9,0.8c-1.7,2.1-1.3,5.2,0.8,6.9c0.2,0.2,4.7,3.7,12.1,5.1L33.1,76.1
			c-1.9,1.9-1.8,5,0.1,6.9c0.9,0.9,2.2,1.4,3.4,1.4c1.3,0,2.6-0.5,3.5-1.5l9.6-10.2l10.5,10.3c1.9,1.9,5,1.9,6.9,0
			c1.9-1.9,1.9-5,0-6.9L56.3,65.3z"/>
		<path class="st2" d="M49.7,56.2C49.7,56.2,49.7,56.2,49.7,56.2C49.7,56.2,49.7,56.2,49.7,56.2z"/>
	</g>
</g>
</svg>
