<?xml version="1.0" encoding="utf-8"?>
<!-- Generator: Adobe Illustrator 27.0.0, SVG Export Plug-In . SVG Version: 6.00 Build 0)  -->
<svg version="1.1" id="Layer_1" xmlns="http://www.w3.org/2000/svg" xmlns:xlink="http://www.w3.org/1999/xlink" x="0px" y="0px"
	 viewBox="0 0 100 100" style="enable-background:new 0 0 100 100;" xml:space="preserve">
<style type="text/css">
	.st0{fill:#00AEEF;}
	.st1{fill:#008CCF;}
</style>
<g>
	<path class="st0" d="M33.3,16.7C14.9,16.7,0,31.6,0,50s14.9,33.3,33.3,33.3c18.4,0,33.3-14.9,33.3-33.3
		C66.7,31.6,51.7,16.7,33.3,16.7z M33.3,60c-5.5,0-10-4.5-10-10c0-5.5,4.5-10,10-10c5.5,0,10,4.5,10,10C43.3,55.5,38.9,60,33.3,60z"
		/>
	<path class="st1" d="M70.8,41.7c8.5,2.4,18.5,0,18.5,0c-2.9,12.7-12.1,20.6-25.4,21.6C58.8,75.1,47,83.3,33.3,83.3l10-31.8
		c10.3-32.7,15.5-34.9,39.9-34.9l16.7,0C97.2,29,87.5,38.4,70.8,41.7z"/>
</g>
</svg>
