<?xml version="1.0" encoding="utf-8"?>
<!-- Generator: Adobe Illustrator 27.5.0, SVG Export Plug-In . SVG Version: 6.00 Build 0)  -->
<svg version="1.1" id="Layer_1" xmlns="http://www.w3.org/2000/svg" xmlns:xlink="http://www.w3.org/1999/xlink" x="0px" y="0px"
	 viewBox="0 0 100 100" style="enable-background:new 0 0 100 100;" xml:space="preserve">
<style type="text/css">
	.st0{fill:#F9F9F9;}
	.st1{fill:#2299F8;}
</style>
<path class="st0" d="M86.9,100H13.1C5.9,100,0,94.1,0,86.9V13.1C0,5.9,5.9,0,13.1,0H87c7.1,0,13,5.9,13,13.1V87
	C100,94.1,94.1,100,86.9,100z"/>
<g>
	<path class="st1" d="M21.2,49.9c0-10.7,0-21.5,0-32.2c0-0.6,0.2-0.8,0.8-0.8c10.3,0,20.6,0,30.8,0c3.7,0,7.4,0.7,10.8,2.2
		c5.8,2.5,10.1,6.6,12.9,12.2c1.1,2.3,1.8,4.8,2.1,7.4c0.5,3.7,0,7.3-1.1,10.7c-1.1,3.5-3,6.6-5.6,9.3c-2.1,2.2-4.6,4-7.3,5.3
		c-2.2,1-4.6,1.8-7,2.1c-2,0.2-4,0.2-5.9,0.2c-3,0-6,0-9,0c-0.6,0-0.7,0.2-0.7,0.8c0,3.9,0,7.9,0,11.8c0,1.8-1.6,3.6-3.4,4
		c-0.6,0.1-1.2,0-1.8,0c-4.9,0-9.7,0-14.6,0c-0.6,0-0.8-0.2-0.8-0.8C21.2,71.5,21.2,60.7,21.2,49.9z"/>
</g>
</svg>
