<?xml version="1.0" encoding="utf-8"?>
<!-- Generator: Adobe Illustrator 27.0.0, SVG Export Plug-In . SVG Version: 6.00 Build 0)  -->
<svg version="1.1" id="Layer_1" xmlns="http://www.w3.org/2000/svg" xmlns:xlink="http://www.w3.org/1999/xlink" x="0px" y="0px"
	 viewBox="0 0 100 100" style="enable-background:new 0 0 100 100;" xml:space="preserve">
<style type="text/css">
	.st0{fill:#E90039;}
</style>
<g>
	<path class="st0" d="M62.1,0.5c1.8,0.3,3.6,0.4,5.4,0.8c15.5,3.5,25.9,12.8,30.4,28c6.3,21.3-6.6,43.5-28.1,49
		c-4.5,1.2-9.2,1.7-13.8,0.8c-8.3-1.6-15.6-9-15.8-19.1c-0.1-3.2,0-6.3,0-9.5c0-0.2,0-0.3,0.1-0.6c0.4,0,0.8,0,1.2,0c6,0,12,0,18,0
		c4.6,0,8.3-2.5,9.8-6.5c2.3-6.2-2-13.5-9.8-13.4c-6.4,0.1-12.7,0-19.1,0c-12.8,0-25.7,0-38.5,0c-0.4,0-0.9,0-1.3,0
		c0-0.5,0-1.1,0-1.6c0.1-0.9,0.3-1.7,0.4-2.6C2.6,13.8,11.7,4,23.5,1.4c1.6-0.4,3.3-0.6,4.9-0.8C39.6,0.5,50.9,0.5,62.1,0.5z"/>
	<path class="st0" d="M0.5,67.9c0.3-1.6,0.5-3.2,0.8-4.8C4,51.2,14.1,42,26.3,40.4c0.9-0.1,1.9-0.1,2.8-0.3c0.9-0.1,1.1,0.2,1.1,1.1
		c0,3.2,0,6.4,0,9.6c0,6.9,0.2,13.9-0.2,20.8c-0.5,10.3-5.5,18.1-14.2,23.6c-4.2,2.6-8.9,4-13.9,4.2c-0.5,0-0.9,0.1-1.4,0.2
		C0.5,89,0.5,78.4,0.5,67.9z"/>
</g>
</svg>
