<?xml version="1.0" encoding="utf-8"?>
<!-- Generator: Adobe Illustrator 27.0.0, SVG Export Plug-In . SVG Version: 6.00 Build 0)  -->
<svg version="1.1" id="Layer_1" xmlns="http://www.w3.org/2000/svg" xmlns:xlink="http://www.w3.org/1999/xlink" x="0px" y="0px"
	 viewBox="0 0 100 100" style="enable-background:new 0 0 100 100;" xml:space="preserve">
<style type="text/css">
	.st0{fill:#F7F7F7;}
</style>
<circle class="st0" cx="50" cy="50" r="48.1"/>
<g>
	<path d="M16.5,49.4c-0.1-3.6,0.4-9.9,2.4-15.8c3.1-9.2,9.4-15.2,18.6-18c10-3,20.1-3.1,30,0.1c7.4,2.4,12.8,7.2,15.1,14.9
		c2.8,9.9-2.5,20.6-12.4,24.8c-3,1.2-6.2,2-9.2,2.9C55.9,59.9,52,63,49.6,68c-1.5,3-2.8,6.1-4.3,9.1c-0.9,1.8-2,3.6-3.3,5.2
		c-4.8,5.9-12.9,5.9-17.8,0.2C21.4,79.1,20,75.1,19,71C17.4,65.4,16.8,59.6,16.5,49.4z"/>
</g>
</svg>
