<?xml version="1.0" encoding="utf-8"?>
<!-- Generator: Adobe Illustrator 27.0.0, SVG Export Plug-In . SVG Version: 6.00 Build 0)  -->
<svg version="1.1" id="Layer_1" xmlns="http://www.w3.org/2000/svg" xmlns:xlink="http://www.w3.org/1999/xlink" x="0px" y="0px"
	 viewBox="0 0 100 100" style="enable-background:new 0 0 100 100;" xml:space="preserve">
<style type="text/css">
	.st0{fill:#5626B1;}
	.st1{fill:#FE7487;}
	.st2{fill:#FEA4A1;}
	.st3{fill:#FE828E;}
	.st4{fill:#FE9B9C;}
	.st5{fill:#FD7C8B;}
	.st6{fill:#FE7889;}
	.st7{fill:#FE8A92;}
	.st8{fill:#FE677F;}
	.st9{fill:#FEA9A4;}
	.st10{fill:#FE9699;}
	.st11{fill:#FD6D83;}
	.st12{fill:#FD607B;}
	.st13{fill:#FD8490;}
	.st14{fill:#FE8E95;}
	.st15{fill:#FEAEA7;}
	.st16{fill:#FE5C79;}
	.st17{fill:#FE9297;}
	.st18{fill:#FE5877;}
	.st19{fill:#FEA09F;}
	.st20{fill:#FD6A81;}
	.st21{fill:#FDB8AC;}
	.st22{fill:#FEB1A9;}
	.st23{fill:#FB5475;}
	.st24{fill:#FDBFB1;}
	.st25{fill:#FE7084;}
	.st26{fill:#FEB5AB;}
	.st27{fill:#FE637D;}
	.st28{fill:#FDBCAF;}
	.st29{fill:#FD8993;}
	.st30{fill:#FCC1B3;}
	.st31{fill:#FA9199;}
	.st32{fill:#FA8D96;}
	.st33{fill:#FEB3A9;}
	.st34{fill:#F4949D;}
</style>
<g>
	<path class="st0" d="M55.5,15C64,9.3,72.9,7.3,82.7,8.9c4.5,0.7,5.3,1.9,2.7,5.4c-2.7,3.6-1.6,5,1.6,7.6
		c17.7,13.9,17.2,40.2-0.8,55.8c-9.8,8.5-21.4,13.3-33.9,16c-5.5,1.2-10.6-1.4-15.6-3.2c-11.5-4-21.8-9.9-29.3-19.8
		C-5.4,53.6-1.1,29.5,16.8,19c8.6-5.1,17.9-5.7,27.3-3.1c2.8,0.7,3.2,0,3.1-2.5c-0.1-3.1-0.9-7.3,3.9-7.4c5.1-0.1,4,4.3,4.2,7.5
		C55.3,13.8,55.4,14.1,55.5,15z"/>
	<path class="st1" d="M13.2,32.5c0.2-0.8,0.8-1.4,1.5-1.8c5.3,3.8,9.2,8.9,13.6,13.7c10.2,11.2,21.1,21.7,31.1,33.1
		c1.3,1.5,3.1,2.7,3.3,4.9c-0.9,1-2.1,0.8-3.2,0.9c-4.7-2.3-7.1-7.1-11-10.2c-3.6-3-5.7-7.3-9.6-10c-1.6-0.8-2.8-2-3.6-3.6
		c-0.6-1.8-2-3-3.3-4.2C26,49.2,20.4,42.7,14.5,36.6C13.4,35.5,12.1,34.4,13.2,32.5z"/>
	<path class="st2" d="M50.4,27.5c0.6-0.9,1.4-1.5,2.4-1.6c3.2,1.2,4.8,4.1,7,6.4c9.5,10,18.8,20.2,28.7,29.9c-0.3,1.7-1.3,2.9-2.5,4
		c-1.7,1.1-2.4-0.5-3.3-1.3c-4.4-4.3-8.6-8.8-12.7-13.3C64,45.1,57.6,38.9,51.9,32C50.8,30.7,49.2,29.6,50.4,27.5z"/>
	<path class="st3" d="M35,39.8c0.9,0.5,1.8,1,2.6,1.5c-0.3,1.9,1.2,2.8,2.3,3.9c9.6,9.9,18.7,20.1,28.2,30.1c0.9,1,2.9,1.8,1.8,3.9
		c-0.5,0.3-1.1,0.5-1.6,0.8c-1.8,0.9-2.7-0.5-3.6-1.6C50.8,63.1,36.4,48.3,22.3,33.2c-1.6-1.7-4.4-3-3.5-6.2c0.8-0.5,1.6-1,2.4-1.6
		C25.9,30.2,30.5,34.9,35,39.8z"/>
	<path class="st4" d="M45.6,32.5c0.7-1.5,1.8-2.6,3.2-3.5c7.1,7.6,14,15.4,21.2,22.8c5.1,5.2,10.2,10.4,14.7,16.2
		c-0.9,1.3-1.8,2.6-3.3,3.4c-3-1.7-4.7-4.7-7-7.1C65.1,55.1,56.7,45,47.2,35.8C46.3,35,45.1,34.1,45.6,32.5z"/>
	<path class="st5" d="M18.8,27c3.1,5.7,8.5,9.5,12.6,14.3c11.1,13,24,24.4,34.7,37.7c0.6,0.7,1.3,1,2.1,1c-0.4,0.6-1,0.8-1.7,0.8
		c-2,1.1-3.3-0.2-4.5-1.5C47.5,64.1,33.2,48.5,18.8,33.2c-1.2-1.3-3-2.6-1.6-4.8C17.5,27.6,18.1,27.2,18.8,27z"/>
	<path class="st6" d="M17.2,28.3c-0.3,3.1,2.5,4.3,4.1,6c13.9,15,28,29.8,41.9,44.8c1,1.1,1.9,1.8,3.4,1.7c-1.2,1-2.5,1.5-4,1.6
		c-4.2-4.7-8-9.7-12.5-14c-6.3-6-12-12.4-18-18.7c-6-6.2-11.6-12.7-17.3-19.1C15.3,29.6,16.1,28.9,17.2,28.3z"/>
	<path class="st7" d="M76.5,75.3c-1.1,1.3-2.4,2.2-4.2,2.4c-4-1.6-5.8-5.4-8.6-8.2c-2.6-2.7-5.1-5.5-7.9-8.1
		c-6-5.5-10.4-12.3-16.3-17.9c-0.7-0.6-1.3-1.5-0.7-2.5c0.8-0.5,1.6-1.1,2.4-1.6c3.2,0.8,4.9,3.5,7,5.6C58,54.8,67,65.3,76.5,75.3z"
		/>
	<path class="st8" d="M9,41c0-0.9,0.1-1.7,0.8-2.4c1.8,0.4,2.9,1.9,4.1,3.2c12.5,13.5,25.1,26.9,37.7,40.4c0.8,0.9,2.5,1.6,1.4,3.3
		c-1.3,0.7-2.6,1-4,0.7c-3.9-4.7-7.9-9.4-12.5-13.5c-0.4-0.4-0.7-0.8-1-1.2c-0.4-0.9-0.9-1.7-1.8-2.3c-0.3-0.2-0.5-0.4-0.7-0.7
		c-0.7-1-1.7-1.6-2.7-2.3c-6.3-7.2-13-14.1-19.5-21.2C9.6,44,8.2,42.9,9,41z"/>
	<path class="st9" d="M88.5,62.3c-3.7,0.3-4.6-3.4-6.5-5.2C74.4,49.8,67.2,41.8,59.9,34c-2.4-2.6-4.7-5.3-7.1-8
		c0.9-0.9,1.9-1.6,3.3-1.5c3.7,1.1,5.2,4.5,7.4,7c5.8,6.8,11.9,13.3,18,19.8c2.6,2.8,5.4,5.5,8.5,7.8C90,60.4,89.5,61.4,88.5,62.3z"
		/>
	<path class="st10" d="M45.6,32.5c6.5,6.8,13.3,13.4,19.4,20.6c5.3,6.3,12.1,11.2,16.4,18.4c-0.2,0.2-0.5,0.4-0.7,0.6
		c-2.6,1.3-4.2-0.3-5.5-2c-9.2-11.5-20.2-21.5-29.9-32.6c-0.6-0.7-1.8-1.3-1.3-2.7C44.2,33.9,44.7,33,45.6,32.5z"/>
	<path class="st11" d="M10.7,36.5c0-0.7,0.3-1.2,0.8-1.6c4.9,3.6,8.3,8.7,12.7,12.7c5.4,5,9.3,11.4,15.3,15.8
		c5.6,7.3,12.7,13.3,18.3,20.6c-0.7,0.8-1.6,0.8-2.5,0.8c-4.3-1.2-6.3-5.1-9-8c-11.2-12.2-22.8-24-33.9-36.4
		C11.3,39.4,9.8,38.4,10.7,36.5z"/>
	<path class="st12" d="M46.3,85.5c-1.4-0.2-2.8-0.4-4-1.3c-3.3-1.9-5.7-4.9-8.2-7.6c-8.2-8.5-16.3-17.2-24.2-26
		c-1.1-1.2-2.1-2.5-2-4.2c0.1-0.6,0.2-1.2,0.3-1.8c3.9-0.1,5,3.5,7.1,5.6c7.3,7.6,14.2,15.5,21.6,23.1c1.9,3.6,5.9,5.3,8.2,8.5
		C45.9,82.9,47.3,83.8,46.3,85.5z"/>
	<path class="st13" d="M38.9,41c7.3,8,14.2,16.5,22,24.1c4.1,3.9,7.6,8.4,11.4,12.6c-0.8,0.5-1.6,1-2.5,1.6
		c-4.3-5.9-9.6-10.9-14.6-16.1C49.4,57,43.5,50.7,37.8,44.4c-0.7-0.7-3.2-2-0.2-3.1C38.1,41.2,38.5,41.1,38.9,41z"/>
	<path class="st14" d="M76.5,75.3c-5.2-2.9-8.7-7.8-12.6-12.1c-5.4-6-11.2-11.8-16.6-17.8c-1.9-2.1-4.2-3.8-6-5.9
		c0.3-0.5,0.5-1,0.8-1.4c2.9-0.8,4.6,1,6.2,2.8c7,8.1,14.5,15.7,21.8,23.5c2.9,3.1,5.8,6.3,8.8,9.3C78.3,74.5,77.5,75,76.5,75.3z"/>
	<path class="st15" d="M90,59.1c-1.1,0.7-2.1,0.3-2.9-0.5c-8.3-8.8-16.9-17.3-24.5-26.7c-2.1-2.6-4.4-4.9-6.5-7.4
		c0.8-0.4,1.4-1.2,2.4-0.9c1.8,0.6,3.4,1.8,4.5,3.3c6.8,9.2,15.9,16.3,23.2,25c1.5,1.8,2.9,3.8,4.6,5.6C90.5,58,90.3,58.5,90,59.1z"
		/>
	<path class="st16" d="M7.9,46.3c4.5,5.1,9,10.2,13.4,15.3C28,69.4,36,76,42.3,84.1c-2.3-0.3-4.5-1-6.5-2.3
		C27,71.4,16.6,62.5,8.2,51.8C7.6,50,7.3,48.2,7.9,46.3z"/>
	<path class="st17" d="M78.8,73.6c-3.1-0.7-5.3-3.1-6.8-5.2c-4.9-6.5-11.2-11.8-16.5-18c-2.3-2.7-4.8-5.2-6.9-8
		c-1.7-2.2-3.9-3.6-6.5-4.4c0.2-1.3,0.8-2.3,1.8-3.2c5.6,6,11.2,12,16.8,17.9c4.9,5.1,10,9.8,14.1,15.5c1.3,1.9,2.9,4,5.8,3.7
		C80,72.6,79.4,73.1,78.8,73.6z"/>
	<path class="st18" d="M8.2,51.8c4,1.8,5.7,5.8,8.7,8.5c5.5,5.2,10.6,10.9,15.9,16.3c1.5,1.5,2.2,3.3,3,5.2c-1.5-0.3-2.9-0.7-4-1.8
		c-4.1-2.2-7.3-5.5-10.1-9c-4-4.9-9.3-8.8-12.5-14.4C8.2,55.1,8.2,53.5,8.2,51.8z"/>
	<path class="st19" d="M84.7,68c-3.8-1.4-5.1-5.2-7.7-7.8c-8.1-8.2-16.1-16.6-24.1-25c-1.7-1.8-3.6-3.6-4.2-6.2
		c0.6-0.5,1.1-1,1.7-1.5c0.9,4,4.4,6.2,6.8,9c4.2,5,9,9.7,13.6,14.4c5,5.2,9.4,11,15.3,15.3C85.6,66.9,85.1,67.5,84.7,68z"/>
	<path class="st20" d="M10.7,36.5c1.3,3.8,4.7,6.1,7.2,8.9c8.3,9.1,17,17.7,25.4,26.7c4,4.3,7.3,9.2,12,12.8
		c-0.7,0.8-1.6,0.8-2.5,0.7c-3.1-3.5-6.1-7-9.3-10.4C32.3,63,21,50.8,9.8,38.7C9.8,37.8,9.9,37,10.7,36.5z"/>
	<path class="st21" d="M91.9,45.3c1,2.5,0.5,4.9-0.2,7.4c-1.1,0.5-1.8-0.2-2.4-0.9c-7.7-8.8-16.6-16.5-23.8-25.8
		c-0.7-1-2.2-1.8-1.2-3.4c1.2-0.2,2.3-0.1,3.5-0.1c6,5.7,11.3,11.9,16.8,18c1.9,2.1,3.3,4.8,6.4,5.3C91.3,45.5,91.6,45.4,91.9,45.3z
		"/>
	<path class="st22" d="M90.7,57.4c-4.2-1.9-6.1-6.1-9.2-9.1C74,40.7,66.8,32.7,59.4,24.9c-0.4-0.4-0.6-0.9-0.9-1.3
		c0.5-0.2,1.1-0.5,1.6-0.7c3.5,2.5,6.1,5.9,9.1,8.9c0.8,0.9,1.7,1.8,2.5,2.7c0.6,0.8,1.4,1.5,2.1,2.2c0.2,0.2,0.5,0.5,0.7,0.8
		c0.6,0.9,1.4,1.4,2.4,1.8c3.5,2.6,6.2,5.9,9,9.2c1.7,1.9,3.3,3.9,5.6,5.1C91.8,54.9,91.2,56.1,90.7,57.4z"/>
	<path class="st23" d="M9.1,56.6c2.9,2.8,6.2,5.3,8.6,8.4c4.3,5.4,9.5,9.8,14,15C21.1,75.2,12.5,68.5,9.1,56.6z"/>
	<path class="st24" d="M70.7,22.7c1.7,1.1,4.1,0.1,5.7,1.7c4.9,4.5,8.7,10.1,13.9,14.3c1.3,2,1.7,4.2,1.6,6.6c0,0-0.2,0.2-0.2,0.2
		c-2.7,0.8-3.9-1.6-5.1-3c-4.9-5.6-10.4-10.8-15.1-16.6C70.7,24.9,69.7,24.1,70.7,22.7z"/>
	<path class="st25" d="M39.1,63.9c-6.3-3.8-9.9-10.3-15.2-15.1c-3.6-3.3-6.6-7.2-10.1-10.7c-1-1-1.7-2-2.3-3.2
		c0.3-1,0.7-1.8,1.6-2.4c0.4,3.1,3,4.7,4.9,6.6c5.1,5.1,9.8,10.5,14.6,15.9c0.9,1.5,2.3,2.6,3.2,4c0.8,1.4,1.9,2.5,3.2,3.2
		C39.6,62.8,39.5,63.4,39.1,63.9z"/>
	<path class="st26" d="M91.6,53.4c-4-0.3-5.6-3.7-7.8-6.2c-2.3-2.7-4.7-5.3-7.5-7.5c-1-0.6-1.6-1.6-2.4-2.4v0
		c-0.5-1.1-1.9-1.4-2.4-2.4c-1.1-0.5-1.9-1.3-2.4-2.4c-1.7-2.6-3.9-4.9-6-7.2c-1.3-1.4-1.7-2.8,1.2-2.4
		c8.4,10.7,18.3,19.9,27.5,29.8C91.7,52.9,91.7,53.1,91.6,53.4z"/>
	<path class="st27" d="M36.6,73.6c-4.5-2.4-6.8-7-10.3-10.4c-5.4-5.2-10.2-11-15.2-16.5c-0.8-0.9-1.8-1.6-2.9-2.1
		C8.3,43.3,7.9,42,9,41c2.8,5.3,8,8.5,11.5,13.2c3.2,4.3,7.9,7.3,10.5,12.1c1,0.6,1.8,1.4,2.4,2.4c1,0.6,1.8,1.4,2.4,2.4
		c0.3,0.3,0.5,0.5,0.8,0.8C37.1,72.5,37.2,73,36.6,73.6z"/>
	<path class="st25" d="M39.1,63.9c0-0.5,0-1.1,0-1.6c2.5,0.1,2.9,2.6,4.2,3.9c5.5,5.6,10.7,11.4,16,17.1c-0.3,0.7-0.9,0.8-1.5,0.8
		c-3.6-2.3-6.4-5.5-9.1-8.9C45.7,71.4,41.2,68.6,39.1,63.9z"/>
	<path class="st28" d="M70.7,22.7c0.9,3.1,3.7,4.8,5.7,7.1c4.9,5.4,9.3,11.3,15.3,15.6c-0.1,0.9,0.4,1.8-0.6,2.8
		c-6.2-5.5-11.3-12-16.9-18c-2.1-2.3-5.2-3.9-5.9-7.4c0.6-0.6,1.3-0.4,1.9-0.1C70.3,22.6,70.5,22.6,70.7,22.7z"/>
	<path class="st29" d="M35.9,32.5c-0.6,1.3-1.2,2.7-1.8,4C29.4,34,26,30.3,23.3,25.8c-0.3-0.5,0-1,0.3-1.5c0.6-0.8,1.5-0.8,2.3-0.8
		C31.2,24.4,33.4,28.6,35.9,32.5z"/>
	<path class="st30" d="M90.2,38.7c-0.8,1.1-1.4,0.2-1.8-0.3c-4.1-4.3-8.2-8.7-12.2-13c-0.3-0.3-0.2-0.7,0.2-1
		C83.2,27.1,87.9,31.8,90.2,38.7z"/>
	<path class="st13" d="M23.7,24.4c2.1,5.2,7.1,7.9,10.5,12.1c0.3,1.1,0.6,2.2,0.9,3.3c-4.3-1.6-6.2-5.7-9.4-8.5
		c-1.8-1.6-4.3-2.9-4.4-5.8C22.1,25.1,22.9,24.7,23.7,24.4z"/>
	<path class="st31" d="M38.5,22.7c1.2,0.4,2.4,0.8,3.7,1.2C40.6,26,39,28,37.4,30c-3.4-0.4-4.9-3.2-6.4-5.5
		c-1.5-2.4,1.3-1.8,2.4-2.3c0.3,0,0.6,0,0.9,0C35.6,22.8,37.1,22,38.5,22.7z"/>
	<path class="st32" d="M33.4,22.1c-0.5,0.8-3.6,0.7-0.9,2.8c1.9,1.4,3.3,3.4,5,5.1c-0.5,0.8-1,1.6-1.5,2.5c-3.6-2.6-5.6-7-9.9-8.9
		C28.3,22.4,30.8,21.9,33.4,22.1z"/>
	<path class="st27" d="M36.6,73.6c0-0.5,0-1.1,0-1.6c4.1,3.2,7.2,7.4,10.8,11.2c0.9,0.9,1.4,1.9,1.3,3.2c-0.8-0.3-1.6-0.6-2.5-0.9
		c-1-3.1-3.2-5.4-5.9-7.1C38.6,77.1,37.1,75.8,36.6,73.6z"/>
	<path class="st33" d="M70.2,22.7c-0.6,0-1.3,0.1-1.9,0.1c-1.4,0-2.7,0-4.1,0c-2.7,0.7-0.9,1.8-0.1,2.6c1.9,2.2,4.6,3.7,5,7
		c-3.3-2.9-6.6-5.8-8.9-9.6C63.5,21.9,66.8,21.4,70.2,22.7z"/>
	<path class="st34" d="M38.5,22.7c-1.4-0.1-2.9,0.6-4.2-0.6C35.7,22,37.2,21.8,38.5,22.7z"/>
	<path class="st25" d="M35.8,59.1c-1.5-1-3-2-3.2-4C34.1,56,35.6,57,35.8,59.1z"/>
	<path class="st27" d="M33.4,68.7c-1.1-0.5-1.9-1.3-2.4-2.4C32.5,66.4,33.3,67.2,33.4,68.7z"/>
	<path class="st27" d="M35.8,71.2c-1.1-0.5-1.9-1.3-2.4-2.4C34.9,68.8,35.8,69.6,35.8,71.2z"/>
	<path class="st33" d="M73.9,37.3c1.6,0,1.8,1.4,2.4,2.4C74.8,39.6,74,38.8,73.9,37.3z"/>
	<path class="st33" d="M71.5,34.9c1,0.6,2.4,0.8,2.4,2.4C72.9,36.7,71.5,36.5,71.5,34.9z"/>
</g>
</svg>
