<?xml version="1.0" encoding="utf-8"?>
<!-- Generator: Adobe Illustrator 27.0.0, SVG Export Plug-In . SVG Version: 6.00 Build 0)  -->
<svg version="1.1" id="Layer_1" xmlns="http://www.w3.org/2000/svg" xmlns:xlink="http://www.w3.org/1999/xlink" x="0px" y="0px"
	 viewBox="0 0 100 100" style="enable-background:new 0 0 100 100;" xml:space="preserve">
<style type="text/css">
	.st0{fill:#B71515;}
</style>
<g>
	<path class="st0" d="M52.2,2.2c1.6,0.2,3.3,0.4,4.9,0.6C72,5.3,83.4,13,91.1,25.8c5.2,8.5,7.2,17.8,6.5,27.7
		c-1.4,21.1-17.2,39.2-37.9,43.2C43,100,28.4,95.6,16.2,83.8C8.6,76.4,4,67.2,2.7,56.6C0.8,41.8,4.8,28.8,14.8,17.8
		C22.8,9,32.7,4.1,44.5,2.6c1.1-0.1,2.2-0.3,3.3-0.4C49.2,2.2,50.7,2.2,52.2,2.2z M49.9,89.4c21.6,0,39.4-17.7,39.4-39.2
		c0-22.4-18-38.9-38.3-39.4c-21.7-0.6-40,16.7-40.5,38.4C10.1,70.9,27.4,89.2,49.9,89.4z"/>
	<path class="st0" d="M69.8,47.1c-5,0-8.9-3.9-9-8.9c0-4.9,4-8.9,9-8.9c4.9,0,8.9,4,9,8.9C78.8,43.1,74.8,47.1,69.8,47.1z"/>
	<path class="st0" d="M29.4,47.1c-5,0-8.9-3.9-8.9-8.9c0-5,3.9-8.9,9.1-8.9c4.9,0,8.8,4,8.8,8.9C38.3,43.2,34.4,47.1,29.4,47.1z"/>
</g>
</svg>
