<?xml version="1.0" encoding="utf-8"?>
<!-- Generator: Adobe Illustrator 27.0.0, SVG Export Plug-In . SVG Version: 6.00 Build 0)  -->
<svg version="1.1" id="Layer_1" xmlns="http://www.w3.org/2000/svg" xmlns:xlink="http://www.w3.org/1999/xlink" x="0px" y="0px"
	 viewBox="0 0 100 100" style="enable-background:new 0 0 100 100;" xml:space="preserve">
<style type="text/css">
	.st0{fill:#47B0D3;}
	.st1{fill:#FFFFFF;}
	.st2{fill:#E5E5E5;}
	.st3{fill:#E35336;}
	.st4{fill:#3298BA;}
</style>
<g>
	<path class="st0" d="M91.7,0H8.3C3.7,0,0,3.7,0,8.3v83.3c0,4.6,3.7,8.3,8.3,8.3h83.3c4.6,0,8.3-3.7,8.3-8.3V8.3
		C100,3.7,96.3,0,91.7,0z"/>
	<path class="st1" d="M23.1,43.6c0-14.9,12.1-26.9,26.9-26.9s26.9,12.1,26.9,26.9S50,85,50,85S23.1,58.5,23.1,43.6z"/>
	<path class="st2" d="M29.3,43.6c0-13.8,10.4-25.2,23.8-26.7c-1-0.1-2.1-0.2-3.1-0.2c-14.9,0-26.9,12.1-26.9,26.9S50,85,50,85
		s1.2-1.2,3.1-3.2C46,74.3,29.3,55.3,29.3,43.6z"/>
	<path class="st3" d="M50,27c-0.5,0-1,0-1.5,0.1c0.9,1.1,1.5,2.5,1.5,4.1c0,3.4-2.8,6.2-6.2,6.2c-3,0-5.5-2.1-6.1-4.9
		c-2.7,2.9-4.3,6.8-4.3,11.1c0,9.1,7.4,16.6,16.6,16.6s16.6-7.4,16.6-16.6S59.1,27,50,27z"/>
	<path class="st4" d="M96.7,95H10c-2.8,0-5-2.2-5-5V3.3c0-1,0.2-2,0.5-2.8C2.3,1.7,0,4.7,0,8.3v83.3c0,4.6,3.7,8.3,8.3,8.3h83.3
		c3.6,0,6.7-2.3,7.8-5.5C98.6,94.8,97.7,95,96.7,95z"/>
</g>
</svg>
