<?xml version="1.0" encoding="utf-8"?>
<!-- Generator: Adobe Illustrator 27.0.0, SVG Export Plug-In . SVG Version: 6.00 Build 0)  -->
<svg version="1.1" id="Layer_1" xmlns="http://www.w3.org/2000/svg" xmlns:xlink="http://www.w3.org/1999/xlink" x="0px" y="0px"
	 viewBox="0 0 100 100" style="enable-background:new 0 0 100 100;" xml:space="preserve">
<style type="text/css">
	.st0{fill:#C209C1;}
	.st1{fill:#FFFFFF;}
</style>
<path class="st0" d="M88,100H12c-6.6,0-12-5.4-12-12V12C0,5.4,5.4,0,12,0h76c6.6,0,12,5.4,12,12v76C100,94.6,94.6,100,88,100z"/>
<path class="st1" d="M49.9,19.7L49.9,19.7c-5.6,0-11,2.2-14.9,6.1C34.7,26.2,34,27,34,27c-0.3,0.3-0.5,0.5-0.7,0.8l-0.1,0.1
	c-2.8,3.6-4.4,8.1-4.6,12.7v38.9c0,0.1,0,0.3,0.1,0.4c0.1,0.2,0.4,0.3,0.7,0.3h7.3c0.4,0,0.8-0.3,0.8-0.8l0,0V59.7
	c0-0.1,0.1-0.3,0.3-0.3c0.1,0,0.1,0,0.1,0c6.3,4.4,14.5,5.1,21.5,1.7c7.5-3.7,12.2-11.3,12.1-19.7C71.4,29.4,61.8,19.7,49.9,19.7z
	 M49.9,55c-7.2,0-13-6.1-13-13.5c0-7.4,5.9-13.5,13-13.5s13,6.1,13,13.5C62.9,49,57.1,55,49.9,55z"/>
</svg>
