<?xml version="1.0" encoding="utf-8"?>
<!-- Generator: Adobe Illustrator 27.5.0, SVG Export Plug-In . SVG Version: 6.00 Build 0)  -->
<svg version="1.1" id="Layer_1" xmlns="http://www.w3.org/2000/svg" xmlns:xlink="http://www.w3.org/1999/xlink" x="0px" y="0px"
	 viewBox="0 0 100 100" style="enable-background:new 0 0 100 100;" xml:space="preserve">
<style type="text/css">
	.st0{fill:#EC4899;}
	.st1{fill-rule:evenodd;clip-rule:evenodd;fill:#0F172A;}
	.st2{fill:#FDF2F8;}
</style>
<g>
	<circle class="st0" cx="50" cy="50" r="48"/>
	<path class="st1" d="M37.2,75.4h1l0.3-1c0.9-3.2,1.9-6.7,3-10.6l0,0c1-3.6,2-7.2,3-10.8c0.7,0,1.6-0.1,2.7-0.2
		c1.5-0.1,3.1-0.3,4.9-0.7c1.9-0.3,3.8-0.8,5.7-1.5c1.9-0.7,3.7-1.5,5.3-2.6c1.7-1.1,3.1-2.5,4.2-4.2c1.1-1.7,1.6-3.8,1.6-6.1
		c0-2.2-0.6-4.1-1.8-5.8c-1.1-1.6-2.6-3-4.4-4c-1.7-1.1-3.6-1.8-5.7-2.3c-2-0.5-4-0.8-6-0.8c-1.8,0-3.7,0.2-5.5,0.6
		c-1.8,0.4-3.5,0.8-5,1.3l0,0l0,0c-1.5,0.5-2.8,1-3.9,1.5l-0.8,0.3v0.9c0,0.7,0.3,1.3,0.7,1.8c0.3,0.4,0.7,0.8,1.2,1.2l0,0l0,0
		c0.2,0.2,0.5,0.3,0.7,0.4c0.2,0.1,0.5,0.2,0.9,0.2c0.4,0,0.7-0.1,1.1-0.2c0.3-0.1,0.7-0.3,1-0.5l0,0l0,0c0.6-0.4,1.4-0.8,2.5-1.2
		l0,0l0,0c0.3-0.1,0.6-0.3,0.9-0.4c-1.1,2.4-2,4.7-3,7l0,0l0,0c-1.2,3-2.3,6.1-3.4,9.1l0,0l0,0c-1.1,3-2.1,6.2-3.2,9.4
		c-1.1,3.2-2.2,6.7-3.4,10.5l0,0l0,0c-0.2,0.5-0.3,1-0.5,1.6l0,0l0,0c-0.2,0.7-0.3,1.3-0.3,2c0,1.5,0.8,2.7,2.2,3.5l0,0l0,0
		C34.4,75,35.7,75.4,37.2,75.4z M59.7,41.7c-0.9,1.4-2.2,2.6-3.9,3.6c-1.7,1-3.5,1.7-5.7,2.3c-1.5,0.4-3,0.7-4.5,0.9
		c1-3.4,2.1-6.7,3.2-9.8l0,0c1.2-3.4,2.4-6.4,3.6-8.9c1.4,0.1,2.7,0.4,3.9,0.9l0,0l0,0c1.5,0.6,2.6,1.4,3.5,2.4l0,0l0,0
		c0.8,0.9,1.3,2.2,1.3,3.9C61.2,38.8,60.7,40.4,59.7,41.7L59.7,41.7L59.7,41.7z"/>
	<path class="st2" d="M54.6,71.7c0,2.2-1.8,3.9-3.9,3.9c-2.2,0-3.9-1.8-3.9-3.9c0-2.2,1.8-3.9,3.9-3.9
		C52.8,67.8,54.6,69.5,54.6,71.7z"/>
</g>
</svg>
