<?xml version="1.0" encoding="utf-8"?>
<!-- Generator: Adobe Illustrator 27.0.0, SVG Export Plug-In . SVG Version: 6.00 Build 0)  -->
<svg version="1.1" id="Layer_1" xmlns="http://www.w3.org/2000/svg" xmlns:xlink="http://www.w3.org/1999/xlink" x="0px" y="0px"
	 viewBox="0 0 100 100" style="enable-background:new 0 0 100 100;" xml:space="preserve">
<style type="text/css">
	.st0{fill:#0074AA;}
</style>
<g>
	<path class="st0" d="M69.2,28.7C64.7,24,59,22.1,52.7,22.1c-3,0-5.9,0.5-8.8,1.3c-2.9,0.8-5.7,1.9-8.3,3.6
		c-0.3,0.2-0.5,0.5-0.5,0.9c0,3,0,6,0,9c0,2.8,0,5.5,0,8.3c0,5.7,0,11.5,0,17.2c0,0.5,0.2,0.8,0.7,1.1c1.8,0.8,3.7,1.4,5.6,1.9
		c3.1,0.7,6.3,1.1,9.5,1.2c3.4,0.2,6.8-0.1,10-1.3c6.2-2.2,10.7-6.2,13.1-12.3c1.6-4,1.8-8.1,1.1-12.3C74.2,36.1,72.4,32,69.2,28.7
		L69.2,28.7z"/>
	<path class="st0" d="M50,0C22.4,0,0,22.4,0,50s22.4,50,50,50s50-22.4,50-50S77.6,0,50,0z M83.1,53.6c-1.9,4.8-5.1,8.6-9.4,11.5
		c-4.4,3-9.3,4.7-14.6,5.4c-6.7,0.9-13.3,0-19.7-1.7c-1.3-0.3-2.5-0.8-3.7-1.2c-0.5-0.2-0.5-0.1-0.5,0.4c0,3.4,0,6.8,0,10.2
		c0,0.4,0.1,0.6,0.5,0.7c0.7,0.2,1.4,0.5,2.1,1c0.4,0.3,0.6,0.6,0.6,1.1c0,0.6-0.4,0.9-1,0.9c-2,0-4,0-6,0c-2,0-3.9,0-5.9,0
		c-0.5,0-0.8-0.1-1-0.6c-0.2-0.5-0.1-0.9,0.3-1.2c0.6-0.6,1.3-0.8,2.1-1.1c0.8-0.3,0.8-0.1,0.8-1.1c0-15.3,0-30.7,0-46
		c0-0.2,0.1-0.6-0.1-0.7c-0.2-0.1-0.4,0.2-0.6,0.3c-2.3,1.8-4.4,3.8-6.1,6.2c-0.1,0.1-0.1,0.2-0.2,0.2c-0.6,0.8-1,1.6-0.6,2.6
		c0.2,0.5,0.2,1.1,0,1.6c-0.1,0.4-0.2,0.7-0.6,0.9c-0.5,0.4-0.9,0.3-1.2-0.2c-1.3-2.1-2.6-4.1-3.9-6.2c-0.2-0.3-0.2-0.6,0.1-0.9
		c1.8-1.9,3.7-3.6,5.8-5.2c5.2-4.1,10.8-7.4,17-9.6c4-1.5,8.2-2.4,12.5-2.8c5-0.4,10-0.1,14.8,1.3c5.1,1.5,9.7,4.1,13.3,8
		c3.7,3.9,5.9,8.6,6.6,13.9C85,45.7,84.6,49.7,83.1,53.6L83.1,53.6z"/>
</g>
</svg>
