<?xml version="1.0" encoding="utf-8"?>
<!-- Generator: Adobe Illustrator 27.0.0, SVG Export Plug-In . SVG Version: 6.00 Build 0)  -->
<svg version="1.1" id="Layer_1" xmlns="http://www.w3.org/2000/svg" xmlns:xlink="http://www.w3.org/1999/xlink" x="0px" y="0px"
	 viewBox="0 0 100 100" style="enable-background:new 0 0 100 100;" xml:space="preserve">
<style type="text/css">
	.st0{fill:#FFFFFF;}
</style>
<sodipodi:namedview  bordercolor="#666666" borderopacity="0.27058824" id="base" pagecolor="#ffffff" showborder="true" showgrid="false" showguides="true">
	
		<inkscape:grid  dotted="true" empspacing="5" enabled="true" id="grid3694" snapvisiblegridlinesonly="true" type="xygrid" visible="true">
		</inkscape:grid>
</sodipodi:namedview>
<g id="layer1" transform="translate(0,-652.3622)">
	<g id="g40398" transform="matrix(26.719214,0,0,26.719214,-14.534964,-27051.65)">
		<g id="path4694">
			<path d="M1.9,1037.1l-0.3,0.2l1.7,1.4l-1.7,1.4l0.3,0.2l1.9-1.6L1.9,1037.1L1.9,1037.1z"/>
		</g>
		<g id="path4696">
			<path d="M2.4,1036.9c-1,0-1.9,0.8-1.9,1.9s0.8,1.9,1.9,1.9s1.9-0.8,1.9-1.9S3.4,1036.9,2.4,1036.9z M2.4,1037.2
				c0.8,0,1.5,0.7,1.5,1.5c0,0.8-0.7,1.5-1.5,1.5s-1.5-0.7-1.5-1.5C0.9,1037.9,1.6,1037.2,2.4,1037.2z"/>
		</g>
		<g id="path40343">
			<path class="st0" d="M1.6,1040c-0.2-0.1-0.4-0.3-0.5-0.5c-0.2-0.3-0.3-0.7-0.2-1c0.1-0.4,0.3-0.8,0.7-1.1c0,0,0.1,0,0.1,0
				c0,0,1.5,1.3,1.6,1.3C3.2,1038.7,1.7,1040,1.6,1040C1.7,1040,1.7,1040,1.6,1040L1.6,1040z"/>
			<path class="st0" d="M1.7,1040.1C1.7,1040.1,1.7,1040,1.7,1040.1c-0.3-0.1-0.4-0.3-0.6-0.5c-0.2-0.3-0.3-0.7-0.2-1
				c0.1-0.4,0.3-0.8,0.7-1.1c0,0,0.1,0,0.1,0c0,0,1.5,1.3,1.6,1.3l0,0l0,0c0,0,0,0-0.2,0.2c-0.1,0.1-0.3,0.3-0.5,0.4
				C2.4,1039.5,1.7,1040,1.7,1040.1C1.7,1040.1,1.7,1040.1,1.7,1040.1z M1.7,1040L1.7,1040L1.7,1040z M1.7,1037.5
				C1.7,1037.5,1.7,1037.5,1.7,1037.5c-0.4,0.3-0.7,0.6-0.7,1.1c-0.1,0.4,0,0.7,0.2,1c0.1,0.2,0.3,0.3,0.5,0.4l0,0c0,0,0,0,0,0
				c0.1-0.1,1.4-1.1,1.5-1.3C3.1,1038.6,1.7,1037.5,1.7,1037.5z"/>
		</g>
		<g id="path40345">
			<path class="st0" d="M2.2,1040.2C2.2,1040.2,2.1,1040.2,2.2,1040.2c-0.1,0-0.1,0,0.7-0.7c0.5-0.4,0.8-0.7,0.8-0.7
				c0,0-0.4-0.3-0.8-0.7c-0.5-0.4-0.8-0.7-0.8-0.7c0,0,0.2,0,0.3,0c0.3,0,0.7,0.1,1,0.3c0.3,0.3,0.5,0.6,0.5,1c0,0.1,0,0.3,0,0.4
				c0,0.3-0.2,0.6-0.5,0.9c-0.2,0.2-0.5,0.3-0.8,0.4C2.5,1040.2,2.3,1040.2,2.2,1040.2L2.2,1040.2z"/>
			<path class="st0" d="M2.4,1040.2c-0.1,0-0.1,0-0.2,0l0,0c0,0-0.1,0-0.1,0c0,0,0,0,0,0c0,0,0,0,0.1-0.2c0.1-0.1,0.3-0.3,0.7-0.6
				c0.4-0.4,0.8-0.7,0.8-0.7c-0.1-0.1-0.4-0.3-0.8-0.7c-0.2-0.2-0.4-0.4-0.6-0.5c-0.3-0.2-0.3-0.2-0.3-0.2c0,0,0,0,0,0
				c0,0,0,0,0.1,0c0.1,0,0.1,0,0.2,0c0,0,0,0,0,0c0.3,0,0.7,0.1,1,0.3c0.3,0.3,0.5,0.6,0.5,1c0,0.1,0,0.3,0,0.4
				c0,0.3-0.2,0.7-0.5,0.9c-0.2,0.2-0.5,0.4-0.8,0.4C2.6,1040.2,2.5,1040.2,2.4,1040.2z M2.2,1040.2
				C2.2,1040.2,2.2,1040.2,2.2,1040.2L2.2,1040.2c0.2,0,0.4,0,0.5,0c0.3,0,0.6-0.2,0.8-0.4c0.2-0.2,0.4-0.5,0.4-0.9
				c0-0.1,0-0.3,0-0.4c0-0.4-0.2-0.7-0.5-1c-0.3-0.2-0.6-0.3-0.9-0.3c0,0,0,0,0,0c-0.1,0-0.2,0-0.3,0c0.1,0.1,0.4,0.3,0.8,0.7
				c0.2,0.2,0.4,0.4,0.6,0.5c0.3,0.2,0.3,0.2,0.3,0.2c0,0,0,0-0.1,0.1c0,0-0.1,0.1-0.2,0.2c-0.2,0.1-0.4,0.3-0.6,0.5
				C2.4,1039.9,2.2,1040.1,2.2,1040.2z"/>
		</g>
	</g>
</g>
</svg>
