<?xml version="1.0" encoding="utf-8"?>
<!-- Generator: Adobe Illustrator 27.0.0, SVG Export Plug-In . SVG Version: 6.00 Build 0)  -->
<svg version="1.1" id="Layer_1" xmlns="http://www.w3.org/2000/svg" xmlns:xlink="http://www.w3.org/1999/xlink" x="0px" y="0px"
	 viewBox="0 0 100 100" style="enable-background:new 0 0 100 100;" xml:space="preserve">
<g>
	<path d="M95.7,55.9c2,4.1,3.5,8.8,3.1,14.3c-0.1,2.3-0.7,4.7-1.8,6.3c-0.6,0.8-1.4,1.5-2.3,1.5c-1.5,0-2.5-1.7-3.3-2.8
		c-0.9-1.3-1.6-2.6-2.3-3.9c-0.9,0.9-1.2,2.3-1.7,3.4c-1.4,3.6-3.4,6.7-5.9,9.3c2.4,1.4,4.6,2.3,6.6,3.9c1.3,1,2.9,2.4,2.5,4.8
		c-0.3,1.6-1.6,2.9-2.6,3.5c-6.7,4.3-20.8,3.7-29.1,1c-1.6-0.5-3.2-1.4-4.7-1.6c-0.6-0.1-1.5,0-2.1-0.1c-0.8-0.1-1.8-0.2-2.2-0.2
		c-0.5,0.1-0.9,0.6-1.5,0.9c-3.6,2.2-7.2,3.4-12.7,3.8c-6.1,0.4-12.2-0.1-16.9-1.6c-2.5-0.8-5.9-2.4-6.2-5.3
		c-0.2-1.4,0.2-3.5,0.8-4.5c1.3-2.5,4.2-3.2,7.8-3.6c-0.1-0.6-1-1-1.6-1.5c-3.4-2.8-6.1-6.6-7.8-11.3c-0.3-0.8-0.4-1.6-0.8-2.3
		c-0.8,0.6-0.9,1.7-1.4,2.5c-1.1,1.7-2.7,3.4-4.4,4.3c-0.6,0.3-1.5,0.7-2.3,0.5c-1.4-0.3-1.7-2.8-1.8-4.6
		c-0.6-6.5,1.3-11.7,3.4-15.8c2.7-5.2,6.5-8.6,10.4-11.8c-1.1-3,0.2-6.4,1.6-8.2c0.1-1.4,0.2-2.6,0.7-3.8c0.3-0.7,0.9-1.1,1-1.7
		c0.1-0.6-0.1-1.3,0-2C19,21,24,13.7,28.4,9.2c2.7-2.7,5-4.6,8.8-6.3c3.4-1.5,7.7-2.4,12.4-2.9h6.1c14.9,1.4,24.4,8,28.9,20
		c0.7,1.8,1.2,3.7,1.7,5.7c0.5,2,0.4,4.4,1.1,6.4c0.4,1.2,1.4,2.4,2,3.7c1.1,2.7,1.5,6.4,0,9C91.6,47.9,93.8,51.8,95.7,55.9z
		 M89.5,92.3c0.7-3.8-3.9-3.1-6.8-3.3c0.4-1.3,2.1-1.1,3.4-1.4c-1.4-1.7-3.4-2.7-5.6-2.8c-5.7,5-12.4,9-21.8,10.3
		c2.7,2.3,8.6,3.2,14.4,3.4c5.7,0.2,11.8-1.2,14.7-3.6C88.6,94.3,89.3,93.2,89.5,92.3z M84.5,73.1c2.1-7.8-1.1-14.6-4.3-19.3
		c-9.4,6.4-24.7,11.4-39.2,7.6c0.1,1.5,0.2,3.3,0.3,5.1c0,1.8,0.4,3.9,0.1,5.4c-0.2,1.2-1.3,2.4-2.3,2.8c-1.4,0.6-3.7,0.6-5.5,0.4
		c-3.3-0.3-6.1-1.9-7-4.4c-0.3-1-0.3-2.2-0.3-3.4c-0.2-3.8,0.1-7.4,0.7-10.8c-1.6-1.1-3.3-2.1-5.1-3c-2.7,2.7-4,9.5-3.8,14.2
		c0,1.2,0.3,2.9,0.6,4.3c0.8,3.7,2.8,7.1,5.1,9.8c2.3,2.7,4.9,4.9,8.1,6.8c6.4,3.8,15.2,5.7,23.7,5.8c3.1,0,6.1-0.6,8.8-1.6
		c2.8-1,5.6-2.6,8-4.2c2.4-1.6,5-3.7,6.6-5.6C81.1,80.5,83.5,77,84.5,73.1L84.5,73.1z M71.9,40.8c0.7-0.3,3.3-1.5,3.3-2.3
		c0-0.4-1.4-1.3-2.1-1.7C66,32.6,55.4,31.1,45,32.6c-4,0.6-7.6,1.5-10.9,3.1c-1,0.5-4,2-3.9,3.1c0,0.4,0.7,1,1.1,1.2
		c1.6,1,4.3,1.5,6.1,1.9c-0.4-1-1.1-1.7-1.5-2.7c3.8,2.6,8.1,5.4,13.9,5.9c8.7,0.8,15.3-2.7,20.2-5.9c-0.5,1.2-2.1,1.7-2.4,2.8
		C69.4,42,70.5,41.5,71.9,40.8z M62.5,32.2c5.8-2.1,6-15.6,0.1-17.9c-0.5-0.2-1.6-0.2-1.9-0.2c-1.9,0.2-3.2,1.6-4,2.9
		c-2.6,4.5-1.7,13.7,3.3,15.2C60.9,32.6,61.9,32.4,62.5,32.2L62.5,32.2z M43.9,32.1c4.2,0.4,6.3-4.8,6.2-9c-0.1-4.3-2.1-8.8-5.6-8.8
		c-2.1,0-3.6,1.4-4.5,3C37.4,21.9,38.5,31.6,43.9,32.1z M32.9,99c5.7-0.3,11.6-1.1,13.7-4.3c-8.7-1-16.6-3.6-22.5-7.7
		c-0.7-0.5-2-1.6-2.6-1.8c-0.1,0-0.4,0.1-0.7,0.1c-2,0-3.4,0.8-4.9,1.8c-1,0.6-2.3,1.6-1.5,2.8c0.9,0,1.5-0.5,2.6-0.3
		c-1.1,0.9-2.9,1.7-3.3,3.3c-0.4,1.4,1,2.5,1.8,3.1C19.4,98.7,26.1,99.4,32.9,99L32.9,99z"/>
	<path d="M79.3,68.8c0.1,1-1.2,1.2-1.8,0.6c-1.6,0.4-3.7,0-3.3-2.1c0.3-1.8,2.9-3.6,4.2-1.8c0.5,0.7,0.4,2.1,0.7,3.1
		c-0.4-0.3-0.7-0.7-1.2-0.8C76.2,68.2,78.7,70.5,79.3,68.8L79.3,68.8z M76.9,67.5c0.4-0.1,0.4,0.3,0.7,0.1c-0.3-3-2.9,0.9-1,1.1
		C76.5,68.1,76.5,67.6,76.9,67.5L76.9,67.5z M77.1,67.8c-0.4-0.1-0.3,0.4-0.3,0.8C77.1,68.5,77,68,77.1,67.8z"/>
	<path d="M77.6,68.6c-0.4-0.1,0-0.6,0.3-0.5C77.9,68.3,77.7,68.3,77.6,68.6z M73.9,68.8c0,0.9-1.2,1.2-1.8,0.6
		c-1.5,0.3-3.3,0.2-3.4-1.4c-0.1-2,2.5-4.1,4-2.8c0.6,0.5,0.8,1.5,0.7,2.7c0.1,0.2,0.2,0.4,0.3,0.6c-0.6,0-0.7-0.8-1.3-0.8
		c-1.1,0.1-0.4,1.8,0.5,1.8C73.6,69.5,73.5,69.1,73.9,68.8L73.9,68.8z M71.5,67.5c0.3-0.1,0.4,0.3,0.7,0.1c-0.1-0.6-0.3-1.1-0.8-1.3
		c-0.7,0.2-1.5,2.4-0.2,2.3C71.1,68.1,71.2,67.6,71.5,67.5z M71.5,68.6c0-0.3,0.4-0.7,0.1-0.8C71.5,68,71.2,68.4,71.5,68.6z"/>
	<path d="M72.5,68c0.2,0.2-0.3,0.3-0.3,0.6C71.9,68.4,72.4,68.1,72.5,68z M61.2,20.6c1.1,0.5,1.8,2.6,1.2,4.3
		c-1.8,0.3-1-2.3-2.1-2.5c-1.2-0.2-1,2-1.7,2.6c-1.3-0.2-1-1.7-0.7-2.7C58.3,21.1,59.7,19.9,61.2,20.6L61.2,20.6z M47,19.7
		c3.3-0.4,3,7.4,0.2,7.3C44.2,26.8,44.1,20.1,47,19.7z"/>
</g>
</svg>
