<?xml version="1.0" encoding="utf-8"?>
<!-- Generator: Adobe Illustrator 27.0.0, SVG Export Plug-In . SVG Version: 6.00 Build 0)  -->
<svg version="1.1" id="Layer_1" xmlns="http://www.w3.org/2000/svg" xmlns:xlink="http://www.w3.org/1999/xlink" x="0px" y="0px"
	 viewBox="0 0 100 100" style="enable-background:new 0 0 100 100;" xml:space="preserve">
<style type="text/css">
	.st0{fill:#B0271E;}
	.st1{fill:#961411;}
	.st2{fill:#FFFFFF;}
	.st3{fill:#D1D1D1;}
</style>
<g>
	<circle class="st0" cx="50" cy="50" r="50"/>
	<path class="st1" d="M63.7,28.5c-1.1-0.1-3.2-1.3-4.3-1.8c-6.1-2-12.8-4-18.5-2c-15.8,5.1-8.8,23.6-9.8,36c0,1.3-0.5,2.4-0.9,3.8
		l33.5,33.5c16.8-4.8,29.9-18.1,34.5-35L63.7,28.5z"/>
	<path class="st2" d="M73.1,66.3c0,0-0.3,4.1-4,4.1c-2.9,0-4.9-2.2-6.7-5.1c5.2-4.6,8.6-11.4,8.6-19c0-13.8-10.8-24.9-24.2-24.9
		S22.6,32.5,22.6,46.3s10.8,24.9,24.2,24.9c2.4,0,4.8-0.4,7-1.1c2.8,4.4,6.3,8.4,11.9,8.4c11.3,0,11.8-12.3,11.8-12.3L73.1,66.3
		L73.1,66.3L73.1,66.3z M46.8,67.1c-7.8,0-14.1-9.3-14.1-20.8S39,25.5,46.8,25.5s14.1,9.3,14.1,20.8c0,4.6-1,8.8-2.7,12.2
		c-1.9-2.7-4.2-5.1-7.5-5.8c-5.8-1.3-10.8,1.3-12.4,2.6l1.5,3.1c0,0,1.5-0.9,5.3,0c2.4,0.5,4.2,3.8,6.3,7.6
		C49.9,66.7,48.4,67.1,46.8,67.1z"/>
	<path class="st3" d="M73.1,66.3L73.1,66.3c0,0-0.3,4.1-4,4.1c-2.9,0-4.9-2.2-6.7-5.1c5.2-4.6,8.6-11.4,8.6-19
		c0-13.8-10.8-24.9-24.2-24.9c0,0,0,0,0,0v4.1c0,0,0,0,0,0c7.8,0,14.1,9.3,14.1,20.8c0,4.6-1,8.8-2.7,12.2c-1.9-2.7-4.2-5.1-7.5-5.8
		c-1.4-0.3-2.7-0.4-4-0.3v6.9c1.6,1.3,3,3.9,4.6,6.7c-1.4,0.7-3,1.1-4.5,1.1c0,0,0,0,0,0v4.1c0,0,0,0,0,0c2.4,0,4.8-0.4,7-1.1
		c2.8,4.4,6.3,8.4,11.9,8.4c11.3,0,11.8-12.3,11.8-12.3L73.1,66.3L73.1,66.3L73.1,66.3z"/>
</g>
</svg>
