<?xml version="1.0" encoding="utf-8"?>
<!-- Generator: Adobe Illustrator 27.0.0, SVG Export Plug-In . SVG Version: 6.00 Build 0)  -->
<svg version="1.1" id="Layer_1" xmlns="http://www.w3.org/2000/svg" xmlns:xlink="http://www.w3.org/1999/xlink" x="0px" y="0px"
	 viewBox="0 0 100 100" style="enable-background:new 0 0 100 100;" xml:space="preserve">
<style type="text/css">
	.st0{fill:#FFCC00;}
</style>
<g id="Layer_2_00000116210252486692966050000004444670603359909767_">
	<g>
		<path class="st0" d="M57.9,52.7c-4.8,3.5-9.2,6.5-9.2,7c0,1.4,14.7,5.2,27.9,4.2c0.1-0.4,0.5-0.8,0.5-0.8l22.3-22.9
			c0.5-0.5,0.7-1.2,0.5-1.9c-0.1-0.4-0.5-0.9-1.4-1.1c-0.9-0.2-30.6-5.9-30.6-5.9s-0.4-0.1-0.8-0.3c-0.4-0.2-0.5-0.7-0.5-0.7
			S51.9,4,51.5,3.2c-0.8-1.4-2.1-1.3-2.9,0C48.1,4,33.4,30.4,33.4,30.4s-0.1,0.5-0.5,0.7c-0.4,0.2-0.8,0.3-0.8,0.3
			S2.3,37.1,1.4,37.3c-0.9,0.2-1.3,0.7-1.4,1.1c-0.2,0.7,0,1.4,0.5,1.9l22.3,22.9c0,0,0.3,0.3,0.5,0.7c0.1,0.4,0,0.9,0,0.9
			s-4.9,30.2-5.1,31c-0.1,0.9,0.3,1.5,0.7,1.8c0.3,0.3,1,0.4,1.7,0C21.6,97.2,49.1,84,49.1,84s0.4-0.2,0.8-0.2
			c0.4-0.1,0.8,0.2,0.8,0.2s27.6,13.2,28.4,13.6c1.6,0.8,2.6-0.5,2.4-1.8c-0.1-0.6-3.9-23.7-3.9-23.7c3.7-2.3,5.9-4.3,7.7-7.3
			c-14.8,5.6-35.8,9-53.7,7.7c-5-0.3-7.4-1.8-2.9-5.3c4-3,7.9-6,11.9-9c5.4-4,14.8-10.3,14.8-11.4c0-1.2-8.9-3.2-16.8-3.2
			c-8.1,0-9.5,0.5-11.7,0.7c-2,0.1-3.2,0-3.4-0.6c-0.2-1,0.8-1.6,2.5-2.4c2.9-1.3,7.7-2.5,8.3-2.6c0.8-0.2,12.8-3.4,23.4-2.2
			c5.5,0.6,13.5,2.8,13.5,5.3C71.4,43.3,64.2,48.1,57.9,52.7z"/>
	</g>
</g>
</svg>
