<?xml version="1.0" encoding="utf-8"?>
<!-- Generator: Adobe Illustrator 27.0.0, SVG Export Plug-In . SVG Version: 6.00 Build 0)  -->
<svg version="1.1" id="Layer_1" xmlns="http://www.w3.org/2000/svg" xmlns:xlink="http://www.w3.org/1999/xlink" x="0px" y="0px"
	 viewBox="0 0 100 100" style="enable-background:new 0 0 100 100;" xml:space="preserve">
<style type="text/css">
	.st0{fill:#FF4400;}
	.st1{fill:#FFFFFF;}
</style>
<g>
	<g>
		<path class="st0" d="M15,0h70c8.3,0,15,6.7,15,15v70c0,8.3-6.7,15-15,15H15c-8.3,0-15-6.7-15-15V15C0,6.7,6.7,0,15,0z"/>
	</g>
	<g>
		<g>
			<ellipse class="st1" cx="50" cy="60" rx="32.4" ry="22.9"/>
		</g>
		<g>
			<circle class="st1" cx="20.7" cy="50" r="8.2"/>
		</g>
		<g>
			<circle class="st1" cx="79.5" cy="50" r="8.2"/>
		</g>
		<g>
			<circle class="st1" cx="73.2" cy="22.3" r="6.2"/>
		</g>
	</g>
	<g>
		<g>
			<path class="st1" d="M50,39.8c-0.1,0-0.2,0-0.3,0c-0.8-0.2-1.4-1-1.2-1.9L53,18.2c0.2-0.8,1-1.4,1.8-1.2L69.1,20
				c0.8,0.2,1.4,1,1.2,1.8c-0.2,0.8-1,1.4-1.8,1.2l-12.8-2.6l-4.2,18.2C51.4,39.4,50.7,39.8,50,39.8z"/>
		</g>
		<g>
			<path class="st0" d="M50.1,75.1c-5,0-10-1.3-13.6-4c-0.6-0.4-0.7-1.2-0.2-1.8c0.4-0.6,1.2-0.7,1.8-0.2c6.1,4.6,17.9,4.7,23.8,0
				c0.6-0.4,1.3-0.3,1.8,0.2c0.4,0.6,0.3,1.3-0.2,1.8C60.1,73.8,55.1,75.1,50.1,75.1z"/>
		</g>
	</g>
	<g>
		<g>
			<circle class="st0" cx="37.3" cy="56.1" r="6.1"/>
		</g>
		<g>
			<circle class="st0" cx="62.7" cy="56.1" r="6.1"/>
		</g>
	</g>
</g>
</svg>
