<?xml version="1.0" encoding="utf-8"?>
<!-- Generator: Adobe Illustrator 27.0.0, SVG Export Plug-In . SVG Version: 6.00 Build 0)  -->
<svg version="1.1" id="Layer_1" xmlns="http://www.w3.org/2000/svg" xmlns:xlink="http://www.w3.org/1999/xlink" x="0px" y="0px"
	 viewBox="0 0 100 100" style="enable-background:new 0 0 100 100;" xml:space="preserve">
<style type="text/css">
	.st0{fill:#F7F7F7;}
</style>
<path class="st0" d="M84.8,96H15.2C9,96,4,91,4,84.8V15.2C4,9,9,4,15.2,4h69.6C91,4,96,9,96,15.2v69.6C96,91,91,96,84.8,96z"/>
<g>
	<path d="M30.4,42.4V29.2c-7.4,1.3-13.6,6.4-16.2,13.5s-1.2,15,3.7,20.8C25.2,59.9,30.4,51.8,30.4,42.4L30.4,42.4z M33.9,55.1
		c-1.3,5.4-5.2,10-10.1,13.1c3.1,1.7,6.5,2.6,10.1,2.6s7-0.9,10.1-2.6C39.1,65.2,35.2,60.5,33.9,55.1z M49.9,36.3
		c-3.2-3.8-7.6-6.3-12.5-7.1v13.2c0,9.4,5.1,17.5,12.5,21.1c-3.2-3.8-5-8.6-5-13.6S46.7,40.1,49.9,36.3L49.9,36.3z M49.9,36.3
		C53,39.9,55,44.7,55,49.9s-2,9.9-5.1,13.6c7.3-3.6,12.6-11.6,12.7-21V29.2C57.6,30,53.2,32.5,49.9,36.3L49.9,36.3z M69.6,42.4
		c0,9.4,5.2,17.5,12.5,21.1c4.9-5.8,6.3-13.6,3.7-20.8c-2.6-7-8.7-12.2-16.2-13.5V42.4z M66.1,55.1c-1.3,5.4-5.2,10-10.1,13.1
		c3.1,1.7,6.5,2.6,10.1,2.6s7-0.9,10.1-2.6C71.3,65.2,67.4,60.5,66.1,55.1z"/>
</g>
</svg>
