<?xml version="1.0" encoding="utf-8"?>
<!-- Generator: Adobe Illustrator 27.0.0, SVG Export Plug-In . SVG Version: 6.00 Build 0)  -->
<svg version="1.1" id="Layer_1" xmlns="http://www.w3.org/2000/svg" xmlns:xlink="http://www.w3.org/1999/xlink" x="0px" y="0px"
	 viewBox="0 0 100 100" style="enable-background:new 0 0 100 100;" xml:space="preserve">
<style type="text/css">
	.st0{fill:#525252;}
	.st1{fill:#4C4C4C;}
	.st2{fill:#464646;}
	.st3{fill:#87CFF2;}
	.st4{fill:#93D6F6;}
	.st5{fill:#82CCF0;}
	.st6{fill:#77C7ED;}
	.st7{fill:#8DD3F4;}
	.st8{fill:#72C4EB;}
	.st9{fill:#97D8F7;}
	.st10{fill:#7BC9EE;}
	.st11{fill:#A3DFFB;}
	.st12{fill:#65BDE6;}
	.st13{fill:#75C5EC;}
	.st14{fill:#75C6EC;}
	.st15{fill:#84CEF1;}
	.st16{fill:#9FDCFA;}
	.st17{fill:#6CC1E9;}
	.st18{fill:#78C7ED;}
	.st19{fill:#81CCF0;}
	.st20{fill:#8AD1F3;}
	.st21{fill:#7ECAEF;}
	.st22{fill:#69BFE8;}
	.st23{fill:#9BDAF9;}
	.st24{fill:#96D8F7;}
	.st25{fill:#65BCE6;}
	.st26{fill:#90D4F5;}
	.st27{fill:#61BBE5;}
	.st28{fill:#6FC2EA;}
	.st29{fill:#70C3EA;}
	.st30{fill:#99D9F8;}
	.st31{fill:#63BCE6;}
	.st32{fill:#60BAE5;}
	.st33{fill:#9CDBF9;}
	.st34{fill:#66BDE7;}
	.st35{fill:#A2DEFB;}
	.st36{fill:#A5E0FC;}
	.st37{fill:#1491CC;}
	.st38{fill:#1F97CF;}
	.st39{fill:#46ACDC;}
	.st40{fill:#1591CC;}
	.st41{fill:#A6E0FC;}
	.st42{fill:#1491CB;}
	.st43{fill:#4CAFDE;}
	.st44{fill:#7ECBEF;}
	.st45{fill:#2A9CD2;}
	.st46{fill:#4AAEDE;}
	.st47{fill:#108EC9;}
	.st48{fill:#40A9DA;}
	.st49{fill:#259AD2;}
	.st50{fill:#1993CD;}
	.st51{fill:#60B9E4;}
	.st52{fill:#2A9DD3;}
	.st53{fill:#2298D0;}
	.st54{fill:#56B5E2;}
	.st55{fill:#3BA6D9;}
	.st56{fill:#45ABDC;}
	.st57{fill:#3AA5D8;}
	.st58{fill:#259AD1;}
	.st59{fill:#2F9FD4;}
	.st60{fill:#3DA7D9;}
	.st61{fill:#52B2E0;}
	.st62{fill:#42A9DB;}
	.st63{fill:#59B6E2;}
	.st64{fill:#1A94CD;}
	.st65{fill:#35A2D6;}
	.st66{fill:#5DB8E4;}
	.st67{fill:#51B2E0;}
	.st68{fill:#36A3D7;}
	.st69{fill:#2F9FD5;}
	.st70{fill:#2098D0;}
	.st71{fill:#51B1DF;}
	.st72{fill:#30A0D5;}
	.st73{fill:#45ABDB;}
	.st74{fill:#279AD1;}
	.st75{fill:#3FA7D9;}
	.st76{fill:#55B4E1;}
	.st77{fill:#57B5E2;}
	.st78{fill:#39A4D7;}
	.st79{fill:#1E96CE;}
	.st80{fill:#108DC8;}
	.st81{fill:#4EB0DE;}
	.st82{fill:#108DC9;}
	.st83{fill:#5AB7E3;}
	.st84{fill:#36A3D6;}
	.st85{fill:#32A1D6;}
	.st86{fill:#1892CC;}
	.st87{fill:#5DB8E3;}
	.st88{fill:#1B94CD;}
	.st89{fill:#33A1D5;}
	.st90{fill:#42A9DA;}
	.st91{fill:#5AB6E2;}
	.st92{fill:#2D9ED3;}
	.st93{fill:#1D96CF;}
	.st94{fill:#4EB0DF;}
	.st95{fill:#9A9D9F;}
	.st96{fill:#AAE2FD;}
	.st97{fill:#98D8F7;}
	.st98{fill:#96D7F7;}
</style>
<g>
	<path d="M47.5,1.4c0.8,0,1.5,0,2.3,0c0.3,0,0.5,0,0.8,0c1.3,0,2.5,0,3.8,0c0.3,0,0.5,0,0.8,0c0.5,0,1,0,1.5,0
		c0.1,0.1,0.3,0.3,0.4,0.3c6.4,0.5,12.3,2.6,18,5.5c0,0.1-0.1,0.2-0.1,0.3C74.3,7.7,73.7,8,73,8.2c-0.2,0.1-0.5,0.1-0.7,0.2
		c-0.1,0.1-0.3,0.1-0.4,0.2c-0.4,0.2-0.7,0.4-1.1,0.5c-0.3,0.1-0.5,0.3-0.8,0.4c-0.4,0.2-0.8,0.5-1.1,0.7c-0.3,0.2-0.5,0.4-0.8,0.6
		c-0.4,0.4-0.8,0.7-1.2,1.1c-0.4,0.4-0.7,0.8-1.1,1.2c-0.4,0.5-0.7,1.1-1.1,1.6c-0.4,0.8-0.8,1.7-1.2,2.5c-0.2,0.9-0.5,1.8-0.7,2.7
		c-0.1,0.5-0.2,1.1-0.4,1.6c-0.5,0.2-1,0.3-1.5,0.5c-0.4,0.1-0.8,0.2-1.1,0.3c-0.5,0.1-1,0.3-1.5,0.4c-0.9,0.2-1.8,0.5-2.7,0.7
		c-0.5,0.1-1,0.3-1.5,0.4c-0.5,0.1-1,0.3-1.5,0.4c-0.8,0.2-1.5,0.5-2.3,0.7c-0.3,0-0.5,0.1-0.8,0.1c-0.8,0.2-1.5,0.5-2.3,0.7
		c-0.5,0.1-1,0.3-1.5,0.4c-0.1,0-0.3,0-0.4,0.1c-0.5,0.1-1,0.3-1.5,0.4c-0.4,0.1-0.8,0.2-1.2,0.3c-0.8,0.2-1.5,0.5-2.3,0.7
		c-0.5,0.1-1,0.3-1.5,0.4c-0.6,0.1-1.3,0.3-1.9,0.4c-0.5,0.1-1,0.3-1.5,0.4c-2.3,0.5-2.1,0.4-1.4,2.5c0.7,1.9,1.3,3.9,1.6,6
		c0.4,2.2,0.2,2.2,2.4,1.4c0.9-0.2,1.8-0.5,2.7-0.7c0.5-0.1,1-0.3,1.5-0.4c0.5-0.1,1-0.3,1.5-0.4c0.5-0.1,1-0.3,1.5-0.4
		c0.4-0.1,0.8-0.2,1.2-0.3c0.5-0.1,1-0.3,1.5-0.4l0.2,0c0,0,0.1-0.1,0.1-0.1c0.8-0.2,1.6-0.5,2.5-0.7c0.5-0.1,1-0.3,1.5-0.4
		c0.5-0.1,1-0.3,1.5-0.4c0.5-0.1,1-0.3,1.5-0.4c0.4-0.1,0.8-0.2,1.1-0.3c0.6-0.2,1.2-0.3,1.9-0.5c0.9-0.2,1.8-0.5,2.7-0.7
		c0.4-0.1,0.8-0.2,1.2-0.3c0.5-0.1,1-0.3,1.5-0.4c0.6,0,1.2,0,1.8,0c0.1,0.1,0.2,0.3,0.4,0.4c0.8,0.8,1.6,1.6,2.3,2.4
		c0.8,0.5,1.5,1,2.3,1.6c0.6,0.3,1.3,0.6,1.9,0.9c0.6,0.2,1.3,0.4,1.9,0.7c0.2,0.1,0.5,0.1,0.7,0.2c0.4,0.1,0.8,0.1,1.2,0.2
		c0.5,0,1,0,1.5,0c0.4,0,0.8,0,1.1,0c0.7-0.1,1.3-0.2,2-0.3l0.2,0c0,0,0.1-0.1,0.1-0.1c0.4-0.1,0.8-0.2,1.2-0.2
		c0.4-0.2,0.8-0.3,1.2-0.5c0.4-0.1,0.7-0.3,1.1-0.4c0.5-0.3,1-0.5,1.5-0.8c0.2-0.1,0.3-0.2,0.5-0.3c0.4-0.3,0.8-0.5,1.2-0.8
		c0.4-0.4,0.8-0.7,1.2-1.1c0.2-0.3,0.5-0.6,0.7-0.8c0.3-0.4,0.7-0.8,1-1.2c0.2-0.4,0.5-0.8,0.7-1.1c0.3-0.5,0.5-1,0.8-1.5
		c0.3-0.8,0.5-1.5,0.8-2.3c0.2-0.4,0.5-0.8,0.7-1.2c1.6,4.4,3.3,8.8,4.8,13.3c0.5,1.5,0.7,3.1,1,4.7c0,2.3,0,4.6,0,6.9
		c0,0.3,0,0.5,0,0.8c0,0.8,0,1.5,0,2.3c-0.2,0.7-0.5,1.5-0.7,2.2C96.3,70,88.8,80.8,76.8,88.4c-0.1-0.2-0.2-0.3-0.3-0.5
		c0.1-0.5,0.3-1,0.4-1.6c0.1-0.8,0.2-1.6,0.3-2.3c0-0.4,0-0.8,0-1.1c0-0.5,0-1-0.1-1.5c-0.1-0.6-0.2-1.3-0.4-1.9
		c-0.2-0.6-0.4-1.3-0.6-1.9c-0.2-0.5-0.5-1-0.7-1.5c-0.3-0.5-0.6-1-0.9-1.5c-0.5-0.6-1.1-1.3-1.6-1.9c-0.6-0.5-1.1-1.1-1.7-1.6
		c-0.1-0.1-0.3-0.2-0.4-0.4c0-0.5-0.1-1-0.1-1.5c0.1-0.5,0.3-1,0.4-1.5c0.1-0.5,0.3-1,0.4-1.4c0.1-0.5,0.3-1.1,0.4-1.6
		c0.1-0.4,0.2-0.8,0.3-1.1c0.1-0.5,0.3-1,0.4-1.5c0.1-0.5,0.3-1,0.4-1.5c0.1-0.4,0.2-0.8,0.3-1.2c0.1-0.5,0.3-1,0.4-1.5
		c0.1-0.5,0.3-1,0.4-1.5c0.1-0.5,0.3-1,0.4-1.5c0.1-0.4,0.2-0.8,0.3-1.2c0.2-0.9,0.5-1.8,0.7-2.7c0.2-0.6,0.3-1.2,0.5-1.9
		c0.1-0.4,0.2-0.8,0.3-1.1c0.1-0.5,0.3-1,0.4-1.5c0.1-0.5,0.3-1,0.4-1.5c0.1-0.5,0.3-1,0.4-1.5c0.9-2.3,0.8-2.1-1.5-2.5
		c-2.1-0.4-4.2-1-6.1-1.8c-1.5-0.6-2-0.5-2.1,1.1c-0.2,0.7-0.3,1.3-0.5,2c-0.1,0.5-0.3,1-0.4,1.5c-0.1,0.5-0.3,1-0.4,1.5
		c-0.1,0.5-0.3,1-0.4,1.5c-0.1,0.5-0.3,1-0.4,1.5c-0.2,0.6-0.4,1.2-0.6,1.9c-0.2,0.8-0.4,1.6-0.6,2.3c-0.1,0.4-0.2,0.8-0.3,1.1
		c-0.1,0.2-0.1,0.5-0.2,0.7c-0.2,0.8-0.4,1.6-0.6,2.3c-0.1,0.4-0.2,0.8-0.3,1.1c-0.1,0.5-0.3,1-0.4,1.5c-0.1,0.5-0.3,1-0.4,1.5
		c-0.1,0.5-0.3,1-0.4,1.5c-0.1,0.4-0.2,0.8-0.3,1.1c-0.1,0.5-0.3,1-0.4,1.5c-0.1,0.5-0.3,1-0.4,1.5c-0.1,0.4-0.3,0.8-0.4,1.1
		c-0.4,0.1-0.9,0.2-1.3,0.3c-0.6,0.1-1.2,0.3-1.8,0.4c-0.9,0.4-1.9,0.7-2.8,1.1c-0.5,0.3-0.9,0.5-1.4,0.8c-0.4,0.3-0.7,0.5-1.1,0.8
		c-0.4,0.4-0.8,0.7-1.2,1.1c-0.3,0.3-0.5,0.5-0.8,0.8c-0.3,0.4-0.6,0.8-0.9,1.2c-0.2,0.3-0.3,0.5-0.5,0.8c-0.2,0.4-0.4,0.8-0.7,1.2
		c-0.2,0.4-0.4,0.7-0.6,1.1c-0.1,0.1-0.1,0.3-0.2,0.4c0,0.2-0.1,0.5-0.1,0.7c-0.1,0.4-0.3,0.8-0.4,1.1c-0.1,0.3-0.1,0.5-0.2,0.8
		c0,0.5-0.1,1-0.1,1.5c0,0.9,0,1.9,0,2.8c0,0.2,0,0.4,0,0.7c0.1,0.5,0.2,1,0.3,1.6c0,0.4,0.1,0.7,0.1,1.1c0.4,0.8,0.7,1.5,1.1,2.3
		c0.1,0.3,0.2,0.5,0.4,0.8c0.4,0.5,0.7,1.1,1.1,1.6c0.5,0.6,1,1.2,1.6,1.8c0.7,1.1-0.4,0.6-0.7,0.8c-1.4-0.1-2.9-0.3-4.3-0.4
		C24,92.1,6.6,73.2,5.5,51c0-0.5,0.1-1,0.1-1.5c0,0,0.2,0,0.2,0s0.2,0,0.2,0c0.4,0.4,0.8,0.8,1.2,1.1c0.3,0.2,0.5,0.5,0.8,0.7
		c0.4,0.3,0.8,0.5,1.2,0.8c0.5,0.3,0.9,0.5,1.4,0.8c0.8,0.3,1.6,0.7,2.4,1c0.4,0.1,0.8,0.3,1.1,0.4c0.4,0,0.8,0,1.1,0.1
		c0.2,0,0.4,0,0.6,0c1.2,0,2.4,0,3.5,0c1-0.2,2.1-0.4,3.1-0.7c0.5-0.2,1-0.4,1.5-0.6c0.5,0.3,1,0.7,1.4,1c0.3,0.3,0.7,0.7,1,1
		c0.4,0.4,0.8,0.8,1.1,1.1c0.3,0.3,0.5,0.5,0.8,0.8c0.5,0.5,1.1,1.1,1.6,1.6c0.4,0.4,0.7,0.7,1.1,1.1c0.5,0.5,1.1,1.1,1.6,1.6
		c0.4,0.4,0.7,0.7,1.1,1.1c0.4,0.4,0.8,0.8,1.1,1.1c0.4,0.4,0.8,0.8,1.2,1.2c0.4,0.4,0.8,0.8,1.1,1.1c0.4,0.4,0.7,0.7,1.1,1.1
		c0.5,0.5,1.1,1.1,1.6,1.6c0.4,0.4,0.8,0.8,1.1,1.1c0.3,0.3,0.5,0.5,0.8,0.8c0.4,0.4,0.7,0.7,1.1,1.1c0.5,0.5,1,1,1.5,1.5
		c0.6,0.3,1.6,1,1.7,0.8c2.2-2.3,4.3-4.7,6.6-7.1c-0.2-0.2-0.7-0.6-1.2-1.1c-0.5-0.5-1-1-1.5-1.5c-0.4-0.4-0.8-0.8-1.1-1.1
		c-0.3-0.3-0.5-0.5-0.8-0.8c-0.4-0.4-0.8-0.8-1.1-1.1c-0.5-0.5-1-1-1.5-1.5c-0.4-0.4-0.8-0.8-1.1-1.1c-0.4-0.3-0.8-0.7-1.2-1
		c-0.4-0.4-0.7-0.8-1.1-1.3c-0.4-0.4-0.8-0.8-1.1-1.1c-0.4-0.4-0.8-0.8-1.1-1.1c-0.5-0.5-1-1-1.5-1.5c-0.4-0.4-0.8-0.8-1.1-1.1
		c-0.5-0.5-1-1-1.5-1.5c-0.3-0.3-0.5-0.5-0.8-0.8c-0.4-0.4-0.8-0.8-1.1-1.1c-0.4-0.4-0.8-0.8-1.1-1.1c-0.2-0.2-0.5-0.5-0.7-0.7
		c0.2-0.7,0.4-1.5,0.6-2.2c0.2-1.3,0.5-2.5,0.7-3.8c-0.1-1.3-0.2-2.6-0.3-3.8c-0.2-0.2-0.3-0.5-0.5-0.7c-0.1-0.6-0.2-1.3-0.3-1.9
		c-0.1-0.3-0.2-0.5-0.3-0.8c-0.4-0.7-0.8-1.5-1.2-2.2c-0.2-0.3-0.5-0.6-0.7-0.9c-0.3-0.3-0.5-0.7-0.8-1c-0.4-0.4-0.8-0.7-1.1-1.1
		c-0.5-0.4-1-0.8-1.5-1.2c-0.3-0.1-0.5-0.2-0.8-0.3c-0.5-0.3-1-0.5-1.5-0.8c-0.6-0.3-1.3-0.5-1.9-0.8c-1-0.2-2-0.5-3-0.7
		c-0.3,0-0.5,0-0.8,0c-1.3,0.1-2.6,0.2-3.9,0.3c-0.7,0.1-1.4,0.3-2,0.4c6.9-11.4,17-18.5,29.9-21.6C43.9,2.2,45.7,1.8,47.5,1.4z"/>
	<path class="st0" d="M99.3,51.3c0-0.3,0-0.5,0-0.8C99.3,50.8,99.3,51.1,99.3,51.3z"/>
	<path class="st1" d="M55.1,1.4c-0.3,0-0.5,0-0.8,0C54.6,1.4,54.9,1.4,55.1,1.4z"/>
	<path class="st2" d="M50.6,1.4c-0.3,0-0.5,0-0.8,0C50.1,1.4,50.3,1.4,50.6,1.4z"/>
	<path class="st3" d="M5.3,49c-0.2-0.4-0.3-0.7-0.5-1.1c0.2-0.1,0.5-0.2,0.6-0.4c6.7-6.7,13.4-13.4,20-20.1c0.3-0.3,0.5-0.8,0.7-1.3
		c0.5,0.4,1,0.8,1.5,1.2c-0.4,0.6-0.8,1.3-1.3,1.8C21,34.7,15.5,40.1,10.1,45.5c-1.3,1.3-2.7,2.6-4.1,3.9c0,0-0.2,0-0.2,0
		s-0.2,0-0.2,0C5.5,49.3,5.4,49.2,5.3,49z"/>
	<path class="st4" d="M3.7,46.1c-0.2-0.5-0.5-1-0.7-1.6c0.4-0.7,0.7-1.6,1.3-2.2c5.9-6,11.9-12,17.8-18c0.6,0.3,1.3,0.5,1.9,0.8
		c-0.5,0.5-0.9,1.1-1.4,1.5c-5.9,5.9-11.7,11.7-17.6,17.6C4.4,44.8,4.1,45.4,3.7,46.1z"/>
	<path class="st5" d="M6,49.4c1.4-1.3,2.8-2.6,4.1-3.9c5.5-5.4,10.9-10.9,16.3-16.4c0.5-0.5,0.9-1.2,1.3-1.8
		c0.4,0.4,0.8,0.7,1.1,1.1c-0.4,0.6-0.8,1.3-1.3,1.8c-5,5-10,10-15,15c-1.8,1.8-3.6,3.5-5.5,5.3C6.7,50.2,6.3,49.8,6,49.4z"/>
	<path class="st6" d="M30.4,30.4c0.4,0.7,0.8,1.5,1.2,2.2c-0.6,0.4-1.3,0.7-1.8,1.2C24.2,39.4,18.7,45,13.1,50.5
		c-0.8,0.8-1.8,1.6-2.6,2.4c-0.5-0.3-0.9-0.5-1.4-0.8c0.2-0.1,0.3-0.2,0.5-0.3c6.7-6.7,13.4-13.4,20.1-20.1
		C30,31.4,30.1,30.8,30.4,30.4z"/>
	<path class="st7" d="M3.7,46.1c0.4-0.6,0.7-1.3,1.2-1.8c5.8-5.9,11.7-11.7,17.6-17.6c0.5-0.5,0.9-1,1.4-1.5c0.5,0.3,1,0.5,1.5,0.8
		c-0.5,0.5-0.9,1.1-1.4,1.5c-6.1,6.1-12.2,12.2-18.3,18.3c-0.5,0.5-0.8,1.2-1.3,1.8C4.2,47,3.9,46.6,3.7,46.1z"/>
	<path class="st8" d="M10.5,52.9c0.9-0.8,1.8-1.6,2.6-2.4c5.6-5.5,11.1-11.1,16.6-16.6c0.5-0.5,1.2-0.8,1.8-1.2
		c0.1,0.3,0.2,0.5,0.3,0.8c-0.4,0.6-0.8,1.3-1.3,1.8C25.1,40.8,19.5,46.3,14,51.9c-0.5,0.5-0.8,1.3-1.2,2
		C12.1,53.6,11.3,53.2,10.5,52.9z"/>
	<path class="st9" d="M22,24.3c-5.9,6-11.9,12-17.8,18c-0.6,0.6-0.9,1.5-1.3,2.2c-0.3-1-0.5-2-0.8-3.1c0,0,0,0,0,0
		c0.2,0,0.4,0,0.5-0.1c5.5-5.5,11-10.9,16.5-16.4c0.2-0.2-0.2-0.9-0.3-1.3C20,23.8,21,24.1,22,24.3z"/>
	<path class="st10" d="M30.4,30.4c-0.2,0.4-0.4,0.9-0.7,1.3c-6.7,6.7-13.4,13.4-20.1,20.1c-0.1,0.1-0.3,0.2-0.5,0.3
		c-0.4-0.3-0.8-0.5-1.2-0.8c0.2-0.2,0.5-0.4,0.7-0.6c6.7-6.7,13.5-13.5,20.2-20.2c0.3-0.3,0.5-0.7,0.8-1
		C29.9,29.8,30.1,30.1,30.4,30.4z"/>
	<path class="st11" d="M11.7,24.6c0.2-0.1,0.3-0.3,0.5-0.4c0.7-0.1,1.4-0.3,2-0.4c1.8,0.1,1.1,0.8,0.4,1.5
		c-3.7,3.8-7.4,7.6-11.3,11.2c-1,0.9-1.3,1.8-1.1,2.9c0,0.6,0,1.3,0,1.9c0,0,0,0,0,0C1.3,38.6,2,36,3,33.4c1.8-1.6,3.7-3.2,5.4-4.9
		C9.6,27.3,10.6,25.9,11.7,24.6z"/>
	<path class="st12" d="M70.4,36.4c-0.8-0.5-1.5-1-2.3-1.6C66.6,29,65,23.1,63.5,17.3c0.4-0.8,0.8-1.7,1.2-2.5
		c0.4,1.2,0.9,2.3,1.2,3.5c0.8,2.8,1.7,5.5,2.4,8.3C69.1,29.9,69.7,33.2,70.4,36.4z"/>
	<path class="st13" d="M68.9,10.2c0.4-0.2,0.8-0.5,1.1-0.7c0.8,3.1,1.5,6.1,2.3,9.2c1.7,6.6,3.5,13.1,5.3,19.7c-0.5,0-1,0-1.5,0
		c-0.8-3.3-1.6-6.6-2.5-9.9C72,22.4,70.5,16.3,68.9,10.2z"/>
	<path class="st14" d="M48.7,75c0.2-0.3,0.3-0.5,0.5-0.8c3.2,0.8,6.3,1.7,9.5,2.5c6.1,1.6,12.2,3.2,18.2,4.7c0.1,0,0.2,0,0.3,0
		c0,0.5,0,1,0.1,1.5c-6-1.6-12.1-3.2-18.1-4.9C55.6,77.1,52.1,76,48.7,75z"/>
	<path class="st7" d="M86.4,35.8c-0.2,0.1-0.3,0.2-0.5,0.3c-0.5-0.8-1.2-1.6-1.4-2.5c-1.4-5-2.7-10.1-4.1-15.1
		c-1-3.7-1.9-7.3-2.8-11c0.4,0,0.8,0,1.1,0C78.9,7.8,79,8,79.1,8.2C81.5,17.4,84,26.6,86.4,35.8z"/>
	<path class="st3" d="M76.5,88.7c-0.2,0.2-0.3,0.5-0.5,0.7c-0.6-0.1-1.3,0-1.9-0.2c-9.3-2.5-18.6-4.9-27.9-7.4c0-0.5,0.1-1,0.1-1.5
		c3.9,1.1,7.8,2.3,11.7,3.4C64.3,85.4,70.4,87.1,76.5,88.7z"/>
	<path class="st15" d="M75,7.2c0.1,0.1,0.2,0.1,0.4,0.2c0,0.4,0,0.9,0.2,1.3c2,7.6,4,15.2,6.1,22.9c0.5,1.9,1.2,3.8,1.8,5.7
		c-0.4,0.2-0.8,0.3-1.2,0.5c-2.6-9.6-5.3-19.2-7.9-28.8c-0.1-0.4,0.4-0.9,0.6-1.4C75,7.4,75,7.3,75,7.2z"/>
	<path class="st3" d="M83.4,37.3c-0.6-1.9-1.3-3.8-1.8-5.7c-2.1-7.6-4.1-15.2-6.1-22.9c-0.1-0.4-0.1-0.9-0.2-1.3
		c0.1,0,0.2,0.1,0.3,0.1c0.3,0,0.5,0,0.8,0c1.6,6,3.2,12,4.8,17.9c1,3.8,2.2,7.6,3.2,11.4C84.1,37,83.8,37.1,83.4,37.3z"/>
	<path class="st16" d="M2.2,39.5c-0.1-1.2,0.2-2,1.1-2.9c3.8-3.6,7.5-7.5,11.3-11.2c0.7-0.7,1.5-1.4-0.4-1.5
		c1.3-0.1,2.6-0.2,3.9-0.3c-0.3,0.5-0.5,1-0.9,1.4c-4.6,4.6-9.1,9.2-13.7,13.7C3.2,39,2.7,39.2,2.2,39.5z"/>
	<path class="st10" d="M47.4,77.2c0.2-0.4,0.4-0.7,0.6-1.1c0.2,0.1,0.4,0.2,0.7,0.3c9.5,2.6,19,5.1,28.6,7.7
		c-0.1,0.8-0.2,1.6-0.3,2.3c0,0-0.1-0.1-0.1-0.1c0-0.2,0-0.5,0-0.7c-0.3-0.3-0.6-0.6-1-0.7c-4.3-1.2-8.6-2.3-12.9-3.5
		C57.7,80,52.6,78.6,47.4,77.2z"/>
	<path class="st15" d="M76.5,88.7c-6.1-1.7-12.2-3.3-18.3-5c-3.9-1.1-7.8-2.3-11.7-3.4c0.1-0.3,0.1-0.5,0.2-0.8
		c8.8,2.3,17.6,4.6,26.4,7c1.2,0.3,2.4,1,3.5,1.5c0.1,0.2,0.2,0.3,0.3,0.5C76.7,88.5,76.6,88.6,76.5,88.7z"/>
	<path class="st17" d="M15.1,54.4c-0.4,0-0.8,0-1.1-0.1c0.2-0.5,0.3-1.1,0.6-1.5c5.8-5.9,11.7-11.7,17.6-17.5
		c0.2,0.2,0.3,0.5,0.5,0.7c0,0.3,0,0.5-0.1,0.8c-1.5,1.5-3.1,3-4.6,4.5C23.7,45.7,19.4,50,15.1,54.4z"/>
	<path class="st18" d="M77.6,38.3c-1.8-6.6-3.6-13.1-5.3-19.7c-0.8-3-1.5-6.1-2.3-9.2c0.3-0.1,0.5-0.3,0.8-0.4
		c1.3,4.3,2.6,8.7,3.7,13c1.5,5.4,2.8,10.8,4.2,16.2C78.4,38.3,78,38.3,77.6,38.3z"/>
	<path class="st19" d="M74.9,7.5c-0.2,0.5-0.7,1-0.6,1.4c2.6,9.6,5.2,19.2,7.9,28.8c-0.4,0.1-0.8,0.2-1.2,0.2
		c-2.7-9.9-5.4-19.9-8-29.8C73.7,8,74.3,7.7,74.9,7.5z"/>
	<path class="st19" d="M76.5,88c-1.2-0.5-2.3-1.2-3.5-1.5c-8.8-2.4-17.6-4.7-26.4-7c0.1-0.4,0.3-0.8,0.4-1.1
		c9.9,2.7,19.8,5.3,29.7,8l0.1,0.1C76.8,86.9,76.6,87.5,76.5,88z"/>
	<path class="st10" d="M78.8,38.3c-1.4-5.4-2.8-10.8-4.2-16.2c-1.2-4.4-2.5-8.7-3.7-13c0.4-0.2,0.7-0.4,1.1-0.5
		c2.3,8.7,4.6,17.4,7,26.1c0.3,1.2,0.9,2.2,1.4,3.3c0.2,0,0.3,0.1,0.5,0.1C80.1,38.1,79.4,38.2,78.8,38.3z"/>
	<path class="st17" d="M74.2,37.9c-0.6-0.2-1.3-0.4-1.9-0.7c-0.9-3.5-1.7-7-2.7-10.4c-1.2-4.6-2.5-9.1-3.8-13.7
		c0.4-0.4,0.7-0.8,1.1-1.2c0.9,3.3,1.8,6.7,2.7,10C71.1,27.3,72.7,32.6,74.2,37.9z"/>
	<path class="st4" d="M74.2,92.5c-0.4,0.4-0.7,0.8-1.1,1.2c-4.1-1.1-8.1-2.2-12.2-3.2c-4.7-1.2-9.5-2.4-14.2-3.6
		c-0.1-0.5-0.2-1-0.3-1.6c6,1.6,11.9,3.3,17.9,4.9C67.5,91,70.9,91.7,74.2,92.5z"/>
	<path class="st20" d="M46.3,81.8c9.3,2.5,18.6,5,27.9,7.4c0.6,0.2,1.2,0.1,1.9,0.2c-0.2,0.4-0.4,0.8-0.6,1.2
		c-5.3-1.4-10.6-2.8-15.9-4.2c-4-1.1-8.1-2.1-12.1-3.2c-1-0.3-1.1,0.1-1,0.9c0,0.1-0.1,0.3-0.1,0.4C46.3,83.7,46.3,82.7,46.3,81.8z"
		/>
	<path class="st4" d="M79.9,7.5c0.4,0,0.8,0.1,1.1,0.1c0.9,2.9,1.8,5.8,2.7,8.7c0.5,1.9,1,3.8,1.5,5.7c0.4,1.4,0.8,2.8,1.1,4.2
		c0.1,0.5,0.3,1,0.4,1.5c0.4,1.4,0.8,2.8,1.1,4.2c0.2,0.6,0.5,1.2,0.7,1.9l0.1,0.1c-0.4,0.4-0.8,0.7-1.2,1.1c-0.3-0.5-0.6-1-0.7-1.5
		C84.5,24.8,82.2,16.2,79.9,7.5z"/>
	<path class="st21" d="M29.7,29.5c-0.3,0.4-0.5,0.7-0.8,1C22.1,37.3,15.4,44,8.7,50.8c-0.2,0.2-0.5,0.4-0.7,0.6
		c-0.3-0.2-0.5-0.5-0.8-0.7c1.8-1.8,3.7-3.5,5.5-5.3c5-5,10-10,15-15c0.5-0.5,0.8-1.2,1.3-1.8C29.1,28.8,29.4,29.1,29.7,29.5z"/>
	<path class="st22" d="M65.8,13.2c1.3,4.6,2.6,9.1,3.8,13.7c0.9,3.5,1.8,7,2.7,10.4c-0.6-0.3-1.3-0.6-1.9-0.9
		c-0.7-3.3-1.3-6.5-2.1-9.8c-0.7-2.8-1.6-5.6-2.4-8.3c-0.4-1.2-0.8-2.4-1.2-3.5C65,14.2,65.4,13.7,65.8,13.2z"/>
	<path class="st8" d="M76.9,81.4c-6.1-1.6-12.2-3.2-18.2-4.7c-3.2-0.8-6.3-1.7-9.5-2.5c0.3-0.4,0.6-0.8,0.9-1.2
		c2.2,0.7,4.4,1.3,6.7,2c6.1,1.7,12.2,3.3,18.3,5C75.8,80.1,76.3,80.9,76.9,81.4z"/>
	<path class="st20" d="M84.5,36.9c-1.1-3.8-2.2-7.6-3.2-11.4c-1.6-6-3.2-11.9-4.8-17.9c0.4,0,0.8,0,1.1,0c0.9,3.7,1.9,7.3,2.8,11
		c1.3,5.1,2.7,10.1,4.1,15.1c0.2,0.9,0.9,1.6,1.4,2.5C85.5,36.3,85,36.6,84.5,36.9z"/>
	<path class="st20" d="M4.5,47.5c0.4-0.6,0.8-1.3,1.3-1.8c6.1-6.1,12.2-12.2,18.3-18.3c0.5-0.5,0.9-1,1.4-1.5
		c0.3,0.1,0.5,0.2,0.8,0.3c-0.2,0.4-0.4,0.9-0.7,1.3c-6.7,6.7-13.4,13.4-20,20.1c-0.2,0.2-0.4,0.3-0.6,0.4
		C4.7,47.8,4.6,47.7,4.5,47.5z"/>
	<path class="st23" d="M2.2,39.5c0.5-0.3,1-0.5,1.4-0.9c4.6-4.6,9.2-9.1,13.7-13.7c0.4-0.4,0.6-0.9,0.9-1.4c0.3,0,0.5,0,0.8,0
		c0.1,0.4,0.4,1.1,0.3,1.3c-5.5,5.5-11,11-16.5,16.4c-0.1,0.1-0.4,0.1-0.5,0.1C2.2,40.8,2.2,40.2,2.2,39.5z"/>
	<path class="st17" d="M76.2,77.6c0.2,0.6,0.4,1.3,0.6,1.9c-0.6-0.2-1.1-0.6-1.7-0.7c-8.1-2.2-16.1-4.4-24.2-6.5
		c0.4-0.4,0.8-0.7,1.2-1.1c3.3,1,6.6,2,10,2.9C66.8,75.3,71.5,76.4,76.2,77.6z"/>
	<path class="st18" d="M77.2,84.1c-9.5-2.6-19-5.1-28.6-7.7c-0.2-0.1-0.5-0.2-0.7-0.3c0.2-0.4,0.4-0.8,0.7-1.2
		c3.5,1.1,7,2.2,10.5,3.2c6,1.7,12.1,3.2,18.1,4.9C77.2,83.3,77.2,83.7,77.2,84.1z"/>
	<path class="st22" d="M15.1,54.4c4.3-4.3,8.6-8.7,12.9-13c1.5-1.5,3.1-3,4.6-4.5c-0.3,0.9-0.4,2-1,2.7c-4.6,4.7-9.2,9.3-13.9,14
		c-0.5,0.5-1.3,0.6-1.9,1C15.6,54.4,15.4,54.4,15.1,54.4z"/>
	<path class="st24" d="M46.7,86.8c4.7,1.2,9.5,2.4,14.2,3.6c4.1,1.1,8.1,2.2,12.2,3.2c-0.2,0.2-0.3,0.5-0.5,0.7
		c-0.7-0.1-1.5-0.3-2.2-0.4c-1.2-0.2-2.3-0.4-3.5-0.7c-6.7-1.8-13.4-3.6-20.1-5.4C46.8,87.5,46.7,87.2,46.7,86.8z"/>
	<path class="st25" d="M15.8,54.4c0.7-0.3,1.5-0.5,1.9-1c4.7-4.6,9.3-9.2,13.9-14c0.6-0.6,0.7-1.8,1-2.7c0-0.3,0-0.5,0.1-0.8
		c0.1,1.3,0.2,2.6,0.3,3.8c-0.3,0.4-0.5,0.8-0.9,1.2c-3.9,3.9-7.9,7.8-11.8,11.8c-0.4,0.4-0.7,1-1,1.5C18.1,54.4,17,54.4,15.8,54.4z
		"/>
	<path class="st26" d="M79.9,7.5c2.3,8.7,4.6,17.4,6.9,26c0.1,0.5,0.5,1,0.7,1.5c-0.4,0.3-0.8,0.5-1.2,0.8
		c-2.4-9.2-4.9-18.4-7.3-27.6C79,8,78.9,7.8,78.8,7.5C79.2,7.5,79.5,7.5,79.9,7.5L79.9,7.5z"/>
	<path class="st8" d="M68.9,10.2c1.6,6.1,3.2,12.2,4.7,18.2c0.8,3.3,1.7,6.6,2.5,9.9c-0.4-0.1-0.8-0.1-1.2-0.2c0-0.4,0-0.9-0.2-1.3
		c-1.4-5.2-2.8-10.5-4.2-15.7c-0.9-3.4-1.7-6.8-2.5-10.3C68.3,10.7,68.6,10.4,68.9,10.2z"/>
	<path class="st26" d="M46.3,84.6c0-0.1,0.1-0.3,0.1-0.4c9.4,2.5,18.8,5.1,28.2,7.6c-0.2,0.2-0.3,0.5-0.5,0.7
		c-3.3-0.8-6.6-1.5-9.9-2.4c-6-1.6-11.9-3.2-17.9-4.9C46.4,85,46.3,84.8,46.3,84.6z"/>
	<path class="st27" d="M19.3,54.4c0.3-0.5,0.6-1.1,1-1.5c3.9-3.9,7.9-7.8,11.8-11.8c0.3-0.3,0.6-0.8,0.9-1.2
		c-0.2,1.3-0.5,2.5-0.7,3.8c-0.4,0.3-0.9,0.4-1.3,0.8c-2.6,2.6-5.2,5.2-7.8,7.8c-0.4,0.4-0.5,1-0.8,1.5C21.4,54,20.4,54.2,19.3,54.4
		z"/>
	<path class="st28" d="M32.2,35.3C26.4,41.2,20.5,47,14.6,52.8c-0.4,0.4-0.4,1-0.6,1.5c-0.4-0.1-0.8-0.3-1.1-0.4
		c0.4-0.7,0.6-1.5,1.2-2c5.5-5.6,11.1-11.1,16.6-16.7c0.5-0.5,0.8-1.2,1.3-1.8C32,34.1,32.1,34.7,32.2,35.3z"/>
	<path class="st29" d="M68.1,10.9c0.8,3.4,1.6,6.9,2.5,10.3c1.4,5.2,2.8,10.5,4.2,15.7c0.1,0.4,0.1,0.9,0.2,1.3
		c-0.2-0.1-0.5-0.1-0.7-0.2c-1.5-5.3-3-10.6-4.5-16c-0.9-3.3-1.8-6.7-2.7-10C67.3,11.6,67.7,11.2,68.1,10.9z"/>
	<path class="st28" d="M50.9,72.3c8.1,2.2,16.1,4.3,24.2,6.5c0.6,0.2,1.2,0.5,1.7,0.7c0.1,0.6,0.2,1.3,0.4,1.9c-0.1,0-0.2,0-0.3,0
		c-0.6-0.5-1.1-1.3-1.8-1.5c-6.1-1.7-12.2-3.3-18.3-5c-2.2-0.6-4.5-1.3-6.7-2C50.3,72.8,50.6,72.5,50.9,72.3z"/>
	<path class="st30" d="M46.8,87.9c6.7,1.8,13.4,3.6,20.1,5.4c1.1,0.3,2.3,0.5,3.5,0.7c0.6,0.3,1.3,0.5,1.9,0.8
		c-0.4,0.3-0.7,0.5-1.1,0.8c-7.2-2-14.5-3.9-21.7-5.9c-0.5-0.1-1.1,0.3-1.6,0.5C47.5,89.5,47.2,88.7,46.8,87.9z"/>
	<path class="st30" d="M82.6,7.9c0.3,0.1,0.5,0.2,0.8,0.3c0.3,0.5,0.6,1,0.7,1.5c1.4,5.3,2.8,10.6,4.2,15.8c0.6,2.1,1.4,4.2,2.2,6.3
		c-0.3,0.4-0.7,0.8-1,1.2c-0.6-1.9-1.2-3.8-1.7-5.7C86,20.9,84.3,14.4,82.6,7.9z"/>
	<path class="st16" d="M85.2,9.1c0.5,0.4,1,0.7,1.5,1.1c1.4,5.4,2.8,10.9,4.2,16.3c0.3,1,0.7,1.9,1.1,2.8c-0.3,0.5-0.5,1-0.8,1.5
		c-0.4-0.7-0.8-1.4-1-2.1c-0.9-3.3-1.7-6.6-2.6-9.8C86.8,15.5,86,12.3,85.2,9.1z"/>
	<path class="st22" d="M76.2,77.6c-4.7-1.2-9.4-2.3-14.1-3.6c-3.3-0.9-6.7-1.9-10-2.9c0.4-0.3,0.7-0.5,1.1-0.8
		c4.5,1.3,9.1,2.6,13.6,3.8c2.9,0.7,5.8,1.3,8.6,1.9C75.7,76.6,75.9,77.1,76.2,77.6z"/>
	<path class="st31" d="M54.6,69.5c0.9-0.4,1.9-0.7,2.8-1.1c0.3,0.3,0.7,0.7,1,0.8c4.4,1.2,8.7,2.4,13.1,3.6c0.4,0.1,0.9-0.1,1.4-0.2
		c0.5,0.6,1.1,1.3,1.6,1.9c-0.7,0-1.5,0.1-2.2-0.1C66.4,72.9,60.5,71.2,54.6,69.5z"/>
	<path class="st32" d="M63.5,17.3c1.5,5.9,3.1,11.7,4.6,17.6c-0.8-0.8-1.6-1.6-2.3-2.4c-0.1-0.8,0-1.7-0.2-2.4
		c-0.9-3.3-1.9-6.7-2.9-10C63,19.1,63.2,18.2,63.5,17.3z"/>
	<path class="st16" d="M70.1,96.3c-0.7,0.4-1.3,0.7-2,1.1c-0.5-0.3-1-0.6-1.5-0.8c-4.6-1.3-9.1-2.5-13.7-3.7
		c-1.1-0.3-2.4-0.2-3.5-0.4c-0.4-0.5-0.7-1.1-1.1-1.6c0.4-0.1,0.8-0.3,1.2-0.2c2.3,0.6,4.6,1.3,6.9,1.9
		C60.9,93.9,65.5,95.1,70.1,96.3z"/>
	<path class="st33" d="M70.1,96.3c-4.6-1.2-9.2-2.4-13.8-3.7c-2.3-0.6-4.6-1.3-6.9-1.9c-0.3-0.1-0.8,0.1-1.2,0.2
		c-0.1-0.3-0.2-0.5-0.4-0.8c0.5-0.2,1.1-0.6,1.6-0.5c7.2,1.9,14.5,3.9,21.7,5.9C70.8,95.8,70.5,96.1,70.1,96.3z"/>
	<path class="st33" d="M85.2,9.1c0.8,3.2,1.6,6.5,2.4,9.7c0.8,3.3,1.7,6.6,2.6,9.8c0.2,0.8,0.7,1.4,1,2.1c-0.2,0.4-0.5,0.8-0.7,1.1
		c-0.7-2.1-1.6-4.2-2.2-6.3c-1.5-5.3-2.8-10.5-4.2-15.8c-0.1-0.5-0.5-1-0.7-1.5C84,8.5,84.6,8.8,85.2,9.1z"/>
	<path class="st34" d="M54.6,69.5c5.9,1.7,11.8,3.3,17.7,5c0.7,0.2,1.5,0.1,2.2,0.1c0.3,0.5,0.6,1,0.9,1.5c-2.9-0.6-5.8-1.1-8.6-1.9
		c-4.6-1.2-9.1-2.5-13.6-3.8C53.7,70.1,54.1,69.8,54.6,69.5z"/>
	<path class="st24" d="M82.6,7.9c1.7,6.5,3.4,12.9,5.2,19.4c0.5,1.9,1.2,3.8,1.7,5.7c-0.2,0.3-0.5,0.6-0.7,0.8c0,0-0.1-0.1-0.1-0.1
		c-0.2-0.6-0.5-1.2-0.7-1.9c-0.4-1.4-0.8-2.8-1.1-4.2c-0.1-0.5-0.3-1-0.4-1.5c-0.4-1.4-0.8-2.8-1.1-4.2c-0.5-1.9-1-3.8-1.5-5.7
		c-0.9-2.9-1.8-5.8-2.7-8.7C81.6,7.7,82.1,7.8,82.6,7.9z"/>
	<path class="st35" d="M92.1,29.2c-0.4-0.9-0.8-1.8-1.1-2.8c-1.4-5.4-2.8-10.9-4.2-16.3c0.6,0.5,1.3,1,1.9,1.5
		c0,0.6-0.1,1.3,0.1,1.9c1.1,4.2,2.2,8.5,3.4,12.7c0.1,0.3,0.5,0.5,0.7,0.7C92.6,27.7,92.3,28.5,92.1,29.2z"/>
	<path class="st36" d="M67,97.8c-1,0.3-2,0.5-3.1,0.8c-0.6,0-1.2,0-1.7-0.1c-2.3-0.7-4.6-1.6-7-2.3c-0.5-0.1-1.1,0.1-1.7,0.2
		c-1.1-0.4-2.2-0.7-3.3-1.1c0.3-0.2,1.4,0.2,0.7-0.8c0.7-1.5,1.6-0.3,2.3-0.2C57.9,95.4,62.4,96.6,67,97.8z"/>
	<path class="st37" d="M44.3,73.1c-0.5-0.5-1-1-1.5-1.5c1.8-1.7,3.6-3.3,5.3-5.1c0.7-0.7,1.2-1.6,1.7-2.4c0.5,0.5,1,1,1.5,1.5
		C49,68.2,46.7,70.7,44.3,73.1z"/>
	<path class="st35" d="M67,97.8c-4.6-1.2-9.1-2.5-13.7-3.6c-0.7-0.2-1.7-1.3-2.3,0.2c-0.5-0.6-1-1.2-1.6-1.8
		c1.2,0.1,2.4,0.1,3.5,0.4c4.6,1.2,9.2,2.5,13.7,3.7c0.5,0.1,1,0.5,1.5,0.8C67.7,97.6,67.4,97.7,67,97.8z"/>
	<path class="st38" d="M76.5,47.9c-0.1,0.4-0.2,0.8-0.3,1.1c-0.6-0.1-1.2-0.2-1.8-0.3c-2.7-0.7-5.4-1.3-8.1-2c0.1-0.5,0.3-1,0.4-1.5
		c0.5-0.1,1.1-0.4,1.6-0.2c2.2,0.5,4.4,1.1,6.6,1.7C75.4,46.9,75.9,47.5,76.5,47.9z"/>
	<path class="st39" d="M54,23.9c0.5-0.1,1-0.3,1.5-0.4c0.9,3.3,1.8,6.6,2.7,9.9c-0.6,0.2-1.2,0.3-1.9,0.5c-0.5-1.6-1-3.2-1.4-4.9
		C54.5,27.4,54.3,25.6,54,23.9z"/>
	<path class="st40" d="M35.3,28.9c0.5-0.1,1-0.3,1.5-0.4c0.6,2,1.2,3.9,1.9,5.9c0.5,1.3,0.1,3.1,2,3.7c-0.9,0.2-1.8,0.5-2.7,0.7
		C37.1,35.5,36.2,32.2,35.3,28.9z"/>
	<path class="st41" d="M92.9,26.9c-0.3-0.2-0.7-0.4-0.7-0.7c-1.2-4.2-2.3-8.5-3.4-12.7c-0.2-0.6,0-1.3-0.1-1.9
		c0.6,0.8,1.3,1.5,1.9,2.3c0.2,1.3,0.3,2.6,0.6,3.9c0.6,2.4,1.4,4.9,2.1,7.3c0.1,0.2,0.2,0.5,0.3,0.7C93.3,26.2,93.1,26.5,92.9,26.9
		z"/>
	<path class="st42" d="M67.4,42.2c0.2-0.7,0.3-1.3,0.5-2c2.8,0.7,5.5,1.4,8.3,2.2c0.5,0.2,1,0.7,1.5,1c-0.1,0.5-0.3,1-0.4,1.5
		C74,44,70.7,43.1,67.4,42.2z"/>
	<path class="st43" d="M58.2,33.4c-0.9-3.3-1.8-6.6-2.7-9.9c0.9-0.2,1.8-0.5,2.7-0.7c-0.1,0.5-0.4,1.1-0.3,1.6
		c0.6,2.5,1.2,5,1.9,7.4c0.1,0.4,0.7,0.6,1.1,0.8C60,32.9,59.1,33.2,58.2,33.4z"/>
	<path class="st44" d="M80.8,38c-0.2,0-0.3-0.1-0.5-0.1c-2.7-9.9-5.3-19.7-8-29.6c0.2-0.1,0.5-0.1,0.7-0.2c2.7,9.9,5.4,19.9,8,29.8
		l-0.1,0.1L80.8,38z"/>
	<path class="st44" d="M47.4,77.2c5.2,1.4,10.3,2.8,15.5,4.2c4.3,1.2,8.6,2.3,12.9,3.5c0.4,0.1,0.7,0.5,1,0.7c-0.4,0-0.8,0-1.1-0.1
		c-7.2-1.9-14.5-3.9-21.7-5.8c-2.3-0.6-4.6-1.4-6.8-2.1C47.3,77.5,47.3,77.3,47.4,77.2z"/>
	<path class="st45" d="M65.3,50.1c0.2-0.6,0.4-1.2,0.6-1.9c3.3,0.9,6.6,1.8,9.9,2.7c-0.2,0.9-0.5,1.8-0.7,2.7
		c-0.4-0.4-0.7-1-1.2-1.1C70.9,51.7,68.1,50.9,65.3,50.1z"/>
	<path class="st46" d="M35.4,49.7c0.5,0.5,1,1,1.5,1.5c-0.5,0.6-1,1.2-1.5,1.7c-1.8,1.9-3.7,3.8-5.5,5.8c-0.5-0.5-1.1-1.1-1.6-1.6
		c1.8-1.7,3.6-3.3,5.3-5.1C34.3,51.4,34.8,50.5,35.4,49.7z"/>
	<path class="st47" d="M35.3,28.9c0.9,3.3,1.8,6.6,2.7,9.9c-2.2,0.8-2.1,0.8-2.4-1.4c-0.4-2-0.9-4-1.6-6
		C33.2,29.4,33.1,29.4,35.3,28.9z"/>
	<path class="st48" d="M32.6,61.4c-0.5-0.5-1.1-1.1-1.6-1.6c1.8-1.7,3.6-3.3,5.3-5.1c0.7-0.7,1.2-1.6,1.8-2.4c0.5,0.5,1,1,1.5,1.5
		c-0.5,0.6-1,1.2-1.5,1.7C36.3,57.6,34.4,59.5,32.6,61.4z"/>
	<path class="st49" d="M39.8,68.6c-0.5-0.5-1.1-1.1-1.6-1.6c1.8-1.7,3.6-3.3,5.3-5.1c0.7-0.7,1.2-1.6,1.8-2.4c0.5,0.5,1,1,1.5,1.5
		c-0.5,0.6-1,1.2-1.5,1.7C43.5,64.8,41.7,66.7,39.8,68.6z"/>
	<path class="st50" d="M49.8,64.2c-0.6,0.8-1.1,1.7-1.7,2.4c-1.7,1.7-3.5,3.4-5.3,5.1c-0.4-0.4-0.7-0.7-1.1-1.1
		c0.5-0.6,0.9-1.2,1.5-1.7c1.8-1.9,3.7-3.8,5.5-5.8C49.1,63.4,49.5,63.8,49.8,64.2z"/>
	<path class="st51" d="M73,72.7c-0.5,0.1-1,0.3-1.4,0.2c-4.4-1.2-8.7-2.4-13.1-3.6c-0.4-0.1-0.7-0.5-1-0.8c0.6-0.1,1.2-0.3,1.8-0.4
		c0.4,0.1,0.7,0.3,1.1,0.4c3.7,0.9,7.4,1.8,11.1,2.7C71.9,71.6,72.4,72.2,73,72.7z"/>
	<path class="st52" d="M45.3,59.6c-0.6,0.8-1.1,1.7-1.8,2.4c-1.7,1.7-3.5,3.4-5.3,5.1c-0.4-0.4-0.7-0.7-1.1-1.1
		c0.5-0.6,0.9-1.2,1.5-1.7c1.8-1.9,3.7-3.8,5.5-5.8C44.5,58.9,44.9,59.2,45.3,59.6z"/>
	<path class="st53" d="M45.3,36.9c-0.5,0.1-1,0.3-1.5,0.4c-0.5-0.6-1.3-1.2-1.5-1.9c-0.8-2.5-1.4-5.1-2-7.7c0.8-0.2,1.5-0.5,2.3-0.7
		c-0.1,0.4-0.4,0.7-0.3,1.1c0.7,2.7,1.4,5.4,2.2,8.1C44.6,36.5,45,36.6,45.3,36.9z"/>
	<path class="st54" d="M32.3,46.7c0.4,0.4,0.8,0.8,1.1,1.1c-2.4,2.5-4.7,4.9-7.1,7.4c-0.3-0.3-0.7-0.7-1-1c0.5-0.6,0.9-1.2,1.5-1.7
		C28.6,50.5,30.5,48.6,32.3,46.7z"/>
	<path class="st55" d="M32.6,61.4c1.8-1.9,3.7-3.8,5.5-5.8c0.5-0.5,1-1.1,1.5-1.7c0.4,0.4,0.8,0.8,1.1,1.1c-2.4,2.5-4.7,4.9-7.1,7.4
		C33.3,62.1,32.9,61.8,32.6,61.4z"/>
	<path class="st56" d="M38,52.4c-0.6,0.8-1.1,1.7-1.8,2.4c-1.7,1.7-3.5,3.4-5.3,5.1c-0.4-0.4-0.7-0.7-1.1-1.1
		c1.8-1.9,3.7-3.8,5.5-5.8c0.5-0.5,1-1.1,1.5-1.7C37.3,51.6,37.7,52,38,52.4z"/>
	<path class="st57" d="M63.6,56.7c0.2-0.8,0.4-1.6,0.6-2.3c2.8,0.8,5.5,1.5,8.3,2.4c0.5,0.2,0.9,0.8,1.4,1.2c-0.1,0.5-0.3,1-0.4,1.5
		c-0.2-0.3-0.4-0.7-0.7-0.7c-2.6-0.8-5.3-1.5-7.9-2.2C64.4,56.3,64,56.6,63.6,56.7z"/>
	<path class="st58" d="M75.7,51c-3.3-0.9-6.6-1.8-9.9-2.7c0.1-0.5,0.3-1,0.4-1.5c2.7,0.7,5.4,1.4,8.1,2c0.6,0.1,1.2,0.2,1.8,0.3
		C76,49.7,75.9,50.3,75.7,51z"/>
	<path class="st59" d="M65.3,50.1c2.8,0.8,5.7,1.5,8.5,2.4c0.5,0.1,0.8,0.8,1.2,1.1c-0.1,0.4-0.2,0.8-0.3,1.2
		c-1.9-0.7-3.8-1.4-5.8-1.9c-1.3-0.3-2.8-0.3-4.1-0.5C64.9,51.7,65.1,50.9,65.3,50.1z"/>
	<path class="st46" d="M62,62.4c0.1-0.5,0.3-1,0.4-1.5c0.4-0.1,0.9-0.4,1.2-0.3c2.6,0.6,5.2,1.3,7.8,2.1c0.3,0.1,0.5,0.6,0.8,0.9
		c-0.1,0.4-0.2,0.8-0.3,1.1c-2.2-0.6-4.3-1.3-6.5-1.9C64.4,62.6,63.2,62.5,62,62.4z"/>
	<path class="st60" d="M50.2,25c0.8-0.2,1.5-0.5,2.3-0.7c-0.1,0.4-0.4,0.7-0.3,1.1c0.7,2.7,1.4,5.3,2.2,8c0.1,0.3,0.5,0.6,0.8,0.8
		c-0.5,0.1-1,0.3-1.5,0.4c-0.4-0.5-1-0.9-1.2-1.4C51.7,30.5,50.9,27.8,50.2,25z"/>
	<path class="st61" d="M71.6,66.3c-0.1,0.5-0.3,1-0.4,1.4c-3.3-0.9-6.6-1.8-9.9-2.7c0.1-0.5,0.3-1,0.4-1.5
		C65,64.4,68.3,65.4,71.6,66.3z"/>
	<path class="st44" d="M47.2,77.6c2.3,0.7,4.5,1.5,6.8,2.1c7.2,2,14.4,3.9,21.7,5.8c0.4,0.1,0.8,0.1,1.1,0.1c0,0.2,0,0.5,0,0.7
		c-9.9-2.7-19.8-5.3-29.7-8C47.1,78.1,47.2,77.9,47.2,77.6z"/>
	<path class="st62" d="M55.2,34.2c-0.3-0.3-0.7-0.5-0.8-0.8c-0.8-2.6-1.5-5.3-2.2-8c-0.1-0.3,0.2-0.7,0.3-1.1c0.5-0.1,1-0.3,1.5-0.4
		c0.3,1.7,0.5,3.4,0.9,5.1c0.4,1.6,0.9,3.2,1.4,4.9C55.9,34,55.6,34.1,55.2,34.2z"/>
	<path class="st63" d="M60.8,22.1c0.5-0.2,1-0.3,1.5-0.5c0.1,0.9,0.2,1.8,0.4,2.7c0.8,2.6,1.7,5.1,2.6,7.7c-0.6,0-1.2,0-1.8,0
		c-0.3-0.2-0.7-0.4-0.8-0.6c-0.5-1.6-0.9-3.1-1.2-4.7C61.3,25.1,61.1,23.6,60.8,22.1z"/>
	<path class="st64" d="M40.8,38.1c-1.9-0.5-1.5-2.4-2-3.7c-0.7-1.9-1.3-3.9-1.9-5.9c0.6-0.1,1.3-0.3,1.9-0.4
		c0.6,2.3,1.2,4.6,1.9,6.9c0.3,1,1,1.8,1.6,2.7C41.8,37.8,41.3,37.9,40.8,38.1z"/>
	<path class="st65" d="M52.2,35c-0.5,0.1-1,0.3-1.5,0.4c-0.4-0.5-1.1-0.9-1.3-1.5c-0.8-2.7-1.5-5.4-2.3-8.1c0.8-0.2,1.5-0.5,2.3-0.7
		c-0.1,0.4-0.4,0.9-0.3,1.3c0.6,2.6,1.3,5.1,2,7.7C51.3,34.5,51.8,34.7,52.2,35z"/>
	<path class="st66" d="M22.4,53.8c0.3-0.5,0.4-1.1,0.8-1.5c2.6-2.6,5.2-5.2,7.8-7.8c0.3-0.3,0.9-0.5,1.3-0.8
		c-0.2,0.7-0.4,1.5-0.6,2.2c-0.5,0.4-1.1,0.9-1.6,1.3c-2.1,2-4.1,3.9-6.1,5.9C23.4,53.4,22.9,53.6,22.4,53.8z"/>
	<path class="st67" d="M26.4,55.2c2.4-2.5,4.7-4.9,7.1-7.4c0.4,0.4,0.8,0.8,1.1,1.1c-2.4,2.5-4.7,4.9-7.1,7.4
		C27.2,56,26.8,55.6,26.4,55.2z"/>
	<path class="st68" d="M33.6,62.5c2.4-2.5,4.7-4.9,7.1-7.4c0.4,0.4,0.8,0.8,1.1,1.1c-2.4,2.5-4.7,4.9-7.1,7.4
		C34.4,63.2,34,62.8,33.6,62.5z"/>
	<path class="st69" d="M44.1,58.5c-1.8,1.9-3.7,3.8-5.5,5.8c-0.5,0.5-1,1.2-1.5,1.7c-0.4-0.4-0.8-0.8-1.1-1.1
		c0.4-0.5,0.8-1.1,1.3-1.6c1.9-1.9,3.7-3.9,5.6-5.8C43.3,57.8,43.7,58.1,44.1,58.5z"/>
	<path class="st70" d="M39.8,68.6c1.8-1.9,3.7-3.8,5.5-5.8c0.5-0.5,1-1.1,1.5-1.7c0.4,0.4,0.8,0.8,1.1,1.1c-0.5,0.6-1,1.2-1.5,1.7
		c-1.8,1.9-3.7,3.9-5.5,5.8C40.6,69.4,40.2,69,39.8,68.6z"/>
	<path class="st71" d="M60.9,32.7c-0.4-0.3-1-0.5-1.1-0.8c-0.7-2.5-1.4-4.9-1.9-7.4c-0.1-0.5,0.2-1.1,0.3-1.6c0.5-0.1,1-0.3,1.5-0.4
		c-0.2,0.3-0.5,0.7-0.4,0.9c0.7,2.9,1.5,5.7,2.3,8.6c0.1,0.2,0.4,0.3,0.6,0.4C61.7,32.5,61.3,32.6,60.9,32.7z"/>
	<path class="st21" d="M72.3,8.4c2.7,9.9,5.3,19.7,8,29.6c-0.5-1.1-1.1-2.2-1.4-3.3c-2.4-8.7-4.7-17.4-7-26.1
		C72,8.5,72.1,8.4,72.3,8.4z"/>
	<path class="st72" d="M47.1,25.8c0.7,2.7,1.4,5.4,2.3,8.1c0.2,0.6,0.9,1,1.3,1.5c-0.8,0.2-1.6,0.5-2.5,0.7
		c-0.9-3.3-1.8-6.6-2.7-9.9C46.1,26.1,46.6,25.9,47.1,25.8z"/>
	<path class="st73" d="M72.3,63.6c-0.3-0.3-0.5-0.9-0.8-0.9c-2.6-0.8-5.2-1.5-7.8-2.1c-0.4-0.1-0.8,0.2-1.2,0.3
		c0.1-0.5,0.3-1,0.4-1.5c0.5-0.1,1.1-0.4,1.6-0.2c2.3,0.6,4.5,1.2,6.7,1.9c0.6,0.2,1,0.8,1.5,1.1C72.6,62.6,72.4,63.1,72.3,63.6z"/>
	<path class="st74" d="M45.3,36.9c-0.3-0.2-0.7-0.4-0.8-0.7c-0.8-2.7-1.5-5.4-2.2-8.1c-0.1-0.3,0.2-0.7,0.3-1.1
		c0.4-0.1,0.8-0.2,1.2-0.3c0.9,3.3,1.8,6.6,2.8,9.9C46.1,36.6,45.7,36.8,45.3,36.9z"/>
	<path class="st75" d="M63.6,56.7c0.4-0.1,0.9-0.3,1.2-0.3c2.7,0.7,5.3,1.4,7.9,2.2c0.3,0.1,0.5,0.5,0.7,0.7
		c-0.1,0.4-0.2,0.8-0.3,1.2c-3.3-0.9-6.6-1.8-9.9-2.8C63.3,57.4,63.5,57,63.6,56.7z"/>
	<path class="st76" d="M62.1,32.3c-0.2-0.1-0.5-0.3-0.6-0.4c-0.8-2.8-1.6-5.7-2.3-8.6c-0.1-0.3,0.3-0.6,0.4-0.9
		c0.4-0.1,0.8-0.2,1.1-0.3c0.3,1.5,0.5,3,0.8,4.5c0.3,1.6,0.7,3.2,1.2,4.7c0.1,0.3,0.5,0.4,0.8,0.6C63.1,32.1,62.6,32.2,62.1,32.3z"
		/>
	<path class="st77" d="M61.3,65.1c3.3,0.9,6.6,1.8,9.9,2.7c-0.1,0.5-0.3,1-0.4,1.5c-3.3-0.9-6.6-1.8-9.8-2.7
		C61,66.1,61.2,65.6,61.3,65.1z"/>
	<path class="st78" d="M52.2,35c-0.4-0.3-0.9-0.5-1.1-0.9c-0.7-2.5-1.4-5.1-2-7.7c-0.1-0.4,0.2-0.8,0.3-1.3c0.3,0,0.5-0.1,0.8-0.1
		c0.8,2.7,1.5,5.5,2.3,8.2c0.2,0.5,0.8,0.9,1.2,1.4C53.2,34.7,52.7,34.9,52.2,35z"/>
	<path class="st79" d="M42.3,37.7C41.7,36.8,41,36,40.7,35c-0.7-2.3-1.3-4.6-1.9-6.9c0.5-0.1,1-0.3,1.5-0.4c0.7,2.6,1.2,5.1,2,7.7
		c0.2,0.7,1,1.3,1.5,1.9C43.3,37.4,42.8,37.5,42.3,37.7z"/>
	<path class="st80" d="M77.7,43.5c-0.5-0.3-0.9-0.9-1.5-1c-2.8-0.8-5.5-1.5-8.3-2.2c0.1-1.6,0.7-1.7,2.1-1.1c1.9,0.8,4,1.4,6.1,1.8
		C78.5,41.4,78.5,41.2,77.7,43.5z"/>
	<path class="st81" d="M71.6,66.3c-3.3-0.9-6.6-1.9-9.9-2.8c0.1-0.4,0.2-0.8,0.3-1.1c1.1,0.2,2.3,0.2,3.4,0.5
		c2.2,0.6,4.4,1.2,6.5,1.9C71.9,65.2,71.7,65.8,71.6,66.3z"/>
	<path class="st82" d="M44.3,73.1c2.4-2.5,4.7-4.9,7.1-7.4c0.5,0.5,1,0.9,1.2,1.1c-2.2,2.5-4.3,4.9-6.6,7.1
		C45.9,74.1,44.9,73.4,44.3,73.1z"/>
	<path class="st83" d="M23.9,53.2c2-2,4.1-3.9,6.1-5.9c0.5-0.5,1.1-0.9,1.6-1.3c0.2,0.2,0.5,0.5,0.7,0.7c-1.8,1.9-3.7,3.8-5.5,5.8
		c-0.5,0.5-1,1.2-1.5,1.7C24.9,53.8,24.4,53.5,23.9,53.2z"/>
	<path class="st84" d="M73.8,57.9c-0.5-0.4-0.8-1-1.4-1.2c-2.7-0.8-5.5-1.6-8.3-2.4c0.1-0.2,0.1-0.5,0.2-0.7
		c0.4-0.1,0.9-0.3,1.2-0.2c2.4,0.6,4.8,1.3,7.2,2c0.5,0.2,1,0.6,1.5,1C74.1,56.9,74,57.4,73.8,57.9z"/>
	<path class="st85" d="M42.9,57.4c-1.9,1.9-3.8,3.9-5.6,5.8c-0.5,0.5-0.9,1.1-1.3,1.6c-0.4-0.4-0.8-0.8-1.2-1.2
		c2.4-2.5,4.7-4.9,7.1-7.4C42.2,56.6,42.6,57,42.9,57.4z"/>
	<path class="st86" d="M67.4,42.2c3.3,0.9,6.6,1.8,9.9,2.8c-0.1,0.5-0.3,1-0.4,1.5c-3.3-0.9-6.6-1.8-9.9-2.7
		C67.2,43.2,67.3,42.7,67.4,42.2z"/>
	<path class="st87" d="M65.4,32c-0.9-2.6-1.8-5.1-2.6-7.7c-0.3-0.9-0.3-1.8-0.4-2.7c0.1-0.5,0.2-1.1,0.4-1.6c1,3.3,1.9,6.6,2.9,10
		c0.2,0.8,0.1,1.6,0.2,2.4C65.6,32.3,65.5,32.1,65.4,32z"/>
	<path class="st88" d="M67,43.7c3.3,0.9,6.6,1.8,9.9,2.7c-0.1,0.5-0.3,1-0.4,1.5c-0.6-0.4-1.1-1-1.7-1.2c-2.2-0.7-4.4-1.2-6.6-1.7
		c-0.5-0.1-1.1,0.2-1.6,0.2C66.8,44.7,66.9,44.2,67,43.7z"/>
	<path class="st89" d="M74.2,56.4c-0.5-0.3-0.9-0.8-1.5-1c-2.4-0.7-4.8-1.4-7.2-2c-0.4-0.1-0.8,0.2-1.2,0.2c0.1-0.4,0.2-0.8,0.3-1.1
		c1.4,0.1,2.8,0.1,4.1,0.5c2,0.5,3.9,1.3,5.8,1.9C74.5,55.4,74.4,55.9,74.2,56.4z"/>
	<path class="st66" d="M71.3,71.1c-3.7-0.9-7.4-1.8-11.1-2.7c-0.4-0.1-0.7-0.2-1.1-0.4c0.4-0.1,0.9-0.2,1.3-0.3c2.7,0.7,5.4,1.3,8,2
		c0.8,0.2,1.6,0.7,2.4,1C71,70.9,71.2,71,71.3,71.1z"/>
	<path class="st90" d="M63.2,57.8c3.3,0.9,6.6,1.8,9.9,2.8c-0.1,0.5-0.3,1-0.4,1.5c-0.5-0.4-1-1-1.5-1.1c-2.2-0.7-4.5-1.3-6.7-1.9
		c-0.5-0.1-1.1,0.1-1.6,0.2C63,58.8,63.1,58.3,63.2,57.8z"/>
	<path class="st45" d="M46.5,36.5c-0.9-3.3-1.8-6.6-2.8-9.9c0.5-0.1,1-0.3,1.5-0.4c-0.1,0.4-0.4,0.9-0.3,1.3c0.6,2.6,1.3,5.1,2,7.7
		c0.1,0.4,0.7,0.6,1,0.9C47.5,36.3,47,36.4,46.5,36.5z"/>
	<path class="st91" d="M70.9,70.7c-0.8-0.4-1.5-0.8-2.4-1c-2.7-0.7-5.4-1.3-8-2c0.1-0.4,0.3-0.8,0.4-1.1c3.3,0.9,6.6,1.8,9.8,2.7
		C70.8,69.7,70.8,70.2,70.9,70.7z"/>
	<path class="st92" d="M48,36.1c-0.4-0.3-0.9-0.6-1-0.9c-0.7-2.5-1.4-5.1-2-7.7c-0.1-0.4,0.2-0.8,0.3-1.3c0.1,0,0.3,0,0.4-0.1
		c0.9,3.3,1.8,6.6,2.7,9.9c0,0-0.1,0.1-0.1,0.1L48,36.1z"/>
	<path class="st93" d="M41,69.8c1.8-1.9,3.7-3.8,5.5-5.8c0.5-0.5,1-1.1,1.5-1.7c0.3,0.3,0.5,0.5,0.8,0.8c-1.8,1.9-3.7,3.8-5.5,5.8
		c-0.5,0.5-1,1.2-1.5,1.7C41.5,70.3,41.2,70,41,69.8z"/>
	<path class="st94" d="M27.5,56.4c2.4-2.5,4.7-4.9,7.1-7.4c0.3,0.3,0.5,0.5,0.8,0.8c-0.6,0.8-1.1,1.7-1.8,2.3
		c-1.7,1.7-3.5,3.4-5.3,5.1C28.1,56.9,27.8,56.6,27.5,56.4z"/>
	<path class="st95" d="M5.3,49c0.1,0.1,0.2,0.3,0.4,0.4c0,0.5-0.1,1-0.1,1.5C5.5,50.3,5.4,49.7,5.3,49z"/>
	<path class="st7" d="M74.7,91.8c-9.4-2.5-18.8-5.1-28.2-7.6c-0.1-0.8,0-1.2,1-0.9c4,1.1,8,2.1,12.1,3.2c5.3,1.4,10.6,2.8,15.9,4.2
		C75.2,91,74.9,91.4,74.7,91.8z"/>
	<path class="st96" d="M11.7,24.6c-1.1,1.3-2.1,2.7-3.3,3.9c-1.7,1.7-3.6,3.3-5.4,4.9C4.5,29.1,7.4,26.2,11.7,24.6z"/>
	<path class="st96" d="M53.6,96.4c0.6-0.1,1.2-0.3,1.7-0.2c2.3,0.7,4.6,1.5,7,2.3c0.5,0.2,1.1,0.1,1.7,0.1
		C60.1,99.5,56.7,98.6,53.6,96.4z"/>
	<path class="st97" d="M72.3,94.8c-0.6-0.3-1.3-0.5-1.9-0.8c0.7,0.1,1.5,0.3,2.2,0.4C72.5,94.5,72.4,94.6,72.3,94.8z"/>
	<path class="st96" d="M93.3,25.1c-0.7-2.4-1.5-4.8-2.1-7.3c-0.3-1.3-0.4-2.6-0.6-3.9C93.1,17.3,94.2,20.9,93.3,25.1z"/>
	<path class="st4" d="M79.9,7.5c-0.4,0-0.8,0-1.2,0c-0.4,0-0.8,0-1.1,0c-0.4,0-0.8,0-1.1,0c-0.3,0-0.5,0-0.8,0
		C77.1,7.5,78.5,7.5,79.9,7.5z"/>
	<path class="st98" d="M83.7,16.3c0.5,1.9,1,3.8,1.5,5.7C84.7,20.1,84.2,18.2,83.7,16.3z"/>
	<path class="st98" d="M86.8,27.7c0.4,1.4,0.8,2.8,1.1,4.2C87.5,30.5,87.1,29.1,86.8,27.7z"/>
	<path class="st98" d="M85.2,22c0.4,1.4,0.8,2.8,1.1,4.2C86,24.8,85.6,23.4,85.2,22z"/>
	<path class="st98" d="M87.9,31.9c0.2,0.6,0.5,1.2,0.7,1.9C88.4,33.1,88.2,32.5,87.9,31.9z"/>
</g>
</svg>
