<?xml version="1.0" encoding="utf-8"?>
<!-- Generator: Adobe Illustrator 27.0.0, SVG Export Plug-In . SVG Version: 6.00 Build 0)  -->
<svg version="1.1" id="Layer_1" xmlns="http://www.w3.org/2000/svg" xmlns:xlink="http://www.w3.org/1999/xlink" x="0px" y="0px"
	 viewBox="0 0 100 100" style="enable-background:new 0 0 100 100;" xml:space="preserve">
<style type="text/css">
	.st0{fill-rule:evenodd;clip-rule:evenodd;fill:#231F20;}
</style>
<g id="surface1">
	<path class="st0" d="M33.1,37.6h13l3.9-12.5l4.2,12.3h12.8l-10.6,7.6l4.2,12.5l-10.5-7.7l-10.6,7.6l4-12.3
		C43.6,45.1,33.2,37.6,33.1,37.6"/>
	<path class="st0" d="M53.6,74.6h2.1v-8.4l2.9,8.4h2.1V61.1h-2.1v7.8L55.8,61h-2.2C53.6,61,53.6,74.6,53.6,74.6z M65,69.6h1.9
		L66,63.9L65,69.6z M62,74.6h2.3l0.4-3h2.6l0.4,3.1H70l-2.5-13.6h-3L62,74.6z M71.8,74.6V63.1h-2.3v-2h6.8v2h-2.3v11.6H71.8z
		 M77.9,74.6V61.1h2.3v13.6H77.9z M85.1,60.8h0.7c1.8,0,3.2,1.5,3.2,3.2v7.5c0,1.8-1.5,3.2-3.2,3.2h-0.7c-1.8,0-3.2-1.5-3.2-3.2
		v-7.5C81.8,62.3,83.3,60.8,85.1,60.8z M85.3,63h0.3c0.6,0,1.1,0.5,1.1,1.1v7.6c0,0.6-0.5,1.1-1.1,1.1h-0.3c-0.6,0-1.1-0.5-1.1-1.1
		v-7.6C84.2,63.5,84.7,63,85.3,63z M90.6,74.6h2.1v-8.4l2.9,8.4h2.1V61.1h-2.1v7.8L92.7,61h-2.1C90.5,61,90.5,74.6,90.6,74.6z
		 M48,72.6H47v-4c0-0.2,0.1-0.1,0.3-0.1c1.7,0,2.3,0.4,2.3,2.2C49.6,71.8,49.2,72.6,48,72.6z M47.8,66.6H47V63h1
		c1.2,0,1.3,1.1,1.3,2C49.3,65.9,48.7,66.6,47.8,66.6z M44.7,74.6c1.2,0,3.7,0.1,4.7-0.1c0.4-0.1,0.9-0.3,1.3-0.5
		c0.6-0.4,0.9-0.9,1.1-1.6c0.4-1.2,0.4-3.2-0.5-4.2L51.1,68c-0.2-0.1-0.5-0.4-0.7-0.5v-0.1c0.2,0,0.2-0.1,0.4-0.2
		c0.1-0.1,0.2-0.1,0.3-0.2c1-0.9,1-2.8,0.6-4.1c-0.5-1.4-1.9-1.9-3.4-1.9h-3.5V74.6z M5.8,67.1H4.6V63c1,0,1.6-0.1,2.2,0.5
		c0.4,0.5,0.6,2.9-0.4,3.4C6.3,67,5.9,67.1,5.8,67.1z M2.3,74.6c2.7,0,2.3,0.2,2.3-0.6v-5C5,69.1,5.3,69,5.7,69l0.4,1.4
		c0,0.1,0.1,0.2,0.1,0.3l0.3,1.1c0.1,0.5,0.3,0.9,0.4,1.4l0.4,1.4h2c0.3,0,0.5,0.1,0.4-0.1L9.3,73c-0.1-0.2-0.1-0.4-0.2-0.5l-1.3-4
		c0.4-0.2,0.8-0.5,1-1c0.9-1.5,0.9-5-1-6C7.1,61.1,6.3,61,5.3,61H2.3V74.6z M24,74.6c0.6-2.9,1.1-5.9,1.7-8.9c0-0.2,0.1-0.3,0.1-0.4
		c0.1-0.7,0.9-3.9,0.9-4.3h-2.3c-0.1,0.1-0.1,0.3-0.1,0.5l-0.4,2.3c0,0.2-0.1,0.4-0.1,0.6c-0.1,0.9-1,5.4-1,5.8l-1.6-8.6
		c0-0.2-0.1-0.4-0.1-0.6h-2.4l1.4,6.8c0.1,0.3,0.1,0.7,0.2,1c0.1,0.7,0.3,1.3,0.4,1.9l0.7,3.9H24z M10.9,74.5c0,0.1,0,0.1,0.1,0.1
		h6.2v-2.1h-3.8c-0.1,0-0.1,0-0.1-0.1v-3.6c0-0.2,0.4-0.1,0.7-0.1h2.1c0.1,0,0.2,0,0.3,0v-2.1H14c-0.2,0-0.7,0.1-0.7-0.1v-3.1
		c0-0.2,0.4-0.1,0.9-0.1h2.9c0,0,0.1,0,0.1,0V61h-6.3V74.5z M28.2,74.5c0,0.1,0,0.1,0.1,0.1h6.2v-2.1h-3.8c-0.1,0-0.1,0-0.1-0.1
		v-3.6c0-0.2,0.4-0.1,0.7-0.1h2.1c0.1,0,0.2,0,0.3,0v-2.1h-2.4c-0.2,0-0.7,0.1-0.7-0.1v-3.1c0-0.2,0.4-0.1,0.9-0.1h2.9
		c0,0,0.1,0,0.1,0V61h-6.3V74.5z M39.5,67.1h-1.2V63c1,0,1.6-0.1,2.2,0.5c0.4,0.5,0.6,2.9-0.4,3.4C40,67,39.6,67.1,39.5,67.1z
		 M36,74.6c2.7,0,2.3,0.2,2.3-0.6v-5c0.4,0,0.7-0.1,1.1-0.1l0.4,1.4c0,0.1,0.1,0.2,0.1,0.3l0.3,1.1c0.1,0.5,0.3,0.9,0.4,1.4l0.4,1.4
		h2c0.3,0,0.5,0.1,0.4-0.1L43,73c-0.1-0.2-0.1-0.4-0.2-0.5l-1.3-4c0.4-0.2,0.8-0.5,1-1c0.9-1.5,0.9-5-1-6C40.8,61.1,40,61,39,61H36
		V74.6"/>
</g>
</svg>
