<?xml version="1.0" encoding="utf-8"?>
<!-- Generator: Adobe Illustrator 27.0.0, SVG Export Plug-In . SVG Version: 6.00 Build 0)  -->
<svg version="1.1" id="Layer_1" xmlns="http://www.w3.org/2000/svg" xmlns:xlink="http://www.w3.org/1999/xlink" x="0px" y="0px"
	 viewBox="0 0 100 100" style="enable-background:new 0 0 100 100;" xml:space="preserve">
<style type="text/css">
	.st0{fill-rule:evenodd;clip-rule:evenodd;fill:#FA320A;}
</style>
<g id="layer1" transform="translate(-14.999447,-87.294912)">
	<path id="Fill-78" class="st0" d="M91.8,144.1c0.8,3.3-1.6,6.1-4.7,6.9c-3.1,0.8-6.6-0.6-7.4-3.9c-0.6-2.3,0.3-4.3,1.9-5.5
		c0.2-0.1,0.3-0.2,0.5-0.3c-0.8,0.1-1.3,0-1.8,0.2c-0.1,0-0.1,0-0.1-0.1c0.5-1,1.7-1.5,2.6-1.2c-0.6-0.5-1-0.9-1-0.9l0.8-0.7
		c0,0,0.5,0.8,0.9,1.3c0.5-1.1,1.7-1.4,2.3-0.8c0,0,0,0.1,0,0.1c-0.4,0.1-0.6,0.5-0.5,0.8l0.4,0C88.5,139.6,91,141.1,91.8,144.1
		L91.8,144.1z M44.9,132.1c-0.6-0.2-0.9-0.7-0.7-1.3c0.2-0.4,0.8-0.6,1.2-0.4c0.5,0.2,0.6,0.8,0.9,1c0.2,0.2,0.6,0.2,0.8,0.1
		c0.2-0.1,0.2-0.3,0.2-0.5c-0.1-0.3-0.3-0.4-0.5-0.6c-0.4-0.3-0.9-0.6-0.6-1.4c0.3-0.7,1-0.7,1-0.7c0.3,0,0.6,0.1,0.8,0.3
		c0.3,0.3,0.3,0.6,0.3,1c0,0.3-0.2,0.6-0.2,1c-0.1,0.4,0.1,0.8,0.5,0.8c0.5,0,0.7-0.4,0.7-0.6c0.1-0.4,0.2-0.7,0.6-0.9
		c0.5-0.3,1.2-0.2,1.5,0.4c0.3,0.5,0.2,1.1-0.2,1.5c-0.2,0.2-0.4,0.2-0.6,0.2c-0.3,0-0.6,0-0.9,0.1c-0.2,0.1-0.3,0.3-0.3,0.5
		c0,0.2,0.1,0.4,0.3,0.5c0.3,0.2,0.7,0.2,1.1,0.3c0.5,0.1,1,0.3,1.3,0.8l0,0c0.4,0.6,0,1.5-0.7,1.5c-1.5,0.1-1.9-1.7-2.5-1.7
		c-0.3,0-0.5,0.3-0.4,0.6c0.1,0.2,0.2,0.4,0.3,0.6c0.3,0.6-0.1,1.2-0.7,1.2c-0.9,0.1-1.2-0.4-1.2-0.9c0-0.6,0.5-1.2,0-1.4
		c-0.5-0.3-1,0.8-1.5,1c-0.5,0.2-1.1,0-1.3-0.5c-0.2-0.4-0.1-1,0.6-1.3c0.4-0.2,1.4,0.2,1.5-0.3C46.3,132.3,45.2,132.3,44.9,132.1
		L44.9,132.1z M48.1,138.2c3.4,0,6.1-2,6.1-5.8c0-3.1-1.8-5.1-4.3-5.6c-1.5-0.3-2.5-0.2-3.8,0.1c-2.4,0.6-4.2,2.5-4.2,5.6
		C41.9,136.2,44.7,138.2,48.1,138.2L48.1,138.2z M114,147.1c0,1.2-0.5,2.2-1.4,3c-0.9,0.7-2.1,1.1-3.5,1.1c-1.9,0-3.4-0.4-4.7-1.3
		l-0.3-0.2l1.8-2.9c2,1.3,3.1,1.1,3.5,1.1c0.9-0.1,1-1,0.2-1c-0.6,0-1.7,0.1-3.3-0.6c-1.1-0.7-1.9-1.5-1.9-2.8
		c0-1.2,0.5-2.1,1.4-2.8c0.9-0.7,1.8-1.1,3.1-1.1c1.7-0.1,2.9,0.3,4.4,1.1l0.3,0.2l-1.6,2.6c-1.8-0.7-2.7-0.9-3.3-0.8
		c-0.7,0.1-0.6,0.9-0.1,0.9c0.6,0.1,1.4-0.2,3.1,0.4C113.1,144.6,114,145.6,114,147.1L114,147.1z M87.2,137.9h-4.4v-11.1h4.4v1.3
		c0.3-0.7,1.6-1.6,2.9-1.6c2.6,0,4.1,1.8,4.1,5v6.4h-4.4v-6c0-0.9-0.4-1.4-1.2-1.4c-0.8,0-1.3,0.3-1.3,2.1L87.2,137.9z M65.4,146.6
		c-0.3,0.4-0.8,0.6-1.4,0.6c-0.9,0-1.8-0.6-1.8-1.8c0-0.5,0.2-0.9,0.5-1.3c0.3-0.4,0.8-0.6,1.4-0.6c0.9,0,1.8,0.6,1.8,1.8
		C65.8,145.8,65.7,146.3,65.4,146.6L65.4,146.6z M65.9,141.1l-0.3-0.3c-0.8-0.8-1.7-1.3-2.8-1.3c-0.7,0-1.5,0.2-2.3,0.7
		c-1.7,1-2.6,2.9-2.6,5.2c0,2.3,1,4.2,2.6,5.2c0.7,0.4,1.5,0.7,2.3,0.7c1.1,0,2-0.4,2.8-1.3l0.3-0.3v1.2h4.3v-11.1h-4.3L65.9,141.1z
		 M55.8,130.6h-1.1v-3.8h1.1v-3h4.4v3h1.7v3.8h-1.7v2.8c0,0.5,0.2,0.8,0.8,0.8h1.4v3.8l-0.3,0c-0.4,0-1,0-1.7,0
		c-2.9,0-4.6-1.5-4.6-4.3L55.8,130.6z M69.1,134.2h1.4v3.8l-0.3,0c-0.4,0-1,0-1.7,0c-2.9,0-4.6-1.5-4.6-4.3v-3.1h-1.1v-3.8h1.1v-3
		h4.4v3H70v3.8h-1.7v2.8C68.3,134,68.5,134.2,69.1,134.2L69.1,134.2z M27.9,140.5h-3.8v10.4h-4.3v-10.4H16v-4.2h11.8L27.9,140.5z
		 M77.3,147.2h1.4v3.8l-0.3,0c-0.4,0-1,0-1.7,0c-2.9,0-4.6-1.5-4.6-4.3v-3.1H71v-3.8h1.1v-3h4.4v3h1.7v3.8h-1.7v2.8
		C76.6,146.9,76.8,147.2,77.3,147.2L77.3,147.2z M57.2,144.5v6.4h-4.5v-6c0-0.9-0.4-1.4-1.2-1.4c-0.8,0-1,0.5-1,0.7
		c-0.1,0.5-0.2,0.8-0.2,1.4v5.4H46v-6c0-0.9-0.4-1.4-1.2-1.4c-0.5,0-0.8,0.2-0.9,0.4c-0.1,0.1-0.1,0.4-0.2,0.5
		c-0.1,0.5-0.1,0.6-0.1,1.1v5.4h-4.3v-11.1h4.2l0,1c0.3-0.6,1.4-1.3,3.1-1.3c1.3,0,2.4,0.5,3,1.3l0.1,0.2l0.1-0.1
		c0.8-0.9,1.7-1.3,3.1-1.3C54.2,139.5,57.2,140,57.2,144.5L57.2,144.5z M32.5,147.1c-1.1,0-2-0.8-2-1.9c0-1.1,1-1.9,2-1.9
		c1.1,0,2,0.8,2,1.9C34.5,146.3,33.6,147.1,32.5,147.1z M34.3,139.7c-1.5-0.3-2.3-0.2-3.6,0.1c-2.4,0.6-4.2,2.5-4.2,5.6
		c0,3.8,2.9,5.8,6.2,5.8c3.2,0,6-2,6-5.8C38.6,142.2,36.8,140.3,34.3,139.7L34.3,139.7z M34,126.7h1.3c1.2,0,2,0.6,2,1.5
		c0,1-0.7,1.6-2,1.6H34V126.7z M34,133.2h0.7l2.8,4.7h5l-3.1-5.2l0.1-0.1c1.5-0.9,2.2-2.3,2.2-4.2c0-3.3-2.2-5.1-6.1-5.1h-6.1v14.6
		H34L34,133.2z M96.3,144.1c0.2-0.8,0.8-1.4,1.8-1.4c1,0,1.6,0.6,1.7,1.4H96.3z M98.2,139.5c-1.7,0-3.1,0.5-4.1,1.7
		c-1.1,1.1-1.6,2.5-1.6,4.3c0,1.8,0.6,3.2,1.7,4.2c1.1,1,2.6,1.5,4.3,1.5c1.7,0,3.6-0.3,5.1-1.9l-2.7-2.5c-0.6,0.7-1.4,0.9-2.4,0.9
		c-0.9,0-1.9-0.5-2.1-1.4h7.4l0-1c0-1.6-0.5-2.9-1.4-4.1C101.3,140.1,100,139.5,98.2,139.5L98.2,139.5z M76.5,127.2
		c1,0,1.6,0.6,1.7,1.4h-3.5C74.9,127.8,75.5,127.2,76.5,127.2z M76.8,135.7c1.7,0,3.6-0.3,5.1-1.9l-2.7-2.5
		c-0.6,0.7-1.4,0.9-2.4,0.9c-0.9,0-1.9-0.5-2.1-1.4H82l0-1c0-1.6-0.5-2.9-1.4-4.1c-1-1.1-2.3-1.7-4.1-1.7c-1.7,0-3.1,0.5-4.1,1.7
		c-1.1,1.1-1.6,2.5-1.6,4.3c0,1.8,0.6,3.2,1.7,4.2C73.7,135.2,75.1,135.7,76.8,135.7L76.8,135.7z"/>
</g>
</svg>
