<?xml version="1.0" encoding="utf-8"?>
<!-- Generator: Adobe Illustrator 27.0.0, SVG Export Plug-In . SVG Version: 6.00 Build 0)  -->
<svg version="1.1" id="Layer_1" xmlns="http://www.w3.org/2000/svg" xmlns:xlink="http://www.w3.org/1999/xlink" x="0px" y="0px"
	 viewBox="0 0 100 100" style="enable-background:new 0 0 100 100;" xml:space="preserve">
<style type="text/css">
	.st0{fill:#699C39;}
	.st1{fill-rule:evenodd;clip-rule:evenodd;fill:#699C39;}
</style>
<g>
	<path id="path7" class="st0" d="M26,90c1,1.4,2.1,2.3,3.5,3.1C36.3,97,48,93.3,65.6,83l0,0c17.9-10.3,26.8-18.5,27-26.2
		c0-1.2-0.2-2.1-0.6-3.3C80.8,68.8,43.1,87.8,26,90 M27.6,8.4c15.3,2.7,54,24.1,64.5,38.3c0.4-1,0.4-2.1,0.6-3.1
		c0-7.8-8.7-16.1-26.8-26.4l0,0C48.2,7,36.7,3.1,29.7,7C28.9,7.4,28.3,7.8,27.6,8.4z M15.3,9.7c2.3-1.4,5.2-1.9,8.4-1.7
		c1.4-1.7,2.7-2.9,4.5-3.9c8-4.5,20.6-0.6,39.2,10.3l0,0c19,11.1,28.6,20,28.6,29.3c0,2.1-0.6,4.3-1.6,6.4c1.2,2.1,1.6,4.5,1.6,6.6
		c0,9.1-9.7,18.1-28.6,28.9l0,0c-18.8,10.9-31.3,14.8-39.4,10.1c-2.1-1.2-4.1-3.1-5.6-5.6c-2.7,0-5.1-0.8-7.2-1.9
		C7.2,83.7,4.1,71.1,4.1,49S7.4,14.2,15.3,9.7z M21.7,11.1c-1.7,0.2-3.5,0.6-4.9,1.4C10.1,16.3,7.4,28,7.4,49
		c0,20.8,2.5,32.6,9.5,36.5c1.2,0.6,2.5,1.2,4.1,1.4C13.6,72.1,13.6,25.1,21.7,11.1z M29.7,20c-13.2,7.4-13.2,52.5-0.2,59.8
		c13.6,7.8,50.3-19,50.3-30.7C80,34,42.5,12.8,29.7,20z"/>
	<path id="path9" class="st1" d="M54.8,52.5c-1.7,1-3.7,2.1-5.4,3.1s-3.7,2.1-5.4,3.1c-5.6,3.3-5.4,3.5-5.4-3.1c0-2.1,0-4.1,0-6.2
		c0-2.1,0-4.1,0-6.2c0-6.4-0.4-6.4,5.4-3.1c1.7,1,3.7,2.1,5.4,3.1s3.7,2.1,5.4,3.1C60.4,49.6,60.4,49.4,54.8,52.5"/>
</g>
</svg>
