<?xml version="1.0" encoding="utf-8"?>
<!-- Generator: Adobe Illustrator 27.0.0, SVG Export Plug-In . SVG Version: 6.00 Build 0)  -->
<svg version="1.1" id="Layer_1" xmlns="http://www.w3.org/2000/svg" xmlns:xlink="http://www.w3.org/1999/xlink" x="0px" y="0px"
	 viewBox="0 0 100 100" style="enable-background:new 0 0 100 100;" xml:space="preserve">
<style type="text/css">
	.st0{fill:#00858E;}
</style>
<g>
	<g id="_x32_90-scribd">
		<g>
			<g>
				<path class="st0" d="M18.8,49.3c-3.4-4-5.2-9.6-5.2-16.7c0-20.9,15.7-31.9,34.9-31.9C69,0.4,81.1,10.9,86.9,15.5l-10.5,15
					l-7.8-5.1l5.6-8c-7.6-5-16.6-7.6-25.6-7.5C38,9.7,25.2,15.5,25.2,25.7c0,3.9,2.3,4.3,6,3.3c4.9-1.1,8.7,0.1,11.6,2.9
					c5.5,5.1,4.8,14.1-0.1,19.2C36.6,57.2,24.9,56.8,18.8,49.3L18.8,49.3z M85,50.5c-3.2-3.9-8.1-6.1-13.2-6
					c-7.9-0.4-14.8,5.8-14.7,14c-0.1,3.5,1.3,6.9,3.8,9.2c2.9,2.9,6.9,4.1,11.7,3c3.6-1.1,6-0.6,6,3.3c0,0.9-0.1,1.8-0.3,2.6
					C74.9,85.3,66,90.2,53.1,90.2c-10.8,0-21.4-3.4-30-9.9l7-8.2l-7.4-5.7l-12.7,15l3.2,2.9C24.1,94,38.3,99.3,52.9,99.3
					c10.7,0,19.7-2.2,27.9-9.2C92.7,79.4,92.1,59,85,50.5L85,50.5z"/>
			</g>
		</g>
	</g>
	<g id="Layer_1_00000165953423676931993160000009241962526942415243_">
	</g>
</g>
</svg>
