<?xml version="1.0" encoding="utf-8"?>
<!-- Generator: Adobe Illustrator 27.5.0, SVG Export Plug-In . SVG Version: 6.00 Build 0)  -->
<svg version="1.1" id="Layer_1" xmlns="http://www.w3.org/2000/svg" xmlns:xlink="http://www.w3.org/1999/xlink" x="0px" y="0px"
	 viewBox="0 0 100 100" style="enable-background:new 0 0 100 100;" xml:space="preserve">
<style type="text/css">
	.st0{fill:#F9F9F9;}
	.st1{fill:#59D309;}
</style>
<path class="st0" d="M86.9,100H13.1C5.9,100,0,94.1,0,86.9V13.1C0,5.9,5.9,0,13.1,0h73.9C94.1,0,100,5.9,100,13.1v73.9
	C100,94.1,94.1,100,86.9,100z"/>
<g>
	<path class="st1" d="M50,55.9c-10.5,0-21,0-31.5,0c-2.4,0-3.8-1.4-3.8-3.8c0-4.1,0-8.2,0-12.3c0-2.4,1.3-3.8,3.8-3.8
		c21,0,41.9,0,62.9,0c2.5,0,3.8,1.4,3.8,3.8c0,4.1,0,8.1,0,12.2c0,2.5-1.4,3.8-3.8,3.8C70.9,55.9,60.5,55.9,50,55.9z M36,48.1
		c0,0-0.1,0-0.1,0c-0.2-0.7-0.4-1.5-0.6-2.2c-0.4-1.5-0.8-3.1-1.3-4.6c-0.2-0.8-0.7-1.2-1.4-1.2c-0.8,0-1.2,0.4-1.5,1.2
		c-0.1,0.3-0.2,0.7-0.3,1c-0.5,1.9-1,3.9-1.6,6c-0.1-0.6-0.3-1.1-0.3-1.5c-0.4-1.9-0.9-3.8-1.3-5.7c-0.1-0.6-0.4-1-1.1-1
		c-0.8,0-1.3,0.6-1.1,1.5c0.4,1.8,0.8,3.5,1.3,5.2c0.3,1.4,0.7,2.7,1,4.1c0.2,0.6,0.6,1.1,1.3,1.1c0.7,0,1.2-0.4,1.4-1.1
		c0.1-0.4,0.3-0.8,0.4-1.3c0.6-2.1,1.1-4.2,1.7-6.3c0.2,0.3,0.3,0.5,0.4,0.8c0.6,2.1,1.2,4.3,1.8,6.4c0.3,1,0.7,1.4,1.5,1.4
		c0.7,0,1.2-0.4,1.4-1.4c0.7-2.9,1.5-5.9,2.2-8.8c0.1-0.3,0.1-0.7,0-0.9c-0.2-0.3-0.5-0.7-0.8-0.8c-0.3-0.1-0.7,0-0.9,0.2
		c-0.2,0.2-0.4,0.6-0.4,0.9c-0.4,1.9-0.9,3.8-1.3,5.7C36.1,47.4,36,47.7,36,48.1z M46.6,48.1c0,0-0.1,0-0.1,0
		c-0.2-0.9-0.4-1.7-0.6-2.6c-0.4-1.5-0.7-3.1-1.1-4.6c-0.2-0.8-1-1.1-1.7-0.7c-0.5,0.3-0.5,0.8-0.4,1.3c0.8,3,1.5,6.1,2.3,9.1
		c0.2,0.9,0.7,1.2,1.4,1.2c0.7,0,1.2-0.4,1.4-1.2c0.6-2.2,1.2-4.5,1.9-6.7c0.1-0.2,0.1-0.5,0.3-0.9c0.2,0.8,0.4,1.4,0.5,2
		c0.5,1.9,1,3.8,1.6,5.7c0.3,1,0.9,1.3,1.8,1.1c0.6-0.2,0.9-0.7,1-1.2c0.7-2.9,1.5-5.8,2.2-8.7c0.2-1,0-1.7-0.7-1.8
		c-0.7-0.2-1.2,0.2-1.4,1.3c-0.5,2.1-0.9,4.2-1.4,6.2c0,0.1-0.1,0.3-0.2,0.5c-0.7-2.4-1.2-4.6-1.9-6.8C51.2,40.4,50.7,40,50,40
		c-0.8,0-1.2,0.4-1.5,1.3c-0.3,1.2-0.7,2.4-1,3.7C47.2,46,46.9,47,46.6,48.1z M70.9,48.2c-0.1-0.4-0.2-0.5-0.2-0.7
		c-0.6-2.1-1.2-4.3-1.8-6.4c-0.3-1-1.3-1.5-2.1-0.9c-0.4,0.3-0.7,0.8-0.8,1.2c-0.6,1.9-1.1,3.9-1.6,5.8c-0.1,0.3-0.2,0.5-0.2,0.8
		c-0.3-0.9-0.5-1.8-0.7-2.7c-0.3-1.4-0.6-2.8-1-4.2c-0.2-0.8-0.7-1.1-1.3-1c-0.6,0.1-0.9,0.6-0.8,1.5c0,0,0,0.1,0,0.1
		c0.8,3,1.5,6,2.3,9c0.2,0.8,0.7,1.2,1.4,1.2c0.7,0,1.2-0.3,1.4-1.2c0.4-1.5,0.8-3,1.3-4.5c0.3-1,0.5-2,0.9-3.1
		c0.1,0.4,0.2,0.6,0.2,0.9c0.6,2.3,1.2,4.5,1.9,6.8c0.2,0.7,0.6,1.2,1.3,1.2c0.8,0,1.2-0.3,1.5-1.2c0.8-2.9,1.5-5.8,2.2-8.8
		c0.1-0.3,0.2-0.8,0-1c-0.2-0.3-0.5-0.7-0.9-0.8c-0.3-0.1-0.8,0.2-1,0.5c-0.2,0.3-0.3,0.7-0.3,1C71.9,43.8,71.4,45.9,70.9,48.2z"/>
	<path class="st1" d="M49.9,85.2c-7.6-0.1-13.8-6.3-13.7-13.9c0.1-7.6,6.3-13.7,13.9-13.6c7.6,0.1,13.7,6.3,13.6,13.8
		C63.6,79.1,57.4,85.3,49.9,85.2z M44.9,69.6c-2,0.2-2.2,0.4-2.2,2.4c0,1.9,0,3.7,0,5.6c0,1.4,0.5,1.9,1.8,1.9c3.6,0,7.2,0,10.8,0
		c1.4,0,1.9-0.5,1.9-1.9c0-2,0-3.9,0-5.9c0-1.7-0.3-2-2-2.1c0,0-0.1,0-0.2-0.1c0-0.5,0-1,0-1.6c0-0.5,0-1-0.1-1.5
		c-0.6-2.5-2.9-4.2-5.4-4c-2.6,0.3-4.5,2.3-4.6,4.9C44.9,68.1,44.9,68.8,44.9,69.6z"/>
	<path d="M21.3,33.8c4.1-10.1,14.6-19,28.6-19c14.1,0,24.5,8.9,28.7,19c-0.8,0-1.5,0-2.2,0c-0.1,0-0.3-0.2-0.4-0.4
		c-0.4-0.7-0.7-1.7-1.3-2.1c-0.6-0.4-1.6-0.1-2.5-0.1c-2.2,0-4.5,0-6.8,0c0.2,0.9,0.4,1.7,0.7,2.6c-0.7,0-1.4,0-2,0
		c-0.2,0-0.4-0.3-0.4-0.4c-0.2-0.6-0.3-1.2-0.5-1.7c-0.1-0.2-0.3-0.4-0.5-0.4c-3.8,0-7.7,0-11.6,0c0,0.9,0,1.7,0,2.6
		c-0.8,0-1.5,0-2.3,0c0-0.8,0-1.7,0-2.6c-0.3,0-0.5,0-0.7,0c-3.5,0-7.1,0-10.6,0c-0.6,0-0.8,0.2-0.9,0.7c0,0.1-0.1,0.2-0.1,0.3
		c-0.5,1.8-0.7,1.9-2.7,1.5c0.2-0.8,0.4-1.7,0.6-2.5c-1.6,0-3.1,0-4.6,0c-1.4,0-2.9,0-4.3,0c-0.4,0-0.6,0.1-0.8,0.5
		c-0.3,0.6-0.6,1.2-0.9,1.7c-0.1,0.2-0.3,0.4-0.5,0.4C22.8,33.8,22.1,33.8,21.3,33.8z M51.2,17.1c0,4,0,7.9,0,11.7
		c3.7,0,7.4,0,11.1,0c-1.6-3.8-3.5-7.3-6.8-9.8C54.2,18.1,52.8,17.4,51.2,17.1z M48.8,28.9c0-3.9,0-7.8,0-11.7
		c-4.9,0.6-9.4,6.7-11,11.7C41.5,28.9,45.1,28.9,48.8,28.9z M73.3,28.9c-2-4-10.2-9.7-14.9-10.6c0.9,1.2,2.1,2.3,2.9,3.7
		c1.2,2,2.2,4.2,3.3,6.3c0.1,0.2,0.4,0.6,0.6,0.6C67.8,28.9,70.5,28.9,73.3,28.9z M41.7,18.3c-6.2,1.8-11.2,5.3-15.1,10.6
		c2.9,0,5.6,0,8.2,0c0.2,0,0.5-0.2,0.6-0.4C36.9,24.7,38.8,21.2,41.7,18.3z"/>
	<path d="M64.3,64.2c-0.9-1.2-1.6-2.3-2.3-3.4c0,0,0-0.1,0.1-0.1c1,0.2,1.2-0.4,1.4-1.2c0.4-1.5,0.4-1.5,1.9-1.5c0.2,0,0.4,0,0.7,0
		c-0.2,0.9-0.4,1.7-0.7,2.6c1.1,0,2.2,0,3.2,0c1.9,0,3.7,0,5.6,0c0.3,0,0.6-0.2,0.8-0.4c0.4-0.6,0.6-1.2,1-1.8
		c0.1-0.2,0.4-0.4,0.6-0.4c0.7,0,1.3,0,2,0c-1.1,4.4-8.3,12.6-12.6,14.5c0-0.8-0.1-1.5-0.1-2.3c0-0.2,0.3-0.4,0.5-0.6
		c2.5-1.7,4.7-3.8,6.5-6.2c0.1-0.1,0.2-0.2,0.3-0.5c-0.4,0-0.6,0-0.8,0c-2.2,0-4.4,0-6.6,0C65.1,63,64.3,63,64.3,64.2z"/>
	<path d="M35.7,64.2c-0.1-1.3-0.9-1.2-1.8-1.1c-2.1,0-4.2,0-6.3,0c-0.3,0-0.5,0-0.9,0c0.2,0.2,0.2,0.4,0.3,0.5
		c1.8,2.4,4,4.5,6.5,6.2c0.4,0.3,0.6,0.5,0.5,1c-0.1,0.6,0,1.2,0,2c-5.8-3.6-10-8.4-12.8-14.6c0.8,0,1.5,0,2.1,0
		c0.2,0,0.3,0.2,0.5,0.3c0,0,0,0.1,0.1,0.1c0.4,0.7,0.7,1.7,1.3,2.1c0.6,0.4,1.6,0.1,2.4,0.1c2,0,4,0,6,0c0.3,0,0.5,0,0.8,0
		c-0.2-0.9-0.4-1.7-0.7-2.6c0.8,0,1.5,0,2.3,0c0.2,0.6,0.4,1.2,0.5,1.9c0.1,0.6,0.4,0.9,1,0.8c0.1,0,0.2,0,0.4,0
		C37.3,61.9,36.5,63,35.7,64.2z"/>
	<path class="st1" d="M52.8,69.6c-1.8,0-3.7,0-5.6,0c0-0.9-0.1-1.8,0-2.7c0.2-1.3,1.4-2.2,2.7-2.3c1.3,0,2.6,0.9,2.8,2.2
		C52.9,67.7,52.8,68.7,52.8,69.6z"/>
	<path class="st1" d="M49.9,72.3c1.2,0,2.1,1.3,1.4,2.2c-0.5,0.7-0.7,1.3-0.7,2.1c0,0.5-0.6,0.8-0.9,0.6c-0.2-0.1-0.4-0.5-0.4-0.8
		c0-0.6,0-1.2-0.6-1.7c-0.4-0.4-0.4-1-0.1-1.6C48.9,72.6,49.4,72.4,49.9,72.3z"/>
</g>
</svg>
