<?xml version="1.0" encoding="utf-8"?>
<!-- Generator: Adobe Illustrator 27.0.0, SVG Export Plug-In . SVG Version: 6.00 Build 0)  -->
<svg version="1.1" id="Layer_1" xmlns="http://www.w3.org/2000/svg" xmlns:xlink="http://www.w3.org/1999/xlink" x="0px" y="0px"
	 viewBox="0 0 100 100" style="enable-background:new 0 0 100 100;" xml:space="preserve">
<style type="text/css">
	.st0{fill:#EE4D2D;}
</style>
<path id="path2" class="st0" d="M65.9,74.4c-0.5,4.7-3.4,8.5-7.8,10.4c-2.5,1-5.8,1.6-8.4,1.4c-4.1-0.2-7.9-1.2-11.5-3
	c-1.2-0.7-3.1-2-4.6-3.1c-0.4-0.3-0.4-0.5-0.2-0.9c0.1-0.2,0.4-0.6,0.9-1.3c0.8-1.1,0.9-1.3,1-1.4c0.3-0.4,0.6-0.4,1-0.1
	c0.1,0.1,0.1,0.1,0.1,0.1c0.1,0.1,0.1,0.1,0.2,0.2c0.2,0.1,0.3,0.2,0.3,0.2c3.8,3,8.3,4.7,12.8,4.9c6.2-0.1,10.7-2.9,11.5-7.2
	c0.8-4.7-2.9-8.8-10.1-11.1c-2.3-0.7-8-3-9.1-3.6c-5-2.9-7.3-6.7-7-11.5c0.5-6.6,6.6-11.4,14.3-11.5c3.4,0,6.9,0.7,10.1,2.1
	c1.2,0.5,3.3,1.6,4,2.2c0.4,0.3,0.5,0.7,0.3,1c-0.1,0.2-0.3,0.6-0.8,1.3l0,0c-0.6,1-0.7,1-0.8,1.2c-0.2,0.4-0.6,0.4-1,0.1
	c-3.5-2.4-7.4-3.6-11.7-3.7c-5.3,0.1-9.4,3.3-9.6,7.6c-0.1,3.9,2.9,6.8,9.2,8.9C61.9,61.8,66.9,66.7,65.9,74.4 M50,6.7
	c8.4,0,15.2,8,15.6,17.9H34.4C34.7,14.6,41.6,6.7,50,6.7 M93.5,26.5c0-1-0.8-1.9-1.8-1.9h-0.1H71.4C70.9,11.4,61.5,0.9,50,0.9
	c-11.5,0-20.9,10.5-21.4,23.7H8.4c-1,0-1.8,0.9-1.8,1.9c0,0.1,0,0.1,0,0.1h0l2.9,63.5c0,0.2,0,0.3,0,0.6c0,0,0,0.1,0,0.1v0.1l0,0
	c0.4,4.4,3.6,8,8,8.1v0h64.1c0,0,0.1,0,0.1,0c0,0,0,0,0.1,0h0.1v0c4.4-0.1,8.1-3.7,8.4-8.2l0,0l0-0.1c0,0,0-0.1,0-0.1
	c0-0.1,0-0.2,0-0.3L93.5,26.5L93.5,26.5C93.5,26.5,93.5,26.5,93.5,26.5"/>
</svg>
