<?xml version="1.0" encoding="utf-8"?>
<!-- Generator: Adobe Illustrator 27.0.0, SVG Export Plug-In . SVG Version: 6.00 Build 0)  -->
<svg version="1.1" id="Layer_1" xmlns="http://www.w3.org/2000/svg" xmlns:xlink="http://www.w3.org/1999/xlink" x="0px" y="0px"
	 viewBox="0 0 100 100" style="enable-background:new 0 0 100 100;" xml:space="preserve">
<style type="text/css">
	.st0{fill:#3A76F0;}
</style>
<path class="st0" d="M50,0.6C22.7,0.6,0.6,22.7,0.6,50S22.7,99.4,50,99.4S99.4,77.3,99.4,50S77.3,0.6,50,0.6z M78.8,42L76,42.7
	c-0.6-2.5-1.6-4.9-2.9-7.1l2.5-1.5C77,36.6,78.1,39.2,78.8,42z M30.4,58c-0.7-1.6-1.2-3.3-1.6-5C26.5,40.6,34.6,28.6,47,26.3
	s24.3,5.8,26.7,18.2s-5.8,24.3-18.2,26.7c-2.6,0.5-5.3,0.5-7.9,0.1c-3-0.5-5.9-1.6-8.4-3.2l-3.3,0.8l-3.5,0.8l-2.7,0.6l0.6-2.7
	l0.8-3.5l0.8-3.4C31.3,59.8,30.8,58.9,30.4,58z M68,25.9c2.4,1.7,4.4,3.8,6.2,6.2l-2.3,1.7c-1.5-2.1-3.4-4-5.5-5.6L68,25.9z
	 M58,21.2c2.8,0.7,5.6,1.8,8.1,3.4L64.6,27c-2.2-1.4-4.7-2.4-7.2-3L58,21.2z M51.3,20.4c1.5,0,2.9,0.1,4.4,0.3l-0.4,2.8
	c-2.6-0.4-5.3-0.4-7.9,0l-0.4-2.8C48.3,20.5,49.8,20.4,51.3,20.4L51.3,20.4z M44.5,21.2l0.7,2.8c-2.5,0.6-5,1.6-7.2,3l-1.5-2.4
	C39,23.1,41.7,21.9,44.5,21.2z M34.5,25.9l1.7,2.3c-2.1,1.5-3.9,3.3-5.4,5.4l-2.3-1.7C30.2,29.7,32.2,27.6,34.5,25.9L34.5,25.9z
	 M27.2,33.9l2.4,1.5c-1.4,2.3-2.4,4.7-3,7.3L23.8,42C24.5,39.2,25.6,36.4,27.2,33.9L27.2,33.9z M23,48.7c0-1.5,0.1-2.9,0.3-4.3
	l2.8,0.4c-0.4,2.6-0.4,5.2,0,7.8l-2.8,0.4C23.1,51.6,23,50.2,23,48.7z M26.6,54.7c0.3,1.1,0.6,2.2,1,3.2c0.5,1.3,1.1,2.6,1.9,3.8
	l-0.9,3.8l0,0.1L25.9,65l0.6-2.6c-1.2-2.2-2.1-4.5-2.7-7L26.6,54.7z M27.2,76c-1.5,0.3-2.9-0.6-3.3-2c-0.1-0.4-0.1-0.8,0-1.3
	l1.3-5.5l2.6,0.7l-1.3,5.3L32,72l0.8,2.7L27.2,76z M44.5,76.2c-2.4-0.6-4.6-1.5-6.8-2.6l-2.7,0.6l-0.8-2.7l0.2,0l3.8-0.9
	c1.3,0.8,2.6,1.4,4,1.9c0.9,0.4,1.9,0.7,2.9,0.9L44.5,76.2z M51.3,77c-1.5,0-2.9-0.1-4.4-0.3l0.4-2.8c2.6,0.4,5.2,0.4,7.8,0l0.4,2.8
	C54.2,76.9,52.7,77,51.3,77L51.3,77z M58,76.2l-0.7-2.8c2.5-0.6,5-1.6,7.2-3l1.5,2.4C63.5,74.4,60.8,75.5,58,76.2L58,76.2z M68,71.5
	l-1.7-2.3c2.1-1.5,4-3.4,5.5-5.5l2.3,1.7C72.4,67.8,70.3,69.8,68,71.5z M75.5,63.4L73,61.9c1.4-2.2,2.4-4.7,3-7.2l2.8,0.7
	C78.1,58.2,77,60.9,75.5,63.4L75.5,63.4z M79.2,53l-2.8-0.4c0.4-2.6,0.4-5.2,0-7.8l2.8-0.4C79.7,47.2,79.7,50.1,79.2,53L79.2,53z"/>
</svg>
