<?xml version="1.0" encoding="utf-8"?>
<!-- Generator: Adobe Illustrator 27.0.0, SVG Export Plug-In . SVG Version: 6.00 Build 0)  -->
<svg version="1.1" id="Layer_1" xmlns="http://www.w3.org/2000/svg" xmlns:xlink="http://www.w3.org/1999/xlink" x="0px" y="0px"
	 viewBox="0 0 100 100" style="enable-background:new 0 0 100 100;" xml:space="preserve">
<style type="text/css">
	.st0{fill:url(#SVGID_1_);}
	.st1{fill:url(#SVGID_00000095334604337384576330000005321768572825156737_);}
	.st2{opacity:5.000000e-02;fill-rule:evenodd;clip-rule:evenodd;enable-background:new    ;}
	.st3{opacity:0.1;fill-rule:evenodd;clip-rule:evenodd;enable-background:new    ;}
	.st4{fill:url(#SVGID_00000155134775045132950670000017435933393827987902_);}
	.st5{fill-rule:evenodd;clip-rule:evenodd;fill:#FFFFFF;}
</style>
<g transform="translate(-381.7262001,-337.1428572)">
	
		<linearGradient id="SVGID_1_" gradientUnits="userSpaceOnUse" x1="-90.8321" y1="1319.8251" x2="-90.5657" y2="1318.1433" gradientTransform="matrix(33.3333 0 0 -33.3333 3435.1863 44332.9023)">
		<stop  offset="1.200000e-02" style="stop-color:#00B7F0"/>
		<stop  offset="0.339" style="stop-color:#009DE5"/>
		<stop  offset="0.755" style="stop-color:#0082D9"/>
		<stop  offset="1" style="stop-color:#0078D4"/>
	</linearGradient>
	<path class="st0" d="M440.4,366.8c0,15.7-12.7,28.4-28.5,28.4l0,0c-15.7,0-28.5-12.7-28.5-28.4l0,0c0-15.7,12.7-28.4,28.5-28.4
		c0,0,0,0,0,0C427.6,338.4,440.4,351.1,440.4,366.8L440.4,366.8"/>
	
		<linearGradient id="SVGID_00000046341948765378016280000001358580783590388630_" gradientUnits="userSpaceOnUse" x1="-90.2484" y1="1317.335" x2="-88.7697" y2="1318.1887" gradientTransform="matrix(33.3333 0 0 -33.3333 3435.1863 44332.9023)">
		<stop  offset="0" style="stop-color:#0078D4"/>
		<stop  offset="0.37" style="stop-color:#007AD5"/>
		<stop  offset="0.573" style="stop-color:#0082D9"/>
		<stop  offset="0.735" style="stop-color:#0090DF"/>
		<stop  offset="0.875" style="stop-color:#00A3E7"/>
		<stop  offset="1" style="stop-color:#00BCF2"/>
	</linearGradient>
	<path style="fill:url(#SVGID_00000046341948765378016280000001358580783590388630_);" d="M480,407.5c0,15.7-12.7,28.4-28.5,28.4
		c-15.7,0-28.5-12.7-28.5-28.4c0-15.7,12.7-28.4,28.5-28.4C467.3,379.1,480,391.8,480,407.5L480,407.5"/>
	<path class="st2" d="M383.5,369.2c1.3,15.7,15,27.3,30.7,26c15.7-1.3,27.3-15,26-30.7c-1.1-13.4-11.5-24.2-24.8-25.9
		C400.8,343.5,389.1,354.7,383.5,369.2L383.5,369.2z"/>
	<path class="st2" d="M480,405.5c-1.1-15.7-14.7-27.5-30.4-26.5s-27.5,14.7-26.5,30.4c1,14,11.9,25.1,25.8,26.4
		C463.2,430.7,474.6,419.6,480,405.5L480,405.5z"/>
	<path class="st3" d="M384.9,375.7c4.9,14.9,20.9,23.1,35.9,18.2c14.9-4.9,23.1-20.9,18.2-35.9c-2.7-8.2-9-14.8-17-17.8
		C403.8,344,389.4,357.7,384.9,375.7L384.9,375.7z"/>
	<path class="st3" d="M478.7,398.8c-4.8-15-20.8-23.3-35.8-18.5s-23.3,20.8-18.5,35.8c2.7,8.6,9.4,15.4,17.9,18.3
		C460.2,430.3,474.2,416.6,478.7,398.8L478.7,398.8z"/>
	<path class="st3" d="M385.9,378.4c6.4,14.4,23.2,20.8,37.5,14.5s20.8-23.2,14.5-37.5c-2.7-6.1-7.4-11-13.3-13.9
		C405.2,344.4,389.8,359.1,385.9,378.4z"/>
	<path class="st3" d="M477.6,396.1c-6.3-14.4-23.1-21-37.5-14.7c-14.4,6.3-21,23.1-14.7,37.5c2.8,6.4,7.8,11.5,14.1,14.4
		C458.7,430,473.9,415.2,477.6,396.1L477.6,396.1z"/>
	
		<linearGradient id="SVGID_00000036957043209543363890000006856077886027608996_" gradientUnits="userSpaceOnUse" x1="-90.6315" y1="1319.2806" x2="-89.282" y2="1316.9434" gradientTransform="matrix(33.3333 0 0 -33.3333 3435.1863 44332.9023)">
		<stop  offset="0" style="stop-color:#00B7F0"/>
		<stop  offset="1" style="stop-color:#007CC1"/>
	</linearGradient>
	<path style="fill:url(#SVGID_00000036957043209543363890000006856077886027608996_);" d="M476.8,387.4c0,24.8-20.2,44.9-45.1,44.9
		l0,0c-24.9,0-45.1-20.1-45.1-44.9c0,0,0,0,0,0c0-24.8,20.2-44.9,45.1-44.9c0,0,0,0,0,0C456.6,342.4,476.8,362.5,476.8,387.4
		L476.8,387.4"/>
	<path class="st5" d="M419.1,385.8c-1.8-1.2-3.3-2.8-4.4-4.7c-1.1-2-1.6-4.2-1.5-6.5c-0.1-2.9,0.9-5.7,2.7-7.8
		c1.9-2.2,4.4-3.8,7.1-4.8c3-1.1,6.2-1.6,9.4-1.6c2.1,0,4.2,0.1,6.2,0.5c1.5,0.2,2.9,0.6,4.3,1.1c1.3,0.4,2.4,1.2,3.4,2.2
		c0.7,0.8,1.1,1.8,1,2.9c0,1.1-0.3,2.2-1.1,3c-0.7,0.8-1.7,1.2-2.8,1.2c-0.7,0-1.4-0.2-2.1-0.5c-1.6-0.7-3.2-1.3-4.9-1.8
		c-1.5-0.4-3.1-0.6-4.7-0.6c-2.1-0.1-4.1,0.4-5.9,1.5c-1.5,0.9-2.4,2.6-2.4,4.4c0,1.2,0.4,2.3,1.2,3.1c0.9,1,2.1,1.8,3.3,2.4
		c1.4,0.7,3.4,1.6,6.2,2.7c0.3,0.1,0.6,0.2,0.9,0.4c2.7,1.1,5.2,2.4,7.6,3.9c1.9,1.2,3.5,2.9,4.7,4.8c1.2,2,1.8,4.4,1.7,6.7
		c0.1,2.9-0.7,5.7-2.4,8.1c-1.7,2.2-3.9,4-6.6,4.9c-3.2,1.1-6.5,1.7-9.9,1.6c-4.6,0.2-9.2-0.7-13.5-2.6c-1.1-0.5-2-1.2-2.8-2.2
		c-0.6-0.9-0.9-1.9-0.9-2.9c-0.1-1.1,0.4-2.2,1.2-3c0.8-0.7,1.9-1.1,3.1-1.1c1.2,0,2.5,0.3,3.6,0.9c1.4,0.7,2.4,1.2,3.2,1.5
		c0.9,0.4,1.8,0.7,2.8,0.9c1.2,0.3,2.4,0.4,3.6,0.4c2.1,0.2,4.3-0.4,6-1.6c1.3-1.1,2.1-2.7,2-4.4c0-1.2-0.5-2.3-1.3-3.2
		c-1.1-1.1-2.4-2-3.8-2.7c-1.7-0.9-4-1.9-7-3.2C424,388.7,421.5,387.4,419.1,385.8"/>
</g>
</svg>
