<?xml version="1.0" encoding="utf-8"?>
<!-- Generator: Adobe Illustrator 27.0.0, SVG Export Plug-In . SVG Version: 6.00 Build 0)  -->
<svg version="1.1" id="Layer_1" xmlns="http://www.w3.org/2000/svg" xmlns:xlink="http://www.w3.org/1999/xlink" x="0px" y="0px"
	 viewBox="0 0 100 100" style="enable-background:new 0 0 100 100;" xml:space="preserve">
<style type="text/css">
	.st0{fill:#E01E5A;}
	.st1{fill:#36C5F0;}
	.st2{fill:#2EB67D;}
	.st3{fill:#ECB22E;}
</style>
<g>
	<g>
		<path class="st0" d="M21,63.2c0,5.8-4.7,10.5-10.5,10.5C4.7,73.7,0,69,0,63.2c0-5.8,4.7-10.5,10.5-10.5H21V63.2z"/>
		<path class="st0" d="M26.3,63.2c0-5.8,4.7-10.5,10.5-10.5c5.8,0,10.5,4.7,10.5,10.5v26.3c0,5.8-4.7,10.5-10.5,10.5
			c-5.8,0-10.5-4.7-10.5-10.5V63.2z"/>
	</g>
	<g>
		<path class="st1" d="M36.8,21c-5.8,0-10.5-4.7-10.5-10.5C26.3,4.7,31,0,36.8,0c5.8,0,10.5,4.7,10.5,10.5V21H36.8z"/>
		<path class="st1" d="M36.8,26.3c5.8,0,10.5,4.7,10.5,10.5c0,5.8-4.7,10.5-10.5,10.5H10.5C4.7,47.3,0,42.6,0,36.8
			C0,31,4.7,26.3,10.5,26.3H36.8z"/>
	</g>
	<g>
		<path class="st2" d="M79,36.8c0-5.8,4.7-10.5,10.5-10.5c5.8,0,10.5,4.7,10.5,10.5c0,5.8-4.7,10.5-10.5,10.5H79V36.8z"/>
		<path class="st2" d="M73.7,36.8c0,5.8-4.7,10.5-10.5,10.5c-5.8,0-10.5-4.7-10.5-10.5V10.5C52.7,4.7,57.4,0,63.2,0
			C69,0,73.7,4.7,73.7,10.5V36.8z"/>
	</g>
	<g>
		<path class="st3" d="M63.2,79c5.8,0,10.5,4.7,10.5,10.5c0,5.8-4.7,10.5-10.5,10.5c-5.8,0-10.5-4.7-10.5-10.5V79H63.2z"/>
		<path class="st3" d="M63.2,73.7c-5.8,0-10.5-4.7-10.5-10.5c0-5.8,4.7-10.5,10.5-10.5h26.3c5.8,0,10.5,4.7,10.5,10.5
			c0,5.8-4.7,10.5-10.5,10.5H63.2z"/>
	</g>
</g>
</svg>
