<?xml version="1.0" encoding="utf-8"?>
<!-- Generator: Adobe Illustrator 27.5.0, SVG Export Plug-In . SVG Version: 6.00 Build 0)  -->
<svg version="1.1"
	 id="svg8" xmlns:sodipodi="http://sodipodi.sourceforge.net/DTD/sodipodi-0.dtd" xmlns:rdf="http://www.w3.org/1999/02/22-rdf-syntax-ns#" xmlns:dc="http://purl.org/dc/elements/1.1/" xmlns:svg="http://www.w3.org/2000/svg" xmlns:inkscape="http://www.inkscape.org/namespaces/inkscape" xmlns:cc="http://creativecommons.org/ns#" sodipodi:docname="iMessage logo.svg"
	 xmlns="http://www.w3.org/2000/svg" xmlns:xlink="http://www.w3.org/1999/xlink" x="0px" y="0px" viewBox="0 0 187.5 187.5"
	 style="enable-background:new 0 0 187.5 187.5;" xml:space="preserve">
<style type="text/css">
	.st0{fill:#FFFFFF;}
</style>
<sodipodi:namedview  bordercolor="#666666" borderopacity="1.0" fit-margin-bottom="0" fit-margin-left="0" fit-margin-right="0" fit-margin-top="0" id="base" inkscape:current-layer="layer1" inkscape:cx="142.01984" inkscape:cy="61.975439" inkscape:document-units="px" inkscape:guide-bbox="true" inkscape:pageopacity="0.0" inkscape:pageshadow="2" inkscape:snap-intersection-paths="false" inkscape:snap-object-midpoints="false" inkscape:window-height="1017" inkscape:window-maximized="1" inkscape:window-width="1920" inkscape:window-x="1358" inkscape:window-y="-8" inkscape:zoom="1" pagecolor="#ffffff" showgrid="false" showguides="true">
	</sodipodi:namedview>
<g id="g963">
	<path id="rect826" class="st0" d="M41.3,0h104.9c22.8,0,41.3,18.5,41.3,41.3v104.9c0,22.8-18.5,41.3-41.3,41.3H41.3
		C18.5,187.5,0,169,0,146.2V41.3C0,18.5,18.5,0,41.3,0z"/>
</g>
<g>
	<g>
		<path d="M141.7,155.8l-37.2-30.5H53.2c-16.9,0-30.6-14-30.6-31.3V63c0-17.2,13.7-31.3,30.6-31.3h81c16.9,0,30.6,14,30.6,31.3v31
			c0,14.5-9.7,26.9-23.2,30.3V155.8z M53.2,40.6c-12,0-21.7,10-21.7,22.4v31c0,12.3,9.7,22.4,21.7,22.4h54.4l25.2,20.6v-20.3
			l3.9-0.5c11-1.3,19.3-10.9,19.3-22.2V63c0-12.3-9.7-22.4-21.7-22.4L53.2,40.6L53.2,40.6z"/>
	</g>
	<g>
		<path d="M48,83.7c1.6,1,4.9,2.1,7.4,2.1c2.6,0,3.7-0.9,3.7-2.3c0-1.4-0.9-2.1-4.1-3.2c-5.7-1.9-7.9-5-7.9-8.3
			c0-5.2,4.4-9.1,11.3-9.1c3.2,0,6.1,0.7,7.8,1.6l-1.5,5.9c-1.2-0.7-3.6-1.6-6-1.6c-2.1,0-3.3,0.9-3.3,2.3c0,1.3,1.1,2,4.5,3.2
			c5.3,1.8,7.5,4.5,7.5,8.6c0,5.2-4.1,8.9-12,8.9c-3.6,0-6.9-0.8-8.9-1.9L48,83.7z"/>
		<path d="M72.6,72.4c0-3.5-0.1-6.4-0.2-8.8h7.2l0.4,3.7h0.2c1.2-1.8,3.6-4.4,8.4-4.4c3.6,0,6.4,1.8,7.6,4.7h0.1
			c1-1.4,2.3-2.5,3.6-3.3c1.5-0.9,3.2-1.4,5.3-1.4c5.3,0,9.3,3.7,9.3,12v16.3h-8.4V76.2c0-4-1.3-6.3-4.1-6.3c-2,0-3.4,1.4-4,3
			c-0.2,0.6-0.3,1.5-0.3,2.2v16.2h-8.4V75.8c0-3.5-1.2-5.9-4-5.9c-2.2,0-3.5,1.7-4,3.1C81,73.7,81,74.5,81,75.1v16.1h-8.4L72.6,72.4
			L72.6,72.4z"/>
		<path d="M121.2,83.7c1.6,1,4.9,2.1,7.4,2.1c2.6,0,3.7-0.9,3.7-2.3c0-1.4-0.9-2.1-4.1-3.2c-5.7-1.9-7.9-5-7.9-8.3
			c0-5.2,4.4-9.1,11.3-9.1c3.2,0,6.1,0.7,7.8,1.6l-1.5,5.9c-1.2-0.7-3.6-1.6-6-1.6c-2.1,0-3.3,0.9-3.3,2.3c0,1.3,1.1,2,4.5,3.2
			c5.3,1.8,7.5,4.5,7.5,8.6c0,5.2-4.1,8.9-12,8.9c-3.6,0-6.9-0.8-8.9-1.9L121.2,83.7z"/>
	</g>
</g>
</svg>
