<?xml version="1.0" encoding="utf-8"?>
<!-- Generator: Adobe Illustrator 27.0.0, SVG Export Plug-In . SVG Version: 6.00 Build 0)  -->
<svg version="1.1" id="Layer_1" xmlns="http://www.w3.org/2000/svg" xmlns:xlink="http://www.w3.org/1999/xlink" x="0px" y="0px"
	 viewBox="0 0 100 100" style="enable-background:new 0 0 100 100;" xml:space="preserve">
<style type="text/css">
	.st0{fill:#FFFC00;}
	.st1{fill:#FFFFFF;}
	.st2{fill:#020202;}
	.st3{fill:none;}
</style>
<g>
	<path class="st0" d="M0.3,74.6L0.3,74.6c0.1,2.2,0.1,4.5,0.5,6.7c0.4,2.3,1,4.6,2,6.7c1.5,2.9,3.5,5.3,6,7.3c1.8,1.4,3.8,2.5,6,3.3
		c3.2,1,6.5,1.4,9.9,1.5c2.1,0,4.2,0.1,6.3,0.1c15.2-0.1,30.5,0.1,45.7-0.1c2,0,4-0.3,6-0.6c3.8-0.7,7.2-2.3,10-4.9
		c3.4-3,5.6-6.6,6.6-11.1c0.7-2.9,0.8-5.8,0.9-8.8V74c0-0.2-0.1-49.9-0.1-50.6c0-1.8-0.2-3.6-0.5-5.4c-0.4-2.2-1-4.3-2-6.2
		c-1.1-2.1-2.5-3.9-4.2-5.6c-2.6-2.5-5.6-4.2-9.1-5.2c-3.1-0.8-6.4-1-9.6-1c0,0,0,0,0,0h-49c0,0,0,0,0,0c-1.8,0-3.7,0-5.5,0.2
		c-2,0.2-4,0.6-5.9,1.3c-3,1.1-5.6,2.8-7.8,5.1c-2.5,2.6-4.3,5.6-5.2,9.1c-0.8,3.1-1,6.3-1,9.5"/>
	<path class="st1" d="M50.7,84.4c-0.2,0-0.4,0-0.6,0c-0.1,0-0.2,0-0.4,0c-4.4,0-7.3-2.1-9.8-3.9c-1.8-1.3-3.6-2.5-5.6-2.9
		c-1-0.2-2-0.3-3-0.3c-1.7,0-3.1,0.3-4.1,0.5c-0.6,0.1-1.1,0.2-1.6,0.2c-0.4,0-1-0.1-1.2-0.8c-0.2-0.6-0.3-1.2-0.4-1.7
		c-0.3-1.4-0.5-2.2-1-2.3c-5.5-0.8-8.7-2.1-9.3-3.6c-0.1-0.2-0.1-0.3-0.1-0.5c0-0.4,0.3-0.8,0.7-0.9c4.3-0.7,8.2-3,11.5-6.8
		c2.5-3,3.8-5.8,3.9-6.1c0,0,0,0,0,0c0.6-1.3,0.8-2.4,0.4-3.3c-0.7-1.7-3-2.4-4.6-2.9c-0.4-0.1-0.7-0.2-1-0.4
		c-1.4-0.5-3.6-1.7-3.3-3.3c0.2-1.1,1.7-2,3-2c0.3,0,0.6,0.1,0.9,0.2c1.4,0.7,2.6,1,3.7,1c1.3,0,2-0.5,2.1-0.7
		c0-0.7-0.1-1.5-0.1-2.2c0,0,0,0,0,0c-0.3-5-0.7-11.2,0.9-14.8c4.8-10.7,14.8-11.5,17.8-11.5c0.1,0,1.3,0,1.3,0c0.1,0,0.1,0,0.2,0
		c3,0,13.1,0.8,17.8,11.5c1.6,3.6,1.2,9.8,0.9,14.8l0,0.2c0,0.7-0.1,1.3-0.1,1.9c0.1,0.1,0.7,0.6,1.9,0.6c1,0,2.2-0.4,3.5-1
		c0.4-0.2,0.8-0.2,1.1-0.2c0.5,0,0.9,0.1,1.3,0.2l0,0c1.1,0.4,1.8,1.2,1.8,2c0,0.8-0.6,1.9-3.3,3c-0.3,0.1-0.7,0.2-1,0.4
		c-1.5,0.5-3.9,1.2-4.6,2.9c-0.4,0.9-0.3,2,0.4,3.3c0,0,0,0,0,0c0.2,0.5,4.9,11.2,15.4,12.9c0.4,0.1,0.8,0.5,0.7,0.9
		c0,0.2,0,0.3-0.1,0.5c-0.6,1.5-3.9,2.7-9.3,3.6c-0.5,0.1-0.7,0.9-1,2.3c-0.1,0.6-0.2,1.1-0.4,1.7c-0.2,0.5-0.5,0.8-1.1,0.8h-0.1
		c-0.4,0-0.9-0.1-1.6-0.2c-1.2-0.2-2.5-0.4-4.1-0.4c-1,0-2,0.1-3,0.3c-2,0.3-3.8,1.6-5.6,2.9C58,82.3,55.1,84.4,50.7,84.4"/>
	<path class="st2" d="M51,16.5c2.8,0,12.5,0.8,17,11c1.5,3.4,1.1,9.5,0.8,14.4c0,0.8-0.1,1.5-0.1,2.2l0,0.3l0.2,0.2
		c0.1,0.1,0.9,0.9,2.6,1l0,0l0,0c1.1,0,2.4-0.4,3.8-1.1c0.2-0.1,0.5-0.1,0.8-0.1c0.3,0,0.7,0.1,1,0.2l0,0c0.7,0.3,1.3,0.7,1.3,1.2
		c0,0.2-0.2,1.1-2.8,2.2c-0.3,0.1-0.6,0.2-1,0.3c-1.7,0.5-4.3,1.4-5.1,3.4c-0.5,1.1-0.4,2.5,0.4,4c0.3,0.7,5.2,11.6,16.1,13.4
		c0,0.1,0,0.1,0,0.2c-0.2,0.4-1.4,1.9-8.7,3.1c-1.1,0.2-1.4,1.5-1.7,2.9c-0.1,0.5-0.2,1.1-0.4,1.6c-0.1,0.2-0.1,0.2-0.2,0.2
		c0,0-0.1,0-0.1,0c-0.3,0-0.8-0.1-1.4-0.2c-1-0.2-2.5-0.5-4.3-0.5c-1,0-2.1,0.1-3.1,0.3c-2.2,0.4-4.1,1.7-6,3
		c-2.6,1.8-5.3,3.7-9.3,3.7c-0.2,0-0.4,0-0.5,0l0,0l0,0c-0.1,0-0.2,0-0.3,0c-4.1,0-6.8-1.9-9.3-3.7c-1.9-1.4-3.7-2.6-6-3
		c-1-0.2-2.1-0.3-3.1-0.3c-1.8,0-3.2,0.3-4.3,0.5c-0.6,0.1-1.1,0.2-1.4,0.2c-0.3,0-0.3,0-0.3-0.2c-0.2-0.6-0.3-1.1-0.4-1.6
		c-0.3-1.5-0.6-2.8-1.7-3c-7.3-1.1-8.5-2.6-8.7-3.1c0-0.1,0-0.1,0-0.2c10.9-1.8,15.7-12.7,16.1-13.4c0.7-1.5,0.9-2.9,0.4-4
		c-0.9-2-3.4-2.8-5.1-3.4c-0.4-0.1-0.7-0.2-1-0.3c-2.2-0.9-2.9-1.7-2.8-2.3c0.1-0.6,1.2-1.2,2.1-1.2c0.2,0,0.4,0,0.5,0.1
		c1.5,0.7,2.9,1.1,4.1,1.1c1.9,0,2.7-0.9,2.8-1l0.2-0.2l0-0.3c0-0.7-0.1-1.5-0.1-2.2c-0.3-4.9-0.7-11,0.8-14.4
		c4.5-10.2,14.2-11,17-11c0.1,0,1.3,0,1.3,0C50.9,16.5,50.9,16.5,51,16.5 M51,14.8L51,14.8c-0.1,0-0.1,0-0.2,0c-0.5,0-1.2,0-1.3,0
		c-1.7,0-5,0.2-8.6,1.8c-2,0.9-3.9,2.1-5.5,3.6c-1.9,1.8-3.4,4-4.6,6.6c-1.7,3.8-1.3,10.1-1,15.2l0,0c0,0.5,0.1,1.1,0.1,1.7
		c-0.2,0.1-0.6,0.2-1.2,0.2c-0.9,0-2.1-0.3-3.3-0.9c-0.4-0.2-0.8-0.3-1.3-0.3c-0.8,0-1.6,0.2-2.2,0.6c-0.9,0.5-1.4,1.2-1.6,2
		c-0.1,0.5-0.1,1.6,1.1,2.6c0.6,0.6,1.6,1.1,2.8,1.6c0.3,0.1,0.7,0.2,1.1,0.4c1.4,0.4,3.5,1.1,4,2.4c0.3,0.7,0.2,1.5-0.4,2.6
		c0,0,0,0.1,0,0.1c-0.1,0.3-1.3,3-3.8,5.9c-1.4,1.6-2.9,3-4.6,4c-2,1.3-4.1,2.1-6.4,2.5c-0.9,0.1-1.5,0.9-1.5,1.8
		c0,0.3,0.1,0.5,0.2,0.8c0,0,0,0,0,0c0.4,0.8,1.2,1.5,2.5,2.2c1.6,0.8,4.1,1.4,7.3,1.9c0.2,0.3,0.3,1.1,0.4,1.6
		c0.1,0.6,0.2,1.1,0.4,1.8c0.2,0.7,0.7,1.5,2,1.5c0.5,0,1.1-0.1,1.7-0.2c1-0.2,2.3-0.4,3.9-0.4c0.9,0,1.9,0.1,2.8,0.2
		c1.8,0.3,3.4,1.4,5.3,2.7c2.7,1.9,5.7,4,10.4,4c0.1,0,0.3,0,0.4,0c0.2,0,0.3,0,0.5,0c4.6,0,7.7-2.1,10.4-4l0,0
		c1.8-1.3,3.4-2.4,5.3-2.7c1-0.2,1.9-0.2,2.8-0.2c1.6,0,2.8,0.2,3.9,0.4c0.7,0.1,1.3,0.2,1.7,0.2l0,0h0c1,0,1.7-0.5,1.9-1.4
		c0.2-0.6,0.3-1.2,0.4-1.7c0.1-0.5,0.3-1.3,0.4-1.6c3.2-0.5,5.7-1.1,7.3-1.9c1.3-0.6,2.2-1.3,2.5-2.2c0.1-0.3,0.2-0.5,0.2-0.8
		c0.1-0.9-0.6-1.7-1.5-1.8c-10-1.7-14.5-12-14.7-12.4c0,0,0-0.1,0-0.1c-0.5-1-0.6-1.9-0.4-2.6c0.5-1.3,2.6-2,4-2.4
		c0.4-0.1,0.8-0.2,1.1-0.4c1.4-0.5,2.3-1.1,3-1.8c0.8-0.8,0.9-1.6,0.9-2.1c0-1.2-0.9-2.3-2.4-2.8c-0.5-0.2-1.1-0.3-1.6-0.3
		c-0.4,0-1,0.1-1.5,0.3c-1.2,0.5-2.2,0.8-3.1,0.9c-0.5,0-0.8-0.1-1-0.2c0-0.5,0.1-1,0.1-1.5l0-0.2c0.3-5.1,0.7-11.4-1-15.2
		c-1.1-2.6-2.7-4.8-4.6-6.6c-1.6-1.5-3.4-2.7-5.5-3.6C56,15,52.7,14.8,51,14.8"/>
	<rect x="0.3" y="0" class="st3" width="99.9" height="99.9"/>
</g>
</svg>
