<?xml version="1.0" encoding="utf-8"?>
<!-- Generator: Adobe Illustrator 27.0.0, SVG Export Plug-In . SVG Version: 6.00 Build 0)  -->
<svg version="1.1" id="Layer_1" xmlns="http://www.w3.org/2000/svg" xmlns:xlink="http://www.w3.org/1999/xlink" x="0px" y="0px"
	 viewBox="0 0 100 100" style="enable-background:new 0 0 100 100;" xml:space="preserve">
<style type="text/css">
	.st0{fill:url(#SVGID_1_);}
</style>
<linearGradient id="SVGID_1_" gradientUnits="userSpaceOnUse" x1="-1391.2489" y1="-594.4279" x2="-1391.2489" y2="-588.0276" gradientTransform="matrix(8.6036 0 0 8.6036 12019.7109 5136.6704)">
	<stop  offset="0" style="stop-color:#F79810"/>
	<stop  offset="1" style="stop-color:#F8310E"/>
</linearGradient>
<path class="st0" d="M2.8,47.6c-0.2,0-0.4,0.2-0.4,0.4l-0.7,5.4l0.7,5.3c0,0.2,0.2,0.4,0.4,0.4c0.2,0,0.4-0.2,0.4-0.4v0v0L4,53.3
	l-0.8-5.4C3.2,47.7,3,47.6,2.8,47.6L2.8,47.6z M6.8,44.6c0-0.2-0.2-0.4-0.4-0.4c-0.2,0-0.4,0.2-0.4,0.4c0,0-0.9,8.7-0.9,8.7L6,61.8
	c0,0.2,0.2,0.4,0.4,0.4c0.2,0,0.4-0.2,0.4-0.4l1.1-8.5L6.8,44.6L6.8,44.6z M21.7,36.6c-0.4,0-0.7,0.3-0.7,0.7l-0.8,16L21,63.6
	c0,0.4,0.3,0.7,0.7,0.7c0.4,0,0.7-0.3,0.7-0.7v0l0.9-10.3l-0.9-16C22.4,36.9,22.1,36.6,21.7,36.6z M14,42.2c-0.3,0-0.5,0.2-0.6,0.6
	l-0.9,10.6l0.9,10.2c0,0.3,0.3,0.6,0.6,0.6c0.3,0,0.5-0.2,0.6-0.6l1-10.2l-1-10.6C14.5,42.4,14.3,42.2,14,42.2z M29.6,64.3
	c0.5,0,0.9-0.4,0.9-0.9l0.7-10.1l-0.7-21.2c0-0.5-0.4-0.9-0.9-0.9c-0.5,0-0.9,0.4-0.9,0.9L28,53.3l0.7,10.1
	C28.7,64,29.1,64.3,29.6,64.3z M45.7,64.4c0.7,0,1.2-0.5,1.2-1.2v0v0l0.5-9.9l-0.5-24.5c0-0.7-0.6-1.2-1.2-1.2
	c-0.7,0-1.2,0.5-1.2,1.2L44,53.3c0,0,0.5,9.9,0.5,9.9C44.5,63.8,45,64.4,45.7,64.4z M37.6,64.4c0.6,0,1-0.5,1.1-1.1v0l0.6-10
	l-0.6-21.4c0-0.6-0.5-1.1-1.1-1.1c-0.6,0-1,0.5-1.1,1.1L36,53.3l0.6,10C36.5,63.9,37,64.4,37.6,64.4L37.6,64.4z M17.8,64.3
	c0.3,0,0.6-0.3,0.6-0.6l0.9-10.3l-0.9-9.8c0-0.4-0.3-0.6-0.6-0.6c-0.3,0-0.6,0.3-0.6,0.6l-0.8,9.8l0.8,10.3
	C17.2,64,17.5,64.3,17.8,64.3z M10.2,63.7c0.3,0,0.5-0.2,0.5-0.5l1-9.9l-1-10.3c0-0.3-0.2-0.5-0.5-0.5c-0.3,0-0.5,0.2-0.5,0.5
	L8.8,53.3l0.9,9.9C9.7,63.5,9.9,63.7,10.2,63.7L10.2,63.7z M41.6,31.6c-0.6,0-1.1,0.5-1.1,1.1L40,53.3l0.5,9.9
	c0,0.6,0.5,1.1,1.1,1.1c0.6,0,1.1-0.5,1.1-1.1v0l0.6-9.9l-0.6-20.6C42.8,32.1,42.3,31.6,41.6,31.6L41.6,31.6z M25.7,64.4
	c0.4,0,0.8-0.4,0.8-0.8l0.8-10.2l-0.8-19.6c0-0.5-0.4-0.8-0.8-0.8c-0.4,0-0.8,0.4-0.8,0.8l-0.7,19.6l0.7,10.3
	C24.9,64,25.2,64.4,25.7,64.4z M34.6,63.4L34.6,63.4l0.7-10.1l-0.7-22c0-0.5-0.4-1-1-1c-0.5,0-1,0.4-1,1l-0.6,22l0.6,10.1
	c0,0.5,0.4,1,1,1C34.1,64.4,34.5,63.9,34.6,63.4L34.6,63.4L34.6,63.4z M86.4,40.7c-1.6,0-3.2,0.3-4.6,0.9
	c-0.9-10.7-9.9-19.1-20.9-19.1c-2.7,0-5.3,0.5-7.6,1.4c-0.9,0.3-1.1,0.7-1.1,1.4V63c0,0.7,0.6,1.3,1.3,1.4c0,0,32.7,0,32.9,0
	c6.6,0,11.9-5.3,11.9-11.9C98.3,46,93,40.7,86.4,40.7L86.4,40.7z M49.8,25.3c-0.7,0-1.3,0.6-1.3,1.3l-0.5,26.8l0.5,9.7
	c0,0.7,0.6,1.3,1.3,1.3c0.7,0,1.3-0.6,1.3-1.3v0l0.6-9.7l-0.6-26.8C51.1,25.8,50.5,25.3,49.8,25.3z M11.3,72
	c-1.4-0.3-1.8-0.5-1.8-1.1c0-0.4,0.3-0.8,1.3-0.8c0.8,0,1.4,0.3,2,0.9l1.3-1.2c-0.8-0.9-1.8-1.4-3.2-1.4c-1.7,0-3.2,1-3.2,2.6
	c0,1.7,1.1,2.3,2.8,2.6c1.7,0.4,2,0.6,2,1.2c0,0.7-0.5,1-1.5,1c-0.8,0-1.6-0.3-2.3-1l-1.3,1.1c0.7,1,2,1.6,3.4,1.6
	c2.4,0,3.5-1.1,3.5-2.8C14.3,72.8,12.7,72.3,11.3,72L11.3,72z M19.5,68.4c-2.4,0-3.8,1.9-3.8,4.6c0,2.7,1.4,4.6,3.8,4.6
	s3.9-1.9,3.9-4.6C23.3,70.3,21.9,68.4,19.5,68.4z M19.5,75.8c-1.4,0-2-1.2-2-2.8c0-1.6,0.6-2.8,2-2.8c1.4,0,2,1.2,2,2.8
	C21.5,74.5,20.9,75.8,19.5,75.8z M30.5,73.5c0,1.4-0.7,2.3-1.8,2.3c-1.1,0-1.8-0.9-1.8-2.3v-5h-1.8v5c0,2.6,1.4,4,3.6,4
	c2.3,0,3.6-1.5,3.6-4.1v-5h-1.8V73.5z M39.9,72.3c0,0.5,0,1.6,0,1.9c-0.1-0.2-0.4-0.7-0.6-1l-3.1-4.7h-1.7v8.9h1.7v-3.9
	c0-0.5,0-1.6,0-1.9c0.1,0.2,0.4,0.7,0.6,1l3.3,4.8h1.6v-8.9h-1.7L39.9,72.3L39.9,72.3L39.9,72.3z M46.7,68.5h-2.8v8.9h2.6
	c2.3,0,4.5-1.3,4.5-4.4C51.1,69.7,49.2,68.5,46.7,68.5z M46.6,75.7h-0.9v-5.4h0.9c1.9,0,2.6,0.9,2.6,2.7
	C49.3,74.6,48.4,75.7,46.6,75.7z M56.6,70.1c0.8,0,1.3,0.4,1.6,1l1.6-0.8c-0.6-1.2-1.6-2-3.2-2c-2.3,0-3.9,1.9-3.9,4.6
	c0,2.8,1.6,4.6,3.9,4.6c1.6,0,2.7-0.7,3.3-2l-1.5-0.9c-0.5,0.8-0.9,1.1-1.7,1.1c-1.3,0-2.1-1.2-2.1-2.8
	C54.5,71.3,55.2,70.1,56.6,70.1L56.6,70.1z M63.2,68.5h-1.8v8.9h5.3v-1.7h-3.6V68.5L63.2,68.5z M71.4,68.4c-2.4,0-3.9,1.9-3.9,4.6
	c0,2.7,1.4,4.6,3.9,4.6c2.4,0,3.8-1.9,3.8-4.6C75.2,70.3,73.8,68.4,71.4,68.4L71.4,68.4z M71.4,75.8c-1.4,0-2-1.2-2-2.8
	c0-1.6,0.6-2.8,2-2.8c1.4,0,2,1.2,2,2.8C73.4,74.5,72.8,75.8,71.4,75.8z M82.4,73.5c0,1.4-0.7,2.3-1.8,2.3c-1.1,0-1.8-0.9-1.8-2.3
	v-5H77v5c0,2.6,1.4,4,3.6,4c2.3,0,3.6-1.5,3.6-4.1v-5h-1.8V73.5L82.4,73.5z M89.2,68.5h-2.8v8.9H89c2.3,0,4.5-1.3,4.5-4.4
	C93.6,69.7,91.7,68.5,89.2,68.5L89.2,68.5z M89,75.7h-0.9v-5.4h0.9c1.9,0,2.6,0.9,2.6,2.7C91.7,74.6,90.9,75.7,89,75.7z"/>
</svg>
