<?xml version="1.0" encoding="utf-8"?>
<!-- Generator: Adobe Illustrator 27.0.0, SVG Export Plug-In . SVG Version: 6.00 Build 0)  -->
<svg version="1.1" id="Layer_1" xmlns="http://www.w3.org/2000/svg" xmlns:xlink="http://www.w3.org/1999/xlink" x="0px" y="0px"
	 viewBox="0 0 100 100" style="enable-background:new 0 0 100 100;" xml:space="preserve">
<style type="text/css">
	.st0{fill:#1ED760;}
</style>
<g>
	<path class="st0" d="M50,0C22.4,0,0,22.4,0,50s22.4,50,50,50s50-22.4,50-50S77.6,0,50,0z"/>
	<path d="M82,45c-1,0-1.7-0.3-2.6-0.8c-14.4-8.6-40-10.6-56.6-6c-0.7,0.2-1.6,0.5-2.6,0.5c-2.7,0-4.7-2.1-4.7-4.8
		c0-2.7,1.7-4.3,3.5-4.8c7.1-2.1,15-3.1,23.7-3.1c14.7,0,30.1,3.1,41.4,9.6c1.6,0.9,2.6,2.2,2.6,4.6C86.7,43,84.4,45,82,45L82,45z
		 M75.7,60.3c-1,0-1.8-0.5-2.5-0.8C60.6,52,41.9,49,25.1,53.6c-1,0.3-1.5,0.5-2.4,0.5c-2.2,0-3.9-1.8-3.9-3.9s1-3.6,3.1-4.2
		c5.6-1.6,11.3-2.7,19.7-2.7c13.1,0,25.7,3.2,35.7,9.2c1.6,1,2.3,2.2,2.3,4C79.6,58.6,77.9,60.3,75.7,60.3z M70.3,73.6
		c-0.8,0-1.4-0.3-2.2-0.7c-12.6-7.6-27.2-7.9-41.7-4.9c-0.8,0.2-1.8,0.5-2.4,0.5c-2,0-3.2-1.6-3.2-3.2c0-2.1,1.2-3.1,2.7-3.4
		c16.5-3.6,33.4-3.3,47.8,5.3c1.2,0.8,2,1.5,2,3.3S71.9,73.6,70.3,73.6L70.3,73.6z"/>
</g>
</svg>
