<?xml version="1.0" encoding="utf-8"?>
<!-- Generator: Adobe Illustrator 27.0.0, SVG Export Plug-In . SVG Version: 6.00 Build 0)  -->
<svg version="1.1" id="Layer_1" xmlns="http://www.w3.org/2000/svg" xmlns:xlink="http://www.w3.org/1999/xlink" x="0px" y="0px"
	 viewBox="0 0 100 100" style="enable-background:new 0 0 100 100;" xml:space="preserve">
<style type="text/css">
	.st0{fill:#1A1918;}
</style>
<g>
	<path class="st0" d="M63.3,26.8c-1.8-1.8-4.8-1.8-6.6,0L26.8,56.6c-3.7,3.7-9.6,3.7-13.3,0c-3.7-3.7-3.7-9.6,0-13.3l29.3-29.3
		c-3.7-3.7-9.6-3.7-13.3,0L6.9,36.7c-7.3,7.3-7.3,19.2,0,26.5c7.3,7.3,19.2,7.3,26.5,0l29.8-29.8C65.1,31.6,65.1,28.6,63.3,26.8
		L63.3,26.8z M73.2,16.8c-7.3-7.3-19.2-7.3-26.5,0L16.8,46.7c-1.8,1.8-1.8,4.8,0,6.6c1.8,1.8,4.8,1.8,6.6,0l29.8-29.8
		c3.7-3.7,9.6-3.7,13.3,0c1.8,1.8,4.8,1.8,6.6,0C75,21.6,75,18.7,73.2,16.8L73.2,16.8z M83.2,46.7c-1.8-1.8-4.8-1.8-6.6,0L46.7,76.5
		c-3.7,3.7-9.6,3.7-13.3,0c-1.8-1.8-4.8-1.8-6.6,0c-1.8,1.8-1.8,4.8,0,6.6c7.3,7.3,19.2,7.3,26.5,0l29.8-29.8
		C85,51.5,85,48.5,83.2,46.7L83.2,46.7z M93.1,36.7c-7.3-7.3-19.2-7.3-26.5,0L36.7,66.6c-1.8,1.8-1.8,4.8,0,6.6
		c1.8,1.8,4.8,1.8,6.6,0l29.8-29.8c3.7-3.7,9.6-3.7,13.3,0c3.7,3.7,3.7,9.6,0,13.3L57.2,85.9c3.7,3.7,9.6,3.7,13.3,0l22.6-22.6
		C100.4,55.9,100.4,44.1,93.1,36.7L93.1,36.7z"/>
</g>
</svg>
