<?xml version="1.0" encoding="utf-8"?>
<!-- Generator: Adobe Illustrator 27.0.0, SVG Export Plug-In . SVG Version: 6.00 Build 0)  -->
<svg version="1.1" id="Layer_1" xmlns="http://www.w3.org/2000/svg" xmlns:xlink="http://www.w3.org/1999/xlink" x="0px" y="0px"
	 viewBox="0 0 100 100" style="enable-background:new 0 0 100 100;" xml:space="preserve">
<style type="text/css">
	.st0{fill:#EB4823;}
	.st1{fill:#FFFBFA;}
</style>
<g>
	<path class="st0" d="M46.8,0c2.1,0,4.2,0,6.3,0c2.1,0.3,4.2,0.6,6.4,1C84,5.6,103.3,29,99.1,57.5C96.2,78,81.1,94,60.9,98.6
		c-2.6,0.6-5.2,0.9-7.8,1.4c-2.1,0-4.2,0-6.3,0c-1.8-0.3-3.6-0.4-5.4-0.8C21.4,95,8.2,83.1,2.1,63.4c-0.8-2.6-1.2-5.4-1.8-8.1
		c0-3.6,0-7.1,0-10.7c0.1-0.4,0.3-0.7,0.4-1.1C3.5,22.5,18.4,6.1,39,1.4C41.6,0.8,44.2,0.4,46.8,0z M31.3,50.3c-3.2,0-6.1,0-9,0.1
		c-0.3,0-0.9,0.9-0.9,1.3c-0.1,2.4-0.1,4.9,0,7.3c0.3,6.9,5.7,12.2,12.5,12.4c6.7,0.2,12.6-5,13-11.8c0.3-4.4,0.1-8.9,0.2-13.3
		c0-2.1,0-4.1,0.1-6.2c0.1-1.5,1.4-2.5,2.8-2.4c1.5,0,2.6,1.1,2.7,2.6c0.1,0.9-0.1,1.9,0.1,2.8c0.1,0.5,0.3,1.1,0.7,1.3
		c1.7,1,3.4,1.7,5.6,0.9c3.9-1.4,4-1.2,3.8-5.4c-0.3-7.2-6.1-12.5-13.4-12.3c-6.8,0.1-12.3,5.9-12.3,12.9c0,5.8,0,11.5,0,17.3
		c0,2.2-1.2,3.5-3,3.4c-1.7,0-2.8-1.3-2.8-3.4C31.3,55.4,31.3,53,31.3,50.3z M52.7,50.2c0,3.6-0.1,6.5,0,9.4
		c0.3,6.5,5.5,11.7,12.4,12c6.7,0.3,12.1-4.4,12.9-10.1c0.5-3.3,0.3-6.6,0.3-9.9c0-0.3-0.7-0.9-1.2-0.9c-2.5-0.1-5,0-7.5-0.1
		c-1.2,0-1.4,0.5-1.4,1.5c0,2.2,0,4.3,0,6.5c0,1.7-1.1,2.9-2.7,3c-1.6,0-2.8-1.2-2.9-3c0-1.5,0-3,0-4.5c0-1.1,0-2.2,0-3.7
		C59.3,51.6,56.1,53.2,52.7,50.2z"/>
	<path class="st1" d="M31.3,50.3c0,2.7,0,5.2,0,7.6c0,2.1,1.1,3.4,2.8,3.4c1.8,0,3-1.3,3-3.4c0-5.8,0-11.5,0-17.3
		c0-7.1,5.5-12.8,12.3-12.9c7.3-0.1,13.1,5.2,13.4,12.3c0.2,4.2,0.1,4-3.8,5.4c-2.2,0.8-3.9,0-5.6-0.9c-0.4-0.2-0.6-0.9-0.7-1.3
		c-0.1-0.9,0-1.9-0.1-2.8c-0.1-1.5-1.2-2.6-2.7-2.6c-1.5,0-2.7,0.9-2.8,2.4c-0.1,2-0.1,4.1-0.1,6.2c0,4.4,0.1,8.9-0.2,13.3
		c-0.5,6.9-6.3,12-13,11.8c-6.8-0.2-12.2-5.5-12.5-12.4c-0.1-2.4-0.1-4.9,0-7.3c0-0.5,0.6-1.3,0.9-1.3
		C25.2,50.2,28.1,50.3,31.3,50.3z"/>
	<path class="st1" d="M52.7,50.2c3.4,3,6.5,1.5,10,0.3c0,1.4,0,2.5,0,3.7c0,1.5,0,3,0,4.5c0.1,1.8,1.3,3,2.9,3c1.5,0,2.7-1.2,2.7-3
		c0-2.2,0-4.3,0-6.5c0-1,0.2-1.5,1.4-1.5c2.5,0.1,5,0,7.5,0.1c0.4,0,1.2,0.6,1.2,0.9c0,3.3,0.2,6.7-0.3,9.9
		c-0.9,5.7-6.2,10.5-12.9,10.1c-6.9-0.4-12-5.6-12.4-12C52.6,56.7,52.7,53.8,52.7,50.2z"/>
</g>
</svg>
