<?xml version="1.0" encoding="utf-8"?>
<!-- Generator: Adobe Illustrator 27.0.0, SVG Export Plug-In . SVG Version: 6.00 Build 0)  -->
<svg version="1.1" id="Layer_1" xmlns="http://www.w3.org/2000/svg" xmlns:xlink="http://www.w3.org/1999/xlink" x="0px" y="0px"
	 viewBox="0 0 100 100" style="enable-background:new 0 0 100 100;" xml:space="preserve">
<style type="text/css">
	.st0{fill:#FE6719;}
</style>
<g>
	<path class="st0" d="M91,96.7c-1.9-1.1-3.8-2.1-5.6-3.1c-11.5-6.4-23.1-12.9-34.6-19.4c-0.6-0.3-1-0.3-1.6,0
		C36.1,81.6,22.9,89,9.8,96.3C9,96.8,9,96.8,9,95.8c0-16.5,0-33,0-49.5c0-0.7,0.1-0.9,0.8-0.9c26.8,0,53.6,0,80.5,0
		c0.6,0,0.8,0.1,0.8,0.8c0,16.6,0,33.2,0,49.8C91,96.2,91,96.4,91,96.7z"/>
	<path class="st0" d="M50,14.3c-13.3,0-26.7,0-40,0c-1.2,0-1,0.2-1-1c0-3.1,0-6.2,0-9.3c0-0.5,0.1-0.8,0.7-0.8c26.9,0,53.8,0,80.7,0
		C91,3.3,91.1,3.5,91,4c0,3.2,0,6.4,0,9.6c0,0.6-0.2,0.8-0.8,0.8C76.9,14.3,63.4,14.3,50,14.3z"/>
	<path class="st0" d="M50.1,35.4c-13.4,0-26.8,0-40.2,0c-0.7,0-0.9-0.1-0.9-0.9c0-3.1,0-6.3,0-9.4c0-0.6,0.2-0.8,0.8-0.8
		c26.8,0,53.7,0,80.5,0c0.6,0,0.8,0.1,0.8,0.8c0,3.1,0,6.3,0,9.4c0,0.7-0.2,0.9-0.9,0.9C76.8,35.4,63.4,35.4,50.1,35.4z"/>
</g>
</svg>
