<?xml version="1.0" encoding="utf-8"?>
<!-- Generator: Adobe Illustrator 27.0.0, SVG Export Plug-In . SVG Version: 6.00 Build 0)  -->
<svg version="1.1" id="Layer_1" xmlns="http://www.w3.org/2000/svg" xmlns:xlink="http://www.w3.org/1999/xlink" x="0px" y="0px"
	 viewBox="0 0 100 100" style="enable-background:new 0 0 100 100;" xml:space="preserve">
<style type="text/css">
	.st0{fill-rule:evenodd;clip-rule:evenodd;}
</style>
<path class="st0" d="M52.1,0.5c-1.3-0.7-2.9-0.7-4.2,0L7,21.9c-1.5,0.8-2.4,2.3-2.4,4v48.1c0,1.7,0.9,3.2,2.4,4l17.3,9.1
	c1.1,0.6,2.5,0.7,3.7,0.2c1.2-0.4,2.2-1.4,2.6-2.6l13.5-33.1c0.6-1.4,0.4-3-0.4-4.3c-0.8-1.3-2.3-2-3.8-2h-8.1c-2.5,0-4.5-2-4.5-4.5
	c0-2.5,2-4.5,4.5-4.5h59.1c2.5,0,4.5-2,4.5-4.5v-5.9c0-1.7-0.9-3.2-2.4-4L52.1,0.5z M58.1,45.5c-1.8,0-3.5,1.1-4.2,2.8l-16.7,41
	c-0.9,2.2,0,4.7,2.1,5.7l8.6,4.5c1.3,0.7,2.9,0.7,4.2,0L93,78.1c1.5-0.8,2.4-2.3,2.4-4V50c0-2.5-2-4.5-4.5-4.5H58.1z"/>
</svg>
