<?xml version="1.0" encoding="utf-8"?>
<!-- Generator: Adobe Illustrator 27.0.0, SVG Export Plug-In . SVG Version: 6.00 Build 0)  -->
<svg version="1.1" id="Layer_1" xmlns="http://www.w3.org/2000/svg" xmlns:xlink="http://www.w3.org/1999/xlink" x="0px" y="0px"
	 viewBox="0 0 100 100" style="enable-background:new 0 0 100 100;" xml:space="preserve">
<style type="text/css">
	.st0{fill:#F9E3AE;}
	.st1{fill:#EFC88E;}
	.st2{fill:#B5C4E0;}
	.st3{fill:#8D6C9F;}
	.st4{fill:#F9DD8F;}
	.st5{fill:#ACB7D0;}
</style>
<g>
	<path class="st0" d="M78.8,98.1H21.2c-10.6,0-19.2-8.6-19.2-19.2V21.2c0-10.6,8.6-19.2,19.2-19.2h57.7c10.6,0,19.2,8.6,19.2,19.2
		v57.7C98.1,89.5,89.5,98.1,78.8,98.1z"/>
	<path class="st1" d="M48.1,12.1c-0.7-0.8-1.9-0.9-2.7-0.2l-2.9,2.4c-6.2-6.4-16.4-7-23.3-1.1c-3.5,3-5.7,7.1-6.1,11.7
		c-0.4,4.1,0.8,8.2,3.2,11.5l-2.5,2.1c-0.8,0.7-0.9,1.9-0.2,2.7c0.4,0.5,0.9,0.7,1.5,0.7c0.4,0,0.9-0.1,1.2-0.4l31.7-26.6
		C48.6,14.1,48.8,12.9,48.1,12.1z"/>
	<path class="st2" d="M14.2,35.2l23.4-19.7l0,0C32.2,9,22.5,8.2,16,13.6l0,0C9.6,19.1,8.7,28.7,14.2,35.2L14.2,35.2z"/>
	<path class="st3" d="M43.3,11.1c-0.7-0.8-1.9-0.9-2.7-0.2l-2.6,2.2c-6.2-6.1-16.3-6.7-23.1-0.9c-3.5,3-5.7,7.1-6.1,11.7
		c-0.4,4,0.7,8,3,11.3l-2.8,2.4c-0.8,0.7-0.9,1.9-0.2,2.7c0.4,0.5,0.9,0.7,1.5,0.7c0.4,0,0.9-0.1,1.2-0.5L43,13.8
		C43.8,13.1,43.9,11.9,43.3,11.1z M17.3,15.1c2.5-2.1,5.6-3.1,8.6-3.1c3.2,0,6.4,1.1,8.9,3.4l-20.3,17
		C11.1,26.8,12.1,19.4,17.3,15.1z"/>
	<path class="st4" d="M86.5,77.6c-26.9-5.3-52.7-4.7-73.1,0c0,0-1.7,6.9-1.9,17.9c2.8,1.6,6.1,2.6,9.6,2.6h57.7c3.5,0,6.8-1,9.6-2.6
		C88.3,84.5,86.5,77.6,86.5,77.6z"/>
	<path class="st1" d="M90.9,77.1c-0.3-1.1-1-1.9-1.5-2.4c0.2-4.9-3.2-6.9-3.2-6.9S88,64.3,88,56.9c0-7.3-4.3-21.3-16.2-26.2
		l4.5,45.2c-22.5-3.3-43.7-2.4-61.2,1.4C15,77.6,15,78.1,15,78.6c0.2,3.9,1.7,7,4.7,7.2c3.4,0.2,6.1-1.4,8.2-6.3
		c14.1-1.8,34.5-1.8,44.1,1.1c5.2,1.6,4.3,5.5,3,7.1c6.2,1.2,8.6,5.6,9.1,9.8l8-4.9C92.2,87.1,92,80.7,90.9,77.1z"/>
	<path class="st5" d="M82,69.9c-0.7-0.2-1.5-0.3-2.2-0.3c1.9-2.9,2.9-7.4,2.9-11.9C82.5,38.4,68.2,25,51,25
		c-17.2,0-33.7,15.3-33.7,31.7c0,5.6,1,10.6,2.8,14.2c0,0,0,0,0,0c-3.3,0.1-5.7,1.7-5.7,4.3c0.1,2.6,1.4,7.4,4.7,7.4
		c2.6,0,4.5-3.2,4.1-6.3l7.3-1.5c0,0,0,0,0,0c11.6-1.2,24.2-1.3,37.5,0c0,0-0.1,0-0.1,0.1c5.2,0.5,6.7,0.9,8.5,1.2
		c0.3,3.5,1.5,5.2,4,5.2C83.7,81.3,89.8,72.4,82,69.9z"/>
	<path class="st3" d="M43.2,60.7c0.8-3.7,8.3-1.1,12.4-1.4c1.9-0.1,3.3-3.5,5.6-3.2c2.3,0.3,3.8,7.6-4.1,9.2
		C50.8,66.6,42.7,62.8,43.2,60.7z"/>
	<ellipse transform="matrix(0.9725 -0.2329 0.2329 0.9725 -9.6417 16.4832)" class="st3" cx="65" cy="49.1" rx="1.9" ry="3.4"/>
	<ellipse transform="matrix(0.9725 -0.2329 0.2329 0.9725 -11.6789 9.9652)" class="st3" cx="36.4" cy="54.4" rx="1.9" ry="3.3"/>
	<path class="st3" d="M78.8,100H21.2C9.5,100,0,90.5,0,78.8V21.2C0,9.5,9.5,0,21.2,0h57.7C90.5,0,100,9.5,100,21.2v57.7
		C100,90.5,90.5,100,78.8,100z M21.2,3.8c-9.5,0-17.3,7.8-17.3,17.3v57.7c0,9.5,7.8,17.3,17.3,17.3h57.7c9.5,0,17.3-7.8,17.3-17.3
		V21.2c0-9.5-7.8-17.3-17.3-17.3H21.2z"/>
	<path class="st3" d="M31.6,90.7c-1,0-1.8-0.8-1.9-1.8l-0.3-3.8c-0.1-1.1,0.7-2,1.8-2.1s2,0.7,2.1,1.8l0.3,3.8
		c0.1,1.1-0.7,2-1.8,2.1C31.7,90.7,31.7,90.7,31.6,90.7z"/>
	<path class="st3" d="M40.9,90.1c-1,0-1.9-0.8-1.9-1.8l-0.2-3.8c0-1.1,0.8-2,1.8-2c1,0,2,0.8,2,1.8l0.2,3.8
		C42.8,89.2,42,90.1,40.9,90.1C40.9,90.1,40.9,90.1,40.9,90.1z"/>
	<path class="st3" d="M50.2,89.9c-1.1,0-1.9-0.9-1.9-1.9l0-3.8c0-1.1,0.8-1.9,1.9-1.9c0,0,0,0,0,0c1.1,0,1.9,0.9,1.9,1.9l0,3.8
		C52.1,89,51.3,89.9,50.2,89.9C50.2,89.9,50.2,89.9,50.2,89.9z"/>
	<path class="st3" d="M59.5,90.1C59.4,90.1,59.4,90.1,59.5,90.1c-1.1,0-2-0.9-1.9-2l0.1-3.8c0-1.1,0.9-1.9,2-1.8
		c1.1,0,1.9,0.9,1.8,2l-0.1,3.8C61.4,89.2,60.5,90.1,59.5,90.1z"/>
	<path class="st3" d="M68.7,90.6c-0.1,0-0.1,0-0.2,0c-1.1-0.1-1.8-1-1.7-2.1l0.3-3.8c0.1-1.1,1-1.8,2.1-1.7c1.1,0.1,1.8,1,1.7,2.1
		l-0.3,3.8C70.6,89.9,69.7,90.6,68.7,90.6z"/>
	<path class="st3" d="M88.4,77.4c0-0.1-0.1-0.2-0.1-0.2c-0.1-0.3-0.3-0.5-0.5-0.7c-0.1-0.1-0.3-0.2-0.4-0.2c0.1-0.3,0.1-0.5,0.2-0.8
		c0.5-3.4-1.3-6.2-4.9-7.4c1.2-2.9,1.9-6.5,1.9-10.4C84.4,37.9,69.9,23.1,51,23.1c-18.3,0-35.6,16.4-35.6,33.7c0,4.9,0.7,9.2,2,12.7
		c-3.1,0.9-5,3-4.9,5.9c0,0.3,0,0.6,0.1,0.9c-0.2,0.1-0.4,0.2-0.5,0.4c-0.2,0.2-0.3,0.4-0.4,0.6c0,0.1-0.1,0.2-0.1,0.2
		c-0.2,0.6-1.7,6.6-2,18.1c0,1.1,0.8,1.9,1.9,2c0,0,0,0,0,0c1,0,1.9-0.8,1.9-1.9c0.1-6.2,0.6-10.7,1.1-13.5c1.1,1.5,2.6,2.6,4.6,2.6
		c1.5,0,3-0.7,4.2-2c1.1-1.2,1.7-2.9,1.9-4.6l5-1c11.9-1.4,24.6-1.5,37.3-0.1c0.1,0,0.1,0,0.2,0c0.5,0,0.9,0.1,1.3,0.1
		c1.3,0.2,2.7,0.3,4,0.5c0.6,0.1,1.1,0.2,1.6,0.3c0.7,3.6,2.6,5.4,5.7,5.4c0,0,0,0,0,0c1.6,0,3.4-1.1,4.8-2.7
		c0.5,2.6,1.3,7.6,1.4,15.1c0,1.1,0.9,1.9,1.9,1.9c0,0,0,0,0,0c1.1,0,1.9-0.9,1.9-1.9C90.3,84,88.6,78,88.4,77.4z M22.9,74.5
		c-1,0.2-1.7,1.2-1.5,2.2c0.2,1.2-0.2,2.5-0.9,3.4c-0.2,0.3-0.7,0.7-1.2,0.7c-1.6,0-2.8-3.3-2.8-5.5c0-1.6,2-2.3,3.8-2.3
		c0.4,0,0.7,0,1,0c1.4,0,2.6,0.2,4.4,1.1L22.9,74.5z M67.4,72.9c-12.4-1.3-24.7-1.3-36.3-0.1c-4.2-3-6.7-3.8-9.8-3.9
		c-1.4-3.2-2.1-7.4-2.1-12.3c0-15.3,15.4-29.8,31.7-29.8c16.8,0,29.6,13.2,29.8,30.8c0,3.9-0.8,7.5-2.1,10
		C74.7,68.1,70.8,70.7,67.4,72.9z M80.4,79.4c-0.8,0-1.8,0-2.1-3.4c-0.1-0.9-0.7-1.6-1.6-1.7c-0.4-0.1-0.8-0.1-1.2-0.2
		c-0.6-0.1-1.2-0.2-2-0.4c3-1.7,5.7-2.7,8-1.9c2.4,0.8,2.6,2.1,2.4,3.1C83.5,77.2,81.1,79.4,80.4,79.4z"/>
</g>
</svg>
