<?xml version="1.0" encoding="utf-8"?>
<!-- Generator: Adobe Illustrator 27.0.0, SVG Export Plug-In . SVG Version: 6.00 Build 0)  -->
<svg version="1.1" id="Layer_1" xmlns="http://www.w3.org/2000/svg" xmlns:xlink="http://www.w3.org/1999/xlink" x="0px" y="0px"
	 viewBox="0 0 100 100" style="enable-background:new 0 0 100 100;" xml:space="preserve">
<style type="text/css">
	.st0{fill:#32BB9A;}
	.st1{fill:#ED3287;}
	.st2{fill:#ED3288;}
</style>
<g>
	<path class="st0" d="M63.4,52.7c-2.8-3-4.7-6-5.8-9.6c-1.3,1.1-2.4,2.2-3.9,2.8c-1.4,0.7-2.9,1.3-4.5,1.1c-1.4-0.1-1.9,0.6-2.2,1.7
		c-0.4,1.6-0.4,3.2-0.2,4.9c0.1,0.5,0.3,1-0.1,1.6c-1.9-1.9-3.3-4-4.2-6.4c-1.7-4.3-2.8-8.7-1.4-13.2c1.5-4.8,4.8-7.7,9.7-8.7
		c2.4-0.5,4.8,0,6.7,1.6c0.9,0.8,1.2,0.5,1.7-0.2c1.7-2.2,4-3.7,6.7-4.4c6.4-1.5,11.7,3.7,10.4,10c-1.2,5.8-5.7,9.7-11.6,9.9
		c-0.8,0-1.1,0.3-1.4,1c-0.8,2-0.6,4-0.4,6.1C63.1,51.4,63.3,51.8,63.4,52.7z"/>
	<path class="st1" d="M87,45.2c-0.7,0.2-1.3,0.4-1.8,0.6c-4,1.3-7.5-1.3-7-5.5c0.5-4.1,1.4-8.2,2.1-12.3c0.1-0.7,0.5-0.9,1.2-0.9
		c1.7,0,3.4,0,5.1,0c0.9,0,1,0.3,0.9,1.1c-0.6,2.9-1.1,5.8-1.6,8.7c-0.1,0.8-0.5,1.8,0.8,2.1c1.2,0.2,1.7-0.6,1.9-1.6
		c0.5-2.9,1.1-5.9,1.5-8.9c0.2-1.2,0.6-1.5,1.7-1.4c1.5,0.1,3.1,0.1,4.6,0c0.8,0,1.1,0.2,1,1.1c-1.1,5.7-2,11.5-3.1,17.2
		c-1.2,6-7.1,10.2-13.1,9.8c-2.5-0.2-2.8-0.5-2.3-2.9c0-0.2,0.1-0.4,0.1-0.6c0.2-1,0.1-2.2,0.7-2.9c0.6-0.7,1.7,0.2,2.6,0.1
		C84.6,48.8,85.9,47.4,87,45.2z"/>
	<path class="st2" d="M29.8,39.2c-0.4,2.3-0.8,4.5-1.2,6.6c-0.1,0.8-0.8,0.7-1.4,0.8c-5.2,0.4-9-3.3-8.7-8.5
		c0.4-7.1,7.4-12.6,14.3-11.1c4.1,0.9,6.5,4.2,5.9,8.3c-0.5,3.3-1.2,6.6-1.8,9.9c-0.1,0.7-0.4,1-1.1,1c-1.7,0-3.5-0.1-5.2,0
		c-1,0-1-0.5-0.9-1.2c0.4-2.2,0.9-4.4,1.3-6.6c0.1-0.3,0.1-0.6,0.2-0.9c0.3-2-0.3-3.2-1.6-3.4c-1.3-0.3-3,0.8-3.6,2.3
		c-0.3,0.8-0.3,1.7,0.2,2.4c0.6,0.8,1.4,1,2.4,0.7C29,39.4,29.3,39.4,29.8,39.2z"/>
	<path class="st2" d="M13.7,20.1c2.8,0,5.7,0,8.5,0c1.1,0,1.2,0.3,1,1.3c-0.4,1.7-0.7,3.4-0.9,5.1c-0.1,0.9-0.5,1.2-1.4,1.2
		c-1.6,0-3.6-0.7-4.6,0.3c-0.9,0.9-0.8,2.9-1,4.3c-0.8,4.1-1.6,8.3-2.3,12.4c-0.2,1.2-0.7,1.7-1.9,1.6c-1.6-0.1-3.2-0.1-4.7,0
		c-1.3,0.1-1.4-0.4-1.2-1.5c1-5,2-10.1,3-15.2c0.1-0.3,0.1-0.6,0.1-0.9c0.2-0.8,0-1.1-0.9-1.1c-1.2,0.1-2.4,0-3.6,0
		c-0.8,0-1.3,0-1-1.1c0.5-1.7,0.8-3.5,1-5.3c0.1-0.9,0.5-1.2,1.4-1.2C8,20.2,10.8,20.1,13.7,20.1z"/>
	<path class="st1" d="M86.1,78.3c-3.5,0-3.5,0-2.9-3.5c0.4-2.3,0.7-4.6,1.1-6.8c0.1-0.8,0.4-1.8-0.8-2c-1.1-0.2-1.6,0.6-1.8,1.6
		c-0.5,3.2-1.1,6.3-1.6,9.5c-0.1,1-0.5,1.3-1.5,1.3c-1.6-0.1-3.2-0.1-4.7,0c-0.9,0-1.2-0.2-1-1.1c0.6-3.1,1-6.2,1.6-9.3
		c1.1-6.1,6.9-10.1,12.3-8.7c3.1,0.8,4.9,3.2,4.9,6.5c0,3-0.9,5.8-1.3,8.7c0,0.2-0.1,0.3-0.1,0.5C89.6,78.3,89.6,78.3,86.1,78.3z"/>
	<path class="st2" d="M31.5,53.6c3.7,0,3.7,0,3.1,3.7c-0.1,0.4-0.1,0.7-0.2,1.1c-0.4,2.3-0.4,2.3,1.9,2.5c0.7,0,0.9,0.2,0.8,0.9
		c-0.3,1.9-0.6,3.7-0.9,5.6c-0.1,1-0.7,1.1-1.5,1.1c-0.8,0-2-0.5-2,1.1c0,1.3,0.2,2.5,1.8,2.7c1,0.1,1.1,0.6,0.9,1.4
		c-0.3,1.7-0.6,3.4-0.8,5.1c-0.1,0.9-0.4,1.1-1.3,1.1c-5.1,0.1-8.6-4.1-7.9-9.5c0.7-5.1,1.6-10.2,2.3-15.3c0.2-1.2,0.6-1.6,1.8-1.5
		C30.1,53.7,30.8,53.6,31.5,53.6z"/>
	<path class="st1" d="M65.3,56.8c-3.8-0.1-6.9,1.4-9.3,4.2c-0.7,0.8-1.2,1.3-2.1,0.3c-0.4-0.5-1.2-0.7-1.8-0.9
		c-7-2.2-14.8,3.5-14.8,10.9c0,4.1,2.6,7.3,6.6,8.1c3.9,0.8,7.2-0.5,9.9-3.2c1.3-1.3,2.2-2.3,3.9-0.6c0.2,0.2,0.6,0.2,0.9,0.4
		c6.3,2.1,13.3-2.3,14.7-9.2C74.2,61.4,70.6,56.9,65.3,56.8z M46.9,72.5c-1.4,0-2.4-0.9-2.4-2.3c0-1.7,1.4-3.3,3.1-3.3
		c1.4,0,2.4,0.9,2.4,2.3C50.1,70.8,48.6,72.5,46.9,72.5z M62.6,69.4c-1.3-0.1-2.3-1.2-2.2-2.6c0.1-1.7,1.8-3.2,3.4-3.1
		c1.3,0.1,2.3,1.2,2.2,2.4C66,67.9,64.2,69.5,62.6,69.4z"/>
</g>
</svg>
