<?xml version="1.0" encoding="utf-8"?>
<!-- Generator: Adobe Illustrator 27.0.0, SVG Export Plug-In . SVG Version: 6.00 Build 0)  -->
<svg version="1.1" id="Layer_1" xmlns="http://www.w3.org/2000/svg" xmlns:xlink="http://www.w3.org/1999/xlink" x="0px" y="0px"
	 viewBox="0 0 100 100" style="enable-background:new 0 0 100 100;" xml:space="preserve">
<style type="text/css">
	.st0{fill-rule:evenodd;clip-rule:evenodd;}
</style>
<path class="st0" d="M18.2,0C8.1,0,0,8.1,0,18.2v63.6c0,10,8.1,18.2,18.2,18.2h63.6c10,0,18.2-8.1,18.2-18.2V18.2
	C100,8.1,91.9,0,81.8,0H18.2z M18.2,22.7c-2.5,0-4.5,2-4.5,4.5v13.6c0,2.5,2,4.5,4.5,4.5H25v31.8c0,2.5,2,4.5,4.5,4.5h13.6
	c2.5,0,4.5-2,4.5-4.5V45.5h6.8c2.5,0,4.5-2,4.5-4.5V27.3c0-2.5-2-4.5-4.5-4.5H18.2z M63.6,27.3c0-2.5,2-4.5,4.5-4.5h13.6
	c2.5,0,4.5,2,4.5,4.5v27.3c0,2.5-2,4.5-4.5,4.5H68.2c-2.5,0-4.5-2-4.5-4.5V27.3z M68.2,61.4c-2.5,0-4.5,2-4.5,4.5v11.4
	c0,2.5,2,4.5,4.5,4.5h13.6c2.5,0,4.5-2,4.5-4.5V65.9c0-2.5-2-4.5-4.5-4.5H68.2z"/>
</svg>
