<?xml version="1.0" encoding="utf-8"?>
<!-- Generator: Adobe Illustrator 27.0.0, SVG Export Plug-In . SVG Version: 6.00 Build 0)  -->
<svg version="1.1" id="Layer_1" xmlns="http://www.w3.org/2000/svg" xmlns:xlink="http://www.w3.org/1999/xlink" x="0px" y="0px"
	 viewBox="0 0 100 100" style="enable-background:new 0 0 100 100;" xml:space="preserve">
<style type="text/css">
	.st0{fill:#51AF33;}
	.st1{fill:#FFFFFF;}
</style>
<g>
	<path class="st0" d="M97.8,46c-5.1-8.5-8.8-9.5-12-10.4c-2.7-0.8-5.1-1.5-9.6-9.1C72.9,21,68.8,16.1,64,12c-6.1-5-10.4-6.1-13-6.1
		c-1.7,0-3.3,0.5-4.7,1.4l-2.1,1.5c-0.6-0.2-1.2-0.3-1.9-0.3c-1,0-2,0.3-2.9,0.9c-1,0.9-1.5,2.2-1.3,3.6c0.5,2.2,1.6,4.3,3.2,5.9
		c0.7,0.8,1.5,1.8,2.5,2.7c-13.3-2.4-26.8,2.7-35.2,13.3H8c-2.8,0-5.3,1.4-6.8,3.7C0,40.4-0.3,42.8,0.4,45c0.4,1.2,1,2.2,1.8,3.1
		c-5.2,19.5,6.3,39.5,25.7,44.7c16.3,4.4,33.4-2.9,41.5-17.7c0.6,0,1.2,0,1.9,0c1.5,0,3.1-0.3,4.5-0.9c1.6-0.7,2.6-2.3,2.8-4
		c0.1-1.8-0.7-3.5-2.2-4.4c-1-0.6-2-1.1-3.1-1.5c0.2-0.8,0.3-1.7,0.4-2.5c2.5,0.8,5.2,1.2,7.9,1.1c1.1,0,2.4,0,4-0.2
		c8.7-0.5,12.2-3.8,13.6-6.4C100.2,54.5,100.9,50.9,97.8,46L97.8,46z"/>
	<path class="st1" d="M95.7,47.5c-9-15-12.1-4.2-21.8-19.6C66.3,15.4,54.4,6.5,48.7,9.1c-0.2,0.1-0.3,0.3-0.2,0.5
		c0,0.1,0.1,0.2,0.2,0.2c5.7,2.3,17.8,12.5,23.2,22.7c0.1,0.1,0,0.3-0.1,0.3c-0.1,0.1-0.3,0-0.3-0.1l0,0
		c-6.5-8.3-26.7-23.9-30.1-21.1c-2.9,2.3,12.3,16.7,24.7,22.9c0.3,0.1,0.4,0.5,0.3,0.7c0,0,0,0,0,0c-0.6,1-1.9,2.5-5.7,2.4
		c-6.5,0-12.7-9.6-26.9-9.8C25,27.8,16.7,31.5,11,38.1c-0.1,0.1-0.3,0.1-0.4,0c-2.5-1.3-5.6-0.5-7.1,1.8c-1.5,2.4-0.8,5.6,1.6,7.2
		c0.2,0.1,0.3,0.4,0.2,0.6c-1,3.2-1.6,6.6-1.6,9.9C3.9,73.8,17,86.9,33.1,86.9c5.6,0.1,11-1.5,15.7-4.5c4.5-2.7,7.8-6.3,7-8.9
		c-1.2-3.8-6.7-2.5-12.2-0.4c-0.2,0.1-0.4-0.1-0.4-0.2c0-0.1,0-0.2,0.1-0.3c6.5-6.7,6.3-17.5-0.5-24c-3.2-3-7.4-4.7-11.8-4.7
		C24,43.4,17.6,47.5,15.1,54c-0.1,0.2-0.3,0.3-0.5,0.3c-0.2-0.1-0.3-0.3-0.3-0.5l0,0c1.8-8.1,8.7-14,17-14.4
		c10.2-0.6,18.9,7.1,19.5,17.3c0.2,3.8-0.7,7.5-2.7,10.8c-0.2,0.2-0.1,0.6,0.1,0.7c0.2,0.1,0.4,0.1,0.6,0c2-1.1,3.8-2.6,5.3-4.4
		c0.1-0.1,0.3-0.1,0.4,0c0,0,0,0,0,0c9.2,10,20.9,10.2,21.2,6.3c0.4-4.4-11-1.6-11.7-12.6c0-0.1,0.1-0.3,0.3-0.3
		c0.1,0,0.1,0,0.2,0.1c1,0.8,2.5,0.7,3.4-0.3c0.3-0.4,0.5-0.8,0.5-1.2c0-0.1,0.2-0.2,0.3-0.2c0,0,0.1,0,0.1,0
		c4.9,4.8,9.9,5.1,16.6,4.6C95.1,59.6,99.7,54.3,95.7,47.5z M86.9,47.5c-1.3-0.1-2.5-1-2.8-2.3c-0.3-1.1,0.4-2.1,1.4-2.4
		c0.2,0,0.4-0.1,0.5-0.1c1.4,0.1,2.6,1.1,2.8,2.4c0.3,1.1-0.4,2.1-1.4,2.4c-0.2,0-0.4,0.1-0.6,0L86.9,47.5z"/>
</g>
</svg>
