<?xml version="1.0" encoding="utf-8"?>
<!-- Generator: Adobe Illustrator 27.0.0, SVG Export Plug-In . SVG Version: 6.00 Build 0)  -->
<svg version="1.1" id="Layer_1" xmlns="http://www.w3.org/2000/svg" xmlns:xlink="http://www.w3.org/1999/xlink" x="0px" y="0px"
	 viewBox="0 0 100 100" style="enable-background:new 0 0 100 100;" xml:space="preserve">
<style type="text/css">
	.st0{fill:#4F59CA;}
	.st1{fill:#7B82EA;}
	.st2{fill:#4C53BB;}
	.st3{fill:#FFFFFF;}
	.st4{opacity:0.2;enable-background:new    ;}
</style>
<g>
	<circle class="st0" cx="87.2" cy="23.6" r="10.2"/>
	<path class="st0" d="M85,82.2h-1.6c-8.4,0-15.2-6.8-15.2-15.2V43c0-2.4,2-4.3,4.3-4.3h23.3c2.4,0,4.3,2,4.3,4.3v24
		C100.2,75.4,93.4,82.2,85,82.2z"/>
	<circle class="st1" cx="55.1" cy="18.9" r="14.7"/>
	<path class="st1" d="M55.2,95.8h-2.5c-13.2,0-24-10.8-24-24V42.4c0-2,1.7-3.6,3.6-3.6h43.3c2,0,3.6,1.7,3.6,3.6v29.5
		C79.1,85.1,68.4,95.8,55.2,95.8z"/>
	<path class="st2" d="M46.6,76.3H4.9c-2.8,0-5-2.3-5-5V30.2c0-2.8,2.3-5,5-5h41.7c2.8,0,5,2.3,5,5v41.1C51.6,74,49.4,76.3,46.6,76.3
		z"/>
	<g>
		<path class="st3" d="M22.9,41.3h-8.2v-4.3h21.6v4.3h-8.2v23.8H23L22.9,41.3L22.9,41.3z"/>
	</g>
	<path class="st4" d="M51.7,38.8v32.4c0,2.8-2.3,5-5,5H29l1.2,4.5h20.7c2.8,0,5-2.3,5-5V38.8H51.7z"/>
</g>
</svg>
