<?xml version="1.0" encoding="utf-8"?>
<!-- Generator: Adobe Illustrator 27.0.0, SVG Export Plug-In . SVG Version: 6.00 Build 0)  -->
<svg version="1.1" id="Layer_1" xmlns="http://www.w3.org/2000/svg" xmlns:xlink="http://www.w3.org/1999/xlink" x="0px" y="0px"
	 viewBox="0 0 100 100" style="enable-background:new 0 0 100 100;" xml:space="preserve">
<style type="text/css">
	.st0{fill:url(#path2995-1-0_00000152955835827203602270000006272361215292710054_);}
	.st1{fill:#C8DAEA;}
	.st2{fill:#A9C9DD;}
	.st3{fill:url(#path2991_00000023247470202388022750000002367237543623719839_);}
</style>
<g>
	
		<linearGradient id="path2995-1-0_00000060738593930385779130000011930324872412958337_" gradientUnits="userSpaceOnUse" x1="-705.0109" y1="-439.433" x2="-706.2505" y2="-436.5408" gradientTransform="matrix(20 0 0 20 14164.333 8804.333)">
		<stop  offset="0" style="stop-color:#37AEE2"/>
		<stop  offset="1" style="stop-color:#1E96C8"/>
	</linearGradient>
	<path id="path2995-1-0" style="fill:url(#path2995-1-0_00000060738593930385779130000011930324872412958337_);" d="M99.2,49.6
		C99.2,77,77,99.2,49.6,99.2S0,77,0,49.6S22.2,0,49.6,0S99.2,22.2,99.2,49.6z"/>
	<path id="path2993" class="st1" d="M40.5,72.3c-1.6,0-1.3-0.6-1.9-2.1l-4.7-15.5l29.3-18.3l3.4,0.9L63.7,45L40.5,72.3z"/>
	<path id="path2989" class="st2" d="M40.5,72.3c1.2,0,1.8-0.6,2.5-1.2c1.1-1,14.9-14.5,14.9-14.5l-8.5-2.1l-7.9,5l-1,12.4V72.3z"/>
	
		<linearGradient id="path2991_00000149383227689983068420000011552440570683788728_" gradientUnits="userSpaceOnUse" x1="16.6913" y1="-125.9611" x2="19.7902" y2="-121.0029" gradientTransform="matrix(3.3333 0 0 3.3333 -2.3333 471)">
		<stop  offset="0" style="stop-color:#EFF7FC"/>
		<stop  offset="1" style="stop-color:#FFFFFF"/>
	</linearGradient>
	<path id="path2991" style="fill:url(#path2991_00000149383227689983068420000011552440570683788728_);" d="M41.3,59.7l20,14.8
		c2.3,1.2,3.9,0.6,4.5-2.1L74,34c0.8-3.3-1.3-4.8-3.5-3.8L22.7,48.5c-3.3,1.3-3.2,3.1-0.6,3.9l12.3,3.8l28.4-17.9
		c1.3-0.8,2.6-0.4,1.6,0.5L41.3,59.7z"/>
</g>
</svg>
