<?xml version="1.0" encoding="utf-8"?>
<!-- Generator: Adobe Illustrator 27.0.0, SVG Export Plug-In . SVG Version: 6.00 Build 0)  -->
<svg version="1.1" id="Layer_1" xmlns="http://www.w3.org/2000/svg" xmlns:xlink="http://www.w3.org/1999/xlink" x="0px" y="0px"
	 viewBox="0 0 100 100" style="enable-background:new 0 0 100 100;" xml:space="preserve">
<g>
	<path d="M50,0C22.4,0,0,22.4,0,50s22.4,50,50,50s50-22.4,50-50S77.6,0,50,0z M22.2,79.9h-4.3V66.9c0-0.6,0.8-12.4,11.9-22
		c-0.5-0.4-0.6-0.9-0.6-0.9c-0.3-0.8-0.5-1.6-0.5-2.5c0-3.3,2.7-6.1,6.1-6.1c3.3,0,6.1,2.7,6.1,6.1c0,3.3-2.7,6.1-6.1,6.1
		c-0.9,0-1.7-0.2-2.5-0.6l-0.5,0.4c-9.4,7.8-9.7,19.4-9.7,19.5V79.9z M34.6,60.3c-1.9,0-3.8-0.3-5.5-0.8l1.3-4.1
		c1.4,0.4,2.8,0.6,4.3,0.6c8.1,0,14.6-6.6,14.6-14.6c0-8.1-6.6-14.6-14.6-14.6S20,33.4,20,41.4c0,2.6,0.7,5.1,1.9,7.3l0.5,1
		l-3.4,2.5l-0.6-1c-1.8-3-2.7-6.3-2.7-9.8c0-10.4,8.5-18.9,18.9-18.9S53.5,31,53.5,41.4C53.5,51.8,45,60.3,34.6,60.3z M69.2,40.9
		c-1.9,0.1-3.8-0.2-5.5-1.1c-5.1-2.6-7.2-8.9-4.6-14c2.6-5.1,8.9-7.2,14-4.6c5.1,2.6,7.2,8.9,4.6,14c-0.5,0.9-1.1,1.8-1.8,2.5
		l-1.7-1.6c0.6-0.6,1-1.2,1.4-2c2-4,0.4-8.8-3.5-10.8c-4-2-8.8-0.4-10.8,3.5c-2,4-0.4,8.8,3.5,10.8c1.3,0.6,2.7,0.9,4.1,0.9l0.6,0
		l0.4,2.3L69.2,40.9z M83.2,48.3L76.8,45c-0.3-0.1-5.9-3.5-7.9-11.4c-0.3,0.1-0.6,0.1-0.6,0.1c-0.5,0-0.9-0.1-1.3-0.4
		c-1.6-0.8-2.3-2.8-1.5-4.5c0.8-1.6,2.8-2.3,4.5-1.5c1.6,0.8,2.3,2.8,1.5,4.5c-0.2,0.4-0.5,0.8-0.9,1.1l0.1,0.3
		c1.5,6.6,7.1,9.6,7.2,9.6l6.4,3.3L83.2,48.3z"/>
</g>
</svg>
