<?xml version="1.0" encoding="utf-8"?>
<!-- Generator: Adobe Illustrator 27.0.0, SVG Export Plug-In . SVG Version: 6.00 Build 0)  -->
<svg version="1.1" id="Layer_1" xmlns="http://www.w3.org/2000/svg" xmlns:xlink="http://www.w3.org/1999/xlink" x="0px" y="0px"
	 viewBox="0 0 100 100" style="enable-background:new 0 0 100 100;" xml:space="preserve">
<style type="text/css">
	.st0{fill:#F7F7F7;}
</style>
<circle class="st0" cx="50" cy="50" r="48.1"/>
<path d="M68.5,47.1c-0.3-0.2-0.7-0.3-1-0.5c-0.6-11-6.6-17.3-16.7-17.3c-0.1,0-0.1,0-0.2,0c-6,0-11.1,2.6-14.2,7.3l5.6,3.8
	c2.3-3.5,6-4.3,8.6-4.3h0.1c3.3,0,5.8,1,7.4,2.9c1.2,1.4,1.9,3.3,2.4,5.7c-2.9-0.5-6.1-0.6-9.5-0.5c-9.6,0.5-15.8,6.2-15.3,13.9
	c0.2,3.9,2.2,7.4,5.6,9.6c2.9,1.9,6.5,2.8,10.3,2.6c5-0.3,9-2.2,11.7-5.7c2.1-2.6,3.4-6.1,4-10.4c2.4,1.5,4.2,3.3,5.1,5.7
	c1.7,3.9,1.8,10.3-3.5,15.5c-4.6,4.6-10.1,6.5-18.3,6.6c-9.1,0-16.1-2.9-20.7-8.7C25.6,67.7,23.5,60,23.4,50
	c0.1-10,2.2-17.7,6.5-23.1c4.5-5.7,11.5-8.7,20.7-8.7c9.3,0.1,16.3,3,21.1,8.8c2.3,2.9,4,6.4,5.2,10.5l6.5-1.7
	c-1.4-5.1-3.6-9.5-6.5-13.2c-6-7.4-14.9-11.2-26.2-11.3h-0.1c-11.3,0.1-20,3.9-25.9,11.3c-5.2,6.7-7.9,15.9-8,27.4l0,0l0,0
	c0.1,11.5,2.8,20.7,8,27.3c5.8,7.5,14.6,11.3,25.9,11.4h0.1c10.1-0.1,17.2-2.7,23-8.5c7.7-7.7,7.4-17.2,4.9-23.1
	C76.7,52.9,73.2,49.5,68.5,47.1z M51.2,63.5c-4.2,0.2-8.6-1.6-8.8-5.7c-0.2-3,2.2-6.3,9.1-6.7c0.8-0.1,1.5-0.1,2.3-0.1
	c2.5,0,4.9,0.2,7,0.7C59.9,61.7,55.3,63.3,51.2,63.5z"/>
</svg>
