<?xml version="1.0" encoding="utf-8"?>
<!-- Generator: Adobe Illustrator 28.0.0, SVG Export Plug-In . SVG Version: 6.00 Build 0)  -->
<svg version="1.1" id="Layer_1" xmlns="http://www.w3.org/2000/svg" xmlns:xlink="http://www.w3.org/1999/xlink" x="0px" y="0px"
	 viewBox="0 0 100 100" style="enable-background:new 0 0 100 100;" xml:space="preserve">
<style type="text/css">
	.st0{fill:#F9F9F9;}
	.st1{fill:none;stroke:#EFB600;stroke-width:3;stroke-miterlimit:10;}
	.st2{fill:#EFB600;}
	.st3{fill:#F4DC00;}
</style>
<path class="st0" d="M86.9,100H13.1C5.9,100,0,94.1,0,86.9V13.1C0,5.9,5.9,0,13.1,0H87c7.1,0,13,5.9,13,13.1V87
	C100,94.1,94.1,100,86.9,100z"/>
<g>
	<circle class="st1" cx="53.2" cy="47.2" r="37.8"/>
	<g>
		<path class="st2" d="M37.4,53.7c0-0.6,0-1.2-0.1-1.8c-0.5-3.3-1-6.6-1.5-9.8c-0.4-3.1-2.5-5.2-5.8-5.8c-0.1,0-0.2-0.1-0.3-0.1
			H13.6c-0.6,0.2-1.2,0.2-1.7,0.5c-1.1,0.5-2,1.1-2.7,1.8c0.3-2.6,1.6-4.5,4.1-5.6c0.5-0.2,1.1-0.3,1.7-0.5h16.3
			c0.1,0,0.2,0.1,0.3,0.1c3.3,0.6,5.2,2.6,5.8,5.8c0.5,3.3,0.9,6.6,1.5,9.8C39.2,50.4,38.7,52.3,37.4,53.7z"/>
		<path class="st2" d="M43.2,72.7c-0.3,1.2-0.6,2.2-0.9,3.4c-0.1,0.2-0.1,0.3-0.2,0.6c-6.7-3.2-11.9-7.8-15.4-14.1
			c-0.3-0.7,0-1.5,0.8-1.7c0.6-0.2,1.2-0.3,1.7-0.4C32.6,65.8,37.2,69.9,43.2,72.7z"/>
		<path class="st2" d="M69.7,83.9c0,1.6-0.6,3.1-1.5,4.3c0-0.2,0-0.3,0-0.5c0-4.6,0-9.3,0-13.9c0-3.5-2.5-6-6-6.5
			c-3.6-0.5-7.2-1-10.8-1.5c-2.7-0.3-5,0.7-6.4,2.6c0.2-0.5,0.3-1,0.4-1.5c0.9-3.4,4-5.4,7.6-4.9c3.6,0.5,7.2,1,10.8,1.5
			c3.5,0.5,6,3,6,6.5C69.7,74.6,69.7,79.3,69.7,83.9z"/>
		<path class="st3" d="M68.2,87.6c-0.1,0.2-0.3,0.6-0.3,0.8c-1.1,1.2-2.7,1.9-4.6,2.1c-4.7,0.3-9.4,0.1-14.2-0.8
			c-8.7-1.6-16.5-5.2-23.1-10.8c-9.7-8.1-15.1-18.5-16.7-30.7c-0.2-1.2-0.3-2.3-0.3-3.5v-4.5c0.1-0.5,0.1-1,0.2-1.5l0,0
			c0.7-0.7,1.5-1.4,2.7-1.9c0.5-0.2,1.1-0.3,1.7-0.5h16.3c0.1,0,0.2,0.1,0.3,0.1c3.3,0.6,5.2,2.6,5.8,5.8c0.5,3.3,0.9,6.6,1.5,9.8
			c0.1,0.7,0.1,1.2,0.1,1.8c-0.9,1-2.2,1.8-3.9,2.2c-2,0.5-4,1.1-6.1,1.6c0.5,1,1,2,1.7,2.9c-0.4,0.1-0.9,0.2-1.4,0.3
			c-0.9,0.2-1.4,1.3-0.9,2.1C30.4,69,35.4,73.7,42,76.8c0.1-0.2,0.1-0.4,0.2-0.6c0.3-1.2,0.6-2.2,0.9-3.4c0.2,0.1,0.3,0.2,0.4,0.2
			c0.1-0.2,0.2-0.4,0.2-0.6c0.3-1.3,0.8-2.6,1.1-4c1.5-1.9,3.8-3,6.4-2.6c3.6,0.5,7.2,1,10.8,1.5c3.5,0.5,6,3,6,6.5
			C68.2,78.3,68.2,83,68.2,87.6z"/>
	</g>
</g>
<g>
	<path d="M40.7,35.2V21.4h-2v-3.3h7.5v3.3h-2v13.9H40.7z"/>
	<path d="M51.3,35.4c-1.4,0-2.4-0.4-3.1-1.2c-0.7-0.8-1.1-2-1.1-3.6v-8.2c0-1.5,0.4-2.6,1.1-3.3c0.7-0.8,1.8-1.1,3.2-1.1
		c1.4,0,2.4,0.4,3.2,1.1s1.1,1.9,1.1,3.3v8.2c0,1.6-0.4,2.8-1.1,3.6S52.6,35.4,51.3,35.4z M51.3,32.2c0.5,0,0.8-0.5,0.8-1.5v-8.4
		c0-0.8-0.3-1.3-0.8-1.3c-0.6,0-0.9,0.4-0.9,1.3v8.4c0,0.5,0.1,0.9,0.2,1.1C50.8,32.1,51,32.2,51.3,32.2z"/>
	<path d="M56.9,35.2V18.1h3.4v14.2h3.5v2.9H56.9z"/>
	<path d="M64.8,35.2V18.1h3.4v14.2h3.5v2.9H64.8z"/>
	<path d="M48.6,59.2V42h6.9v3.3h-3.4v2.7h3.2v3.3h-3.2v7.8H48.6z"/>
	<path d="M56.6,59.2V42h5.3c0.9,0,1.5,0.2,2,0.6c0.4,0.4,0.7,1,0.9,1.7c0.2,0.7,0.2,1.6,0.2,2.5c0,0.9-0.1,1.7-0.4,2.2
		c-0.2,0.6-0.7,0.9-1.3,1.2c0.5,0.1,0.9,0.4,1.1,0.8c0.2,0.4,0.3,1,0.3,1.7v6.5h-3.4v-6.7c0-0.5-0.1-0.8-0.3-0.9s-0.5-0.2-1-0.2v7.8
		H56.6z M60.1,48.4h0.8c0.5,0,0.7-0.5,0.7-1.6c0-0.7-0.1-1.1-0.2-1.3c-0.1-0.2-0.3-0.3-0.6-0.3h-0.8V48.4z"/>
	<path d="M66.1,59.2V42H73v3.3h-3.4v3.3h3.2v3.2h-3.2v3.9h3.6v3.3H66.1z"/>
	<path d="M74.3,59.2V42h6.9v3.3h-3.4v3.3h3.2v3.2h-3.2v3.9h3.6v3.3H74.3z"/>
</g>
</svg>
