<?xml version="1.0" encoding="utf-8"?>
<!-- Generator: Adobe Illustrator 27.0.0, SVG Export Plug-In . SVG Version: 6.00 Build 0)  -->
<svg version="1.1" id="Layer_1" xmlns="http://www.w3.org/2000/svg" xmlns:xlink="http://www.w3.org/1999/xlink" x="0px" y="0px"
	 viewBox="0 0 100 100" style="enable-background:new 0 0 100 100;" xml:space="preserve">
<style type="text/css">
	.st0{fill:#ABCD03;}
	.st1{fill:#FFFCDB;}
	.st2{fill:#7D4698;}
</style>
<g id="layer3" transform="translate(-92,-63.999774)">
	<g id="layer5">
		<path id="path2554" class="st0" d="M146.8,72l-2.6,10.4c3.7-7.4,9.6-12.9,16.4-17.8c-5,5.8-9.5,11.5-12.3,17.3
			c4.7-6.6,11-10.2,18-12.6c-9.4,8.4-16.9,17.4-22.6,26.5l-4.5-2C140,86.5,142.7,79.1,146.8,72L146.8,72z"/>
		<path id="path2534" class="st1" d="M134.7,91.8l8.6,3.6c0,2.2-0.2,8.9,1.2,10.8c14.3,18.5,11.9,55.5-2.9,56.4
			c-22.6,0-31.2-15.3-31.2-29.4c0-12.9,15.4-21.4,24.6-29C137.3,102.2,136.9,97.7,134.7,91.8L134.7,91.8z"/>
		<path id="path2536" class="st2" d="M143.3,95.3l3.1,1.6c-0.3,2,0.1,6.6,2.2,7.7c9.1,5.6,17.6,11.8,21,17.9
			c12,21.6-8.4,41.6-26,39.7c9.6-7.1,12.3-21.6,8.8-37.5c-1.5-6.2-3.7-11.8-7.7-18.2C142.8,103.5,143.4,99.6,143.3,95.3L143.3,95.3z
			"/>
	</g>
	<g id="layer4">
		<path id="path2538" d="M141.8,94.8l6.4,0.9c-1.9,6.3,3.7,10.7,5.6,11.7c4.1,2.3,8,4.6,11.2,7.5c5.9,5.4,9.3,13,9.3,21
			c0,8-3.7,15.6-9.8,20.7c-5.8,4.8-13.7,6.9-21.5,6.9c-4.8,0-9.1-0.2-13.8-1.8c-10.7-3.6-18.6-12.7-19.3-23.7
			c-0.6-8.5,1.3-15,8-21.8c3.4-3.6,10.4-7.7,15.1-11c2.3-1.6,4.8-6.1,0.1-14.7l0.9-0.7l7,4.7l-5.9-2.4c0.5,0.7,1.9,4,2.2,5
			c0.7,2.7,0.4,5.3-0.2,6.5c-3,5.4-8.1,6.9-11.8,9.9c-6.6,5.4-13.7,9.7-12.9,24.5c0.4,7.3,6.1,16.2,14.6,20.4
			c4.8,2.3,10.4,3.3,16,3.6c5,0.2,14.7-2.8,19.9-7.2c5.6-4.7,8.8-11.8,8.8-19c0-7.3-2.9-14.2-8.4-19.1c-3.1-2.8-8.3-6.3-11.5-8.1
			c-3.2-1.8-7.2-6.9-5.9-11.8L141.8,94.8z"/>
		<path id="path2540" d="M139.8,105.6c-0.7,3.4-1.4,9.4-4.3,11.7c-1.2,0.9-2.5,1.8-3.8,2.6c-5.3,3.6-10.5,6.9-12.9,15.6
			c-0.5,1.8-0.1,3.8,0.4,5.6c1.3,5.3,5,11,8,14.3c0,0.1,0.6,0.5,0.6,0.7c2.4,2.8,3.1,3.7,12.3,5.7l-0.2,1c-5.5-1.5-10-2.8-12.9-6.1
			c0-0.1-0.5-0.6-0.5-0.6c-3.1-3.5-6.8-9.3-8.2-14.8c-0.5-2.2-0.9-3.9-0.4-6.1c2.5-8.9,7.9-12.4,13.4-16.1c1.2-0.8,2.7-1.5,3.9-2.5
			C137.3,114.8,138.6,109.7,139.8,105.6L139.8,105.6z"/>
		<path id="path2542" d="M142.2,119.4c0.1,3.8-0.3,5.7,0.7,8.4c0.6,1.6,2.6,3.8,3.1,5.9c0.8,2.8,1.7,6,1.6,7.9
			c0,2.2-0.1,6.3-1.1,10.7c-0.7,3.6-2.4,6.7-5.2,8.5c-2.9-0.6-6.2-1.6-8.2-3.3c-3.9-3.4-7.3-9-7.7-13.9c-0.4-4,3.4-9.9,8.5-12.9
			c4.4-2.6,5.4-5.5,6.4-10.1c-1.3,4.1-2.5,7.5-6.8,9.7c-6.1,3.2-9.3,8.6-9,13.7c0.4,6.6,3.1,11,8.3,14.6c2.2,1.5,6.3,3.2,8.8,3.6
			v-0.3c1.9-0.4,4.4-3.5,5.7-7.9c1.1-3.9,1.5-8.8,1.5-12c-0.1-1.8-0.9-5.8-2.3-9.4c-0.8-2-2-3.9-2.8-5.3
			C142.6,125.9,142.6,122.9,142.2,119.4z"/>
		<path id="path2544" d="M141.7,133.8c0.1,2.6,1.1,5.8,1.5,9.2c0.4,2.5,0.2,5,0.1,7.2c-0.1,2.5-0.9,7.1-2.1,9.3
			c-1.1-0.5-1.5-1.1-2.2-2c-0.9-1.2-1.5-2.5-2.1-3.9c-0.4-1.1-1-2.4-1.2-3.8c-0.3-2.2-0.2-5.6,2.3-9.1c1.9-2.8,2.3-3,3-6.2
			c-0.9,2.8-1.5,3.1-3.6,5.5c-2.3,2.6-2.6,6.5-2.6,9.6c0,1.3,0.5,2.8,1,4.2c0.6,1.5,1.1,2.9,1.9,4c1.2,1.8,2.8,2.8,3.5,3
			c0,0,0,0,0,0c0,0,0,0,0.1,0v-0.1c1.4-1.6,2.3-3.1,2.6-4.7c0.4-1.9,0.4-3.8,0.7-6.1c0.2-1.9,0.1-4.5-0.5-7.1
			C143.5,139.5,142.2,136.1,141.7,133.8L141.7,133.8z"/>
		<path id="path2550" d="M141.9,102.5c0.1,3.8,0.4,10.9,1.4,13.7c0.3,0.9,3,5.1,4.9,10.2c1.3,3.5,1.6,6.7,1.8,7.7
			c0.9,4.2-0.2,11.2-1.7,17.8c-0.7,3.6-3.2,8-6.1,9.8l-0.6,1c1.6-0.1,5.6-3.9,6.9-8.8c2.3-8.2,3.3-12,2.2-21
			c-0.1-0.9-0.5-3.9-1.9-7.1c-2-4.9-5-9.6-5.3-10.5C143,113.7,142.1,107,141.9,102.5L141.9,102.5z"/>
		<path id="path2552" d="M143.3,97.3c-0.2,3.9-0.3,5.3,0.5,8.2c0.8,3.1,4.9,7.7,6.6,12.9c3.2,9.9,2.4,22.9,0.1,33.1
			c-0.9,3.6-5,8.8-9.2,10.4l3.1,0.7c1.7-0.1,6-4.1,7.7-8.7c2.7-7.2,3.2-15.9,2.1-24.9c-0.1-0.9-1.5-8.7-2.9-12
			c-2-4.9-5.5-9.3-5.8-10.2C144.6,105.2,143.2,101.9,143.3,97.3L143.3,97.3z"/>
		<rect id="rect2556" x="141" y="94.6" width="0.3" height="67.4"/>
	</g>
</g>
</svg>
