<?xml version="1.0" encoding="utf-8"?>
<!-- Generator: Adobe Illustrator 27.0.0, SVG Export Plug-In . SVG Version: 6.00 Build 0)  -->
<svg version="1.1" id="Layer_1" xmlns="http://www.w3.org/2000/svg" xmlns:xlink="http://www.w3.org/1999/xlink" x="0px" y="0px"
	 viewBox="0 0 100 100" style="enable-background:new 0 0 100 100;" xml:space="preserve">
<g id="layer2">
	<path id="path1002" d="M22.5,42.6c-4,0-5.1,2-5.1,4.7V59c0,0.3,0.1,0.3,0.3,0.3h3c0.2,0,0.3-0.1,0.3-0.3v-5c0-0.3,0.1-0.4,0.3-0.4
		h1.1c0.1,0,0.2,0.1,0.3,0.2l3,5.1c0.1,0.2,0.3,0.3,0.5,0.3h3c0.2,0,0.3-0.1,0.2-0.3L26,52.9c-0.1-0.1,0-0.2,0-0.2
		c1.4-0.8,2.3-2,2.3-4.7c0-3-0.8-5.3-5.4-5.4C22.8,42.6,22.6,42.6,22.5,42.6L22.5,42.6z M22.9,45.8c1.2,0,2,0.5,2,2.3
		c0,2-1,2.2-2.2,2.3h-1.4c-0.1,0-0.3,0-0.3-0.3v-2.7C21,46,21.9,45.8,22.9,45.8z"/>
	<path id="path1002-0" d="M90.1,42.6c-4,0-5.1,2-5.1,4.7v11.6c0,0.3,0.1,0.3,0.3,0.3h3c0.2,0,0.3-0.1,0.3-0.3v-5
		c0-0.3,0.1-0.4,0.3-0.4H90c0.1,0,0.2,0.1,0.3,0.2l3,5.1c0.1,0.2,0.3,0.3,0.5,0.3h3c0.2,0,0.3-0.1,0.2-0.3l-3.5-6.1
		c-0.1-0.1,0-0.2,0-0.2c1.4-0.8,2.3-2,2.3-4.7c0-3-0.8-5.3-5.4-5.4C90.4,42.6,90.3,42.6,90.1,42.6L90.1,42.6z M90.5,45.8
		c1.2,0,2,0.5,2,2.3c0,2-1,2.2-2.2,2.3h-1.4c-0.1,0-0.3,0-0.3-0.3v-2.7C88.6,46,89.5,45.8,90.5,45.8z"/>
	<path id="path1061" d="M50.6,25.4l-3.1,5.3C31,34.6,30.6,50.2,33.1,56l1.9-3.3v-9.4c0-0.2,0.1-0.4,0.4-0.4h2.8
		c0.2,0,0.4,0.1,0.4,0.4v3.2L46,33.6l0.6,0.4l4.7-8.1L50.6,25.4z"/>
	<path id="path1065" d="M50.5,33.6c-0.2,0-0.4,0-0.6,0c-1.1,0-2.2,0.1-3.3,0.3l-8,13.8v11.1c0,0.2-0.1,0.3-0.3,0.3h-2.9
		c-0.2,0-0.3-0.1-0.3-0.4V54l-2.9,4.9c1.8,5.1,4.7,7.7,7.8,9.9l-3.1,5.4l0.6,0.4l4.7-8.2L41.5,66l4.5-7.8c-0.7-0.7-1.1-1.6-1.1-3
		v-12c0-0.2,0-0.4,0.3-0.4h2.9c0.2,0,0.4,0.1,0.4,0.4V54l10.5-18.2C56.3,34.4,53.5,33.6,50.5,33.6z"/>
	<path id="path1069" d="M61.1,33.3L48.5,55.2c0.2,0.5,0.5,0.8,1.4,0.8h3.9c0.3,0,0.4,0.2,0.4,0.5v2.3c0,0.3-0.2,0.4-0.4,0.4h-4.1
		c-1.3,0-2.3-0.2-3.1-0.6l-4.5,7.7c3.4,1.8,7.4,2.6,12.4,1.8l5.3-9.2c-1.4-0.5-2.3-1.7-2.4-3.7v-12c0-0.2,0-0.4,0.3-0.4h2.9
		c0.2,0,0.4,0.1,0.4,0.4v11.2c0,0.7,0.1,1.2,0.6,1.4l5.8-10.1l0.6,0.4l4.7-8.1l-0.6-0.4l-3.2,5.5C67.4,39,64.8,35.7,61.1,33.3z"/>
	<path id="path1073" d="M68,46.2l-5.7,9.9c0.1,0,0.1,0,0.2,0h3.9c0.3,0,0.4,0.2,0.4,0.5v2.3c0,0.3-0.2,0.4-0.4,0.4h-4.1
		c-0.6,0-1.2,0-1.8-0.1l-7.1,12.3C61,70.5,72.8,60.9,68,46.2L68,46.2z"/>
	<path id="path848-0" d="M2.9,43.2L2.9,43.2L2.9,43.2v2.5l0,0c0,0.1,0,0.1,0,0.1l0,0c0,0,0,0.1,0.1,0.1l0,0C3,46,3,46,3.1,46l0,0
		c0,0,0.1,0,0.2,0l0,0h3.2l0,0c0,0,0,0,0.1,0l0,0c0,0,0,0,0,0l0,0c0,0,0,0,0,0.1l0,0c0,0,0,0,0,0.1l0,0v12.6l0,0c0,0.1,0,0.1,0,0.2
		l0,0c0,0.1,0,0.1,0.1,0.2l0,0c0,0,0.1,0.1,0.1,0.1h0c0.1,0,0.1,0,0.2,0l0,0h2.7l0,0c0.1,0,0.1,0,0.2,0h0c0.1,0,0.1,0,0.1-0.1l0,0
		c0,0,0.1-0.1,0.1-0.2l0,0c0-0.1,0-0.1,0-0.2v0V46.3l0,0c0,0,0-0.1,0-0.1l0,0c0,0,0-0.1,0-0.1l0,0c0,0,0,0,0.1,0l0,0
		c0,0,0.1,0,0.1,0h0h3l0,0c0.1,0,0.2,0,0.2,0l0,0c0.1,0,0.1-0.1,0.1-0.1l0,0c0,0,0.1-0.1,0.1-0.2l0,0c0-0.1,0-0.1,0-0.2l0,0v-2.2
		l0,0c0-0.1,0-0.2,0-0.2l0,0c0,0,0-0.1,0-0.1l0,0c0,0,0,0-0.1-0.1l0,0c0,0,0,0-0.1,0l0,0c0,0-0.1,0-0.1,0l0,0c-0.1,0-0.1,0-0.2,0
		l0,0H3.3l0,0c-0.1,0-0.1,0-0.1,0l0,0c0,0-0.1,0-0.1,0.1l0,0c0,0,0,0,0,0.1l0,0c0,0,0,0,0,0.1l0,0C2.9,43.1,2.9,43.2,2.9,43.2
		L2.9,43.2z M2.9,43.3L2.9,43.3v2.4l0,0c0,0,0,0.1,0,0.1l0,0c0,0,0,0.1,0,0.1l0,0c0,0,0,0,0.1,0.1l0,0c0,0,0.1,0,0.1,0l0,0h3.2l0,0
		c0,0,0.1,0,0.1,0l0,0c0,0,0,0,0.1,0l0,0c0,0,0,0,0,0.1l0,0c0,0,0,0.1,0,0.1l0,0v12.6l0,0c0,0.1,0,0.1,0,0.2l0,0
		c0,0.1,0,0.1,0.1,0.1l0,0c0,0,0.1,0.1,0.1,0.1h0c0.1,0,0.1,0,0.2,0l0,0h2.7l0,0c0.1,0,0.1,0,0.2,0h0c0,0,0.1,0,0.1-0.1l0,0
		c0,0,0.1-0.1,0.1-0.1l0,0c0-0.1,0-0.1,0-0.2l0,0V46.3l0,0c0,0,0-0.1,0-0.1l0,0c0,0,0-0.1,0.1-0.1l0,0c0,0,0.1-0.1,0.1-0.1l0,0
		c0,0,0.1,0,0.1,0h0h3l0,0c0.1,0,0.1,0,0.2,0h0c0.1,0,0.1,0,0.1-0.1l0,0c0,0,0.1-0.1,0.1-0.1l0,0c0-0.1,0-0.1,0-0.2l0,0v-2.2l0,0
		c0-0.1,0-0.2,0-0.2l0,0c0,0,0,0,0-0.1l0,0c0,0,0,0,0-0.1l0,0c0,0,0,0-0.1,0l0,0c0,0,0,0-0.1,0l0,0c0,0-0.1,0-0.2,0l0,0H3.3l0,0
		c0,0-0.1,0-0.1,0l0,0c0,0-0.1,0-0.1,0.1l0,0c0,0,0,0,0,0l0,0c0,0,0,0,0,0.1l0,0C2.9,43.1,2.9,43.2,2.9,43.3L2.9,43.3
		C2.9,43.2,2.9,43.2,2.9,43.3"/>
	<path id="path1023-5" d="M81.5,45.4V43c0-0.3-0.1-0.4-0.4-0.4h-4.2c-2.4,0.1-4.3,0.8-4.4,4.2v8.1c0.2,3.8,2.6,4.2,5.3,4.2h3.4
		c0.2,0,0.3-0.1,0.3-0.3v-2.4c0-0.3-0.1-0.4-0.4-0.4h-3.4c-1,0-1.8-0.2-1.8-1.6v-1.7c0-0.1,0.1-0.3,0.3-0.3h3.7c0.1,0,0.3,0,0.3-0.3
		v-2.5c0-0.2-0.1-0.3-0.3-0.3h-3.7c-0.1,0-0.2-0.1-0.2-0.2v-1.6c0-1.4,0.8-1.6,1.9-1.6h3.2C81.3,45.8,81.5,45.8,81.5,45.4L81.5,45.4
		z"/>
</g>
</svg>
