<?xml version="1.0" encoding="utf-8"?>
<!-- Generator: Adobe Illustrator 27.0.0, SVG Export Plug-In . SVG Version: 6.00 Build 0)  -->
<svg version="1.1" id="Layer_1" xmlns="http://www.w3.org/2000/svg" xmlns:xlink="http://www.w3.org/1999/xlink" x="0px" y="0px"
	 viewBox="0 0 100 100" style="enable-background:new 0 0 100 100;" xml:space="preserve">
<style type="text/css">
	.st0{fill:#EF6530;}
</style>
<g>
	<path class="st0" d="M49.9,0L49.9,0C22.2,0-0.3,22.4-0.3,50c0,27.6,22.6,50,50.3,50c27.8,0,50.3-22.4,50.3-50v-0.1
		C100.3,22.3,77.7,0,49.9,0z M91.3,49.9c0,22.5-18.4,40.8-41,40.8C27.6,90.8,9.2,72.5,9.2,50c0-22.5,18.3-40.8,41-40.8l0,0
		C72.9,9.1,91.3,27.3,91.3,49.9L91.3,49.9z"/>
	<path class="st0" d="M70.5,26.3c-1.4,0-3.8,0.6-5.2,1.3c-4.1,2-6.7,6.7-6.3,11.3l0.1,0.8l0.9-0.6c5.4-3.8,13.3-5.9,19.9-5.2
		c0.9,0.1,1.6,0.1,1.7,0.1c0.1,0-0.6-1.5-1.2-2.5c-1.6-2.4-4.2-4.2-6.9-4.8C72.4,26.5,71.4,26.4,70.5,26.3L70.5,26.3z"/>
	<path class="st0" d="M38.6,34.4c-1.8,0-4.3,0.7-5.6,1.4c-2.8,1.7-4.9,4.6-5.5,7.6c-0.3,1.4-0.3,3.9-0.1,4c0,0,0.6-0.3,1.2-0.7
		c2.7-1.9,5.1-3,8.9-4.1c2.4-0.7,3.5-0.9,5.1-1c2.1-0.2,4.8-0.2,5.8,0c0.3,0.1,0.6,0.1,0.6,0c0,0-0.3-0.7-0.7-1.4
		c-1.8-3.3-5.3-5.5-9.1-5.8C39.1,34.4,38.8,34.4,38.6,34.4L38.6,34.4z"/>
	<path class="st0" d="M65.9,45.9c-2,0-4.1,1.5-3.9,3.8l0,0.7l-0.5-0.8c-0.7-1-1.4-1.4-2.6-1.6c-1.2-0.2-2.4,0.1-3.3,0.9
		c-2.4,2-1.2,6.3,2,6.9l0.9,0.2l-0.7,0.6c-1.8,1.5-1.7,4.5,0.2,6.1c0.8,0.6,2.5,0.9,3.5,0.7c1.6-0.5,2.8-2,2.9-3.6
		c0-0.5,0-0.5,0.6,0.2c2.7,3.2,7.9,0.5,6.8-3.6c-0.4-1.5-1.6-2.6-3.1-2.8c-1.1-0.2-1.1-0.2-0.7-0.5c2.1-1.2,2.4-4.3,0.5-6.1
		C67.8,46.3,66.8,45.9,65.9,45.9L65.9,45.9z"/>
	<path class="st0" d="M63.1,53.2c0.2,0,0.5,0.1,0.7,0.2c1.1,0.6,1,2.5-0.2,2.9c-0.8,0.2-1.7-0.3-1.9-1.1c-0.2-0.8,0.2-1.7,1-1.9
		C62.8,53.2,63,53.2,63.1,53.2L63.1,53.2z"/>
</g>
</svg>
