<?xml version="1.0" encoding="utf-8"?>
<!-- Generator: Adobe Illustrator 27.0.0, SVG Export Plug-In . SVG Version: 6.00 Build 0)  -->
<svg version="1.1" id="Layer_1" xmlns="http://www.w3.org/2000/svg" xmlns:xlink="http://www.w3.org/1999/xlink" x="0px" y="0px"
	 viewBox="0 0 100 100" style="enable-background:new 0 0 100 100;" xml:space="preserve">
<style type="text/css">
	.st0{fill:#FFFFFF;}
	.st1{fill:#35465C;}
</style>
<path class="st0" d="M86.6,64.3H13.4c-6.6,0-12-5.4-12-12v-4.6c0-6.6,5.4-12,12-12h73.1c6.6,0,12,5.4,12,12v4.6
	C98.6,58.9,93.2,64.3,86.6,64.3z"/>
<g>
	<path class="st1" d="M92,54.1c-1.4,0-2.6,1.1-2.6,2.5c0,1.4,1.2,2.5,2.6,2.5c1.4,0,2.6-1.1,2.6-2.5C94.6,55.3,93.4,54.1,92,54.1
		 M77.9,55.6l0-14.8h-1.6c0,0-2.6,0.9-4.5,1.1v2.8h1.2c0.4,0,0.5,0.2,0.5,0.5v10.4c0,0.4-0.2,0.6-0.6,0.6c-0.3,0-1,0.1-1,0.1V59h7.3
		v-2.8c0,0-0.7,0-1-0.1C78.1,56.1,77.9,55.9,77.9,55.6L77.9,55.6z M92.7,48.2c-0.1-3.1-4.4-3.3-6.6-1.2l-0.4-1.2h-5.1v2.9l1.1,0
		c0.4,0,0.5,0.2,0.5,0.5v6.3c0,0.4-0.2,0.6-0.6,0.6c-0.3,0-0.9,0.1-0.9,0.1V59H88v-2.8c0,0-0.6,0-0.9-0.1c-0.3,0-0.6-0.2-0.6-0.6
		l0-4.3c0-0.8,0.2-2.2,1.6-2.5c0.2,1.3,1.5,1.7,2.1,1.7C91.8,50.5,92.7,49.3,92.7,48.2L92.7,48.2z M65.6,45.7
		c-1.1,0-2.2,0.5-3.1,1.2v-6.1H61c0,0-2.5,0.9-4.5,1.1l-0.1,2.8l1.2,0c0.4,0,0.5,0.2,0.5,0.5V59l3.5,0l0.5-1.1
		c0.1,0.1,1.7,1.6,4.3,1.3c3.3-0.4,5-3,5-6.9C71.5,50.3,70.9,45.5,65.6,45.7L65.6,45.7z M65,56c-0.6,0-1.7-0.1-2.4-1.3v-1.8l0,0h0
		v-2.1c0-0.9,0.8-1.7,2.2-1.8c1.3,0,2.5,0.9,2.5,3.4C67.2,55.8,65.7,55.9,65,56L65,56z M55.4,55.6c0,0,0-3.3,0-4c0-1.4,0-2.9-1-4.1
		c-0.9-1.1-2.3-1.9-4.5-1.8c-1.4,0.1-3,0.7-3.8,1.9L46,47.8L46,47.7c-0.9-1.3-2.3-2.1-4.4-2c-1.4,0.1-3,0.7-3.8,1.9l-0.1-1.7h-5.3
		v2.9l1.2,0c0.4,0,0.5,0.2,0.5,0.5l0,5.6v0.7c0,0.4-0.2,0.6-0.6,0.6c-0.3,0-0.9,0.1-0.9,0.1V59l7.2,0v-2.8c0,0-0.6,0-0.9-0.1
		c-0.3,0-0.6-0.2-0.6-0.6c0,0,0-3.6,0-4.3c0-0.7,0.6-2.2,2.5-2.2c1.5,0,1.8,0.9,1.8,2c0,1.1,0,4.5,0,4.5c0,0.4-0.2,0.6-0.6,0.6
		c-0.3,0-0.9,0.1-0.9,0.1V59h7.2v-2.8c0,0-0.6,0-0.9-0.1c-0.3,0-0.6-0.2-0.6-0.6h0c0,0,0-3.6,0-4.3c0-0.7,0.5-2.2,2.4-2.2
		c1.5,0,1.9,0.9,1.9,2v3.8l0,0.7c0,0.4-0.2,0.6-0.6,0.6c-0.3,0-0.9,0.1-0.9,0.1V59h7.2v-2.8c0,0-0.6,0-0.9-0.1
		C55.7,56.2,55.5,56,55.4,55.6L55.4,55.6z M29.9,55.6v-9.7h-6v2.9l1.2,0c0.4,0,0.5,0.2,0.5,0.5l0,4.4c0,0.4-0.3,2.1-2.5,2.1
		c-1.5,0-1.8-0.8-1.8-2v-7.9h-4.4V54c0,2.1,0.9,5.3,5.3,5.2c1.4,0,3.1-0.8,4-1.8l0,1.6h4.9v-2.8c0,0-0.4,0-0.7-0.1
		C30.1,56.2,29.9,56,29.9,55.6L29.9,55.6z M13.6,55.9c-1.5,0-1.7-1-1.8-1.8v-5.3h3.4v-3h-3.4v-4.5H9.1c0,0-0.1,0-0.1,0.1
		c-0.2,1.4-0.8,3.8-3.6,4.8v2.6h2.1v5.5c0,2,1.2,4.8,5.2,4.8c1.3,0,2.8-0.6,3.2-1L15,55.6C14.7,55.8,14,55.9,13.6,55.9L13.6,55.9z"
		/>
</g>
</svg>
