<?xml version="1.0" encoding="utf-8"?>
<!-- Generator: Adobe Illustrator 27.0.0, SVG Export Plug-In . SVG Version: 6.00 Build 0)  -->
<svg version="1.1" id="Layer_1" xmlns="http://www.w3.org/2000/svg" xmlns:xlink="http://www.w3.org/1999/xlink" x="0px" y="0px"
	 viewBox="0 0 100 100" style="enable-background:new 0 0 100 100;" xml:space="preserve">
<style type="text/css">
	.st0{fill:#6441A4;}
	.st1{fill:#FFFFFF;}
</style>
<g>
	<path class="st0" d="M15,0h70c8.3,0,15,6.7,15,15v70c0,8.3-6.7,15-15,15H15c-8.3,0-15-6.7-15-15V15C0,6.7,6.7,0,15,0z"/>
	<path class="st1" d="M22.5,19.7l-4.3,10.9v44.5h15.2v8.2H42l8-8.2h12.3l16.6-16.6V19.7H22.5z M73.2,55.9l-9.4,9.4H48.6l-8.2,8.2
		v-8.2H27.7V25.4h45.5V55.9z M63.9,36.3v16.6H58V36.3H63.9z M48.6,36.3v16.6H43V36.3H48.6z"/>
</g>
</svg>
