<?xml version="1.0" encoding="utf-8"?>
<!-- Generator: Adobe Illustrator 27.0.0, SVG Export Plug-In . SVG Version: 6.00 Build 0)  -->
<svg version="1.1" id="Layer_1" xmlns="http://www.w3.org/2000/svg" xmlns:xlink="http://www.w3.org/1999/xlink" x="0px" y="0px"
	 viewBox="0 0 100 100" style="enable-background:new 0 0 100 100;" xml:space="preserve">
<style type="text/css">
	.st0{fill:#F7F7F7;}
</style>
<path class="st0" d="M84.8,96H15.2C9,96,4,91,4,84.8V15.2C4,9,9,4,15.2,4h69.6C91,4,96,9,96,15.2v69.6C96,91,91,96,84.8,96z"/>
<g>
	<g>
		<path d="M30.2,73.8c-6.9,0-13.5-3-18.1-8.5l0,0c-2.5-3.4-3.9-7.8-4-13.1c-0.1-4.1,0.5-8.8,1.8-14c1.1-4.2,3.1-7.8,6-10.4
			c2.6-2.4,5.6-3.8,8.4-3.8c2.2,0,3.8,0.7,4.9,1.8c1.3,1.4,1.7,3.6,1.2,6.5c-0.4,2.8-2,6.6-3.4,10.1c-1.3,2.9-2.8,6.6-2.6,7.8
			c0.3,2.2,1.3,4.1,6.1,4.1c2.9,0,4.5-0.4,5.3-1.3c0.7-0.8,0.8-2,0.6-4c-0.3-2-0.7-4.4-1.1-6.6c-0.7-3.6-1.2-6.7-1.2-8.4
			c0.1-1.8,0.6-5.1,2.8-7c1.3-1.1,3.1-1.5,5.2-1.3c0,0,0,0,0.1,0c3.9,0.8,7.2,3.4,8.9,7c0.3,0.5,0,1.2-0.5,1.4
			c-0.5,0.3-1.2,0-1.4-0.5c-1.3-3-4.1-5.1-7.3-5.8c-1.5-0.2-2.6,0.1-3.5,0.8c-0.6,0.5-1.9,1.9-2,5.5c-0.1,1.4,0.5,4.6,1.1,8
			c0.4,2.3,0.8,4.6,1.1,6.7c0.3,2.6,0,4.4-1.1,5.6c-1.5,1.8-4.3,2-6.8,2c-4.9,0-7.5-1.8-8.2-5.9c-0.3-1.7,0.8-4.5,2.8-9
			c1.4-3.3,2.9-7.1,3.4-9.7c0.3-2.3,0.1-3.9-0.8-4.8C27.1,26.5,26,26,24.4,26c-2.3,0-4.8,1.2-7,3.3c-1.9,1.7-4.3,4.7-5.5,9.5
			c-1.3,5-1.8,9.4-1.8,13.4c0.1,4.9,1.3,8.8,3.6,11.9c5.4,6.6,14.1,9.2,22.3,6.9c3.1-0.9,6-2.5,8.4-4.6c0.4-0.4,1.1-0.3,1.5,0.1
			s0.3,1.1-0.1,1.5c-2.6,2.3-5.8,4-9.2,5C34.5,73.5,32.3,73.8,30.2,73.8z"/>
	</g>
	<g>
		<path d="M65,52.5c-0.6,0-1.3-0.2-2-0.9c-2.1-2.1-3.3-7.6-2.7-12.5c0.8-6.6,2.3-10,4.6-10.6l0,0c2.4-0.6,8.7,2.9,12.3,5.8
			c2.3,1.8,5,4.6,5,7.3c-0.1,2.5-2.7,5-7.7,7.6c-3.8,1.8-7.8,3.2-9.2,3.4C65.2,52.5,65.1,52.5,65,52.5z M65.5,30.5L65.5,30.5
			c-0.5,0.2-2.2,1.2-3.1,8.8c-0.4,3.7,0.3,9,2.1,10.8c0.2,0.2,0.4,0.3,0.6,0.3c1-0.1,4.9-1.3,8.5-3.1c4.1-2,6.5-4.2,6.6-5.9
			c0.1-1.3-1.4-3.4-4-5.5c-1.8-1.5-4.2-3-6.5-4.1C66.9,30.6,65.7,30.4,65.5,30.5z"/>
	</g>
	<g>
		<path d="M56.4,80c-1.5,0-2.9-0.3-4.4-1.1l-0.1-0.1c-5.9-4.4-8.9-11-8.8-19.8c0-7.1,1.9-13.7,3.1-17.6c0.3-0.8,0.4-1.5,0.6-2
			c0.5-1.8,1.9-7.4,5.7-12c4.2-5.1,10.2-7.6,17.7-7.4c9.5,0.3,14.7,5.1,17.5,9.2c3.4,4.9,4.2,10.3,4.2,12.7c0,4.2-1.6,8-4.6,10.9
			c-4.2,4.2-9.8,5.6-13.4,5.6h-0.1c-4,0-7.1,0.3-9.2,0.8c-3.8,1-3.8,2.7-3.9,3.3c0,0.4,0.8,1.3,1.3,2c0.8,0.9,1.5,1.8,1.8,2.8
			c1,2.7,1.2,9.1-2.9,11.4C59.7,79.6,58,80,56.4,80z M53.1,77.1c2.2,1.2,4.8,1.1,6.9-0.2l0,0c3-1.8,2.6-7.1,2-8.9
			c-0.3-0.6-0.8-1.4-1.5-2.1c-0.9-1.2-1.8-2.3-1.8-3.4c0-2.5,1.8-4.3,5.4-5.2c2.4-0.6,5.5-0.9,9.8-0.8H74c3.4,0,8.4-1.6,11.9-5
			c2.6-2.6,4-5.8,4-9.5c0-2-0.8-7-3.9-11.5c-1.6-2.4-3.6-4.3-6-5.6c-2.8-1.6-6.1-2.5-9.8-2.6c-6.9-0.2-12.4,2.1-16.2,6.7
			c-3.1,3.8-4.5,8.2-5.3,11.2c-0.2,0.6-0.3,1.3-0.6,2C47,46,45,52.4,45,59.2C45.1,67.1,47.8,73.1,53.1,77.1z"/>
	</g>
</g>
</svg>
