<?xml version="1.0" encoding="utf-8"?>
<!-- Generator: Adobe Illustrator 27.0.0, SVG Export Plug-In . SVG Version: 6.00 Build 0)  -->
<svg version="1.1" id="Layer_1" xmlns="http://www.w3.org/2000/svg" xmlns:xlink="http://www.w3.org/1999/xlink" x="0px" y="0px"
	 viewBox="0 0 100 100" style="enable-background:new 0 0 100 100;" xml:space="preserve">
<style type="text/css">
	.st0{fill:#6FDA44;}
	.st1{fill:#FFFFFF;}
</style>
<g>
	<path class="st0" d="M92.6,0H7.4C3.3,0,0,3.2,0,7.2v85.7c0,4,3.3,7.2,7.4,7.2h85.2c4.1,0,7.4-3.2,7.4-7.2V7.2
		C100,3.2,96.7,0,92.6,0L92.6,0z"/>
	<path class="st1" d="M73.4,58.1c-3.9,0-7.6-1.7-11-4.4l0.8-3.8l0-0.1c0.7-4.1,3-10.9,10.1-10.9c5.3,0,9.6,4.3,9.6,9.7
		C83,53.8,78.7,58.1,73.4,58.1L73.4,58.1z M73.4,29.1c-9.1,0-16.1,5.9-18.9,15.6c-4.4-6.5-7.7-14.4-9.6-21h-9.7V49
		c0,5-4.1,9.1-9.1,9.1S17,54,17,49V23.6H7.2V49C7.2,59.4,15.6,68,26,68S44.9,59.4,44.9,49v-4.3c1.9,4,4.2,7.9,7,11.5l-6,28.1h10
		L60.2,64c3.8,2.4,8.2,4,13.2,4c10.7,0,19.4-8.8,19.4-19.5C92.8,37.8,84.1,29.1,73.4,29.1L73.4,29.1z"/>
</g>
</svg>
