<?xml version="1.0" encoding="utf-8"?>
<!-- Generator: Adobe Illustrator 27.0.0, SVG Export Plug-In . SVG Version: 6.00 Build 0)  -->
<svg version="1.1" id="Layer_1" xmlns="http://www.w3.org/2000/svg" xmlns:xlink="http://www.w3.org/1999/xlink" x="0px" y="0px"
	 viewBox="0 0 100 100" style="enable-background:new 0 0 100 100;" xml:space="preserve">
<style type="text/css">
	.st0{fill-rule:evenodd;clip-rule:evenodd;}
</style>
<g>
	<path class="st0" d="M0.4,11.1C1.1,10,2.2,9.3,3.5,9.3h16.3c1.9,0,3.5,1.6,3.5,3.5s-1.6,3.5-3.5,3.5h-10L50,80.6l40.2-64.3h-7.6
		c-1.9,0-3.5-1.6-3.5-3.5s1.6-3.5,3.5-3.5h13.9c1.3,0,2.4,0.7,3.1,1.8c0.6,1.1,0.6,2.5-0.1,3.5L53,89.1c-0.6,1-1.8,1.6-3,1.6
		s-2.3-0.6-3-1.6L0.5,14.6C-0.1,13.6-0.2,12.2,0.4,11.1z M34.9,12.8c0-1.9,1.6-3.5,3.5-3.5h30.3c1.9,0,3.5,1.6,3.5,3.5
		s-1.6,3.5-3.5,3.5H38.4C36.4,16.3,34.9,14.7,34.9,12.8z"/>
	<path class="st0" d="M84.4,9.8c1.6,1,2.1,3.2,1.1,4.8L52.9,65.8c-0.6,1-1.8,1.6-3,1.6c-1.2,0-2.3-0.7-2.9-1.7l-7-11.6
		c-0.7-1.1-0.7-2.6,0.1-3.7l25.6-39.5c1-1.6,3.2-2.1,4.8-1c1.6,1,2.1,3.2,1,4.8L47.1,52.4l3,4.9l29.5-46.4
		C80.6,9.3,82.8,8.8,84.4,9.8z"/>
</g>
</svg>
