<?xml version="1.0" encoding="utf-8"?>
<!-- Generator: Adobe Illustrator 27.0.0, SVG Export Plug-In . SVG Version: 6.00 Build 0)  -->
<svg version="1.1" id="Layer_1" xmlns="http://www.w3.org/2000/svg" xmlns:xlink="http://www.w3.org/1999/xlink" x="0px" y="0px"
	 viewBox="0 0 100 100" style="enable-background:new 0 0 100 100;" xml:space="preserve">
<style type="text/css">
	.st0{fill:#F7F7F7;}
</style>
<path class="st0" d="M87.4,77.1H12.6c-4.8,0-8.6-3.9-8.6-8.6v-37c0-4.8,3.9-8.6,8.6-8.6h74.8c4.8,0,8.6,3.9,8.6,8.6v37
	C96,73.3,92.2,77.1,87.4,77.1z"/>
<path d="M82.4,39.1c-6,0-10.9,4.9-10.9,10.9s4.9,10.9,10.9,10.9c6,0,10.9-4.9,10.9-10.9l0,0C93.4,44,88.5,39.1,82.4,39.1z
	 M82.4,55.1c-2.7,0-4.7-2.2-4.7-5.1s2-5.1,4.7-5.1c2.7,0,4.7,2.2,4.7,5.1S85.1,55.1,82.4,55.1z M50.3,50c0-6-4.7-10.9-10.6-10.9
	S29.3,44,29.3,50S34,60.9,40,60.9c4.8,0,8.6-2.9,9.8-6.9h-6.4c-0.9,1.3-2.2,1.7-3.5,1.7c-2.4,0-4-1.7-4.5-4h14.8
	C50.3,51.1,50.3,50.5,50.3,50L50.3,50z M39.9,44.1c2.1,0,3.8,1.5,4.2,3.7h-8.5C36.2,45.5,37.7,44.1,39.9,44.1z M18.7,60.8l-12.1-21
	h7.1l5,9.5l5-9.5h7.1L18.7,60.8z M60.9,60.8l-12.1-21h7.1l5,9.5l5-9.5H73L60.9,60.8z"/>
</svg>
