<?xml version="1.0" encoding="utf-8"?>
<!-- Generator: Adobe Illustrator 27.0.0, SVG Export Plug-In . SVG Version: 6.00 Build 0)  -->
<svg version="1.1" id="Layer_1" xmlns="http://www.w3.org/2000/svg" xmlns:xlink="http://www.w3.org/1999/xlink" x="0px" y="0px"
	 viewBox="0 0 100 100" style="enable-background:new 0 0 100 100;" xml:space="preserve">
<style type="text/css">
	.st0{fill-rule:evenodd;clip-rule:evenodd;fill:#7F4DA0;}
</style>
<g>
	<g id="Icons">
		<g id="Color-" transform="translate(-598.000000, -758.000000)">
			<path id="Viber" class="st0" d="M648,758c27.6,0,50,22.4,50,50s-22.4,50-50,50s-50-22.4-50-50S620.4,758,648,758z M651,778.4
				c3.4,0.4,6.1,1.2,9.2,2.7c3,1.5,4.9,2.8,7.4,5.3c2.4,2.4,3.7,4.1,5,6.9c1.9,3.9,3,8.5,3.2,13.5c0.1,1.7,0,2.1-0.4,2.6
				c-0.8,1-2.4,0.8-3-0.3c-0.2-0.4-0.2-0.7-0.3-2c-0.1-2.1-0.2-3.5-0.5-5.1c-1.2-6.4-4.2-11.6-9.2-15.2c-4.1-3.1-8.3-4.6-13.9-4.9
				c-1.9-0.1-2.2-0.2-2.6-0.5c-0.8-0.6-0.8-2.1-0.1-2.8c0.5-0.4,0.8-0.5,2.4-0.4C649.1,778.2,650.3,778.3,651,778.4L651,778.4z
				 M628.4,779.4c0.3,0.1,0.9,0.4,1.2,0.6c1.9,1.2,7.1,7.9,8.8,11.3c1,1.9,1.3,3.3,1,4.4c-0.3,1.1-0.8,1.7-3.2,3.6
				c-0.9,0.8-1.8,1.5-2,1.7c-0.4,0.5-0.6,1.5-0.6,2.2c0,1.6,1.1,4.6,2.5,6.9c1.1,1.8,3,4.1,5,5.8c2.3,2.1,4.3,3.5,6.5,4.6
				c2.9,1.4,4.7,1.8,6,1.2c0.3-0.1,0.7-0.3,0.8-0.4c0.1-0.1,0.9-1,1.7-2c1.6-2,2-2.3,3.1-2.7c1.4-0.5,2.8-0.3,4.2,0.4
				c1.1,0.6,3.5,2,5,3.1c2,1.4,6.3,4.9,6.9,5.6c1,1.3,1.2,2.9,0.5,4.7c-0.7,1.9-3.6,5.4-5.6,6.9c-1.8,1.4-3.1,1.9-4.8,2
				c-1.4,0.1-2,0-3.7-0.8c-13.9-5.7-25-14.2-33.8-26c-4.6-6.1-8.1-12.5-10.5-19c-1.4-3.8-1.5-5.5-0.3-7.5c0.5-0.8,2.6-2.9,4.1-4
				c2.5-1.9,3.7-2.6,4.7-2.8C626.6,779.1,627.7,779.2,628.4,779.4L628.4,779.4z M651.7,785.5c6,0.9,10.6,3.7,13.7,8.2
				c1.7,2.5,2.8,5.5,3.1,8.7c0.1,1.2,0.1,3.3,0,3.7c-0.1,0.3-0.5,0.8-0.9,1c-0.4,0.2-1.2,0.2-1.7-0.1c-0.8-0.4-1-1-1-2.7
				c0-2.6-0.7-5.2-1.8-7.3c-1.3-2.4-3.2-4.4-5.5-5.7c-2-1.2-4.9-2.1-7.6-2.3c-1-0.1-1.5-0.3-1.9-0.7c-0.6-0.6-0.6-1.5-0.1-2.2
				C648.5,785.3,649.3,785.2,651.7,785.5L651.7,785.5z M653.8,793c1.9,0.4,3.4,1.2,4.7,2.3c1.6,1.5,2.5,3.4,2.9,6.1
				c0.3,1.8,0.2,2.4-0.5,3c-0.6,0.5-1.7,0.6-2.3,0c-0.5-0.4-0.6-0.7-0.7-1.7c-0.1-1.4-0.4-2.3-0.8-3.2c-0.9-1.9-2.4-2.8-5-3.1
				c-1.2-0.1-1.6-0.3-2-0.7c-0.7-0.9-0.4-2.2,0.6-2.8c0.4-0.2,0.5-0.2,1.4-0.2C652.6,792.8,653.4,792.9,653.8,793L653.8,793z"/>
		</g>
	</g>
</g>
</svg>
