<?xml version="1.0" encoding="utf-8"?>
<!-- Generator: Adobe Illustrator 27.0.0, SVG Export Plug-In . SVG Version: 6.00 Build 0)  -->
<svg version="1.1" id="Layer_1" xmlns="http://www.w3.org/2000/svg" xmlns:xlink="http://www.w3.org/1999/xlink" x="0px" y="0px"
	 viewBox="0 0 100 100" style="enable-background:new 0 0 100 100;" xml:space="preserve">
<style type="text/css">
	.st0{fill:#0091EA;}
	.st1{fill-rule:evenodd;clip-rule:evenodd;fill:#FFFFFF;}
</style>
<g>
	<path class="st0" d="M77.5,0h-55C10.1,0,0,10.1,0,22.5v5.3v30.6v19.2C0,89.9,10.1,100,22.5,100h55c12.4,0,22.5-10.1,22.5-22.5V58.3
		V27.8v-5.3C100,10.1,89.9,0,77.5,0z"/>
	<polygon class="st1" points="75.6,41.7 25.5,41.7 29.5,45.8 	"/>
	<path class="st1" d="M26.7,35.2c-1.7,0-3-1.7-3-3.8c0-2.1,1.3-3.8,3-3.8s3,1.7,3,3.8C29.7,33.5,28.5,35.2,26.7,35.2z M29.7,24.6
		v0.6c-0.9-0.6-1.8-0.9-2.9-0.9c-3.5,0-6.2,3.2-6.2,7.1s2.7,7.1,6.2,7.1c1.1,0,2-0.3,2.9-0.9v0.6h3.1V24.6L29.7,24.6L29.7,24.6z"/>
	<path class="st1" d="M54.5,24.6v8c0,1.5-1,2.8-2.5,2.8c-1.5,0-2.5-1.3-2.5-2.8v-8h-3.1v8c0,3.3,2.3,5.9,5.6,5.9
		c1.5,0,2.6-0.8,2.6-0.8v0.5h3.1V24.6L54.5,24.6L54.5,24.6z"/>
	<path class="st1" d="M83.5,38.1v-8c0-1.5,1-2.8,2.5-2.8c1.5,0,2.5,1.3,2.5,2.8v8h3.1v-8c0-3.3-2.3-5.9-5.6-5.9
		c-1.5,0-2.6,0.8-2.6,0.8v-0.5h-3.1v13.5C80.4,38.1,83.5,38.1,83.5,38.1z"/>
	<path class="st1" d="M11.6,24.4h2.1c1.5,0,2.7,1.2,2.7,2.6c0,1.5-1.2,2.6-2.7,2.6h-2.1C11.6,29.7,11.6,24.4,11.6,24.4z M11.6,38.1
		v-5.2h2.3l4,5.2h4.1l-4.8-6.3c1.5-1.1,2.5-2.8,2.5-4.8c0-3.2-2.6-5.8-5.9-5.8H8.3v16.9C8.3,38.1,11.6,38.1,11.6,38.1z"/>
	<path class="st1" d="M66,34.9c-0.3,0.2-0.6,0.3-1,0.3c-0.5,0-1.5-0.4-1.5-1.7v-5.8h2.7v-3.2h-2.7v-3.4h-3.1v3.4h-1.6v3.2h1.6v5.8
		c0,3,2.3,4.8,4.6,4.8c0.9,0,2.1-0.3,3-0.9L66,34.9z"/>
	<polygon class="st1" points="42.3,38.1 46.7,38.1 40.5,30.9 45.8,24.6 41.5,24.6 37.7,29.3 37.7,20.1 34.5,20.1 34.5,38.1 
		37.7,38.1 37.7,32.6 	"/>
	<path class="st1" d="M75.9,29.6h-5.6C71,26.4,75.3,26.3,75.9,29.6 M73.2,24.2c-3.6,0-6.2,3.1-6.2,7.1c0,4.2,3.2,7.1,6.5,7.1
		c1.6,0,3.7-0.6,5.5-3l-2.7-1.6c-2.1,3.1-5.7,1.5-6.1-1.6l8.9,0C79.9,27.5,76.7,24.2,73.2,24.2"/>
	<polygon class="st1" points="29,52.9 37.8,52.9 26.6,83 19.7,83 8.3,52.9 17.2,52.9 23.1,72.6 	"/>
	<polygon class="st1" points="49,83 49,52.9 40.6,52.9 40.6,83 	"/>
	<polygon class="st1" points="64.4,72 62.1,74.3 62.1,83 53.7,83 53.7,52.9 62.1,52.9 62.1,64.4 71.3,52.9 80.8,52.9 69.7,66.4 
		81.5,83 71.9,83 	"/>
	<polygon class="st1" points="91.7,83 91.7,52.9 83.3,52.9 83.3,83 	"/>
</g>
</svg>
