<?xml version="1.0" encoding="utf-8"?>
<!-- Generator: Adobe Illustrator 27.0.0, SVG Export Plug-In . SVG Version: 6.00 Build 0)  -->
<svg version="1.1" id="Layer_1" xmlns="http://www.w3.org/2000/svg" xmlns:xlink="http://www.w3.org/1999/xlink" x="0px" y="0px"
	 viewBox="0 0 100 100" style="enable-background:new 0 0 100 100;" xml:space="preserve">
<style type="text/css">
	.st0{fill:#1AB7EA;}
</style>
<g>
	<path id="path4" class="st0" d="M22.4,49.2c-0.1,2.2-1.6,5.2-4.6,8.9c-3,4-5.6,5.9-7.7,5.9c-1.3,0-2.4-1.2-3.3-3.6
		C6.2,58.2,5.6,56,5,53.8c-0.7-2.4-1.4-3.6-2.2-3.6c-0.2,0-0.8,0.4-1.8,1.1L0,49.9c1.1-1,2.2-1.9,3.3-2.9c1.5-1.3,2.6-1.9,3.3-2
		c1.7-0.2,2.8,1,3.2,3.6c0.4,2.7,0.7,4.5,0.9,5.1c0.5,2.3,1.1,3.4,1.7,3.4c0.5,0,1.2-0.7,2.1-2.2c0.9-1.5,1.4-2.6,1.5-3.4
		c0.1-1.3-0.4-1.9-1.5-1.9c-0.5,0-1.1,0.1-1.7,0.4c1.1-3.6,3.2-5.4,6.3-5.3C21.4,44.8,22.5,46.3,22.4,49.2"/>
	<path id="path6" class="st0" d="M31.8,38.4c0,0.8-0.5,1.6-1.3,2.4c-0.9,0.9-2,1.3-3.2,1.3c-1.9,0-2.8-0.8-2.8-2.5
		c0-0.9,0.5-1.7,1.5-2.5c1-0.8,2.1-1.2,3.3-1.2c0.7,0,1.3,0.3,1.8,0.8C31.6,37.2,31.8,37.8,31.8,38.4z M36.2,56.2
		c-0.9,1.8-2.2,3.4-3.9,4.8c-2.2,1.9-4.5,2.9-6.7,2.9c-1,0-1.8-0.3-2.4-1c-0.6-0.7-0.8-1.5-0.8-2.6c0-1.1,0.4-2.8,1-5.1
		c0.7-2.3,1-3.5,1-3.7c0-0.9-0.3-1.3-0.9-1.3c-0.2,0-0.8,0.4-1.7,1.1l-1.2-1.4c1.1-1,2.1-1.9,3.2-2.9c1.4-1.3,2.5-1.9,3.2-2
		c1.1-0.1,1.9,0.2,2.4,1c0.5,0.8,0.7,1.7,0.6,2.9c-0.4,2-0.9,4.6-1.4,7.8c0,1.4,0.5,2.2,1.6,2.2c0.5,0,1.3-0.5,2.5-1.5
		c1-0.8,1.8-1.6,2.5-2.3L36.2,56.2"/>
	<path id="path8" class="st0" d="M67.5,56.2c-0.9,1.8-2.2,3.4-3.9,4.8c-2.2,1.9-4.5,2.9-6.7,2.9c-2.2,0-3.2-1.2-3.2-3.6
		c0-1.1,0.2-2.4,0.6-3.9C54.8,55,55,53.8,55,53c0-1.3-0.4-1.9-1.2-1.9c-0.9,0-1.9,1-3.1,3.1c-1.3,2.2-2,4.3-2.1,6.3
		c-0.1,1.4,0.1,2.5,0.4,3.3c-2.3,0.1-4-0.3-4.9-1.2c-0.8-0.7-1.2-2-1.2-3.7c0-1.1,0.2-2.1,0.5-3.2c0.3-1.1,0.5-2,0.5-2.9
		c0.1-1.2-0.4-1.9-1.4-1.9c-0.8,0-1.7,1-2.7,2.9c-1,1.9-1.5,3.9-1.6,6c-0.1,1.9,0.1,3.2,0.4,3.9c-2.3,0.1-3.9-0.4-4.9-1.5
		c-0.8-0.9-1.2-2.2-1.1-4c0-0.9,0.2-2.1,0.5-3.6c0.3-1.6,0.4-2.8,0.5-3.6c0.1-0.6-0.1-0.9-0.5-0.9c-0.2,0-0.8,0.3-1.7,1l-1.2-1.4
		c0.2-0.1,1.2-1.1,3.2-2.9c1.4-1.3,2.4-2,2.9-2c0.9-0.1,1.6,0.3,2.1,1.1c0.5,0.8,0.8,1.7,0.8,2.7c0,0.3,0,0.7-0.1,1
		c0.5-0.8,1.1-1.4,1.8-2c1.5-1.3,3.3-2.1,5.2-2.3c1.6-0.1,2.8,0.3,3.5,1.2c0.6,0.7,0.8,1.8,0.8,3.2c0.2-0.2,0.5-0.4,0.8-0.7
		c0.8-0.9,1.5-1.6,2.3-2.2c1.2-0.9,2.5-1.4,3.9-1.5c1.6-0.1,2.8,0.2,3.5,1.2c0.6,0.7,0.9,1.8,0.8,3.2c0,0.9-0.3,2.3-0.7,4.1
		c-0.4,1.8-0.6,2.8-0.6,3.1c0,0.7,0,1.2,0.2,1.5c0.2,0.3,0.6,0.4,1.2,0.4c0.5,0,1.3-0.5,2.5-1.5c1-0.8,1.8-1.6,2.5-2.3L67.5,56.2"/>
	<path id="path10" class="st0" d="M75,50.9c0-0.9-0.3-1.3-1.1-1.3c-1,0-2,0.7-3.1,2.1c-1,1.4-1.6,2.7-1.6,4c0,0,0,0.2,0,0.7
		c1.6-0.6,3.1-1.5,4.3-2.7C74.4,52.5,74.9,51.6,75,50.9z M86.4,56.2c-1,1.6-2.9,3.2-5.7,4.8c-3.5,2-7.1,3.1-10.8,3.1
		c-2.7,0-4.7-0.9-5.8-2.7c-0.8-1.2-1.2-2.7-1.2-4.4c0-2.7,1.2-5.3,3.6-7.7c2.6-2.7,5.7-4,9.2-4c3.3,0,5,1.3,5.2,4
		c0.1,1.7-0.8,3.5-2.8,5.3c-2.1,2-4.8,3.2-8.1,3.8c0.6,0.8,1.5,1.3,2.7,1.3c2.4,0,5-0.6,7.9-1.8c2-0.9,3.7-1.8,4.8-2.7L86.4,56.2"/>
	<path id="path12" class="st0" d="M94.3,52.6c0-0.9-0.1-1.7-0.4-2.5c-0.3-0.8-0.7-1.1-1.2-1.1c-1.7,0-3.1,0.9-4.2,2.8
		c-0.9,1.5-1.4,3.1-1.5,4.8c0,0.8,0.1,1.6,0.5,2.2c0.4,0.7,0.9,1.1,1.6,1.1c1.5,0,2.8-0.9,3.9-2.7C93.8,55.8,94.2,54.2,94.3,52.6z
		 M100,52.8c-0.1,3.1-1.3,5.7-3.4,8c-2.1,2.2-4.8,3.4-8,3.4c-2.6,0-4.7-0.9-6-2.6c-1-1.3-1.6-2.9-1.7-4.8c-0.2-2.9,0.9-5.5,3.1-7.9
		c2.4-2.7,5.4-4,9.1-4c2.3,0,4.1,0.8,5.3,2.4C99.6,48.7,100.1,50.5,100,52.8"/>
</g>
</svg>
