<?xml version="1.0" encoding="utf-8"?>
<!-- Generator: Adobe Illustrator 27.0.0, SVG Export Plug-In . SVG Version: 6.00 Build 0)  -->
<svg version="1.1" id="Layer_1" xmlns="http://www.w3.org/2000/svg" xmlns:xlink="http://www.w3.org/1999/xlink" x="0px" y="0px"
	 viewBox="0 0 100 100" style="enable-background:new 0 0 100 100;" xml:space="preserve">
<style type="text/css">
	.st0{fill-rule:evenodd;clip-rule:evenodd;fill:#4C75A3;}
	.st1{fill-rule:evenodd;clip-rule:evenodd;fill:#FFFFFF;}
</style>
<g id="layer1">
	<g id="g3257">
		<path id="path2438" class="st0" d="M15.4,0h69.2C93.1,0,100,6.9,100,15.4v69.2c0,8.5-6.9,15.4-15.4,15.4H15.4
			C6.9,100,0,93.1,0,84.6V15.4C0,6.9,6.9,0,15.4,0"/>
		<path id="path2442" class="st1" d="M49.2,70h4.1c0,0,1.2-0.1,1.9-0.8c0.6-0.6,0.6-1.8,0.6-1.8s-0.1-5.5,2.5-6.3
			c2.5-0.8,5.7,5.3,9.2,7.7c2.6,1.8,4.5,1.4,4.5,1.4L81,70c0,0,4.8-0.3,2.5-4.1c-0.2-0.3-1.3-2.8-6.8-7.9c-5.7-5.3-5-4.5,1.9-13.7
			c4.2-5.6,5.9-9,5.4-10.5c-0.5-1.4-3.6-1-3.6-1L70.1,33c0,0-0.8-0.1-1.3,0.2c-0.6,0.3-0.9,1.1-0.9,1.1s-1.6,4.3-3.8,8
			c-4.6,7.8-6.4,8.2-7.2,7.7c-1.7-1.1-1.3-4.5-1.3-6.9c0-7.5,1.1-10.7-2.2-11.5c-1.1-0.3-1.9-0.4-4.8-0.5c-3.7,0-6.8,0-8.5,0.9
			c-1.2,0.6-2.1,1.9-1.5,1.9c0.7,0.1,2.2,0.4,3,1.5c1.1,1.4,1,4.7,1,4.7s0.6,8.9-1.4,10c-1.4,0.8-3.3-0.8-7.4-7.8
			c-2.1-3.6-3.7-7.6-3.7-7.6s-0.3-0.7-0.8-1.1c-0.7-0.5-1.6-0.6-1.6-0.6l-9.8,0.1c0,0-1.5,0-2,0.7c-0.5,0.6,0,1.7,0,1.7
			s7.7,17.9,16.3,26.9C40.1,70.5,49.2,70,49.2,70"/>
	</g>
</g>
</svg>
