<?xml version="1.0" encoding="utf-8"?>
<!-- Generator: Adobe Illustrator 27.0.0, SVG Export Plug-In . SVG Version: 6.00 Build 0)  -->
<svg version="1.1" id="Layer_1" xmlns="http://www.w3.org/2000/svg" xmlns:xlink="http://www.w3.org/1999/xlink" x="0px" y="0px"
	 viewBox="0 0 100 100" style="enable-background:new 0 0 100 100;" xml:space="preserve">
<style type="text/css">
	.st0{fill:#5281B8;}
	.st1{fill:#FFFFFF;}
</style>
<g>
	<path class="st0" d="M15,0h70c8.3,0,15,6.7,15,15v70c0,8.3-6.7,15-15,15H15c-8.3,0-15-6.7-15-15V15C0,6.7,6.7,0,15,0z"/>
	<path class="st1" d="M53.5,70.9c1-0.2,2.7-0.6,2.7-2.9c0,0-0.2-5.9,2.5-6.6s6.2,5.7,10,8.2c2.7,1.8,4.9,1.6,4.9,1.6l10-0.2
		c0,0,5.1-0.4,2.7-4.5c-0.2-0.4-1.8-2.9-7.6-8.2c-6.1-5.9-5.1-4.9,2.1-14.8c4.5-6.1,6.4-9.8,5.9-11.1c-0.8-1.4-3.9-1.2-3.9-1.2H71.7
		c-1.2,0-1.8,0.2-2.3,1.2c0,0-1.8,4.9-4.1,8.8c-4.9,8.4-6.8,8.8-7.8,8.2c-1.8-1-1.4-4.7-1.4-7.2c0-8.8,1.4-11.9-2.5-12.7
		C51,28.9,42,28.5,39.3,29.9c-1.4,0.8-2.1,2.1-1.6,2.3c0.6,0,2.3,0.2,3.3,1.4c1.6,2.5,1.8,14.6-0.4,15.8
		c-2.9,2.1-10.4-12.1-12.1-16.8c-0.4-1.2-1-1.4-2.3-1.8H15.4c-1.2,0-2.9,0.2-2.1,2.5c5.3,10.9,16.2,37.7,35.9,37.5H53.5z"/>
</g>
</svg>
