<?xml version="1.0" encoding="utf-8"?>
<!-- Generator: Adobe Illustrator 27.0.0, SVG Export Plug-In . SVG Version: 6.00 Build 0)  -->
<svg version="1.1" id="Layer_1" xmlns="http://www.w3.org/2000/svg" xmlns:xlink="http://www.w3.org/1999/xlink" x="0px" y="0px"
	 viewBox="0 0 100 100" style="enable-background:new 0 0 100 100;" xml:space="preserve">
<style type="text/css">
	.st0{fill:#FCDC00;}
</style>
<g>
	<path class="st0" d="M49.1,100c-2.1-2.4-5.1-3.4-7.7-5c-10.8-6.4-21.7-12.7-32.6-19c-1.5-0.9-2.1-1.8-2-3.5
		c0.1-15.2,0.1-30.5,0-45.7c0-1.6,0.5-2.5,1.9-3.3C21.9,16,35,8.4,48.1,0.7c1.4-0.8,2.3-0.9,3.8-0.1C64.9,8.3,78,15.9,91.2,23.5
		c1.5,0.9,2,1.9,2,3.6c-0.1,15.1-0.1,30.3,0,45.4c0,1.9-0.8,2.8-2.3,3.7c-12.6,7.3-25.2,14.6-37.8,22c-0.9,0.6-1.8,1.2-2.8,1.8
		C49.9,100,49.5,100,49.1,100z"/>
	<path d="M21.9,44.8c4,2.3,7.5,4.4,11.1,6.4c4.9,2.9,9.9,5.7,14.8,8.7c1.7,1.1,3,0.9,4.6-0.1c7.7-4.6,15.5-9,23.1-13.6
		c2.2-1.3,2.8-1.2,2.7,1.5c-0.2,5.2-0.1,10.4,0,15.6c0,1.6-0.4,2.5-1.8,3.3c-8.2,4.7-16.4,9.4-24.5,14.3c-1.4,0.8-2.4,0.7-3.8-0.1
		c-8-4.8-16.1-9.5-24.2-14.1c-1.5-0.9-2-1.8-2-3.6C21.9,57.3,21.9,51.3,21.9,44.8z"/>
</g>
</svg>
