<?xml version="1.0" encoding="utf-8"?>
<!-- Generator: Adobe Illustrator 27.0.0, SVG Export Plug-In . SVG Version: 6.00 Build 0)  -->
<svg version="1.1" id="Layer_1" xmlns="http://www.w3.org/2000/svg" xmlns:xlink="http://www.w3.org/1999/xlink" x="0px" y="0px"
	 viewBox="0 0 100 100" style="enable-background:new 0 0 100 100;" xml:space="preserve">
<style type="text/css">
	.st0{fill:#FF500A;}
</style>
<g>
	<path class="st0" d="M25.7,41.6c0,0,1.5-12.1,0-17.5s-5.1-8.3-10.3-8.6S2.5,20,1.2,33.5C0,43.7,0.1,54,1.5,64.2
		c1.1,6.7,4.4,16.2,10,19.9c5.6,3.8,12.5,3.9,17.6-0.5c5.1-4.4,14.1-26.6,17.7-31.4c0,0-1.3,16.2,5.7,21.8
		c6.9,5.6,16.5,4.2,20.6-3.3c4.2-7.5,13.7-27.1,19.2-35.1c5.5-8,9-13.2,6.5-17.4s-10.2-3.8-15.2,0.9S66.4,36.7,66.4,36.7
		s2.5-19.6-5.3-22.5s-16.7,0-25,12.3L25.7,41.6z"/>
</g>
</svg>
