<?xml version="1.0" encoding="utf-8"?>
<!-- Generator: Adobe Illustrator 27.0.0, SVG Export Plug-In . SVG Version: 6.00 Build 0)  -->
<svg version="1.1" id="Layer_1" xmlns="http://www.w3.org/2000/svg" xmlns:xlink="http://www.w3.org/1999/xlink" x="0px" y="0px"
	 viewBox="0 0 100 100" style="enable-background:new 0 0 100 100;" xml:space="preserve">
<style type="text/css">
	.st0{fill:#FFFFFF;}
</style>
<g>
	<path class="st0" d="M45.2,83.2c3.3,0,6.5,0.1,9.8-0.1c3-0.1,6.1-0.4,9-1.2c23.1-5.7,35.5-31.2,25.4-52.8
		c-6.1-13-16.6-20.5-30.9-22c-11-1.2-20.8,2.1-29.1,9.5C21.2,24,17,33.2,16.7,44.2c-0.1,2.5,0,5.2,0,7.7c-0.1,5.5-3.2,9.8-8.5,11.5
		c-0.1,0-0.2,0.1-0.3,0.1c2,5.4,10.3,13.3,15.5,15.3C29.9,69.9,43,73.1,45.2,83.2L45.2,83.2z"/>
	<path d="M45,88.1c-0.8,3.6-2.8,6.3-6,8c-4.1,2.1-8.2,2-12.1-0.4c-4-2.5-5.8-6.4-5.5-11.1c0.1-0.8-0.1-1.1-0.8-1.5
		c-7.1-3.7-12.7-8.9-16.5-15.9c-0.7-1.4-1.3-2.8-1.7-4.4C2,60.7,2.8,59.7,5,59.5c2.6-0.3,5-1.3,6.1-3.8c0.5-1.1,0.8-2.4,0.8-3.6
		c0.1-3.1,0-6.3,0.1-9.4c0.8-12.1,5.8-22.1,15-30C35.5,5.4,45.4,2,56.5,2.3c19.4,0.7,36.1,14.4,40,33.5C100.1,53.2,94.7,67.7,81,79
		c-0.8,0.7-1.7,1.3-2.6,1.9c-0.5,0.4-0.7,0.7-0.4,1.2c1.8,5.5-0.7,11.6-5.8,14.3c-6.9,3.4-14.9-0.1-17-7.5c-0.1-0.3-0.4-0.7-0.7-0.7
		C51.4,88,48.2,88.1,45,88.1L45,88.1z M45.2,83.2c3.3,0,6.5,0.1,9.8-0.1c3-0.1,6.1-0.4,9-1.2c23.1-5.7,35.5-31.2,25.4-52.8
		c-6.1-13-16.6-20.5-30.9-22c-11-1.2-20.8,2.1-29.1,9.5C21.2,24,17,33.2,16.7,44.2c-0.1,2.5,0,5.2,0,7.7c-0.1,5.5-3.2,9.8-8.5,11.5
		c-0.1,0-0.2,0.1-0.3,0.1c2,5.4,10.3,13.3,15.5,15.3C29.9,69.9,43,73.1,45.2,83.2L45.2,83.2z"/>
	<path d="M60.5,64.2c-8.6-0.4-14.3-3.9-17.9-10.7c-0.9-1.7-0.1-3.3,1.6-3.7c1-0.2,2,0.5,2.7,1.7c0.9,1.5,1.9,2.9,3.1,4.1
		c6.8,6.5,18,4.4,22.3-3.9c0.5-1,1.2-1.8,2.4-1.8c1.8,0.1,2.8,1.9,2,3.6c-2.3,4.6-5.8,7.9-10.6,9.5C64.1,63.6,61.9,63.9,60.5,64.2
		L60.5,64.2z"/>
	<path d="M45.3,40.3c-2.6,0-4.7-2.1-4.7-4.7s2.1-4.7,4.7-4.7S50,33,50,35.6C50.1,38.2,47.9,40.3,45.3,40.3L45.3,40.3z"/>
	<path d="M78.6,35.5c0,2.6-2.1,4.7-4.7,4.8c-2.6,0-4.7-2-4.7-4.7c0-2.6,2-4.7,4.7-4.8C76.5,30.8,78.6,32.9,78.6,35.5L78.6,35.5z"/>
</g>
</svg>
