<?xml version="1.0" encoding="utf-8"?>
<!-- Generator: Adobe Illustrator 27.0.0, SVG Export Plug-In . SVG Version: 6.00 Build 0)  -->
<svg version="1.1" id="Layer_1" xmlns="http://www.w3.org/2000/svg" xmlns:xlink="http://www.w3.org/1999/xlink" x="0px" y="0px"
	 viewBox="0 0 100 100" style="enable-background:new 0 0 100 100;" xml:space="preserve">
<style type="text/css">
	.st0{fill:#FEE900;}
	.st1{fill:#FEEA00;}
	.st2{fill:#FEFEFE;}
	.st3{fill:#FDFDFD;}
	.st4{fill:#020100;}
	.st5{fill:#060606;}
	.st6{fill:#111111;}
</style>
<g>
	<path d="M43,86.4c-0.2-1.1,0.3-2,0.5-3c0.8-2.8,1.6-5.7,2.5-8.5c0.3-1,0.4-2,0.2-2.9c-0.2-0.9-0.9-1.5-2-1.5c-1.3,0-2.7,0-4,0
		c-0.8,0-1.7,0.2-2.3-0.6c-0.2-0.3-0.9-0.3-1.2,0c-0.8,0.8-1.8,0.6-2.7,0.6c-2.7,0-5.3-0.1-8,0c-1.5,0.1-2.6-0.6-3.7-1.4
		c-0.5-0.4-0.7-0.5-1.2,0c-0.9,0.8-1.9,1.2-3.1,1.1c-2.3-0.1-4.7-0.2-6.9,0c-2.5,0.3-3.7-1.1-5.2-2.7c-1.8-1.9-1.8-4-1.8-6.3
		c0-2.4,0.1-4.8-0.2-7.3c0-0.1,0-0.3,0-0.4c-2-2.8,0-5.3,0.7-7.9c0.3-0.9,1.2-1.2,2.1-1.2c3.5,0,6.9,0,10.4,0c0.7,0,1.3,0.1,1.8,0.7
		c0.5,0.5,0.8,0.3,1.3,0c0.9-0.4,1-0.9,0.5-1.7c-0.8-1.1-0.8-2.5-0.9-3.8c-0.2-2.6-0.3-5.2,0.5-7.7c1-3.2,2.6-6.1,5-8.6
		c1.4-1.5,2.9-2.9,4.6-4.1c2.2-1.6,4.8-2.7,7.3-3.7c2.6-1,5.4-1.5,8.2-1.9c2.7-0.3,5.5-0.3,8.3,0.1c2.2,0.3,4.4,0.7,6.6,1.3
		c3.1,0.9,6.1,2.3,8.7,4.1c1.9,1.3,3.7,2.9,5.3,4.7c1.6,1.9,2.9,3.8,3.7,6c1.5,3.7,2,7.5,0.8,11.4c-0.3,1-0.4,2.2-0.9,3.1
		c-0.1,0.2-0.2,0.5,0.3,0.7c0.4,0.1,0.7,0.4,1,0c0.5-0.8,1.4-0.8,2.1-0.8c3.1,0,6.1,0,9.2,0c1.9,0,3.4,1,4.4,2.6
		c0.2,0.4,0.6,0.6,0.9,0.9c1.9,2.4,1.7,5.2,1.2,8c0,0.3-0.2,0.6-0.6,0.7c-0.4,0.1-0.2,0.5-0.1,0.7c0.8,1.1,1,2.3,1,3.6
		c0,2.1,0.1,4.2-0.5,6.3c-0.4,1.3-2.6,3.2-4,3.2c-2.9,0-5.8,0-8.7,0c-1.1,0-1.9-0.7-2.7-1.4c-0.4-0.4-0.6-0.5-1.1,0.1
		c-0.6,0.8-1.5,1.3-2.6,1.3c-2.9,0-5.8,0-8.7,0c-0.3,0-0.6,0.1-0.8-0.1c-0.9-0.6-1.8-1.1-2.7,0c-0.2,0.3-0.5,0.2-0.8,0.2
		c-0.8,0-1.5,0-2.3,0c-3.7,0-3.6,0.1-6.1,2.8c-1.7,1.8-3.3,3.8-5.2,5.5c-1.7,1.5-3,3.4-4.7,5c-0.9,0.9-1.8,1.7-2.7,2.6
		C43.3,86.4,43.1,86.4,43,86.4z"/>
	<path class="st0" d="M49.8,60.8c-1,0.8-0.1,2.8-2.4,2.9c-2.4,0.1-3.7-0.6-3.9-3c0,1.5-0.1,3.1,0,4.6c0,0.9-0.2,1.3-1.2,1.2
		c-1.1-0.1-2.2-0.1-3.3,0c-0.8,0.1-1.1-0.2-1.1-1c0-4.2,0-8.4,0-12.6c0-0.5,0.2-1.3-0.8-1.2c-0.4,0-0.3-0.3-0.3-0.5
		c0-0.1,0.1-0.2,0.1-0.4c0.8-3.7,0.8-3.7,4.7-3.7c0.3,0,0.6,0,0.9,0c1.1-0.2,1.4,0.3,1.7,1.3c0.6,2.1,1.3,4.2,2,6.2
		c0.1,0.3,0.1,0.6,0.5,0.8c0.8-2.5,1.6-4.9,2.3-7.4c0.2-0.7,0.5-1,1.3-1c1.3,0.1,2.7,0,4,0c0.7,0,0.9,0.2,0.9,0.9c0,6,0,11.9,0,17.9
		c0,0.6-0.2,0.8-0.8,0.8c-1.3,0-2.5,0-3.8,0c-0.7,0-0.9-0.2-0.9-0.9C49.8,64,49.8,62.4,49.8,60.8z"/>
	<path class="st0" d="M35.8,56.8c0,2,0,4,0,6.1c0,2.5-1.2,3.7-3.7,3.7c-2.4,0-4.8,0-7.2,0c-2.3,0-3.6-1.2-3.6-3.6c0-3.3,0-6.6,0-10
		c0-0.5,0.3-1.2-0.7-1.3c-0.4,0-0.3-0.5-0.2-0.7c0.3-1.1,0.6-2.3,0.9-3.4c0.1-0.6,0.5-0.6,0.9-0.6c3.6,0,7.2,0,10.9,0
		c1.5,0,2.7,1.4,2.7,3.2C35.8,52.4,35.8,54.6,35.8,56.8C35.8,56.8,35.8,56.8,35.8,56.8z"/>
	<path class="st1" d="M85.8,47c1.4,0,2.8,0,4.2,0c1.7,0,2.8,0.9,3.1,2.5c0.2,1.2,0.5,2.5-0.1,3.4c-0.4,0.7-1.8,0.1-2.7,0.2
		c-0.2,0-0.3,0-0.5,0c-2,0-2,0-2.1-1.9c0-0.8-0.5-0.9-1.1-0.8c-0.5,0-1.2-0.1-1.1,0.8c0,0.8,0,1.5,0,2.3c0,0.6,0.5,0.6,0.8,0.8
		c1.6,0.6,3.2,1.2,4.7,1.8c1.7,0.7,2.1,1.3,2.1,3.1c0,1.3,0,2.6,0,3.9c0,2.3-1.3,3.5-3.5,3.5c-2.1,0-4.1,0-6.2,0
		c-1.9,0-3.2-1.1-3.5-3.1c-0.3-2.5-0.3-2.5,2.1-2.5c0.5,0,1.1,0,1.6,0c1-0.1,1.9-0.2,1.7,1.4c-0.1,0.9,0.8,0.6,1.3,0.7
		c0.6,0.1,1-0.1,0.9-0.8c0,0,0-0.1,0-0.1c0.1-2.6,0.1-2.6-2.3-3.5c-1.1-0.4-2.2-0.8-3.3-1.2c-1.5-0.5-2.1-1.5-2.2-3
		c-0.1-0.9,0.8-2.2-0.8-2.7c0,0,0-0.4,0.1-0.6c0.3-1.1,0.6-2.1,0.8-3.2c0.1-0.8,0.5-0.9,1.2-0.9C82.8,47,84.3,47,85.8,47z"/>
	<path class="st0" d="M11.6,56.8c0,1.8,0.1,3.5,0,5.3c0,1,0.5,1,1.2,1c0.7,0,1.3,0.1,1.2-0.9c-0.2-1.1,0.3-1.3,1.3-1.2
		c1.2,0.1,2.4,0,3.5,0c0.3,0,0.7-0.1,0.7,0.5c0,1.1,0.2,2.2-0.3,3.2c-0.6,1.2-1.4,1.9-2.8,1.9c-2.2,0-4.4,0-6.6,0
		c-2.4,0-3.6-1.2-3.6-3.6c0-3.3,0-6.6,0-10c0-0.5,0.2-1.1-0.7-1.2c-0.5,0-0.2-0.4-0.2-0.7c0.3-1.1,0.6-2.3,0.9-3.4
		C6.2,47.1,6.4,46.9,7,47c3.3,0,6.6,0,9.8,0c1.4,0,2.1,1,2.4,2.2c0.4,1.3,0.6,2.8,0,3.9c-0.4,0.8-1.9,0.2-3,0.3c-0.1,0-0.2,0-0.3,0
		c-2,0-2.1,0-2.1-2c0-1-0.5-1-1.3-1.1c-0.8,0-1.1,0.3-1.1,1.1C11.7,53.2,11.6,55,11.6,56.8C11.6,56.8,11.6,56.8,11.6,56.8z"/>
	<path class="st0" d="M70.5,56.6c0,1.8,0.1,3.5,0,5.3c0,0.9,0.3,1.1,1.2,1.1c0.8,0,1.4-0.1,1.2-1.1c-0.2-0.9,0.3-1.1,1.1-1.1
		c1.2,0.1,2.4,0,3.7,0c0.3,0,0.7-0.1,0.7,0.5c0,1,0.2,2.1-0.3,3.1c-0.5,1.3-1.5,2-3,2c-2.2,0-4.5-0.1-6.7,0
		c-1.7,0.1-3.2-1.4-3.3-2.9C65,62.1,65,60.7,65,59.2c0-2,0-4,0-6.1c0-0.5,0.3-1.3-0.7-1.4c-0.2,0-0.2-0.2-0.2-0.4
		c0-0.2,0.1-0.3,0.1-0.5c0.7-3.9,0.7-3.9,4.6-3.9c2.1,0,4.2,0,6.3,0c1.7,0,2.9,1,3.2,2.7c0.6,3.4,0.3,3.8-3.2,3.8
		c-0.2,0-0.3,0-0.5,0c-1.8,0-1.8,0-1.8-1.8c0-0.8-0.1-1.3-1.1-1.3c-1,0-1.2,0.3-1.2,1.2C70.6,53.3,70.6,54.9,70.5,56.6
		C70.6,56.6,70.5,56.6,70.5,56.6z"/>
	<path class="st2" d="M29,32c0-1.5,0-2.9,0-4.4c0-0.6,0.1-0.9,0.8-0.9c2.7-0.1,2.7-0.1,2.7,2.6c0,2.1,0,4.1,0,6.2
		c0,1,0.3,1.7,1.4,1.7c1.1,0,1.5-0.7,1.5-1.8c0-2.5,0-5,0-7.6c0-0.8,0.2-1.2,1.1-1.2c2.4,0,2.4,0,2.4,2.4c0,2.1,0,4.1,0,6.2
		c0,1.3,0.5,2,1.5,1.9c1.1-0.1,1.4-0.9,1.4-1.9c0-2.5,0-5,0-7.6c0-0.8,0.2-1.1,1-1.1c2.5,0,2.5,0,2.5,2.5c0,2.1,0,4.1,0,6.2
		c0,4.3-3.9,6.5-7.7,4.4c-0.6-0.4-0.9,0-1.3,0.2c-3.5,2-7.3-0.1-7.4-4.2C29,34.5,29,33.3,29,32z"/>
	<path class="st3" d="M59.2,33.6c0-2,0-4,0-6c0-0.8,0.2-1,1-1c1.7,0.1,3.4,0,5,0c3.3,0.1,5.2,3.2,3.8,6.1c-0.2,0.4-0.2,0.7,0.1,1.1
		c1.2,1.4,1.5,2.9,0.6,4.5c-0.8,1.6-2.1,2.3-3.9,2.3c-1.9,0-3.8,0-5.7,0c-0.8,0-1-0.2-1-1C59.3,37.6,59.2,35.6,59.2,33.6z"/>
	<path class="st0" d="M63,56.8c0,2.9,0,5.7,0,8.6c0,0.9-0.2,1.2-1.1,1.2c-1.1-0.1-2.2-0.1-3.3,0c-0.9,0.1-1.1-0.3-1.1-1.2
		c0-4.2,0-8.3,0-12.5c0-0.5,0.1-1.1-0.8-1.1c-0.4,0-0.4-0.2-0.3-0.5c0-0.1,0-0.2,0.1-0.2c0.4-1.3,0.2-3.2,1.2-3.8
		c1.3-0.8,3.2-0.2,4.8-0.2c0.7,0,0.5,0.6,0.5,0.9C63,50.9,63,53.8,63,56.8C63,56.8,63,56.8,63,56.8z"/>
	<path class="st3" d="M48,33.6c0-2,0-4,0-6.1c0-0.7,0.1-1,0.9-1c2.3,0.1,4.6,0,6.9,0c0.8,0,0.9,0.3,0.9,0.9c0,2.2,0,2.2-2.1,2.2
		c-0.5,0-1.1,0.1-1.6,0c-1-0.1-1.4,0.3-1.3,1.3c0,0.8,0.3,1,1,1c0.8-0.1,1.6,0.1,2.4,0c0.9-0.1,1.1,0.3,1.1,1.1c0,2,0,2-2.1,2
		c-0.3,0-0.6,0-0.9,0c-1.5,0-1.9,0.6-1.5,2.1c0.1,0.5,0.4,0.4,0.8,0.4c1.1,0,2.1,0,3.2,0c0.8,0,1.1,0.1,1.1,1c0,2.1,0,2.1-2.1,2.1
		c-1.9,0-3.8,0-5.7,0c-0.8,0-1-0.2-1-1C48,37.6,48,35.6,48,33.6z"/>
	<path class="st4" d="M26.8,56.6c0-1.7,0-3.5,0-5.2c0-0.7,0.2-1.1,1-1.1c2.5-0.1,2.5-0.2,2.5,2.4c0,3,0,6.1,0,9.1
		c0,0.8-0.1,1.2-1.1,1.2c-2.4,0-2.4,0-2.4-2.4C26.8,59.3,26.8,58,26.8,56.6z"/>
	<path class="st5" d="M64.4,35.2c0.3,0,0.7,0,1,0c0.7,0.1,1.1,0.5,1.1,1.1c0,0.7-0.4,1.1-1,1.2c-0.6,0.1-1.3,0-1.9,0
		c-1.1,0-0.6-0.8-0.6-1.3c-0.1-0.5-0.2-1.2,0.7-1.1C63.9,35.2,64.2,35.2,64.4,35.2C64.4,35.2,64.4,35.2,64.4,35.2z"/>
	<path class="st6" d="M64,32.1c-1.1,0.3-1-0.4-1.1-1.2c-0.1-0.9,0.2-1.3,1.2-1.2c0.9,0.1,1.8,0.2,1.8,1.3C65.9,32,64.9,32.1,64,32.1
		z"/>
</g>
</svg>
