<?xml version="1.0" encoding="utf-8"?>
<!-- Generator: Adobe Illustrator 27.0.0, SVG Export Plug-In . SVG Version: 6.00 Build 0)  -->
<svg version="1.1" id="Layer_1" xmlns="http://www.w3.org/2000/svg" xmlns:xlink="http://www.w3.org/1999/xlink" x="0px" y="0px"
	 viewBox="0 0 100 100" style="enable-background:new 0 0 100 100;" xml:space="preserve">
<style type="text/css">
	.st0{fill:#00D464;}
	.st1{fill:#FFFFFF;}
</style>
<g>
	<path class="st0" d="M15.6,0h68.8C93,0,100,7,100,15.6v68.8c0,8.6-7,15.6-15.6,15.6H15.6C7,100,0,93,0,84.4V15.6C0,7,7,0,15.6,0z"
		/>
	<g>
		<path class="st1" d="M66.5,42.6H63v2.4h3.5c0.7,0,1.2-0.5,1.2-1.2S67.2,42.6,66.5,42.6z"/>
		<ellipse class="st1" cx="44.5" cy="57.8" rx="3.1" ry="3.6"/>
		<ellipse class="st1" cx="59.7" cy="57.6" rx="2.7" ry="3.2"/>
		<path class="st1" d="M67.1,37.9c0-0.7-0.5-1.2-1.2-1.2h-3v2.4h3C66.6,39.1,67.1,38.6,67.1,37.9C67.1,37.9,67.1,37.9,67.1,37.9
			L67.1,37.9z"/>
		<path class="st1" d="M77.2,45.6l2.9-30.9L19.9,25l4.4,19.1H12.5l11.8,35.3L52.2,75v10.3l30.9-13.2l4.4-26.5H77.2z M59.3,33.7
			c0,0,7-0.6,8.7-0.4c1.9-0.1,3.5,1.3,3.6,3.2c0,0.1,0,0.3,0,0.4c0.1,1.5-0.6,2.9-1.8,3.9c1.4,0.8,2.2,2.3,2.1,3.9
			c0,3-3.3,3.6-3.3,3.6h-9.4V33.7z M47.9,34.7l9.9-0.8v3.4l-6.5,0.2V39H57v3.8h-5.8v1.9h6.6v3.4l-9.9-0.3L47.9,34.7z M32.7,35.5
			l1.4,7l1.9-7.2l3.5-0.1l1.8,7.3l1.9-7.8h3.7l-3.4,12.8h-4L37.7,41l-1.8,6.4h-4.2l-3-11.9H32.7z M36.8,54.4l-4.1-0.1v11l-4.3,0.2
			V54.3l-4.9-0.1V50l13.3,0.5V54.4z M44.5,65.5c-4.2,0-7.7-3.4-7.7-7.7s3.4-7.7,7.7-7.7c4.2,0,7.7,3.4,7.7,7.7
			C52.2,62.1,48.8,65.5,44.5,65.5C44.5,65.5,44.5,65.5,44.5,65.5z M59.7,64.3c-3.7,0-6.7-3-6.7-6.7c0-3.7,3-6.7,6.7-6.7
			s6.7,3,6.7,6.7c0,0,0,0,0,0C66.4,61.3,63.4,64.3,59.7,64.3z M78.3,63.1H75l-3.9-5.3v5.8h-3.8V51.3h3.8l4,6.4v-6.2h3.7L78.3,63.1z"
			/>
	</g>
</g>
</svg>
