<?xml version="1.0" encoding="utf-8"?>
<!-- Generator: Adobe Illustrator 27.0.0, SVG Export Plug-In . SVG Version: 6.00 Build 0)  -->
<svg version="1.1" id="Layer_1" xmlns="http://www.w3.org/2000/svg" xmlns:xlink="http://www.w3.org/1999/xlink" x="0px" y="0px"
	 viewBox="0 0 100 100" style="enable-background:new 0 0 100 100;" xml:space="preserve">
<style type="text/css">
	.st0{fill:#2DC100;}
	.st1{fill:#FFFFFF;}
</style>
<g>
	<path class="st0" d="M99.9,85c0,8.3-6.7,15-15,15H15c-8.3,0-15-6.7-15-15V15c0-8.3,6.7-15,15-15H85c8.3,0,15,6.7,15,15V85z"/>
	<g>
		<path class="st1" d="M66.9,37.3c-8.1,0.4-15.1,2.9-20.8,8.4c-5.7,5.6-8.4,12.4-7.7,20.9c-3.2-0.4-6-0.8-8.9-1.1
			c-1-0.1-2.2,0-3,0.5c-2.8,1.6-5.5,3.4-8.7,5.4c0.6-2.6,1-5,1.6-7.2c0.5-1.6,0.3-2.5-1.2-3.6C8.6,53.8,4.5,43.5,7.6,33
			c2.8-9.7,9.8-15.6,19.2-18.7c12.9-4.2,27.3,0.1,35.1,10.3C64.7,28.3,66.5,32.4,66.9,37.3L66.9,37.3z M29.8,34
			c0.1-1.9-1.6-3.7-3.6-3.7c-2-0.1-3.7,1.5-3.8,3.5c-0.1,2,1.5,3.6,3.5,3.7C28,37.6,29.7,36,29.8,34L29.8,34z M49.2,30.3
			c-2,0-3.7,1.7-3.6,3.7c0,2,1.7,3.6,3.7,3.5c2.1,0,3.6-1.6,3.6-3.7C52.8,31.9,51.2,30.3,49.2,30.3z"/>
		<path class="st1" d="M85,87.6c-2.6-1.1-4.9-2.8-7.4-3.1c-2.5-0.3-5.1,1.2-7.7,1.4c-7.9,0.8-15-1.4-20.9-6.8
			C38,68.8,39.6,53,52.4,44.6c11.4-7.5,28.2-5,36.3,5.4c7,9.1,6.2,21.1-2.4,28.7c-2.5,2.2-3.4,4-1.8,6.9
			C84.8,86.2,84.9,86.9,85,87.6L85,87.6z M56,59.4c1.6,0,3-1.3,3-2.9c0.1-1.7-1.3-3.1-3-3.1c-1.7,0-3.1,1.4-3,3.1
			C53,58.1,54.4,59.4,56,59.4L56,59.4z M74.7,53.4c-1.6,0-2.9,1.3-3,2.9c-0.1,1.7,1.3,3.1,2.9,3.1c1.6,0,2.9-1.2,3-2.9
			C77.7,54.9,76.4,53.4,74.7,53.4z"/>
	</g>
</g>
</svg>
