<?xml version="1.0" encoding="utf-8"?>
<!-- Generator: Adobe Illustrator 27.0.0, SVG Export Plug-In . SVG Version: 6.00 Build 0)  -->
<svg version="1.1" id="Layer_1" xmlns="http://www.w3.org/2000/svg" xmlns:xlink="http://www.w3.org/1999/xlink" x="0px" y="0px"
	 viewBox="0 0 100 100" style="enable-background:new 0 0 100 100;" xml:space="preserve">
<style type="text/css">
	.st0{fill:#6BE0FE;}
</style>
<g>
	<path class="st0" d="M56.9,76.3c-7.4,2.6-14.6,3.2-22.1,2.1c-1.5-0.2-2.9-0.5-4.3-0.9c-0.9-0.2-1.8,0-2.6,0.4
		c-3.2,1.7-6.5,3.3-9.7,4.9c-1.3,0.7-2.5,1-3.8,0c-1.3-1-1.3-2.3-1.1-3.7c0.4-2.8,0.7-5.6,1.1-8.4c0.1-0.9-0.5-1.2-0.9-1.7
		c-4.2-4.2-7.9-8.8-9.8-14.6c-3.9-11.7-1.4-22.1,6.7-31.2c7.1-8,16.3-12,26.8-13.1c11.5-1.2,22,1.5,31.2,8.6
		c7.9,6.1,12.7,14,13.2,24.2c0.1,1.1,0.2,2.2-0.2,3.4c-1.8-1.5-3.8-1.7-6-1.1c-0.9,0.3-0.7-0.4-0.8-0.9c-0.3-2.8-0.5-5.5-1.6-8.2
		c-3-7.6-8.4-12.9-15.8-16.1c-12.3-5.3-24.3-4.6-35.6,2.7C13.3,28.1,8.8,35.7,9.1,45.7c0.2,5.7,2.4,10.7,6.2,15
		c1.5,1.7,3.1,3.3,5,4.7c1.3,0.9,1.4,2.3,1.1,3.7c-0.4,1.8-0.9,3.5-1.3,5.3c-0.1,0.3-0.4,0.7,0,1c0.4,0.4,0.7,0.1,1.1-0.1
		c2.1-1.2,4.2-2.4,6.3-3.7c1.4-0.8,2.8-1,4.4-0.6c6.7,1.8,13.5,1.8,20.2,0c0.6-0.2,1.4-0.6,1.5,0.6C53.5,73.7,54.7,75.1,56.9,76.3z"
		/>
	<path class="st0" d="M76.8,90.1c-2.5,0-4.7-1.5-5.2-3.9c-0.8-4.1-2.5-7.6-5.5-10.5c-0.6-0.6-0.6-1.2,0-1.8c0.8-0.8,1.5-0.4,2.1,0.2
		c1.5,1.5,3.2,2.8,5.1,3.7c1.6,0.7,3.2,1.1,4.9,1.5c2.7,0.7,4.6,3.4,4.2,6C82,88.1,79.7,90.1,76.8,90.1z"/>
	<path class="st0" d="M76.9,47.8c2.7,0,5,1.8,5.5,4.5c0.6,3.7,2.3,6.8,4.8,9.5c0.7,0.7,1.3,1.5,0.4,2.3c-0.8,0.8-1.6,0.2-2.2-0.4
		c-2.7-2.8-6-4.2-9.7-5c-2.8-0.6-4.7-3.3-4.3-5.9C71.8,49.8,74.1,47.8,76.9,47.8z"/>
	<path class="st0" d="M61.2,74.4c-2.9,0-5.1-2.1-5.4-5c-0.3-2.7,1.5-5.3,4.4-5.9c3.1-0.6,6-1.8,8.4-3.8c0.6-0.5,1.1-1,1.6-1.5
		c0.6-0.6,1.2-0.6,1.8-0.1c0.6,0.6,0.5,1.2,0.1,1.8c-0.1,0.2-0.3,0.3-0.5,0.5c-2.7,2.6-4.2,5.7-4.9,9.4
		C66.1,72.7,63.9,74.4,61.2,74.4z"/>
	<path class="st0" d="M92.5,63.5c2.9,0,5.3,2.1,5.6,5.1c0.3,2.7-1.8,5.4-4.6,5.9c-3.6,0.6-6.7,2.2-9.2,4.7c-0.7,0.7-1.4,1.6-2.4,0.6
		c-0.9-1-0.2-1.8,0.5-2.5c2.5-2.5,4-5.6,4.7-9.1C87.6,65.2,89.7,63.5,92.5,63.5z"/>
</g>
</svg>
