<?xml version="1.0" encoding="utf-8"?>
<!-- Generator: Adobe Illustrator 27.0.0, SVG Export Plug-In . SVG Version: 6.00 Build 0)  -->
<svg version="1.1" id="Layer_1" xmlns="http://www.w3.org/2000/svg" xmlns:xlink="http://www.w3.org/1999/xlink" x="0px" y="0px"
	 viewBox="0 0 100 100" style="enable-background:new 0 0 100 100;" xml:space="preserve">
<style type="text/css">
	.st0{fill:#0099D6;}
</style>
<g id="layer1" transform="translate(-55.605517,-332.37293)">
	<path id="path11537" class="st0" d="M106.5,378.1c-1.8,0-3.1,1.4-3.3,3.2h6.6C109.6,379.5,108.5,378.1,106.5,378.1L106.5,378.1z
		 M122.7,378.5c-2.2,0-3.3,2.1-3.3,4.1c0,2,1,4.3,3.3,4.3c2.2,0,3.2-2.2,3.2-4.2C125.9,380.7,124.8,378.5,122.7,378.5z M90.4,378.1
		c-1.8,0-3.1,1.4-3.3,3.2h6.6C93.5,379.5,92.4,378.1,90.4,378.1z M149.1,372.3c-2.1,0-3.7,1.2-4.5,3.1l-0.5,1.4l-0.5-1.4
		c-0.7-1.9-2.4-3.2-4.5-3.2c-0.3,0-0.5,0-0.8,0.1v-1.9c0-2.8-2-4.9-4.7-4.9s-4.7,2.1-4.7,4.9v3.6c-1.6-1.3-3.5-2-5.5-2
		c-0.5,0-0.9,0-1.4,0.1v-1.7c0-2.8-2-4.9-4.6-4.9s-4.6,2.1-4.6,4.9v4c-1.8-1.5-4-2.4-6.3-2.4c-2.8,0-5.4,1.2-7.3,3.3
		c-0.3,0.3-0.6,0.7-0.8,1.1c-0.2-0.4-0.5-0.7-0.8-1.1c-1.9-2.2-4.5-3.3-7.3-3.3c-2.1,0-4.1,0.7-5.7,1.9c-0.8-1.2-2.2-1.9-3.9-1.9
		c-2.1,0-3.9,1.4-4.5,3.6c-1-3.2-3.5-3.6-4.6-3.6s-3.6,0.4-4.6,3.6c-0.5-2.1-2.3-3.6-4.5-3.6c-2.6,0-4.7,1.9-4.7,4.3
		c0,1.1,0.2,1.9,0.6,2.8l3.6,10.1c1.2,3.4,3.6,3.9,5,3.9c2.1,0,3.8-1.1,4.6-3c0.8,1.9,2.5,3,4.6,3c1.4,0,3.8-0.5,5-3.9l0.4-1.2
		c1.7,3.1,5,5.1,9,5.1c2.9,0,6.7-1.2,8.4-3.5c1.9,2.2,4.6,3.5,7.9,3.5c2.2,0,4.9-0.7,6.9-2.1c0.8,1.2,2.2,1.9,3.7,1.9
		c0.9,0,1.7-0.2,2.4-0.6c1,0.5,2.2,0.8,3.4,0.8c2.4,0,4.5-0.9,6.2-2.5c0.8,1.6,2.3,2.5,4.2,2.5c2,0,3.6-1.2,4.3-3
		c0,0-0.7,3.8-0.7,4.5c0,2.5,2.1,4.4,4.8,4.4c1.9,0,3.6-1.2,4.3-3.3l6.9-17.2c0.3-0.6,0.4-1.3,0.4-2.1
		C153.7,374,151.3,372.3,149.1,372.3L149.1,372.3z M82.2,378.3l-3.6,10.2c-0.4,1.2-1.2,2.1-2.5,2.1c-1.3,0-2.1-0.7-2.4-1.9l-2.2-6.8
		h0l-2.2,6.8c-0.4,1.2-1.1,1.9-2.4,1.9c-1.4,0-2.1-0.9-2.5-2.1l-3.6-10.1c-0.3-0.8-0.4-1.4-0.4-2c0-1,0.9-1.7,2.1-1.7
		c1,0,1.7,0.7,2,1.7l2.4,8.1h0.1l2.5-7.9c0.3-1.1,0.9-1.9,2.1-1.9s1.8,0.7,2.1,1.9l2.5,7.9h0.1l2.4-8.1c0.2-1,1-1.7,2-1.7
		c1.2,0,2.1,0.7,2.1,2.1C82.7,377.2,82.4,377.7,82.2,378.3z M90.9,387.1c2.1,0,3.6-1.7,4.7-1.7c0.9,0,1.7,0.9,1.7,1.8
		c0,1.8-3.7,3.5-6.8,3.5c-4.7,0-7.7-3.4-7.7-7.9c0-4.2,3.1-8,7.4-8c4.5,0,7.4,4.1,7.4,7.5c0,1.2-0.5,1.9-1.8,1.9H87
		C87.2,386.1,88.9,387.1,90.9,387.1z M112.1,384.1h-8.8c0.3,2,2,3,3.9,3c2.1,0,3.6-1.7,4.7-1.7c0.9,0,1.7,0.9,1.7,1.8
		c0,1.8-3.7,3.5-6.8,3.5c-4.7,0-7.7-3.4-7.7-7.9c0-4.2,3.1-8,7.4-8c4.5,0,7.4,4.1,7.4,7.5C113.9,383.5,113.3,384.1,112.1,384.1
		L112.1,384.1z M123.2,390.7c-1.4,0-3-0.6-3.8-1.9c-0.2,1.1-0.9,1.7-2.1,1.7c-1.2,0-2.1-0.9-2.1-2.3v-17.7c0-1.4,0.8-2.3,2-2.3
		c1.2,0,2,0.9,2,2.3v5.6c1.2-1,2.5-1.4,4-1.4c4.4,0,6.7,4.2,6.7,8.2C130,386.8,127.4,390.7,123.2,390.7L123.2,390.7z M135.7,388.3
		c0,1.4-0.9,2.3-2.1,2.3c-1.2,0-2.1-0.9-2.1-2.3v-17.9c0-1.4,0.9-2.3,2.1-2.3s2.1,0.9,2.1,2.3V388.3z M150.9,377.7L144,395
		c-0.3,0.8-1,1.6-1.9,1.6c-1.4,0-2.2-0.9-2.2-1.8c0-0.4,0.1-0.8,0.2-1.2l1.8-4.5l-4.6-11.4c-0.1-0.3-0.2-0.6-0.2-1.1
		c0-1,1.1-1.8,1.9-1.8c1,0,1.7,0.5,2.1,1.5l2.8,7.8l3.1-7.8c0.3-0.9,1.1-1.5,2.1-1.5c0.8,0,1.9,0.7,1.9,1.8
		C151.1,377.1,151,377.4,150.9,377.7z"/>
</g>
</svg>
