<?xml version="1.0" encoding="utf-8"?>
<!-- Generator: Adobe Illustrator 27.0.0, SVG Export Plug-In . SVG Version: 6.00 Build 0)  -->
<svg version="1.1" id="Layer_1" xmlns="http://www.w3.org/2000/svg" xmlns:xlink="http://www.w3.org/1999/xlink" x="0px" y="0px"
	 viewBox="0 0 100 100" style="enable-background:new 0 0 100 100;" xml:space="preserve">
<style type="text/css">
	.st0{fill:#E99315;}
	.st1{fill:#D52A2C;}
</style>
<g>
	<path class="st0" d="M99.4,33.9c0.4,5.5-0.5,12.1-4.2,12.5c-5.9,0.5-2.8-6-2.8-10c0.2-11.4-9.5-19.4-19.1-19.4c-2.7,0-9,1.8-8-3.9
		c0.4-2.5,2.6-2.5,4.7-2.8C86.1,8.3,98.3,19.3,99.4,33.9L99.4,33.9z"/>
	<path class="st1" d="M73.1,47.2C80,51,88.3,52.9,86.9,64.1c-0.3,2.7-2,6.3-3.6,8.6C71.7,89,36.5,95.9,14.5,83.5
		c-7.4-4.2-15-10.3-13.8-22.4c1-10.5,8-18.6,14.9-25.5c6.6-6.6,13.5-11.7,23-14.1c10.2-2.6,13.3,6,10.5,14.4
		c5.9-0.4,18.5-7,24.1-0.6C75.6,38.2,74.6,43.3,73.1,47.2L73.1,47.2z M65.6,73.8c2.2-2.5,4.4-6.3,4.4-10.8c0-13.8-17.4-18.8-31-17.7
		c-7.5,0.6-12.5,2.2-17.7,5.3c-4.3,2.5-9.3,6.6-10.5,12.7c-2.8,13.8,12.2,20.3,23.2,21C46.8,85.2,59.6,80.7,65.6,73.8z"/>
	<path class="st0" d="M85.8,33.9c0.6,4.2-0.6,7.9-3,8c-4,0.3-2.5-2.8-2.8-6.4c-0.2-2.2-2-4.8-3.6-5.5c-3.1-1.5-8,1.1-8-3.3
		c0-3.3,2.8-2.9,4.4-3C79.8,23.2,85,28,85.8,33.9z"/>
	<path d="M53.5,61.6C59.4,79.4,28.7,87.7,23,72.4C19.3,62.2,28.3,54,37.7,53C45.7,52.2,51.7,56.3,53.5,61.6z M39.4,64.7
		c1.3,2.2,4.1,0.6,3.9-1.1C42.9,61.6,39.3,61.9,39.4,64.7z M34.4,74.1c5.2-1.2,5.9-11-1.9-9.1C25.9,66.5,27.2,75.8,34.4,74.1z"/>
</g>
</svg>
