<?xml version="1.0" encoding="utf-8"?>
<!-- Generator: Adobe Illustrator 27.0.0, SVG Export Plug-In . SVG Version: 6.00 Build 0)  -->
<svg version="1.1" id="Layer_1" xmlns="http://www.w3.org/2000/svg" xmlns:xlink="http://www.w3.org/1999/xlink" x="0px" y="0px"
	 viewBox="0 0 100 100" style="enable-background:new 0 0 100 100;" xml:space="preserve">
<style type="text/css">
	.st0{fill-rule:evenodd;clip-rule:evenodd;fill:#69B847;}
</style>
<g>
	<path class="st0" d="M55.7,45.6H44.1v-8.9h11.6c2,0,3.6,1.6,3.6,3.6V42C59.3,44,57.7,45.6,55.7,45.6z"/>
	<path class="st0" d="M60.2,57.4v1.7c0,2-1.6,3.6-3.6,3.6H44.1v-8.9h12.5C58.6,53.8,60.2,55.5,60.2,57.4z"/>
	<path class="st0" d="M50.8,11.3c-20.7,0-37.4,16.8-37.4,37.4c0,8.3,2.7,16,7.3,22.2L16,84.6L30.1,80c5.9,3.9,13,6.2,20.7,6.2
		c20.7,0,37.4-16.8,37.4-37.4S71.5,11.3,50.8,11.3z M56.9,70.8H39.4c-2.1,0-3.4-1-3.4-3.4V31.5c0-1.6,0.7-2.9,2.9-2.9h17.4
		c6.8,0,11.2,6.2,11.2,12.4c0,4.2-0.7,6.1-2.5,8.3c2.2,2,3.6,4.6,3.6,8.7C68.6,65.8,62.5,70.8,56.9,70.8z"/>
	<path class="st0" d="M51,0C24.5,0,3,21.5,3,48c0,8.8,2.4,17,6.5,24.1L1,100l28.4-9.1C36,94.2,43.2,96,51,96c26.5,0,48-21.5,48-48
		S77.5,0,51,0z M50.9,93.5c-7.9,0-15.3-2-21.7-5.6L4.7,95.7l7.8-24C8.4,65,6,57.1,6,48.6C6,23.8,26.1,3.8,50.9,3.8
		c24.8,0,44.9,20.1,44.9,44.9C95.8,73.4,75.7,93.5,50.9,93.5z"/>
</g>
</svg>
