<?xml version="1.0" encoding="utf-8"?>
<!-- Generator: Adobe Illustrator 27.0.0, SVG Export Plug-In . SVG Version: 6.00 Build 0)  -->
<svg version="1.1" id="Layer_1" xmlns="http://www.w3.org/2000/svg" xmlns:xlink="http://www.w3.org/1999/xlink" x="0px" y="0px"
	 viewBox="0 0 100 100" style="enable-background:new 0 0 100 100;" xml:space="preserve">
<style type="text/css">
	.st0{fill:#FBBD71;}
</style>
<g>
	<path class="st0" d="M57,32c-1.9,0.9-2.7,2.7-2.7,7.4c0,0,0.9-0.9,2.4-1.5c1.1-0.4,1.9-0.9,2.4-1.3c1.6-1.2,1.9-2.7,1.9-5.2
		C60.9,31.4,58.4,31.2,57,32z"/>
	<path d="M45.6,33.1c-1.6,1.3-2,3.6-2,3.6l-5.2,19.9l-4.3-16.3c-0.4-1.7-1.2-3.9-2.4-5.3c-1.5-1.9-4.6-2-4.9-2c-0.3,0-3.3,0.1-4.9,2
		c-1.2,1.5-2,3.6-2.4,5.3l-4,16.3l-5.2-19.9c0,0-0.4-2.1-2-3.6C5.7,30.8,2,31.4,2,31.4l9.9,37.2c0,0,3.2,0.3,4.8-0.5
		c2.1-1.1,3.2-1.9,4.4-7c1.2-4.5,4.4-17.8,4.7-18.7c0.1-0.4,0.4-1.6,1.2-1.6c0.8,0,1.1,1.1,1.2,1.6c0.3,0.9,3.5,14.2,4.7,18.7
		c1.3,5.1,2.3,5.9,4.4,7c1.6,0.8,4.8,0.5,4.8,0.5l9.8-37.2C51.9,31.4,48.1,30.9,45.6,33.1z"/>
	<path d="M60.9,37.4c0,0-0.7,0.9-2,1.7c-0.9,0.5-1.7,0.8-2.7,1.3c-1.6,0.8-2,1.6-2,2.8v0.4v2l0,0v0.4v22.4c0,0,2.5,0.3,4.1-0.5
		c2.1-1.1,2.5-2.1,2.5-6.7V38.9l0,0L60.9,37.4L60.9,37.4z"/>
	<path d="M85.5,50.1L98,31.5c0,0-5.2-0.9-7.9,1.5c-1.7,1.5-3.5,4.3-3.5,4.3l-4.5,6.7c-0.3,0.4-0.5,0.7-0.9,0.7
		c-0.4,0-0.8-0.4-0.9-0.7l-4.5-6.7c0,0-1.9-2.7-3.5-4.3c-2.7-2.4-7.9-1.5-7.9-1.5L76.6,50L64.2,68.6c0,0,5.5,0.7,8.2-1.7
		c1.7-1.5,3.3-4,3.3-4l4.5-6.7c0.3-0.4,0.5-0.7,0.9-0.7c0.4,0,0.8,0.4,0.9,0.7l4.5,6.7c0,0,1.7,2.5,3.3,4c2.7,2.4,8,1.7,8,1.7
		L85.5,50.1z"/>
</g>
</svg>
