<?xml version="1.0" encoding="utf-8"?>
<!-- Generator: Adobe Illustrator 27.0.0, SVG Export Plug-In . SVG Version: 6.00 Build 0)  -->
<svg version="1.1" id="Layer_1" xmlns="http://www.w3.org/2000/svg" xmlns:xlink="http://www.w3.org/1999/xlink" x="0px" y="0px"
	 viewBox="0 0 100 100" style="enable-background:new 0 0 100 100;" xml:space="preserve">
<style type="text/css">
	.st0{fill:#21759B;}
</style>
<g>
	<path class="st0" d="M8.5,50c0,16.4,9.5,30.6,23.4,37.3L12.1,33.1C9.8,38.3,8.5,44,8.5,50z"/>
	<path class="st0" d="M78,47.9c0-5.1-1.8-8.7-3.4-11.4c-2.1-3.4-4.1-6.3-4.1-9.7c0-3.8,2.9-7.4,7-7.4c0.2,0,0.4,0,0.5,0
		C70.6,12.6,60.8,8.5,50,8.5c-14.5,0-27.3,7.4-34.7,18.7c1,0,1.9,0,2.7,0c4.3,0,11.1-0.5,11.1-0.5c2.2-0.1,2.5,3.2,0.3,3.4
		c0,0-2.2,0.3-4.7,0.4l15.1,44.9l9.1-27.2l-6.5-17.7c-2.2-0.1-4.4-0.4-4.4-0.4c-2.2-0.1-2-3.6,0.3-3.4c0,0,6.9,0.5,10.9,0.5
		c4.3,0,11.1-0.5,11.1-0.5c2.2-0.1,2.5,3.2,0.3,3.4c0,0-2.3,0.3-4.7,0.4l15,44.6l4.1-13.8C76.6,55.6,78,51.5,78,47.9z"/>
	<path class="st0" d="M50.7,53.6L38.3,89.8c3.7,1.1,7.6,1.7,11.7,1.7c4.8,0,9.5-0.8,13.8-2.4c-0.1-0.2-0.2-0.4-0.3-0.6L50.7,53.6z"
		/>
	<path class="st0" d="M86.4,30.1c0.2,1.3,0.3,2.7,0.3,4.3c0,4.2-0.8,8.9-3.2,14.9L70.9,85.9C83.2,78.7,91.5,65.3,91.5,50
		C91.5,42.8,89.7,36,86.4,30.1z"/>
	<path class="st0" d="M50,1.6C23.3,1.6,1.6,23.3,1.6,50c0,26.7,21.7,48.4,48.4,48.4c26.7,0,48.4-21.7,48.4-48.4
		C98.4,23.3,76.7,1.6,50,1.6z M50,96.2C24.5,96.2,3.8,75.4,3.8,50C3.8,24.5,24.5,3.8,50,3.8c25.4,0,46.2,20.7,46.2,46.2
		C96.2,75.4,75.4,96.2,50,96.2z"/>
</g>
</svg>
