<?xml version="1.0" encoding="utf-8"?>
<!-- Generator: Adobe Illustrator 27.0.0, SVG Export Plug-In . SVG Version: 6.00 Build 0)  -->
<svg version="1.1" id="Layer_1" xmlns="http://www.w3.org/2000/svg" xmlns:xlink="http://www.w3.org/1999/xlink" x="0px" y="0px"
	 viewBox="0 0 100 100" style="enable-background:new 0 0 100 100;" xml:space="preserve">
<style type="text/css">
	.st0{fill:#4326C4;}
</style>
<g>
	<path class="st0" d="M63.7,46.6C61,53.3,58.6,59,56.3,64.7c-0.7,1.8-1.1,4-2.4,5.2C52,71.7,49.4,74,47.1,74c-2.3,0-5.8-2-6.8-4
		c-5.2-11.5-9.8-23.3-14.6-35c7.7-2.6,10-1.7,12.6,5c2.6,6.7,5.3,13.3,8.6,21.4c1.7-4,3-6.7,4.2-9.6c1.7-4,3.2-8,4.9-12
		c1.5-3.6,3.5-6.5,8-6.5c4.2,0,6.2,2.8,7.7,6.3c3.1,7.5,6.2,15.1,9.6,23.4c6.2-9.1,7.5-18.1,5-27.7C80.4,13,55.5,3,34.1,14.4
		C16.1,23.9,8,45.1,15.1,64.1C22.2,83.3,42.5,94,62.5,89.3C68,88,68,88,71.2,97.4c-6.4,0.9-12.6,2.7-18.8,2.6
		C26.5,99.6,5.5,80,3.1,54.9C0.7,29.6,17.5,6.9,42.8,1.1c17.5-4,35.8,2.7,45.9,17.3c10.7,15.5,11.1,31.6,2,48
		c-0.9,1.7-2.1,3.3-3.3,4.7c-4.8,5.2-11,4.3-14-2c-2.6-5.7-4.8-11.5-7.2-17.3C65.6,50.4,64.9,49,63.7,46.6z"/>
</g>
</svg>
