<?xml version="1.0" encoding="utf-8"?>
<!-- Generator: Adobe Illustrator 27.0.0, SVG Export Plug-In . SVG Version: 6.00 Build 0)  -->
<svg version="1.1" id="Layer_1" xmlns="http://www.w3.org/2000/svg" xmlns:xlink="http://www.w3.org/1999/xlink" x="0px" y="0px"
	 viewBox="0 0 100 100" style="enable-background:new 0 0 100 100;" xml:space="preserve">
<style type="text/css">
	.st0{fill:#FC2640;}
	.st1{fill:#FEFEFE;}
	.st2{fill:#FE2741;}
</style>
<g>
	<path class="st0" d="M49.9,0c12.5,0,25,0,37.6,0c0.2,0,0.5,0,0.6,0.2c0.1,0.1,0.3,0.1,0.5,0.2c2.4,0.5,4.6,1.4,6.5,3
		c2.1,1.7,3.4,3.9,4.1,6.5c0.2,0.5,0.3,1,0.4,1.5c0.1,0.3,0.1,0.5,0.3,0.7c0.1,0.1,0.1,0.2,0.1,0.3c0,0.1,0,0.2,0,0.2
		c0,25,0,50,0,75c0,0.3,0,0.5-0.2,0.7c-0.3,0.4-0.3,0.8-0.4,1.3c-0.9,3.1-2.4,5.8-5.1,7.7c-1.9,1.4-4,2.2-6.2,2.5
		c-1,0.1-2,0.2-3,0.2c-4,0-8.1,0-12.1,0c-15.2,0-30.4,0-45.6,0c-4.4,0-8.8,0-13.2,0c-3.4,0-6.4-0.9-9.1-3c-2.6-2.1-4.2-4.9-4.8-8.2
		c-0.2-1-0.3-2-0.3-3c0-2.8,0-5.6,0-8.5c0-17.9,0-35.7,0-53.6c0-3.4,0-6.7,0-10.1C0.2,7.8,3.4,3.1,9.1,1c0.6-0.2,1.3-0.4,1.9-0.6
		c0.2,0,0.3-0.1,0.5-0.2C11.9,0,12.3,0,12.7,0C25.1,0,37.5,0,49.9,0z"/>
	<path class="st1" d="M69.9,59.1c0-1.8,0-3.7,0-5.5c0-0.2-0.1-0.3-0.3-0.3c-1.6,0-3.2,0-4.8,0c-0.2,0-0.3,0-0.3-0.3
		c0-1.7,0-3.4,0-5.1c0-0.2,0.1-0.3,0.3-0.3c1.5,0,3.1,0,4.6,0c0.2,0,0.3-0.1,0.3-0.3c0-1.3,0-2.5,0-3.8c0-0.2-0.1-0.3-0.3-0.3
		c-0.7-0.1-1.5-0.1-2.2-0.3c-0.6-0.1-0.7-0.2-0.8-0.9c-0.2-1.1-0.1-2.2-0.1-3.3c0-0.3,0-0.7,0-1c0-0.2,0.1-0.3,0.3-0.3
		c0.9-0.1,1.9-0.2,2.8-0.2c0.2,0,0.2-0.1,0.3-0.2c0.1-0.4,0.1-0.8,0.2-1.3c0-0.2,0.1-0.3,0.3-0.3c1-0.2,2-0.4,3-0.4
		c1.3,0,2.1,0.6,2.4,1.9c0.1,0.2,0.2,0.3,0.4,0.3c1.1,0,2.1,0,3.2,0.1c2,0.2,3.4,1.1,4.1,3c0.2,0.5,0.4,1,0.5,1.5
		c0.4,1.6,0.7,3.2,1,4.8c0.2,0.8,0.2,0.8,0.9,0.9c1.2,0.2,2.4,0.6,3.3,1.5c1,0.9,1.4,1.9,1.5,3.2c0.1,2.3,0.1,4.6,0.1,7
		c0,0.6,0,1.3-0.1,1.9c-0.4,1.7-1.4,2.8-3,3.3c-1.2,0.4-2.4,0.6-3.7,0.5c-1.5-0.1-2.5-0.8-3.1-2.2c-0.4-0.9-0.5-1.8-0.7-2.7
		c0-0.2,0.1-0.2,0.2-0.2c0.6,0,1.3,0,1.9,0c0.4,0,0.8,0,1.2-0.1c0.3,0,0.6-0.2,0.9-0.4c0.3-0.3,0.5-0.6,0.8-0.9
		c0.1-0.1,0.1-0.1,0.1-0.2c0-0.8,0-1.6,0-2.4c0-0.4,0-0.8-0.1-1.1c-0.1-0.7-0.5-1.1-1.2-1.2c-0.8-0.2-1.6-0.2-2.4-0.2
		c-1.9,0-3.8,0-5.7,0c-0.3,0-0.3,0.1-0.3,0.3c0,3.1,0,6.2,0,9.3c0,0.3,0,0.6-0.1,0.9c-0.1,0.7-0.4,1-1.1,1c-0.4,0-0.8,0.1-1.2,0.1
		c-1,0-2,0-2.9,0c-0.2,0-0.3-0.1-0.3-0.3C69.9,62.8,69.9,60.9,69.9,59.1z"/>
	<path class="st1" d="M46.4,64.9c0.6-1.3,1-2.8,1.7-4c0.6-1,1.5-1.5,2.6-1.7c0.9-0.2,1.8-0.3,2.7-0.4c0.3,0,0.3-0.1,0.3-0.4
		c0-4.9,0-9.7,0-14.6c0-0.3-0.2-0.5-0.4-0.5C52.6,43,52,43,51.5,42.8c-0.8-0.1-0.8-0.2-1-1c-0.2-0.9-0.1-1.9-0.1-2.8
		c0-0.3,0-0.6,0.1-0.9c0-0.2,0.1-0.4,0.3-0.5c0.4-0.3,0.9-0.3,1.4-0.3c2.8,0,5.6,0,8.4,0c0.4,0,0.8,0,1.2,0c0.2,0,0.3,0.1,0.4,0.1
		c0.4,0.3,0.7,0.7,1,1.1c0,0,0.1,0.1,0,0.2c-0.1,0.9,0.1,1.9-0.1,2.8c-0.1,0.7-0.4,1.1-1.1,1.3c-0.6,0.2-1.2,0.3-1.8,0.4
		c-0.2,0-0.3,0.1-0.3,0.4c0,5,0,10,0,15c0,0.2,0,0.3,0.3,0.3c1.1,0.2,2.1,0.2,3.2,0.2c1.2,0,1.2,0.1,1.4,1.2
		c0.2,1.1,0.1,2.2,0.1,3.3c0,0.4,0,0.7-0.4,1c-0.2,0.2-0.4,0.3-0.7,0.3c-2.6,0-5.1,0-7.7,0c-3.1,0-6.2,0-9.3,0
		C46.7,64.9,46.6,64.9,46.4,64.9z"/>
	<path class="st1" d="M25,57.5c-0.1,1.2,0,2.1-0.1,3.1c-0.3,2.3-1.6,3.8-3.9,4.2c-0.7,0.1-1.5,0.2-2.2,0.1c-0.9-0.1-1.5-0.7-1.8-1.5
		c-0.3-1-0.7-1.9-1.1-2.8c-0.1-0.2,0-0.3,0.2-0.3c0.6-0.2,1.1-0.4,1.7-0.5c1-0.3,1.5-1.1,1.6-2.1c0-0.3,0-0.6,0-0.9
		c0-4.4,0-8.8,0-13.1c0-2.1,0-4.2,0-6.3c0-0.2,0-0.4,0.1-0.6c0.2-0.7,0.6-1.1,1.4-1.2c1.1-0.1,2.3,0,3.4,0.1
		c0.6,0.1,0.7,0.3,0.8,0.9c0.1,0.6,0,1.3,0,1.9c0,1.7,0,3.4,0,5.1c0,3.7,0,7.5,0,11.2C25,55.8,25,56.7,25,57.5z"/>
	<path class="st1" d="M45,52.2c0.9,0.1,1.8,0.2,2.6,0.3c0.1,0,0.3,0,0.4,0c0.5,0.1,0.5,0.1,0.3,0.5c-0.5,1-0.9,2.1-1.4,3.1
		c-0.1,0.2-0.2,0.4-0.3,0.5c-0.2,0.3-0.4,0.4-0.7,0.4c-1.5,0-3,0-4.5,0c-0.6,0-1.2-0.1-1.8-0.1c-1.2-0.1-1.5-1.1-1.4-1.9
		c0.1-0.6,0.4-1.1,0.6-1.7c0.7-1.6,1.3-3.2,2-4.8c0-0.1,0-0.1,0.1-0.2c-0.9-0.1-1.7-0.2-2.6-0.4c-0.3-0.1-0.5-0.2-0.8-0.3
		c-0.6-0.3-0.8-0.8-0.7-1.5c0.2-1.1,0.6-2,1.1-3c0.9-1.9,1.8-3.7,2.5-5.7c0.1-0.3,0.2-0.6,0.4-0.9c0.5-1,1.3-1.5,2.4-1.4
		c1.2,0.1,2.5,0.1,3.7,0c0.3,0,0.3,0.1,0.2,0.3c-1,2.2-1.9,4.5-2.9,6.7c0,0.1-0.1,0.2-0.1,0.4c1.3,0.1,2.6,0.2,3.9,0.3
		c0.3,0,0.6,0.1,0.9,0.1c0.2,0,0.3,0.1,0.2,0.3c-0.7,1.5-1.3,3-2,4.4c-0.6,1.4-1.3,2.9-1.9,4.3C45.1,52,45.1,52.1,45,52.2z"/>
	<path class="st1" d="M32.5,62.5c-0.7-0.9-1.2-1.9-1.7-2.9c-0.9-2-1.4-4.1-1.7-6.2c-0.3-2.1-0.4-4.3-0.5-6.4
		c-0.1-1.3-0.2-2.6-0.4-3.9c0-0.2,0-0.3,0.2-0.3c1.7,0,3.5,0,5.2,0c0.2,0,0.3,0.1,0.3,0.3c0.1,2.1,0.2,4.2,0.3,6.3
		c0.1,1.2,0.2,2.4,0.5,3.5c0.5,1.9,0.2,3.6-0.5,5.3c-0.5,1.1-1,2.3-1.5,3.4C32.7,61.9,32.6,62.2,32.5,62.5z"/>
	<path class="st1" d="M13.1,42.7c0.4,0,0.8,0,1.2,0c1.1,0,1.5,0.5,1.5,1.6c0,1-0.1,1.9-0.2,2.9c-0.1,1.6-0.3,3.2-0.5,4.7
		c-0.2,1.9-0.4,3.8-0.8,5.7c-0.2,1.2-0.8,2.2-1.4,3.3c-0.2,0.4-0.4,0.7-0.6,1.1c-0.1,0.1,0,0.3-0.2,0.2c-0.2,0-0.4,0-0.5-0.2
		c-0.7-1.6-1.6-3.2-2.1-4.9c-0.4-1.3-0.4-2.5-0.1-3.8c0.4-1.7,0.5-3.5,0.6-5.2c0-1.3,0.1-2.5,0.1-3.8c0.1-0.9,0.5-1.4,1.4-1.4
		C12.1,42.7,12.6,42.7,13.1,42.7C13.1,42.6,13.1,42.7,13.1,42.7z"/>
	<path class="st1" d="M34.8,64.8c0.1-0.2,0.1-0.3,0.2-0.5c0.8-1.6,1.5-3.3,2.3-4.9c0.2-0.4,0.5-0.6,1-0.6c2.6,0.1,5.2,0.2,7.9,0.3
		c0.1,0,0.1,0,0.2,0c-0.3,0.7-0.6,1.4-0.9,2.1c-0.4,0.9-0.8,1.8-1.2,2.7c-0.3,0.5-0.7,0.8-1.3,0.9c-2.6,0.1-5.3,0-7.9,0
		C34.9,64.9,34.9,64.8,34.8,64.8z"/>
	<path class="st1" d="M86.8,43c-0.4,0-0.7,0-1.1-0.1c-0.3-0.1-0.5-0.2-0.6-0.5c-0.2-1.2-0.2-2.5,0.4-3.7c0.5-1.1,1.6-1.7,2.8-1.5
		c1.2,0.2,2.2,1.1,2.4,2.3c0.2,1.7-0.6,2.9-2.3,3.3C87.8,43,87.3,43.1,86.8,43z"/>
	<path class="st2" d="M75.5,45.4c0-0.6,0-1.2,0-1.8c0-0.1,0-0.2,0.1-0.3c0.6-0.1,1.2-0.3,1.8-0.3c0.7,0,1.1,0.3,1.2,1
		c0.1,0.6,0.1,1.1,0,1.7c0,0.5-0.1,1-0.1,1.5c0,0.2-0.1,0.2-0.2,0.2c-0.9,0-1.8,0-2.6,0c-0.2,0-0.2-0.1-0.2-0.2
		C75.5,46.6,75.5,46,75.5,45.4z"/>
</g>
</svg>
