<?xml version="1.0" encoding="utf-8"?>
<!-- Generator: Adobe Illustrator 27.0.0, SVG Export Plug-In . SVG Version: 6.00 Build 0)  -->
<svg version="1.1" id="Layer_1" xmlns="http://www.w3.org/2000/svg" xmlns:xlink="http://www.w3.org/1999/xlink" x="0px" y="0px"
	 viewBox="0 0 100 100" style="enable-background:new 0 0 100 100;" xml:space="preserve">
<style type="text/css">
	.st0{fill:#007777;}
	.st1{fill:#FFFFFF;}
</style>
<g>
	<path class="st0" d="M15,0h70c8.3,0,15,6.7,15,15v70c0,8.3-6.7,15-15,15H15c-8.3,0-15-6.7-15-15V15C0,6.7,6.7,0,15,0z"/>
	<path class="st1" d="M25.6,30.7l7,11.7v0.2L22.1,60.9c-0.8,1.4-0.2,2.1,0.6,2.1H34c0.6,0,0.8,0,1.2-0.6l11.1-19.3v-0.4l-7.8-12.5
		l-0.4-0.8l-0.8-0.2H26.4C25.8,29.3,25.4,29.9,25.6,30.7z M68,16.2c-1,0-1.4,0.4-2,1.2L43.9,56.1v0.4l14.6,26
		c0.4,0.6,0.8,0.8,1.6,0.8h10.5c1.2,0,1.6-0.6,1-1.8l-14.5-25l22.1-38.9c0.4-0.8-0.2-1.4-1-1.4H68z"/>
</g>
</svg>
