<?xml version="1.0" encoding="utf-8"?>
<!-- Generator: Adobe Illustrator 27.0.0, SVG Export Plug-In . SVG Version: 6.00 Build 0)  -->
<svg version="1.1" id="Layer_1" xmlns="http://www.w3.org/2000/svg" xmlns:xlink="http://www.w3.org/1999/xlink" x="0px" y="0px"
	 viewBox="0 0 100 100" style="enable-background:new 0 0 100 100;" xml:space="preserve">
<style type="text/css">
	.st0{fill:#FFFFFF;}
	.st1{fill:#E8E0E0;}
	.st2{fill:#CD201F;}
</style>
<g>
	<path class="st0" d="M66.4,49c-9-4.8-17.7-9.3-26.6-13.9v27.7C49.1,57.8,59,53.1,66.4,49L66.4,49L66.4,49z"/>
	<path class="st1" d="M66.4,49c-9-4.8-26.6-13.9-26.6-13.9l23.3,15.7C63.2,50.8,58.9,53.1,66.4,49L66.4,49z"/>
	<path class="st2" d="M41.5,84.5c-18.8-0.3-25.2-0.7-29.1-1.5c-2.7-0.5-5-1.7-6.7-3.5c-1.3-1.3-2.4-3.3-3.2-6.1
		c-0.7-2.3-1-4.3-1.4-9c-0.6-10.6-0.7-19.3,0-29.1C1.8,30.1,2.1,23.7,6.1,20c1.9-1.7,4.1-2.9,6.6-3.3c3.9-0.7,20.3-1.3,37.4-1.3
		c17,0,33.5,0.6,37.4,1.3c3.1,0.6,6,2.3,7.7,4.6c3.7,5.8,3.7,12.9,4.1,18.5c0.2,2.7,0.2,17.8,0,20.5c-0.6,8.8-1,12-2.4,15.2
		c-0.8,2-1.5,3.1-2.7,4.3c-1.9,1.8-4.3,3.1-6.9,3.5C71,84.5,57.2,84.8,41.5,84.5L41.5,84.5z M66.4,49c-9-4.8-17.7-9.3-26.6-14v27.8
		C49.2,57.7,59,53.1,66.4,49L66.4,49L66.4,49z"/>
</g>
</svg>
