<?xml version="1.0" encoding="utf-8"?>
<!-- Generator: Adobe Illustrator 27.0.0, SVG Export Plug-In . SVG Version: 6.00 Build 0)  -->
<svg version="1.1" id="Layer_1" xmlns="http://www.w3.org/2000/svg" xmlns:xlink="http://www.w3.org/1999/xlink" x="0px" y="0px"
	 viewBox="0 0 100 100" style="enable-background:new 0 0 100 100;" xml:space="preserve">
<style type="text/css">
	.st0{fill:#FEEE00;}
	.st1{fill:#FEFEFD;}
</style>
<g>
	<path class="st0" d="M100,18v64c-0.2,0.5-0.2,1.2-0.3,1.7c-1.3,7.9-7.6,14.4-15.5,15.9c-0.7,0.1-1.5,0.3-2.2,0.4H17.9
		c-0.5-0.2-1.1-0.2-1.6-0.3C8.3,98.3,1.9,92.1,0.4,84.2C0.2,83.4,0.1,82.8,0,82V17.9c0.2-0.5,0.2-1.1,0.3-1.6
		C1.6,8.4,7.9,1.9,15.8,0.4c0.7-0.1,1.4-0.3,2.1-0.4h64.2c0.6,0.2,1.2,0.2,1.8,0.3c7.8,1.2,14.4,7.6,15.8,15.4
		C99.8,16.4,99.9,17.2,100,18z M75.1,56.8c0-1.6-0.1-3.2-0.4-4.8c-0.1-0.4-0.2-0.4-0.5-0.4c-3.9,0.7-7.8,1.4-11.7,2
		c-4.8,0.8-9.6,1.7-14.3,2.5c-4.1,0.7-8.1,1.4-12.2,2.1c-3.6,0.7-7.2,1.3-10.8,1.9c-0.4,0.1-0.4,0.2-0.4,0.5c0.4,2.4,1.2,4.7,2.2,7
		c3.4,6.9,9,11.1,16.6,12.6c4.1,0.9,8.3,0.6,12.4-0.4c3.6-0.9,7-2.3,9.9-4.6C71.9,70.8,74.9,64.5,75.1,56.8z"/>
	<path class="st1" d="M75.1,56.8c-0.1,7.7-3.2,14-9.3,18.7c-3,2.3-6.3,3.7-9.9,4.6c-4.1,1-8.2,1.2-12.4,0.4
		c-7.5-1.6-13.1-5.8-16.6-12.6c-1.1-2.2-1.8-4.5-2.2-7c-0.1-0.4,0-0.5,0.4-0.5c3.6-0.6,7.2-1.3,10.8-1.9c4.1-0.7,8.1-1.4,12.2-2.1
		c4.8-0.8,9.6-1.7,14.3-2.5c3.9-0.7,7.8-1.3,11.7-2c0.4-0.1,0.5,0,0.5,0.4C74.9,53.6,75.1,55.2,75.1,56.8z"/>
</g>
</svg>
