<?xml version="1.0" encoding="utf-8"?>
<!-- Generator: Adobe Illustrator 27.0.0, SVG Export Plug-In . SVG Version: 6.00 Build 0)  -->
<svg version="1.1" id="Layer_1" xmlns="http://www.w3.org/2000/svg" xmlns:xlink="http://www.w3.org/1999/xlink" x="0px" y="0px"
	 viewBox="0 0 100 100" style="enable-background:new 0 0 100 100;" xml:space="preserve">
<style type="text/css">
	.st0{fill:#F7F7F7;}
	.st1{fill:#FDFEFE;}
	.st2{fill:#0180C7;}
	.st3{fill:#0172B1;}
</style>
<path class="st0" d="M85.6,96H17.8C10.2,96,4,89.8,4,82.2V16.3C4,8.7,10.2,2.5,17.8,2.5h67.7c7.7,0,13.9,6.2,13.9,13.9v65.8
	C99.5,89.8,93.2,96,85.6,96z"/>
<g>
	<path class="st1" d="M18,85.3c-0.4-0.2-0.7-0.4-0.2-0.8c0.3-0.2,0.6-0.4,0.9-0.6c2.8-1.8,5.5-3.9,7.3-6.8c1.5-2.5,1.2-3.9-0.6-5.8
		C15,61.1,10.5,48.7,12.7,34.2c1.3-8.2,5-15.3,10.5-21.5c3.3-3.7,7.2-6.8,11.5-9.3c0.3-0.2,0.6-0.2,0.7-0.6
		c-0.1-0.2-0.2-0.2-0.4-0.2c-7.3,0-14.6-0.2-22,0C6,2.8,0,8.2,0,16c0,22.7,0,45.3,0,68c0,7,5.4,12.9,12.4,13.2
		c5.9,0.2,11.9,0,17.8,0c0.4,0,0.9,0,1.3,0H63c7.8,0,15.6,0,23.5,0c7.3,0,13.1-5.9,13.1-13.1V84V71.4c0-0.3,0.1-0.6-0.1-1
		c-0.4,0-0.5,0.3-0.8,0.6c-4.2,4.2-9.2,7.7-14.6,10.1c-13.4,5.9-27,6.3-40.8,1.6c-1.2-0.4-2.5-0.5-3.7-0.2c-1.8,0.5-3.6,1-5.4,1.5
		C28.9,85.7,23.5,86.4,18,85.3L18,85.3z"/>
	<path class="st1" d="M33.7,48.7c0.4-0.5,0.6-0.8,0.8-1c2.8-3.6,5.7-7.2,8.5-10.8c0.8-1,1.7-2.1,2.2-3.4c0.6-1.4,0-2.8-1.5-3.3
		c-0.7-0.2-1.3-0.3-2-0.2c-3.9,0-7.8,0-11.6,0c-0.5,0-1.1,0.1-1.6,0.2c-1.2,0.3-2,1.5-1.7,2.8c0.2,0.8,0.9,1.5,1.7,1.7
		c0.5,0.1,1.1,0.2,1.6,0.2c2.3,0,4.7,0,7.1,0c0.3,0,0.6-0.2,0.8,0.2c-0.2,0.3-0.4,0.5-0.6,0.8c-3.4,4.3-6.7,8.5-10.1,12.8
		c-0.8,1.1-1.3,2.2-0.7,3.5c0.6,1.3,1.8,1.5,3.1,1.6c1,0.1,2,0,3,0c3.5,0,7,0,10.5,0c1.9,0,2.9-1.2,2.7-2.9
		c-0.2-1.4-1.1-2.1-2.8-2.1C40,48.7,37,48.7,33.7,48.7L33.7,48.7z"/>
	<path class="st1" d="M72.1,41c0-3.4,0-6.8,0-10.2c0-1.7-1.1-2.8-2.8-2.8c-1.6,0-2.7,1.1-2.7,2.8c0,1,0,2,0,3v17.3
		c0,1.3,0.8,2.5,1.9,2.8c1.5,0.4,3-0.5,3.4-2c0.1-0.3,0.1-0.5,0.1-0.8C72.1,47.8,72.1,44.4,72.1,41L72.1,41z"/>
	<g>
		<path class="st2" d="M30.2,97.4c-5.9,0-11.9,0.2-17.8,0c-7-0.3-12.4-6.2-12.4-13.2c0-22.7,0-45.3,0-68c0-7.8,6.1-13.2,13-13.4
			c7.3-0.2,14.6,0,22,0c0.1,0,0.3-0.1,0.4,0.2c0,0.4-0.4,0.4-0.7,0.6C30.5,6,26.6,9,23.2,12.7C17.8,18.9,14,26,12.7,34.2
			C10.5,48.8,15,61.1,25.2,71.4c1.8,1.8,2.1,3.3,0.6,5.8c-1.8,3-4.4,5-7.3,6.8c-0.3,0.2-0.6,0.4-0.9,0.6c-0.5,0.4-0.2,0.6,0.2,0.8
			c0.1,0.2,0.2,0.4,0.3,0.5c2.5,2.2,4.9,4.6,7.3,6.8c1.2,1.1,2.3,2.2,3.4,3.3C29.5,96.4,30.2,96.6,30.2,97.4z"/>
	</g>
	<g>
		<path class="st3" d="M30.2,97.4c-0.1-0.8-0.9-0.9-1.3-1.3c-1.1-1.1-2.3-2.2-3.4-3.3c-2.5-2.3-4.8-4.6-7.3-6.8
			c-0.1-0.2-0.2-0.3-0.3-0.5c5.5,1.1,11,0.3,16.3-1.3c1.8-0.5,3.6-1.1,5.4-1.5c1.2-0.3,2.5-0.3,3.7,0.2c13.8,4.7,27.4,4.3,40.8-1.6
			c5.5-2.4,10.4-5.8,14.6-10c0.2-0.2,0.4-0.5,0.8-0.6c0.2,0.3,0.1,0.6,0.1,1v12.7c0,7.3-5.8,13.2-13,13.2h-0.1c-7.8,0-15.6,0-23.5,0
			H31.6C31.2,97.4,30.8,97.4,30.2,97.4L30.2,97.4z"/>
	</g>
	<g>
		<path class="st2" d="M33.7,48.7c3.3,0,6.4,0,9.4,0c1.7,0,2.7,0.7,2.8,2.1c0.2,1.7-0.8,2.9-2.7,2.9c-3.5,0-7,0-10.5,0c-1,0-2,0-3,0
			c-1.3-0.1-2.5-0.3-3.1-1.6s-0.2-2.5,0.7-3.5c3.3-4.3,6.7-8.5,10.1-12.8c0.2-0.3,0.4-0.5,0.6-0.8c-0.2-0.4-0.5-0.2-0.8-0.2
			c-2.3,0-4.7,0-7.1,0c-0.5,0-1.1-0.1-1.6-0.2c-1.2-0.3-2-1.5-1.7-2.7c0.2-0.8,0.8-1.5,1.7-1.7c0.5-0.1,1.1-0.2,1.6-0.2
			c3.9,0,7.8,0,11.6,0c0.7,0,1.4,0.1,2,0.2c1.5,0.5,2.1,1.9,1.5,3.3c-0.5,1.2-1.3,2.3-2.2,3.4c-2.8,3.6-5.7,7.2-8.5,10.8
			C34.2,48,34,48.2,33.7,48.7L33.7,48.7z"/>
	</g>
	<path class="st2" d="M60.8,35.7c-0.8,0.2-1.4,0.8-1.9,1.5c-2.7-2.4-5.7-2.5-8.7-0.8c-3.6,2.1-4.9,5.5-4.4,9.5c0.4,3.7,2,6.7,5.9,8
		c2.4,0.8,4.7,0.5,6.6-1.1c0.5-0.4,0.7-0.3,1,0.1c0.7,0.9,2,1.3,3,0.8c1.1-0.3,1.8-1.3,1.8-2.5c0-4.3,0-8.7,0-13
		C64,36.5,62.4,35.5,60.8,35.7z M57.8,47.7c-0.2,0.3-0.4,0.5-0.7,0.7c-1.6,1.2-3.8,0.9-5-0.7c-0.6-0.7-0.9-1.6-0.9-2.6
		c0-3,1.7-4.9,4-4.8c1,0.1,2,0.6,2.6,1.4C59,43.4,59,46,57.8,47.7z"/>
	<path class="st2" d="M82.7,35.5c-5.2,0.1-8.9,4.3-8.7,9.9c-0.1,5.4,4.4,9.5,10.1,9c5.2-0.5,8.6-4.4,8.4-9.9
		C92.2,39,88.2,35.2,82.7,35.5z M85.9,47.9c-0.2,0.2-0.4,0.4-0.6,0.6c-1.6,1.2-3.8,0.9-5-0.7c-0.6-0.8-0.9-1.9-0.9-3
		c0-2.7,1.7-4.5,3.9-4.4c1,0.1,2,0.6,2.6,1.4C87.2,43.5,87.2,46.2,85.9,47.9z"/>
	<path class="st2" d="M72.1,41c0,3.4,0,6.7,0,10.1c0,1.5-1.2,2.8-2.7,2.9c-0.3,0-0.5,0-0.8-0.1c-1.1-0.3-1.9-1.4-1.9-2.8V33.8
		c0-1,0-2,0-3c0-1.7,1.1-2.8,2.7-2.8c1.7,0,2.8,1.1,2.8,2.8C72.1,34.2,72.1,37.6,72.1,41z"/>
	<g>
		<path class="st2" d="M85.6,97.1H14.3c-1.9,0-3.8-0.4-5.6-1.1c-1.7-0.7-3.2-1.8-4.6-3.1C2.8,91.6,1.7,90,1,88.3
			c-0.6-1.7-1-3.6-1-5.5V16.9c0-1.9,0.4-3.8,1.1-5.6c0.7-1.7,1.8-3.2,3.1-4.6c1.3-1.3,2.9-2.4,4.6-3.1c1.8-0.7,3.6-1.1,5.6-1.1h71.3
			c1.9,0,3.8,0.4,5.6,1.1c1.7,0.7,3.2,1.8,4.6,3.1c1.3,1.3,2.4,2.9,3.1,4.6c0.7,1.8,1.1,3.6,1.1,5.6v65.9c0,1.9-0.4,3.8-1.1,5.6
			c-0.7,1.7-1.8,3.2-3.1,4.6c-1.3,1.3-2.9,2.4-4.6,3.1C89.4,96.7,87.6,97.1,85.6,97.1z M14.3,3c-3.7,0-7.2,1.4-9.8,4.1
			c-2.6,2.6-4.1,6.1-4.1,9.8v65.9c0,3.7,1.4,7.2,4.1,9.8c2.6,2.6,6.1,4.1,9.8,4.1h71.3c3.7,0,7.2-1.4,9.8-4.1
			c2.6-2.6,4.1-6.1,4.1-9.8V16.9c0-3.7-1.4-7.2-4.1-9.8c-2.5-2.7-6-4.1-9.7-4.1H14.3z"/>
	</g>
</g>
</svg>
