<?xml version="1.0" encoding="utf-8"?>
<!-- Generator: Adobe Illustrator 27.0.0, SVG Export Plug-In . SVG Version: 6.00 Build 0)  -->
<svg version="1.1" id="Layer_1" xmlns="http://www.w3.org/2000/svg" xmlns:xlink="http://www.w3.org/1999/xlink" x="0px" y="0px"
	 viewBox="0 0 100 100" style="enable-background:new 0 0 100 100;" xml:space="preserve">
<style type="text/css">
	.st0{fill:#0F88EB;}
	.st1{fill:#FFFFFF;}
</style>
<g>
	<g id="Layer_16">
		<g>
			<path class="st0" d="M80,100H20C9,100,0,91,0,80V20C0,9,9,0,20,0h60c11,0,20,9,20,20v60C100,91,91,100,80,100z"/>
			<g>
				<path class="st1" d="M40.4,60l-2.9,2.2c0.6-2.7,1-5.6,1.4-8.6h13.4c0-4.9-1.8-5-1.8-5s-5.2,0-11.2,0c0.6-8.4,0.5-15.8,0.5-15.8
					H51v-1.9c0-1.5-1.2-2.7-2.7-2.7H29.6l0,0l3-9.2c-2.5-0.1-5.7,1-7.3,5.8s-6.2,15.8-6.2,15.8c6.2,0,8-5,8-5l1-2.9l0,0h6.3
					l-0.1,15.8c-5.3,0-10.1,0-11.3,0c-3,0-3.6,5-3.6,5h14.3c-3.2,19.9-15.6,27.2-15.6,27.2c10.2,0.9,11.9-2.1,17-11.6
					c0.8-1.5,1.5-3.4,2-5.6l11.3,13.9c0,0,1.5-6.5-0.3-8.5C46.4,67,40.4,60,40.4,60z"/>
				<path class="st1" d="M55.2,27.2V74h5.1l1.7,5.6l8.9-5.6h11V27.2H55.2z M76.4,68.6h-5.9l-6.2,4l-1.4-4h-2.3v-36h15.8V68.6z"/>
			</g>
		</g>
	</g>
	<g id="Layer_17">
	</g>
</g>
</svg>
